<svg width="100" height="100" viewBox="0 0 100 100" fill="none" xmlns="http://www.w3.org/2000/svg">
<rect width="100" height="100" fill="#02FF99"/>
<path d="M51.6898 50.9055C50.376 52.4504 49.2648 53.3414 47.8712 54.8336C44.3289 58.6404 42.7449 63.5756 42.4195 68.4423C42.0942 73.3089 42.9352 78.1703 43.7702 82.9895" stroke="black" stroke-width="3" stroke-linecap="round" stroke-linejoin="round"/>
<path d="M30.3369 84.3263C31.1787 76.6134 32.4816 68.9481 34.2348 61.3889C34.5941 59.8357 34.9801 58.2719 35.6557 56.8247C37.4786 52.9338 41.2103 50.278 45.0171 48.2318" stroke="black" stroke-width="3" stroke-linecap="round" stroke-linejoin="round"/>
<path d="M30.3369 85.3115C31.3313 86.3137 32.956 86.834 34.5645 86.962C36.1729 87.0899 37.7922 86.8724 39.3843 86.6464C40.3081 86.5142 41.2427 86.3777 42.0632 86.0237C42.8837 85.6697 43.5793 85.0556 43.6825 84.3263" stroke="black" stroke-width="3" stroke-linecap="round" stroke-linejoin="round"/>
<path d="M49.0205 46.765C51.2052 45.7472 53.4287 44.713 55.8185 44.3573C59.2785 43.843 62.8771 44.8224 65.8104 46.7048C68.7436 48.5871 71.0558 51.3176 72.7692 54.3326C74.7875 57.8674 76.0407 61.9385 75.6359 65.9767C75.6082 66.2613 75.5638 66.5622 75.3919 66.792C75.2145 67.0328 74.9206 67.1587 74.6434 67.2681C73.2072 67.8262 71.6824 68.16 70.1465 68.264C69.0042 68.3406 67.7289 68.2311 66.9526 67.4049C66.5312 66.9562 66.3205 66.3543 66.1542 65.7579C65.7161 64.1655 65.5442 62.5076 65.644 60.8605C64.3632 61.1232 63.0324 61.1505 61.7404 60.9481C61.1028 60.8496 60.4374 60.6745 59.9938 60.2148C59.6334 59.8427 59.4615 59.3339 59.3451 58.8359C59.0124 57.4296 59.0235 55.9468 59.3617 54.5405C58.0808 55.2354 56.4118 55.1533 55.203 54.3435C53.9943 53.5337 53.3122 52.0234 53.5008 50.5953C52.3973 50.8689 51.1664 50.5789 50.3014 49.8511C49.4364 49.1233 48.9595 47.9688 49.0593 46.847" stroke="black" stroke-width="3" stroke-linecap="round" stroke-linejoin="round"/>
<path d="M49.9666 46.928C50.9553 43.965 49.9722 40.5857 47.9893 38.172C46.0064 35.7583 43.157 34.1991 40.2076 33.1503C38.3913 32.5067 36.4695 32.0295 34.5533 32.2403C33.1758 32.3902 31.8594 32.8951 30.5875 33.45C28.3046 34.4432 26.0995 35.6196 24.0055 36.9624C23.5223 37.2675 23.0391 37.6005 22.7169 38.0721C22.2226 38.799 22.217 39.7978 22.6114 40.5802C23.0057 41.3626 23.7723 41.9285 24.6165 42.1782C26.2217 42.6554 28.0269 42.0007 29.1766 40.7855C30.3264 39.5703 30.8707 37.8779 30.9651 36.2077C31.1373 37.5894 31.7039 38.9155 32.587 39.992C32.837 40.2972 33.1313 40.5968 33.5146 40.7134C34.1645 40.9076 34.8365 40.497 35.3531 40.0586C36.4362 39.143 37.3249 38.0055 37.9525 36.7404C37.8414 37.9445 37.7859 39.1597 37.7803 40.3693C37.7803 41.124 37.8192 41.9341 38.2747 42.5389C39.1078 43.6431 40.8963 43.4434 42.035 42.6443C43.1736 41.8453 43.9346 40.6246 44.9955 39.7312C44.4567 41.0241 43.9124 42.3447 43.8124 43.743C43.7124 45.1413 44.1234 46.6506 45.2176 47.5328C46.4007 48.4928 48.2781 48.4595 49.4278 47.4607" stroke="black" stroke-width="3" stroke-linecap="round" stroke-linejoin="round"/>
<path d="M50.3555 45.5581C52.6389 40.6004 57.6493 37.3398 61.6302 33.4466C63.2237 31.8884 64.6912 30.1861 66.5639 28.9312C68.1136 27.8923 69.8933 27.2032 71.6893 26.6066C72.8392 26.226 74.0001 25.8763 75.172 25.5677C75.3417 25.5215 75.5279 25.4752 75.6976 25.5317C75.8455 25.578 75.9605 25.6912 76.059 25.8043C77.1268 27.0232 77.3842 28.8592 76.5573 30.2323C75.7305 31.6055 73.803 32.3409 72.2369 31.7752C73.0473 32.9066 72.445 34.5729 71.2458 35.3341C70.0466 36.0952 68.4641 36.1261 67.0458 35.8227C67.0622 37.1187 67.0239 38.5535 66.0766 39.4947C65.299 40.261 64.0615 40.4976 62.9499 40.3381C61.8383 40.1787 60.8088 39.6798 59.8287 39.1553C59.4508 41.2896 57.8902 43.2079 55.7984 44.113" stroke="black" stroke-width="3" stroke-linecap="round" stroke-linejoin="round"/>
<path d="M52.0442 42.8845C53.7871 38.1501 54.8562 32.6469 54.1266 27.6027C53.397 22.5586 51.2589 17.7412 47.9402 14.1462C47.697 13.8862 47.4386 13.6207 47.1093 13.5212C46.8306 13.4382 46.5317 13.4825 46.248 13.5212C45.1536 13.6927 44.0237 13.8752 43.1016 14.5333C42.8685 14.6993 42.6506 14.8928 42.5138 15.1583C42.1845 15.7778 42.3973 16.5687 42.7013 17.1992C43.7146 19.3175 45.7312 20.833 47.9047 21.1095C46.5621 21.823 45.8173 23.6537 46.2328 25.2189C46.6482 26.7842 48.1733 27.8959 49.6578 27.7134C49.1663 28.5485 48.6647 29.4169 48.5077 30.3958C48.3506 31.3748 48.6039 32.5031 49.369 33.0451C49.7845 33.3438 50.3773 33.5373 50.4533 34.0683C50.4786 34.2674 50.4229 34.4665 50.357 34.6601C50.0479 35.5782 49.6375 36.4576 49.4095 37.4034C49.1815 38.3492 49.1106 39.837 49.5717 40.6721" stroke="black" stroke-width="3" stroke-linecap="round" stroke-linejoin="round"/>
<path d="M42.3479 49.5686C42.9691 51.7176 44.459 53.3162 46.0752 54.3973C46.5701 54.7314 47.1334 55.0262 47.6861 54.8755" stroke="black" stroke-width="3" stroke-linecap="round" stroke-linejoin="round"/>
<path d="M37.0096 56.2528C37.5868 56.8447 37.7643 57.238 38.519 57.7248C40.2392 58.8229 42.8085 59.2123 45.017 58.71" stroke="black" stroke-width="3" stroke-linecap="round" stroke-linejoin="round"/>
<path d="M34.3406 65.6107C35.7719 66.8107 37.3033 68.0533 39.115 68.256C40.241 68.384 41.4071 68.0747 42.3479 67.4027" stroke="black" stroke-width="3" stroke-linecap="round" stroke-linejoin="round"/>
<path d="M33.006 74.9685C33.7909 75.5995 34.886 75.9751 36.0053 76.1502C37.1246 76.3253 38.2875 76.3216 39.431 76.2852C40.4679 76.2523 41.5969 76.1685 42.3479 75.6287" stroke="black" stroke-width="3" stroke-linecap="round" stroke-linejoin="round"/>
<path d="M31.6714 80.3158C33.8091 81.0122 35.7902 82.9981 37.9711 82.9895C39.1641 82.9895 40.3139 82.3705 41.4422 81.7687C42.1871 81.3646 42.9375 80.9692 43.6824 80.5651" stroke="black" stroke-width="3" stroke-linecap="round" stroke-linejoin="round"/>
</svg>
