<svg width="46" height="43" viewBox="0 0 46 43" fill="none" xmlns="http://www.w3.org/2000/svg">
<path d="M43.7337 1.84943C44.3915 3.08439 44.2438 4.31264 43.7337 5.55432C41.7873 10.3465 39.163 14.8166 37.1226 19.5618C35.2836 23.8304 33.2432 27.9985 30.5384 31.8174C28.894 34.1397 27.2295 36.4553 25.9811 39.0393C25.6791 39.6635 25.0415 40.1266 24.5582 40.6635C24.0213 41.2609 23.4978 41.1199 22.9407 40.6635C22.4104 40.2273 22.095 39.6165 21.8399 39.0393C20.162 35.2606 18.1149 31.6497 16.6786 27.7635C16.4303 27.0924 15.9806 26.6494 15.5376 26.1527C15.2557 25.844 14.8731 25.703 14.6919 25.2064C14.0543 23.4546 13.4167 23.0787 11.8327 23.6022C9.49031 24.3808 7.13448 24.2936 4.73838 24.0922C3.86585 24.0184 3.10742 23.7096 2.32214 23.421" stroke="white" stroke-width="3" stroke-linecap="round" stroke-linejoin="round"/>
<path d="M42.9283 1.70178C41.3108 1.80917 40.0893 2.87634 38.7469 3.63477C38.0757 4.01734 33.203 4.85631 31.6727 5.5946C22.6521 9.97067 13.7322 14.5481 5.24849 19.9108C3.93299 20.7431 2.40942 21.4881 2 23.2667" stroke="white" stroke-width="3" stroke-linecap="round" stroke-linejoin="round"/>
<path d="M19.6788 33.5558C18.7525 33.8243 17.8196 34.0927 16.9605 34.5357C16.4101 34.8243 15.9 35.1801 15.3899 35.5358L13.014 37.1936L13.1214 36.8043C13.014 36.368 13.5241 36.0123 13.4167 35.6834C12.6046 33.1799 13.4771 30.7369 13.5778 28.2669C13.618 27.2065 14.061 26.4212 14.7255 25.6896" stroke="white" stroke-width="3" stroke-linecap="round" stroke-linejoin="round"/>
<path d="M14.6718 25.9111C15.645 24.3473 16.8464 22.9311 18.1284 21.6089C22.7058 16.857 28.2229 13.1185 33.8607 9.6955C35.532 8.67531 37.2368 7.67526 38.6865 6.35975C40.3443 4.85632 41.6867 2.93004 43.6868 1.92328" stroke="white" stroke-width="3" stroke-linecap="round" stroke-linejoin="round"/>
</svg>
