<svg width="80" height="101" viewBox="0 0 80 101" fill="none" xmlns="http://www.w3.org/2000/svg">
<path d="M12.7482 96.648H10.6362L9.26019 92.792H4.28419L2.90819 96.648H0.796188L5.48419 83.592H8.04419L12.7482 96.648ZM6.78019 85.768L4.94019 90.936H8.60419L6.78019 85.768ZM17.8023 96.888C15.4183 96.888 13.3543 95.384 13.3543 92.472V91.256C13.3543 88.344 15.4183 86.856 17.8023 86.856C19.6263 86.856 21.3063 87.784 21.9303 89.624L19.9943 90.344C19.6103 89.24 18.8103 88.728 17.8023 88.728C16.5223 88.728 15.4183 89.576 15.4183 91.32V92.408C15.4183 94.152 16.5223 95.016 17.8023 95.016C18.8103 95.016 19.6103 94.504 19.9943 93.4L21.9303 94.104C21.3063 95.944 19.6263 96.888 17.8023 96.888ZM28.7489 94.712L29.2129 96.44C28.6369 96.744 27.8209 96.888 27.1329 96.888C25.4689 96.888 24.4129 96.008 24.4129 94.264V88.968H22.8289V87.096H24.4129V84.552H26.4609V87.096H28.8129V88.968H26.4609V93.96C26.4609 94.792 26.8289 95.016 27.4369 95.016C27.9329 95.016 28.3169 94.888 28.7489 94.712ZM31.8766 85.48C31.2046 85.48 30.6606 84.952 30.6606 84.264C30.6606 83.592 31.2046 83.048 31.8766 83.048C32.5486 83.048 33.0926 83.592 33.0926 84.264C33.0926 84.952 32.5486 85.48 31.8766 85.48ZM32.9166 96.648H30.8526V87.096H32.9166V96.648ZM38.5608 94.392L41.0568 87.096H43.2488L39.6648 96.648H37.4408L33.8568 87.096H36.0488L38.5608 94.392ZM45.8766 85.48C45.2046 85.48 44.6606 84.952 44.6606 84.264C44.6606 83.592 45.2046 83.048 45.8766 83.048C46.5486 83.048 47.0926 83.592 47.0926 84.264C47.0926 84.952 46.5486 85.48 45.8766 85.48ZM46.9166 96.648H44.8526V87.096H46.9166V96.648ZM54.5614 94.712L55.0254 96.44C54.4494 96.744 53.6334 96.888 52.9454 96.888C51.2814 96.888 50.2254 96.008 50.2254 94.264V88.968H48.6414V87.096H50.2254V84.552H52.2734V87.096H54.6254V88.968H52.2734V93.96C52.2734 94.792 52.6414 95.016 53.2494 95.016C53.7454 95.016 54.1294 94.888 54.5614 94.712ZM57.6891 85.48C57.0171 85.48 56.4731 84.952 56.4731 84.264C56.4731 83.592 57.0171 83.048 57.6891 83.048C58.3611 83.048 58.9051 83.592 58.9051 84.264C58.9051 84.952 58.3611 85.48 57.6891 85.48ZM58.7291 96.648H56.6651V87.096H58.7291V96.648ZM69.3876 91.432V92.616H62.6516C62.7636 94.248 63.8196 95.064 65.0196 95.064C66.0596 95.064 66.9716 94.6 67.3556 93.64L69.2276 94.216C68.6676 95.976 66.9876 96.888 65.0196 96.888C62.6516 96.888 60.6356 95.352 60.6356 92.344V91.384C60.6356 88.392 62.6356 86.856 65.0036 86.856C67.4036 86.856 69.3876 88.392 69.3876 91.432ZM62.6676 90.92H67.3556C67.3556 89.608 66.3316 88.664 65.0036 88.664C63.8356 88.664 62.8436 89.416 62.6676 90.92ZM70.6318 94.6L72.1998 93.544C72.9198 94.728 74.0718 95.144 75.0318 95.144C75.9758 95.144 76.8238 94.824 76.8238 94.072C76.8238 93.336 76.1838 93.064 75.3198 92.84L74.1998 92.552C72.7278 92.184 71.3038 91.432 71.3038 89.624C71.3038 87.816 72.8078 86.856 74.8078 86.856C76.7118 86.856 77.9438 87.72 78.7598 88.904L77.2718 90.008C76.6158 89.144 75.7198 88.6 74.7758 88.6C73.8478 88.6 73.2878 88.984 73.2878 89.624C73.2878 90.28 73.7358 90.584 74.5998 90.824L75.7038 91.096C77.1758 91.464 78.8078 92.168 78.8078 94.072C78.8078 96.008 76.9518 96.888 74.9838 96.888C73.0478 96.888 71.4638 96.104 70.6318 94.6Z" fill="black"/>
<path d="M45.4427 31.0821C47.1532 31.9143 49.3889 31.328 50.6317 29.3924C51.913 27.4001 52.8611 25.1872 52.797 22.7599C52.7394 20.4839 51.8617 18.479 50.1961 16.8713C49.626 16.3165 48.9277 16.0075 48.0564 15.9193C46.9738 15.8058 45.8783 15.8058 44.8085 15.3897C43.7515 14.9799 42.3805 16.0454 42.3741 17.1676C42.3421 21.3035 42.3421 25.4394 42.3741 29.5753C42.3869 31.0064 43.4504 31.473 45.2825 30.9371" stroke="black" stroke-width="3" stroke-linecap="round" stroke-linejoin="round"/>
<path d="M46.15 15.3C45.969 17.9117 45.9181 20.543 45.5675 23.1286C45.2395 25.5901 45.5166 28.0581 45.2 30.5" stroke="black" stroke-width="3" stroke-linecap="round" stroke-linejoin="round"/>
<path d="M53.75 44.5841C53.7246 44.4342 53.75 44.2532 53.6676 44.1408C53.0714 43.2856 52.8051 42.0495 51.5431 41.9122C50.1796 41.7624 49.8561 43.0171 49.2727 43.8474C48.8097 44.5092 48.2834 45.1958 48.0804 45.945C47.6999 47.3433 46.7804 47.8802 45.474 48.3734C41.466 49.9029 37.9272 52.3687 34.0524 54.1916C29.9619 56.1143 25.6812 57.519 21.4069 58.9548C21.1342 59.0484 20.8044 58.9673 20.5 58.9673" stroke="black" stroke-width="3" stroke-linecap="round" stroke-linejoin="round"/>
<path d="M18.9857 31.8084C19.0179 29.7885 18.114 27.9482 17.8299 25.9732C17.5522 24.0496 17.352 22.0297 16.3383 20.2727C16.0283 19.7341 16.3512 19.4904 16.6611 19.1891C17.3908 18.4645 18.4239 18.4068 19.315 18.1759C20.0575 17.9836 20.4966 18.9005 20.6645 19.5097C21.646 23.0236 22.8599 26.4798 23.3248 30.122C23.4862 31.3724 22.8793 32.0905 21.3102 32.2573C19.98 32.3983 18.6047 32.4304 17.2875 32.3727C14.3172 32.2509 12.4511 30.3464 11.2695 27.8007C10.7594 26.7042 11.0371 25.4859 11.573 24.4343C12.3155 22.9915 13.4003 21.7732 14.498 20.5805C14.9113 20.1317 15.4278 19.9137 16.0477 19.965" stroke="black" stroke-width="3" stroke-linecap="round" stroke-linejoin="round"/>
<path d="M67.7433 37.9512C68.4455 39.672 67.188 40.7451 66.3517 41.9071C62.6303 47.0694 57.5044 50.5554 52.1424 53.8446C47.2209 56.8671 41.7823 58.3212 36.3437 59.9213C33.5989 60.7277 30.8732 61.604 28.0645 62.1755C25.9452 62.6073 23.8196 63.039 21.6301 62.6454C19.6194 62.2771 19.0959 61.2929 19.9321 59.4387C19.9641 59.3752 20.079 59.2355 20.079 59.1403C20.0087 55.0193 23.5579 53.3176 25.792 50.7777C27.6496 48.6696 30.3114 47.6219 32.6733 46.1995C36.3565 43.9834 39.7588 41.3673 43.2058 38.8338C44.042 38.2179 44.8399 37.7797 45.8293 37.4686C50.3296 36.059 54.9256 35.2335 59.6237 34.8843C61.4685 34.7509 63.2814 34.3064 65.1389 34.3001C67.405 34.2937 68.3178 35.4176 67.9029 37.621C64.4367 38.1861 61.4685 39.9514 58.4045 41.4753C56.8278 42.2563 55.3213 43.1707 53.6489 43.7485" stroke="black" stroke-width="3" stroke-linecap="round" stroke-linejoin="round"/>
<path d="M44.2501 15.099C43.9099 13.8977 44.165 12.6583 43.9557 11.4315C43.3472 7.80214 41.2275 5.40586 37.989 3.61977C34.587 1.7447 31.0999 1.71928 27.4492 2.43117C24.7538 2.95238 23.2032 4.91008 21.4695 6.69617C18.5516 9.70899 18.1852 13.243 18.9376 17.0885C18.9965 17.4 19.4087 17.7941 18.9703 18.15" stroke="black" stroke-width="3" stroke-linecap="round" stroke-linejoin="round"/>
</svg>
