<svg width="74" height="86" viewBox="0 0 74 86" fill="none" xmlns="http://www.w3.org/2000/svg">
<path d="M54.3802 25.6519C52.908 25.574 51.4591 25.2843 49.993 25.1861C48.4486 25.084 46.9019 25.1446 45.3858 25.531" stroke="black" stroke-width="2.25" stroke-linecap="round" stroke-linejoin="round"/>
<path d="M53.8491 28.8525C52.0649 28.6426 50.2977 28.2527 48.4869 28.2923C47.2924 28.3169 46.1056 28.4056 44.9263 28.5931C44.4924 28.6628 44.2253 28.8655 44.2885 29.3516" stroke="black" stroke-width="2.25" stroke-linecap="round" stroke-linejoin="round"/>
<path d="M37.6219 27.2396C37.1598 27.6751 36.6362 27.7174 36.0094 27.6567C34.4859 27.5084 33.0893 26.9957 31.7026 26.3988C30.885 26.0478 30.0391 26.0771 29.1956 26.3535C28.7753 26.4931 28.4071 26.6538 28.4174 27.1828" stroke="black" stroke-width="2.25" stroke-linecap="round" stroke-linejoin="round"/>
<path d="M34.4305 31.2416C32.9328 30.2597 31.2497 29.8797 29.5038 29.6266C28.2974 29.4506 27.0994 29.298 25.8788 29.3135" stroke="black" stroke-width="2.25" stroke-linecap="round" stroke-linejoin="round"/>
<path d="M39.6816 24.4778C39.011 24.216 38.2936 24.1889 37.5944 24.1098C36.6573 24.0042 35.7946 23.766 34.9464 23.3158C33.2816 22.4334 31.5624 22.3667 29.8645 23.2998" stroke="black" stroke-width="2.25" stroke-linecap="round" stroke-linejoin="round"/>
<path d="M43.5324 23.344C43.3694 24.4402 42.8481 25.3979 42.2923 26.3173C41.4542 27.7124 40.8959 29.2536 40.0117 30.6161C38.8486 32.4079 38.2917 34.4983 37.1603 36.305C37.0594 36.4663 37.1025 36.7168 37.0706 36.9256C37.0355 37.1605 37.1795 37.4733 36.7833 37.5522C36.4599 37.6176 36.2322 37.4809 36.0172 37.263C35.3952 36.6241 34.7113 36.0541 34.0216 35.487C31.5355 33.4486 28.5904 32.7088 25.4818 32.452C23.4065 32.2817 21.3608 32.5099 19.335 32.9796C19.029 33.051 18.6775 33.0434 18.3626 32.9084" stroke="black" stroke-width="2.25" stroke-linecap="round" stroke-linejoin="round"/>
<path d="M17.3124 33.6614C17.2608 34.4743 17.8158 35.1181 17.939 35.8956C17.9925 36.2421 18.4541 36.2687 18.8116 36.2618C20.3695 36.2305 21.927 36.2252 23.4851 36.1793C25.5025 36.1193 27.4435 36.5522 29.4084 36.9302C31.8255 37.3956 33.789 38.5378 35.4212 40.3235C35.6847 40.6118 35.9248 40.6905 36.3323 40.635C36.9 40.5554 37.5024 40.703 38.0694 40.6729C38.744 40.6354 39.0909 39.9079 39.682 39.5962C41.5988 38.5904 43.6214 38.1352 45.7772 38.1526C48.1015 38.1722 50.4249 38.0407 52.7514 38.1126C54.2327 38.1587 55.68 38.3583 57.07 38.9233C57.4081 39.0615 57.7902 39.1683 58.2494 39.1628C58.5056 38.9135 58.8259 38.6476 59.0743 38.3226C59.1275 38.2535 59.3913 38.0856 59.1795 37.8445C58.7788 37.3888 59.0851 36.8699 59.1323 36.3852C59.3479 34.1798 58.923 32.0704 58.1513 30.0289C57.4302 28.1189 56.7703 26.1952 56.2943 24.21C56.1842 23.7553 55.9689 23.3456 55.8705 22.8851C55.7802 22.4655 55.4079 22.2745 54.991 22.1672C52.243 21.4562 49.478 21.3667 46.6956 21.9221C45.8099 22.0991 44.9804 22.4163 44.2441 22.9381C43.807 23.2461 43.5322 23.3673 43.0333 22.8724C41.6855 21.5439 39.9906 20.7395 38.2117 20.1373C35.7791 19.3114 33.2671 19.4229 30.7597 19.6217C30.3583 19.654 30.0157 19.847 29.695 20.1449C28.1943 21.5456 26.9434 23.1705 25.6179 24.7189C23.9737 26.6349 22.0772 28.2947 20.3613 30.1371C19.5947 30.9637 18.6962 31.6606 18.3493 32.8269C18.2337 33.2147 17.6456 33.2998 17.3221 33.5889C17.0579 33.5708 16.9108 33.2754 16.6286 33.3007" stroke="black" stroke-width="2.25" stroke-linecap="round" stroke-linejoin="round"/>
<path d="M54.0211 31.6443C52.6671 31.6464 51.3346 31.335 49.9799 31.3866C47.9478 31.461 45.902 31.4713 43.9111 31.9472C43.5409 32.0352 42.9783 31.9521 42.8512 32.5402" stroke="black" stroke-width="2.25" stroke-linecap="round" stroke-linejoin="round"/>
<path d="M58.8277 37.2181C57.6703 36.8539 56.5314 36.4115 55.3524 36.1399C52.6758 35.5257 49.956 35.3119 47.2054 35.4464C44.7136 35.5669 42.2707 35.9467 39.8674 36.6118C39.2491 36.7836 38.6252 36.9379 38.049 37.2208C37.7536 37.365 37.4567 37.4017 37.1378 37.3451" stroke="black" stroke-width="2.25" stroke-linecap="round" stroke-linejoin="round"/>
<path d="M3.03048 77.346V80.846H8.67248V82.442H1.22448V71.018H8.53248V72.614H3.03048V75.75H8.26648V77.346H3.03048ZM15.9719 75.12V71.018H17.7779V82.442H16.0979L16.0139 81.364C15.3699 82.204 14.4179 82.652 13.3679 82.652C11.6459 82.652 9.97995 81.196 9.97995 78.676V77.836C9.97995 75.344 11.6459 73.874 13.3679 73.874C14.3899 73.874 15.3279 74.308 15.9719 75.12ZM13.8859 81.014C15.0339 81.014 15.9719 80.244 15.9719 78.634V77.892C15.9719 76.282 15.0339 75.512 13.8859 75.512C12.7239 75.512 11.7859 76.282 11.7859 77.892V78.634C11.7859 80.244 12.7239 81.014 13.8859 81.014ZM25.2076 79.166V74.084H27.0136V82.442H25.3336L25.2496 81.378C24.7456 82.134 23.8916 82.652 22.7856 82.652C21.0356 82.652 19.6356 81.308 19.6356 79.124V74.084H21.4416V79.054C21.4416 80.468 22.2116 81.014 23.2756 81.014C24.3256 81.014 25.2076 80.3 25.2076 79.166ZM32.6298 82.652C30.5438 82.652 28.7378 81.336 28.7378 78.788V77.724C28.7378 75.176 30.5438 73.874 32.6298 73.874C34.2258 73.874 35.6958 74.686 36.2418 76.296L34.5478 76.926C34.2118 75.96 33.5118 75.512 32.6298 75.512C31.5098 75.512 30.5438 76.254 30.5438 77.78V78.732C30.5438 80.258 31.5098 81.014 32.6298 81.014C33.5118 81.014 34.2118 80.566 34.5478 79.6L36.2418 80.216C35.6958 81.826 34.2258 82.652 32.6298 82.652ZM41.1441 73.874C43.0901 73.874 44.5741 75.064 44.5741 77.108V82.442H42.9221L42.8381 81.378C42.3901 82.176 41.5781 82.652 40.5141 82.652H39.9821C38.4701 82.652 37.3221 81.546 37.3221 79.964C37.3221 78.48 38.4001 77.388 40.4301 77.388H42.7961V77.178C42.7961 76.226 42.2221 75.512 41.0181 75.512C40.1921 75.512 39.6041 75.89 39.2401 76.548L37.6301 75.862C38.2601 74.714 39.5621 73.874 41.1441 73.874ZM40.3601 81H40.8781C41.8021 81 42.6701 80.482 42.7961 79.572V78.928H40.4861C39.5761 78.928 39.1001 79.334 39.1001 79.964C39.1001 80.608 39.6041 81 40.3601 81ZM50.7666 80.748L51.1726 82.26C50.6686 82.526 49.9546 82.652 49.3526 82.652C47.8966 82.652 46.9726 81.882 46.9726 80.356V75.722H45.5866V74.084H46.9726V71.858H48.7646V74.084H50.8226V75.722H48.7646V80.09C48.7646 80.818 49.0866 81.014 49.6186 81.014C50.0526 81.014 50.3886 80.902 50.7666 80.748ZM53.5033 72.67C52.9153 72.67 52.4393 72.208 52.4393 71.606C52.4393 71.018 52.9153 70.542 53.5033 70.542C54.0913 70.542 54.5673 71.018 54.5673 71.606C54.5673 72.208 54.0913 72.67 53.5033 72.67ZM54.4133 82.442H52.6073V74.084H54.4133V82.442ZM59.9735 82.652C57.8875 82.652 56.0815 81.336 56.0815 78.774V77.724C56.0815 75.176 57.8875 73.874 59.9735 73.874C62.0595 73.874 63.8795 75.176 63.8795 77.724V78.774C63.8795 81.336 62.0595 82.652 59.9735 82.652ZM59.9735 81.014C61.0935 81.014 62.0735 80.258 62.0735 78.732V77.78C62.0735 76.254 61.0935 75.512 59.9735 75.512C58.8535 75.512 57.8875 76.254 57.8875 77.78V78.732C57.8875 80.258 58.8535 81.014 59.9735 81.014ZM69.8333 73.874C71.5833 73.874 72.9833 75.218 72.9833 77.388V82.442H71.1773V77.472C71.1773 76.058 70.4073 75.512 69.3293 75.512C68.2793 75.512 67.4113 76.212 67.4113 77.36V82.442H65.6053V74.084H67.2853L67.3693 75.148C67.8593 74.378 68.7273 73.874 69.8333 73.874Z" fill="black"/>
</svg>
