<svg width="42" height="25" viewBox="0 0 42 25" fill="none" xmlns="http://www.w3.org/2000/svg">
<g clip-path="url(#clip0_308_557)">
<path d="M13.1428 21.3124C11.0409 20.9826 8.97616 20.4878 6.96086 19.8516C5.45247 19.3685 3.94408 18.7912 2.73242 17.8134C-0.24727 15.3864 -0.741824 10.8742 1.02621 7.54006C1.76804 6.14986 2.83133 4.93638 4.00589 3.84072C5.14337 2.79218 6.39212 1.82611 7.82632 1.18992C9.71799 0.365225 11.8322 0.129598 13.9093 0.0471286C19.98 -0.200279 26.0506 0.718665 31.874 2.34449C34.2726 3.01603 36.733 3.86428 38.5134 5.54901C39.6756 6.64468 40.4916 8.03488 41.0851 9.48398C42.1978 12.1583 42.5317 15.4925 40.5905 17.6956C39.4531 18.9915 37.7221 19.6631 36.0283 20.1461C30.6871 21.6541 24.9874 21.6777 19.4731 21.0061C19.164 20.9708 18.8178 20.9237 18.5334 21.0533C18.3356 21.1475 18.1872 21.3007 18.0389 21.4538C16.9138 22.632 15.7886 23.8101 14.6635 24.9882C14.0206 23.7747 13.5013 22.5024 13.0933 21.1946" fill="white"/>
<path d="M9.40894 8.11737C11.2882 8.27053 13.1799 8.37656 15.0592 8.43547" stroke="black" stroke-miterlimit="10" stroke-linecap="round"/>
<path d="M11.8447 8.58862C11.4861 10.1202 11.2883 11.6989 11.2512 13.2658" stroke="black" stroke-miterlimit="10" stroke-linecap="round"/>
<path d="M15.9246 14.0669C16.0111 11.8403 16.7406 9.64893 18.0141 7.7757C18.2119 8.01132 18.3231 8.29407 18.4221 8.56505C19.0155 10.132 19.5348 11.7224 19.9552 13.3365" stroke="black" stroke-miterlimit="10" stroke-linecap="round"/>
<path d="M15.9866 11.6399C17.0251 11.4632 18.0884 11.4279 19.1394 11.5104" stroke="black" stroke-miterlimit="10" stroke-linecap="round"/>
<path d="M22.2056 8.14093L22.3292 13.2658C22.3292 13.3836 22.3539 13.525 22.4528 13.5721C22.5147 13.6075 22.5888 13.5957 22.663 13.5957C23.5903 13.5014 24.5052 13.4072 25.4325 13.3129" stroke="black" stroke-miterlimit="10" stroke-linecap="round"/>
<path d="M27.9299 8.41187C28.1895 10.6739 28.14 12.9712 27.7815 15.2097" stroke="black" stroke-miterlimit="10" stroke-linecap="round"/>
<path d="M28.2886 12.2643C28.8944 13.36 29.7722 14.3143 30.8355 15.033" stroke="black" stroke-miterlimit="10" stroke-linecap="round"/>
<path d="M28.7708 12.3704C29.3271 11.4397 30.069 10.6032 30.9468 9.93164" stroke="black" stroke-miterlimit="10" stroke-linecap="round"/>
</g>
<defs>
<clipPath id="clip0_308_557">
<rect width="42" height="25" fill="white"/>
</clipPath>
</defs>
</svg>
