<svg width="1194" height="587" viewBox="0 0 1194 587" fill="none" xmlns="http://www.w3.org/2000/svg">
<rect width="1194" height="587" fill="#F5F5F5"/>
<path d="M649.536 404.517C651.543 409.922 655.7 412.38 661.173 413.031C663.458 413.301 665.76 413.208 668.054 413.234C669.192 413.25 669.698 413.141 669.555 411.595C669.31 408.85 669.293 406.054 669.673 403.292" stroke="black" stroke-width="3" stroke-linecap="round" stroke-linejoin="round"/>
<path d="M555.026 307.008C554.2 312.059 551.417 316.029 547.564 319.07C545.928 320.362 543.364 320.261 541.172 319.948C538.431 319.56 535.699 319.078 533.068 318.157" stroke="black" stroke-width="3" stroke-linecap="round" stroke-linejoin="round"/>
<path d="M653.078 336.504C652.007 337.01 651.695 338.151 651.298 339.055C649.334 343.633 643.971 347.265 639.114 347.147C637.672 347.113 636.323 346.462 634.864 346.538" stroke="black" stroke-width="3" stroke-linecap="round" stroke-linejoin="round"/>
<path d="M647.006 462.495C646.93 464.285 645.278 465.13 644.485 466.49C642.799 469.387 641.669 472.361 641.34 475.672C641.196 477.133 643.735 480.317 645.185 480.537C645.784 480.63 646.374 480.495 646.787 480.115C647.47 479.481 648.145 478.856 649.03 478.51" stroke="black" stroke-width="3" stroke-linecap="round" stroke-linejoin="round"/>
<path d="M668.054 332.348C668.737 327.584 673.358 325.371 676.545 326.486C677.65 326.874 678.434 327.474 678.856 328.876C680.205 333.345 679.378 336.36 675.769 339.266C674.563 340.229 673.518 341.36 672.127 342.112C671.098 342.661 670.794 343.675 670.862 344.917C671.03 348.152 670.921 351.412 671.157 354.639C671.25 355.863 670.946 357.333 672.691 358.153C674.741 359.107 676.317 358.583 677.759 357.257C679.083 356.041 680.002 354.512 679.994 352.62C679.994 351.97 680.281 351.488 680.618 350.998" stroke="black" stroke-width="3" stroke-linecap="round" stroke-linejoin="round"/>
<path d="M679.994 332.145C680.601 332.145 681.208 332.187 681.815 332.145C683.62 332.002 685.002 332.542 686.309 333.944C689.126 336.968 690.88 340.431 691.31 344.528C691.588 347.223 690.07 349.005 687.869 350.179C685.576 351.395 683.08 351.328 680.601 350.796C680.466 350.762 680.39 350.415 680.289 350.213" stroke="black" stroke-width="3" stroke-linecap="round" stroke-linejoin="round"/>
<path d="M640.53 336.605C639.578 336.546 638.65 336.605 637.68 336.25C636.34 335.76 634.577 336.875 634.274 338.227C633.953 339.688 634.974 340.313 636.078 340.862C637.25 341.445 638.49 341.293 639.721 341.268" stroke="black" stroke-width="3" stroke-linecap="round" stroke-linejoin="round"/>
<path d="M642.959 451.75C644.865 453.279 647.394 453.398 649.427 454.597C656.974 459.04 659.588 460.848 659.52 469.793C659.486 474.016 657.033 477.082 653.82 479.439C653.019 480.022 651.442 479.439 650.236 479.726" stroke="black" stroke-width="3" stroke-linecap="round" stroke-linejoin="round"/>
<path d="M641.137 406.544C640.016 410.733 639.932 415.075 639.147 419.324C638.802 421.19 638.49 423.082 638.507 424.991" stroke="black" stroke-width="3" stroke-linecap="round" stroke-linejoin="round"/>
<path d="M635.876 459.048C631.196 462.875 628.835 467.875 628.396 473.847C628.337 474.658 628.481 475.486 628.186 476.28" stroke="black" stroke-width="3" stroke-linecap="round" stroke-linejoin="round"/>
<path d="M751.028 479.523C749.611 480.14 749.139 481.5 748.844 482.775C748.102 485.968 747.115 489.102 746.423 492.303C746.17 493.486 745.993 494.854 746.988 495.944" stroke="black" stroke-width="3" stroke-linecap="round" stroke-linejoin="round"/>
<path d="M542.176 333.97C543.71 334.367 545.136 333.623 546.62 333.505C547.311 333.446 547.589 332.483 547.623 331.74C547.724 329.417 549.057 327.592 550.085 325.667C551.662 322.702 554.765 322.465 557.565 321.849C558.501 321.646 561.452 324.898 561.798 326.266C563.029 331.157 562.506 335.71 559.395 339.857C557.362 342.568 554.512 342.332 551.687 342.256C550.819 342.231 549.807 341.682 549.301 342.704C548.939 343.43 549.588 344.072 550.035 344.731C551.342 346.648 550.111 348.532 547.438 348.751C545.625 348.895 543.837 348.709 542.176 347.856" stroke="black" stroke-width="3" stroke-linecap="round" stroke-linejoin="round"/>
<path d="M710.147 387.488C711.387 388.274 712.821 388.24 714.178 388.569C716.649 389.169 718.892 390.377 720.688 392.336C724.229 396.205 727.611 400.183 729.989 404.914C731.439 407.794 732.19 410.852 732.645 414.036C733.269 418.378 734.163 422.677 734.812 427.019C735.124 429.088 735.31 431.191 735.242 433.295C735.057 439.587 736.119 445.753 737.038 451.953C737.645 456.041 737.375 460.197 737.679 464.311" stroke="black" stroke-width="3" stroke-linecap="round" stroke-linejoin="round"/>
<path d="M531.854 321.604C532.158 319.771 532.748 318.031 533.473 316.333C534.586 313.731 535.143 311.028 534.628 308.233C534.485 307.447 534.316 306.417 533.068 306.155C531.888 305.901 531.298 306.535 530.631 307.211C528.127 309.753 529.114 316.164 532.655 317.549" stroke="black" stroke-width="3" stroke-linecap="round" stroke-linejoin="round"/>
<path d="M669.672 412.625C676.486 412.887 682.169 410.074 687.245 405.902C689.59 403.976 690.829 401.138 692.119 398.435C692.996 396.594 694.219 395.403 696.378 395.166C700.611 394.71 703.747 392.041 707.154 389.785C710.215 387.758 711.033 384.684 711.935 381.601C712.989 377.969 712.778 374.362 711.168 370.856C710.316 368.998 709.195 367.309 708.107 365.594C706.184 362.562 703.022 361.844 699.818 361.345C692.516 360.205 685.803 361.692 679.538 365.729C677.337 367.148 675.153 368.804 672.497 369.446" stroke="black" stroke-width="3" stroke-linecap="round" stroke-linejoin="round"/>
<path d="M669.065 413.436C669.664 416.883 669.065 420.329 668.998 423.775C668.973 424.974 668.88 426.216 668.897 427.424C668.922 428.64 668.627 429.755 668.256 430.87" stroke="black" stroke-width="3" stroke-linecap="round" stroke-linejoin="round"/>
<path d="M640.935 460.873C640.876 461.245 641.07 461.616 640.539 461.904C635.977 464.404 635.167 468.881 634.704 473.442C634.569 474.759 634.113 476.136 634.653 477.488" stroke="black" stroke-width="3" stroke-linecap="round" stroke-linejoin="round"/>
<path d="M544.3 276.6C543.727 280.249 543.137 283.898 542.589 287.547C542.462 288.408 542.622 289.261 543.187 289.979" stroke="black" stroke-width="3" stroke-linecap="round" stroke-linejoin="round"/>
<path d="M622.316 410.598C622.595 411.662 621.676 412.296 621.246 412.997C619.272 416.249 618.362 419.94 616.928 423.403C616.456 424.552 615.798 425.371 615.022 426.208" stroke="black" stroke-width="3" stroke-linecap="round" stroke-linejoin="round"/>
<path d="M526.39 348.16C526.272 349.317 527.141 349.892 527.807 350.593C529.375 352.24 531.18 353.6 533.069 354.85C536.231 356.928 539.899 356.455 542.783 353.634" stroke="black" stroke-width="3" stroke-linecap="round" stroke-linejoin="round"/>
<path d="M627.78 457.832C626.802 457.672 626.355 458.111 625.925 459.032C623.977 463.23 623.362 467.672 623.345 472.225C623.328 475.41 624.34 476.381 627.578 476.457C628.303 476.474 628.531 477.015 629.003 477.285C630.656 478.214 632.325 479.287 634.256 477.901C634.762 477.538 635.201 477.758 635.681 477.901C637.697 478.535 639.628 478.56 641.348 477.091" stroke="black" stroke-width="3" stroke-linecap="round" stroke-linejoin="round"/>
<path d="M547.033 333.564C547.91 334.4 547.825 335.642 547.952 336.613C548.213 338.615 549.217 340.262 549.866 342.078" stroke="black" stroke-width="3" stroke-linecap="round" stroke-linejoin="round"/>
<path d="M668.053 430.87C666.308 430.769 665.6 431.977 665.026 433.303C664.63 434.232 664.697 435.136 665.414 435.938C666.502 437.163 668.045 437.518 669.065 436.749C670.018 436.023 670.549 433.734 669.841 432.72C669.42 432.112 669.057 431.36 668.256 431.073" stroke="black" stroke-width="3" stroke-linecap="round" stroke-linejoin="round"/>
<path d="M698.41 457.832C694.396 457.139 690.694 455.484 686.858 454.234C678.898 451.649 670.912 449.056 662.387 449.098C658.93 449.115 655.532 448.254 652.066 448.287C649.477 448.313 647.032 449.09 644.595 449.782C643.246 450.171 642.318 451.522 640.969 452.215C639.443 453.001 638.034 452.815 636.474 452.798C632.655 452.773 628.961 451.683 625.141 451.717C623.522 451.734 622.468 452.511 622.148 453.972C621.811 455.492 622.856 456.506 624.146 456.945C624.914 457.207 625.394 457.841 626.153 458.018" stroke="black" stroke-width="3" stroke-linecap="round" stroke-linejoin="round"/>
<path d="M683.434 303.156C685.685 301.23 685.5 298.519 683.038 296.863C682 296.162 680.955 296.23 680.23 297.1C679.032 298.536 678.214 297.97 676.933 297.117C671.317 293.375 665.288 290.731 658.348 290.993C650.995 291.263 644.021 292.995 637.495 296.458C636.736 296.855 636.095 297.336 635.682 298.088" stroke="black" stroke-width="3" stroke-linecap="round" stroke-linejoin="round"/>
<path d="M555.532 342.484C556.898 346.108 555.465 349.36 553.863 352.392C550.962 357.865 546.113 361.32 540.776 364.209C538.836 365.256 536.762 365.704 534.679 366.177C532.951 366.574 532.158 367.199 531.964 369.243C531.407 375.299 530.294 381.297 529.223 387.294C529.164 387.623 529.223 387.969 529.223 388.307" stroke="black" stroke-width="3" stroke-linecap="round" stroke-linejoin="round"/>
<path d="M529.628 323.834C528.254 323.715 526.879 323.96 525.589 324.29C523.093 324.932 520.572 324.856 518.329 323.943C516.33 323.124 515.369 320.97 514.399 318.994C513.843 317.845 514.104 317.228 515.049 316.646" stroke="black" stroke-width="3" stroke-linecap="round" stroke-linejoin="round"/>
<path d="M517.688 324.239C515.732 326.401 513.742 328.53 511.836 330.743C511.187 331.503 510.461 331.63 509.568 331.512C508.623 330.338 508.286 328.809 507.62 327.457C506.625 325.438 504.938 325.075 503.108 325.092C501.228 325.109 500.064 326.258 499.44 328.082C498.698 330.27 498.37 332.483 498.454 334.781C498.563 337.796 500.705 338.979 503.108 339.84C506.92 341.192 507.384 341.538 506.684 345.516C505.908 349.909 505.554 354.377 504.466 358.693C503.277 363.406 502.189 368.128 501.262 372.892C500.705 375.739 500.402 378.644 499.491 381.415C499.221 382.234 499.963 382.724 500.486 383.231C502.847 385.537 505.815 386.854 508.792 388.071C512.359 389.515 515.976 390.689 519.897 391.044C522.84 391.306 525.437 390.453 527.714 389.177C529.274 388.307 530.463 388.645 531.391 389.203C533.802 390.655 536.458 391.644 538.769 393.325C540.599 394.659 541.965 396.264 542.707 398.274C543.213 399.643 543.929 399.981 545.203 400.09C550.254 400.53 555.364 400.276 560.372 401.121C566.014 402.067 571.672 402.371 577.381 402.329C584.464 402.27 591.538 403.03 598.63 402.895C601.598 402.836 604.575 402.717 607.535 402.472C609.229 402.329 610.773 402.979 612.383 403.199C613.075 403.292 613.623 404.221 613.656 405.336C613.817 411.08 613.8 416.823 613.817 422.567C613.817 423.395 613.656 424.273 614.221 425C615.065 426.081 615.022 427.331 614.592 428.438C613.091 432.298 613.994 436.183 614.491 439.993C614.947 443.506 615.259 447.012 615.444 450.543C615.874 458.787 615.174 467.064 616.431 475.275C617.063 479.43 618.471 483.248 620.664 486.847C622.502 489.879 623.421 493.3 624.138 496.763" stroke="black" stroke-width="3" stroke-linecap="round" stroke-linejoin="round"/>
<path d="M557.353 313.9C556.932 316.536 558.197 319.171 557.353 321.807" stroke="black" stroke-width="3" stroke-linecap="round" stroke-linejoin="round"/>
<path d="M638.709 425.194C638.852 425.439 639.105 425.346 639.316 425.405C640.286 425.718 641.559 425.625 641.559 427.221C641.559 428.598 641.028 429.595 639.721 430.051C638.431 430.49 637.023 430.516 636.129 429.417C635.286 428.378 635.859 426.081 637.503 425.6C637.849 425.498 638.178 425.338 638.515 425.203" stroke="black" stroke-width="3" stroke-linecap="round" stroke-linejoin="round"/>
<path d="M713.588 475.672C715.106 475.79 716.261 476.812 717.627 477.319C719.558 478.037 744.627 479.523 749.004 471.617" stroke="black" stroke-width="3" stroke-linecap="round" stroke-linejoin="round"/>
<path d="M640.935 399.651C641.255 401.51 641.441 403.359 640.53 405.125" stroke="black" stroke-width="3" stroke-linecap="round" stroke-linejoin="round"/>
<path d="M557.961 319.577C562.91 318.335 565.643 314.965 566.022 309.238C566.216 306.205 566.511 303.165 565.895 300.107C565.415 297.7 564.664 295.52 562.826 293.831C561.806 292.893 560.777 291.964 559.79 290.993C555.532 286.753 550.313 286.237 544.983 289.329C543.718 290.064 542.42 290.587 541.762 292.006C541.627 292.285 541.349 292.429 540.961 292.437C539.899 292.437 537.032 290.013 537.141 288.983C537.47 286.068 536.871 283.171 537.107 280.266C537.133 279.995 537.099 279.725 537.107 279.455C537.15 278.779 537.664 278.855 538.119 278.846" stroke="black" stroke-width="3" stroke-linecap="round" stroke-linejoin="round"/>
<path d="M652.268 484.591C650.59 485.757 648.752 484.997 647.007 484.955C640.708 484.819 634.442 484.118 628.186 483.367C626.094 483.113 623.986 482.826 621.929 482.446C620.731 482.226 619.956 482.361 619.079 482.961" stroke="black" stroke-width="3" stroke-linecap="round" stroke-linejoin="round"/>
<path d="M749.164 470.401C749.257 469.185 748.296 468.424 747.385 467.774C745.378 466.346 743.076 465.384 740.707 465.198C733.067 464.606 725.402 464.285 718.049 467.166C717.096 467.537 716.101 467.875 715.224 468.399C713.664 469.337 712.737 470.68 712.981 472.639C713.184 474.337 713.141 475.984 712.872 477.724C712.5 480.123 713.276 482.573 713.361 485.005C713.555 490.335 715.519 495.336 716.101 500.606C716.32 502.608 715.41 503.166 713.993 503.639C713.141 503.926 712.248 504.213 711.371 504.238C700.569 504.585 689.843 504.534 680.584 497.599C679.741 496.966 678.586 496.755 677.574 496.349" stroke="black" stroke-width="3" stroke-linecap="round" stroke-linejoin="round"/>
<path d="M543.188 342.281C545.194 342.003 547.075 342.957 549.056 342.889" stroke="black" stroke-width="3" stroke-linecap="round" stroke-linejoin="round"/>
<path d="M671.898 358.094C670.566 360.459 671.333 362.993 671.57 365.383C671.983 369.573 671.814 373.779 672.126 377.96C672.607 384.38 669.706 388.899 664.891 392.852C661.948 395.267 659.09 397.354 655.304 398.046C652.605 398.536 649.907 398.536 647.209 398.215C645.682 398.03 645.649 396.695 645.615 395.597C645.531 393.097 645.615 390.596 645.581 388.096C645.539 384.853 645.429 381.609 645.404 378.366C645.404 377.698 645.126 377.149 644.982 376.541" stroke="black" stroke-width="3" stroke-linecap="round" stroke-linejoin="round"/>
<path d="M499.272 381.812C493.31 383.189 487.171 383.839 481.454 386.246C476.319 388.409 471.672 391.357 467.751 395.242C463.561 399.406 459.631 403.866 457.177 409.382C455.432 413.301 454.327 417.44 453.138 421.545C451.882 425.904 450.566 430.254 449.681 434.713C448.694 439.672 448.231 444.706 447.674 449.715C446.789 457.663 446.569 465.645 446.477 473.636C446.426 477.842 446.763 482.04 447.463 486.205" stroke="black" stroke-width="3" stroke-linecap="round" stroke-linejoin="round"/>
<path d="M483.486 409.078C481.968 410.311 482.044 412.279 481.766 413.859C480.695 419.822 478.857 425.616 478.165 431.673C477.491 437.543 477.136 443.422 476.791 449.318C476.42 455.678 476.698 462.03 477.035 468.374C477.33 473.788 477.819 479.185 478.224 484.591" stroke="black" stroke-width="3" stroke-linecap="round" stroke-linejoin="round"/>
<path d="M639.316 378.974C637.099 377.884 635.041 379.016 633.06 379.624C622.561 382.876 615.225 390.064 609.356 399.035C608.741 399.981 608.285 400.96 608.15 402.084" stroke="black" stroke-width="3" stroke-linecap="round" stroke-linejoin="round"/>
<path d="M542.783 399.246C541.762 399.837 540.725 399.837 539.536 399.71C537.124 399.457 534.687 399.626 532.251 399.491C526.323 399.153 520.369 399.432 514.441 398.874C512.072 398.655 510.756 399.989 510.807 402.295C510.908 406.755 511.988 411.088 512.561 415.48C513.758 424.67 516.465 433.649 516.33 443.042C516.28 446.387 516.389 449.664 515.715 452.984C515.251 455.29 515.538 457.782 516.111 460.054C517.604 465.933 517.916 471.964 518.852 477.91C519.577 482.547 520.361 487.185 520.521 491.889C520.538 492.362 520.774 492.835 520.909 493.308" stroke="black" stroke-width="3" stroke-linecap="round" stroke-linejoin="round"/>
<path d="M670.482 398.232C675.491 398.308 679.707 396.382 683.67 393.418C686.428 391.357 689.438 389.735 692.912 388.806C697.465 387.589 701.252 384.574 703.748 380.714C706.547 376.381 705.367 369.623 699.228 366.566C696.032 364.978 692.684 365.239 689.75 366.337C686.284 367.638 682.675 368.863 679.58 371.059C678.931 371.524 678.079 371.845 678.164 372.884" stroke="black" stroke-width="3" stroke-linecap="round" stroke-linejoin="round"/>
<path d="M715.41 396.813C715.477 397.996 714.448 398.486 713.765 399.009C708.158 403.258 705.603 409.019 704.616 415.861C703.798 421.587 702.23 427.196 701.285 432.906C700.063 440.28 698.739 447.654 699.203 455.197C699.312 456.945 698.477 458.685 699.026 460.468" stroke="black" stroke-width="3" stroke-linecap="round" stroke-linejoin="round"/>
<path d="M749.004 471.617C749.746 472.673 749.611 473.881 749.611 475.063C749.611 476.415 749.577 477.775 750.825 478.712" stroke="black" stroke-width="3" stroke-linecap="round" stroke-linejoin="round"/>
<path d="M530.235 325.253C527.385 329.983 528.431 334.738 530.261 339.435C531.23 341.918 533.507 341.859 535.7 341.884C538.002 341.918 539.747 340.938 540.523 338.818C542.125 334.443 542.142 330.067 540.405 325.633C539.326 322.879 537.243 322.111 534.696 322.034C533.237 321.992 531.61 321.164 530.387 322.981C529.839 323.8 530.025 324.34 530.244 325.05" stroke="black" stroke-width="3" stroke-linecap="round" stroke-linejoin="round"/>
<path d="M750.825 478.712C758.785 480.005 756.905 491.154 754.004 494.06C752.604 495.454 750.538 496.163 748.397 496.155C746.322 496.146 745.909 496.535 745.563 498.579C745.226 500.598 744.956 502.608 744.956 504.661C744.956 507.288 743.759 509.095 741.322 510.151C738.337 511.443 735.192 511.849 732.004 512.178C730.115 512.373 728.226 512.364 726.338 512.364C721.607 512.364 719.617 510.869 718.023 506.291C717.593 505.066 717.273 503.748 716.219 502.836" stroke="black" stroke-width="3" stroke-linecap="round" stroke-linejoin="round"/>
<path d="M666.839 324.239C665.372 324.019 664.192 323.302 662.969 322.457C657.555 318.723 651.627 316.223 644.983 315.733C641.146 315.446 637.318 314.635 633.447 315.514C631.828 315.885 630.386 316.705 628.801 317.161C628.042 317.372 627.831 318.2 627.621 318.783C625.664 324.155 624.256 329.687 623.792 335.397C623.657 337.053 623.986 338.776 624.307 340.465C624.863 343.354 625.403 346.243 625.825 349.165C626.862 356.37 631.196 360.889 638.11 362.95C640.244 363.584 642.411 364.082 644.747 364.682C645.354 368.196 645.177 371.87 645.168 375.527C645.168 375.832 645.101 376.288 644.578 376.338C642.757 376.516 641.795 378.256 640.134 378.805C638.895 379.21 639.291 380.739 638.557 381.651C636.458 384.278 635.387 387.378 634.83 390.723C634.012 395.639 634.291 400.268 638.153 403.858C639.67 405.277 641.348 406.679 643.769 406.823C645.455 406.915 646.973 406.941 648.204 405.716C648.676 405.251 649.14 405.378 649.646 405.336" stroke="black" stroke-width="3" stroke-linecap="round" stroke-linejoin="round"/>
<path d="M679.184 298.291C679.707 300.056 681.056 301.298 682.262 302.506C684.682 304.913 686.664 307.65 687.397 310.885C688.603 316.215 689.193 321.637 687.718 327.094C687.17 329.121 685.728 330.566 684.851 332.356" stroke="black" stroke-width="3" stroke-linecap="round" stroke-linejoin="round"/>
<path d="M658.542 472.023C656.83 471.026 655.169 471.744 653.718 472.487C652.428 473.146 651.214 474.176 650.295 475.308C649.392 476.415 648.566 477.589 649.73 479.388C650.573 480.689 651.231 482.201 651.99 483.611C652.782 485.064 653.853 485.613 655.295 485.799C661.569 486.618 667.842 487.396 674.116 488.249C677.363 488.688 677.337 488.747 677.363 491.889C677.388 494.297 677.287 496.645 676.604 499.001C676.165 500.522 675.195 501.121 673.914 501.181C670.06 501.358 666.215 501.147 662.378 500.623C658.626 500.108 654.857 499.669 651.045 499.795C647.124 499.93 643.313 499.17 639.518 498.359C636.297 497.667 633.051 497.793 629.796 497.768C628.286 497.76 626.769 497.912 625.327 497.194C624.947 496.999 624.298 496.67 623.944 496.983C622.333 498.435 620.689 497.363 619.061 497.16C612.813 496.383 606.581 495.496 600.24 495.707C595.189 495.876 590.113 495.952 585.062 495.699C575.281 495.2 565.508 495.04 555.718 494.846C547.825 494.694 539.932 493.959 532.04 493.452C528.793 493.241 525.589 492.666 522.317 493.097C521.735 493.173 521.153 493.131 520.799 493.714" stroke="black" stroke-width="3" stroke-linecap="round" stroke-linejoin="round"/>
<path d="M536.914 289.168C535.7 289.261 534.721 288.619 533.895 287.927C528.692 283.518 523.102 284.176 517.494 286.769C511.397 289.591 506.144 293.654 501.489 298.494C493.479 306.814 489.389 316.772 488.689 328.293C488.284 334.873 489.204 341.192 491.388 347.349C492.973 351.834 495.528 355.804 498.479 359.496C499.516 360.796 500.376 362.283 501.886 363.187C502.181 363.364 502.434 363.33 502.712 363.364" stroke="black" stroke-width="3" stroke-linecap="round" stroke-linejoin="round"/>
<path d="M669.673 327.888C668.931 326.874 668.146 325.886 667.48 324.83C667.311 324.552 666.865 324.307 667.042 323.834C667.826 321.781 666.342 320.573 665.195 319.399C661.746 315.852 657.656 313.022 653.913 309.821C648.491 305.183 642.217 301.948 636.036 298.586C634.645 297.826 632.806 297.725 631.221 297.1C627.005 295.427 622.932 293.383 618.277 292.978C615.394 292.724 612.577 292.86 609.778 293.451C608.327 293.755 607.391 294.693 606.717 296.061C604.988 299.583 605.739 304.271 607.906 307.058C611.953 312.253 617.51 315.497 622.772 319.12C623.927 319.914 624.796 321.257 626.372 321.409" stroke="black" stroke-width="3" stroke-linecap="round" stroke-linejoin="round"/>
<path d="M535.818 337.855C536.987 337.855 537.934 336.399 537.934 334.603C537.934 332.807 536.987 331.351 535.818 331.351C534.649 331.351 533.701 332.807 533.701 334.603C533.701 336.399 534.649 337.855 535.818 337.855Z" fill="#231815"/>
<path d="M554.335 338.109C555.504 338.109 556.451 336.653 556.451 334.857C556.451 333.061 555.504 331.605 554.335 331.605C553.166 331.605 552.218 333.061 552.218 334.857C552.218 336.653 553.166 338.109 554.335 338.109Z" fill="#231815"/>
<path d="M633.717 333.632C634.886 333.632 635.834 332.176 635.834 330.38C635.834 328.584 634.886 327.128 633.717 327.128C632.548 327.128 631.601 328.584 631.601 330.38C631.601 332.176 632.548 333.632 633.717 333.632Z" fill="#231815"/>
<path d="M644.535 333.885C645.704 333.885 646.652 332.429 646.652 330.633C646.652 328.837 645.704 327.381 644.535 327.381C643.367 327.381 642.419 328.837 642.419 330.633C642.419 332.429 643.367 333.885 644.535 333.885Z" fill="#231815"/>
<path d="M744.555 471.03L744.556 471.03C745.068 471.272 745.68 471.561 746.162 471.962C746.665 472.381 747.051 472.941 747.036 473.717M744.555 471.03L746.786 473.712M744.555 471.03L744.546 471.021L744.506 471.002C743.142 470.366 741.694 469.946 740.216 469.706L740.215 469.706C737.078 469.202 733.898 469.391 730.78 469.73C727.337 470.103 723.917 470.722 720.572 471.629L720.638 471.871L720.573 471.629C720.493 471.651 720.412 471.672 720.329 471.695C719.199 471.998 717.754 472.386 716.64 473.069C716.038 473.438 715.514 473.904 715.19 474.506C714.862 475.114 714.747 475.839 714.929 476.702M744.555 471.03L740.176 469.953M747.036 473.717L746.786 473.712M747.036 473.717C747.036 473.716 747.036 473.716 747.036 473.716L746.786 473.712M747.036 473.717C747.031 474.059 746.891 474.332 746.675 474.515C746.464 474.695 746.193 474.779 745.931 474.779C745.669 474.779 745.398 474.695 745.19 474.513C744.976 474.327 744.845 474.051 744.85 473.709M746.786 473.712C746.77 474.802 745.083 474.802 745.1 473.712M744.85 473.709L745.1 473.712M744.85 473.709C744.85 473.707 744.849 473.679 744.801 473.62C744.754 473.562 744.677 473.494 744.568 473.418C744.35 473.268 744.043 473.116 743.707 472.974C743.105 472.719 742.449 472.514 742.138 472.416C742.103 472.405 742.073 472.396 742.048 472.388L742.123 472.149M744.85 473.709C744.85 473.708 744.85 473.708 744.85 473.708L745.1 473.712M745.1 473.712L742.123 472.149M742.123 472.149L742.048 472.388C740.912 472.03 739.724 471.806 738.526 471.697M742.123 472.149C740.968 471.786 739.762 471.558 738.548 471.448M738.526 471.697C738.526 471.697 738.526 471.697 738.526 471.697L738.548 471.448M738.526 471.697C736.171 471.488 733.803 471.63 731.439 471.866L731.439 471.866C728.768 472.127 726.114 472.564 723.501 473.162L723.501 473.162C722.191 473.456 720.89 473.801 719.605 474.188L719.603 474.188L719.603 474.188C719.555 474.202 719.505 474.217 719.453 474.232C718.951 474.377 718.309 474.562 717.799 474.858C717.521 475.02 717.302 475.204 717.169 475.414C717.04 475.616 716.983 475.854 717.046 476.153L717.046 476.153C717.188 476.845 716.719 477.329 716.218 477.467C715.966 477.536 715.683 477.527 715.438 477.403C715.186 477.275 714.998 477.038 714.929 476.702M738.526 471.697C738.526 471.697 738.526 471.697 738.526 471.697L738.548 471.448M738.548 471.448L714.929 476.702M714.929 476.702C714.929 476.703 714.929 476.703 714.929 476.703L715.174 476.651M714.929 476.702L731.414 471.617C728.733 471.879 726.068 472.318 723.446 472.918C722.13 473.214 720.823 473.56 719.533 473.948C719.485 473.962 719.435 473.977 719.382 473.992C718.334 474.294 716.512 474.82 716.801 476.204C717.02 477.268 715.393 477.716 715.174 476.651M714.929 476.702C714.929 476.702 714.929 476.702 714.929 476.702L715.174 476.651M715.174 476.651C714.513 473.515 718.047 472.566 720.4 471.934C720.481 471.913 720.56 471.892 720.638 471.871C723.969 470.967 727.375 470.35 730.807 469.978C733.919 469.641 737.072 469.455 740.176 469.953M740.176 469.953C741.634 470.19 743.059 470.604 744.4 471.229L740.176 469.953Z" fill="black" stroke="black" stroke-width="0.5"/>
<g clip-path="url(#clip0_298_131)">
<path d="M518.929 488.147C512.116 488.275 505.614 487.454 499.05 486.843C484.679 485.493 470.308 485.803 455.792 486.569C443.45 487.217 431.026 487.499 418.539 487.636C404.81 487.791 390.998 488.184 377.269 488.786C365.88 489.287 354.491 489.634 342.978 489.36C339.043 489.269 334.819 490.19 330.574 490.117C316.638 489.889 302.764 489.26 288.848 488.932C265.76 488.393 242.795 487.791 219.748 489.205C203.782 490.19 187.651 490.564 171.561 491.039C148.535 491.723 125.529 492.024 102.481 491.832C92.8729 491.75 83.2646 491.577 73.6563 491.869C54.0464 492.462 34.5399 491.741 15.0128 491.03C10.747 490.875 6.39846 491.139 2.09131 491.212" stroke="black" stroke-width="2" stroke-linecap="round" stroke-linejoin="round"/>
</g>
<g clip-path="url(#clip1_298_131)">
<path d="M748.423 489.893C751.456 491.955 755.527 491.402 759 491.098C770.759 490.062 782.489 490.312 794.205 491.009C800.583 491.393 806.975 491.634 813.352 491.768C829.979 492.116 846.578 493.062 863.234 492.661C872.359 492.446 881.456 492.339 890.566 492.857C901.927 493.5 913.116 494.866 924.39 495.848C937.203 496.973 950.029 497.929 962.983 498.268C989.405 498.964 1015.83 497.92 1042.25 498.179C1052.65 498.277 1062.93 496.741 1073.32 496.259C1076.74 496.098 1080.19 495.804 1083.59 495.732C1094.51 495.5 1105.45 495.321 1116.39 495.518C1127.78 495.723 1139.16 496.705 1150.55 496.464C1162.91 496.196 1175.17 496.545 1187.45 497.161C1189.19 497.25 1190.81 497.741 1192.58 497.607C1192.58 498.107 1192.58 498.607 1192.58 499.107" stroke="black" stroke-width="3" stroke-linecap="round" stroke-linejoin="round"/>
</g>
<path d="M789.87 412.203C789.354 411.998 788.759 411.836 788.298 412.092C787.731 412.405 786.938 412.878 787.282 413.657C787.556 414.28 788.049 415.035 788.919 415.012C789.66 414.99 790.052 414.477 790.258 413.751C790.422 413.176 790.089 412.787 789.964 412.316" stroke="black" stroke-width="3" stroke-linecap="round" stroke-linejoin="round"/>
<path d="M796.743 416.027C795.007 415.83 794.123 416.295 793.901 417.48C793.804 418.006 793.801 418.554 794.302 418.795C794.854 419.062 795.53 419.302 796.09 418.77C796.856 418.053 797.436 417.251 796.83 416.131" stroke="black" stroke-width="3" stroke-linecap="round" stroke-linejoin="round"/>
<path d="M792.477 376.658C789.879 375.209 787.168 374.148 784.124 374.257C781.372 374.359 777.866 377.505 778.268 379.74C778.778 382.554 780.073 384.986 782.979 386.06C783.44 386.227 783.805 386.497 784.216 386.706" stroke="black" stroke-width="3" stroke-linecap="round" stroke-linejoin="round"/>
<path d="M785.591 385.929C783.44 387.218 783.107 389.601 782.878 391.612C782.241 397.284 780.52 402.797 780.537 408.565C780.544 411.309 779.584 413.941 778.721 416.515C778.091 418.387 778.704 419.525 779.943 420.89C784.069 425.435 789.337 427.832 795.018 429.668C797.079 430.337 798.573 429.546 799.818 428.311C802.369 425.774 804.659 422.971 807.265 420.473C810.641 417.237 813.707 413.692 817.238 410.603C818.455 409.536 819.636 409.453 821.019 410.053C823.105 410.954 825.186 411.876 827.295 412.712C829.682 413.661 831.484 413.441 833.167 411.831C834.399 410.652 834.375 408.99 833.261 407.536C832.165 406.104 830.687 405.115 829.245 404.059C830.373 401.692 832.177 399.812 833.714 397.733C836.238 394.32 838.438 390.702 840.284 386.882C840.571 386.289 840.673 385.612 840.692 384.92C840.767 382.392 839.649 381.439 837.144 381.772C835.289 382.021 833.712 382.813 832.265 383.88C828.693 386.497 825.161 389.172 821.995 392.293C821.432 392.85 820.894 392.655 820.27 392.449C819.329 392.139 818.417 391.644 817.722 391.06C814.471 388.315 810.575 386.642 807.07 384.327C806.068 383.669 805.075 383.003 804.237 382.101C803.364 381.157 802.944 380.204 803.539 379.007C805.78 374.502 807.062 369.611 809.17 365.049C809.423 364.507 809.506 363.9 809.557 363.281C809.653 362.102 809.665 360.932 808.494 360.301C807.187 359.599 805.78 359.327 804.407 360.217C800.98 362.42 798.549 365.54 796.418 368.938C795.076 371.077 793.77 373.231 792.735 375.535C792.584 375.868 792.305 376.048 792.064 376.274" stroke="black" stroke-width="3" stroke-linecap="round" stroke-linejoin="round"/>
<path d="M425.402 318.545C425.291 319.234 425.497 319.859 425.649 320.53C426.408 323.823 426.731 327.181 426.502 330.556C426.402 331.999 425.455 333.153 424.544 334.225C423.285 335.71 421.651 336.729 419.881 337.453C418.634 337.966 417.593 338.573 416.594 339.55C415.012 341.1 412.871 341.936 410.849 342.831C409.108 343.603 407.438 344.475 405.762 345.364C404.568 345.994 403.31 346.472 402.393 347.52" stroke="black" stroke-width="3" stroke-linecap="round" stroke-linejoin="round"/>
<path d="M406.35 324.553C406.133 324.713 405.827 324.612 405.886 325.196C406.327 329.378 407.867 332.924 411.437 335.362C412.872 336.346 414.283 337.383 416.088 337.654C416.488 337.713 416.847 338.101 417.223 338.337" stroke="black" stroke-width="3" stroke-linecap="round" stroke-linejoin="round"/>
<path d="M394 304.647C394.476 305.165 394.772 305.745 395.043 306.392C396.418 309.641 398.565 312.495 400.513 315.456C401.569 317.055 402.214 318.873 403.541 320.331C403.987 320.821 404.3 321.423 405 321.676" stroke="black" stroke-width="3" stroke-linecap="round" stroke-linejoin="round"/>
<path d="M413.548 318.121C412.524 318.61 411.401 318.834 410.425 319.505C409.114 320.407 408.59 321.803 409.155 323.358C410.043 325.808 410.925 328.158 412.942 330.043C414.994 331.952 417.076 331.816 419.487 331.162C421.839 330.52 422.468 328.671 422.662 326.739C422.909 324.312 422.492 321.909 420.751 319.953C420.057 319.176 419.163 318.71 418.199 318.575C416.705 318.363 415.223 317.962 413.689 318.115" stroke="black" stroke-width="3" stroke-linecap="round" stroke-linejoin="round"/>
<path d="M444.173 327.451C442.02 326.792 440.068 325.643 438.134 324.571C434.482 322.551 430.883 320.354 427.043 318.828C424.832 317.95 423.474 316.272 421.61 315.129C416.441 311.966 411.39 313.267 407.497 316.861C406.962 317.349 406.821 318.115 406.621 318.822C406.368 319.741 406.239 320.695 405.662 321.526C404.927 322.586 405.874 323.587 405.927 324.624" stroke="black" stroke-width="3" stroke-linecap="round" stroke-linejoin="round"/>
<path d="M444.314 327.451C445.014 325.961 444.555 324.412 444.414 322.934C444.061 319.264 443.214 315.677 441.615 312.331C440.245 309.468 438.345 306.947 436.117 304.697C431.136 299.655 425.215 296.291 418.193 295.096C410.578 293.8 403.557 295.125 397.436 300.15C396.665 300.786 396.042 301.528 395.501 302.311C394.325 304.008 392.802 305.427 392.284 307.642C391.879 309.374 390.326 310.746 389.715 312.478C388.262 316.59 387.71 320.842 388.145 325.195C389.039 334.22 393.496 341.37 400.493 346.731C404.786 350.018 409.755 352.397 415.377 352.933C418.523 353.234 421.58 352.768 424.538 352.003C431.506 350.194 437.51 346.813 441.65 340.622C443.338 338.101 444.19 335.362 444.426 332.405C444.549 330.815 444.967 329.201 444.449 327.599" stroke="black" stroke-width="3" stroke-linecap="round" stroke-linejoin="round"/>
<path d="M762.567 327.031C762.664 327.335 762.296 327.564 762.803 327.986C765.266 330.042 767.035 332.701 768.712 335.411C769.218 336.221 769.143 337.176 769.236 338.167C767.611 338.98 766.3 340.291 765.089 341.678C764.346 342.53 763.57 343.228 762.461 343.503" stroke="black" stroke-width="3" stroke-linecap="round" stroke-linejoin="round"/>
<path d="M741.659 325.367C740.81 325.269 740.44 326 740.073 326.475C738.684 328.274 737.189 329.995 735.953 331.916C735.441 332.706 735.289 333.451 735.986 334.222C738.39 336.872 740.53 339.732 742.705 342.563C743.022 342.977 743.417 342.901 743.785 343.018" stroke="black" stroke-width="3" stroke-linecap="round" stroke-linejoin="round"/>
<path d="M753.441 328.472C752.213 331.177 750.98 333.881 749.769 336.59C749.655 336.839 749.662 337.145 749.614 337.424" stroke="black" stroke-width="3" stroke-linecap="round" stroke-linejoin="round"/>
<path d="M217.133 272.843C219.023 276.009 218.293 279.555 218.493 282.94C218.543 283.852 217.733 284.733 216.413 284.904C213.783 285.244 211.413 288.209 211.363 290.874C211.343 291.856 211.593 292.637 212.573 293.038C213.413 293.378 214.123 293.428 214.993 292.827C217.843 290.864 218.803 288.139 217.613 284.864" stroke="black" stroke-width="3" stroke-linecap="round" stroke-linejoin="round"/>
<path d="M201.293 288.47C201.833 291.755 200.863 293.639 198.163 294.21C197.053 294.44 195.813 294.38 195.063 293.268C194.413 292.296 194.843 291.245 195.323 290.413C196.613 288.169 197.963 287.699 200.813 288.229" stroke="black" stroke-width="3" stroke-linecap="round" stroke-linejoin="round"/>
<path d="M183.533 286.787C185.363 286.677 187.453 284.473 187.853 282.219C188.213 280.196 186.943 278.202 184.733 277.421C184.043 277.181 183.293 277.06 182.593 276.87C178.513 275.808 177.003 276.069 177.323 281.248C177.583 285.505 178.103 289.742 178.483 293.989C178.553 294.831 179.053 295.211 179.663 295.702C181.013 296.794 181.503 298.277 180.883 299.989C180.373 301.402 178.113 302.975 176.573 302.834C175.773 302.764 174.873 302.714 174.373 301.692C173.863 300.651 173.973 299.449 174.483 298.848C175.693 297.445 176.813 295.812 178.733 295.181" stroke="black" stroke-width="3" stroke-linecap="round" stroke-linejoin="round"/>
<path d="M185.693 382.229C185.683 381.959 185.653 381.518 185.933 381.538C188.533 381.688 190.393 379.865 192.643 379.084C198.143 377.191 201.963 373.154 203.303 367.775C205.393 359.431 204.663 350.996 201.003 343.073C199.563 339.937 197.513 337.033 194.773 334.929C189.683 331.012 183.993 330.632 178.003 332.705C174.473 333.927 171.293 335.78 168.173 337.774" stroke="black" stroke-width="3" stroke-linecap="round" stroke-linejoin="round"/>
<path d="M202.253 274.526C207.283 274.406 212.253 273.835 217.283 272.503C218.053 269.337 218.173 266.072 217.403 262.746C217.103 261.424 216.373 261.103 215.213 261.063C211.083 260.913 207.163 262.055 203.213 263.017C201.913 263.327 201.393 264.259 201.513 265.641C201.773 268.516 201.143 271.421 201.953 274.306C202.243 275.338 201.433 276.459 201.493 277.662C201.633 280.386 201.363 283.121 201.783 285.835C201.923 286.787 201.893 287.618 201.053 288.239" stroke="black" stroke-width="3" stroke-linecap="round" stroke-linejoin="round"/>
<path d="M175.853 333.426C173.613 327.957 172.203 321.997 166.973 318.281C162.073 314.805 156.653 313.513 150.653 313.883C146.553 314.144 142.493 314.374 138.663 315.897C127.403 320.384 118.773 327.486 115.893 339.927C115.333 342.352 115.213 344.906 116.083 347.37C116.193 347.681 116.143 348.131 116.343 348.312C119.843 351.387 119.733 355.915 120.823 359.891C123.643 370.149 125.883 380.557 129.243 390.664C129.643 391.866 130.163 393.028 130.483 394.26" stroke="black" stroke-width="3" stroke-linecap="round" stroke-linejoin="round"/>
<path d="M175.853 333.907C180.503 345.978 185.283 358.008 188.103 370.69C188.773 373.695 190.083 376.49 191.213 379.344" stroke="black" stroke-width="3" stroke-linecap="round" stroke-linejoin="round"/>
<path d="M126.173 346.649C123.253 347.16 120.333 347.651 117.773 349.293" stroke="black" stroke-width="3" stroke-linecap="round" stroke-linejoin="round"/>
<path d="M116.813 349.293C111.943 351.798 107.263 354.582 104.593 359.641C102.473 363.678 100.503 367.845 99.8331 372.383C99.2531 376.329 100.853 380.036 102.213 383.652C103.003 385.745 104.133 387.739 105.313 389.662C108.363 394.66 113.173 396.604 118.733 396.854C122.773 397.035 126.793 396.924 130.533 394.801C131.783 394.09 133.463 394.18 134.833 393.318C136.413 392.327 136.563 390.834 136.203 389.452C134.123 381.348 132.493 373.144 130.943 364.92C129.963 359.701 129.093 354.422 127.653 349.343C126.943 346.829 126.273 344.505 126.933 342.091C128.543 336.151 130.983 330.361 136.343 327.086C140.373 324.621 145.223 323.509 150.173 323.54C154.263 323.57 157.743 324.872 160.473 327.907C162.113 329.73 163.623 331.653 165.063 333.657C169.583 339.937 170.713 347.53 173.153 354.602C175.823 362.366 177.123 370.539 180.303 378.182C181.473 381.007 183.403 381.218 185.693 381.498" stroke="black" stroke-width="3" stroke-linecap="round" stroke-linejoin="round"/>
<path d="M231.773 230.531C228.993 231.062 226.243 231.363 223.373 231.323C215.133 231.202 206.893 231.283 198.653 231.543C193.033 231.723 187.443 232.535 181.843 233.096C176.753 233.597 171.603 233.757 166.493 234.157C156.263 234.949 146.023 235.269 135.773 235.55C131.213 235.67 126.653 235.78 122.093 236.041C114.903 236.451 107.693 236.201 100.493 236.351C97.693 236.411 94.893 236.481 92.093 236.562C89.063 236.642 86.263 239.186 85.593 242.071C83.803 249.834 83.343 257.677 83.083 265.631C82.773 274.957 83.423 284.233 83.533 293.518C83.663 304.096 84.583 314.674 84.853 325.252C85.423 347.53 84.923 369.808 85.183 392.086C85.283 400.661 85.083 409.245 85.423 417.81C85.723 425.242 86.153 432.695 88.213 439.937C89.433 444.225 89.313 444.245 93.763 444.265C104.013 444.305 114.243 443.874 124.483 443.504C133.463 443.173 142.413 442.291 151.373 441.47C155.573 441.089 159.843 440.969 164.083 440.819C170.653 440.589 177.223 440.288 183.773 439.497C188.783 438.896 193.843 438.806 198.883 438.475C207.203 437.934 215.533 437.774 223.853 437.113C227.773 436.802 231.693 436.462 235.603 436.051C238.333 435.76 238.773 434.969 238.773 432.946C238.753 421.887 239.113 410.828 238.903 399.769C238.673 387.508 238.323 375.247 237.953 362.987C237.723 355.374 237.803 347.761 237.793 340.148C237.783 332.024 236.803 323.96 236.363 315.866C236.163 312.27 236.033 308.664 236.063 305.048C236.123 297.275 235.363 289.512 235.603 281.728C235.783 275.959 236.173 270.179 236.023 264.419C235.843 257.046 235.503 249.674 235.613 242.301C235.643 240.378 235.743 238.455 235.853 236.532C236.023 233.587 234.693 231.623 232.003 230.521" stroke="black" stroke-width="3" stroke-linecap="round" stroke-linejoin="round"/>
<path d="M382.104 402.493C380.534 398.631 378.655 395.001 377.537 391.039C376.77 388.338 377.133 386.621 380.217 385.984C381.427 385.732 382.499 384.837 383.641 384.239C384.504 383.786 385.477 383.404 385.984 384.569C386.426 385.59 387.196 387.001 385.617 387.65C383.697 388.44 384.269 389.516 384.75 390.898C386.695 396.455 388.834 401.931 391.314 407.265C392.044 408.835 392.23 409.922 390.353 410.803C388.314 411.759 386.989 414.431 384.594 414.224C382.386 414.036 381.337 411.451 379.494 410.237C377.716 409.065 376.187 407.503 374.169 406.395C375.912 409.638 377.475 412.99 379.462 416.078C380.651 417.926 380.293 418.566 378.465 419.272C376.509 420.028 374.469 420.572 372.633 421.694C371.261 422.529 370.179 421.656 369.45 420.444C368.768 419.308 368.068 418.027 369.663 417.119C371.375 416.142 370.892 415.156 370.21 413.721C368.143 409.364 365.204 405.589 362.509 401.648C362.036 400.955 361.586 400.296 360.52 400.603C358.414 401.213 358.27 399.483 358.027 398.223C357.7 396.507 358.944 396.84 360.093 396.686C362.343 396.379 363.952 394.623 365.734 393.387C367.823 391.939 369.353 392.349 370.454 394.333C373.04 398.978 378.081 399.923 382.104 402.493Z" fill="black"/>
<path d="M402.666 409.379C403.228 410.425 403.676 411.514 404.034 412.657C404.271 413.431 404.087 413.84 403.523 414.395C402.13 415.767 400.382 416.578 398.732 417.462C392.889 420.582 387.488 424.383 382.021 428.083C380.112 429.369 378.112 430.507 376.019 431.462C375.323 431.784 374.615 432.082 373.894 432.358C372.477 432.931 371.042 433.46 369.595 433.924L347.883 393.518C348.94 392.351 350.482 392.153 351.806 391.517C354.909 390.017 357.441 387.655 360.23 385.68C363.881 383.096 367.689 380.75 371.331 378.16C373.534 376.602 375.713 374.998 377.992 373.549C378.528 373.206 378.664 372.452 379.475 372.301C380.902 372.033 382.052 371.98 383.102 373.371C384.28 374.932 385.504 376.456 386.456 378.162C389.493 383.602 392.129 389.24 394.738 394.893C397.047 399.908 400.042 404.541 402.666 409.379Z" stroke="black" stroke-width="3" stroke-linecap="round" stroke-linejoin="round"/>
<path d="M325.258 389.689C325.22 389.608 325.198 389.566 325.198 389.566C325.468 388.275 326.625 387.86 327.56 387.32C331.161 385.217 334.505 382.728 338.081 380.591C341.692 378.441 345.442 376.574 349.21 374.728C351.845 373.432 354.437 371.987 356.303 369.614C356.829 368.955 357.315 368.752 358.107 368.952C361.672 369.829 365.302 370.395 368.921 370.974C371.513 371.391 374.175 371.25 376.763 371.782C377.454 371.929 378.216 371.906 378.644 372.636" stroke="black" stroke-width="3" stroke-linecap="round" stroke-linejoin="round"/>
<path d="M347.883 393.518L369.595 433.924C363.809 435.778 357.821 436.614 351.846 435.527C350.778 435.333 349.708 435.081 348.629 434.767C342.079 426.961 338.526 418.136 334.107 409.348C333.649 408.473 333.207 407.595 332.782 406.715C330.217 401.42 328.135 395.997 325.7 390.602C325.488 390.162 325.337 389.849 325.258 389.689C325.651 389.758 326.085 389.834 326.549 389.912C332.057 390.594 337.949 391.594 343.931 392.85C345.116 393.053 346.104 393.218 346.797 393.334C347.49 393.45 347.883 393.518 347.883 393.518Z" fill="black" stroke="black" stroke-width="3" stroke-linecap="round" stroke-linejoin="round"/>
<path d="M1072.27 342.722C1074.01 344.855 1074.8 347.46 1075.96 349.894C1076.63 351.296 1075.91 352.488 1076.25 353.811C1076.67 355.483 1076.47 357.316 1077.83 358.949C1080.4 357.006 1082.44 354.412 1084.27 351.627" stroke="black" stroke-width="3" stroke-linecap="round" stroke-linejoin="round"/>
<path d="M1036.51 268.435C1038.85 267.003 1041.68 266.782 1044 265.14C1045.9 263.797 1047.38 262.395 1047.02 260.031C1046.61 257.346 1044.85 255.523 1042.26 254.762C1037.03 253.229 1032.66 255.623 1028.88 258.649C1021.44 264.619 1016.84 272.462 1014.85 281.888C1014.01 285.875 1013.88 289.952 1013.05 293.929C1012.82 295 1013.42 296.553 1014.46 296.954C1016.14 297.605 1018.02 297.505 1019.7 296.553C1019.98 296.393 1020.17 296.072 1020.43 295.842C1021.85 294.59 1020.96 292.286 1021.78 291.424C1022.9 290.242 1024.77 289.772 1025.49 287.918C1026.23 286.005 1026.12 284.022 1025.85 282.149C1025.6 280.416 1026.04 279.905 1027.62 279.714C1031.46 279.244 1034.73 277.681 1036.72 274.195C1038.08 271.811 1036.68 268.325 1034.34 267.954" stroke="black" stroke-width="3" stroke-linecap="round" stroke-linejoin="round"/>
<path d="M1108.51 371.09C1105.93 370.359 1103.63 369.016 1101.31 367.734C1097.24 365.48 1092.85 364.058 1088.36 362.906C1087.6 362.716 1086.82 362.485 1086.2 361.954" stroke="black" stroke-width="3" stroke-linecap="round" stroke-linejoin="round"/>
<path d="M1003.39 279.494C1004.49 279.945 1005.72 280.215 1006.72 280.756C1009.4 282.209 1009.79 285.034 1008.26 287.949C1007.91 288.62 1006.97 289.1 1007.23 290.072" stroke="black" stroke-width="3" stroke-linecap="round" stroke-linejoin="round"/>
<path d="M980.591 285.745C980.571 286.947 980.361 288.179 980.411 289.351C980.561 292.767 981.051 296.172 983.721 298.717C984.591 299.548 985.771 299.138 986.831 299.208" stroke="black" stroke-width="3" stroke-linecap="round" stroke-linejoin="round"/>
<path d="M1012.75 348.972C1009.34 349.794 1005.96 351.156 1002.43 349.453" stroke="black" stroke-width="3" stroke-linecap="round" stroke-linejoin="round"/>
<path d="M1072.27 343.443C1069.99 344.585 1069.95 346.989 1069.16 348.972C1068.67 350.204 1068.51 351.597 1067.47 352.578" stroke="black" stroke-width="3" stroke-linecap="round" stroke-linejoin="round"/>
<path d="M1010.83 300.41C1008.61 303.425 1008.65 306.57 1010.36 309.786C1011.61 312.13 1013.98 312.781 1016.09 311.198C1017.65 310.026 1019.63 310.797 1021.28 309.655C1022.18 310.587 1022.6 311.719 1023.14 312.881C1024.44 315.686 1026.04 316.227 1028.85 314.113C1030.32 313.011 1030.77 310.898 1032.69 310.256" stroke="black" stroke-width="3" stroke-linecap="round" stroke-linejoin="round"/>
<path d="M1012.51 324.691C1012.18 324.24 1011.57 324.32 1011.33 324.481C1008.99 326.083 1006.54 325.182 1004.11 324.931" stroke="black" stroke-width="3" stroke-linecap="round" stroke-linejoin="round"/>
<path d="M999.312 363.156C1001.55 364.038 1003.79 364.909 1006.03 365.801C1008.56 366.803 1010.97 366.963 1013.24 365.1C1013.95 364.509 1014.83 364.118 1015.63 363.637" stroke="black" stroke-width="3" stroke-linecap="round" stroke-linejoin="round"/>
<path d="M1002.91 308.824C1000.14 309.235 997.771 311.318 997.421 313.873C997.241 315.185 997.231 316.737 998.841 317.188C1000.16 317.559 1001.64 318.08 1002.93 316.778C1003.67 316.036 1004.3 315.225 1004.82 314.343C1006.01 312.33 1005.4 310.417 1003.15 308.824" stroke="black" stroke-width="3" stroke-linecap="round" stroke-linejoin="round"/>
<path d="M1076.59 350.415C1077.55 350.254 1078.53 350.174 1079.47 349.914C1082.37 349.113 1084.43 351.026 1086.36 352.438C1088.17 353.77 1087.14 356.225 1086.85 358.098C1086.2 362.235 1083.83 365.54 1081.19 368.716C1078.35 372.132 1076.63 376.359 1073.72 379.745C1072.68 380.947 1071.72 382.229 1070.59 383.341C1064.59 389.271 1059.49 396.002 1052.75 401.331C1047.55 405.438 1042.13 408.834 1036.28 411.719C1031.65 413.993 1026.58 414.814 1021.63 416.016C1016.35 417.299 1011.14 418.881 1005.8 419.913C1003.46 420.364 1001.26 420.203 999.331 418.681C998.861 418.31 998.341 418.37 997.891 418.18C996.381 417.569 995.341 416.277 995.901 414.113C996.841 410.527 999.091 407.772 1001.28 405.028C1004.83 400.58 1008.32 396.052 1012.11 391.835C1017.41 385.935 1023.33 380.596 1029.57 375.678C1033.15 372.853 1036.22 369.477 1040.08 366.953C1047.24 362.265 1054.11 357.126 1062.2 354.031C1063.06 353.7 1063.74 353.21 1064.12 352.348" stroke="black" stroke-width="3" stroke-linecap="round" stroke-linejoin="round"/>
<path d="M1003.63 336.952C1006.27 338.394 1008.91 337.953 1011.55 336.952" stroke="black" stroke-width="3" stroke-linecap="round" stroke-linejoin="round"/>
<path d="M1000.51 300.169C997.101 293.428 994.611 286.165 989.021 280.666C986.021 277.711 982.521 276.229 978.431 275.888C975.961 275.678 973.981 276.749 973.201 279.274C972.291 282.219 971.421 285.224 971.701 288.389C971.851 290.082 972.451 291.424 973.851 292.506C975.091 293.468 976.031 293.478 977.261 292.506C978.021 291.905 978.701 290.974 979.871 291.024" stroke="black" stroke-width="3" stroke-linecap="round" stroke-linejoin="round"/>
<path d="M1032.91 307.862C1033.23 308.724 1032.32 309.505 1033.1 310.547C1035.2 313.352 1035.69 317.318 1039.17 319.142C1040.23 319.692 1041.25 319.412 1042.3 318.721C1043.75 317.779 1044.06 316.607 1043.6 315.075" stroke="black" stroke-width="3" stroke-linecap="round" stroke-linejoin="round"/>
<path d="M1005.55 290.072C1007.67 290.262 1009.29 291.885 1009.63 294.159C1009.91 296.002 1008.62 298.246 1006.74 298.667C1005.75 298.887 1005.05 299.318 1004.35 299.929" stroke="black" stroke-width="3" stroke-linecap="round" stroke-linejoin="round"/>
<path d="M1081.51 253.049C1081.81 254.051 1082.69 253.57 1083.3 253.79C1088.35 255.634 1090.2 262.866 1086.66 266.983C1082 272.392 1078.73 271.47 1073.25 268.395C1071.62 267.484 1071.35 264.398 1072.26 261.704C1073.58 257.827 1076.99 256.295 1080.18 254.492C1080.59 254.261 1080.98 254.011 1081.38 253.77" stroke="black" stroke-width="3" stroke-linecap="round" stroke-linejoin="round"/>
<path d="M1017.07 303.295C1019.65 301.171 1022.9 300.981 1025.96 300.5C1027.29 300.29 1028.63 299.939 1030.02 299.889C1039.3 299.498 1047.18 302.824 1054.28 308.564C1057.32 311.018 1060.24 313.552 1061.16 317.499C1061.83 320.384 1062.3 323.359 1061.71 326.384C1061.31 328.437 1060.16 329.469 1058.1 329.77C1053.72 330.411 1049.66 330.12 1046.84 326.123C1045.84 324.711 1045.65 322.948 1045.11 321.335C1044.71 320.163 1044.7 318.741 1043.46 317.96" stroke="black" stroke-width="3" stroke-linecap="round" stroke-linejoin="round"/>
<path d="M991.151 292.476C990.671 292.727 989.811 291.885 989.661 293.187C989.531 294.349 989.071 295.702 988.421 296.493C986.521 298.787 987.501 301.031 988.051 303.285C988.541 305.298 989.751 305.809 991.371 304.707C992.921 303.645 994.661 302.674 995.231 300.65" stroke="black" stroke-width="3" stroke-linecap="round" stroke-linejoin="round"/>
<path d="M1008.91 298.246C1009.96 299.378 1011.12 300.069 1012.72 300.51C1015.82 301.351 1018.29 303.765 1017.81 307.392C1017.68 308.333 1017.79 309.315 1017.79 310.276" stroke="black" stroke-width="3" stroke-linecap="round" stroke-linejoin="round"/>
<path d="M960.431 234.538C960.321 237.773 961.091 240.939 961.131 244.154C961.291 255.944 960.411 267.714 960.141 279.494C959.881 290.753 959.851 301.962 961.341 313.161C961.831 316.808 961.831 320.524 961.851 324.21C961.901 334.638 961.441 345.106 962.911 355.453C964.041 363.397 963.571 371.33 963.811 379.264C963.881 381.748 964.151 384.232 964.271 386.716C964.671 394.85 963.471 402.804 961.951 410.767C960.361 419.122 959.311 427.586 958.061 436C957.941 436.782 958.031 437.603 958.051 438.404C958.101 440.698 959.121 441.96 961.411 441.98C971.411 442.101 981.421 442.732 991.421 441.58C995.391 441.119 999.411 441.089 1003.41 441.079C1014.55 441.049 1025.65 440.197 1036.77 439.687C1043.89 439.356 1051.01 439.035 1058.12 438.605C1068.68 437.964 1079.24 438.254 1089.8 438.204C1093.88 438.184 1097.96 438.525 1102.04 438.635C1103.4 438.675 1104.76 438.505 1106.12 438.414C1107.48 438.324 1108.1 437.483 1107.77 436.261C1105.84 429.008 1107.02 421.816 1108.06 414.624C1108.42 412.13 1108.49 409.615 1108.21 407.171C1107.59 401.812 1108.77 396.583 1109.04 391.294C1109.35 385.284 1110.25 379.264 1109.4 373.274C1108.94 370.008 1109.6 366.853 1109.55 363.647C1109.46 356.956 1109.21 350.315 1108.07 343.683C1106.5 334.578 1106.75 325.422 1108.04 316.287C1108.46 313.332 1108.75 310.377 1108.76 307.392C1108.77 296.653 1108.63 285.915 1108.36 275.177C1108.19 268.375 1109.11 261.554 1108.7 254.752C1108.29 247.86 1108.48 240.939 1107.62 234.067C1107.36 231.963 1106.86 231.182 1104.66 231.633C1102.59 232.053 1100.47 231.503 1098.44 231.132C1094.28 230.381 1090.11 230.411 1085.95 230.751C1082.58 231.022 1079.23 230.932 1075.87 230.942C1069.23 230.962 1062.59 231.232 1055.95 231.382C1050.44 231.513 1044.9 230.861 1039.39 231.012C1029.06 231.302 1018.74 231.813 1008.43 232.344C996.911 232.935 985.441 234.528 973.871 234.327C970.971 234.277 968.081 234.327 965.221 233.626C963.091 233.105 961.071 234.147 958.991 234.327" stroke="black" stroke-width="3" stroke-linecap="round" stroke-linejoin="round"/>
<path d="M1000.99 346.087C997.991 345.306 995.161 346.548 992.371 347.139C983.791 348.962 975.961 352.889 968.121 356.685C966.741 357.357 965.651 358.589 964.031 358.829" stroke="black" stroke-width="3" stroke-linecap="round" stroke-linejoin="round"/>
<path d="M1002.19 279.855C1004.05 279.314 1003.74 277.27 1004.72 276.038C1006.2 274.195 1007.01 271.821 1007.49 269.397C1008.13 266.161 1007.34 264.819 1004.11 264.078C1003.53 263.948 1002.88 263.878 1002.43 263.377C1002.23 261.814 1003.1 260.822 1004.08 259.741C1005.87 257.757 1007.45 255.624 1007.72 252.799C1008.06 249.263 1005.67 247.069 1001.71 248.241C997.651 249.433 995.461 252.368 995.031 256.415C994.421 262.255 994.041 268.115 995.201 273.965C996.251 279.274 998.381 284.202 1000.57 289.08C1001.54 291.244 1002.65 293.358 1003.34 295.612C1003.75 296.974 1005.01 297.555 1005.55 298.727" stroke="black" stroke-width="3" stroke-linecap="round" stroke-linejoin="round"/>
<path d="M1002.43 317.719C1004.02 321.045 1003.39 324.581 1003.38 328.057C1003.38 330.862 1003.28 333.726 1003.12 336.451C1002.96 339.246 1002.56 342.291 1001.7 345.116C1001.6 345.456 1001.19 345.817 1001.26 346.067C1002.56 350.926 999.971 355.213 999.331 359.781C998.771 363.737 997.191 367.314 995.431 370.819C994.551 372.572 995.321 373.594 996.691 373.915C1004.72 375.758 1012.75 375.968 1020.7 373.394C1020.46 372.012 1019.93 370.96 1019.28 369.858C1017.27 366.452 1015.9 362.826 1015.33 358.829C1014.86 355.493 1014.74 352.018 1012.99 348.962C1014.13 346.678 1012.68 344.475 1012.78 342.231C1012.86 340.288 1011.67 338.244 1012.01 336.752C1012.56 334.307 1012.27 331.883 1012.68 329.479C1012.97 327.776 1012.46 325.643 1012.95 324.27C1013.76 322.016 1014.1 319.733 1014.67 317.469C1015.1 315.796 1015.43 314.133 1014.91 312.42" stroke="black" stroke-width="3" stroke-linecap="round" stroke-linejoin="round"/>
<path d="M1013.95 346.568C1023.59 344.294 1033.17 346.097 1042.75 347.089C1048.71 347.7 1054.66 348.592 1060.51 349.944C1061.76 350.234 1063.01 350.495 1063.9 351.597C1064.06 351.797 1064.43 352.017 1064.81 352.158C1065.76 352.518 1067.32 351.857 1067.63 353.079C1067.98 354.432 1067.92 355.984 1067.66 357.377C1067.32 359.22 1066.62 360.993 1067.22 362.916C1067.54 363.968 1066.86 364.529 1066.05 365.09C1060.36 369.016 1055.15 373.564 1049.7 377.791C1048.65 378.603 1047.77 379.554 1046.85 380.476C1036.65 390.783 1025.57 400.019 1013.73 408.373C1010.51 410.647 1006.89 412.17 1003.62 414.343C1001.94 415.455 1000.25 416.517 998.831 417.97" stroke="black" stroke-width="3" stroke-linecap="round" stroke-linejoin="round"/>
<path d="M432.211 212.464V197.616H433.763V212.464H432.211ZM426.627 203.04H428.995V197.84H430.515V212.16H428.995V204.496H426.627V203.04ZM425.091 200.24V201.04C425.091 202.128 424.979 203.168 424.771 204.176L428.131 209.392L426.867 210.272L424.211 206.144C423.683 207.632 422.883 209.04 421.859 210.432L420.643 209.488C422.595 206.896 423.619 204.352 423.619 201.04V200.24H421.171V198.784H427.635V200.24H425.091ZM437.623 205.424L437.047 204.048C440.631 202.784 442.263 201.328 442.263 199.728H437.847V198.32H448.087V199.728H443.863C443.863 200.32 443.751 200.864 443.495 201.392L448.887 204.08L448.183 205.424L442.647 202.64C441.655 203.696 440.007 204.624 437.623 205.424ZM435.991 206.848H449.943V208.304H443.767V212.64H442.183V208.304H435.991V206.848ZM462.861 203.904V205.504H469.037V206.96H455.085V205.504H461.277V203.904H460.925C458.397 203.904 456.717 202.784 456.717 200.832C456.717 198.896 458.397 197.776 460.925 197.776H463.213C465.741 197.776 467.405 198.896 467.405 200.832C467.405 202.784 465.741 203.904 463.213 203.904H462.861ZM458.317 200.848C458.317 201.872 459.357 202.512 461.197 202.512H462.941C464.781 202.512 465.821 201.872 465.821 200.848C465.821 199.792 464.781 199.168 462.941 199.168H461.197C459.357 199.168 458.317 199.792 458.317 200.848ZM456.941 208.16H458.541V210.976H467.565V212.464H456.941V208.16ZM478.032 206.72V209.888H484.208V211.36H470.256V209.888H476.448V206.72H471.968V198.528H473.568V201.248H480.912V198.528H482.512V206.72H478.032ZM480.912 202.688H473.568V205.28H480.912V202.688ZM498.148 205.712H496.564V197.616H498.148V205.712ZM488.98 205.2H486.388V198.32H493.748V199.744H488.004V203.792H489.252C490.948 203.792 493.076 203.6 494.964 203.312L495.156 204.688C493.364 204.992 491.092 205.2 488.98 205.2ZM494.804 212.624H491.572C489.412 212.624 488.02 211.344 488.02 209.552C488.02 207.776 489.412 206.496 491.572 206.496H494.804C496.98 206.496 498.356 207.776 498.356 209.552C498.356 211.344 496.98 212.624 494.804 212.624ZM491.828 211.184H494.564C496.036 211.184 496.756 210.496 496.756 209.552C496.756 208.608 496.036 207.92 494.564 207.92H491.828C490.356 207.92 489.62 208.608 489.62 209.552C489.62 210.496 490.356 211.184 491.828 211.184ZM515.642 209.248V197.616H517.242V212.464H515.642V210.704H511.498V209.248H515.642ZM509.386 204.944C507.162 204.944 505.386 203.872 505.386 201.68V201.44C505.386 199.232 507.162 198.176 509.386 198.176C511.61 198.176 513.37 199.232 513.37 201.44V201.68C513.37 203.872 511.61 204.944 509.386 204.944ZM506.986 201.472V201.648C506.986 202.896 508.01 203.552 509.386 203.552C510.762 203.552 511.786 202.896 511.786 201.648V201.472C511.786 200.208 510.762 199.568 509.386 199.568C508.01 199.568 506.986 200.208 506.986 201.472ZM514.394 205.984L514.57 207.408C513.194 207.6 511.578 207.744 510.042 207.824C509.93 209.328 509.786 210.864 509.562 212.576L507.994 212.4C508.186 210.736 508.346 209.328 508.458 207.888C508.026 207.904 507.61 207.904 507.21 207.904H504.746L504.666 206.448H507.354C509.178 206.448 512.074 206.272 514.394 205.984ZM531.086 212.464V197.616H532.638V212.464H531.086ZM525.678 203.504H527.87V197.84H529.39V212.16H527.87V204.96H525.214C524.366 207.12 522.926 209.04 521.038 210.72L519.902 209.552C521.614 208.096 522.862 206.416 523.63 204.656C522.542 204.768 521.246 204.832 520.254 204.848H520.03L519.95 203.392H520.174C521.23 203.376 522.942 203.312 524.158 203.2C524.414 202.272 524.542 201.344 524.542 200.416V200.24H520.254V198.784H526.11V200.096C526.11 201.296 525.966 202.432 525.678 203.504ZM547.586 212.464H545.986V197.616H547.586V212.464ZM539.378 210.528C537.202 210.528 535.426 209.12 535.426 205.552V203.296C535.426 199.728 537.202 198.32 539.378 198.32C541.522 198.32 543.298 199.728 543.298 203.296V205.552C543.298 209.12 541.522 210.528 539.378 210.528ZM539.378 209.072C540.69 209.072 541.714 208.112 541.714 205.536V203.312C541.714 200.72 540.69 199.776 539.378 199.776C538.066 199.776 537.026 200.72 537.026 203.312V205.536C537.026 208.112 538.066 209.072 539.378 209.072ZM562.758 208.736H561.174V204.032H558.262V202.736H561.174V201.008H558.262V199.712H561.174V197.616H562.758V208.736ZM558.134 206.496L554.422 203.328C553.702 204.576 552.614 205.68 551.126 206.72L550.214 205.504C552.742 203.728 553.878 201.776 553.878 199.36V198.176H555.446V199.36C555.446 200.272 555.318 201.12 555.062 201.904L559.078 205.312L558.134 206.496ZM554.534 207.808V211.008H563.382V212.464H552.95V207.808H554.534ZM575.37 205.424H577.69V206.88H566.682V205.424H569.002V200.064H566.682V198.608H577.69V200.064H575.37V205.424ZM573.818 200.064H570.554V205.424H573.818V200.064ZM565.21 211.36V209.888H579.162V211.36H565.21ZM588.157 207.104V209.888H594.333V211.36H580.381V209.888H586.573V207.104H582.093V202.144H591.037V200.048H582.013V198.608H592.637V203.552H583.693V205.696H592.941V207.104H588.157ZM606.049 200.56V200.224H597.105V198.768H607.649V200.128C607.649 202.4 607.313 205.328 606.833 207.984L605.265 207.712C605.729 205.168 606.049 202.208 606.049 200.56ZM595.553 211.36V209.888H609.505V211.36H595.553ZM622.165 200.88V197.616H623.685V205.952H622.165V202.304H620.309V205.952H618.837V197.76H620.309V200.88H622.165ZM617.669 203.888L617.845 205.216C616.613 205.456 615.381 205.584 613.461 205.584H611.221V201.232H615.477V199.712H611.221V198.32H616.949V202.576H612.693V204.208H613.749C615.237 204.208 616.373 204.08 617.669 203.888ZM623.685 212.464H613.781V206.88H623.685V212.464ZM622.085 208.288H615.365V211.04H622.085V208.288ZM637.883 205.632L633.899 203.232C633.131 204.288 631.899 205.152 630.203 205.936L629.531 204.608C631.883 203.472 633.131 202.208 633.259 200.592H630.043V199.184H633.275V197.44H634.827V199.184H638.139V200.592H634.827C634.795 201.072 634.715 201.504 634.571 201.92L638.635 204.288L637.883 205.632ZM641.707 200.864H643.995V202.32H641.707V205.952H640.107V197.616H641.707V200.864ZM641.707 212.464H632.187V206.864H641.707V212.464ZM640.107 208.288H633.787V211.04H640.107V208.288ZM656.879 203.2H659.183V204.656H656.879V212.464H655.279V197.616H656.879V203.2ZM650.959 200.24H645.535V198.784H652.559V200.096C652.559 204.304 650.191 207.952 646.191 210.688L645.199 209.424C648.959 206.96 650.959 203.552 650.959 200.416V200.24ZM672.051 203.2H674.339V204.656H672.051V212.464H670.451V197.616H672.051V203.2ZM665.171 200.24V200.88C665.171 202 665.043 203.056 664.771 204.08L668.979 209.248L667.779 210.288L664.163 205.824C663.475 207.44 662.419 208.944 661.011 210.448L659.875 209.392C662.291 206.784 663.619 204.304 663.619 200.88V200.24H660.451V198.784H668.387V200.24H665.171ZM687.735 203.552H677.191V200.128H685.831V199.072H677.127V197.856H687.431V201.312H678.791V202.352H687.735V203.552ZM689.287 205.728H675.335V204.512H689.287V205.728ZM687.975 212.544H677.047V208.992H685.991V207.936H676.967V206.72H687.591V210.208H678.647V211.296H687.975V212.544ZM702.204 206.416V209.888H708.38V211.36H694.428V209.888H700.62V206.416H696.14V198.608H706.684V206.416H702.204ZM705.084 200.064H697.74V204.976H705.084V200.064ZM720.72 205.328V197.616H722.32V205.328H720.72ZM718.416 205.328L714.24 202.784C713.456 203.856 712.208 204.784 710.48 205.632L709.76 204.32C712.384 202.976 713.648 201.6 713.68 199.728H710.352V198.32H718.576V199.728H715.232C715.232 200.368 715.12 200.96 714.912 201.504L719.152 203.984L718.416 205.328ZM714.08 207.824H720.72V206.112H722.32V212.464H712.496V206.112H714.08V207.824ZM714.08 209.232V211.04H720.72V209.232H714.08ZM729.956 198.896H733.492V200.192H724.804V198.896H728.34V197.44H729.956V198.896ZM736.66 201.024H738.964V202.48H736.66V205.84H735.06V197.616H736.66V201.024ZM732.836 203.312V203.504C732.836 205.088 731.22 205.904 729.172 205.904C727.108 205.904 725.492 205.088 725.492 203.504V203.312C725.492 201.712 727.108 200.912 729.172 200.912C731.22 200.912 732.836 201.712 732.836 203.312ZM727.06 203.344V203.472C727.06 204.192 727.972 204.608 729.172 204.608C730.356 204.608 731.284 204.192 731.284 203.472V203.344C731.284 202.656 730.356 202.192 729.172 202.192C727.972 202.192 727.06 202.656 727.06 203.344ZM728.74 208.112H735.06V206.608H736.66V212.464H727.14V206.608H728.74V208.112ZM728.74 209.504V211.056H735.06V209.504H728.74ZM752.664 212.464H751.08V197.616H752.664V212.464ZM743.48 210.048H740.904V198.704H742.52V208.592H743.752C745.448 208.592 747.56 208.416 749.464 208.112L749.656 209.52C747.848 209.84 745.608 210.048 743.48 210.048ZM767.004 203.2H769.308V204.656H767.004V212.464H765.404V197.616H767.004V203.2ZM757.084 208.592H758.316C759.948 208.592 762.028 208.416 763.884 208.128L764.076 209.552C762.3 209.84 760.108 210.048 758.028 210.048H755.468V198.704H762.684V200.176H757.084V208.592ZM771.744 211.84C771.136 211.84 770.64 211.36 770.64 210.752C770.64 210.144 771.136 209.648 771.744 209.648C772.352 209.648 772.832 210.144 772.832 210.752C772.832 211.36 772.352 211.84 771.744 211.84ZM471.446 227.512V227.224H462.182V225.768H473.03V227.064C473.03 229.208 472.726 231.992 472.262 234.52L470.694 234.264C471.142 231.832 471.446 229.048 471.446 227.512ZM469.142 231.08V236.888H474.662V238.36H460.71V236.888H463.91V231.08H465.43V236.888H467.638V231.08H469.142ZM484.025 230.28H481.689C479.193 230.28 477.513 229.352 477.513 227.512C477.513 225.688 479.193 224.776 481.689 224.776H484.025C486.537 224.776 488.201 225.688 488.201 227.512C488.201 229.352 486.537 230.28 484.025 230.28ZM483.753 226.152H481.977C480.137 226.152 479.113 226.632 479.113 227.528C479.113 228.408 480.137 228.92 481.977 228.92H483.753C485.577 228.92 486.617 228.408 486.617 227.528C486.617 226.632 485.577 226.152 483.753 226.152ZM489.833 231.64V233.016H486.201V234.68H488.137V239.624H486.537V236.12H477.593V234.68H479.529V233.016H475.881V231.64H489.833ZM481.081 234.68H484.649V233.016H481.081V234.68ZM503.085 230.344H505.245V231.8H503.085V239.464H501.485V224.616H503.085V230.344ZM497.629 227.432V227.24H491.789V225.784H499.229V226.936C499.229 229.016 498.957 231.448 498.525 233.752L496.957 233.512C497.373 231.288 497.629 228.888 497.629 227.432ZM495.261 230.392V235.656C496.829 235.592 498.669 235.448 500.253 235.256L500.429 236.664C498.205 236.984 495.373 237.16 493.261 237.16H490.909L490.829 235.704H493.389H493.677V230.392H495.261ZM521.267 236.248V224.616H522.867V239.464H521.267V237.704H517.123V236.248H521.267ZM515.011 231.944C512.787 231.944 511.011 230.872 511.011 228.68V228.44C511.011 226.232 512.787 225.176 515.011 225.176C517.235 225.176 518.995 226.232 518.995 228.44V228.68C518.995 230.872 517.235 231.944 515.011 231.944ZM512.611 228.472V228.648C512.611 229.896 513.635 230.552 515.011 230.552C516.387 230.552 517.411 229.896 517.411 228.648V228.472C517.411 227.208 516.387 226.568 515.011 226.568C513.635 226.568 512.611 227.208 512.611 228.472ZM520.019 232.984L520.195 234.408C518.819 234.6 517.203 234.744 515.667 234.824C515.555 236.328 515.411 237.864 515.187 239.576L513.619 239.4C513.811 237.736 513.971 236.328 514.083 234.888C513.651 234.904 513.235 234.904 512.835 234.904H510.371L510.291 233.448H512.979C514.803 233.448 517.699 233.272 520.019 232.984ZM536.711 239.464V224.616H538.263V239.464H536.711ZM531.303 230.504H533.495V224.84H535.015V239.16H533.495V231.96H530.839C529.991 234.12 528.551 236.04 526.663 237.72L525.527 236.552C527.239 235.096 528.487 233.416 529.255 231.656C528.167 231.768 526.871 231.832 525.879 231.848H525.655L525.575 230.392H525.799C526.855 230.376 528.567 230.312 529.783 230.2C530.039 229.272 530.167 228.344 530.167 227.416V227.24H525.879V225.784H531.735V227.096C531.735 228.296 531.591 229.432 531.303 230.504ZM553.211 239.464H551.611V224.616H553.211V239.464ZM545.003 237.528C542.827 237.528 541.051 236.12 541.051 232.552V230.296C541.051 226.728 542.827 225.32 545.003 225.32C547.147 225.32 548.923 226.728 548.923 230.296V232.552C548.923 236.12 547.147 237.528 545.003 237.528ZM545.003 236.072C546.315 236.072 547.339 235.112 547.339 232.536V230.312C547.339 227.72 546.315 226.776 545.003 226.776C543.691 226.776 542.651 227.72 542.651 230.312V232.536C542.651 235.112 543.691 236.072 545.003 236.072ZM568.383 235.736H566.799V231.032H563.887V229.736H566.799V228.008H563.887V226.712H566.799V224.616H568.383V235.736ZM563.759 233.496L560.047 230.328C559.327 231.576 558.239 232.68 556.751 233.72L555.839 232.504C558.367 230.728 559.503 228.776 559.503 226.36V225.176H561.071V226.36C561.071 227.272 560.943 228.12 560.687 228.904L564.703 232.312L563.759 233.496ZM560.159 234.808V238.008H569.007V239.464H558.575V234.808H560.159ZM579.011 229.544H576.627C574.147 229.544 572.467 228.824 572.467 227.096C572.467 225.4 574.147 224.696 576.627 224.696H579.011C581.491 224.696 583.155 225.4 583.155 227.096C583.155 228.824 581.491 229.544 579.011 229.544ZM576.931 228.28H578.707C580.563 228.28 581.571 227.896 581.571 227.112C581.571 226.328 580.563 225.976 578.707 225.976H576.931C575.075 225.976 574.067 226.328 574.067 227.112C574.067 227.912 575.075 228.28 576.931 228.28ZM584.787 231.912H570.835V230.616H584.787V231.912ZM583.475 239.544H572.547V235.672H581.491V234.408H572.467V233.144H583.091V236.936H574.147V238.232H583.475V239.544ZM597.704 230.136V231.512H603.88V232.888H589.928V231.512H596.12V230.136H591.784V224.936H601.864V226.264H593.384V228.776H602.024V230.136H597.704ZM595.208 234.232H598.6C601 234.232 602.328 235.368 602.328 236.92C602.328 238.488 601 239.624 598.6 239.624H595.208C592.808 239.624 591.48 238.488 591.48 236.92C591.48 235.368 592.808 234.232 595.208 234.232ZM595.528 238.232H598.296C599.976 238.232 600.744 237.72 600.744 236.904C600.744 236.12 599.976 235.608 598.296 235.608H595.528C593.848 235.608 593.08 236.12 593.08 236.904C593.08 237.72 593.848 238.232 595.528 238.232ZM616.22 239.464V224.616H617.82V239.464H616.22ZM610.572 225.48V227.416C610.572 228.68 610.428 229.864 610.124 231L614.524 236.264L613.324 237.288L609.532 232.712C608.812 234.376 607.724 235.928 606.204 237.448L605.084 236.376C607.756 233.688 609.02 230.968 609.02 227.416V225.48H610.572ZM631.664 239.464V224.616H633.232V239.464H631.664ZM626.768 230.344H628.448V224.84H629.968V239.16H628.448V231.8H626.768V232.552C626.768 236.12 625.408 237.528 623.664 237.528C621.888 237.528 620.528 236.12 620.528 232.552V230.296C620.528 226.728 621.888 225.32 623.664 225.32C625.408 225.32 626.768 226.728 626.768 230.296V230.344ZM625.248 232.536V230.312C625.248 227.72 624.576 226.776 623.648 226.776C622.72 226.776 622.048 227.72 622.048 230.312V232.536C622.048 235.112 622.72 236.072 623.648 236.072C624.576 236.072 625.248 235.112 625.248 232.536ZM650.502 228.168H647.142C646.294 230.312 643.99 231.8 640.678 232.84L640.07 231.416C643.606 230.344 645.702 228.648 645.878 226.856H640.406V225.4H647.494V226.232C647.494 226.456 647.478 226.664 647.462 226.872H650.502V224.616H652.086V232.712H650.502V231.032H647.126V229.736H650.502V228.168ZM645.494 233.496H648.742C650.902 233.496 652.294 234.776 652.294 236.552C652.294 238.344 650.902 239.624 648.742 239.624H645.494C643.35 239.624 641.958 238.344 641.958 236.552C641.958 234.776 643.35 233.496 645.494 233.496ZM645.766 238.184H648.486C649.974 238.184 650.694 237.496 650.694 236.552C650.694 235.608 649.974 234.92 648.486 234.92H645.766C644.278 234.92 643.558 235.608 643.558 236.552C643.558 237.496 644.278 238.184 645.766 238.184ZM660.09 225.928H663.626V227.224H654.954V225.928H658.474V224.44H660.09V225.928ZM665.658 228.68V224.616H667.258V233.144H665.658V230.056H663.53V228.68H665.658ZM662.97 230.408V230.616C662.97 232.232 661.354 233.064 659.306 233.064C657.242 233.064 655.626 232.232 655.626 230.616V230.408C655.626 228.792 657.242 227.96 659.306 227.96C661.354 227.96 662.97 228.792 662.97 230.408ZM657.178 230.456V230.584C657.178 231.32 658.106 231.768 659.306 231.768C660.49 231.768 661.418 231.32 661.418 230.584V230.456C661.418 229.72 660.49 229.256 659.306 229.256C658.106 229.256 657.178 229.72 657.178 230.456ZM667.258 239.464H657.434V234.072H667.258V239.464ZM665.658 235.432H659.018V238.072H665.658V235.432ZM681.102 230.2V224.616H682.654V239.464H681.102V231.656H679.214V239.16H677.694V224.84H679.214V230.2H681.102ZM672.414 224.632H674.03V226.792H676.702V228.232H669.726V226.792H672.414V224.632ZM673.246 229.56C674.942 229.56 676.11 230.92 676.11 233.064V233.928C676.11 236.072 674.942 237.448 673.246 237.448C671.518 237.448 670.334 236.072 670.334 233.928V233.064C670.334 230.92 671.518 229.56 673.246 229.56ZM674.638 233.832V233.176C674.638 231.816 674.062 231 673.23 231C672.398 231 671.806 231.816 671.806 233.176V233.832C671.806 235.192 672.398 236.024 673.23 236.024C674.062 236.024 674.638 235.192 674.638 233.832ZM692.657 233.72V236.888H698.833V238.36H684.881V236.888H691.073V233.72H686.593V225.528H688.193V228.248H695.537V225.528H697.137V233.72H692.657ZM695.537 229.688H688.193V232.28H695.537V229.688ZM711.445 239.464V224.616H712.997V239.464H711.445ZM705.861 229.736H708.229V224.84H709.749V239.16H708.229V231.192H705.861V229.736ZM704.357 225.48V227.448C704.357 228.696 704.245 229.88 704.005 231.016L707.317 236.376L706.037 237.288L703.445 233.064C702.901 234.6 702.117 236.056 701.061 237.448L699.845 236.488C701.861 233.8 702.837 230.936 702.837 227.448V225.48H704.357ZM723.369 233.336H721.049C718.377 233.336 716.665 231.624 716.665 229.336C716.665 227.096 718.377 225.384 721.049 225.384H723.369C726.041 225.384 727.753 227.096 727.753 229.336C727.753 231.624 726.041 233.336 723.369 233.336ZM723.081 226.808H721.321C719.401 226.808 718.265 227.864 718.265 229.352C718.265 230.856 719.401 231.912 721.321 231.912H723.081C725.017 231.912 726.169 230.856 726.169 229.352C726.169 227.864 725.017 226.808 723.081 226.808ZM725.625 234.184V236.888H729.177V238.344H715.225V236.888H718.793V234.184H720.361V236.888H724.073V234.184H725.625ZM731.853 238.84C731.245 238.84 730.749 238.36 730.749 237.752C730.749 237.144 731.245 236.648 731.853 236.648C732.461 236.648 732.941 237.144 732.941 237.752C732.941 238.36 732.461 238.84 731.853 238.84Z" fill="black"/>
<path d="M467.668 77.26L468.248 76.04C468.988 76.52 469.808 76.88 470.828 76.88C472.088 76.88 472.968 76.14 472.968 74.38V61.86H474.428L474.408 74.38C474.408 77.12 472.928 78.24 470.828 78.24C469.548 78.24 468.588 77.84 467.668 77.26ZM494.477 71.6V72.68H485.597V72.84C485.597 75.48 487.377 76.94 489.397 76.94C490.917 76.94 492.397 76.16 492.977 74.64L494.317 75.1C493.557 77.2 491.497 78.24 489.397 78.24C486.657 78.24 484.177 76.4 484.177 72.9V71.42C484.177 67.92 486.597 66.08 489.317 66.08C492.137 66.08 494.477 67.96 494.477 71.6ZM489.317 67.38C487.277 67.38 485.637 68.82 485.597 71.4H493.037C493.037 68.88 491.497 67.38 489.317 67.38ZM505.334 61.6C505.914 61.6 506.374 62.08 506.374 62.64C506.374 63.22 505.914 63.68 505.334 63.68C504.754 63.68 504.274 63.22 504.274 62.64C504.274 62.06 504.754 61.6 505.334 61.6ZM504.614 66.26H506.054V78.7C506.054 80.52 505.014 81.58 503.334 81.58C502.514 81.58 501.574 81.22 501.034 80.84L501.534 79.68C502.094 80 502.614 80.26 503.254 80.26C503.974 80.26 504.614 79.82 504.614 78.7V66.26ZM524.566 73.32V66.38H526.006V77.94H524.686L524.586 76.12C523.846 77.4 522.466 78.24 520.686 78.24C517.966 78.24 516.306 76.32 516.306 73.46V66.38H517.766V73.38C517.766 75.56 518.806 76.92 520.986 76.92C523.086 76.92 524.566 75.42 524.566 73.32ZM554.306 78.24C550.646 78.24 547.626 75.74 547.626 71.4V68.4C547.626 64.06 550.646 61.56 554.306 61.56C557.986 61.56 560.986 64.06 560.986 68.4V71.4C560.986 75.74 557.986 78.24 554.306 78.24ZM554.306 76.9C557.206 76.9 559.546 74.98 559.546 71.24V68.56C559.546 64.82 557.206 62.9 554.306 62.9C551.406 62.9 549.086 64.82 549.086 68.56V71.24C549.086 74.98 551.406 76.9 554.306 76.9ZM576.071 66.08C578.811 66.08 580.451 68 580.451 70.86V77.94H579.011V70.94C579.011 68.78 577.971 67.42 575.771 67.42C573.691 67.42 572.211 68.9 572.211 71V77.94H570.751V66.38H572.071L572.191 68.22C572.931 66.92 574.291 66.08 576.071 66.08ZM595.907 66.08C598.367 66.08 600.707 67.98 600.707 71.36V72.96C600.707 76.34 598.367 78.24 595.907 78.24C594.207 78.24 592.727 77.5 591.847 76.12L591.747 77.94H590.407V61.86H591.867V68.16C592.747 66.8 594.227 66.08 595.907 66.08ZM599.267 72.9V71.42C599.267 68.86 597.627 67.42 595.547 67.42C593.487 67.42 591.867 68.86 591.867 71.42V72.9C591.867 75.46 593.507 76.92 595.547 76.92C597.627 76.92 599.267 75.46 599.267 72.9ZM615.214 78.24C612.474 78.24 609.974 76.42 609.974 73V71.3C609.974 67.9 612.474 66.08 615.214 66.08C617.994 66.08 620.474 67.9 620.474 71.3V73C620.474 76.42 617.994 78.24 615.214 78.24ZM615.214 76.92C617.274 76.92 619.034 75.48 619.034 72.94V71.38C619.034 68.84 617.274 67.42 615.214 67.42C613.154 67.42 611.434 68.84 611.434 71.38V72.94C611.434 75.48 613.174 76.92 615.214 76.92ZM634.492 66.08C637.152 66.08 639.012 67.74 639.012 70.54V77.94H637.712L637.612 76.34C636.952 77.5 635.692 78.24 634.032 78.24H633.252C631.032 78.24 629.432 76.72 629.432 74.66C629.432 72.58 631.052 71.14 633.932 71.14H637.572V70.64C637.572 68.68 636.472 67.42 634.392 67.42C632.892 67.42 631.812 68.12 631.212 69.24L629.912 68.64C630.692 67.12 632.392 66.08 634.492 66.08ZM633.492 76.9H634.232C635.852 76.9 637.372 75.9 637.572 74.32V72.44H634.032C631.812 72.44 630.872 73.36 630.872 74.66C630.872 76.06 631.912 76.9 633.492 76.9ZM653.346 66.08C653.926 66.08 654.446 66.16 654.886 66.32L654.546 67.62C654.066 67.5 653.566 67.42 653.126 67.42C651.466 67.42 650.406 69.12 650.406 71.08V77.94H648.946V66.38H650.286L650.366 68.2C650.946 66.94 651.966 66.08 653.346 66.08ZM671.709 68.16V61.86H673.149V77.94H671.829L671.729 76.12C670.849 77.5 669.369 78.24 667.649 78.24C665.189 78.24 662.849 76.34 662.849 72.96V71.36C662.849 67.98 665.189 66.08 667.649 66.08C669.349 66.08 670.829 66.8 671.709 68.16ZM668.029 76.92C670.069 76.92 671.709 75.46 671.709 72.9V71.42C671.709 68.86 670.089 67.42 668.029 67.42C665.949 67.42 664.309 68.86 664.309 71.42V72.9C664.309 75.46 665.949 76.92 668.029 76.92ZM684.475 63.92C683.895 63.92 683.415 63.46 683.415 62.88C683.415 62.3 683.895 61.84 684.475 61.84C685.055 61.84 685.515 62.32 685.515 62.88C685.515 63.46 685.055 63.92 684.475 63.92ZM685.195 77.94H683.755V66.38H685.195V77.94ZM701.067 66.08C703.807 66.08 705.447 68 705.447 70.86V77.94H704.007V70.94C704.007 68.78 702.967 67.42 700.767 67.42C698.687 67.42 697.207 68.9 697.207 71V77.94H695.747V66.38H697.067L697.187 68.22C697.927 66.92 699.287 66.08 701.067 66.08ZM723.783 68.12L723.883 66.38H725.203V76.38C725.203 79.8 722.983 81.64 720.103 81.64C717.983 81.64 716.123 80.96 715.283 79.4L716.683 78.78C717.243 79.84 718.583 80.38 720.103 80.38C722.443 80.38 723.763 78.82 723.763 76.28V75.34C722.883 76.62 721.403 77.32 719.723 77.32C717.283 77.32 714.903 75.46 714.903 72.34V71.06C714.903 67.98 717.283 66.08 719.723 66.08C721.423 66.08 722.903 66.82 723.783 68.12ZM720.083 76.02C722.143 76.02 723.763 74.6 723.763 72.28V71.1C723.763 68.78 722.123 67.38 720.083 67.38C718.003 67.38 716.363 68.78 716.363 71.1V72.28C716.363 74.6 718.003 76.02 720.083 76.02Z" fill="black"/>
<path d="M365.818 161L350.978 110.32H373.238L378.278 133.84H378.418L382.688 110.32H396.758L400.958 133.84H401.098L406.208 110.32H426.368L411.458 161H393.048L388.708 141.26H388.568L384.298 161H365.818ZM425.588 135.66C425.588 120.96 437.978 109.55 453.868 109.55C469.758 109.55 482.148 120.96 482.148 135.66C482.148 150.36 469.758 161.77 453.868 161.77C437.978 161.77 425.588 150.36 425.588 135.66ZM446.028 136.01C446.028 140.35 449.528 143.85 453.868 143.85C458.208 143.85 461.708 140.35 461.708 136.01C461.708 131.67 458.208 128.17 453.868 128.17C449.528 128.17 446.028 131.67 446.028 136.01ZM487.206 161V110.32H507.996C518.426 110.32 532.636 112.91 532.636 126.42C532.636 131.88 530.046 135.8 526.266 138.46L537.816 161H515.906L508.346 144.34H508.066V161H487.206ZM508.066 132.72H509.606C512.896 132.72 514.366 130.97 514.366 128.8C514.366 126.63 512.826 124.95 509.606 124.95H508.066V132.72ZM539.979 161V110.32H560.839V131.46L560.979 131.53L569.589 110.32H592.409L580.439 133.84L593.389 161H569.939L560.979 137.13L560.839 137.2V161H539.979ZM594.536 161L613.856 110.32H633.806L653.126 161H630.586L628.836 154.35H617.216L615.256 161H594.536ZM620.856 141.61H625.476L623.236 131.32H623.096L620.856 141.61ZM660.949 161V127.54H646.809V110.32H695.949V127.54H681.809V161H660.949ZM701.376 161V110.32H722.236V161H701.376ZM727.258 135.66C727.258 120.96 739.648 109.55 755.538 109.55C771.428 109.55 783.818 120.96 783.818 135.66C783.818 150.36 771.428 161.77 755.538 161.77C739.648 161.77 727.258 150.36 727.258 135.66ZM747.698 136.01C747.698 140.35 751.198 143.85 755.538 143.85C759.878 143.85 763.378 140.35 763.378 136.01C763.378 131.67 759.878 128.17 755.538 128.17C751.198 128.17 747.698 131.67 747.698 136.01ZM788.876 161V110.32H807.846L822.756 131.95L822.896 131.88V110.32H841.656V161H822.686L807.776 139.37L807.636 139.44V161H788.876Z" fill="black"/>
<defs>
<clipPath id="clip0_298_131">
<rect width="521" height="8" fill="white" transform="translate(0 485)"/>
</clipPath>
<clipPath id="clip1_298_131">
<rect width="447" height="11" fill="white" transform="translate(747 489)"/>
</clipPath>
</defs>
</svg>
