<svg width="311" height="56" viewBox="0 0 311 56" fill="none" xmlns="http://www.w3.org/2000/svg">
<path d="M73.96 9.95093L74.3276 9.17768C74.7966 9.48191 75.3163 9.71008 75.9628 9.71008C76.7614 9.71008 77.3192 9.24106 77.3192 8.12554V0.190146H78.2446L78.2319 8.12554C78.2319 9.8622 77.2938 10.5721 75.9628 10.5721C75.1515 10.5721 74.5431 10.3185 73.96 9.95093Z" fill="black"/>
<path d="M90.9517 6.36353V7.04805H85.3234V7.14946C85.3234 8.82274 86.4516 9.74811 87.7319 9.74811C88.6953 9.74811 89.6334 9.25374 90.001 8.29033L90.8503 8.58189C90.3686 9.91291 89.0629 10.5721 87.7319 10.5721C85.9953 10.5721 84.4234 9.40585 84.4234 7.18749V6.24944C84.4234 4.03108 85.9572 2.86486 87.6812 2.86486C89.4686 2.86486 90.9517 4.05643 90.9517 6.36353ZM87.6812 3.68882C86.3882 3.68882 85.3488 4.60151 85.3234 6.23676H90.039C90.039 4.63954 89.0629 3.68882 87.6812 3.68882Z" fill="black"/>
<path d="M97.8336 0.0253533C98.2012 0.0253533 98.4928 0.329586 98.4928 0.684523C98.4928 1.05214 98.2012 1.34369 97.8336 1.34369C97.466 1.34369 97.1617 1.05214 97.1617 0.684523C97.1617 0.316909 97.466 0.0253533 97.8336 0.0253533ZM97.3772 2.97894H98.2899V10.8636C98.2899 12.0172 97.6308 12.689 96.566 12.689C96.0462 12.689 95.4504 12.4609 95.1082 12.22L95.4251 11.4848C95.78 11.6876 96.1096 11.8524 96.5152 11.8524C96.9716 11.8524 97.3772 11.5735 97.3772 10.8636V2.97894Z" fill="black"/>
<path d="M110.023 7.45369V3.055H110.936V10.3819H110.099L110.036 9.22838C109.567 10.0397 108.692 10.5721 107.564 10.5721C105.84 10.5721 104.788 9.35515 104.788 7.54243V3.055H105.713V7.49172C105.713 8.87344 106.372 9.73544 107.754 9.73544C109.085 9.73544 110.023 8.78471 110.023 7.45369Z" fill="black"/>
<path d="M128.873 10.5721C126.553 10.5721 124.639 8.98753 124.639 6.23676V4.33531C124.639 1.58454 126.553 0 128.873 0C131.205 0 133.106 1.58454 133.106 4.33531V6.23676C133.106 8.98753 131.205 10.5721 128.873 10.5721ZM128.873 9.72276C130.711 9.72276 132.194 8.50583 132.194 6.13535V4.43672C132.194 2.06625 130.711 0.849316 128.873 0.849316C127.034 0.849316 125.564 2.06625 125.564 4.43672V6.13535C125.564 8.50583 127.034 9.72276 128.873 9.72276Z" fill="black"/>
<path d="M142.668 2.86486C144.404 2.86486 145.444 4.08178 145.444 5.8945V10.3819H144.531V5.94521C144.531 4.57616 143.872 3.71417 142.477 3.71417C141.159 3.71417 140.221 4.65222 140.221 5.98324V10.3819H139.296V3.055H140.132L140.208 4.22122C140.677 3.39726 141.539 2.86486 142.668 2.86486Z" fill="black"/>
<path d="M155.24 2.86486C156.799 2.86486 158.282 4.06911 158.282 6.21141V7.22552C158.282 9.36782 156.799 10.5721 155.24 10.5721C154.163 10.5721 153.225 10.1031 152.667 9.22838L152.603 10.3819H151.754V0.190146H152.679V4.1832C153.237 3.3212 154.175 2.86486 155.24 2.86486ZM157.37 7.18749V6.24944C157.37 4.62687 156.33 3.71417 155.012 3.71417C153.706 3.71417 152.679 4.62687 152.679 6.24944V7.18749C152.679 8.81006 153.719 9.73544 155.012 9.73544C156.33 9.73544 157.37 8.81006 157.37 7.18749Z" fill="black"/>
<path d="M167.477 10.5721C165.74 10.5721 164.156 9.41853 164.156 7.25087V6.17338C164.156 4.0184 165.74 2.86486 167.477 2.86486C169.239 2.86486 170.811 4.0184 170.811 6.17338V7.25087C170.811 9.41853 169.239 10.5721 167.477 10.5721ZM167.477 9.73544C168.783 9.73544 169.898 8.82274 169.898 7.21284V6.22409C169.898 4.61419 168.783 3.71417 167.477 3.71417C166.171 3.71417 165.081 4.61419 165.081 6.22409V7.21284C165.081 8.82274 166.184 9.73544 167.477 9.73544Z" fill="black"/>
<path d="M179.696 2.86486C181.382 2.86486 182.561 3.91699 182.561 5.69168V10.3819H181.737L181.673 9.36782C181.255 10.1031 180.457 10.5721 179.404 10.5721H178.91C177.503 10.5721 176.489 9.60867 176.489 8.30301C176.489 6.98467 177.516 6.07197 179.341 6.07197H181.648V5.75506C181.648 4.51278 180.951 3.71417 179.633 3.71417C178.682 3.71417 177.997 4.15784 177.617 4.86772L176.793 4.48743C177.287 3.52403 178.365 2.86486 179.696 2.86486ZM179.062 9.72276H179.531C180.558 9.72276 181.521 9.08894 181.648 8.08751V6.89593H179.404C177.997 6.89593 177.402 7.47905 177.402 8.30301C177.402 9.19035 178.061 9.72276 179.062 9.72276Z" fill="black"/>
<path d="M191.646 2.86486C192.014 2.86486 192.343 2.91556 192.622 3.01697L192.407 3.84093C192.102 3.76488 191.785 3.71417 191.507 3.71417C190.454 3.71417 189.783 4.79166 189.783 6.03394V10.3819H188.857V3.055H189.707L189.757 4.20855C190.125 3.40994 190.771 2.86486 191.646 2.86486Z" fill="black"/>
<path d="M203.284 4.1832V0.190146H204.197V10.3819H203.36L203.297 9.22838C202.739 10.1031 201.801 10.5721 200.711 10.5721C199.152 10.5721 197.669 9.36782 197.669 7.22552V6.21141C197.669 4.06911 199.152 2.86486 200.711 2.86486C201.789 2.86486 202.727 3.3212 203.284 4.1832ZM200.952 9.73544C202.245 9.73544 203.284 8.81006 203.284 7.18749V6.24944C203.284 4.62687 202.258 3.71417 200.952 3.71417C199.634 3.71417 198.594 4.62687 198.594 6.24944V7.18749C198.594 8.81006 199.634 9.73544 200.952 9.73544Z" fill="black"/>
<path d="M211.376 1.49581C211.008 1.49581 210.704 1.20425 210.704 0.83664C210.704 0.469025 211.008 0.17747 211.376 0.17747C211.744 0.17747 212.035 0.481702 212.035 0.83664C212.035 1.20425 211.744 1.49581 211.376 1.49581ZM211.832 10.3819H210.92V3.055H211.832V10.3819Z" fill="black"/>
<path d="M221.892 2.86486C223.629 2.86486 224.668 4.08178 224.668 5.8945V10.3819H223.756V5.94521C223.756 4.57616 223.097 3.71417 221.702 3.71417C220.384 3.71417 219.446 4.65222 219.446 5.98324V10.3819H218.52V3.055H219.357L219.433 4.22122C219.902 3.39726 220.764 2.86486 221.892 2.86486Z" fill="black"/>
<path d="M236.29 4.15784L236.354 3.055H237.19V9.39318C237.19 11.5608 235.783 12.7271 233.958 12.7271C232.614 12.7271 231.435 12.2961 230.903 11.3073L231.79 10.9143C232.145 11.5862 232.994 11.9284 233.958 11.9284C235.441 11.9284 236.278 10.9397 236.278 9.32979V8.734C235.72 9.54529 234.782 9.98896 233.717 9.98896C232.17 9.98896 230.662 8.81006 230.662 6.83255V6.02127C230.662 4.06911 232.17 2.86486 233.717 2.86486C234.794 2.86486 235.732 3.33388 236.29 4.15784ZM233.945 9.165C235.251 9.165 236.278 8.26498 236.278 6.79452V6.04662C236.278 4.57616 235.238 3.68882 233.945 3.68882C232.627 3.68882 231.587 4.57616 231.587 6.04662V6.79452C231.587 8.26498 232.627 9.165 233.945 9.165Z" fill="black"/>
<path d="M9.40585 54.7872L0 22.6653H14.1088L17.3032 37.5727H17.392L20.0984 22.6653H29.0162L31.6782 37.5727H31.7669L35.0057 22.6653H47.7835L38.3333 54.7872H26.6647L23.9139 42.2756H23.8252L21.1188 54.7872H9.40585Z" fill="black"/>
<path d="M47.2889 38.7262C47.2889 29.4091 55.1419 22.1772 65.2132 22.1772C75.2846 22.1772 83.1376 29.4091 83.1376 38.7262C83.1376 48.0433 75.2846 55.2752 65.2132 55.2752C55.1419 55.2752 47.2889 48.0433 47.2889 38.7262ZM60.2441 38.9481C60.2441 41.6988 62.4625 43.9172 65.2132 43.9172C67.964 43.9172 70.1824 41.6988 70.1824 38.9481C70.1824 36.1973 67.964 33.9789 65.2132 33.9789C62.4625 33.9789 60.2441 36.1973 60.2441 38.9481Z" fill="black"/>
<path d="M86.3435 54.7872V22.6653H99.5205C106.131 22.6653 115.138 24.3069 115.138 32.8697C115.138 36.3304 113.496 38.815 111.1 40.5009L118.421 54.7872H104.534L99.7424 44.2278H99.5649V54.7872H86.3435ZM99.5649 36.8628H100.541C102.626 36.8628 103.558 35.7536 103.558 34.3782C103.558 33.0028 102.582 31.938 100.541 31.938H99.5649V36.8628Z" fill="black"/>
<path d="M119.792 54.7872V22.6653H133.014V36.0642L133.102 36.1086L138.56 22.6653H153.023L145.436 37.5727L153.644 54.7872H138.781L133.102 39.6579L133.014 39.7023V54.7872H119.792Z" fill="black"/>
<path d="M154.371 54.7872L166.617 22.6653H179.261L191.507 54.7872H177.22L176.111 50.5723H168.746L167.504 54.7872H154.371ZM171.053 42.4974H173.982L172.562 35.9755H172.473L171.053 42.4974Z" fill="black"/>
<path d="M196.465 54.7872V33.5796H187.502V22.6653H218.648V33.5796H209.686V54.7872H196.465Z" fill="black"/>
<path d="M222.088 54.7872V22.6653H235.31V54.7872H222.088Z" fill="black"/>
<path d="M238.493 38.7262C238.493 29.4091 246.346 22.1772 256.417 22.1772C266.488 22.1772 274.341 29.4091 274.341 38.7262C274.341 48.0433 266.488 55.2752 256.417 55.2752C246.346 55.2752 238.493 48.0433 238.493 38.7262ZM251.448 38.9481C251.448 41.6988 253.666 43.9172 256.417 43.9172C259.168 43.9172 261.386 41.6988 261.386 38.9481C261.386 36.1973 259.168 33.9789 256.417 33.9789C253.666 33.9789 251.448 36.1973 251.448 38.9481Z" fill="black"/>
<path d="M277.547 54.7872V22.6653H289.571L299.021 36.3748L299.11 36.3304V22.6653H311V54.7872H298.977L289.526 41.0777L289.438 41.122V54.7872H277.547Z" fill="black"/>
</svg>
