<svg width="328" height="149" viewBox="0 0 328 149" fill="none" xmlns="http://www.w3.org/2000/svg">
<path d="M129.824 57.6H121.056V56.352L125.808 51.632C127.264 50.192 127.936 49.184 127.936 47.984C127.936 46.688 127.008 45.84 125.36 45.84C123.76 45.84 122.944 47.008 122.512 48.432L120.992 48.064C121.52 46.16 122.928 44.4 125.36 44.4C127.856 44.4 129.52 45.744 129.52 47.92C129.52 49.68 128.576 50.96 127.024 52.496L123.36 56.128H129.824V57.6ZM136.698 57.84C134.106 57.84 131.994 55.984 131.994 52.368V49.856C131.994 46.272 134.106 44.4 136.698 44.4C139.29 44.4 141.418 46.272 141.418 49.856V52.368C141.418 55.984 139.29 57.84 136.698 57.84ZM136.698 56.4C138.442 56.4 139.802 55.088 139.802 52.288V49.952C139.802 47.152 138.442 45.84 136.698 45.84C134.954 45.84 133.594 47.152 133.594 49.952V52.288C133.594 55.088 134.954 56.4 136.698 56.4ZM152.308 57.6H143.54V56.352L148.292 51.632C149.748 50.192 150.42 49.184 150.42 47.984C150.42 46.688 149.492 45.84 147.844 45.84C146.244 45.84 145.428 47.008 144.996 48.432L143.476 48.064C144.004 46.16 145.412 44.4 147.844 44.4C150.34 44.4 152.004 45.744 152.004 47.92C152.004 49.68 151.06 50.96 149.508 52.496L145.844 56.128H152.308V57.6ZM154.239 54.608L155.663 54.096C156.127 55.312 157.055 56.4 158.943 56.4C160.815 56.4 161.935 55.424 161.935 54.064C161.935 52.704 160.863 51.616 158.703 51.616H157.071V50.224H158.703C160.623 50.224 161.631 49.28 161.631 47.968C161.631 46.64 160.559 45.84 158.911 45.84C157.279 45.84 156.479 46.864 156.047 47.936L154.607 47.392C155.199 45.824 156.543 44.4 158.911 44.4C161.391 44.4 163.199 45.712 163.199 47.888C163.199 49.472 162.271 50.464 161.087 50.912C162.479 51.344 163.519 52.496 163.519 54.128C163.519 56.352 161.647 57.84 158.943 57.84C156.319 57.84 154.831 56.368 154.239 54.608ZM166.658 57.84C166.05 57.84 165.554 57.36 165.554 56.752C165.554 56.144 166.05 55.648 166.658 55.648C167.266 55.648 167.746 56.144 167.746 56.752C167.746 57.36 167.266 57.84 166.658 57.84ZM174.607 57.6H173.007V46.752L170.063 49.104L169.151 47.904L173.247 44.64H174.607V57.6ZM182.12 57.84C179.528 57.84 177.416 55.984 177.416 52.368V49.856C177.416 46.272 179.528 44.4 182.12 44.4C184.712 44.4 186.84 46.272 186.84 49.856V52.368C186.84 55.984 184.712 57.84 182.12 57.84ZM182.12 56.4C183.864 56.4 185.224 55.088 185.224 52.288V49.952C185.224 47.152 183.864 45.84 182.12 45.84C180.376 45.84 179.016 47.152 179.016 49.952V52.288C179.016 55.088 180.376 56.4 182.12 56.4ZM195.506 51.552V50.448H199.634V43.616H201.234V52.032H199.634V51.552H195.506ZM193.394 48.128C191.106 48.128 189.394 47.36 189.394 46V45.904C189.394 44.528 191.106 43.792 193.394 43.792C195.65 43.792 197.378 44.528 197.378 45.904V46C197.378 47.36 195.65 48.128 193.394 48.128ZM190.914 45.92V45.968C190.914 46.544 191.922 46.896 193.394 46.896C194.85 46.896 195.858 46.544 195.858 45.968V45.92C195.858 45.36 194.85 45.008 193.394 45.008C191.922 45.008 190.914 45.36 190.914 45.92ZM192.434 50.112C192.002 50.128 191.602 50.128 191.218 50.128H188.722L188.658 48.944H191.346C193.17 48.944 196.082 48.784 198.434 48.496L198.578 49.648C197.186 49.84 195.538 49.968 193.986 50.048C193.938 50.736 193.89 51.472 193.81 52.176L192.258 52.08C192.338 51.44 192.386 50.752 192.434 50.112ZM192.818 56.208V57.28H201.778V58.544H191.266V54.976H199.682V53.968H191.186V52.72H201.234V56.208H192.818ZM209.208 49.664L208.792 48.352C212.088 47.568 213.72 46.496 213.896 45.312H209.544V43.936H219.624V45.312H215.464C215.448 45.728 215.336 46.128 215.144 46.496L220.376 48.352L219.848 49.664L214.184 47.648C213.176 48.48 211.544 49.152 209.208 49.664ZM221.56 50.352V51.744H215.384V53.232H216.28C218.68 53.232 220.008 54.368 220.008 55.92C220.008 57.488 218.68 58.624 216.28 58.624H212.888C210.488 58.624 209.16 57.488 209.16 55.92C209.16 54.368 210.488 53.232 212.888 53.232H213.8V51.744H207.608V50.352H221.56ZM218.424 55.904C218.424 55.12 217.656 54.608 215.976 54.608H213.208C211.528 54.608 210.76 55.12 210.76 55.904C210.76 56.72 211.528 57.232 213.208 57.232H215.976C217.656 57.232 218.424 56.72 218.424 55.904Z" fill="black"/>
<path d="M129.824 21.6H121.056V20.352L125.808 15.632C127.264 14.192 127.936 13.184 127.936 11.984C127.936 10.688 127.008 9.84 125.36 9.84C123.76 9.84 122.944 11.008 122.512 12.432L120.992 12.064C121.52 10.16 122.928 8.4 125.36 8.4C127.856 8.4 129.52 9.744 129.52 11.92C129.52 13.68 128.576 14.96 127.024 16.496L123.36 20.128H129.824V21.6ZM136.698 21.84C134.106 21.84 131.994 19.984 131.994 16.368V13.856C131.994 10.272 134.106 8.4 136.698 8.4C139.29 8.4 141.418 10.272 141.418 13.856V16.368C141.418 19.984 139.29 21.84 136.698 21.84ZM136.698 20.4C138.442 20.4 139.802 19.088 139.802 16.288V13.952C139.802 11.152 138.442 9.84 136.698 9.84C134.954 9.84 133.594 11.152 133.594 13.952V16.288C133.594 19.088 134.954 20.4 136.698 20.4ZM152.308 21.6H143.54V20.352L148.292 15.632C149.748 14.192 150.42 13.184 150.42 11.984C150.42 10.688 149.492 9.84 147.844 9.84C146.244 9.84 145.428 11.008 144.996 12.432L143.476 12.064C144.004 10.16 145.412 8.4 147.844 8.4C150.34 8.4 152.004 9.744 152.004 11.92C152.004 13.68 151.06 14.96 149.508 16.496L145.844 20.128H152.308V21.6ZM154.239 18.608L155.663 18.096C156.127 19.312 157.055 20.4 158.943 20.4C160.815 20.4 161.935 19.424 161.935 18.064C161.935 16.704 160.863 15.616 158.703 15.616H157.071V14.224H158.703C160.623 14.224 161.631 13.28 161.631 11.968C161.631 10.64 160.559 9.84 158.911 9.84C157.279 9.84 156.479 10.864 156.047 11.936L154.607 11.392C155.199 9.824 156.543 8.4 158.911 8.4C161.391 8.4 163.199 9.712 163.199 11.888C163.199 13.472 162.271 14.464 161.087 14.912C162.479 15.344 163.519 16.496 163.519 18.128C163.519 20.352 161.647 21.84 158.943 21.84C156.319 21.84 154.831 20.368 154.239 18.608ZM166.658 21.84C166.05 21.84 165.554 21.36 165.554 20.752C165.554 20.144 166.05 19.648 166.658 19.648C167.266 19.648 167.746 20.144 167.746 20.752C167.746 21.36 167.266 21.84 166.658 21.84ZM174.607 21.6H173.007V10.752L170.063 13.104L169.151 11.904L173.247 8.64H174.607V21.6ZM182.12 21.84C179.528 21.84 177.416 19.984 177.416 16.368V13.856C177.416 10.272 179.528 8.4 182.12 8.4C184.712 8.4 186.84 10.272 186.84 13.856V16.368C186.84 19.984 184.712 21.84 182.12 21.84ZM182.12 20.4C183.864 20.4 185.224 19.088 185.224 16.288V13.952C185.224 11.152 183.864 9.84 182.12 9.84C180.376 9.84 179.016 11.152 179.016 13.952V16.288C179.016 19.088 180.376 20.4 182.12 20.4ZM189.97 21.84C189.362 21.84 188.866 21.36 188.866 20.752C188.866 20.144 189.362 19.648 189.97 19.648C190.578 19.648 191.058 20.144 191.058 20.752C191.058 21.36 190.578 21.84 189.97 21.84ZM197.92 21.6H196.32V10.752L193.376 13.104L192.464 11.904L196.56 8.64H197.92V21.6ZM205.593 13.088C207.897 13.088 209.945 14.768 209.945 17.472C209.945 20.176 207.897 21.84 205.321 21.84C202.697 21.84 200.729 20.224 200.729 17.328V14.096C200.729 10.064 202.921 8.4 205.177 8.4C207.369 8.4 208.825 9.392 209.689 11.2L208.361 11.904C207.673 10.544 206.809 9.824 205.241 9.824C203.529 9.824 202.201 11.152 202.217 14.16V14.784C202.921 13.664 204.233 13.088 205.593 13.088ZM205.321 20.416C207.001 20.416 208.361 19.312 208.361 17.44C208.361 15.584 207.001 14.496 205.321 14.496C203.657 14.496 202.313 15.584 202.313 17.44C202.313 19.312 203.657 20.416 205.321 20.416ZM212.267 15.12C212.267 11.824 213.531 8.944 215.803 6.56L216.859 7.536C214.747 9.92 213.787 12.464 213.787 15.12C213.787 17.76 214.747 20.32 216.859 22.704L215.803 23.68C213.531 21.296 212.267 18.416 212.267 15.12ZM224.834 15.552V14.448H228.962V7.616H230.562V16.032H228.962V15.552H224.834ZM222.722 12.128C220.434 12.128 218.722 11.36 218.722 10V9.904C218.722 8.528 220.434 7.792 222.722 7.792C224.978 7.792 226.706 8.528 226.706 9.904V10C226.706 11.36 224.978 12.128 222.722 12.128ZM220.242 9.92V9.968C220.242 10.544 221.25 10.896 222.722 10.896C224.178 10.896 225.186 10.544 225.186 9.968V9.92C225.186 9.36 224.178 9.008 222.722 9.008C221.25 9.008 220.242 9.36 220.242 9.92ZM221.762 14.112C221.33 14.128 220.93 14.128 220.546 14.128H218.05L217.986 12.944H220.674C222.498 12.944 225.41 12.784 227.762 12.496L227.906 13.648C226.514 13.84 224.866 13.968 223.314 14.048C223.266 14.736 223.218 15.472 223.138 16.176L221.586 16.08C221.666 15.44 221.714 14.752 221.762 14.112ZM222.146 20.208V21.28H231.106V22.544H220.594V18.976H229.01V17.968H220.514V16.72H230.562V20.208H222.146ZM237.366 15.12C237.366 18.416 236.102 21.296 233.83 23.68L232.774 22.704C234.886 20.32 235.846 17.76 235.846 15.12C235.846 12.464 234.886 9.92 232.774 7.536L233.83 6.56C236.102 8.944 237.366 11.824 237.366 15.12ZM243.791 15.856V14.368H248.991V15.856H243.791ZM259.888 21.6H258.288V10.752L255.344 13.104L254.432 11.904L258.528 8.64H259.888V21.6ZM267.401 21.84C264.809 21.84 262.697 19.984 262.697 16.368V13.856C262.697 10.272 264.809 8.4 267.401 8.4C269.993 8.4 272.121 10.272 272.121 13.856V16.368C272.121 19.984 269.993 21.84 267.401 21.84ZM267.401 20.4C269.145 20.4 270.505 19.088 270.505 16.288V13.952C270.505 11.152 269.145 9.84 267.401 9.84C265.657 9.84 264.297 11.152 264.297 13.952V16.288C264.297 19.088 265.657 20.4 267.401 20.4ZM275.252 21.84C274.644 21.84 274.148 21.36 274.148 20.752C274.148 20.144 274.644 19.648 275.252 19.648C275.86 19.648 276.34 20.144 276.34 20.752C276.34 21.36 275.86 21.84 275.252 21.84ZM287.121 21.6H278.353V20.352L283.105 15.632C284.561 14.192 285.233 13.184 285.233 11.984C285.233 10.688 284.305 9.84 282.657 9.84C281.057 9.84 280.241 11.008 279.809 12.432L278.289 12.064C278.817 10.16 280.225 8.4 282.657 8.4C285.153 8.4 286.817 9.744 286.817 11.92C286.817 13.68 285.873 14.96 284.321 16.496L280.657 20.128H287.121V21.6ZM293.995 21.84C291.403 21.84 289.291 19.984 289.291 16.368V13.856C289.291 10.272 291.403 8.4 293.995 8.4C296.587 8.4 298.715 10.272 298.715 13.856V16.368C298.715 19.984 296.587 21.84 293.995 21.84ZM293.995 20.4C295.739 20.4 297.099 19.088 297.099 16.288V13.952C297.099 11.152 295.739 9.84 293.995 9.84C292.251 9.84 290.891 11.152 290.891 13.952V16.288C290.891 19.088 292.251 20.4 293.995 20.4ZM301.189 15.12C301.189 11.824 302.453 8.944 304.725 6.56L305.781 7.536C303.669 9.92 302.709 12.464 302.709 15.12C302.709 17.76 303.669 20.32 305.781 22.704L304.725 23.68C302.453 21.296 301.189 18.416 301.189 15.12ZM318.284 13.488H320.716V14.896H306.764V13.488H316.684C316.956 11.984 317.1 10.4 317.116 9.536H308.476V8.08H318.7V9.024C318.7 10.304 318.556 11.936 318.284 13.488ZM319.02 22.48H308.476V16.688H319.02V22.48ZM317.42 18.064H310.076V21.072H317.42V18.064ZM326.288 15.12C326.288 18.416 325.024 21.296 322.752 23.68L321.696 22.704C323.808 20.32 324.768 17.76 324.768 15.12C324.768 12.464 323.808 9.92 321.696 7.536L322.752 6.56C325.024 8.944 326.288 11.824 326.288 15.12Z" fill="black"/>
<rect width="104" height="30" rx="15" fill="black"/>
<rect y="36" width="104" height="30" rx="15" fill="black"/>
<path d="M27.152 44.736H29.696V46.368H22.528V44.736H25.088V43.424H27.152V44.736ZM33.84 48.784H32.368V52.08H30.496V43.744H32.368V46.992H33.84V43.584H35.776V52.24H33.84V48.784ZM29.2 49.504V49.68C29.2 51.376 27.904 52.208 26.144 52.208C24.352 52.208 23.04 51.376 23.04 49.68V49.504C23.04 47.808 24.352 46.96 26.144 46.96C27.904 46.96 29.2 47.808 29.2 49.504ZM24.864 49.552V49.632C24.864 50.224 25.344 50.576 26.144 50.576C26.896 50.576 27.392 50.224 27.392 49.632V49.552C27.392 48.976 26.896 48.592 26.144 48.592C25.344 48.592 24.864 48.976 24.864 49.552ZM28.816 52.896H32.304C34.48 52.896 35.952 54 35.952 55.792C35.952 57.616 34.48 58.688 32.304 58.688H28.816C26.64 58.688 25.168 57.616 25.168 55.792C25.168 54 26.64 52.896 28.816 52.896ZM29.104 56.864H32.016C33.28 56.864 33.904 56.448 33.904 55.792C33.904 55.12 33.28 54.704 32.016 54.704H29.104C27.84 54.704 27.216 55.12 27.216 55.792C27.216 56.448 27.84 56.864 29.104 56.864ZM49.8279 48.992H51.9879V50.848H49.8279V58.528H47.7799V43.584H49.8279V48.992ZM42.9159 44.416V46.448C42.9159 47.664 42.7879 48.832 42.5159 49.952L46.5479 55.12L44.9959 56.384L41.7319 52.224C41.0599 53.728 40.0839 55.168 38.7879 56.528L37.3159 55.216C39.8599 52.512 40.9159 49.824 40.9159 46.448V44.416H42.9159ZM63.7998 58.528V43.584H65.8478V58.528H63.7998ZM59.1598 46.56H53.8638V44.688H61.2398V46.16C61.2398 50.416 58.9038 54.096 54.6798 56.832L53.4318 55.216C57.3838 52.736 59.1598 49.392 59.1598 46.56ZM80.1876 43.584V47.12H82.3476V48.976H80.1876V54.64H78.1396V43.584H80.1876ZM75.8036 44.384V45.392C75.8036 48.992 73.2756 51.328 69.0356 52.88L68.1556 51.104C71.6756 49.84 73.5156 48.016 73.7236 46.24H68.5876V44.384H75.8036ZM70.3476 53.632H72.3956V56.672H80.8756V58.528H70.3476V53.632Z" fill="white"/>
<path d="M128.384 95.64V98.888H134.56V100.344H120.608V98.888H126.8V95.64H126.432C123.76 95.64 122.048 93.816 122.048 91.496C122.048 89.192 123.76 87.384 126.432 87.384H128.752C131.424 87.384 133.136 89.192 133.136 91.496C133.136 93.816 131.424 95.64 128.752 95.64H128.384ZM123.632 91.512C123.632 93.08 124.8 94.216 126.72 94.216H128.464C130.384 94.216 131.552 93.08 131.552 91.512C131.552 89.944 130.384 88.824 128.464 88.824H126.72C124.8 88.824 123.632 89.944 123.632 91.512ZM146.9 101.464V86.616H148.5V101.464H146.9ZM143.508 89.176V97.32C144.212 97.256 144.932 97.16 145.604 97.064L145.78 98.488C143.444 98.856 140.692 99.064 138.436 99.064H136.132L136.052 97.592H137.86V89.176H136.26V87.704H145.108V89.176H143.508ZM141.94 97.464V89.176H139.428V97.576C140.196 97.56 141.044 97.528 141.94 97.464ZM163.32 95.88L157.64 92.04C156.632 93.416 154.936 94.712 152.408 95.88L151.672 94.504C155.592 92.632 157.208 90.712 157.208 88.52V87.384H158.808V88.52C158.808 89.256 158.68 89.976 158.392 90.68L164.184 94.552L163.32 95.88ZM150.952 100.344V98.888H164.904V100.344H150.952ZM177.516 101.464V86.616H179.068V101.464H177.516ZM171.932 92.04H174.3V86.84H175.82V101.16H174.3V93.496H171.932V92.04ZM170.396 89.24V90.04C170.396 91.128 170.284 92.168 170.076 93.176L173.436 98.392L172.172 99.272L169.516 95.144C168.988 96.632 168.188 98.04 167.164 99.432L165.948 98.488C167.9 95.896 168.924 93.352 168.924 90.04V89.24H166.476V87.784H172.94V89.24H170.396ZM182.928 94.424L182.352 93.048C185.936 91.784 187.568 90.328 187.568 88.728H183.152V87.32H193.392V88.728H189.168C189.168 89.32 189.056 89.864 188.8 90.392L194.192 93.08L193.488 94.424L187.952 91.64C186.96 92.696 185.312 93.624 182.928 94.424ZM181.296 95.848H195.248V97.304H189.072V101.64H187.488V97.304H181.296V95.848ZM212.277 92.2H214.565V93.656H212.277V101.464H210.677V86.616H212.277V92.2ZM205.349 87.48V89.416C205.349 90.664 205.205 91.864 204.917 93L209.141 98.28L207.941 99.288L204.325 94.76C203.637 96.408 202.597 97.944 201.157 99.448L200.021 98.392C202.597 95.704 203.781 92.968 203.781 89.416V87.48H205.349ZM226.953 101.464V86.616H228.521V101.464H226.953ZM221.737 90.2H223.737V86.84H225.257V101.16H223.737V96.264H221.225V94.856H223.737V91.608H221.561C221.001 94.712 219.401 97.384 217.017 99.688L215.849 98.536C218.729 95.88 220.217 92.552 220.217 89.416V89.24H216.201V87.784H221.785V89.096C221.785 89.464 221.769 89.832 221.737 90.2ZM241.853 89.832V86.616H243.453V94.632H241.853V91.208H238.941V89.832H241.853ZM239.261 94.552L235.229 91.944C234.461 93 233.277 93.928 231.629 94.792L230.893 93.496C233.469 92.104 234.685 90.664 234.685 88.728H231.485V87.32H239.485V88.728H236.237C236.237 89.416 236.125 90.056 235.901 90.664L240.061 93.24L239.261 94.552ZM243.453 101.464H233.629V95.576H243.453V101.464ZM241.853 96.984H235.213V100.024H241.853V96.984Z" fill="black"/>
<rect y="79" width="104" height="30" rx="15" fill="black"/>
<path d="M27.152 87.736H29.696V89.368H22.528V87.736H25.088V86.424H27.152V87.736ZM33.84 91.784H32.368V95.08H30.496V86.744H32.368V89.992H33.84V86.584H35.776V95.24H33.84V91.784ZM29.2 92.504V92.68C29.2 94.376 27.904 95.208 26.144 95.208C24.352 95.208 23.04 94.376 23.04 92.68V92.504C23.04 90.808 24.352 89.96 26.144 89.96C27.904 89.96 29.2 90.808 29.2 92.504ZM24.864 92.552V92.632C24.864 93.224 25.344 93.576 26.144 93.576C26.896 93.576 27.392 93.224 27.392 92.632V92.552C27.392 91.976 26.896 91.592 26.144 91.592C25.344 91.592 24.864 91.976 24.864 92.552ZM28.816 95.896H32.304C34.48 95.896 35.952 97 35.952 98.792C35.952 100.616 34.48 101.688 32.304 101.688H28.816C26.64 101.688 25.168 100.616 25.168 98.792C25.168 97 26.64 95.896 28.816 95.896ZM29.104 99.864H32.016C33.28 99.864 33.904 99.448 33.904 98.792C33.904 98.12 33.28 97.704 32.016 97.704H29.104C27.84 97.704 27.216 98.12 27.216 98.792C27.216 99.448 27.84 99.864 29.104 99.864ZM49.8279 91.992H51.9879V93.848H49.8279V101.528H47.7799V86.584H49.8279V91.992ZM42.9159 87.416V89.448C42.9159 90.664 42.7879 91.832 42.5159 92.952L46.5479 98.12L44.9959 99.384L41.7319 95.224C41.0599 96.728 40.0839 98.168 38.7879 99.528L37.3159 98.216C39.8599 95.512 40.9159 92.824 40.9159 89.448V87.416H42.9159ZM64.9998 86.6V89.512H67.1598V91.352H64.9998V94.728H62.9678V86.6H64.9998ZM60.7917 94.632L57.0158 92.28C56.2478 93.288 55.0798 94.152 53.4958 94.952L52.5518 93.304C55.0158 92.008 56.0718 90.664 56.1678 89.016H53.1278V87.224H61.2398V89.016H58.1518C58.1358 89.592 58.0398 90.136 57.8798 90.632L61.7998 92.952L60.7917 94.632ZM58.4558 95.384H61.7358C63.8638 95.384 65.3358 96.648 65.3358 98.536C65.3358 100.44 63.8638 101.688 61.7358 101.688H58.4558C56.3438 101.688 54.8558 100.44 54.8558 98.536C54.8558 96.648 56.3438 95.384 58.4558 95.384ZM58.7438 99.864H61.4318C62.6638 99.864 63.2878 99.32 63.2878 98.52C63.2878 97.736 62.6638 97.192 61.4318 97.192H58.7438C57.5278 97.192 56.9038 97.736 56.9038 98.52C56.9038 99.32 57.5278 99.864 58.7438 99.864ZM80.4436 95.816L74.7956 92.216C73.7396 93.528 72.0596 94.744 69.5956 95.816L68.6516 94.04C72.6996 92.2 74.1556 90.344 74.1556 88.376V87.272H76.2036V88.376C76.2036 89.112 76.0756 89.816 75.8036 90.504L81.5476 94.104L80.4436 95.816ZM76.1236 95.304V98.616H82.1396V100.488H68.0596V98.616H74.0756V95.304H76.1236Z" fill="white"/>
<path d="M122.32 127.32H132.864V133.736H122.32V127.32ZM123.92 132.328H131.264V128.712H123.92V132.328ZM120.608 135.848H134.56V137.304H128.384V141.64H126.8V137.304H120.608V135.848ZM137.492 130.984H146.436V129.048H137.412V127.608H148.036V132.392H139.092V134.392H148.34V135.8H137.492V130.984ZM146.02 136.664V138.888H149.732V140.36H135.78V138.888H139.508V136.664H141.06V138.888H144.468V136.664H146.02Z" fill="black"/>
<rect y="119" width="104" height="30" rx="15" fill="black"/>
<path d="M48.456 141.528V126.584H50.504V141.528H48.456ZM40.216 131.416H43.832V127.448H45.848V139.16H38.2V127.448H40.216V131.416ZM40.216 133.256V137.32H43.832V133.256H40.216ZM63.1639 131.976V133.416H66.7959V135.144H52.7159V133.416H56.3479V131.976C55.0679 131.576 54.2839 130.728 54.2839 129.464C54.2839 127.608 55.9959 126.712 58.4599 126.712H61.0679C63.5159 126.712 65.2439 127.608 65.2439 129.464C65.2439 130.744 64.4439 131.576 63.1639 131.976ZM56.3159 129.48C56.3159 130.216 57.2279 130.584 58.8439 130.584H60.6839C62.2839 130.584 63.1959 130.216 63.1959 129.48C63.1959 128.76 62.2839 128.408 60.6839 128.408H58.8439C57.2279 128.408 56.3159 128.76 56.3159 129.48ZM58.2679 132.264V133.416H61.2439V132.264H58.2679ZM57.9799 136.152H61.5319C63.9319 136.152 65.3239 137.336 65.3239 138.92C65.3239 140.52 63.9319 141.688 61.5319 141.688H57.9799C55.5959 141.688 54.2039 140.52 54.2039 138.92C54.2039 137.336 55.5959 136.152 57.9799 136.152ZM58.3639 139.912H61.1639C62.6519 139.912 63.2759 139.528 63.2759 138.904C63.2759 138.28 62.6519 137.912 61.1639 137.912H58.3639C56.8759 137.912 56.2359 138.28 56.2359 138.904C56.2359 139.528 56.8759 139.912 58.3639 139.912Z" fill="white"/>
<path d="M30.608 16.528V19.616H36.624V21.488H22.544V19.616H28.56V16.528H24.192V8.512H34.992V16.528H30.608ZM32.944 10.352H26.224V14.704H32.944V10.352ZM48.6279 15.344V7.584H50.6759V15.344H48.6279ZM46.4519 15.392L42.4199 13.12C41.6199 14.096 40.4039 14.944 38.7239 15.712L37.8119 14.032C40.3719 12.816 41.4759 11.568 41.5879 10.016H38.4039V8.224H46.8199V10.016H43.6039C43.5719 10.544 43.4919 11.04 43.3319 11.504L47.3959 13.664L46.4519 15.392ZM42.5639 17.472H48.6279V16H50.6759V22.528H40.5159V16H42.5639V17.472ZM42.5639 19.248V20.72H48.6279V19.248H42.5639ZM63.7998 22.528V7.584H65.8478V22.528H63.7998ZM59.1598 10.56H53.8638V8.688H61.2398V10.16C61.2398 14.416 58.9038 18.096 54.6798 20.832L53.4318 19.216C57.3838 16.736 59.1598 13.392 59.1598 10.56ZM80.1876 7.584V11.12H82.3476V12.976H80.1876V18.64H78.1396V7.584H80.1876ZM75.8036 8.384V9.392C75.8036 12.992 73.2756 15.328 69.0356 16.88L68.1556 15.104C71.6756 13.84 73.5156 12.016 73.7236 10.24H68.5876V8.384H75.8036ZM70.3476 17.632H72.3956V20.672H80.8756V22.528H70.3476V17.632Z" fill="white"/>
</svg>
