<svg width="990" height="379" viewBox="0 0 990 379" fill="none" xmlns="http://www.w3.org/2000/svg">
<rect x="420" y="88" width="570" height="40" fill="#F5F5F5"/>
<path d="M420 248H990V293H420V248Z" fill="#F5F5F5"/>
<rect x="420" y="334" width="570" height="41" fill="#F5F5F5"/>
<rect y="2" width="990" height="44" fill="#02FF99"/>
<rect y="46" width="172" height="332" fill="#02FF99"/>
<path d="M0 2L990 1.99991" stroke="black" stroke-width="3"/>
<path d="M0 46H990" stroke="#ACACAC"/>
<path d="M172 169L990 169" stroke="#ACACAC"/>
<path d="M172 251L990 251" stroke="#ACACAC"/>
<path d="M172 294L990 294" stroke="#ACACAC"/>
<path d="M0 128H990" stroke="#ACACAC"/>
<path d="M420 88L990 87" stroke="#ACACAC"/>
<path d="M0 210H990" stroke="#ACACAC"/>
<path d="M0 294H172" stroke="#ACACAC"/>
<path d="M172 334L990 334" stroke="#ACACAC"/>
<path d="M172 2V376" stroke="#ACACAC"/>
<path d="M420 2L420 376" stroke="#ACACAC"/>
<path d="M68.8571 81.592C72.2171 81.592 74.6971 83.688 74.6971 87.272V88.952C74.6971 92.568 72.2171 94.648 68.8571 94.648H64.1371V81.592H68.8571ZM72.6331 88.872V87.352C72.6331 84.76 71.0651 83.464 68.8571 83.464H66.2011V92.76H68.8571C71.0651 92.76 72.6331 91.496 72.6331 88.872ZM87.256 94.648H85.144L83.768 90.792H78.792L77.416 94.648H75.304L79.992 81.592H82.552L87.256 94.648ZM81.288 83.768L79.448 88.936H83.112L81.288 83.768ZM94.7926 81.592H97.0966L92.4406 89.576V94.648H90.3766V89.64L85.7046 81.592H88.0086L91.4006 87.672L94.7926 81.592ZM107.397 94.648H105.333V84.296L102.661 86.392L101.509 84.872L105.701 81.592H107.397V94.648Z" fill="black"/>
<path d="M256.437 93.4H255.037V83.908L252.461 85.966L251.663 84.916L255.247 82.06H256.437V93.4ZM265.699 89.872H267.449V91.16H265.699V93.61H264.313V91.16H258.615V90.012L263.823 82.06H265.699V89.872ZM264.313 83.656L260.295 89.872H264.313V83.656ZM270.051 85.308C269.519 85.308 269.085 84.874 269.085 84.342C269.085 83.81 269.519 83.39 270.051 83.39C270.583 83.39 271.003 83.81 271.003 84.342C271.003 84.874 270.583 85.308 270.051 85.308ZM270.051 92.07C269.519 92.07 269.085 91.636 269.085 91.104C269.085 90.572 269.519 90.152 270.051 90.152C270.583 90.152 271.003 90.572 271.003 91.104C271.003 91.636 270.583 92.07 270.051 92.07ZM277.189 93.61C274.921 93.61 273.073 91.986 273.073 88.822V86.624C273.073 83.488 274.921 81.85 277.189 81.85C279.457 81.85 281.319 83.488 281.319 86.624V88.822C281.319 91.986 279.457 93.61 277.189 93.61ZM277.189 92.35C278.715 92.35 279.905 91.202 279.905 88.752V86.708C279.905 84.258 278.715 83.11 277.189 83.11C275.663 83.11 274.473 84.258 274.473 86.708V88.752C274.473 91.202 275.663 92.35 277.189 92.35ZM287.32 93.61C285.052 93.61 283.204 91.986 283.204 88.822V86.624C283.204 83.488 285.052 81.85 287.32 81.85C289.588 81.85 291.45 83.488 291.45 86.624V88.822C291.45 91.986 289.588 93.61 287.32 93.61ZM287.32 92.35C288.846 92.35 290.036 91.202 290.036 88.752V86.708C290.036 84.258 288.846 83.11 287.32 83.11C285.794 83.11 284.604 84.258 284.604 86.708V88.752C284.604 91.202 285.794 92.35 287.32 92.35ZM293.335 88.374V87.072H297.885V88.374H293.335ZM303.988 93.4H302.588V83.908L300.012 85.966L299.214 84.916L302.798 82.06H303.988V93.4ZM310.702 85.952C312.718 85.952 314.51 87.422 314.51 89.788C314.51 92.154 312.718 93.61 310.464 93.61C308.168 93.61 306.446 92.196 306.446 89.662V86.834C306.446 83.306 308.364 81.85 310.338 81.85C312.256 81.85 313.53 82.718 314.286 84.3L313.124 84.916C312.522 83.726 311.766 83.096 310.394 83.096C308.896 83.096 307.734 84.258 307.748 86.89V87.436C308.364 86.456 309.512 85.952 310.702 85.952ZM310.464 92.364C311.934 92.364 313.124 91.398 313.124 89.76C313.124 88.136 311.934 87.184 310.464 87.184C309.008 87.184 307.832 88.136 307.832 89.76C307.832 91.398 309.008 92.364 310.464 92.364ZM317.397 85.308C316.865 85.308 316.431 84.874 316.431 84.342C316.431 83.81 316.865 83.39 317.397 83.39C317.929 83.39 318.349 83.81 318.349 84.342C318.349 84.874 317.929 85.308 317.397 85.308ZM317.397 92.07C316.865 92.07 316.431 91.636 316.431 91.104C316.431 90.572 316.865 90.152 317.397 90.152C317.929 90.152 318.349 90.572 318.349 91.104C318.349 91.636 317.929 92.07 317.397 92.07ZM324.535 93.61C322.267 93.61 320.419 91.986 320.419 88.822V86.624C320.419 83.488 322.267 81.85 324.535 81.85C326.803 81.85 328.665 83.488 328.665 86.624V88.822C328.665 91.986 326.803 93.61 324.535 93.61ZM324.535 92.35C326.061 92.35 327.251 91.202 327.251 88.752V86.708C327.251 84.258 326.061 83.11 324.535 83.11C323.009 83.11 321.819 84.258 321.819 86.708V88.752C321.819 91.202 323.009 92.35 324.535 92.35ZM334.666 93.61C332.398 93.61 330.55 91.986 330.55 88.822V86.624C330.55 83.488 332.398 81.85 334.666 81.85C336.934 81.85 338.796 83.488 338.796 86.624V88.822C338.796 91.986 336.934 93.61 334.666 93.61ZM334.666 92.35C336.192 92.35 337.382 91.202 337.382 88.752V86.708C337.382 84.258 336.192 83.11 334.666 83.11C333.14 83.11 331.95 84.258 331.95 86.708V88.752C331.95 91.202 333.14 92.35 334.666 92.35Z" fill="black"/>
<path d="M652.432 67.752V71.14H657.976V72.064H645.88V71.14H651.438V67.752H647.448V61.13H648.442V66.842H656.52V67.752H652.432ZM670.075 69.992H669.081V65.582H666.295V64.728H669.081V63.02H666.295V62.152H669.081V60.178H670.075V69.992ZM667.023 67.108L666.435 67.864L662.907 64.882C662.291 66.044 661.283 67.094 659.869 68.06L659.309 67.29C661.521 65.736 662.683 64.014 662.683 61.732V60.71H663.663V61.732C663.663 62.53 663.537 63.272 663.299 63.972L667.023 67.108ZM662.767 69.166V72.176H670.677V73.1H661.773V69.166H662.767ZM685.761 73.1V60.178H686.755V73.1H685.761ZM681.813 62.194H676.717V61.284H682.821V62.278C682.821 65.932 680.637 69.124 677.109 71.462L676.521 70.678C679.797 68.55 681.813 65.498 681.813 62.474V62.194ZM695.662 65.946V67.598H701.206V68.522H689.11V67.598H694.668V65.946H690.804V60.43H691.798V62.348H698.518V60.43H699.526V65.946H695.662ZM698.518 63.216H691.798V65.064H698.518V63.216ZM690.804 69.614H691.798V72.176H699.862V73.1H690.804V69.614ZM710.046 61.242H713.252V62.04H705.818V61.242H709.038V60.01H710.046V61.242ZM716.108 60.178V63.874H718.124V64.798H716.108V67.444H715.114V60.178H716.108ZM713.896 66.254L713.994 67.052C712.104 67.304 709.612 67.472 707.764 67.472H705.636L705.594 66.646H707.82C708.198 66.646 708.632 66.632 709.108 66.618V65.764C707.568 65.68 706.448 65.19 706.448 64.238V64.126C706.448 63.076 707.792 62.572 709.556 62.572C711.292 62.572 712.636 63.076 712.636 64.126V64.238C712.636 65.162 711.572 65.666 710.116 65.764V66.576C711.362 66.52 712.72 66.408 713.896 66.254ZM707.428 64.154V64.224C707.428 64.7 708.352 65.008 709.556 65.008C710.746 65.008 711.656 64.7 711.656 64.224V64.154C711.656 63.678 710.746 63.342 709.556 63.342C708.352 63.342 707.428 63.678 707.428 64.154ZM716.108 71.14H708.926V72.33H716.654V73.156H707.946V70.328H715.128V69.18H707.876V68.368H716.108V71.14ZM727.662 64.84V66.436H731.162V67.318H719.066V66.436H722.58V64.84C721.306 64.518 720.564 63.804 720.564 62.684C720.564 61.13 721.978 60.36 724.218 60.36H726.024C728.264 60.36 729.678 61.13 729.678 62.684C729.678 63.804 728.936 64.518 727.662 64.84ZM721.558 62.684C721.558 63.636 722.552 64.154 724.386 64.154H725.856C727.676 64.154 728.67 63.608 728.67 62.684C728.67 61.746 727.676 61.242 725.856 61.242H724.386C722.552 61.242 721.558 61.746 721.558 62.684ZM723.546 64.98V66.436H726.696V64.98C726.486 65.022 723.756 65.022 723.546 64.98ZM723.7 68.634H726.528C728.642 68.634 729.748 69.614 729.748 70.93C729.748 72.26 728.642 73.24 726.528 73.24H723.7C721.6 73.24 720.494 72.26 720.494 70.93C720.494 69.614 721.6 68.634 723.7 68.634ZM723.924 72.344H726.304C727.956 72.344 728.74 71.784 728.74 70.93C728.74 70.076 727.956 69.53 726.304 69.53H723.924C722.272 69.53 721.488 70.076 721.488 70.93C721.488 71.784 722.272 72.344 723.924 72.344ZM745.951 60.192V63.076H748.093V63.986H745.951V67.318H744.943V60.192H745.951ZM741.121 60.808H742.101V66.66H736.053V60.808H737.033V62.782H741.121V60.808ZM737.033 63.678V65.764H741.121V63.678H737.033ZM740.645 68.102H743.249C745.139 68.102 746.273 69.208 746.273 70.664C746.273 72.12 745.139 73.226 743.249 73.226H740.645C738.755 73.226 737.621 72.12 737.621 70.664C737.621 69.208 738.755 68.102 740.645 68.102ZM740.841 72.33H743.053C744.537 72.33 745.251 71.616 745.251 70.664C745.251 69.726 744.537 68.998 743.053 68.998H740.841C739.357 68.998 738.629 69.726 738.629 70.664C738.629 71.616 739.357 72.33 740.841 72.33ZM758.947 63.076V60.178H759.941V66.996H758.947V63.986H755.895V66.464H749.721V60.808H750.687V62.684H754.929V60.808H755.895V63.076H758.947ZM750.687 63.58V65.554H754.929V63.58H750.687ZM752.633 69.46H758.947V67.752H759.941V73.1H751.639V67.752H752.633V69.46ZM752.633 70.342V72.19H758.947V70.342H752.633Z" fill="black"/>
<path d="M570.967 105.4L566.067 103.174C565.227 104.042 563.827 104.784 561.769 105.4L561.447 104.532C564.443 103.622 565.983 102.418 565.983 101.018V100.36H566.963V101.018C566.963 101.508 566.851 101.97 566.627 102.404L571.359 104.574L570.967 105.4ZM572.451 106.394V107.276H566.907V109.04H570.897V113.24H569.889V109.95H561.923V109.04H565.913V107.276H560.355V106.394H572.451ZM584.438 108.06L579.398 104.616C578.572 105.862 577.074 107.01 574.82 108.06L574.358 107.192C577.676 105.624 579.244 103.944 579.244 101.942V100.92H580.238V101.942C580.238 102.572 580.112 103.174 579.86 103.762L584.998 107.234L584.438 108.06ZM580.182 107.696V111.14H585.726V112.05H573.63V111.14H579.188V107.696H580.182ZM600.404 113.1V100.178H601.384V113.1H600.404ZM593.866 103.3V103.496C593.866 104.406 593.768 105.26 593.586 106.086L596.666 110.566L595.868 111.154L593.236 107.29C592.76 108.662 591.99 109.964 590.912 111.308L590.17 110.692C591.962 108.424 592.9 106.31 592.9 103.496V103.3H590.562V102.39H592.9V100.192H593.88V102.39H596.26V103.3H593.866ZM595.336 105.372H597.618V100.388H598.584V112.862H597.618V106.282H595.336V105.372ZM613.007 104.868C613.091 104 613.133 103.216 613.133 102.642V102.18H605.083V101.27H614.127V102.418C614.127 104.35 613.805 107.136 613.371 109.46L612.391 109.278C612.601 108.172 612.783 106.94 612.909 105.792C610.949 106.002 607.883 106.114 605.965 106.114H605.055L605.013 105.204H606.021C607.743 105.204 610.977 105.078 613.007 104.868ZM603.585 112.064V111.14H615.681V112.064H603.585ZM627.794 109.992H626.786V100.178H627.794V109.992ZM620.794 107.668C618.932 107.668 617.42 106.576 617.42 104.294V104C617.42 101.704 618.932 100.598 620.794 100.598C622.628 100.598 624.14 101.704 624.14 104V104.294C624.14 106.576 622.628 107.668 620.794 107.668ZM620.794 106.772C622.138 106.772 623.146 105.932 623.146 104.28V104C623.146 102.348 622.138 101.494 620.794 101.494C619.436 101.494 618.428 102.348 618.428 104V104.28C618.428 105.932 619.436 106.772 620.794 106.772ZM628.396 113.1H619.478V108.97H620.486V112.176H628.396V113.1ZM630.864 106.73C630.864 103.818 631.942 101.368 633.874 99.282L634.56 99.898C632.698 101.984 631.844 104.28 631.844 106.73C631.844 109.18 632.698 111.476 634.56 113.562L633.874 114.178C631.942 112.092 630.864 109.642 630.864 106.73ZM642.061 107.962V111.14H647.605V112.05H635.509V111.14H641.067V107.962H640.647C638.281 107.962 636.825 106.408 636.825 104.434C636.825 102.46 638.281 100.92 640.647 100.92H642.481C644.833 100.92 646.303 102.46 646.303 104.434C646.303 106.408 644.833 107.962 642.481 107.962H642.061ZM637.833 104.434C637.833 105.918 638.911 107.052 640.801 107.052H642.313C644.203 107.052 645.295 105.904 645.295 104.434C645.295 102.95 644.203 101.844 642.313 101.844H640.801C638.911 101.844 637.833 102.95 637.833 104.434ZM658.696 113.1V100.178H659.69V113.1H658.696ZM655.322 102.138V109.824C656.036 109.754 656.75 109.656 657.422 109.558L657.534 110.468C655.532 110.776 653.124 110.958 651.164 110.958H649.12L649.064 110.034H650.8V102.138H649.232V101.214H656.89V102.138H655.322ZM654.328 109.908V102.138H651.78V110.034C652.536 110.02 653.418 109.978 654.328 109.908ZM672.868 108.186L667.842 104.672C667.002 105.932 665.518 107.108 663.25 108.186L662.788 107.332C666.106 105.722 667.674 104 667.674 101.956V100.92H668.668V101.956C668.668 102.6 668.542 103.216 668.29 103.818L673.428 107.374L672.868 108.186ZM662.06 112.05V111.14H674.156V112.05H662.06ZM685.429 113.1V100.178H686.409V113.1H685.429ZM680.361 105.106H682.643V100.388H683.609V112.862H682.643V106.016H680.361V105.106ZM678.891 102.194V103.048C678.891 104.07 678.793 105.036 678.583 105.946L681.677 110.58L680.879 111.154L678.233 107.192C677.743 108.606 676.987 109.95 675.965 111.308L675.195 110.692C676.959 108.382 677.939 106.156 677.939 103.048V102.194H675.643V101.284H681.229V102.194H678.891ZM689.983 106.94L689.619 106.072C692.685 104.924 694.239 103.566 694.239 101.984V101.774H690.305V100.864H699.027V101.774H695.247V101.984C695.247 102.516 695.135 103.02 694.897 103.496L699.685 106.086L699.237 106.94L694.393 104.28C693.567 105.274 692.125 106.156 689.983 106.94ZM688.611 108.368H700.707V109.278H695.163V113.254H694.169V109.278H688.611V108.368ZM716.21 113.1H715.202V100.178H716.21V113.1ZM709.168 111.378C707.348 111.378 705.85 110.16 705.85 107.094V105.162C705.85 102.096 707.348 100.878 709.168 100.878C710.988 100.878 712.486 102.096 712.486 105.162V107.094C712.486 110.16 710.988 111.378 709.168 111.378ZM709.168 110.454C710.498 110.454 711.492 109.488 711.492 107.08V105.162C711.492 102.754 710.498 101.802 709.168 101.802C707.838 101.802 706.858 102.754 706.858 105.162V107.08C706.858 109.488 707.838 110.454 709.168 110.454ZM727.162 104.84V106.436H730.662V107.318H718.566V106.436H722.08V104.84C720.806 104.518 720.064 103.804 720.064 102.684C720.064 101.13 721.478 100.36 723.718 100.36H725.524C727.764 100.36 729.178 101.13 729.178 102.684C729.178 103.804 728.436 104.518 727.162 104.84ZM721.058 102.684C721.058 103.636 722.052 104.154 723.886 104.154H725.356C727.176 104.154 728.17 103.608 728.17 102.684C728.17 101.746 727.176 101.242 725.356 101.242H723.886C722.052 101.242 721.058 101.746 721.058 102.684ZM723.046 104.98V106.436H726.196V104.98C725.986 105.022 723.256 105.022 723.046 104.98ZM723.2 108.634H726.028C728.142 108.634 729.248 109.614 729.248 110.93C729.248 112.26 728.142 113.24 726.028 113.24H723.2C721.1 113.24 719.994 112.26 719.994 110.93C719.994 109.614 721.1 108.634 723.2 108.634ZM723.424 112.344H725.804C727.456 112.344 728.24 111.784 728.24 110.93C728.24 110.076 727.456 109.53 725.804 109.53H723.424C721.772 109.53 720.988 110.076 720.988 110.93C720.988 111.784 721.772 112.344 723.424 112.344ZM742.033 105.232H744.175V106.156H742.033V113.1H741.025V100.178H742.033V105.232ZM735.957 100.976V102.6C735.957 103.72 735.817 104.77 735.551 105.778L739.415 110.524L738.673 111.168L735.187 106.884C734.585 108.438 733.605 109.894 732.233 111.308L731.533 110.636C733.815 108.298 734.977 105.834 734.977 102.6V100.976H735.957ZM749.428 101.494H752.676V102.348H745.186V101.494H748.434V100.01H749.428V101.494ZM755.308 100.178V103.468H757.464V104.392H755.308V107.668H754.314V100.178H755.308ZM752.074 105.246V105.442C752.074 106.828 750.702 107.57 748.952 107.57C747.202 107.57 745.816 106.828 745.816 105.442V105.246C745.816 103.874 747.202 103.132 748.952 103.132C750.702 103.132 752.074 103.874 752.074 105.246ZM746.81 105.288V105.428C746.81 106.24 747.748 106.73 748.952 106.73C750.142 106.73 751.094 106.24 751.094 105.428V105.288C751.094 104.49 750.142 103.972 748.952 103.972C747.748 103.972 746.81 104.49 746.81 105.288ZM750.016 108.438H752.62C754.51 108.438 755.63 109.46 755.63 110.846C755.63 112.232 754.51 113.226 752.62 113.226H750.016C748.126 113.226 746.992 112.232 746.992 110.846C746.992 109.46 748.126 108.438 750.016 108.438ZM750.198 112.33H752.424C753.908 112.33 754.622 111.714 754.622 110.832C754.622 109.964 753.908 109.348 752.424 109.348H750.198C748.728 109.348 748 109.964 748 110.832C748 111.714 748.728 112.33 750.198 112.33ZM768.348 107.962V111.14H773.892V112.05H761.796V111.14H767.354V107.962H766.934C764.568 107.962 763.112 106.408 763.112 104.434C763.112 102.46 764.568 100.92 766.934 100.92H768.768C771.12 100.92 772.59 102.46 772.59 104.434C772.59 106.408 771.12 107.962 768.768 107.962H768.348ZM764.12 104.434C764.12 105.918 765.198 107.052 767.088 107.052H768.6C770.49 107.052 771.582 105.904 771.582 104.434C771.582 102.95 770.49 101.844 768.6 101.844H767.088C765.198 101.844 764.12 102.95 764.12 104.434ZM785.991 113.1H784.997V100.178H785.991V113.1ZM778.025 111.224H775.841V105.694H780.853V102.124H775.841V101.214H781.861V106.604H776.835V110.314H778.193C779.775 110.314 781.819 110.132 783.443 109.88L783.569 110.748C782.043 111.042 779.929 111.224 778.025 111.224ZM798.483 100.178H799.449V109.992H798.483V100.178ZM795.753 104.392H794.017C793.989 106.59 792.827 107.668 791.329 107.668C789.775 107.668 788.613 106.562 788.613 104.294V104C788.613 101.704 789.775 100.598 791.329 100.598C792.729 100.598 793.835 101.536 793.989 103.482H795.753V100.318H796.705V109.572H795.753V104.392ZM789.551 104.014V104.28C789.551 105.904 790.307 106.772 791.329 106.772C792.323 106.772 793.065 105.904 793.065 104.28V104.014C793.065 102.362 792.323 101.494 791.329 101.494C790.307 101.494 789.551 102.362 789.551 104.014ZM791.959 109.166V112.176H800.051V113.1H790.965V109.166H791.959ZM811.73 113.1V100.178H812.71V113.1H811.73ZM807.194 105.372H808.944V100.388H809.91V112.862H808.944V106.282H807.194V105.372ZM803.008 110.314H803.876C805.234 110.314 806.354 110.216 807.67 110.006L807.782 110.888C806.55 111.098 805.388 111.224 803.68 111.224H802.014V101.214H806.802V102.124H803.008V105.694H806.662V106.604H803.008V110.314ZM825.818 113.1H824.81V100.178H825.818V113.1ZM818.776 111.378C816.956 111.378 815.458 110.16 815.458 107.094V105.162C815.458 102.096 816.956 100.878 818.776 100.878C820.596 100.878 822.094 102.096 822.094 105.162V107.094C822.094 110.16 820.596 111.378 818.776 111.378ZM818.776 110.454C820.106 110.454 821.1 109.488 821.1 107.08V105.162C821.1 102.754 820.106 101.802 818.776 101.802C817.446 101.802 816.466 102.754 816.466 105.162V107.08C816.466 109.488 817.446 110.454 818.776 110.454ZM839.093 109.992H838.099V105.582H835.313V104.728H838.099V103.02H835.313V102.152H838.099V100.178H839.093V109.992ZM836.041 107.108L835.453 107.864L831.925 104.882C831.309 106.044 830.301 107.094 828.887 108.06L828.327 107.29C830.539 105.736 831.701 104.014 831.701 101.732V100.71H832.681V101.732C832.681 102.53 832.555 103.272 832.317 103.972L836.041 107.108ZM831.785 109.166V112.176H839.695V113.1H830.791V109.166H831.785ZM844.92 106.73C844.92 109.642 843.842 112.092 841.91 114.178L841.224 113.562C843.086 111.476 843.94 109.18 843.94 106.73C843.94 104.28 843.086 101.984 841.224 99.898L841.91 99.282C843.842 101.368 844.92 103.818 844.92 106.73Z" fill="black"/>
<path d="M646.327 146.372H648.343V147.282H646.327V154.1H645.333V141.178H646.327V146.372ZM640.265 142.83H643.471V143.684H636.037V142.83H639.257V141.192H640.265V142.83ZM640.335 149.634V151.398C641.581 151.328 642.939 151.216 644.101 151.062L644.213 151.944C642.323 152.196 639.831 152.378 637.983 152.378H635.855L635.813 151.468H638.039C638.417 151.468 638.851 151.454 639.327 151.44V149.648C637.787 149.508 636.667 148.654 636.667 147.254V147.016C636.667 145.462 638.011 144.608 639.775 144.608C641.511 144.608 642.855 145.462 642.855 147.016V147.254C642.855 148.626 641.791 149.466 640.335 149.634ZM637.647 147.044V147.24C637.647 148.22 638.571 148.822 639.775 148.822C640.965 148.822 641.875 148.22 641.875 147.24V147.044C641.875 146.064 640.965 145.448 639.775 145.448C638.571 145.448 637.647 146.064 637.647 147.044ZM659.854 146.792L654.996 144.342C654.17 145.28 652.77 146.092 650.712 146.792L650.362 145.91C653.372 144.888 654.912 143.6 654.912 142.088V141.36H655.892V142.088C655.892 142.606 655.78 143.096 655.542 143.558L660.288 145.952L659.854 146.792ZM649.284 148.976V148.052H661.38V148.976H655.836V151.608H654.842V148.976H649.284ZM650.922 150.348H651.93V153.176H660.036V154.1H650.922V150.348ZM672.472 145.98L671.506 145.84C671.772 144.552 671.912 143.194 671.912 142.55H664.184V141.64H672.906V142.284C672.906 143.278 672.766 144.636 672.472 145.98ZM668.636 144.286V146.82H674.656V147.716H662.56V146.82H667.642V144.286H668.636ZM669.196 150.292V150.362C669.196 150.768 669.084 151.146 668.874 151.496L673.718 153.386L673.382 154.24L668.258 152.224C667.334 153.064 665.766 153.722 663.82 154.24L663.526 153.386C666.2 152.644 668.188 151.622 668.188 150.362V150.292H664.128V149.41H673.102V150.292H669.196ZM686.027 146.232H688.169V147.156H686.027V154.1H685.033V141.178H686.027V146.232ZM680.007 143.194V143.936C680.007 144.972 679.881 145.938 679.629 146.862L683.451 151.496L682.681 152.168L679.251 147.982C678.635 149.494 677.669 150.894 676.353 152.308L675.625 151.636C677.753 149.34 679.027 147.128 679.027 143.936V143.194H676.129V142.284H682.933V143.194H680.007ZM699.428 141.178V144.482H701.444V145.392H699.428V147.912H698.434V141.178H699.428ZM697.202 146.498L697.314 147.338C695.424 147.604 692.932 147.758 691.084 147.758H688.956L688.914 146.89H691.14C691.504 146.89 691.91 146.876 692.358 146.862V145.588C690.72 145.476 689.502 144.79 689.502 143.6V143.474C689.502 142.158 690.958 141.472 692.82 141.472C694.668 141.472 696.138 142.158 696.138 143.474V143.6C696.138 144.776 694.948 145.448 693.366 145.574V146.82C694.626 146.764 696.012 146.652 697.202 146.498ZM690.482 143.502V143.586C690.482 144.286 691.448 144.748 692.82 144.748C694.192 144.748 695.144 144.286 695.144 143.586V143.502C695.144 142.774 694.192 142.326 692.82 142.326C691.448 142.326 690.482 142.774 690.482 143.502ZM699.428 151.888H692.26V153.302H699.974V154.17H691.266V151.048H698.434V149.676H691.196V148.822H699.428V151.888ZM715.982 146.232H718.124V147.156H715.982V154.1H714.974V141.178H715.982V146.232ZM709.906 141.976V143.6C709.906 144.72 709.766 145.77 709.5 146.778L713.364 151.524L712.622 152.168L709.136 147.884C708.534 149.438 707.554 150.894 706.182 152.308L705.482 151.636C707.764 149.298 708.926 146.834 708.926 143.6V141.976H709.906ZM726.01 146.596H724.218C721.978 146.596 720.564 145.644 720.564 143.978C720.564 142.312 721.978 141.36 724.218 141.36H726.01C728.264 141.36 729.678 142.312 729.678 143.978C729.678 145.644 728.264 146.596 726.01 146.596ZM725.856 142.242H724.386C722.566 142.242 721.558 142.914 721.558 143.978C721.558 145.042 722.566 145.714 724.386 145.714H725.856C727.662 145.714 728.67 145.028 728.67 143.978C728.67 142.914 727.662 142.242 725.856 142.242ZM719.066 149.046V148.122H731.162V149.046H725.618V151.608H724.624V149.046H719.066ZM720.69 150.348H721.698V153.176H729.818V154.1H720.69V150.348ZM733.909 142.13H742.757V143.054H734.903V147.982H742.883V148.892H733.909V142.13ZM744.437 153.064H732.341V152.14H744.437V153.064ZM755.528 151.44V141.192H756.522V154.1H755.528V152.35H751.594V151.44H755.528ZM749.858 147.548C747.982 147.548 746.47 146.624 746.47 144.762V144.524C746.47 142.662 747.982 141.738 749.858 141.738C751.72 141.738 753.232 142.662 753.232 144.524V144.762C753.232 146.624 751.72 147.548 749.858 147.548ZM747.478 144.552V144.734C747.478 145.98 748.472 146.652 749.858 146.652C751.23 146.652 752.224 145.98 752.224 144.734V144.552C752.224 143.306 751.23 142.634 749.858 142.634C748.472 142.634 747.478 143.306 747.478 144.552ZM754.296 148.654L754.408 149.536C753.148 149.718 751.636 149.858 750.208 149.928C750.11 151.286 749.97 152.714 749.788 154.212L748.794 154.1C748.976 152.63 749.116 151.3 749.214 149.97C748.794 149.984 748.402 149.984 748.024 149.984H745.784L745.728 149.06H748.08C749.676 149.06 752.266 148.906 754.296 148.654ZM768.818 141.192H769.812V148.248H768.818V141.192ZM766.074 141.878V142.564C766.074 145.434 763.708 147.338 759.928 148.444L759.62 147.632C761.65 147.044 763.246 146.162 764.184 145.098C762.882 145.224 761.104 145.308 759.844 145.308H759.564L759.522 144.468H759.802C761.062 144.468 763.4 144.37 764.772 144.23C765.01 143.768 765.136 143.278 765.136 142.774V142.76H759.788V141.878H766.074ZM764.254 149.032H766.984C768.874 149.032 769.994 150.18 769.994 151.636C769.994 153.106 768.874 154.226 766.984 154.226H764.254C762.364 154.226 761.244 153.106 761.244 151.636C761.244 150.18 762.364 149.032 764.254 149.032ZM764.464 153.33H766.774C768.272 153.33 769 152.602 769 151.622C769 150.684 768.272 149.928 766.774 149.928H764.464C762.966 149.928 762.238 150.684 762.238 151.622C762.238 152.602 762.966 153.33 764.464 153.33Z" fill="black"/>
<path d="M582.106 184.102V185.012H576.408V189.1H581.56V190.01H576.408V195.358H575.386V184.102H582.106ZM584.775 189.982V194.448H590.753V195.358H583.753V184.102H590.613V185.012H584.775V189.072H590.347V189.982H584.775ZM602.175 188.232V183.178H603.155V196.1H602.175V189.156H600.173V195.862H599.193V183.388H600.173V188.232H602.175ZM596.449 185.194H592.627V184.284H597.443V185.278C597.443 188.932 595.721 192.04 593.103 194.462L592.389 193.734C594.867 191.522 596.449 188.498 596.449 185.474V185.194ZM615.548 183.178V185.796H617.69V186.72H615.548V189.576H614.54V183.178H615.548ZM610.718 183.738H611.698V189.058H605.65V183.738H606.63V185.474H610.718V183.738ZM606.63 186.356V188.176H610.718V186.356H606.63ZM615.548 193.72H608.506V195.288H616.08V196.17H607.498V192.866H614.54V191.354H607.428V190.486H615.548V193.72ZM628.809 188.232H630.951V189.156H628.809V196.1H627.815V183.178H628.809V188.232ZM622.789 185.194V185.936C622.789 186.972 622.663 187.938 622.411 188.862L626.233 193.496L625.463 194.168L622.033 189.982C621.417 191.494 620.451 192.894 619.135 194.308L618.407 193.636C620.535 191.34 621.809 189.128 621.809 185.936V185.194H618.911V184.284H625.715V185.194H622.789ZM642.099 188.232H644.241V189.156H642.099V196.1H641.091V183.178H642.099V188.232ZM637.353 185.194H632.397V184.284H638.347V185.278C638.347 188.932 636.219 192.11 632.789 194.462L632.187 193.678C635.379 191.536 637.353 188.498 637.353 185.474V185.194ZM659.492 196.1H658.498V183.178H659.492V196.1ZM651.512 193.944H649.482V184.214H655.698V185.138H650.476V193.034H651.68C653.248 193.034 655.292 192.852 656.958 192.6L657.07 193.482C655.53 193.748 653.416 193.944 651.512 193.944ZM672.04 188.232H674.182V189.156H672.04V196.1H671.046V183.178H672.04V188.232ZM666.02 185.194V185.936C666.02 186.972 665.894 187.938 665.642 188.862L669.464 193.496L668.694 194.168L665.264 189.982C664.648 191.494 663.682 192.894 662.366 194.308L661.638 193.636C663.766 191.34 665.04 189.128 665.04 185.936V185.194H662.142V184.284H668.946V185.194H666.02ZM686.043 196.1H685.035V183.178H686.043V196.1ZM679.001 194.378C677.181 194.378 675.683 193.16 675.683 190.094V188.162C675.683 185.096 677.181 183.878 679.001 183.878C680.821 183.878 682.319 185.096 682.319 188.162V190.094C682.319 193.16 680.821 194.378 679.001 194.378ZM679.001 193.454C680.331 193.454 681.325 192.488 681.325 190.08V188.162C681.325 185.754 680.331 184.802 679.001 184.802C677.671 184.802 676.691 185.754 676.691 188.162V190.08C676.691 192.488 677.671 193.454 679.001 193.454ZM698.325 187.42V183.178H699.319V196.1H698.325V188.344H693.915V187.42H698.325ZM690.303 193.034H691.465C693.033 193.034 695.105 192.852 696.785 192.586L696.897 193.468C695.343 193.748 693.187 193.944 691.283 193.944H689.309V184.214H690.303V193.034ZM711.782 196.1V183.178H712.762V196.1H711.782ZM707.246 188.372H708.996V183.388H709.962V195.862H708.996V189.282H707.246V190.094C707.246 193.16 706.084 194.378 704.6 194.378C703.074 194.378 701.926 193.16 701.926 190.094V188.162C701.926 185.096 703.074 183.878 704.6 183.878C706.084 183.878 707.246 185.096 707.246 188.162V188.372ZM706.28 190.08V188.162C706.28 185.754 705.566 184.802 704.586 184.802C703.606 184.802 702.892 185.754 702.892 188.162V190.08C702.892 192.488 703.606 193.454 704.586 193.454C705.566 193.454 706.28 192.488 706.28 190.08ZM725.057 196.1V183.178H726.037V196.1H725.057ZM719.849 188.512H722.271V183.388H723.237V195.862H722.271V189.422H719.541C718.785 191.326 717.553 193.02 715.985 194.462L715.271 193.734C717.749 191.522 719.331 188.498 719.331 185.474V185.194H715.509V184.284H720.325V185.278C720.325 186.412 720.157 187.49 719.849 188.512ZM732.077 190.192V189.268H736.445V190.192H732.077ZM746.261 195.568C743.825 195.568 741.949 194.07 741.949 191.032V184.102H742.971V190.906C742.971 193.538 744.329 194.63 746.261 194.63C748.193 194.63 749.551 193.538 749.551 190.906V184.102H750.559V191.032C750.559 194.07 748.683 195.568 746.261 195.568ZM752.978 195.358H751.788L755.82 189.534L752.068 184.102H753.258L756.408 188.68L759.572 184.102H760.762L756.996 189.534L761.028 195.358H759.838L756.408 190.388L752.978 195.358ZM766.577 195.568C764.141 195.568 762.265 194.07 762.265 191.032V184.102H763.287V190.906C763.287 193.538 764.645 194.63 766.577 194.63C768.509 194.63 769.867 193.538 769.867 190.906V184.102H770.875V191.032C770.875 194.07 768.999 195.568 766.577 195.568ZM774.103 195.358H773.081V184.102H774.103V195.358ZM789.426 183.178V185.796H791.568V186.72H789.426V189.506H788.418V183.178H789.426ZM786.36 189.296L782.65 187C782.006 187.98 780.942 188.82 779.458 189.576L778.996 188.75C781.236 187.56 782.454 186.216 782.454 184.368V183.626H783.434V184.368C783.434 185.012 783.322 185.614 783.098 186.16L786.878 188.498L786.36 189.296ZM789.426 193.692H782.384V195.288H789.958V196.17H781.39V192.824H788.418V191.284H781.32V190.43H789.426V193.692ZM802.422 186.79V183.178H803.416V196.1H802.422V190.682H800.042V189.758H802.422V187.7H800.042V186.79H802.422ZM798.712 185.138V192.838C799.454 192.768 800.21 192.684 800.91 192.586L801.022 193.482C799.09 193.776 796.752 193.958 794.82 193.958H792.846L792.79 193.034H794.47V185.138H792.944V184.214H800.378V185.138H798.712ZM797.732 192.922V185.138H795.436V193.034C796.136 193.02 796.92 192.978 797.732 192.922ZM812.337 191.032V194.14H817.881V195.064H805.785V194.14H811.343V191.032H807.353V184.06H808.347V186.664H815.319V184.06H816.327V191.032H812.337ZM815.319 187.588H808.347V190.122H815.319V187.588ZM828.987 196.1V183.178H829.981V196.1H828.987ZM825.039 185.194H819.943V184.284H826.047V185.278C826.047 188.932 823.863 192.124 820.335 194.462L819.747 193.678C823.023 191.55 825.039 188.498 825.039 185.474V185.194Z" fill="black"/>
<path d="M619.164 229.492H617.33C615.02 229.492 613.592 228.344 613.592 226.566C613.592 224.816 615.02 223.668 617.33 223.668H619.164C621.46 223.668 622.916 224.816 622.916 226.566C622.916 228.344 621.46 229.492 619.164 229.492ZM618.996 224.564H617.484C615.636 224.564 614.586 225.376 614.586 226.566C614.586 227.784 615.636 228.596 617.484 228.596H618.996C620.858 228.596 621.908 227.77 621.908 226.566C621.908 225.376 620.858 224.564 618.996 224.564ZM612.192 231.368H624.288V232.278H618.744V236.24H617.75V232.278H612.192V231.368ZM635.379 236.1V223.178H636.373V236.1H635.379ZM632.005 225.138V232.824C632.719 232.754 633.433 232.656 634.105 232.558L634.217 233.468C632.215 233.776 629.807 233.958 627.847 233.958H625.803L625.747 233.034H627.483V225.138H625.915V224.214H633.573V225.138H632.005ZM631.011 232.908V225.138H628.463V233.034C629.219 233.02 630.101 232.978 631.011 232.908ZM645.294 231.368V234.14H650.838V235.064H638.742V234.14H644.3V231.368H640.31V227.28H648.276V225.04H640.24V224.13H649.284V228.176H641.304V230.472H649.564V231.368H645.294ZM661.974 230.752V234.14H667.518V235.064H655.422V234.14H660.98V230.752H656.99V224.13H657.984V229.842H666.062V230.752H661.974ZM678.287 227.672C678.357 226.86 678.399 226.146 678.399 225.614V225.18H670.069V224.27H679.393V225.39C679.393 227.21 679.085 229.856 678.679 232.054L677.699 231.886C677.895 230.836 678.077 229.674 678.189 228.596C676.187 228.792 672.981 228.932 671.021 228.932H670.041L669.999 228.022H671.091C672.813 228.022 676.215 227.896 678.287 227.672ZM674.507 230.29V234.14H680.793V235.064H668.697V234.14H673.513V230.29H674.507ZM683.541 224.13H692.389V225.054H684.535V229.982H692.515V230.892H683.541V224.13ZM694.069 235.064H681.973V234.14H694.069V235.064ZM708.9 231.06V223.178H709.866V231.06H708.9ZM703.146 230.472V229.688H706.282V223.318H707.234V231.06H706.282V230.472H703.146ZM701.914 227.462C700.318 227.462 699.156 226.776 699.156 225.53V225.418C699.156 224.144 700.318 223.472 701.914 223.472C703.496 223.472 704.658 224.144 704.658 225.418V225.53C704.658 226.776 703.496 227.462 701.914 227.462ZM700.094 225.432V225.502C700.094 226.174 700.85 226.65 701.914 226.65C702.978 226.65 703.72 226.174 703.72 225.502V225.432C703.72 224.732 702.978 224.284 701.914 224.284C700.85 224.284 700.094 224.732 700.094 225.432ZM702.054 231.228L701.088 231.158C701.158 230.514 701.228 229.8 701.27 229.156C700.864 229.17 700.486 229.17 700.122 229.17H698.596L698.554 228.33H700.164C701.452 228.33 703.552 228.232 705.316 228.008L705.4 228.82C704.42 228.96 703.3 229.058 702.222 229.114C702.18 229.8 702.11 230.542 702.054 231.228ZM702.264 232.978H708.886V231.634H709.866V236.1H701.284V231.634H702.264V232.978ZM702.264 233.804V235.26H708.886V233.804H702.264ZM722.12 228.232H724.262V229.156H722.12V236.1H721.112V223.178H722.12V228.232ZM716.044 223.976V225.6C716.044 226.72 715.904 227.77 715.638 228.778L719.502 233.524L718.76 234.168L715.274 229.884C714.672 231.438 713.692 232.894 712.32 234.308L711.62 233.636C713.902 231.298 715.064 228.834 715.064 225.6V223.976H716.044ZM736.123 236.1H735.115V223.178H736.123V236.1ZM729.081 234.378C727.261 234.378 725.763 233.16 725.763 230.094V228.162C725.763 225.096 727.261 223.878 729.081 223.878C730.901 223.878 732.399 225.096 732.399 228.162V230.094C732.399 233.16 730.901 234.378 729.081 234.378ZM729.081 233.454C730.411 233.454 731.405 232.488 731.405 230.08V228.162C731.405 225.754 730.411 224.802 729.081 224.802C727.751 224.802 726.771 225.754 726.771 228.162V230.08C726.771 232.488 727.751 233.454 729.081 233.454ZM741.041 230.598H749.301V231.508H740.047V224.13H749.021V225.04H741.041V227.35H749.021V228.246H741.041V230.598ZM738.479 235.064V234.14H750.575V235.064H738.479ZM765.364 223.178V226.608H767.506V227.532H765.364V232.992H764.356V223.178H765.364ZM755.466 223.948H761.514V230.332H755.466V223.948ZM756.446 229.436H760.534V224.844H756.446V229.436ZM757.314 232.166H758.322V235.176H766.092V236.1H757.314V232.166ZM770.128 223.43H778.71V224.27H771.122V226.552H778.85V227.392H770.128V223.43ZM780.53 229.422H768.434V228.568H780.53V229.422ZM779.326 236.17H770.002V232.978H777.968V231.536H769.932V230.682H778.976V233.818H770.996V235.316H779.326V236.17ZM791.635 236.1V223.178H792.629V236.1H791.635ZM787.687 225.194H782.591V224.284H788.695V225.278C788.695 228.932 786.511 232.124 782.983 234.462L782.395 233.678C785.671 231.55 787.687 228.498 787.687 225.474V225.194Z" fill="black"/>
<path d="M658.696 320.1V307.178H659.69V320.1H658.696ZM655.322 309.138V316.824C656.036 316.754 656.75 316.656 657.422 316.558L657.534 317.468C655.532 317.776 653.124 317.958 651.164 317.958H649.12L649.064 317.034H650.8V309.138H649.232V308.214H656.89V309.138H655.322ZM654.328 316.908V309.138H651.78V317.034C652.536 317.02 653.418 316.978 654.328 316.908ZM671.44 309.642V309.18H663.446V308.27H672.434V309.418C672.434 311.35 672.112 313.94 671.678 316.25L670.698 316.082C671.132 313.786 671.44 311.14 671.44 309.642ZM662.06 319.064V318.14H674.156V319.064H662.06ZM685.541 312.232H687.683V313.156H685.541V320.1H684.533V307.178H685.541V312.232ZM681.691 317.972H675.643V308.214H681.691V317.972ZM680.697 309.138H676.637V317.048H680.697V309.138ZM695.162 315.368V318.14H700.706V319.064H688.61V318.14H694.168V315.368H690.178V311.28H698.144V309.04H690.108V308.13H699.152V312.176H691.172V314.472H699.432V315.368H695.162ZM709.742 308.466H712.836V309.32H705.64V308.466H708.72V307.01H709.742V308.466ZM715.202 310.118V307.178H716.196V314.332H715.202V313.31H712.822V312.47H715.202V310.944H712.822V310.118H715.202ZM712.248 312.12V312.302C712.248 313.646 710.946 314.374 709.252 314.374C707.544 314.374 706.256 313.646 706.256 312.302V312.12C706.256 310.79 707.544 310.062 709.252 310.062C710.946 310.062 712.248 310.79 712.248 312.12ZM707.208 312.148V312.288C707.208 313.03 708.09 313.52 709.252 313.52C710.4 313.52 711.282 313.03 711.282 312.288V312.148C711.282 311.406 710.4 310.916 709.252 310.916C708.09 310.916 707.208 311.406 707.208 312.148ZM708.888 316.642H715.202V315.102H716.196V320.086H707.894V315.102H708.888V316.642ZM708.888 317.538V319.204H715.202V317.538H708.888ZM728.478 310.076V307.178H729.486V313.926H728.478V310.986H725.818C725.65 312.68 724.222 313.534 722.486 313.534C720.624 313.534 719.126 312.568 719.126 310.65V310.412C719.126 308.48 720.624 307.528 722.486 307.528C724.222 307.528 725.65 308.368 725.818 310.076H728.478ZM724.838 310.636V310.426C724.838 309.124 723.844 308.438 722.486 308.438C721.114 308.438 720.134 309.124 720.134 310.426V310.636C720.134 311.924 721.114 312.624 722.486 312.624C723.844 312.624 724.838 311.924 724.838 310.636ZM722.178 316.418H728.478V314.696H729.486V320.1H721.184V314.696H722.178V316.418ZM722.178 317.314V319.19H728.478V317.314H722.178ZM742.033 312.232H744.189V313.156H742.033V320.1H741.039V307.178H742.033V312.232ZM735.159 307.192H736.153V309.236H739.401V310.146H731.911V309.236H735.159V307.192ZM735.677 311.476C737.413 311.476 738.785 312.624 738.785 314.5V315.242C738.785 317.104 737.413 318.28 735.677 318.28C733.927 318.28 732.541 317.104 732.541 315.242V314.5C732.541 312.624 733.927 311.476 735.677 311.476ZM737.791 315.2V314.542C737.791 313.198 736.853 312.4 735.677 312.4C734.473 312.4 733.549 313.198 733.549 314.542V315.2C733.549 316.544 734.473 317.37 735.677 317.37C736.853 317.37 737.791 316.544 737.791 315.2ZM755.042 320.1V307.178H756.036V320.1H755.042ZM751.094 309.194H745.998V308.284H752.102V309.278C752.102 312.932 749.918 316.124 746.39 318.462L745.802 317.678C749.078 315.55 751.094 312.498 751.094 309.474V309.194Z" fill="black"/>
<path d="M648.36 351.586V351.18H640.1V350.27H649.354V351.362C649.354 353.182 649.046 355.646 648.64 357.858L647.66 357.676C648.066 355.506 648.36 353 648.36 351.586ZM645.952 354.792V360.14H650.838V361.064H638.742V360.14H641.71V354.792H642.676V360.14H644.986V354.792H645.952ZM658.976 354.078H657.17C654.93 354.078 653.516 353.28 653.516 351.712C653.516 350.158 654.93 349.36 657.17 349.36H658.976C661.216 349.36 662.63 350.158 662.63 351.712C662.63 353.28 661.216 354.078 658.976 354.078ZM658.808 350.256H657.338C655.518 350.256 654.51 350.774 654.51 351.726C654.51 352.65 655.518 353.196 657.338 353.196H658.808C660.628 353.196 661.622 352.65 661.622 351.726C661.622 350.774 660.628 350.256 658.808 350.256ZM664.114 355.464V356.346H660.768V358.04H662.56V362.24H661.552V358.95H653.586V358.04H655.392V356.346H652.018V355.464H664.114ZM656.372 358.04H659.788V356.346H656.372V358.04ZM670.069 354.316L669.789 353.462C672.799 352.706 674.339 351.628 674.339 350.382H670.461V349.5H679.043V350.382H675.319C675.319 350.816 675.207 351.236 674.997 351.614L679.687 353.49L679.323 354.316L674.423 352.342C673.597 353.14 672.169 353.784 670.069 354.316ZM675.249 353.896V355.366H680.793V356.248H668.697V355.366H674.255V353.896H675.249ZM673.331 357.634H676.159C678.273 357.634 679.379 358.614 679.379 359.93C679.379 361.274 678.273 362.24 676.159 362.24H673.331C671.231 362.24 670.125 361.274 670.125 359.93C670.125 358.614 671.231 357.634 673.331 357.634ZM673.555 361.358H675.935C677.587 361.358 678.371 360.784 678.371 359.93C678.371 359.076 677.587 358.53 675.935 358.53H673.555C671.903 358.53 671.119 359.076 671.119 359.93C671.119 360.784 671.903 361.358 673.555 361.358ZM683.541 353.14H691.507V351.04H683.471V350.13H692.515V354.036H684.535V356.206H692.795V357.102H683.541V353.14ZM690.681 357.872V360.14H694.069V361.064H681.973V360.14H685.375V357.872H686.355V360.14H689.701V357.872H690.681ZM708.592 349.192H709.586V356.248H708.592V349.192ZM699.366 349.808H705.54V355.058H699.366V349.808ZM700.346 354.176H704.56V350.69H700.346V354.176ZM705.764 359.496L710.412 361.372L710.034 362.226L705.204 360.224C704.35 361.05 702.838 361.722 700.71 362.226L700.416 361.358C703.244 360.672 704.98 359.706 704.98 358.53V358.516H701.074V357.634H704.98V356.052H706.002V357.634H709.782V358.516H706.002V358.53C706.002 358.866 705.918 359.188 705.764 359.496ZM725.426 362.1V349.178H726.406V362.1H725.426ZM718.888 352.3V352.496C718.888 353.406 718.79 354.26 718.608 355.086L721.688 359.566L720.89 360.154L718.258 356.29C717.782 357.662 717.012 358.964 715.934 360.308L715.192 359.692C716.984 357.424 717.922 355.31 717.922 352.496V352.3H715.584V351.39H717.922V349.192H718.902V351.39H721.282V352.3H718.888ZM720.358 354.372H722.64V349.388H723.606V361.862H722.64V355.282H720.358V354.372ZM738.03 353.868C738.114 353 738.156 352.216 738.156 351.642V351.18H730.106V350.27H739.15V351.418C739.15 353.35 738.828 356.136 738.394 358.46L737.414 358.278C737.624 357.172 737.806 355.94 737.932 354.792C735.972 355.002 732.906 355.114 730.988 355.114H730.078L730.036 354.204H731.044C732.766 354.204 736 354.078 738.03 353.868ZM728.608 361.064V360.14H740.704V361.064H728.608ZM752.075 354.232H754.231V355.156H752.075V362.1H751.081V349.178H752.075V354.232ZM745.313 349.878C747.105 349.878 748.561 351.096 748.561 354.162V356.094C748.561 359.16 747.105 360.378 745.313 360.378C743.507 360.378 742.051 359.16 742.051 356.094V354.162C742.051 351.096 743.507 349.878 745.313 349.878ZM747.553 356.08V354.162C747.553 351.754 746.601 350.802 745.313 350.802C744.011 350.802 743.045 351.754 743.045 354.162V356.08C743.045 358.488 744.011 359.454 745.313 359.454C746.601 359.454 747.553 358.488 747.553 356.08ZM762.116 353.994H760.296C758.07 353.994 756.656 353.21 756.656 351.67C756.656 350.116 758.07 349.36 760.296 349.36H762.116C764.356 349.36 765.77 350.116 765.77 351.67C765.77 353.21 764.356 353.994 762.116 353.994ZM761.962 350.256H760.464C758.644 350.256 757.65 350.76 757.65 351.684C757.65 352.608 758.644 353.112 760.464 353.112H761.962C763.768 353.112 764.762 352.594 764.762 351.684C764.762 350.76 763.768 350.256 761.962 350.256ZM755.158 356.276V355.408H767.254V356.276H761.71V357.578H760.716V356.276H755.158ZM761.794 358.012V358.558C761.794 358.964 761.682 359.328 761.486 359.664L766.344 361.274L766.022 362.17L760.828 360.42C759.862 361.218 758.252 361.792 756.376 362.24L756.096 361.344C758.7 360.742 760.772 359.832 760.772 358.558V358.012H761.794Z" fill="black"/>
<path d="M87.3866 24.506H86.0006V18.164H87.3866V24.506ZM80.2466 24.212C78.2866 24.212 76.7606 23.274 76.7606 21.398V21.188C76.7606 19.298 78.2866 18.374 80.2466 18.374C82.1786 18.374 83.7186 19.298 83.7186 21.188V21.398C83.7186 23.274 82.1786 24.212 80.2466 24.212ZM80.2466 22.98C81.4366 22.98 82.3186 22.434 82.3186 21.37V21.216C82.3186 20.152 81.4366 19.606 80.2466 19.606C79.0426 19.606 78.1606 20.152 78.1606 21.216V21.37C78.1606 22.434 79.0426 22.98 80.2466 22.98ZM87.8766 31.226H78.8046V27.656H86.0006V26.48H78.7346V25.318H87.3866V28.804H80.2046V30.036H87.8766V31.226ZM99.934 23.05H101.936V24.324H99.934V31.156H98.534V18.164H99.934V23.05ZM93.914 20.46V21.02C93.914 22 93.802 22.924 93.564 23.82L97.246 28.342L96.196 29.252L93.032 25.346C92.43 26.76 91.506 28.076 90.274 29.392L89.28 28.468C91.394 26.186 92.556 24.016 92.556 21.02V20.46H89.784V19.186H96.728V20.46H93.914Z" fill="black"/>
<path d="M292.487 31.156V18.164H293.887V31.156H292.487ZM287.545 18.92V20.614C287.545 21.72 287.419 22.756 287.153 23.75L291.003 28.356L289.953 29.252L286.635 25.248C286.005 26.704 285.053 28.062 283.723 29.392L282.743 28.454C285.081 26.102 286.187 23.722 286.187 20.614V18.92H287.545ZM306.434 18.164V21.426H308.45V22.686H306.434V27.894H305.034V18.164H306.434ZM302.654 18.92V19.718C302.654 22.7 300.442 24.786 296.816 26.158L296.214 24.968C299.35 23.778 301.156 22 301.254 20.194H296.508V18.92H302.654ZM298.118 26.942H299.504V29.882H307.106V31.156H298.118V26.942Z" fill="black"/>
<path d="M700.239 23.05V18.164H701.597V31.156H700.239V24.324H698.573V30.89H697.257V18.36H698.573V23.05H700.239ZM692.161 27.768H692.791C693.799 27.768 694.947 27.698 696.249 27.502L696.389 28.734C695.129 28.958 693.939 29.042 692.595 29.042H690.761V19.116H692.161V27.768ZM712.408 22.84V24.268H715.74V25.472H703.532V24.268H706.878V22.84C705.688 22.518 704.96 21.79 704.96 20.67C704.96 19.074 706.43 18.304 708.614 18.304H710.658C712.856 18.304 714.312 19.074 714.312 20.67C714.312 21.79 713.598 22.504 712.408 22.84ZM706.36 20.684C706.36 21.468 707.256 21.888 708.866 21.888H710.42C712.03 21.888 712.926 21.454 712.926 20.684C712.926 19.886 712.03 19.48 710.42 19.48H708.866C707.256 19.48 706.36 19.886 706.36 20.684ZM708.208 23.036V24.268H711.078V23.036C710.126 23.05 709.16 23.05 708.208 23.036ZM708.152 26.578H711.12C713.22 26.578 714.382 27.572 714.382 28.93C714.382 30.302 713.22 31.296 711.12 31.296H708.152C706.052 31.296 704.89 30.302 704.89 28.93C704.89 27.572 706.052 26.578 708.152 26.578ZM708.432 30.078H710.854C712.324 30.078 712.996 29.63 712.996 28.916C712.996 28.23 712.324 27.782 710.854 27.782H708.432C706.962 27.782 706.29 28.23 706.29 28.916C706.29 29.63 706.962 30.078 708.432 30.078Z" fill="black"/>
<path d="M254.349 154.61C252.081 154.61 250.233 152.986 250.233 149.822V147.624C250.233 144.488 252.081 142.85 254.349 142.85C256.617 142.85 258.479 144.488 258.479 147.624V149.822C258.479 152.986 256.617 154.61 254.349 154.61ZM254.349 153.35C255.875 153.35 257.065 152.202 257.065 149.752V147.708C257.065 145.258 255.875 144.11 254.349 144.11C252.823 144.11 251.633 145.258 251.633 147.708V149.752C251.633 152.202 252.823 153.35 254.349 153.35ZM264.27 142.85C266.566 142.85 268.288 144.264 268.288 146.784V149.612C268.288 153.154 266.37 154.61 264.382 154.61C262.478 154.61 261.19 153.742 260.434 152.16L261.61 151.544C262.198 152.72 262.968 153.364 264.326 153.364C265.824 153.364 267 152.202 266.986 149.556V149.01C266.37 149.99 265.208 150.508 264.032 150.508C262.002 150.508 260.224 149.038 260.224 146.672C260.224 144.306 262.002 142.85 264.27 142.85ZM264.256 149.262C265.726 149.262 266.888 148.324 266.888 146.686C266.888 145.048 265.726 144.096 264.256 144.096C262.8 144.096 261.61 145.048 261.61 146.686C261.61 148.324 262.8 149.262 264.256 149.262ZM271.315 146.308C270.783 146.308 270.349 145.874 270.349 145.342C270.349 144.81 270.783 144.39 271.315 144.39C271.847 144.39 272.267 144.81 272.267 145.342C272.267 145.874 271.847 146.308 271.315 146.308ZM271.315 153.07C270.783 153.07 270.349 152.636 270.349 152.104C270.349 151.572 270.783 151.152 271.315 151.152C271.847 151.152 272.267 151.572 272.267 152.104C272.267 152.636 271.847 153.07 271.315 153.07ZM278.453 154.61C276.185 154.61 274.337 152.986 274.337 149.822V147.624C274.337 144.488 276.185 142.85 278.453 142.85C280.721 142.85 282.583 144.488 282.583 147.624V149.822C282.583 152.986 280.721 154.61 278.453 154.61ZM278.453 153.35C279.979 153.35 281.169 152.202 281.169 149.752V147.708C281.169 145.258 279.979 144.11 278.453 144.11C276.927 144.11 275.737 145.258 275.737 147.708V149.752C275.737 152.202 276.927 153.35 278.453 153.35ZM288.584 154.61C286.316 154.61 284.468 152.986 284.468 149.822V147.624C284.468 144.488 286.316 142.85 288.584 142.85C290.852 142.85 292.714 144.488 292.714 147.624V149.822C292.714 152.986 290.852 154.61 288.584 154.61ZM288.584 153.35C290.11 153.35 291.3 152.202 291.3 149.752V147.708C291.3 145.258 290.11 144.11 288.584 144.11C287.058 144.11 285.868 145.258 285.868 147.708V149.752C285.868 152.202 287.058 153.35 288.584 153.35ZM294.598 149.374V148.072H299.148V149.374H294.598ZM305.252 154.4H303.852V144.908L301.276 146.966L300.478 145.916L304.062 143.06H305.252V154.4ZM315.354 154.4H307.682V153.308L311.84 149.178C313.114 147.918 313.702 147.036 313.702 145.986C313.702 144.852 312.89 144.11 311.448 144.11C310.048 144.11 309.334 145.132 308.956 146.378L307.626 146.056C308.088 144.39 309.32 142.85 311.448 142.85C313.632 142.85 315.088 144.026 315.088 145.93C315.088 147.47 314.262 148.59 312.904 149.934L309.698 153.112H315.354V154.4ZM318.387 146.308C317.855 146.308 317.421 145.874 317.421 145.342C317.421 144.81 317.855 144.39 318.387 144.39C318.919 144.39 319.339 144.81 319.339 145.342C319.339 145.874 318.919 146.308 318.387 146.308ZM318.387 153.07C317.855 153.07 317.421 152.636 317.421 152.104C317.421 151.572 317.855 151.152 318.387 151.152C318.919 151.152 319.339 151.572 319.339 152.104C319.339 152.636 318.919 153.07 318.387 153.07ZM325.525 154.61C323.257 154.61 321.409 152.986 321.409 149.822V147.624C321.409 144.488 323.257 142.85 325.525 142.85C327.793 142.85 329.655 144.488 329.655 147.624V149.822C329.655 152.986 327.793 154.61 325.525 154.61ZM325.525 153.35C327.051 153.35 328.241 152.202 328.241 149.752V147.708C328.241 145.258 327.051 144.11 325.525 144.11C323.999 144.11 322.809 145.258 322.809 147.708V149.752C322.809 152.202 323.999 153.35 325.525 153.35ZM335.656 154.61C333.388 154.61 331.54 152.986 331.54 149.822V147.624C331.54 144.488 333.388 142.85 335.656 142.85C337.924 142.85 339.786 144.488 339.786 147.624V149.822C339.786 152.986 337.924 154.61 335.656 154.61ZM335.656 153.35C337.182 153.35 338.372 152.202 338.372 149.752V147.708C338.372 145.258 337.182 144.11 335.656 144.11C334.13 144.11 332.94 145.258 332.94 147.708V149.752C332.94 152.202 334.13 153.35 335.656 153.35Z" fill="black"/>
<path d="M256.437 195.4H255.037V185.908L252.461 187.966L251.663 186.916L255.247 184.06H256.437V195.4ZM265.699 191.872H267.449V193.16H265.699V195.61H264.313V193.16H258.615V192.012L263.823 184.06H265.699V191.872ZM264.313 185.656L260.295 191.872H264.313V185.656ZM270.051 187.308C269.519 187.308 269.085 186.874 269.085 186.342C269.085 185.81 269.519 185.39 270.051 185.39C270.583 185.39 271.003 185.81 271.003 186.342C271.003 186.874 270.583 187.308 270.051 187.308ZM270.051 194.07C269.519 194.07 269.085 193.636 269.085 193.104C269.085 192.572 269.519 192.152 270.051 192.152C270.583 192.152 271.003 192.572 271.003 193.104C271.003 193.636 270.583 194.07 270.051 194.07ZM277.189 195.61C274.921 195.61 273.073 193.986 273.073 190.822V188.624C273.073 185.488 274.921 183.85 277.189 183.85C279.457 183.85 281.319 185.488 281.319 188.624V190.822C281.319 193.986 279.457 195.61 277.189 195.61ZM277.189 194.35C278.715 194.35 279.905 193.202 279.905 190.752V188.708C279.905 186.258 278.715 185.11 277.189 185.11C275.663 185.11 274.473 186.258 274.473 188.708V190.752C274.473 193.202 275.663 194.35 277.189 194.35ZM287.32 195.61C285.052 195.61 283.204 193.986 283.204 190.822V188.624C283.204 185.488 285.052 183.85 287.32 183.85C289.588 183.85 291.45 185.488 291.45 188.624V190.822C291.45 193.986 289.588 195.61 287.32 195.61ZM287.32 194.35C288.846 194.35 290.036 193.202 290.036 190.752V188.708C290.036 186.258 288.846 185.11 287.32 185.11C285.794 185.11 284.604 186.258 284.604 188.708V190.752C284.604 193.202 285.794 194.35 287.32 194.35ZM293.335 190.374V189.072H297.885V190.374H293.335ZM303.988 195.4H302.588V185.908L300.012 187.966L299.214 186.916L302.798 184.06H303.988V195.4ZM310.702 187.952C312.718 187.952 314.51 189.422 314.51 191.788C314.51 194.154 312.718 195.61 310.464 195.61C308.168 195.61 306.446 194.196 306.446 191.662V188.834C306.446 185.306 308.364 183.85 310.338 183.85C312.256 183.85 313.53 184.718 314.286 186.3L313.124 186.916C312.522 185.726 311.766 185.096 310.394 185.096C308.896 185.096 307.734 186.258 307.748 188.89V189.436C308.364 188.456 309.512 187.952 310.702 187.952ZM310.464 194.364C311.934 194.364 313.124 193.398 313.124 191.76C313.124 190.136 311.934 189.184 310.464 189.184C309.008 189.184 307.832 190.136 307.832 191.76C307.832 193.398 309.008 194.364 310.464 194.364ZM317.397 187.308C316.865 187.308 316.431 186.874 316.431 186.342C316.431 185.81 316.865 185.39 317.397 185.39C317.929 185.39 318.349 185.81 318.349 186.342C318.349 186.874 317.929 187.308 317.397 187.308ZM317.397 194.07C316.865 194.07 316.431 193.636 316.431 193.104C316.431 192.572 316.865 192.152 317.397 192.152C317.929 192.152 318.349 192.572 318.349 193.104C318.349 193.636 317.929 194.07 317.397 194.07ZM324.535 195.61C322.267 195.61 320.419 193.986 320.419 190.822V188.624C320.419 185.488 322.267 183.85 324.535 183.85C326.803 183.85 328.665 185.488 328.665 188.624V190.822C328.665 193.986 326.803 195.61 324.535 195.61ZM324.535 194.35C326.061 194.35 327.251 193.202 327.251 190.752V188.708C327.251 186.258 326.061 185.11 324.535 185.11C323.009 185.11 321.819 186.258 321.819 188.708V190.752C321.819 193.202 323.009 194.35 324.535 194.35ZM334.666 195.61C332.398 195.61 330.55 193.986 330.55 190.822V188.624C330.55 185.488 332.398 183.85 334.666 183.85C336.934 183.85 338.796 185.488 338.796 188.624V190.822C338.796 193.986 336.934 195.61 334.666 195.61ZM334.666 194.35C336.192 194.35 337.382 193.202 337.382 190.752V188.708C337.382 186.258 336.192 185.11 334.666 185.11C333.14 185.11 331.95 186.258 331.95 188.708V190.752C331.95 193.202 333.14 194.35 334.666 194.35Z" fill="black"/>
<path d="M254.349 235.61C252.081 235.61 250.233 233.986 250.233 230.822V228.624C250.233 225.488 252.081 223.85 254.349 223.85C256.617 223.85 258.479 225.488 258.479 228.624V230.822C258.479 233.986 256.617 235.61 254.349 235.61ZM254.349 234.35C255.875 234.35 257.065 233.202 257.065 230.752V228.708C257.065 226.258 255.875 225.11 254.349 225.11C252.823 225.11 251.633 226.258 251.633 228.708V230.752C251.633 233.202 252.823 234.35 254.349 234.35ZM264.27 223.85C266.566 223.85 268.288 225.264 268.288 227.784V230.612C268.288 234.154 266.37 235.61 264.382 235.61C262.478 235.61 261.19 234.742 260.434 233.16L261.61 232.544C262.198 233.72 262.968 234.364 264.326 234.364C265.824 234.364 267 233.202 266.986 230.556V230.01C266.37 230.99 265.208 231.508 264.032 231.508C262.002 231.508 260.224 230.038 260.224 227.672C260.224 225.306 262.002 223.85 264.27 223.85ZM264.256 230.262C265.726 230.262 266.888 229.324 266.888 227.686C266.888 226.048 265.726 225.096 264.256 225.096C262.8 225.096 261.61 226.048 261.61 227.686C261.61 229.324 262.8 230.262 264.256 230.262ZM271.315 227.308C270.783 227.308 270.349 226.874 270.349 226.342C270.349 225.81 270.783 225.39 271.315 225.39C271.847 225.39 272.267 225.81 272.267 226.342C272.267 226.874 271.847 227.308 271.315 227.308ZM271.315 234.07C270.783 234.07 270.349 233.636 270.349 233.104C270.349 232.572 270.783 232.152 271.315 232.152C271.847 232.152 272.267 232.572 272.267 233.104C272.267 233.636 271.847 234.07 271.315 234.07ZM278.453 235.61C276.185 235.61 274.337 233.986 274.337 230.822V228.624C274.337 225.488 276.185 223.85 278.453 223.85C280.721 223.85 282.583 225.488 282.583 228.624V230.822C282.583 233.986 280.721 235.61 278.453 235.61ZM278.453 234.35C279.979 234.35 281.169 233.202 281.169 230.752V228.708C281.169 226.258 279.979 225.11 278.453 225.11C276.927 225.11 275.737 226.258 275.737 228.708V230.752C275.737 233.202 276.927 234.35 278.453 234.35ZM288.584 235.61C286.316 235.61 284.468 233.986 284.468 230.822V228.624C284.468 225.488 286.316 223.85 288.584 223.85C290.852 223.85 292.714 225.488 292.714 228.624V230.822C292.714 233.986 290.852 235.61 288.584 235.61ZM288.584 234.35C290.11 234.35 291.3 233.202 291.3 230.752V228.708C291.3 226.258 290.11 225.11 288.584 225.11C287.058 225.11 285.868 226.258 285.868 228.708V230.752C285.868 233.202 287.058 234.35 288.584 234.35ZM294.598 230.374V229.072H299.148V230.374H294.598ZM305.252 235.4H303.852V225.908L301.276 227.966L300.478 226.916L304.062 224.06H305.252V235.4ZM315.354 235.4H307.682V234.308L311.84 230.178C313.114 228.918 313.702 228.036 313.702 226.986C313.702 225.852 312.89 225.11 311.448 225.11C310.048 225.11 309.334 226.132 308.956 227.378L307.626 227.056C308.088 225.39 309.32 223.85 311.448 223.85C313.632 223.85 315.088 225.026 315.088 226.93C315.088 228.47 314.262 229.59 312.904 230.934L309.698 234.112H315.354V235.4ZM318.387 227.308C317.855 227.308 317.421 226.874 317.421 226.342C317.421 225.81 317.855 225.39 318.387 225.39C318.919 225.39 319.339 225.81 319.339 226.342C319.339 226.874 318.919 227.308 318.387 227.308ZM318.387 234.07C317.855 234.07 317.421 233.636 317.421 233.104C317.421 232.572 317.855 232.152 318.387 232.152C318.919 232.152 319.339 232.572 319.339 233.104C319.339 233.636 318.919 234.07 318.387 234.07ZM325.525 235.61C323.257 235.61 321.409 233.986 321.409 230.822V228.624C321.409 225.488 323.257 223.85 325.525 223.85C327.793 223.85 329.655 225.488 329.655 228.624V230.822C329.655 233.986 327.793 235.61 325.525 235.61ZM325.525 234.35C327.051 234.35 328.241 233.202 328.241 230.752V228.708C328.241 226.258 327.051 225.11 325.525 225.11C323.999 225.11 322.809 226.258 322.809 228.708V230.752C322.809 233.202 323.999 234.35 325.525 234.35ZM335.656 235.61C333.388 235.61 331.54 233.986 331.54 230.822V228.624C331.54 225.488 333.388 223.85 335.656 223.85C337.924 223.85 339.786 225.488 339.786 228.624V230.822C339.786 233.986 337.924 235.61 335.656 235.61ZM335.656 234.35C337.182 234.35 338.372 233.202 338.372 230.752V228.708C338.372 226.258 337.182 225.11 335.656 225.11C334.13 225.11 332.94 226.258 332.94 228.708V230.752C332.94 233.202 334.13 234.35 335.656 234.35Z" fill="black"/>
<path d="M256.437 278.4H255.037V268.908L252.461 270.966L251.663 269.916L255.247 267.06H256.437V278.4ZM265.699 274.872H267.449V276.16H265.699V278.61H264.313V276.16H258.615V275.012L263.823 267.06H265.699V274.872ZM264.313 268.656L260.295 274.872H264.313V268.656ZM270.051 270.308C269.519 270.308 269.085 269.874 269.085 269.342C269.085 268.81 269.519 268.39 270.051 268.39C270.583 268.39 271.003 268.81 271.003 269.342C271.003 269.874 270.583 270.308 270.051 270.308ZM270.051 277.07C269.519 277.07 269.085 276.636 269.085 276.104C269.085 275.572 269.519 275.152 270.051 275.152C270.583 275.152 271.003 275.572 271.003 276.104C271.003 276.636 270.583 277.07 270.051 277.07ZM277.189 278.61C274.921 278.61 273.073 276.986 273.073 273.822V271.624C273.073 268.488 274.921 266.85 277.189 266.85C279.457 266.85 281.319 268.488 281.319 271.624V273.822C281.319 276.986 279.457 278.61 277.189 278.61ZM277.189 277.35C278.715 277.35 279.905 276.202 279.905 273.752V271.708C279.905 269.258 278.715 268.11 277.189 268.11C275.663 268.11 274.473 269.258 274.473 271.708V273.752C274.473 276.202 275.663 277.35 277.189 277.35ZM287.32 278.61C285.052 278.61 283.204 276.986 283.204 273.822V271.624C283.204 268.488 285.052 266.85 287.32 266.85C289.588 266.85 291.45 268.488 291.45 271.624V273.822C291.45 276.986 289.588 278.61 287.32 278.61ZM287.32 277.35C288.846 277.35 290.036 276.202 290.036 273.752V271.708C290.036 269.258 288.846 268.11 287.32 268.11C285.794 268.11 284.604 269.258 284.604 271.708V273.752C284.604 276.202 285.794 277.35 287.32 277.35ZM293.335 273.374V272.072H297.885V273.374H293.335ZM303.988 278.4H302.588V268.908L300.012 270.966L299.214 269.916L302.798 267.06H303.988V278.4ZM310.702 270.952C312.718 270.952 314.51 272.422 314.51 274.788C314.51 277.154 312.718 278.61 310.464 278.61C308.168 278.61 306.446 277.196 306.446 274.662V271.834C306.446 268.306 308.364 266.85 310.338 266.85C312.256 266.85 313.53 267.718 314.286 269.3L313.124 269.916C312.522 268.726 311.766 268.096 310.394 268.096C308.896 268.096 307.734 269.258 307.748 271.89V272.436C308.364 271.456 309.512 270.952 310.702 270.952ZM310.464 277.364C311.934 277.364 313.124 276.398 313.124 274.76C313.124 273.136 311.934 272.184 310.464 272.184C309.008 272.184 307.832 273.136 307.832 274.76C307.832 276.398 309.008 277.364 310.464 277.364ZM317.397 270.308C316.865 270.308 316.431 269.874 316.431 269.342C316.431 268.81 316.865 268.39 317.397 268.39C317.929 268.39 318.349 268.81 318.349 269.342C318.349 269.874 317.929 270.308 317.397 270.308ZM317.397 277.07C316.865 277.07 316.431 276.636 316.431 276.104C316.431 275.572 316.865 275.152 317.397 275.152C317.929 275.152 318.349 275.572 318.349 276.104C318.349 276.636 317.929 277.07 317.397 277.07ZM324.535 278.61C322.267 278.61 320.419 276.986 320.419 273.822V271.624C320.419 268.488 322.267 266.85 324.535 266.85C326.803 266.85 328.665 268.488 328.665 271.624V273.822C328.665 276.986 326.803 278.61 324.535 278.61ZM324.535 277.35C326.061 277.35 327.251 276.202 327.251 273.752V271.708C327.251 269.258 326.061 268.11 324.535 268.11C323.009 268.11 321.819 269.258 321.819 271.708V273.752C321.819 276.202 323.009 277.35 324.535 277.35ZM334.666 278.61C332.398 278.61 330.55 276.986 330.55 273.822V271.624C330.55 268.488 332.398 266.85 334.666 266.85C336.934 266.85 338.796 268.488 338.796 271.624V273.822C338.796 276.986 336.934 278.61 334.666 278.61ZM334.666 277.35C336.192 277.35 337.382 276.202 337.382 273.752V271.708C337.382 269.258 336.192 268.11 334.666 268.11C333.14 268.11 331.95 269.258 331.95 271.708V273.752C331.95 276.202 333.14 277.35 334.666 277.35Z" fill="black"/>
<path d="M254.349 319.61C252.081 319.61 250.233 317.986 250.233 314.822V312.624C250.233 309.488 252.081 307.85 254.349 307.85C256.617 307.85 258.479 309.488 258.479 312.624V314.822C258.479 317.986 256.617 319.61 254.349 319.61ZM254.349 318.35C255.875 318.35 257.065 317.202 257.065 314.752V312.708C257.065 310.258 255.875 309.11 254.349 309.11C252.823 309.11 251.633 310.258 251.633 312.708V314.752C251.633 317.202 252.823 318.35 254.349 318.35ZM264.27 307.85C266.566 307.85 268.288 309.264 268.288 311.784V314.612C268.288 318.154 266.37 319.61 264.382 319.61C262.478 319.61 261.19 318.742 260.434 317.16L261.61 316.544C262.198 317.72 262.968 318.364 264.326 318.364C265.824 318.364 267 317.202 266.986 314.556V314.01C266.37 314.99 265.208 315.508 264.032 315.508C262.002 315.508 260.224 314.038 260.224 311.672C260.224 309.306 262.002 307.85 264.27 307.85ZM264.256 314.262C265.726 314.262 266.888 313.324 266.888 311.686C266.888 310.048 265.726 309.096 264.256 309.096C262.8 309.096 261.61 310.048 261.61 311.686C261.61 313.324 262.8 314.262 264.256 314.262ZM271.315 311.308C270.783 311.308 270.349 310.874 270.349 310.342C270.349 309.81 270.783 309.39 271.315 309.39C271.847 309.39 272.267 309.81 272.267 310.342C272.267 310.874 271.847 311.308 271.315 311.308ZM271.315 318.07C270.783 318.07 270.349 317.636 270.349 317.104C270.349 316.572 270.783 316.152 271.315 316.152C271.847 316.152 272.267 316.572 272.267 317.104C272.267 317.636 271.847 318.07 271.315 318.07ZM278.453 319.61C276.185 319.61 274.337 317.986 274.337 314.822V312.624C274.337 309.488 276.185 307.85 278.453 307.85C280.721 307.85 282.583 309.488 282.583 312.624V314.822C282.583 317.986 280.721 319.61 278.453 319.61ZM278.453 318.35C279.979 318.35 281.169 317.202 281.169 314.752V312.708C281.169 310.258 279.979 309.11 278.453 309.11C276.927 309.11 275.737 310.258 275.737 312.708V314.752C275.737 317.202 276.927 318.35 278.453 318.35ZM288.584 319.61C286.316 319.61 284.468 317.986 284.468 314.822V312.624C284.468 309.488 286.316 307.85 288.584 307.85C290.852 307.85 292.714 309.488 292.714 312.624V314.822C292.714 317.986 290.852 319.61 288.584 319.61ZM288.584 318.35C290.11 318.35 291.3 317.202 291.3 314.752V312.708C291.3 310.258 290.11 309.11 288.584 309.11C287.058 309.11 285.868 310.258 285.868 312.708V314.752C285.868 317.202 287.058 318.35 288.584 318.35ZM294.598 314.374V313.072H299.148V314.374H294.598ZM305.252 319.4H303.852V309.908L301.276 311.966L300.478 310.916L304.062 308.06H305.252V319.4ZM315.354 319.4H307.682V318.308L311.84 314.178C313.114 312.918 313.702 312.036 313.702 310.986C313.702 309.852 312.89 309.11 311.448 309.11C310.048 309.11 309.334 310.132 308.956 311.378L307.626 311.056C308.088 309.39 309.32 307.85 311.448 307.85C313.632 307.85 315.088 309.026 315.088 310.93C315.088 312.47 314.262 313.59 312.904 314.934L309.698 318.112H315.354V319.4ZM318.387 311.308C317.855 311.308 317.421 310.874 317.421 310.342C317.421 309.81 317.855 309.39 318.387 309.39C318.919 309.39 319.339 309.81 319.339 310.342C319.339 310.874 318.919 311.308 318.387 311.308ZM318.387 318.07C317.855 318.07 317.421 317.636 317.421 317.104C317.421 316.572 317.855 316.152 318.387 316.152C318.919 316.152 319.339 316.572 319.339 317.104C319.339 317.636 318.919 318.07 318.387 318.07ZM325.525 319.61C323.257 319.61 321.409 317.986 321.409 314.822V312.624C321.409 309.488 323.257 307.85 325.525 307.85C327.793 307.85 329.655 309.488 329.655 312.624V314.822C329.655 317.986 327.793 319.61 325.525 319.61ZM325.525 318.35C327.051 318.35 328.241 317.202 328.241 314.752V312.708C328.241 310.258 327.051 309.11 325.525 309.11C323.999 309.11 322.809 310.258 322.809 312.708V314.752C322.809 317.202 323.999 318.35 325.525 318.35ZM335.656 319.61C333.388 319.61 331.54 317.986 331.54 314.822V312.624C331.54 309.488 333.388 307.85 335.656 307.85C337.924 307.85 339.786 309.488 339.786 312.624V314.822C339.786 317.986 337.924 319.61 335.656 319.61ZM335.656 318.35C337.182 318.35 338.372 317.202 338.372 314.752V312.708C338.372 310.258 337.182 309.11 335.656 309.11C334.13 309.11 332.94 310.258 332.94 312.708V314.752C332.94 317.202 334.13 318.35 335.656 318.35Z" fill="black"/>
<path d="M256.437 360.4H255.037V350.908L252.461 352.966L251.663 351.916L255.247 349.06H256.437V360.4ZM265.699 356.872H267.449V358.16H265.699V360.61H264.313V358.16H258.615V357.012L263.823 349.06H265.699V356.872ZM264.313 350.656L260.295 356.872H264.313V350.656ZM270.051 352.308C269.519 352.308 269.085 351.874 269.085 351.342C269.085 350.81 269.519 350.39 270.051 350.39C270.583 350.39 271.003 350.81 271.003 351.342C271.003 351.874 270.583 352.308 270.051 352.308ZM270.051 359.07C269.519 359.07 269.085 358.636 269.085 358.104C269.085 357.572 269.519 357.152 270.051 357.152C270.583 357.152 271.003 357.572 271.003 358.104C271.003 358.636 270.583 359.07 270.051 359.07ZM277.189 360.61C274.921 360.61 273.073 358.986 273.073 355.822V353.624C273.073 350.488 274.921 348.85 277.189 348.85C279.457 348.85 281.319 350.488 281.319 353.624V355.822C281.319 358.986 279.457 360.61 277.189 360.61ZM277.189 359.35C278.715 359.35 279.905 358.202 279.905 355.752V353.708C279.905 351.258 278.715 350.11 277.189 350.11C275.663 350.11 274.473 351.258 274.473 353.708V355.752C274.473 358.202 275.663 359.35 277.189 359.35ZM287.32 360.61C285.052 360.61 283.204 358.986 283.204 355.822V353.624C283.204 350.488 285.052 348.85 287.32 348.85C289.588 348.85 291.45 350.488 291.45 353.624V355.822C291.45 358.986 289.588 360.61 287.32 360.61ZM287.32 359.35C288.846 359.35 290.036 358.202 290.036 355.752V353.708C290.036 351.258 288.846 350.11 287.32 350.11C285.794 350.11 284.604 351.258 284.604 353.708V355.752C284.604 358.202 285.794 359.35 287.32 359.35ZM293.335 355.374V354.072H297.885V355.374H293.335ZM303.988 360.4H302.588V350.908L300.012 352.966L299.214 351.916L302.798 349.06H303.988V360.4ZM310.702 352.952C312.718 352.952 314.51 354.422 314.51 356.788C314.51 359.154 312.718 360.61 310.464 360.61C308.168 360.61 306.446 359.196 306.446 356.662V353.834C306.446 350.306 308.364 348.85 310.338 348.85C312.256 348.85 313.53 349.718 314.286 351.3L313.124 351.916C312.522 350.726 311.766 350.096 310.394 350.096C308.896 350.096 307.734 351.258 307.748 353.89V354.436C308.364 353.456 309.512 352.952 310.702 352.952ZM310.464 359.364C311.934 359.364 313.124 358.398 313.124 356.76C313.124 355.136 311.934 354.184 310.464 354.184C309.008 354.184 307.832 355.136 307.832 356.76C307.832 358.398 309.008 359.364 310.464 359.364ZM317.397 352.308C316.865 352.308 316.431 351.874 316.431 351.342C316.431 350.81 316.865 350.39 317.397 350.39C317.929 350.39 318.349 350.81 318.349 351.342C318.349 351.874 317.929 352.308 317.397 352.308ZM317.397 359.07C316.865 359.07 316.431 358.636 316.431 358.104C316.431 357.572 316.865 357.152 317.397 357.152C317.929 357.152 318.349 357.572 318.349 358.104C318.349 358.636 317.929 359.07 317.397 359.07ZM324.535 360.61C322.267 360.61 320.419 358.986 320.419 355.822V353.624C320.419 350.488 322.267 348.85 324.535 348.85C326.803 348.85 328.665 350.488 328.665 353.624V355.822C328.665 358.986 326.803 360.61 324.535 360.61ZM324.535 359.35C326.061 359.35 327.251 358.202 327.251 355.752V353.708C327.251 351.258 326.061 350.11 324.535 350.11C323.009 350.11 321.819 351.258 321.819 353.708V355.752C321.819 358.202 323.009 359.35 324.535 359.35ZM334.666 360.61C332.398 360.61 330.55 358.986 330.55 355.822V353.624C330.55 350.488 332.398 348.85 334.666 348.85C336.934 348.85 338.796 350.488 338.796 353.624V355.822C338.796 358.986 336.934 360.61 334.666 360.61ZM334.666 359.35C336.192 359.35 337.382 358.202 337.382 355.752V353.708C337.382 351.258 336.192 350.11 334.666 350.11C333.14 350.11 331.95 351.258 331.95 353.708V355.752C331.95 358.202 333.14 359.35 334.666 359.35Z" fill="black"/>
<path d="M67.7946 163.592C71.1546 163.592 73.6346 165.688 73.6346 169.272V170.952C73.6346 174.568 71.1546 176.648 67.7946 176.648H63.0746V163.592H67.7946ZM71.5706 170.872V169.352C71.5706 166.76 70.0026 165.464 67.7946 165.464H65.1386V174.76H67.7946C70.0026 174.76 71.5706 173.496 71.5706 170.872ZM86.1935 176.648H84.0815L82.7055 172.792H77.7295L76.3535 176.648H74.2415L78.9295 163.592H81.4895L86.1935 176.648ZM80.2255 165.768L78.3855 170.936H82.0495L80.2255 165.768ZM93.7301 163.592H96.0341L91.3781 171.576V176.648H89.3141V171.64L84.6421 163.592H86.9461L90.3381 169.672L93.7301 163.592ZM110.095 176.648H101.119V175.064L105.839 170.376C107.167 169.048 107.775 168.168 107.775 167.08C107.775 165.976 106.991 165.192 105.503 165.192C104.063 165.192 103.279 166.248 102.911 167.592L100.959 167.128C101.487 165.144 102.991 163.352 105.503 163.352C108.063 163.352 109.807 164.696 109.807 167C109.807 168.728 108.927 169.96 107.439 171.432L104.063 174.76H110.095V176.648Z" fill="black"/>
<path d="M67.6306 246.592C70.9906 246.592 73.4706 248.688 73.4706 252.272V253.952C73.4706 257.568 70.9906 259.648 67.6306 259.648H62.9106V246.592H67.6306ZM71.4066 253.872V252.352C71.4066 249.76 69.8386 248.464 67.6306 248.464H64.9746V257.76H67.6306C69.8386 257.76 71.4066 256.496 71.4066 253.872ZM86.0294 259.648H83.9174L82.5414 255.792H77.5654L76.1894 259.648H74.0774L78.7654 246.592H81.3254L86.0294 259.648ZM80.0614 248.768L78.2214 253.936H81.8854L80.0614 248.768ZM93.5661 246.592H95.8701L91.2141 254.576V259.648H89.1501V254.64L84.4781 246.592H86.7821L90.1741 252.672L93.5661 246.592ZM100.682 256.576L102.506 255.904C102.938 257.04 103.786 258.048 105.514 258.048C107.258 258.048 108.25 257.168 108.25 255.984C108.25 254.784 107.29 253.792 105.274 253.792H103.578V252.064H105.274C107.05 252.064 107.93 251.232 107.93 250.064C107.93 248.88 106.97 248.192 105.482 248.192C103.994 248.192 103.258 249.104 102.874 250.096L101.05 249.408C101.674 247.728 103.05 246.352 105.482 246.352C108.042 246.352 109.946 247.648 109.946 249.936C109.946 251.552 109.002 252.448 107.93 252.912C109.21 253.376 110.25 254.448 110.25 256.08C110.25 258.384 108.314 259.888 105.514 259.888C102.858 259.888 101.338 258.416 100.682 256.576Z" fill="black"/>
<path d="M67.5915 327.592C70.9515 327.592 73.4315 329.688 73.4315 333.272V334.952C73.4315 338.568 70.9515 340.648 67.5915 340.648H62.8715V327.592H67.5915ZM71.3675 334.872V333.352C71.3675 330.76 69.7995 329.464 67.5915 329.464H64.9355V338.76H67.5915C69.7995 338.76 71.3675 337.496 71.3675 334.872ZM85.9904 340.648H83.8784L82.5024 336.792H77.5264L76.1504 340.648H74.0384L78.7264 327.592H81.2864L85.9904 340.648ZM80.0224 329.768L78.1824 334.936H81.8464L80.0224 329.768ZM93.527 327.592H95.831L91.175 335.576V340.648H89.111V335.64L84.439 327.592H86.743L90.135 333.672L93.527 327.592ZM108.963 336.328H110.771V338.2H108.963V340.888H106.931V338.2H100.563V336.568L106.243 327.592H108.963V336.328ZM106.931 330.024L103.043 336.328H106.931V330.024Z" fill="black"/>
<path d="M0 377H990" stroke="black" stroke-width="3"/>
<path fill-rule="evenodd" clip-rule="evenodd" d="M612.552 277.13V273.742H616.542V267.12H607.568V273.742H611.558V277.13H606V278.054H618.096V277.13H612.552ZM608.562 268.03H615.534V272.846H608.562V268.03ZM629.817 271.39H621.837V267.764H629.691V266.854H620.843V272.286H629.817V271.39ZM631.371 274.358H619.275V275.268H624.833V279.244H625.827V275.268H631.371V274.358ZM644.899 271.222H642.757V266.168H641.749V279.09H642.757V272.146H644.899V271.222ZM633.055 268.184H638.011V268.464C638.011 271.488 636.037 274.526 632.845 276.668L633.447 277.452C636.877 275.1 639.005 271.922 639.005 268.268V267.274H633.055V268.184ZM659.422 268.786V266.168H658.428V272.496H659.422V269.71H661.578V268.786H659.422ZM655.978 269.402V269.178C655.978 267.358 654.522 266.462 652.702 266.462C650.854 266.462 649.398 267.358 649.398 269.178V269.402C649.398 271.208 650.854 272.118 652.702 272.118C654.522 272.118 655.978 271.208 655.978 269.402ZM650.392 269.374V269.192C650.392 268.016 651.358 267.358 652.702 267.358C654.018 267.358 654.97 268.016 654.97 269.192V269.374C654.97 270.578 654.018 271.208 652.702 271.208C651.358 271.208 650.392 270.578 650.392 269.374ZM652.394 276.682H659.422V273.42H651.316V274.274H658.428V275.814H651.386V279.16H659.968V278.278H652.394V276.682ZM674.854 271.222H672.698V266.168H671.704V279.09H672.698V272.146H674.854V271.222ZM669.184 271.152C669.184 268.086 667.728 266.868 665.936 266.868C664.13 266.868 662.674 268.086 662.674 271.152V273.084C662.674 276.15 664.13 277.368 665.936 277.368C667.728 277.368 669.184 276.15 669.184 273.084V271.152ZM668.176 271.152V273.07C668.176 275.478 667.224 276.444 665.936 276.444C664.634 276.444 663.668 275.478 663.668 273.07V271.152C663.668 268.744 664.634 267.792 665.936 267.792C667.224 267.792 668.176 268.744 668.176 271.152ZM688.129 270.116V269.192H685.973V266.168H684.979V279.09H685.973V274.442H688.129V273.518H685.973V270.116H688.129ZM682.459 271.152C682.459 268.086 681.003 266.868 679.211 266.868C677.405 266.868 675.949 268.086 675.949 271.152V273.084C675.949 276.15 677.405 277.368 679.211 277.368C681.003 277.368 682.459 276.15 682.459 273.084V271.152ZM681.451 271.152V273.07C681.451 275.478 680.499 276.444 679.211 276.444C677.909 276.444 676.943 275.478 676.943 273.07V271.152C676.943 268.744 677.909 267.792 679.211 267.792C680.499 267.792 681.451 268.744 681.451 271.152ZM700.021 267.386H696.773V266H695.779V267.386H692.531V268.226H700.021V267.386ZM702.653 269.192V266.168H701.659V272.902H702.653V270.116H704.809V269.192H702.653ZM699.419 271.012V270.844C699.419 269.584 698.047 268.926 696.297 268.926C694.547 268.926 693.161 269.584 693.161 270.844V271.012C693.161 272.272 694.547 272.944 696.297 272.944C698.047 272.944 699.419 272.272 699.419 271.012ZM694.155 270.998V270.886C694.155 270.2 695.093 269.766 696.297 269.766C697.487 269.766 698.439 270.2 698.439 270.886V270.998C698.439 271.67 697.487 272.104 696.297 272.104C695.093 272.104 694.155 271.67 694.155 270.998ZM695.625 276.864H702.653V273.812H694.547V274.638H701.659V276.038H694.617V279.146H703.185V278.306H695.625V276.864ZM719.067 266.168V279.09H720.061V266.168H719.067ZM710.023 268.184H715.119V268.464C715.119 271.488 713.103 274.54 709.827 276.668L710.415 277.452C713.943 275.114 716.127 271.922 716.127 268.268V267.274H710.023V268.184ZM728.968 273.588V271.936H732.832V266.42H731.824V268.338H725.104V266.42H724.11V271.936H727.974V273.588H722.416V274.512H734.512V273.588H728.968ZM725.104 269.206H731.824V271.054H725.104V269.206ZM725.104 275.604H724.11V279.09H733.168V278.166H725.104V275.604ZM749.848 273.238H747.748V268.044H749.848V267.12H740.454V268.044H742.554V273.238H740.454V274.162H749.848V273.238ZM743.534 268.044H746.768V273.238H743.534V268.044ZM739.096 277.13V278.054H751.192V277.13H739.096ZM758.923 277.13V274.358H763.193V273.462H754.933V271.166H762.913V267.12H753.869V268.03H761.905V270.27H753.939V274.358H757.929V277.13H752.371V278.054H764.467V277.13H758.923ZM775.026 268.17V268.632C775.026 270.13 774.718 272.776 774.284 275.072L775.264 275.24C775.698 272.93 776.02 270.34 776.02 268.408V267.26H767.032V268.17H775.026ZM765.646 277.13V278.054H777.742V277.13H765.646ZM789.03 266.168V271.222H787.028V266.378H786.048V278.852H787.028V272.146H789.03V279.09H790.01V266.168H789.03ZM781.232 276.304H780.35V272.594H784.172V267.204H779.384V268.114H783.192V271.684H779.384V277.214H781.064C782.786 277.214 783.864 277.102 785.082 276.878L784.97 275.996C783.668 276.206 782.632 276.304 781.232 276.304ZM802.123 273.238H803.117V266.182H802.123V273.238ZM792.897 272.524H799.085V266.868H792.897V272.524ZM793.877 271.614V267.778H798.091V271.614H793.877ZM797.559 279.216H800.289C802.179 279.216 803.313 278.096 803.313 276.626C803.313 275.17 802.179 274.022 800.289 274.022H797.559C795.669 274.022 794.549 275.17 794.549 276.626C794.549 278.096 795.669 279.216 797.559 279.216ZM800.079 278.32H797.769C796.271 278.32 795.543 277.592 795.543 276.612C795.543 275.674 796.271 274.918 797.769 274.918H800.079C801.591 274.918 802.305 275.674 802.305 276.612C802.305 277.592 801.591 278.32 800.079 278.32Z" fill="black"/>
</svg>
