<svg width="990" height="405" viewBox="0 0 990 405" fill="none" xmlns="http://www.w3.org/2000/svg">
<path d="M377.988 3.956C377.616 3.956 377.292 3.632 377.292 3.26C377.292 2.876 377.616 2.564 377.988 2.564C378.372 2.564 378.684 2.876 378.684 3.26C378.684 3.632 378.372 3.956 377.988 3.956ZM382.2 2.792L382.716 3.296L378.564 7.46L382.656 11.552L382.152 12.068L378.06 7.964L373.956 12.068L373.44 11.552L377.544 7.448L373.392 3.296L373.896 2.792L378.048 6.944L382.2 2.792ZM374.604 7.328C374.604 7.712 374.292 8.024 373.908 8.024C373.536 8.024 373.212 7.712 373.212 7.328C373.212 6.956 373.536 6.632 373.908 6.632C374.292 6.632 374.604 6.956 374.604 7.328ZM382.092 6.644C382.476 6.644 382.788 6.956 382.788 7.34C382.788 7.712 382.476 8.036 382.092 8.036C381.72 8.036 381.396 7.712 381.396 7.34C381.396 6.956 381.72 6.644 382.092 6.644ZM377.988 10.736C378.372 10.736 378.684 11.06 378.684 11.444C378.684 11.816 378.372 12.14 377.988 12.14C377.616 12.14 377.292 11.816 377.292 11.444C377.292 11.06 377.616 10.736 377.988 10.736ZM394.838 7.784H396.638V8.576H388.586V7.784H390.386V3.332H388.586V2.54H396.638V3.332H394.838V7.784ZM393.998 3.332H391.226V7.784H393.998V3.332ZM387.422 11.912V11.12H397.79V11.912H387.422ZM404.417 8.744V11.12H409.169V11.912H398.801V11.12H403.565V8.744H400.145V5.24H406.973V3.32H400.085V2.54H407.837V6.008H400.997V7.976H408.077V8.744H404.417ZM418.22 3.836V3.44H411.368V2.66H419.072V3.644C419.072 5.3 418.796 7.52 418.424 9.5L417.584 9.356C417.956 7.388 418.22 5.12 418.22 3.836ZM410.18 11.912V11.12H420.548V11.912H410.18ZM430.235 4.328V1.724H431.063V7.964H430.235V5.108H428.555V7.964H427.739V1.844H428.555V4.328H430.235ZM426.815 6.596L426.911 7.328C425.867 7.508 424.907 7.616 423.419 7.616H421.955V4.544H425.303V3.08H421.955V2.324H426.119V5.288H422.771V6.848H423.563C424.763 6.848 425.699 6.764 426.815 6.596ZM431.063 12.8H423.911V8.744H431.063V12.8ZM430.211 9.512H424.763V12.02H430.211V9.512ZM444.364 1.724H445.216V10.136H444.364V1.724ZM442.492 8.132L439.228 5.672C438.664 6.668 437.74 7.544 436.444 8.36L435.988 7.688C438.004 6.38 439.048 4.952 439.048 3.044V2.18H439.9V3.044C439.9 3.716 439.792 4.328 439.576 4.916L442.972 7.472L442.492 8.132ZM438.952 9.428V12.008H445.732V12.8H438.1V9.428H438.952ZM453.738 7.904L450.594 5.804C450.042 6.668 449.094 7.388 447.774 8.072L447.39 7.364C449.238 6.38 450.318 5.288 450.342 3.824H447.762V3.056H450.342V1.58H451.182V3.056H453.786V3.824H451.182C451.182 4.268 451.098 4.688 450.966 5.072L454.17 7.184L453.738 7.904ZM453.342 5.42V4.652H455.73V1.724H456.582V8.012H455.73V5.42H453.342ZM451.83 8.684H454.158C455.79 8.684 456.75 9.584 456.75 10.796C456.75 12.008 455.79 12.908 454.158 12.908H451.83C450.198 12.908 449.238 12.008 449.238 10.796C449.238 9.584 450.198 8.684 451.83 8.684ZM451.998 12.14H453.99C455.274 12.14 455.898 11.576 455.898 10.796C455.898 10.016 455.274 9.452 453.99 9.452H451.998C450.714 9.452 450.09 10.016 450.09 10.796C450.09 11.576 450.714 12.14 451.998 12.14ZM467.097 12.8V1.724H467.961V12.8H467.097ZM462.525 2.408V3.788C462.525 4.748 462.405 5.66 462.165 6.524L465.609 10.58L464.973 11.144L461.853 7.46C461.313 8.804 460.437 10.052 459.213 11.264L458.613 10.676C460.653 8.672 461.685 6.584 461.685 3.788V2.408H462.525ZM482.174 8.588L477.866 5.576C477.146 6.656 475.874 7.664 473.93 8.588L473.534 7.856C476.378 6.476 477.722 5 477.722 3.248V2.36H478.574V3.248C478.574 3.8 478.466 4.328 478.25 4.844L482.654 7.892L482.174 8.588ZM472.91 11.9V11.12H483.278V11.9H472.91ZM492.953 12.8V1.724H493.793V12.8H492.953ZM488.597 6.296H490.565V1.904H491.393V12.596H490.565V7.076H488.309C487.649 8.72 486.521 10.16 485.141 11.384L484.541 10.748C485.861 9.632 486.905 8.264 487.529 6.764C486.653 6.848 485.537 6.908 484.709 6.92H484.541L484.505 6.128H484.685C485.501 6.116 486.881 6.056 487.817 5.972C488.045 5.228 488.165 4.472 488.165 3.692V3.452H484.733V2.672H489.005V3.524C489.005 4.508 488.861 5.432 488.597 6.296ZM496.82 5.744L496.616 5.024C499.148 4.484 500.468 3.644 500.504 2.672H497.18V1.94H504.536V2.672H501.356C501.344 3.02 501.26 3.344 501.08 3.632L505.088 5.036L504.8 5.744L500.54 4.256C499.82 4.88 498.596 5.36 496.82 5.744ZM506.036 6.272V7.004H503.168V8.156H504.704V10.844H497.864V12.128H505.004V12.86H497.012V10.124H503.84V8.888H496.952V8.156H498.56V7.004H495.668V6.272H506.036ZM499.4 8.156H502.328V7.004H499.4V8.156ZM518.473 6.464H515.845V7.976H510.565V2.324H511.405V4.304H515.005V2.324H515.845V3.416H518.473V1.724H519.337V10.136H518.473V6.464ZM518.473 5.744V4.16H515.845V5.744H518.473ZM511.405 5.06V7.208H515.005V5.06H511.405ZM513.073 9.488V12.008H519.853V12.8H512.221V9.488H513.073ZM526.96 5.816V7.028H531.712V7.784H521.344V7.028H526.108V5.816H522.796V2H530.152V2.744H523.648V5.06H530.272V5.816H526.96ZM525.316 8.972H527.74C529.552 8.972 530.5 9.812 530.5 10.94C530.5 12.092 529.552 12.92 527.74 12.92H525.316C523.516 12.92 522.568 12.092 522.568 10.94C522.568 9.812 523.516 8.972 525.316 8.972ZM525.508 12.164H527.548C528.964 12.164 529.636 11.672 529.636 10.94C529.636 10.208 528.964 9.74 527.548 9.74H525.508C524.092 9.74 523.42 10.208 523.42 10.94C523.42 11.672 524.092 12.164 525.508 12.164ZM542.083 12.8H541.219V1.724H542.083V12.8ZM536.047 11.324C534.487 11.324 533.203 10.28 533.203 7.652V5.996C533.203 3.368 534.487 2.324 536.047 2.324C537.607 2.324 538.891 3.368 538.891 5.996V7.652C538.891 10.28 537.607 11.324 536.047 11.324ZM536.047 10.532C537.187 10.532 538.039 9.704 538.039 7.64V5.996C538.039 3.932 537.187 3.116 536.047 3.116C534.907 3.116 534.067 3.932 534.067 5.996V7.64C534.067 9.704 534.907 10.532 536.047 10.532ZM555.768 6.056H557.604V6.848H555.768V12.8H554.904V1.724H555.768V6.056ZM551.7 3.452H547.452V2.672H552.552V3.524C552.552 6.656 550.728 9.38 547.788 11.396L547.272 10.724C550.008 8.888 551.7 6.284 551.7 3.692V3.452ZM560.703 5.024H567.411V5.816H559.851V2H560.703V5.024ZM568.767 7.736H558.399V6.968H568.767V7.736ZM564.795 12.92H562.371C560.571 12.92 559.623 12.092 559.623 10.94C559.623 9.812 560.571 8.972 562.371 8.972H564.795C566.607 8.972 567.555 9.812 567.555 10.94C567.555 12.092 566.607 12.92 564.795 12.92ZM562.563 12.164H564.603C566.019 12.164 566.691 11.672 566.691 10.94C566.691 10.208 566.019 9.74 564.603 9.74H562.563C561.147 9.74 560.475 10.208 560.475 10.94C560.475 11.672 561.147 12.164 562.563 12.164ZM573.473 2.828H576.257V3.56H569.837V2.828H572.621V1.58H573.473V2.828ZM578.513 4.436H580.361V5.216H578.513V7.856H577.661V1.724H578.513V4.436ZM575.741 5.96V6.116C575.741 7.268 574.565 7.892 573.065 7.892C571.565 7.892 570.377 7.268 570.377 6.116V5.96C570.377 4.82 571.565 4.196 573.065 4.196C574.565 4.196 575.741 4.82 575.741 5.96ZM571.229 5.984V6.104C571.229 6.752 572.033 7.16 573.065 7.16C574.085 7.16 574.901 6.752 574.901 6.104V5.984C574.901 5.348 574.085 4.928 573.065 4.928C572.033 4.928 571.229 5.348 571.229 5.984ZM572.489 9.836H577.661V8.516H578.513V12.788H571.625V8.516H572.489V9.836ZM572.489 10.604V12.032H577.661V10.604H572.489ZM590.516 12.8H589.664V1.724H590.516V12.8ZM583.628 10.952H581.936V2.612H582.788V10.172H583.784C585.128 10.172 586.904 10.016 588.344 9.788L588.44 10.544C587.108 10.784 585.26 10.952 583.628 10.952ZM601.283 6.056H603.119V6.848H601.283V12.8H600.419V1.724H601.283V6.056ZM593.723 10.172H594.731C596.051 10.172 597.755 10.016 599.159 9.812L599.255 10.568C597.947 10.796 596.183 10.952 594.587 10.952H592.859V2.612H598.067V3.404H593.723V10.172ZM604.826 12.344C604.454 12.344 604.166 12.044 604.166 11.672C604.166 11.3 604.454 11.012 604.826 11.012C605.198 11.012 605.498 11.3 605.498 11.672C605.498 12.044 605.198 12.344 604.826 12.344ZM610.832 5.06C610.46 5.06 610.172 4.772 610.172 4.4C610.172 4.028 610.46 3.728 610.832 3.728C611.204 3.728 611.504 4.028 611.504 4.4C611.504 4.772 611.204 5.06 610.832 5.06ZM610.832 10.94C610.46 10.94 610.172 10.652 610.172 10.28C610.172 9.908 610.46 9.608 610.832 9.608C611.204 9.608 611.504 9.908 611.504 10.28C611.504 10.652 611.204 10.94 610.832 10.94ZM615.984 7.34C615.984 9.836 615.06 11.936 613.404 13.724L612.816 13.196C614.412 11.408 615.144 9.44 615.144 7.34C615.144 5.24 614.412 3.272 612.816 1.484L613.404 0.956C615.06 2.744 615.984 4.844 615.984 7.34Z" fill="#717171"/>
<rect x="420" y="117" width="570" height="40" fill="#F5F5F5"/>
<rect x="420" y="198" width="570" height="41" fill="#F5F5F5"/>
<rect x="420" y="280" width="570" height="41" fill="#F5F5F5"/>
<rect x="420" y="362" width="570" height="41" fill="#F5F5F5"/>
<rect y="31" width="990" height="44" fill="#02FF99"/>
<rect y="75" width="172" height="328" fill="#02FF99"/>
<path d="M0 31L990 30.9999" stroke="black" stroke-width="3"/>
<path d="M0 75H990" stroke="#ACACAC"/>
<path d="M172 198L990 198" stroke="#ACACAC"/>
<path d="M172 280L990 280" stroke="#ACACAC"/>
<path d="M172 362L990 362" stroke="#ACACAC"/>
<path d="M0 157H990" stroke="#ACACAC"/>
<path d="M420 117L990 116" stroke="#ACACAC"/>
<path d="M0 239H990" stroke="#ACACAC"/>
<path d="M0 321H990" stroke="#ACACAC"/>
<path d="M0 403H990" stroke="#ACACAC"/>
<path d="M172 31V403" stroke="#ACACAC"/>
<path d="M420 31V403" stroke="#ACACAC"/>
<path d="M68.8571 109.592C72.2171 109.592 74.6971 111.688 74.6971 115.272V116.952C74.6971 120.568 72.2171 122.648 68.8571 122.648H64.1371V109.592H68.8571ZM72.6331 116.872V115.352C72.6331 112.76 71.0651 111.464 68.8571 111.464H66.2011V120.76H68.8571C71.0651 120.76 72.6331 119.496 72.6331 116.872ZM87.256 122.648H85.144L83.768 118.792H78.792L77.416 122.648H75.304L79.992 109.592H82.552L87.256 122.648ZM81.288 111.768L79.448 116.936H83.112L81.288 111.768ZM94.7926 109.592H97.0966L92.4406 117.576V122.648H90.3766V117.64L85.7046 109.592H88.0086L91.4006 115.672L94.7926 109.592ZM107.397 122.648H105.333V112.296L102.661 114.392L101.509 112.872L105.701 109.592H107.397V122.648Z" fill="black"/>
<path d="M256.437 121.4H255.037V111.908L252.461 113.966L251.663 112.916L255.247 110.06H256.437V121.4ZM265.699 117.872H267.449V119.16H265.699V121.61H264.313V119.16H258.615V118.012L263.823 110.06H265.699V117.872ZM264.313 111.656L260.295 117.872H264.313V111.656ZM270.051 113.308C269.519 113.308 269.085 112.874 269.085 112.342C269.085 111.81 269.519 111.39 270.051 111.39C270.583 111.39 271.003 111.81 271.003 112.342C271.003 112.874 270.583 113.308 270.051 113.308ZM270.051 120.07C269.519 120.07 269.085 119.636 269.085 119.104C269.085 118.572 269.519 118.152 270.051 118.152C270.583 118.152 271.003 118.572 271.003 119.104C271.003 119.636 270.583 120.07 270.051 120.07ZM277.189 121.61C274.921 121.61 273.073 119.986 273.073 116.822V114.624C273.073 111.488 274.921 109.85 277.189 109.85C279.457 109.85 281.319 111.488 281.319 114.624V116.822C281.319 119.986 279.457 121.61 277.189 121.61ZM277.189 120.35C278.715 120.35 279.905 119.202 279.905 116.752V114.708C279.905 112.258 278.715 111.11 277.189 111.11C275.663 111.11 274.473 112.258 274.473 114.708V116.752C274.473 119.202 275.663 120.35 277.189 120.35ZM287.32 121.61C285.052 121.61 283.204 119.986 283.204 116.822V114.624C283.204 111.488 285.052 109.85 287.32 109.85C289.588 109.85 291.45 111.488 291.45 114.624V116.822C291.45 119.986 289.588 121.61 287.32 121.61ZM287.32 120.35C288.846 120.35 290.036 119.202 290.036 116.752V114.708C290.036 112.258 288.846 111.11 287.32 111.11C285.794 111.11 284.604 112.258 284.604 114.708V116.752C284.604 119.202 285.794 120.35 287.32 120.35ZM293.335 116.374V115.072H297.885V116.374H293.335ZM303.988 121.4H302.588V111.908L300.012 113.966L299.214 112.916L302.798 110.06H303.988V121.4ZM310.702 113.952C312.718 113.952 314.51 115.422 314.51 117.788C314.51 120.154 312.718 121.61 310.464 121.61C308.168 121.61 306.446 120.196 306.446 117.662V114.834C306.446 111.306 308.364 109.85 310.338 109.85C312.256 109.85 313.53 110.718 314.286 112.3L313.124 112.916C312.522 111.726 311.766 111.096 310.394 111.096C308.896 111.096 307.734 112.258 307.748 114.89V115.436C308.364 114.456 309.512 113.952 310.702 113.952ZM310.464 120.364C311.934 120.364 313.124 119.398 313.124 117.76C313.124 116.136 311.934 115.184 310.464 115.184C309.008 115.184 307.832 116.136 307.832 117.76C307.832 119.398 309.008 120.364 310.464 120.364ZM317.397 113.308C316.865 113.308 316.431 112.874 316.431 112.342C316.431 111.81 316.865 111.39 317.397 111.39C317.929 111.39 318.349 111.81 318.349 112.342C318.349 112.874 317.929 113.308 317.397 113.308ZM317.397 120.07C316.865 120.07 316.431 119.636 316.431 119.104C316.431 118.572 316.865 118.152 317.397 118.152C317.929 118.152 318.349 118.572 318.349 119.104C318.349 119.636 317.929 120.07 317.397 120.07ZM324.535 121.61C322.267 121.61 320.419 119.986 320.419 116.822V114.624C320.419 111.488 322.267 109.85 324.535 109.85C326.803 109.85 328.665 111.488 328.665 114.624V116.822C328.665 119.986 326.803 121.61 324.535 121.61ZM324.535 120.35C326.061 120.35 327.251 119.202 327.251 116.752V114.708C327.251 112.258 326.061 111.11 324.535 111.11C323.009 111.11 321.819 112.258 321.819 114.708V116.752C321.819 119.202 323.009 120.35 324.535 120.35ZM334.666 121.61C332.398 121.61 330.55 119.986 330.55 116.822V114.624C330.55 111.488 332.398 109.85 334.666 109.85C336.934 109.85 338.796 111.488 338.796 114.624V116.822C338.796 119.986 336.934 121.61 334.666 121.61ZM334.666 120.35C336.192 120.35 337.382 119.202 337.382 116.752V114.708C337.382 112.258 336.192 111.11 334.666 111.11C333.14 111.11 331.95 112.258 331.95 114.708V116.752C331.95 119.202 333.14 120.35 334.666 120.35Z" fill="black"/>
<path d="M585.05 102.1H584.056V89.178H585.05V102.1ZM577.07 99.944H575.04V90.214H581.256V91.138H576.034V99.034H577.238C578.806 99.034 580.85 98.852 582.516 98.6L582.628 99.482C581.088 99.748 578.974 99.944 577.07 99.944ZM597.597 94.232H599.739V95.156H597.597V102.1H596.603V89.178H597.597V94.232ZM591.577 91.194V91.936C591.577 92.972 591.451 93.938 591.199 94.862L595.021 99.496L594.251 100.168L590.821 95.982C590.205 97.494 589.239 98.894 587.923 100.308L587.195 99.636C589.323 97.34 590.597 95.128 590.597 91.936V91.194H587.699V90.284H594.503V91.194H591.577ZM611.601 102.1H610.593V89.178H611.601V102.1ZM604.559 100.378C602.739 100.378 601.241 99.16 601.241 96.094V94.162C601.241 91.096 602.739 89.878 604.559 89.878C606.379 89.878 607.877 91.096 607.877 94.162V96.094C607.877 99.16 606.379 100.378 604.559 100.378ZM604.559 99.454C605.889 99.454 606.883 98.488 606.883 96.08V94.162C606.883 91.754 605.889 90.802 604.559 90.802C603.229 90.802 602.249 91.754 602.249 94.162V96.08C602.249 98.488 603.229 99.454 604.559 99.454ZM623.882 93.42V89.178H624.876V102.1H623.882V94.344H619.472V93.42H623.882ZM615.86 99.034H617.022C618.59 99.034 620.662 98.852 622.342 98.586L622.454 99.468C620.9 99.748 618.744 99.944 616.84 99.944H614.866V90.214H615.86V99.034ZM637.55 94.372H639.566V95.282H637.55V102.1H636.556V89.178H637.55V94.372ZM631.488 96.822V98.978C632.748 98.922 634.134 98.81 635.324 98.656L635.436 99.538C633.546 99.804 631.054 99.972 629.206 99.972H627.078L627.036 99.048H629.262C629.626 99.048 630.032 99.034 630.48 99.02V96.836C628.856 96.682 627.596 95.59 627.596 93.518V93.224C627.596 90.956 629.094 89.878 630.914 89.878C632.734 89.878 634.232 90.956 634.232 93.224V93.518C634.232 95.534 633.042 96.612 631.488 96.822ZM628.604 93.238V93.504C628.604 95.114 629.584 95.94 630.914 95.94C632.244 95.94 633.224 95.114 633.224 93.504V93.238C633.224 91.614 632.244 90.788 630.914 90.788C629.584 90.788 628.604 91.614 628.604 93.238ZM653.837 102.1V89.178H654.831V102.1H653.837ZM649.889 91.194H644.793V90.284H650.897V91.278C650.897 94.932 648.713 98.124 645.185 100.462L644.597 99.678C647.873 97.55 649.889 94.498 649.889 91.474V91.194ZM661.989 90.34H665.279V91.166H657.705V90.34H660.981V89.01H661.989V90.34ZM667.099 97.536V89.178H668.093V97.536H667.099ZM665.881 96.122L665.979 96.92C664.033 97.2 661.499 97.354 659.595 97.354H657.355L657.299 96.528H659.651C660.043 96.528 660.505 96.514 660.995 96.5V95.492C659.455 95.38 658.335 94.792 658.335 93.728V93.574C658.335 92.398 659.721 91.81 661.513 91.81C663.263 91.81 664.649 92.398 664.649 93.574V93.728C664.649 94.792 663.515 95.38 662.003 95.492V96.458C663.277 96.388 664.677 96.276 665.881 96.122ZM659.315 93.616V93.714C659.315 94.316 660.267 94.708 661.513 94.708C662.717 94.708 663.669 94.316 663.669 93.714V93.616C663.669 93.014 662.717 92.608 661.513 92.608C660.267 92.608 659.315 93.014 659.315 93.616ZM667.099 99.328H659.525V98.446H668.093V102.226H667.099V99.328ZM680.654 94.232H682.796V95.156H680.654V102.1H679.66V89.178H680.654V94.232ZM674.634 91.194V91.936C674.634 92.972 674.508 93.938 674.256 94.862L678.078 99.496L677.308 100.168L673.878 95.982C673.262 97.494 672.296 98.894 670.98 100.308L670.252 99.636C672.38 97.34 673.654 95.128 673.654 91.936V91.194H670.756V90.284H677.56V91.194H674.634ZM694.419 94.288H685.431V91.474H693.145V90.242H685.361V89.43H694.153V92.258H686.425V93.504H694.419V94.288ZM695.833 96.15H683.737V95.338H695.833V96.15ZM694.629 102.17H685.305V99.258H693.271V98.026H685.235V97.214H694.279V100.07H686.299V101.344H694.629V102.17ZM710.329 102.1V89.192H711.323V102.1H710.329ZM704.659 95.674C702.783 95.674 701.271 94.736 701.271 92.832V92.594C701.271 90.676 702.783 89.738 704.659 89.738C706.521 89.738 708.033 90.676 708.033 92.594V92.832C708.033 94.736 706.521 95.674 704.659 95.674ZM702.279 92.608V92.818C702.279 94.092 703.273 94.792 704.659 94.792C706.031 94.792 707.025 94.092 707.025 92.818V92.608C707.025 91.32 706.031 90.634 704.659 90.634C703.273 90.634 702.279 91.32 702.279 92.608ZM709.097 96.92L709.209 97.816C707.991 97.984 706.535 98.11 705.149 98.18C705.051 99.468 704.911 100.798 704.743 102.212L703.763 102.1C703.917 100.742 704.057 99.468 704.141 98.222C703.679 98.236 703.245 98.25 702.825 98.25H700.585L700.529 97.326H702.881C704.477 97.326 707.067 97.172 709.097 96.92ZM718.004 90.634H721.252V91.502H713.762V90.634H717.01V89.01H718.004V90.634ZM723.884 89.178V93.14H726.04V94.078H723.884V99.118H722.89V89.178H723.884ZM720.65 94.792V95.03C720.65 96.57 719.278 97.452 717.528 97.452C715.778 97.452 714.392 96.57 714.392 95.03V94.792C714.392 93.252 715.778 92.398 717.528 92.398C719.278 92.398 720.65 93.252 720.65 94.792ZM715.386 94.82V95.016C715.386 95.968 716.324 96.57 717.528 96.57C718.718 96.57 719.67 95.968 719.67 95.016V94.82C719.67 93.868 718.718 93.266 717.528 93.266C716.324 93.266 715.386 93.868 715.386 94.82ZM715.848 98.614H716.856V101.176H724.626V102.086H715.848V98.614ZM739.962 93.672C740.032 92.86 740.074 92.146 740.074 91.614V91.18H731.744V90.27H741.068V91.39C741.068 93.21 740.76 95.856 740.354 98.054L739.374 97.886C739.57 96.836 739.752 95.674 739.864 94.596C737.862 94.792 734.656 94.932 732.696 94.932H731.716L731.674 94.022H732.766C734.488 94.022 737.89 93.896 739.962 93.672ZM736.182 96.29V100.14H742.468V101.064H730.372V100.14H735.188V96.29H736.182ZM754.568 96.248H753.574V89.192H754.568V96.248ZM746.588 95.716H744.558V89.878H750.774V90.788H745.552V94.806H746.77C748.338 94.806 750.382 94.624 752.034 94.372L752.16 95.254C750.606 95.52 748.492 95.716 746.588 95.716ZM751.74 102.226H749.024C747.12 102.226 746 101.106 746 99.636C746 98.18 747.12 97.032 749.024 97.032H751.74C753.644 97.032 754.764 98.18 754.764 99.636C754.764 101.106 753.644 102.226 751.74 102.226ZM749.22 101.33H751.544C753.042 101.33 753.77 100.602 753.77 99.622C753.77 98.684 753.042 97.928 751.544 97.928H749.22C747.722 97.928 746.994 98.684 746.994 99.622C746.994 100.602 747.722 101.33 749.22 101.33ZM757.651 95.73C757.651 92.818 758.729 90.368 760.661 88.282L761.347 88.898C759.485 90.984 758.631 93.28 758.631 95.73C758.631 98.18 759.485 100.476 761.347 102.562L760.661 103.178C758.729 101.092 757.651 98.642 757.651 95.73ZM770.948 96.248H773.048V97.172H763.654V96.248H765.754V91.054H763.654V90.13H773.048V91.054H770.948V96.248ZM769.968 91.054H766.734V96.248H769.968V91.054ZM762.296 101.064V100.14H774.392V101.064H762.296ZM782.123 97.368V100.14H787.667V101.064H775.571V100.14H781.129V97.368H777.139V93.28H785.105V91.04H777.069V90.13H786.113V94.176H778.133V96.472H786.393V97.368H782.123ZM798.227 91.642V91.18H790.233V90.27H799.221V91.418C799.221 93.35 798.899 95.94 798.465 98.25L797.485 98.082C797.919 95.786 798.227 93.14 798.227 91.642ZM788.847 101.064V100.14H800.943V101.064H788.847ZM812.23 94.232V89.178H813.21V102.1H812.23V95.156H810.228V101.862H809.248V89.388H810.228V94.232H812.23ZM803.55 99.314H804.432C805.832 99.314 806.868 99.216 808.17 99.006L808.282 99.888C807.064 100.112 805.986 100.224 804.264 100.224H802.584V94.694H806.392V91.124H802.584V90.214H807.372V95.604H803.55V99.314ZM826.318 96.248H825.324V89.192H826.318V96.248ZM822.286 95.534H816.098V89.878H822.286V95.534ZM817.078 90.788V94.624H821.292V90.788H817.078ZM823.49 102.226H820.76C818.87 102.226 817.75 101.106 817.75 99.636C817.75 98.18 818.87 97.032 820.76 97.032H823.49C825.38 97.032 826.514 98.18 826.514 99.636C826.514 101.106 825.38 102.226 823.49 102.226ZM820.97 101.33H823.28C824.792 101.33 825.506 100.602 825.506 99.622C825.506 98.684 824.792 97.928 823.28 97.928H820.97C819.472 97.928 818.744 98.684 818.744 99.622C818.744 100.602 819.472 101.33 820.97 101.33ZM832.145 95.73C832.145 98.642 831.067 101.092 829.135 103.178L828.449 102.562C830.311 100.476 831.165 98.18 831.165 95.73C831.165 93.28 830.311 90.984 828.449 88.898L829.135 88.282C831.067 90.368 832.145 92.818 832.145 95.73Z" fill="black"/>
<path d="M570.967 136.4L566.067 134.174C565.227 135.042 563.827 135.784 561.769 136.4L561.447 135.532C564.443 134.622 565.983 133.418 565.983 132.018V131.36H566.963V132.018C566.963 132.508 566.851 132.97 566.627 133.404L571.359 135.574L570.967 136.4ZM572.451 137.394V138.276H566.907V140.04H570.897V144.24H569.889V140.95H561.923V140.04H565.913V138.276H560.355V137.394H572.451ZM584.438 139.06L579.398 135.616C578.572 136.862 577.074 138.01 574.82 139.06L574.358 138.192C577.676 136.624 579.244 134.944 579.244 132.942V131.92H580.238V132.942C580.238 133.572 580.112 134.174 579.86 134.762L584.998 138.234L584.438 139.06ZM580.182 138.696V142.14H585.726V143.05H573.63V142.14H579.188V138.696H580.182ZM600.404 144.1V131.178H601.384V144.1H600.404ZM593.866 134.3V134.496C593.866 135.406 593.768 136.26 593.586 137.086L596.666 141.566L595.868 142.154L593.236 138.29C592.76 139.662 591.99 140.964 590.912 142.308L590.17 141.692C591.962 139.424 592.9 137.31 592.9 134.496V134.3H590.562V133.39H592.9V131.192H593.88V133.39H596.26V134.3H593.866ZM595.336 136.372H597.618V131.388H598.584V143.862H597.618V137.282H595.336V136.372ZM613.007 135.868C613.091 135 613.133 134.216 613.133 133.642V133.18H605.083V132.27H614.127V133.418C614.127 135.35 613.805 138.136 613.371 140.46L612.391 140.278C612.601 139.172 612.783 137.94 612.909 136.792C610.949 137.002 607.883 137.114 605.965 137.114H605.055L605.013 136.204H606.021C607.743 136.204 610.977 136.078 613.007 135.868ZM603.585 143.064V142.14H615.681V143.064H603.585ZM627.794 140.992H626.786V131.178H627.794V140.992ZM620.794 138.668C618.932 138.668 617.42 137.576 617.42 135.294V135C617.42 132.704 618.932 131.598 620.794 131.598C622.628 131.598 624.14 132.704 624.14 135V135.294C624.14 137.576 622.628 138.668 620.794 138.668ZM620.794 137.772C622.138 137.772 623.146 136.932 623.146 135.28V135C623.146 133.348 622.138 132.494 620.794 132.494C619.436 132.494 618.428 133.348 618.428 135V135.28C618.428 136.932 619.436 137.772 620.794 137.772ZM628.396 144.1H619.478V139.97H620.486V143.176H628.396V144.1ZM630.864 137.73C630.864 134.818 631.942 132.368 633.874 130.282L634.56 130.898C632.698 132.984 631.844 135.28 631.844 137.73C631.844 140.18 632.698 142.476 634.56 144.562L633.874 145.178C631.942 143.092 630.864 140.642 630.864 137.73ZM642.061 138.962V142.14H647.605V143.05H635.509V142.14H641.067V138.962H640.647C638.281 138.962 636.825 137.408 636.825 135.434C636.825 133.46 638.281 131.92 640.647 131.92H642.481C644.833 131.92 646.303 133.46 646.303 135.434C646.303 137.408 644.833 138.962 642.481 138.962H642.061ZM637.833 135.434C637.833 136.918 638.911 138.052 640.801 138.052H642.313C644.203 138.052 645.295 136.904 645.295 135.434C645.295 133.95 644.203 132.844 642.313 132.844H640.801C638.911 132.844 637.833 133.95 637.833 135.434ZM658.696 144.1V131.178H659.69V144.1H658.696ZM655.322 133.138V140.824C656.036 140.754 656.75 140.656 657.422 140.558L657.534 141.468C655.532 141.776 653.124 141.958 651.164 141.958H649.12L649.064 141.034H650.8V133.138H649.232V132.214H656.89V133.138H655.322ZM654.328 140.908V133.138H651.78V141.034C652.536 141.02 653.418 140.978 654.328 140.908ZM672.868 139.186L667.842 135.672C667.002 136.932 665.518 138.108 663.25 139.186L662.788 138.332C666.106 136.722 667.674 135 667.674 132.956V131.92H668.668V132.956C668.668 133.6 668.542 134.216 668.29 134.818L673.428 138.374L672.868 139.186ZM662.06 143.05V142.14H674.156V143.05H662.06ZM685.429 144.1V131.178H686.409V144.1H685.429ZM680.361 136.106H682.643V131.388H683.609V143.862H682.643V137.016H680.361V136.106ZM678.891 133.194V134.048C678.891 135.07 678.793 136.036 678.583 136.946L681.677 141.58L680.879 142.154L678.233 138.192C677.743 139.606 676.987 140.95 675.965 142.308L675.195 141.692C676.959 139.382 677.939 137.156 677.939 134.048V133.194H675.643V132.284H681.229V133.194H678.891ZM689.982 137.94L689.618 137.072C692.684 135.924 694.238 134.566 694.238 132.984V132.774H690.304V131.864H699.026V132.774H695.246V132.984C695.246 133.516 695.134 134.02 694.896 134.496L699.684 137.086L699.236 137.94L694.392 135.28C693.566 136.274 692.124 137.156 689.982 137.94ZM688.61 139.368H700.706V140.278H695.162V144.254H694.168V140.278H688.61V139.368ZM716.21 144.1H715.202V131.178H716.21V144.1ZM709.168 142.378C707.348 142.378 705.85 141.16 705.85 138.094V136.162C705.85 133.096 707.348 131.878 709.168 131.878C710.988 131.878 712.486 133.096 712.486 136.162V138.094C712.486 141.16 710.988 142.378 709.168 142.378ZM709.168 141.454C710.498 141.454 711.492 140.488 711.492 138.08V136.162C711.492 133.754 710.498 132.802 709.168 132.802C707.838 132.802 706.858 133.754 706.858 136.162V138.08C706.858 140.488 707.838 141.454 709.168 141.454ZM727.162 135.84V137.436H730.662V138.318H718.566V137.436H722.08V135.84C720.806 135.518 720.064 134.804 720.064 133.684C720.064 132.13 721.478 131.36 723.718 131.36H725.524C727.764 131.36 729.178 132.13 729.178 133.684C729.178 134.804 728.436 135.518 727.162 135.84ZM721.058 133.684C721.058 134.636 722.052 135.154 723.886 135.154H725.356C727.176 135.154 728.17 134.608 728.17 133.684C728.17 132.746 727.176 132.242 725.356 132.242H723.886C722.052 132.242 721.058 132.746 721.058 133.684ZM723.046 135.98V137.436H726.196V135.98C725.986 136.022 723.256 136.022 723.046 135.98ZM723.2 139.634H726.028C728.142 139.634 729.248 140.614 729.248 141.93C729.248 143.26 728.142 144.24 726.028 144.24H723.2C721.1 144.24 719.994 143.26 719.994 141.93C719.994 140.614 721.1 139.634 723.2 139.634ZM723.424 143.344H725.804C727.456 143.344 728.24 142.784 728.24 141.93C728.24 141.076 727.456 140.53 725.804 140.53H723.424C721.772 140.53 720.988 141.076 720.988 141.93C720.988 142.784 721.772 143.344 723.424 143.344ZM742.033 136.232H744.175V137.156H742.033V144.1H741.025V131.178H742.033V136.232ZM735.957 131.976V133.6C735.957 134.72 735.817 135.77 735.551 136.778L739.415 141.524L738.673 142.168L735.187 137.884C734.585 139.438 733.605 140.894 732.233 142.308L731.533 141.636C733.815 139.298 734.977 136.834 734.977 133.6V131.976H735.957ZM749.428 132.494H752.676V133.348H745.186V132.494H748.434V131.01H749.428V132.494ZM755.308 131.178V134.468H757.464V135.392H755.308V138.668H754.314V131.178H755.308ZM752.074 136.246V136.442C752.074 137.828 750.702 138.57 748.952 138.57C747.202 138.57 745.816 137.828 745.816 136.442V136.246C745.816 134.874 747.202 134.132 748.952 134.132C750.702 134.132 752.074 134.874 752.074 136.246ZM746.81 136.288V136.428C746.81 137.24 747.748 137.73 748.952 137.73C750.142 137.73 751.094 137.24 751.094 136.428V136.288C751.094 135.49 750.142 134.972 748.952 134.972C747.748 134.972 746.81 135.49 746.81 136.288ZM750.016 139.438H752.62C754.51 139.438 755.63 140.46 755.63 141.846C755.63 143.232 754.51 144.226 752.62 144.226H750.016C748.126 144.226 746.992 143.232 746.992 141.846C746.992 140.46 748.126 139.438 750.016 139.438ZM750.198 143.33H752.424C753.908 143.33 754.622 142.714 754.622 141.832C754.622 140.964 753.908 140.348 752.424 140.348H750.198C748.728 140.348 748 140.964 748 141.832C748 142.714 748.728 143.33 750.198 143.33ZM768.348 138.962V142.14H773.892V143.05H761.796V142.14H767.354V138.962H766.934C764.568 138.962 763.112 137.408 763.112 135.434C763.112 133.46 764.568 131.92 766.934 131.92H768.768C771.12 131.92 772.59 133.46 772.59 135.434C772.59 137.408 771.12 138.962 768.768 138.962H768.348ZM764.12 135.434C764.12 136.918 765.198 138.052 767.088 138.052H768.6C770.49 138.052 771.582 136.904 771.582 135.434C771.582 133.95 770.49 132.844 768.6 132.844H767.088C765.198 132.844 764.12 133.95 764.12 135.434ZM785.991 144.1H784.997V131.178H785.991V144.1ZM778.025 142.224H775.841V136.694H780.853V133.124H775.841V132.214H781.861V137.604H776.835V141.314H778.193C779.775 141.314 781.819 141.132 783.443 140.88L783.569 141.748C782.043 142.042 779.929 142.224 778.025 142.224ZM798.483 131.178H799.449V140.992H798.483V131.178ZM795.753 135.392H794.017C793.989 137.59 792.827 138.668 791.329 138.668C789.775 138.668 788.613 137.562 788.613 135.294V135C788.613 132.704 789.775 131.598 791.329 131.598C792.729 131.598 793.835 132.536 793.989 134.482H795.753V131.318H796.705V140.572H795.753V135.392ZM789.551 135.014V135.28C789.551 136.904 790.307 137.772 791.329 137.772C792.323 137.772 793.065 136.904 793.065 135.28V135.014C793.065 133.362 792.323 132.494 791.329 132.494C790.307 132.494 789.551 133.362 789.551 135.014ZM791.959 140.166V143.176H800.051V144.1H790.965V140.166H791.959ZM811.73 144.1V131.178H812.71V144.1H811.73ZM807.194 136.372H808.944V131.388H809.91V143.862H808.944V137.282H807.194V136.372ZM803.008 141.314H803.876C805.234 141.314 806.354 141.216 807.67 141.006L807.782 141.888C806.55 142.098 805.388 142.224 803.68 142.224H802.014V132.214H806.802V133.124H803.008V136.694H806.662V137.604H803.008V141.314ZM825.818 144.1H824.81V131.178H825.818V144.1ZM818.776 142.378C816.956 142.378 815.458 141.16 815.458 138.094V136.162C815.458 133.096 816.956 131.878 818.776 131.878C820.596 131.878 822.094 133.096 822.094 136.162V138.094C822.094 141.16 820.596 142.378 818.776 142.378ZM818.776 141.454C820.106 141.454 821.1 140.488 821.1 138.08V136.162C821.1 133.754 820.106 132.802 818.776 132.802C817.446 132.802 816.466 133.754 816.466 136.162V138.08C816.466 140.488 817.446 141.454 818.776 141.454ZM839.093 140.992H838.099V136.582H835.313V135.728H838.099V134.02H835.313V133.152H838.099V131.178H839.093V140.992ZM836.041 138.108L835.453 138.864L831.925 135.882C831.309 137.044 830.301 138.094 828.887 139.06L828.327 138.29C830.539 136.736 831.701 135.014 831.701 132.732V131.71H832.681V132.732C832.681 133.53 832.555 134.272 832.317 134.972L836.041 138.108ZM831.785 140.166V143.176H839.695V144.1H830.791V140.166H831.785ZM844.92 137.73C844.92 140.642 843.842 143.092 841.91 145.178L841.224 144.562C843.086 142.476 843.94 140.18 843.94 137.73C843.94 135.28 843.086 132.984 841.224 130.898L841.91 130.282C843.842 132.368 844.92 134.818 844.92 137.73Z" fill="black"/>
<path d="M622.307 175.232V170.178H623.287V183.1H622.307V176.156H620.305V182.862H619.325V170.388H620.305V175.232H622.307ZM616.581 172.194H612.759V171.284H617.575V172.278C617.575 175.932 615.853 179.04 613.235 181.462L612.521 180.734C614.999 178.522 616.581 175.498 616.581 172.474V172.194ZM635.681 170.178V172.796H637.823V173.72H635.681V176.576H634.673V170.178H635.681ZM630.851 170.738H631.831V176.058H625.783V170.738H626.763V172.474H630.851V170.738ZM626.763 173.356V175.176H630.851V173.356H626.763ZM635.681 180.72H628.639V182.288H636.213V183.17H627.631V179.866H634.673V178.354H627.561V177.486H635.681V180.72ZM648.942 175.232H651.084V176.156H648.942V183.1H647.948V170.178H648.942V175.232ZM642.922 172.194V172.936C642.922 173.972 642.796 174.938 642.544 175.862L646.366 180.496L645.596 181.168L642.166 176.982C641.55 178.494 640.584 179.894 639.268 181.308L638.54 180.636C640.668 178.34 641.942 176.128 641.942 172.936V172.194H639.044V171.284H645.848V172.194H642.922ZM662.708 175.288H653.72V172.474H661.434V171.242H653.65V170.43H662.442V173.258H654.714V174.504H662.708V175.288ZM664.122 177.15H652.026V176.338H664.122V177.15ZM662.918 183.17H653.594V180.258H661.56V179.026H653.524V178.214H662.568V181.07H654.588V182.344H662.918V183.17ZM678.617 183.1V170.192H679.611V183.1H678.617ZM672.947 176.674C671.071 176.674 669.559 175.736 669.559 173.832V173.594C669.559 171.676 671.071 170.738 672.947 170.738C674.809 170.738 676.321 171.676 676.321 173.594V173.832C676.321 175.736 674.809 176.674 672.947 176.674ZM670.567 173.608V173.818C670.567 175.092 671.561 175.792 672.947 175.792C674.319 175.792 675.313 175.092 675.313 173.818V173.608C675.313 172.32 674.319 171.634 672.947 171.634C671.561 171.634 670.567 172.32 670.567 173.608ZM677.385 177.92L677.497 178.816C676.279 178.984 674.823 179.11 673.437 179.18C673.339 180.468 673.199 181.798 673.031 183.212L672.051 183.1C672.205 181.742 672.345 180.468 672.429 179.222C671.967 179.236 671.533 179.25 671.113 179.25H668.873L668.817 178.326H671.169C672.765 178.326 675.355 178.172 677.385 177.92ZM686.293 171.634H689.541V172.502H682.051V171.634H685.299V170.01H686.293V171.634ZM692.173 170.178V174.14H694.329V175.078H692.173V180.118H691.179V170.178H692.173ZM688.939 175.792V176.03C688.939 177.57 687.567 178.452 685.817 178.452C684.067 178.452 682.681 177.57 682.681 176.03V175.792C682.681 174.252 684.067 173.398 685.817 173.398C687.567 173.398 688.939 174.252 688.939 175.792ZM683.675 175.82V176.016C683.675 176.968 684.613 177.57 685.817 177.57C687.007 177.57 687.959 176.968 687.959 176.016V175.82C687.959 174.868 687.007 174.266 685.817 174.266C684.613 174.266 683.675 174.868 683.675 175.82ZM684.137 179.614H685.145V182.176H692.915V183.086H684.137V179.614ZM703.448 182.568C701.012 182.568 699.136 181.07 699.136 178.032V171.102H700.158V177.906C700.158 180.538 701.516 181.63 703.448 181.63C705.38 181.63 706.738 180.538 706.738 177.906V171.102H707.746V178.032C707.746 181.07 705.87 182.568 703.448 182.568ZM710.974 182.358H709.952V171.102H710.974V182.358ZM713.345 184.318H712.295L717.195 169.702H718.245L713.345 184.318ZM723.806 182.568C721.37 182.568 719.494 181.07 719.494 178.032V171.102H720.516V177.906C720.516 180.538 721.874 181.63 723.806 181.63C725.738 181.63 727.096 180.538 727.096 177.906V171.102H728.104V178.032C728.104 181.07 726.228 182.568 723.806 182.568ZM730.523 182.358H729.333L733.365 176.534L729.613 171.102H730.803L733.953 175.68L737.117 171.102H738.307L734.541 176.534L738.573 182.358H737.383L733.953 177.388L730.523 182.358ZM753.067 170.178V172.796H755.209V173.72H753.067V176.506H752.059V170.178H753.067ZM750.001 176.296L746.291 174C745.647 174.98 744.583 175.82 743.099 176.576L742.637 175.75C744.877 174.56 746.095 173.216 746.095 171.368V170.626H747.075V171.368C747.075 172.012 746.963 172.614 746.739 173.16L750.519 175.498L750.001 176.296ZM753.067 180.692H746.025V182.288H753.599V183.17H745.031V179.824H752.059V178.284H744.961V177.43H753.067V180.692ZM766.063 173.79V170.178H767.057V183.1H766.063V177.682H763.683V176.758H766.063V174.7H763.683V173.79H766.063ZM762.353 172.138V179.838C763.095 179.768 763.851 179.684 764.551 179.586L764.663 180.482C762.731 180.776 760.393 180.958 758.461 180.958H756.486L756.431 180.034H758.111V172.138H756.585V171.214H764.019V172.138H762.353ZM761.373 179.922V172.138H759.077V180.034C759.777 180.02 760.561 179.978 761.373 179.922ZM775.978 178.032V181.14H781.522V182.064H769.426V181.14H774.984V178.032H770.994V171.06H771.988V173.664H778.96V171.06H779.968V178.032H775.978ZM778.96 174.588H771.988V177.122H778.96V174.588ZM792.627 183.1V170.178H793.621V183.1H792.627ZM788.679 172.194H783.583V171.284H789.687V172.278C789.687 175.932 787.503 179.124 783.975 181.462L783.387 180.678C786.663 178.55 788.679 175.498 788.679 172.474V172.194Z" fill="black"/>
<path d="M658.696 225.1V212.178H659.69V225.1H658.696ZM655.322 214.138V221.824C656.036 221.754 656.75 221.656 657.422 221.558L657.534 222.468C655.532 222.776 653.124 222.958 651.164 222.958H649.12L649.064 222.034H650.8V214.138H649.232V213.214H656.89V214.138H655.322ZM654.328 221.908V214.138H651.78V222.034C652.536 222.02 653.418 221.978 654.328 221.908ZM671.44 214.642V214.18H663.446V213.27H672.434V214.418C672.434 216.35 672.112 218.94 671.678 221.25L670.698 221.082C671.132 218.786 671.44 216.14 671.44 214.642ZM662.06 224.064V223.14H674.156V224.064H662.06ZM685.541 217.232H687.683V218.156H685.541V225.1H684.533V212.178H685.541V217.232ZM681.691 222.972H675.643V213.214H681.691V222.972ZM680.697 214.138H676.637V222.048H680.697V214.138ZM695.162 220.368V223.14H700.706V224.064H688.61V223.14H694.168V220.368H690.178V216.28H698.144V214.04H690.108V213.13H699.152V217.176H691.172V219.472H699.432V220.368H695.162ZM709.742 213.466H712.836V214.32H705.64V213.466H708.72V212.01H709.742V213.466ZM715.202 215.118V212.178H716.196V219.332H715.202V218.31H712.822V217.47H715.202V215.944H712.822V215.118H715.202ZM712.248 217.12V217.302C712.248 218.646 710.946 219.374 709.252 219.374C707.544 219.374 706.256 218.646 706.256 217.302V217.12C706.256 215.79 707.544 215.062 709.252 215.062C710.946 215.062 712.248 215.79 712.248 217.12ZM707.208 217.148V217.288C707.208 218.03 708.09 218.52 709.252 218.52C710.4 218.52 711.282 218.03 711.282 217.288V217.148C711.282 216.406 710.4 215.916 709.252 215.916C708.09 215.916 707.208 216.406 707.208 217.148ZM708.888 221.642H715.202V220.102H716.196V225.086H707.894V220.102H708.888V221.642ZM708.888 222.538V224.204H715.202V222.538H708.888ZM728.478 215.076V212.178H729.486V218.926H728.478V215.986H725.818C725.65 217.68 724.222 218.534 722.486 218.534C720.624 218.534 719.126 217.568 719.126 215.65V215.412C719.126 213.48 720.624 212.528 722.486 212.528C724.222 212.528 725.65 213.368 725.818 215.076H728.478ZM724.838 215.636V215.426C724.838 214.124 723.844 213.438 722.486 213.438C721.114 213.438 720.134 214.124 720.134 215.426V215.636C720.134 216.924 721.114 217.624 722.486 217.624C723.844 217.624 724.838 216.924 724.838 215.636ZM722.178 221.418H728.478V219.696H729.486V225.1H721.184V219.696H722.178V221.418ZM722.178 222.314V224.19H728.478V222.314H722.178ZM742.033 217.232H744.189V218.156H742.033V225.1H741.039V212.178H742.033V217.232ZM735.159 212.192H736.153V214.236H739.401V215.146H731.911V214.236H735.159V212.192ZM735.677 216.476C737.413 216.476 738.785 217.624 738.785 219.5V220.242C738.785 222.104 737.413 223.28 735.677 223.28C733.927 223.28 732.541 222.104 732.541 220.242V219.5C732.541 217.624 733.927 216.476 735.677 216.476ZM737.791 220.2V219.542C737.791 218.198 736.853 217.4 735.677 217.4C734.473 217.4 733.549 218.198 733.549 219.542V220.2C733.549 221.544 734.473 222.37 735.677 222.37C736.853 222.37 737.791 221.544 737.791 220.2ZM755.042 225.1V212.178H756.036V225.1H755.042ZM751.094 214.194H745.998V213.284H752.102V214.278C752.102 217.932 749.918 221.124 746.39 223.462L745.802 222.678C749.078 220.55 751.094 217.498 751.094 214.474V214.194Z" fill="black"/>
<path d="M645.827 257.372H647.843V258.282H645.827V265.1H644.833V252.178H645.827V257.372ZM639.765 253.83H642.971V254.684H635.537V253.83H638.757V252.192H639.765V253.83ZM639.835 260.634V262.398C641.081 262.328 642.439 262.216 643.601 262.062L643.713 262.944C641.823 263.196 639.331 263.378 637.483 263.378H635.355L635.313 262.468H637.539C637.917 262.468 638.351 262.454 638.827 262.44V260.648C637.287 260.508 636.167 259.654 636.167 258.254V258.016C636.167 256.462 637.511 255.608 639.275 255.608C641.011 255.608 642.355 256.462 642.355 258.016V258.254C642.355 259.626 641.291 260.466 639.835 260.634ZM637.147 258.044V258.24C637.147 259.22 638.071 259.822 639.275 259.822C640.465 259.822 641.375 259.22 641.375 258.24V258.044C641.375 257.064 640.465 256.448 639.275 256.448C638.071 256.448 637.147 257.064 637.147 258.044ZM659.354 257.792L654.496 255.342C653.67 256.28 652.27 257.092 650.212 257.792L649.862 256.91C652.872 255.888 654.412 254.6 654.412 253.088V252.36H655.392V253.088C655.392 253.606 655.28 254.096 655.042 254.558L659.788 256.952L659.354 257.792ZM648.784 259.976V259.052H660.88V259.976H655.336V262.608H654.342V259.976H648.784ZM650.422 261.348H651.43V264.176H659.536V265.1H650.422V261.348ZM671.972 256.98L671.006 256.84C671.272 255.552 671.412 254.194 671.412 253.55H663.684V252.64H672.406V253.284C672.406 254.278 672.266 255.636 671.972 256.98ZM668.136 255.286V257.82H674.156V258.716H662.06V257.82H667.142V255.286H668.136ZM668.696 261.292V261.362C668.696 261.768 668.584 262.146 668.374 262.496L673.218 264.386L672.882 265.24L667.758 263.224C666.834 264.064 665.266 264.722 663.32 265.24L663.026 264.386C665.7 263.644 667.688 262.622 667.688 261.362V261.292H663.628V260.41H672.602V261.292H668.696ZM685.527 257.232H687.669V258.156H685.527V265.1H684.533V252.178H685.527V257.232ZM679.507 254.194V254.936C679.507 255.972 679.381 256.938 679.129 257.862L682.951 262.496L682.181 263.168L678.751 258.982C678.135 260.494 677.169 261.894 675.853 263.308L675.125 262.636C677.253 260.34 678.527 258.128 678.527 254.936V254.194H675.629V253.284H682.433V254.194H679.507ZM698.928 252.178V255.482H700.944V256.392H698.928V258.912H697.934V252.178H698.928ZM696.702 257.498L696.814 258.338C694.924 258.604 692.432 258.758 690.584 258.758H688.456L688.414 257.89H690.64C691.004 257.89 691.41 257.876 691.858 257.862V256.588C690.22 256.476 689.002 255.79 689.002 254.6V254.474C689.002 253.158 690.458 252.472 692.32 252.472C694.168 252.472 695.638 253.158 695.638 254.474V254.6C695.638 255.776 694.448 256.448 692.866 256.574V257.82C694.126 257.764 695.512 257.652 696.702 257.498ZM689.982 254.502V254.586C689.982 255.286 690.948 255.748 692.32 255.748C693.692 255.748 694.644 255.286 694.644 254.586V254.502C694.644 253.774 693.692 253.326 692.32 253.326C690.948 253.326 689.982 253.774 689.982 254.502ZM698.928 262.888H691.76V264.302H699.474V265.17H690.766V262.048H697.934V260.676H690.696V259.822H698.928V262.888ZM715.482 257.232H717.624V258.156H715.482V265.1H714.474V252.178H715.482V257.232ZM709.406 252.976V254.6C709.406 255.72 709.266 256.77 709 257.778L712.864 262.524L712.122 263.168L708.636 258.884C708.034 260.438 707.054 261.894 705.682 263.308L704.982 262.636C707.264 260.298 708.426 257.834 708.426 254.6V252.976H709.406ZM725.51 257.596H723.718C721.478 257.596 720.064 256.644 720.064 254.978C720.064 253.312 721.478 252.36 723.718 252.36H725.51C727.764 252.36 729.178 253.312 729.178 254.978C729.178 256.644 727.764 257.596 725.51 257.596ZM725.356 253.242H723.886C722.066 253.242 721.058 253.914 721.058 254.978C721.058 256.042 722.066 256.714 723.886 256.714H725.356C727.162 256.714 728.17 256.028 728.17 254.978C728.17 253.914 727.162 253.242 725.356 253.242ZM718.566 260.046V259.122H730.662V260.046H725.118V262.608H724.124V260.046H718.566ZM720.19 261.348H721.198V264.176H729.318V265.1H720.19V261.348ZM733.409 253.13H742.257V254.054H734.403V258.982H742.383V259.892H733.409V253.13ZM743.937 264.064H731.841V263.14H743.937V264.064ZM755.028 262.44V252.192H756.022V265.1H755.028V263.35H751.094V262.44H755.028ZM749.358 258.548C747.482 258.548 745.97 257.624 745.97 255.762V255.524C745.97 253.662 747.482 252.738 749.358 252.738C751.22 252.738 752.732 253.662 752.732 255.524V255.762C752.732 257.624 751.22 258.548 749.358 258.548ZM746.978 255.552V255.734C746.978 256.98 747.972 257.652 749.358 257.652C750.73 257.652 751.724 256.98 751.724 255.734V255.552C751.724 254.306 750.73 253.634 749.358 253.634C747.972 253.634 746.978 254.306 746.978 255.552ZM753.796 259.654L753.908 260.536C752.648 260.718 751.136 260.858 749.708 260.928C749.61 262.286 749.47 263.714 749.288 265.212L748.294 265.1C748.476 263.63 748.616 262.3 748.714 260.97C748.294 260.984 747.902 260.984 747.524 260.984H745.284L745.228 260.06H747.58C749.176 260.06 751.766 259.906 753.796 259.654ZM768.318 252.192H769.312V259.248H768.318V252.192ZM765.574 252.878V253.564C765.574 256.434 763.208 258.338 759.428 259.444L759.12 258.632C761.15 258.044 762.746 257.162 763.684 256.098C762.382 256.224 760.604 256.308 759.344 256.308H759.064L759.022 255.468H759.302C760.562 255.468 762.9 255.37 764.272 255.23C764.51 254.768 764.636 254.278 764.636 253.774V253.76H759.288V252.878H765.574ZM763.754 260.032H766.484C768.374 260.032 769.494 261.18 769.494 262.636C769.494 264.106 768.374 265.226 766.484 265.226H763.754C761.864 265.226 760.744 264.106 760.744 262.636C760.744 261.18 761.864 260.032 763.754 260.032ZM763.964 264.33H766.274C767.772 264.33 768.5 263.602 768.5 262.622C768.5 261.684 767.772 260.928 766.274 260.928H763.964C762.466 260.928 761.738 261.684 761.738 262.622C761.738 263.602 762.466 264.33 763.964 264.33Z" fill="black"/>
<path d="M575.513 301.752V305.14H581.057V306.064H568.961V305.14H574.519V301.752H570.529V295.13H579.503V301.752H575.513ZM578.495 296.04H571.523V300.856H578.495V296.04ZM584.798 299.4H592.778V300.296H583.804V294.864H592.652V295.774H584.798V299.4ZM582.236 302.368H594.332V303.278H588.788V307.254H587.794V303.278H582.236V302.368ZM605.718 299.232H607.86V300.156H605.718V307.1H604.71V294.178H605.718V299.232ZM600.972 296.194H596.016V295.284H601.966V296.278C601.966 299.932 599.838 303.11 596.408 305.462L595.806 304.678C598.998 302.536 600.972 299.498 600.972 296.474V296.194ZM622.384 294.178V296.796H624.54V297.72H622.384V300.506H621.39V294.178H622.384ZM618.94 297.188V297.412C618.94 299.218 617.484 300.128 615.664 300.128C613.816 300.128 612.36 299.218 612.36 297.412V297.188C612.36 295.368 613.816 294.472 615.664 294.472C617.484 294.472 618.94 295.368 618.94 297.188ZM613.354 297.202V297.384C613.354 298.588 614.32 299.218 615.664 299.218C616.98 299.218 617.932 298.588 617.932 297.384V297.202C617.932 296.026 616.98 295.368 615.664 295.368C614.32 295.368 613.354 296.026 613.354 297.202ZM622.384 304.692H615.356V306.288H622.93V307.17H614.348V303.824H621.39V302.284H614.278V301.43H622.384V304.692ZM635.659 299.232H637.815V300.156H635.659V307.1H634.665V294.178H635.659V299.232ZM628.897 294.878C630.689 294.878 632.145 296.096 632.145 299.162V301.094C632.145 304.16 630.689 305.378 628.897 305.378C627.091 305.378 625.635 304.16 625.635 301.094V299.162C625.635 296.096 627.091 294.878 628.897 294.878ZM631.137 301.08V299.162C631.137 296.754 630.185 295.802 628.897 295.802C627.595 295.802 626.629 296.754 626.629 299.162V301.08C626.629 303.488 627.595 304.454 628.897 304.454C630.185 304.454 631.137 303.488 631.137 301.08ZM651.09 297.202V298.126H648.934V301.528H651.09V302.452H648.934V307.1H647.94V294.178H648.934V297.202H651.09ZM642.172 294.878C643.964 294.878 645.42 296.096 645.42 299.162V301.094C645.42 304.16 643.964 305.378 642.172 305.378C640.366 305.378 638.91 304.16 638.91 301.094V299.162C638.91 296.096 640.366 294.878 642.172 294.878ZM644.412 301.08V299.162C644.412 296.754 643.46 295.802 642.172 295.802C640.87 295.802 639.904 296.754 639.904 299.162V301.08C639.904 303.488 640.87 304.454 642.172 304.454C643.46 304.454 644.412 303.488 644.412 301.08ZM656.33 295.396H659.578V296.236H652.088V295.396H655.336V294.01H656.33V295.396ZM662.21 294.178V297.202H664.366V298.126H662.21V300.912H661.216V294.178H662.21ZM658.976 298.854V299.022C658.976 300.282 657.604 300.954 655.854 300.954C654.104 300.954 652.718 300.282 652.718 299.022V298.854C652.718 297.594 654.104 296.936 655.854 296.936C657.604 296.936 658.976 297.594 658.976 298.854ZM653.712 298.896V299.008C653.712 299.68 654.65 300.114 655.854 300.114C657.044 300.114 657.996 299.68 657.996 299.008V298.896C657.996 298.21 657.044 297.776 655.854 297.776C654.65 297.776 653.712 298.21 653.712 298.896ZM662.21 304.874H655.182V306.316H662.742V307.156H654.174V304.048H661.216V302.648H654.104V301.822H662.21V304.874ZM678.945 302.06V294.178H679.911V302.06H678.945ZM673.191 301.472V300.688H676.327V294.318H677.279V302.06H676.327V301.472H673.191ZM671.959 298.462C670.363 298.462 669.201 297.776 669.201 296.53V296.418C669.201 295.144 670.363 294.472 671.959 294.472C673.541 294.472 674.703 295.144 674.703 296.418V296.53C674.703 297.776 673.541 298.462 671.959 298.462ZM670.139 296.432V296.502C670.139 297.174 670.895 297.65 671.959 297.65C673.023 297.65 673.765 297.174 673.765 296.502V296.432C673.765 295.732 673.023 295.284 671.959 295.284C670.895 295.284 670.139 295.732 670.139 296.432ZM672.099 302.228L671.133 302.158C671.203 301.514 671.273 300.8 671.315 300.156C670.909 300.17 670.531 300.17 670.167 300.17H668.641L668.599 299.33H670.209C671.497 299.33 673.597 299.232 675.361 299.008L675.445 299.82C674.465 299.96 673.345 300.058 672.267 300.114C672.225 300.8 672.155 301.542 672.099 302.228ZM672.309 303.978H678.931V302.634H679.911V307.1H671.329V302.634H672.309V303.978ZM672.309 304.804V306.26H678.931V304.804H672.309ZM695.289 296.95V294.178H696.283V300.926H695.289V297.832H692.503V296.95H695.289ZM692.965 300.912L689.269 298.434C688.625 299.428 687.547 300.296 686.035 301.122L685.559 300.296C687.771 299.036 689.017 297.762 689.017 295.928V295.774H686.077V294.878H692.951V295.774H689.997V295.928C689.997 296.53 689.899 297.09 689.689 297.622L693.469 300.1L692.965 300.912ZM688.975 303.418H695.289V301.696H696.283V307.1H687.981V301.696H688.975V303.418ZM688.975 304.314V306.19H695.289V304.314H688.975ZM708.382 300.268H710.748V301.192H698.652V300.268H707.374C707.696 298.56 707.892 296.726 707.892 295.746V295.55H700.178V294.64H708.886V295.522C708.886 296.838 708.69 298.602 708.382 300.268ZM700.346 302.816H701.34V306.19H709.404V307.1H700.346V302.816ZM722.834 301.248H721.84V297.678H718.788V296.782H721.84V294.192H722.834V301.248ZM719.418 300.94L715.736 298.322C715.092 299.372 714.042 300.296 712.586 301.136L712.068 300.324C714.322 298.994 715.526 297.496 715.526 295.48V294.64H716.52V295.48C716.52 296.194 716.408 296.852 716.17 297.468L719.95 300.142L719.418 300.94ZM717.29 302.032H720.006C721.91 302.032 723.03 303.18 723.03 304.636C723.03 306.106 721.91 307.226 720.006 307.226H717.29C715.386 307.226 714.266 306.106 714.266 304.636C714.266 303.18 715.386 302.032 717.29 302.032ZM717.486 306.33H719.81C721.308 306.33 722.022 305.602 722.022 304.622C722.022 303.684 721.308 302.928 719.81 302.928H717.486C715.988 302.928 715.26 303.684 715.26 304.622C715.26 305.602 715.988 306.33 717.486 306.33ZM735.521 299.372H737.537V300.282H735.521V307.1H734.527V294.178H735.521V299.372ZM731.195 296.516V296.194H725.903V295.284H732.203V296.264C732.203 298.014 731.937 300.17 731.545 302.186L730.565 302.018C730.957 300.016 731.195 297.832 731.195 296.516ZM728.787 299.232V304.02C730.201 303.964 731.895 303.838 733.295 303.656L733.407 304.538C731.517 304.804 729.025 304.972 727.177 304.972H725.049L725.007 304.048H727.233H727.779V299.232H728.787ZM751.305 298.868C751.389 298 751.431 297.216 751.431 296.642V296.18H743.381V295.27H752.425V296.418C752.425 298.35 752.103 301.136 751.669 303.46L750.689 303.278C750.899 302.172 751.081 300.94 751.207 299.792C749.247 300.002 746.181 300.114 744.263 300.114H743.353L743.311 299.204H744.319C746.041 299.204 749.275 299.078 751.305 298.868ZM741.883 306.064V305.14H753.979V306.064H741.883ZM761.71 299.904V301.192H767.254V302.046H755.158V301.192H760.716V299.904H756.852V296.782H764.566V295.354H756.782V294.5H765.574V297.622H757.846V299.064H765.84V299.904H761.71ZM765.714 307.1H756.726V303.25H765.714V307.1ZM764.706 304.076H757.72V306.26H764.706V304.076ZM781.946 299.232V294.178H782.926V307.1H781.946V300.156H779.944V306.862H778.964V294.388H779.944V299.232H781.946ZM776.22 296.194H772.398V295.284H777.214V296.278C777.214 299.932 775.492 303.04 772.874 305.462L772.16 304.734C774.638 302.522 776.22 299.498 776.22 296.474V296.194ZM795.319 294.178V296.796H797.461V297.72H795.319V300.576H794.311V294.178H795.319ZM790.489 294.738H791.469V300.058H785.421V294.738H786.401V296.474H790.489V294.738ZM786.401 297.356V299.176H790.489V297.356H786.401ZM795.319 304.72H788.277V306.288H795.851V307.17H787.269V303.866H794.311V302.354H787.199V301.486H795.319V304.72ZM808.581 299.232H810.723V300.156H808.581V307.1H807.587V294.178H808.581V299.232ZM802.561 296.194V296.936C802.561 297.972 802.435 298.938 802.183 299.862L806.005 304.496L805.235 305.168L801.805 300.982C801.189 302.494 800.223 303.894 798.907 305.308L798.179 304.636C800.307 302.34 801.581 300.128 801.581 296.936V296.194H798.683V295.284H805.487V296.194H802.561ZM818.216 301.752V305.14H823.76V306.064H811.664V305.14H817.222V301.752H813.232V295.13H822.08V296.04H814.226V300.856H822.206V301.752H818.216ZM834.768 301.15H837.036V302.074H831.492V307.254H830.498V302.074H824.94V301.15H833.76C834.096 299.288 834.32 297.258 834.32 296.124V295.83H826.326V294.906H835.314V295.9C835.314 297.37 835.09 299.316 834.768 301.15Z" fill="black"/>
<path d="M653.634 341.752V345.14H659.178V346.064H647.082V345.14H652.64V341.752H648.65V335.13H649.644V340.842H657.722V341.752H653.634ZM671.278 343.992H670.284V339.582H667.498V338.728H670.284V337.02H667.498V336.152H670.284V334.178H671.278V343.992ZM668.226 341.108L667.638 341.864L664.11 338.882C663.494 340.044 662.486 341.094 661.072 342.06L660.512 341.29C662.724 339.736 663.886 338.014 663.886 335.732V334.71H664.866V335.732C664.866 336.53 664.74 337.272 664.502 337.972L668.226 341.108ZM663.97 343.166V346.176H671.88V347.1H662.976V343.166H663.97ZM686.963 347.1V334.178H687.957V347.1H686.963ZM683.015 336.194H677.919V335.284H684.023V336.278C684.023 339.932 681.839 343.124 678.311 345.462L677.723 344.678C680.999 342.55 683.015 339.498 683.015 336.474V336.194ZM696.865 339.946V341.598H702.409V342.522H690.313V341.598H695.871V339.946H692.007V334.43H693.001V336.348H699.721V334.43H700.729V339.946H696.865ZM699.721 337.216H693.001V339.064H699.721V337.216ZM692.007 343.614H693.001V346.176H701.065V347.1H692.007V343.614ZM711.248 335.242H714.454V336.04H707.02V335.242H710.24V334.01H711.248V335.242ZM717.31 334.178V337.874H719.326V338.798H717.31V341.444H716.316V334.178H717.31ZM715.098 340.254L715.196 341.052C713.306 341.304 710.814 341.472 708.966 341.472H706.838L706.796 340.646H709.022C709.4 340.646 709.834 340.632 710.31 340.618V339.764C708.77 339.68 707.65 339.19 707.65 338.238V338.126C707.65 337.076 708.994 336.572 710.758 336.572C712.494 336.572 713.838 337.076 713.838 338.126V338.238C713.838 339.162 712.774 339.666 711.318 339.764V340.576C712.564 340.52 713.922 340.408 715.098 340.254ZM708.63 338.154V338.224C708.63 338.7 709.554 339.008 710.758 339.008C711.948 339.008 712.858 338.7 712.858 338.224V338.154C712.858 337.678 711.948 337.342 710.758 337.342C709.554 337.342 708.63 337.678 708.63 338.154ZM717.31 345.14H710.128V346.33H717.856V347.156H709.148V344.328H716.33V343.18H709.078V342.368H717.31V345.14ZM728.864 338.84V340.436H732.364V341.318H720.268V340.436H723.782V338.84C722.508 338.518 721.766 337.804 721.766 336.684C721.766 335.13 723.18 334.36 725.42 334.36H727.226C729.466 334.36 730.88 335.13 730.88 336.684C730.88 337.804 730.138 338.518 728.864 338.84ZM722.76 336.684C722.76 337.636 723.754 338.154 725.588 338.154H727.058C728.878 338.154 729.872 337.608 729.872 336.684C729.872 335.746 728.878 335.242 727.058 335.242H725.588C723.754 335.242 722.76 335.746 722.76 336.684ZM724.748 338.98V340.436H727.898V338.98C727.688 339.022 724.958 339.022 724.748 338.98ZM724.902 342.634H727.73C729.844 342.634 730.95 343.614 730.95 344.93C730.95 346.26 729.844 347.24 727.73 347.24H724.902C722.802 347.24 721.696 346.26 721.696 344.93C721.696 343.614 722.802 342.634 724.902 342.634ZM725.126 346.344H727.506C729.158 346.344 729.942 345.784 729.942 344.93C729.942 344.076 729.158 343.53 727.506 343.53H725.126C723.474 343.53 722.69 344.076 722.69 344.93C722.69 345.784 723.474 346.344 725.126 346.344ZM743.749 334.192V337.076H745.891V337.986H743.749V341.318H742.741V334.192H743.749ZM738.919 334.808H739.899V340.66H733.851V334.808H734.831V336.782H738.919V334.808ZM734.831 337.678V339.764H738.919V337.678H734.831ZM738.443 342.102H741.047C742.937 342.102 744.071 343.208 744.071 344.664C744.071 346.12 742.937 347.226 741.047 347.226H738.443C736.553 347.226 735.419 346.12 735.419 344.664C735.419 343.208 736.553 342.102 738.443 342.102ZM738.639 346.33H740.851C742.335 346.33 743.049 345.616 743.049 344.664C743.049 343.726 742.335 342.998 740.851 342.998H738.639C737.155 342.998 736.427 343.726 736.427 344.664C736.427 345.616 737.155 346.33 738.639 346.33ZM756.744 337.076V334.178H757.738V340.996H756.744V337.986H753.692V340.464H747.518V334.808H748.484V336.684H752.726V334.808H753.692V337.076H756.744ZM748.484 337.58V339.554H752.726V337.58H748.484ZM750.43 343.46H756.744V341.752H757.738V347.1H749.436V341.752H750.43V343.46ZM750.43 344.342V346.19H756.744V344.342H750.43Z" fill="black"/>
<path d="M603.585 381.232H605.727V382.156H603.585V389.1H602.577V376.178H603.585V381.232ZM594.681 380.91H598.741V377.074H599.735V386.972H593.687V377.074H594.681V380.91ZM594.681 381.82V386.048H598.741V381.82H594.681ZM616.86 376.192V379.076H619.002V379.986H616.86V383.248H615.852V376.192H616.86ZM614.382 381.386L614.494 382.268C612.968 382.534 610.91 382.716 609.048 382.716H607.032V376.878H613.108V377.788H608.04V381.806H609.216C610.756 381.806 612.744 381.638 614.382 381.386ZM611.554 384.032H614.158C616.062 384.032 617.182 385.18 617.182 386.636C617.182 388.106 616.062 389.226 614.158 389.226H611.554C609.664 389.226 608.544 388.106 608.544 386.636C608.544 385.18 609.664 384.032 611.554 384.032ZM611.75 388.33H613.976C615.446 388.33 616.16 387.602 616.16 386.622C616.16 385.684 615.446 384.928 613.976 384.928H611.75C610.266 384.928 609.552 385.684 609.552 386.622C609.552 387.602 610.266 388.33 611.75 388.33ZM626.916 383.682H625.054C622.702 383.682 621.26 382.226 621.26 380.294C621.26 378.376 622.702 376.92 625.054 376.92H626.916C629.254 376.92 630.724 378.376 630.724 380.294C630.724 382.226 629.254 383.682 626.916 383.682ZM626.748 377.83H625.222C623.318 377.83 622.254 378.894 622.254 380.294C622.254 381.722 623.318 382.786 625.222 382.786H626.748C628.638 382.786 629.716 381.722 629.716 380.294C629.716 378.894 628.638 377.83 626.748 377.83ZM628.778 384.466V387.14H632.026V388.05H619.93V387.14H623.192V384.466H624.186V387.14H627.784V384.466H628.778ZM643.411 381.232H645.553V382.156H643.411V389.1H642.403V376.178H643.411V381.232ZM638.665 378.194H633.709V377.284H639.659V378.278C639.659 381.932 637.531 385.11 634.101 387.462L633.499 386.678C636.691 384.536 638.665 381.498 638.665 378.474V378.194ZM653.749 388.568C651.831 388.568 650.081 387.294 650.081 384.9V383.71C650.081 381.33 651.831 380.056 653.749 380.056C655.695 380.056 657.431 381.33 657.431 383.71V384.9C657.431 387.294 655.695 388.568 653.749 388.568ZM653.749 387.644C655.191 387.644 656.423 386.636 656.423 384.858V383.766C656.423 381.988 655.191 380.994 653.749 380.994C652.307 380.994 651.103 381.988 651.103 383.766V384.858C651.103 386.636 652.321 387.644 653.749 387.644ZM662.439 380.056C662.845 380.056 663.209 380.112 663.517 380.224L663.279 381.134C662.943 381.05 662.593 380.994 662.285 380.994C661.123 380.994 660.381 382.184 660.381 383.556V388.358H659.359V380.266H660.297L660.353 381.54C660.759 380.658 661.473 380.056 662.439 380.056ZM678.014 381.232H680.156V382.156H678.014V389.1H677.006V376.178H678.014V381.232ZM671.938 376.976V378.6C671.938 379.72 671.798 380.77 671.532 381.778L675.396 386.524L674.654 387.168L671.168 382.884C670.566 384.438 669.586 385.894 668.214 387.308L667.514 386.636C669.796 384.298 670.958 381.834 670.958 378.6V376.976H671.938ZM691.206 389.1V376.178H692.186V389.1H691.206ZM686.404 379.482H688.42V376.388H689.386V388.862H688.42V384.438H685.998V383.542H688.42V380.392H686.264C685.746 383.136 684.234 385.516 682.134 387.462L681.42 386.734C683.898 384.522 685.466 381.498 685.466 378.474V378.194H681.658V377.284H686.46V378.278C686.46 378.684 686.432 379.09 686.404 379.482ZM704.467 381.232V376.178H705.461V389.1H704.467V382.156H702.465V388.862H701.499V376.388H702.465V381.232H704.467ZM696.949 376.192H697.943V378.222H700.463V379.146H694.415V378.222H696.949V376.192ZM697.467 380.476C698.909 380.476 699.917 381.624 699.917 383.5V384.242C699.917 386.104 698.909 387.28 697.467 387.28C695.997 387.28 694.989 386.104 694.989 384.242V383.5C694.989 381.624 695.997 380.476 697.467 380.476ZM698.965 384.186V383.556C698.965 382.212 698.335 381.4 697.467 381.4C696.557 381.4 695.941 382.212 695.941 383.556V384.186C695.941 385.53 696.557 386.37 697.467 386.37C698.335 386.37 698.965 385.53 698.965 384.186ZM717.841 376.178V379.608H719.997V380.532H717.841V385.992H716.847V376.178H717.841ZM714.397 380V380.294C714.397 382.576 712.927 383.668 711.121 383.668C709.287 383.668 707.817 382.576 707.817 380.294V380C707.817 377.704 709.287 376.598 711.121 376.598C712.927 376.598 714.397 377.704 714.397 380ZM708.811 380V380.28C708.811 381.932 709.791 382.772 711.121 382.772C712.423 382.772 713.389 381.932 713.389 380.28V380C713.389 378.348 712.423 377.494 711.121 377.494C709.791 377.494 708.811 378.348 708.811 380ZM709.805 385.166H710.813V388.176H718.583V389.1H709.805V385.166ZM734.226 380.826V376.178H735.234V389.1H734.226V381.75H730.908V380.826H734.226ZM728.892 376.976V378.586C728.892 379.706 728.752 380.77 728.472 381.778L732.49 386.51L731.748 387.168L728.108 382.87C727.478 384.438 726.456 385.894 725.028 387.308L724.328 386.622C726.708 384.284 727.912 381.848 727.912 378.586V376.976H728.892ZM747.516 376.192H748.51V383.388H747.516V376.192ZM746.242 381.554L746.354 382.436C744.366 382.744 741.944 382.926 739.984 382.926H737.94L737.884 382.016H739.62V377.788H738.066V376.878H745.71V377.788H744.142V381.806C744.856 381.736 745.57 381.652 746.242 381.554ZM743.148 381.89V377.788H740.6V382.016C741.356 382.002 742.238 381.96 743.148 381.89ZM742.966 384.172H745.682C747.586 384.172 748.706 385.264 748.706 386.706C748.706 388.148 747.586 389.226 745.682 389.226H742.966C741.062 389.226 739.942 388.148 739.942 386.706C739.942 385.264 741.062 384.172 742.966 384.172ZM743.162 388.33H745.486C746.984 388.33 747.712 387.63 747.712 386.692C747.712 385.768 746.984 385.068 745.486 385.068H743.162C741.664 385.068 740.936 385.768 740.936 386.692C740.936 387.63 741.664 388.33 743.162 388.33ZM760.917 381.302H762.975V382.142H750.879V381.302H759.923C760.021 380.714 760.105 380.098 760.161 379.51C758.257 379.734 755.275 379.846 753.315 379.846H752.475L752.447 378.978H753.385C755.121 378.978 758.285 378.866 760.245 378.642C760.287 378.208 760.301 377.83 760.301 377.564V377.298H752.503V376.43H761.295V377.34C761.295 378.376 761.155 379.93 760.917 381.302ZM761.421 386.706H753.441V388.316H761.771V389.17H752.447V385.88H760.413V384.326H752.377V383.486H761.421V386.706ZM774.262 381.232V376.178H775.242V389.1H774.262V382.156H772.26V388.862H771.28V376.388H772.26V381.232H774.262ZM765.582 386.314H766.464C767.864 386.314 768.9 386.216 770.202 386.006L770.314 386.888C769.096 387.112 768.018 387.224 766.296 387.224H764.616V381.694H768.424V378.124H764.616V377.214H769.404V382.604H765.582V386.314ZM788.238 384.186L783.212 380.672C782.372 381.932 780.888 383.108 778.62 384.186L778.158 383.332C781.476 381.722 783.044 380 783.044 377.956V376.92H784.038V377.956C784.038 378.6 783.912 379.216 783.66 379.818L788.798 383.374L788.238 384.186ZM777.43 388.05V387.14H789.526V388.05H777.43ZM804.231 379.356V376.192H805.197V383.724H804.231V380.252H802.271V383.724H801.319V376.318H802.271V379.356H804.231ZM800.241 382.058L800.353 382.926C799.121 383.136 797.945 383.262 796.209 383.262H794.501V376.878H799.499V377.76H795.481V379.566H799.359V380.448H795.481V382.366H796.377C797.777 382.366 798.911 382.268 800.241 382.058ZM804.203 385.558H796.713V384.634H805.197V389.226H804.203V385.558ZM811.655 388.358H810.633V378.418L807.819 380.7L807.231 379.958L810.759 377.102H811.655V388.358Z" fill="black"/>
<path d="M87.3866 52.506H86.0006V46.164H87.3866V52.506ZM80.2466 52.212C78.2866 52.212 76.7606 51.274 76.7606 49.398V49.188C76.7606 47.298 78.2866 46.374 80.2466 46.374C82.1786 46.374 83.7186 47.298 83.7186 49.188V49.398C83.7186 51.274 82.1786 52.212 80.2466 52.212ZM80.2466 50.98C81.4366 50.98 82.3186 50.434 82.3186 49.37V49.216C82.3186 48.152 81.4366 47.606 80.2466 47.606C79.0426 47.606 78.1606 48.152 78.1606 49.216V49.37C78.1606 50.434 79.0426 50.98 80.2466 50.98ZM87.8766 59.226H78.8046V55.656H86.0006V54.48H78.7346V53.318H87.3866V56.804H80.2046V58.036H87.8766V59.226ZM99.934 51.05H101.936V52.324H99.934V59.156H98.534V46.164H99.934V51.05ZM93.914 48.46V49.02C93.914 50 93.802 50.924 93.564 51.82L97.246 56.342L96.196 57.252L93.032 53.346C92.43 54.76 91.506 56.076 90.274 57.392L89.28 56.468C91.394 54.186 92.556 52.016 92.556 49.02V48.46H89.784V47.186H96.728V48.46H93.914Z" fill="black"/>
<path d="M292.487 59.156V46.164H293.887V59.156H292.487ZM287.545 46.92V48.614C287.545 49.72 287.419 50.756 287.153 51.75L291.003 56.356L289.953 57.252L286.635 53.248C286.005 54.704 285.053 56.062 283.723 57.392L282.743 56.454C285.081 54.102 286.187 51.722 286.187 48.614V46.92H287.545ZM306.434 46.164V49.426H308.45V50.686H306.434V55.894H305.034V46.164H306.434ZM302.654 46.92V47.718C302.654 50.7 300.442 52.786 296.816 54.158L296.214 52.968C299.35 51.778 301.156 50 301.254 48.194H296.508V46.92H302.654ZM298.118 54.942H299.504V57.882H307.106V59.156H298.118V54.942Z" fill="black"/>
<path d="M700.239 51.05V46.164H701.597V59.156H700.239V52.324H698.573V58.89H697.257V46.36H698.573V51.05H700.239ZM692.161 55.768H692.791C693.799 55.768 694.947 55.698 696.249 55.502L696.389 56.734C695.129 56.958 693.939 57.042 692.595 57.042H690.761V47.116H692.161V55.768ZM712.408 50.84V52.268H715.74V53.472H703.532V52.268H706.878V50.84C705.688 50.518 704.96 49.79 704.96 48.67C704.96 47.074 706.43 46.304 708.614 46.304H710.658C712.856 46.304 714.312 47.074 714.312 48.67C714.312 49.79 713.598 50.504 712.408 50.84ZM706.36 48.684C706.36 49.468 707.256 49.888 708.866 49.888H710.42C712.03 49.888 712.926 49.454 712.926 48.684C712.926 47.886 712.03 47.48 710.42 47.48H708.866C707.256 47.48 706.36 47.886 706.36 48.684ZM708.208 51.036V52.268H711.078V51.036C710.126 51.05 709.16 51.05 708.208 51.036ZM708.152 54.578H711.12C713.22 54.578 714.382 55.572 714.382 56.93C714.382 58.302 713.22 59.296 711.12 59.296H708.152C706.052 59.296 704.89 58.302 704.89 56.93C704.89 55.572 706.052 54.578 708.152 54.578ZM708.432 58.078H710.854C712.324 58.078 712.996 57.63 712.996 56.916C712.996 56.23 712.324 55.782 710.854 55.782H708.432C706.962 55.782 706.29 56.23 706.29 56.916C706.29 57.63 706.962 58.078 708.432 58.078Z" fill="black"/>
<path d="M254.349 183.61C252.081 183.61 250.233 181.986 250.233 178.822V176.624C250.233 173.488 252.081 171.85 254.349 171.85C256.617 171.85 258.479 173.488 258.479 176.624V178.822C258.479 181.986 256.617 183.61 254.349 183.61ZM254.349 182.35C255.875 182.35 257.065 181.202 257.065 178.752V176.708C257.065 174.258 255.875 173.11 254.349 173.11C252.823 173.11 251.633 174.258 251.633 176.708V178.752C251.633 181.202 252.823 182.35 254.349 182.35ZM264.27 171.85C266.566 171.85 268.288 173.264 268.288 175.784V178.612C268.288 182.154 266.37 183.61 264.382 183.61C262.478 183.61 261.19 182.742 260.434 181.16L261.61 180.544C262.198 181.72 262.968 182.364 264.326 182.364C265.824 182.364 267 181.202 266.986 178.556V178.01C266.37 178.99 265.208 179.508 264.032 179.508C262.002 179.508 260.224 178.038 260.224 175.672C260.224 173.306 262.002 171.85 264.27 171.85ZM264.256 178.262C265.726 178.262 266.888 177.324 266.888 175.686C266.888 174.048 265.726 173.096 264.256 173.096C262.8 173.096 261.61 174.048 261.61 175.686C261.61 177.324 262.8 178.262 264.256 178.262ZM271.315 175.308C270.783 175.308 270.349 174.874 270.349 174.342C270.349 173.81 270.783 173.39 271.315 173.39C271.847 173.39 272.267 173.81 272.267 174.342C272.267 174.874 271.847 175.308 271.315 175.308ZM271.315 182.07C270.783 182.07 270.349 181.636 270.349 181.104C270.349 180.572 270.783 180.152 271.315 180.152C271.847 180.152 272.267 180.572 272.267 181.104C272.267 181.636 271.847 182.07 271.315 182.07ZM278.453 183.61C276.185 183.61 274.337 181.986 274.337 178.822V176.624C274.337 173.488 276.185 171.85 278.453 171.85C280.721 171.85 282.583 173.488 282.583 176.624V178.822C282.583 181.986 280.721 183.61 278.453 183.61ZM278.453 182.35C279.979 182.35 281.169 181.202 281.169 178.752V176.708C281.169 174.258 279.979 173.11 278.453 173.11C276.927 173.11 275.737 174.258 275.737 176.708V178.752C275.737 181.202 276.927 182.35 278.453 182.35ZM288.584 183.61C286.316 183.61 284.468 181.986 284.468 178.822V176.624C284.468 173.488 286.316 171.85 288.584 171.85C290.852 171.85 292.714 173.488 292.714 176.624V178.822C292.714 181.986 290.852 183.61 288.584 183.61ZM288.584 182.35C290.11 182.35 291.3 181.202 291.3 178.752V176.708C291.3 174.258 290.11 173.11 288.584 173.11C287.058 173.11 285.868 174.258 285.868 176.708V178.752C285.868 181.202 287.058 182.35 288.584 182.35ZM294.598 178.374V177.072H299.148V178.374H294.598ZM305.252 183.4H303.852V173.908L301.276 175.966L300.478 174.916L304.062 172.06H305.252V183.4ZM315.354 183.4H307.682V182.308L311.84 178.178C313.114 176.918 313.702 176.036 313.702 174.986C313.702 173.852 312.89 173.11 311.448 173.11C310.048 173.11 309.334 174.132 308.956 175.378L307.626 175.056C308.088 173.39 309.32 171.85 311.448 171.85C313.632 171.85 315.088 173.026 315.088 174.93C315.088 176.47 314.262 177.59 312.904 178.934L309.698 182.112H315.354V183.4ZM318.387 175.308C317.855 175.308 317.421 174.874 317.421 174.342C317.421 173.81 317.855 173.39 318.387 173.39C318.919 173.39 319.339 173.81 319.339 174.342C319.339 174.874 318.919 175.308 318.387 175.308ZM318.387 182.07C317.855 182.07 317.421 181.636 317.421 181.104C317.421 180.572 317.855 180.152 318.387 180.152C318.919 180.152 319.339 180.572 319.339 181.104C319.339 181.636 318.919 182.07 318.387 182.07ZM325.525 183.61C323.257 183.61 321.409 181.986 321.409 178.822V176.624C321.409 173.488 323.257 171.85 325.525 171.85C327.793 171.85 329.655 173.488 329.655 176.624V178.822C329.655 181.986 327.793 183.61 325.525 183.61ZM325.525 182.35C327.051 182.35 328.241 181.202 328.241 178.752V176.708C328.241 174.258 327.051 173.11 325.525 173.11C323.999 173.11 322.809 174.258 322.809 176.708V178.752C322.809 181.202 323.999 182.35 325.525 182.35ZM335.656 183.61C333.388 183.61 331.54 181.986 331.54 178.822V176.624C331.54 173.488 333.388 171.85 335.656 171.85C337.924 171.85 339.786 173.488 339.786 176.624V178.822C339.786 181.986 337.924 183.61 335.656 183.61ZM335.656 182.35C337.182 182.35 338.372 181.202 338.372 178.752V176.708C338.372 174.258 337.182 173.11 335.656 173.11C334.13 173.11 332.94 174.258 332.94 176.708V178.752C332.94 181.202 334.13 182.35 335.656 182.35Z" fill="black"/>
<path d="M256.437 223.4H255.037V213.908L252.461 215.966L251.663 214.916L255.247 212.06H256.437V223.4ZM265.699 219.872H267.449V221.16H265.699V223.61H264.313V221.16H258.615V220.012L263.823 212.06H265.699V219.872ZM264.313 213.656L260.295 219.872H264.313V213.656ZM270.051 215.308C269.519 215.308 269.085 214.874 269.085 214.342C269.085 213.81 269.519 213.39 270.051 213.39C270.583 213.39 271.003 213.81 271.003 214.342C271.003 214.874 270.583 215.308 270.051 215.308ZM270.051 222.07C269.519 222.07 269.085 221.636 269.085 221.104C269.085 220.572 269.519 220.152 270.051 220.152C270.583 220.152 271.003 220.572 271.003 221.104C271.003 221.636 270.583 222.07 270.051 222.07ZM277.189 223.61C274.921 223.61 273.073 221.986 273.073 218.822V216.624C273.073 213.488 274.921 211.85 277.189 211.85C279.457 211.85 281.319 213.488 281.319 216.624V218.822C281.319 221.986 279.457 223.61 277.189 223.61ZM277.189 222.35C278.715 222.35 279.905 221.202 279.905 218.752V216.708C279.905 214.258 278.715 213.11 277.189 213.11C275.663 213.11 274.473 214.258 274.473 216.708V218.752C274.473 221.202 275.663 222.35 277.189 222.35ZM287.32 223.61C285.052 223.61 283.204 221.986 283.204 218.822V216.624C283.204 213.488 285.052 211.85 287.32 211.85C289.588 211.85 291.45 213.488 291.45 216.624V218.822C291.45 221.986 289.588 223.61 287.32 223.61ZM287.32 222.35C288.846 222.35 290.036 221.202 290.036 218.752V216.708C290.036 214.258 288.846 213.11 287.32 213.11C285.794 213.11 284.604 214.258 284.604 216.708V218.752C284.604 221.202 285.794 222.35 287.32 222.35ZM293.335 218.374V217.072H297.885V218.374H293.335ZM303.988 223.4H302.588V213.908L300.012 215.966L299.214 214.916L302.798 212.06H303.988V223.4ZM310.702 215.952C312.718 215.952 314.51 217.422 314.51 219.788C314.51 222.154 312.718 223.61 310.464 223.61C308.168 223.61 306.446 222.196 306.446 219.662V216.834C306.446 213.306 308.364 211.85 310.338 211.85C312.256 211.85 313.53 212.718 314.286 214.3L313.124 214.916C312.522 213.726 311.766 213.096 310.394 213.096C308.896 213.096 307.734 214.258 307.748 216.89V217.436C308.364 216.456 309.512 215.952 310.702 215.952ZM310.464 222.364C311.934 222.364 313.124 221.398 313.124 219.76C313.124 218.136 311.934 217.184 310.464 217.184C309.008 217.184 307.832 218.136 307.832 219.76C307.832 221.398 309.008 222.364 310.464 222.364ZM317.397 215.308C316.865 215.308 316.431 214.874 316.431 214.342C316.431 213.81 316.865 213.39 317.397 213.39C317.929 213.39 318.349 213.81 318.349 214.342C318.349 214.874 317.929 215.308 317.397 215.308ZM317.397 222.07C316.865 222.07 316.431 221.636 316.431 221.104C316.431 220.572 316.865 220.152 317.397 220.152C317.929 220.152 318.349 220.572 318.349 221.104C318.349 221.636 317.929 222.07 317.397 222.07ZM324.535 223.61C322.267 223.61 320.419 221.986 320.419 218.822V216.624C320.419 213.488 322.267 211.85 324.535 211.85C326.803 211.85 328.665 213.488 328.665 216.624V218.822C328.665 221.986 326.803 223.61 324.535 223.61ZM324.535 222.35C326.061 222.35 327.251 221.202 327.251 218.752V216.708C327.251 214.258 326.061 213.11 324.535 213.11C323.009 213.11 321.819 214.258 321.819 216.708V218.752C321.819 221.202 323.009 222.35 324.535 222.35ZM334.666 223.61C332.398 223.61 330.55 221.986 330.55 218.822V216.624C330.55 213.488 332.398 211.85 334.666 211.85C336.934 211.85 338.796 213.488 338.796 216.624V218.822C338.796 221.986 336.934 223.61 334.666 223.61ZM334.666 222.35C336.192 222.35 337.382 221.202 337.382 218.752V216.708C337.382 214.258 336.192 213.11 334.666 213.11C333.14 213.11 331.95 214.258 331.95 216.708V218.752C331.95 221.202 333.14 222.35 334.666 222.35Z" fill="black"/>
<path d="M254.349 264.61C252.081 264.61 250.233 262.986 250.233 259.822V257.624C250.233 254.488 252.081 252.85 254.349 252.85C256.617 252.85 258.479 254.488 258.479 257.624V259.822C258.479 262.986 256.617 264.61 254.349 264.61ZM254.349 263.35C255.875 263.35 257.065 262.202 257.065 259.752V257.708C257.065 255.258 255.875 254.11 254.349 254.11C252.823 254.11 251.633 255.258 251.633 257.708V259.752C251.633 262.202 252.823 263.35 254.349 263.35ZM264.27 252.85C266.566 252.85 268.288 254.264 268.288 256.784V259.612C268.288 263.154 266.37 264.61 264.382 264.61C262.478 264.61 261.19 263.742 260.434 262.16L261.61 261.544C262.198 262.72 262.968 263.364 264.326 263.364C265.824 263.364 267 262.202 266.986 259.556V259.01C266.37 259.99 265.208 260.508 264.032 260.508C262.002 260.508 260.224 259.038 260.224 256.672C260.224 254.306 262.002 252.85 264.27 252.85ZM264.256 259.262C265.726 259.262 266.888 258.324 266.888 256.686C266.888 255.048 265.726 254.096 264.256 254.096C262.8 254.096 261.61 255.048 261.61 256.686C261.61 258.324 262.8 259.262 264.256 259.262ZM271.315 256.308C270.783 256.308 270.349 255.874 270.349 255.342C270.349 254.81 270.783 254.39 271.315 254.39C271.847 254.39 272.267 254.81 272.267 255.342C272.267 255.874 271.847 256.308 271.315 256.308ZM271.315 263.07C270.783 263.07 270.349 262.636 270.349 262.104C270.349 261.572 270.783 261.152 271.315 261.152C271.847 261.152 272.267 261.572 272.267 262.104C272.267 262.636 271.847 263.07 271.315 263.07ZM278.453 264.61C276.185 264.61 274.337 262.986 274.337 259.822V257.624C274.337 254.488 276.185 252.85 278.453 252.85C280.721 252.85 282.583 254.488 282.583 257.624V259.822C282.583 262.986 280.721 264.61 278.453 264.61ZM278.453 263.35C279.979 263.35 281.169 262.202 281.169 259.752V257.708C281.169 255.258 279.979 254.11 278.453 254.11C276.927 254.11 275.737 255.258 275.737 257.708V259.752C275.737 262.202 276.927 263.35 278.453 263.35ZM288.584 264.61C286.316 264.61 284.468 262.986 284.468 259.822V257.624C284.468 254.488 286.316 252.85 288.584 252.85C290.852 252.85 292.714 254.488 292.714 257.624V259.822C292.714 262.986 290.852 264.61 288.584 264.61ZM288.584 263.35C290.11 263.35 291.3 262.202 291.3 259.752V257.708C291.3 255.258 290.11 254.11 288.584 254.11C287.058 254.11 285.868 255.258 285.868 257.708V259.752C285.868 262.202 287.058 263.35 288.584 263.35ZM294.598 259.374V258.072H299.148V259.374H294.598ZM305.252 264.4H303.852V254.908L301.276 256.966L300.478 255.916L304.062 253.06H305.252V264.4ZM315.354 264.4H307.682V263.308L311.84 259.178C313.114 257.918 313.702 257.036 313.702 255.986C313.702 254.852 312.89 254.11 311.448 254.11C310.048 254.11 309.334 255.132 308.956 256.378L307.626 256.056C308.088 254.39 309.32 252.85 311.448 252.85C313.632 252.85 315.088 254.026 315.088 255.93C315.088 257.47 314.262 258.59 312.904 259.934L309.698 263.112H315.354V264.4ZM318.387 256.308C317.855 256.308 317.421 255.874 317.421 255.342C317.421 254.81 317.855 254.39 318.387 254.39C318.919 254.39 319.339 254.81 319.339 255.342C319.339 255.874 318.919 256.308 318.387 256.308ZM318.387 263.07C317.855 263.07 317.421 262.636 317.421 262.104C317.421 261.572 317.855 261.152 318.387 261.152C318.919 261.152 319.339 261.572 319.339 262.104C319.339 262.636 318.919 263.07 318.387 263.07ZM325.525 264.61C323.257 264.61 321.409 262.986 321.409 259.822V257.624C321.409 254.488 323.257 252.85 325.525 252.85C327.793 252.85 329.655 254.488 329.655 257.624V259.822C329.655 262.986 327.793 264.61 325.525 264.61ZM325.525 263.35C327.051 263.35 328.241 262.202 328.241 259.752V257.708C328.241 255.258 327.051 254.11 325.525 254.11C323.999 254.11 322.809 255.258 322.809 257.708V259.752C322.809 262.202 323.999 263.35 325.525 263.35ZM335.656 264.61C333.388 264.61 331.54 262.986 331.54 259.822V257.624C331.54 254.488 333.388 252.85 335.656 252.85C337.924 252.85 339.786 254.488 339.786 257.624V259.822C339.786 262.986 337.924 264.61 335.656 264.61ZM335.656 263.35C337.182 263.35 338.372 262.202 338.372 259.752V257.708C338.372 255.258 337.182 254.11 335.656 254.11C334.13 254.11 332.94 255.258 332.94 257.708V259.752C332.94 262.202 334.13 263.35 335.656 263.35Z" fill="black"/>
<path d="M256.437 306.4H255.037V296.908L252.461 298.966L251.663 297.916L255.247 295.06H256.437V306.4ZM265.699 302.872H267.449V304.16H265.699V306.61H264.313V304.16H258.615V303.012L263.823 295.06H265.699V302.872ZM264.313 296.656L260.295 302.872H264.313V296.656ZM270.051 298.308C269.519 298.308 269.085 297.874 269.085 297.342C269.085 296.81 269.519 296.39 270.051 296.39C270.583 296.39 271.003 296.81 271.003 297.342C271.003 297.874 270.583 298.308 270.051 298.308ZM270.051 305.07C269.519 305.07 269.085 304.636 269.085 304.104C269.085 303.572 269.519 303.152 270.051 303.152C270.583 303.152 271.003 303.572 271.003 304.104C271.003 304.636 270.583 305.07 270.051 305.07ZM277.189 306.61C274.921 306.61 273.073 304.986 273.073 301.822V299.624C273.073 296.488 274.921 294.85 277.189 294.85C279.457 294.85 281.319 296.488 281.319 299.624V301.822C281.319 304.986 279.457 306.61 277.189 306.61ZM277.189 305.35C278.715 305.35 279.905 304.202 279.905 301.752V299.708C279.905 297.258 278.715 296.11 277.189 296.11C275.663 296.11 274.473 297.258 274.473 299.708V301.752C274.473 304.202 275.663 305.35 277.189 305.35ZM287.32 306.61C285.052 306.61 283.204 304.986 283.204 301.822V299.624C283.204 296.488 285.052 294.85 287.32 294.85C289.588 294.85 291.45 296.488 291.45 299.624V301.822C291.45 304.986 289.588 306.61 287.32 306.61ZM287.32 305.35C288.846 305.35 290.036 304.202 290.036 301.752V299.708C290.036 297.258 288.846 296.11 287.32 296.11C285.794 296.11 284.604 297.258 284.604 299.708V301.752C284.604 304.202 285.794 305.35 287.32 305.35ZM293.335 301.374V300.072H297.885V301.374H293.335ZM303.988 306.4H302.588V296.908L300.012 298.966L299.214 297.916L302.798 295.06H303.988V306.4ZM310.702 298.952C312.718 298.952 314.51 300.422 314.51 302.788C314.51 305.154 312.718 306.61 310.464 306.61C308.168 306.61 306.446 305.196 306.446 302.662V299.834C306.446 296.306 308.364 294.85 310.338 294.85C312.256 294.85 313.53 295.718 314.286 297.3L313.124 297.916C312.522 296.726 311.766 296.096 310.394 296.096C308.896 296.096 307.734 297.258 307.748 299.89V300.436C308.364 299.456 309.512 298.952 310.702 298.952ZM310.464 305.364C311.934 305.364 313.124 304.398 313.124 302.76C313.124 301.136 311.934 300.184 310.464 300.184C309.008 300.184 307.832 301.136 307.832 302.76C307.832 304.398 309.008 305.364 310.464 305.364ZM317.397 298.308C316.865 298.308 316.431 297.874 316.431 297.342C316.431 296.81 316.865 296.39 317.397 296.39C317.929 296.39 318.349 296.81 318.349 297.342C318.349 297.874 317.929 298.308 317.397 298.308ZM317.397 305.07C316.865 305.07 316.431 304.636 316.431 304.104C316.431 303.572 316.865 303.152 317.397 303.152C317.929 303.152 318.349 303.572 318.349 304.104C318.349 304.636 317.929 305.07 317.397 305.07ZM324.535 306.61C322.267 306.61 320.419 304.986 320.419 301.822V299.624C320.419 296.488 322.267 294.85 324.535 294.85C326.803 294.85 328.665 296.488 328.665 299.624V301.822C328.665 304.986 326.803 306.61 324.535 306.61ZM324.535 305.35C326.061 305.35 327.251 304.202 327.251 301.752V299.708C327.251 297.258 326.061 296.11 324.535 296.11C323.009 296.11 321.819 297.258 321.819 299.708V301.752C321.819 304.202 323.009 305.35 324.535 305.35ZM334.666 306.61C332.398 306.61 330.55 304.986 330.55 301.822V299.624C330.55 296.488 332.398 294.85 334.666 294.85C336.934 294.85 338.796 296.488 338.796 299.624V301.822C338.796 304.986 336.934 306.61 334.666 306.61ZM334.666 305.35C336.192 305.35 337.382 304.202 337.382 301.752V299.708C337.382 297.258 336.192 296.11 334.666 296.11C333.14 296.11 331.95 297.258 331.95 299.708V301.752C331.95 304.202 333.14 305.35 334.666 305.35Z" fill="black"/>
<path d="M254.349 347.61C252.081 347.61 250.233 345.986 250.233 342.822V340.624C250.233 337.488 252.081 335.85 254.349 335.85C256.617 335.85 258.479 337.488 258.479 340.624V342.822C258.479 345.986 256.617 347.61 254.349 347.61ZM254.349 346.35C255.875 346.35 257.065 345.202 257.065 342.752V340.708C257.065 338.258 255.875 337.11 254.349 337.11C252.823 337.11 251.633 338.258 251.633 340.708V342.752C251.633 345.202 252.823 346.35 254.349 346.35ZM264.27 335.85C266.566 335.85 268.288 337.264 268.288 339.784V342.612C268.288 346.154 266.37 347.61 264.382 347.61C262.478 347.61 261.19 346.742 260.434 345.16L261.61 344.544C262.198 345.72 262.968 346.364 264.326 346.364C265.824 346.364 267 345.202 266.986 342.556V342.01C266.37 342.99 265.208 343.508 264.032 343.508C262.002 343.508 260.224 342.038 260.224 339.672C260.224 337.306 262.002 335.85 264.27 335.85ZM264.256 342.262C265.726 342.262 266.888 341.324 266.888 339.686C266.888 338.048 265.726 337.096 264.256 337.096C262.8 337.096 261.61 338.048 261.61 339.686C261.61 341.324 262.8 342.262 264.256 342.262ZM271.315 339.308C270.783 339.308 270.349 338.874 270.349 338.342C270.349 337.81 270.783 337.39 271.315 337.39C271.847 337.39 272.267 337.81 272.267 338.342C272.267 338.874 271.847 339.308 271.315 339.308ZM271.315 346.07C270.783 346.07 270.349 345.636 270.349 345.104C270.349 344.572 270.783 344.152 271.315 344.152C271.847 344.152 272.267 344.572 272.267 345.104C272.267 345.636 271.847 346.07 271.315 346.07ZM278.453 347.61C276.185 347.61 274.337 345.986 274.337 342.822V340.624C274.337 337.488 276.185 335.85 278.453 335.85C280.721 335.85 282.583 337.488 282.583 340.624V342.822C282.583 345.986 280.721 347.61 278.453 347.61ZM278.453 346.35C279.979 346.35 281.169 345.202 281.169 342.752V340.708C281.169 338.258 279.979 337.11 278.453 337.11C276.927 337.11 275.737 338.258 275.737 340.708V342.752C275.737 345.202 276.927 346.35 278.453 346.35ZM288.584 347.61C286.316 347.61 284.468 345.986 284.468 342.822V340.624C284.468 337.488 286.316 335.85 288.584 335.85C290.852 335.85 292.714 337.488 292.714 340.624V342.822C292.714 345.986 290.852 347.61 288.584 347.61ZM288.584 346.35C290.11 346.35 291.3 345.202 291.3 342.752V340.708C291.3 338.258 290.11 337.11 288.584 337.11C287.058 337.11 285.868 338.258 285.868 340.708V342.752C285.868 345.202 287.058 346.35 288.584 346.35ZM294.598 342.374V341.072H299.148V342.374H294.598ZM305.252 347.4H303.852V337.908L301.276 339.966L300.478 338.916L304.062 336.06H305.252V347.4ZM315.354 347.4H307.682V346.308L311.84 342.178C313.114 340.918 313.702 340.036 313.702 338.986C313.702 337.852 312.89 337.11 311.448 337.11C310.048 337.11 309.334 338.132 308.956 339.378L307.626 339.056C308.088 337.39 309.32 335.85 311.448 335.85C313.632 335.85 315.088 337.026 315.088 338.93C315.088 340.47 314.262 341.59 312.904 342.934L309.698 346.112H315.354V347.4ZM318.387 339.308C317.855 339.308 317.421 338.874 317.421 338.342C317.421 337.81 317.855 337.39 318.387 337.39C318.919 337.39 319.339 337.81 319.339 338.342C319.339 338.874 318.919 339.308 318.387 339.308ZM318.387 346.07C317.855 346.07 317.421 345.636 317.421 345.104C317.421 344.572 317.855 344.152 318.387 344.152C318.919 344.152 319.339 344.572 319.339 345.104C319.339 345.636 318.919 346.07 318.387 346.07ZM325.525 347.61C323.257 347.61 321.409 345.986 321.409 342.822V340.624C321.409 337.488 323.257 335.85 325.525 335.85C327.793 335.85 329.655 337.488 329.655 340.624V342.822C329.655 345.986 327.793 347.61 325.525 347.61ZM325.525 346.35C327.051 346.35 328.241 345.202 328.241 342.752V340.708C328.241 338.258 327.051 337.11 325.525 337.11C323.999 337.11 322.809 338.258 322.809 340.708V342.752C322.809 345.202 323.999 346.35 325.525 346.35ZM335.656 347.61C333.388 347.61 331.54 345.986 331.54 342.822V340.624C331.54 337.488 333.388 335.85 335.656 335.85C337.924 335.85 339.786 337.488 339.786 340.624V342.822C339.786 345.986 337.924 347.61 335.656 347.61ZM335.656 346.35C337.182 346.35 338.372 345.202 338.372 342.752V340.708C338.372 338.258 337.182 337.11 335.656 337.11C334.13 337.11 332.94 338.258 332.94 340.708V342.752C332.94 345.202 334.13 346.35 335.656 346.35Z" fill="black"/>
<path d="M256.437 388.4H255.037V378.908L252.461 380.966L251.663 379.916L255.247 377.06H256.437V388.4ZM265.699 384.872H267.449V386.16H265.699V388.61H264.313V386.16H258.615V385.012L263.823 377.06H265.699V384.872ZM264.313 378.656L260.295 384.872H264.313V378.656ZM270.051 380.308C269.519 380.308 269.085 379.874 269.085 379.342C269.085 378.81 269.519 378.39 270.051 378.39C270.583 378.39 271.003 378.81 271.003 379.342C271.003 379.874 270.583 380.308 270.051 380.308ZM270.051 387.07C269.519 387.07 269.085 386.636 269.085 386.104C269.085 385.572 269.519 385.152 270.051 385.152C270.583 385.152 271.003 385.572 271.003 386.104C271.003 386.636 270.583 387.07 270.051 387.07ZM277.189 388.61C274.921 388.61 273.073 386.986 273.073 383.822V381.624C273.073 378.488 274.921 376.85 277.189 376.85C279.457 376.85 281.319 378.488 281.319 381.624V383.822C281.319 386.986 279.457 388.61 277.189 388.61ZM277.189 387.35C278.715 387.35 279.905 386.202 279.905 383.752V381.708C279.905 379.258 278.715 378.11 277.189 378.11C275.663 378.11 274.473 379.258 274.473 381.708V383.752C274.473 386.202 275.663 387.35 277.189 387.35ZM287.32 388.61C285.052 388.61 283.204 386.986 283.204 383.822V381.624C283.204 378.488 285.052 376.85 287.32 376.85C289.588 376.85 291.45 378.488 291.45 381.624V383.822C291.45 386.986 289.588 388.61 287.32 388.61ZM287.32 387.35C288.846 387.35 290.036 386.202 290.036 383.752V381.708C290.036 379.258 288.846 378.11 287.32 378.11C285.794 378.11 284.604 379.258 284.604 381.708V383.752C284.604 386.202 285.794 387.35 287.32 387.35ZM293.335 383.374V382.072H297.885V383.374H293.335ZM303.988 388.4H302.588V378.908L300.012 380.966L299.214 379.916L302.798 377.06H303.988V388.4ZM310.702 380.952C312.718 380.952 314.51 382.422 314.51 384.788C314.51 387.154 312.718 388.61 310.464 388.61C308.168 388.61 306.446 387.196 306.446 384.662V381.834C306.446 378.306 308.364 376.85 310.338 376.85C312.256 376.85 313.53 377.718 314.286 379.3L313.124 379.916C312.522 378.726 311.766 378.096 310.394 378.096C308.896 378.096 307.734 379.258 307.748 381.89V382.436C308.364 381.456 309.512 380.952 310.702 380.952ZM310.464 387.364C311.934 387.364 313.124 386.398 313.124 384.76C313.124 383.136 311.934 382.184 310.464 382.184C309.008 382.184 307.832 383.136 307.832 384.76C307.832 386.398 309.008 387.364 310.464 387.364ZM317.397 380.308C316.865 380.308 316.431 379.874 316.431 379.342C316.431 378.81 316.865 378.39 317.397 378.39C317.929 378.39 318.349 378.81 318.349 379.342C318.349 379.874 317.929 380.308 317.397 380.308ZM317.397 387.07C316.865 387.07 316.431 386.636 316.431 386.104C316.431 385.572 316.865 385.152 317.397 385.152C317.929 385.152 318.349 385.572 318.349 386.104C318.349 386.636 317.929 387.07 317.397 387.07ZM324.535 388.61C322.267 388.61 320.419 386.986 320.419 383.822V381.624C320.419 378.488 322.267 376.85 324.535 376.85C326.803 376.85 328.665 378.488 328.665 381.624V383.822C328.665 386.986 326.803 388.61 324.535 388.61ZM324.535 387.35C326.061 387.35 327.251 386.202 327.251 383.752V381.708C327.251 379.258 326.061 378.11 324.535 378.11C323.009 378.11 321.819 379.258 321.819 381.708V383.752C321.819 386.202 323.009 387.35 324.535 387.35ZM334.666 388.61C332.398 388.61 330.55 386.986 330.55 383.822V381.624C330.55 378.488 332.398 376.85 334.666 376.85C336.934 376.85 338.796 378.488 338.796 381.624V383.822C338.796 386.986 336.934 388.61 334.666 388.61ZM334.666 387.35C336.192 387.35 337.382 386.202 337.382 383.752V381.708C337.382 379.258 336.192 378.11 334.666 378.11C333.14 378.11 331.95 379.258 331.95 381.708V383.752C331.95 386.202 333.14 387.35 334.666 387.35Z" fill="black"/>
<path d="M67.7946 191.592C71.1546 191.592 73.6346 193.688 73.6346 197.272V198.952C73.6346 202.568 71.1546 204.648 67.7946 204.648H63.0746V191.592H67.7946ZM71.5706 198.872V197.352C71.5706 194.76 70.0026 193.464 67.7946 193.464H65.1386V202.76H67.7946C70.0026 202.76 71.5706 201.496 71.5706 198.872ZM86.1935 204.648H84.0815L82.7055 200.792H77.7295L76.3535 204.648H74.2415L78.9295 191.592H81.4895L86.1935 204.648ZM80.2255 193.768L78.3855 198.936H82.0495L80.2255 193.768ZM93.7301 191.592H96.0341L91.3781 199.576V204.648H89.3141V199.64L84.6421 191.592H86.9461L90.3381 197.672L93.7301 191.592ZM110.095 204.648H101.118V203.064L105.839 198.376C107.167 197.048 107.775 196.168 107.775 195.08C107.775 193.976 106.991 193.192 105.503 193.192C104.062 193.192 103.279 194.248 102.911 195.592L100.959 195.128C101.487 193.144 102.991 191.352 105.503 191.352C108.062 191.352 109.807 192.696 109.807 195C109.807 196.728 108.927 197.96 107.439 199.432L104.062 202.76H110.095V204.648Z" fill="black"/>
<path d="M67.6306 273.592C70.9906 273.592 73.4706 275.688 73.4706 279.272V280.952C73.4706 284.568 70.9906 286.648 67.6306 286.648H62.9106V273.592H67.6306ZM71.4066 280.872V279.352C71.4066 276.76 69.8386 275.464 67.6306 275.464H64.9746V284.76H67.6306C69.8386 284.76 71.4066 283.496 71.4066 280.872ZM86.0294 286.648H83.9174L82.5414 282.792H77.5654L76.1894 286.648H74.0774L78.7654 273.592H81.3254L86.0294 286.648ZM80.0614 275.768L78.2214 280.936H81.8854L80.0614 275.768ZM93.5661 273.592H95.8701L91.2141 281.576V286.648H89.1501V281.64L84.4781 273.592H86.7821L90.1741 279.672L93.5661 273.592ZM100.682 283.576L102.506 282.904C102.938 284.04 103.786 285.048 105.514 285.048C107.258 285.048 108.25 284.168 108.25 282.984C108.25 281.784 107.29 280.792 105.274 280.792H103.578V279.064H105.274C107.05 279.064 107.93 278.232 107.93 277.064C107.93 275.88 106.97 275.192 105.482 275.192C103.994 275.192 103.258 276.104 102.874 277.096L101.05 276.408C101.674 274.728 103.05 273.352 105.482 273.352C108.042 273.352 109.946 274.648 109.946 276.936C109.946 278.552 109.002 279.448 107.93 279.912C109.21 280.376 110.25 281.448 110.25 283.08C110.25 285.384 108.314 286.888 105.514 286.888C102.858 286.888 101.338 285.416 100.682 283.576Z" fill="black"/>
<path d="M67.5915 355.592C70.9515 355.592 73.4315 357.688 73.4315 361.272V362.952C73.4315 366.568 70.9515 368.648 67.5915 368.648H62.8715V355.592H67.5915ZM71.3675 362.872V361.352C71.3675 358.76 69.7995 357.464 67.5915 357.464H64.9355V366.76H67.5915C69.7995 366.76 71.3675 365.496 71.3675 362.872ZM85.9904 368.648H83.8784L82.5024 364.792H77.5264L76.1504 368.648H74.0384L78.7264 355.592H81.2864L85.9904 368.648ZM80.0224 357.768L78.1824 362.936H81.8464L80.0224 357.768ZM93.527 355.592H95.831L91.175 363.576V368.648H89.111V363.64L84.439 355.592H86.743L90.135 361.672L93.527 355.592ZM108.963 364.328H110.771V366.2H108.963V368.888H106.931V366.2H100.563V364.568L106.243 355.592H108.963V364.328ZM106.931 358.024L103.043 364.328H106.931V358.024Z" fill="black"/>
<path d="M0 403H990" stroke="black" stroke-width="3"/>
</svg>
