<svg width="1194" height="444" viewBox="0 0 1194 444" fill="none" xmlns="http://www.w3.org/2000/svg">
<rect y="283" width="1194" height="161" fill="#F5F5F5"/>
<path d="M85.8221 408.648L82.3821 395.592H84.4621L87.1501 405.912L89.8061 395.608L91.9021 395.592L94.5581 405.912L97.2461 395.592H99.3261L95.8861 408.648H93.3901L90.8461 398.92L88.3181 408.648H85.8221ZM108.364 403.432V404.616H101.628C101.74 406.248 102.796 407.064 103.996 407.064C105.036 407.064 105.948 406.6 106.332 405.64L108.204 406.216C107.644 407.976 105.964 408.888 103.996 408.888C101.628 408.888 99.6121 407.352 99.6121 404.344V403.384C99.6121 400.392 101.612 398.856 103.98 398.856C106.38 398.856 108.364 400.392 108.364 403.432ZM101.644 402.92H106.332C106.332 401.608 105.308 400.664 103.98 400.664C102.812 400.664 101.82 401.416 101.644 402.92ZM112.389 408.648H110.325V395.592H112.389V408.648ZM118.795 408.888C116.411 408.888 114.347 407.384 114.347 404.472V403.256C114.347 400.344 116.411 398.856 118.795 398.856C120.619 398.856 122.299 399.784 122.923 401.624L120.987 402.344C120.603 401.24 119.803 400.728 118.795 400.728C117.515 400.728 116.411 401.576 116.411 403.32V404.408C116.411 406.152 117.515 407.016 118.795 407.016C119.803 407.016 120.603 406.504 120.987 405.4L122.923 406.104C122.299 407.944 120.619 408.888 118.795 408.888ZM128.841 408.888C126.457 408.888 124.393 407.384 124.393 404.456V403.256C124.393 400.344 126.457 398.856 128.841 398.856C131.225 398.856 133.305 400.344 133.305 403.256V404.456C133.305 407.384 131.225 408.888 128.841 408.888ZM128.841 407.016C130.121 407.016 131.241 406.152 131.241 404.408V403.32C131.241 401.576 130.121 400.728 128.841 400.728C127.561 400.728 126.457 401.576 126.457 403.32V404.408C126.457 406.152 127.561 407.016 128.841 407.016ZM145.358 398.856C147.246 398.856 148.59 400.392 148.59 402.872V408.648H146.526V402.856C146.526 401.288 145.742 400.712 144.718 400.712C143.71 400.712 142.926 401.464 142.926 402.84V402.872V408.648H140.926V402.856C140.926 401.256 140.142 400.696 139.134 400.696C138.126 400.696 137.342 401.336 137.342 402.84V408.648H135.278V399.096H137.198L137.294 400.264C137.79 399.448 138.622 398.856 139.758 398.856C140.974 398.856 141.934 399.48 142.462 400.6C143.006 399.592 144.03 398.856 145.358 398.856ZM159.067 403.432V404.616H152.331C152.443 406.248 153.499 407.064 154.699 407.064C155.739 407.064 156.651 406.6 157.035 405.64L158.907 406.216C158.347 407.976 156.667 408.888 154.699 408.888C152.331 408.888 150.315 407.352 150.315 404.344V403.384C150.315 400.392 152.315 398.856 154.683 398.856C157.083 398.856 159.067 400.392 159.067 403.432ZM152.347 402.92H157.035C157.035 401.608 156.011 400.664 154.683 400.664C153.515 400.664 152.523 401.416 152.347 402.92ZM175.189 408.648H172.581L168.165 402.952L167.061 404.184V408.648H164.997V395.592H167.061V401.176L172.005 395.592H174.709L169.541 401.4L175.189 408.648ZM178.576 408.648H176.512V395.592H178.576V408.648ZM180.134 395.592H190.534V397.464H186.374V408.648H184.31V397.464H180.134V395.592Z" fill="black"/>
<path d="M235.877 408.648L232.437 395.592H234.517L237.205 405.912L239.861 395.608L241.957 395.592L244.613 405.912L247.301 395.592H249.381L245.941 408.648H243.445L240.901 398.92L238.373 408.648H235.877ZM254.115 408.888C251.731 408.888 249.667 407.384 249.667 404.456V403.256C249.667 400.344 251.731 398.856 254.115 398.856C256.499 398.856 258.579 400.344 258.579 403.256V404.456C258.579 407.384 256.499 408.888 254.115 408.888ZM254.115 407.016C255.395 407.016 256.515 406.152 256.515 404.408V403.32C256.515 401.576 255.395 400.728 254.115 400.728C252.835 400.728 251.731 401.576 251.731 403.32V404.408C251.731 406.152 252.835 407.016 254.115 407.016ZM264.903 398.856C265.319 398.856 265.815 398.92 266.135 399.064L265.639 400.92C265.287 400.792 264.871 400.728 264.535 400.728C263.575 400.728 262.615 401.416 262.615 402.856V408.648H260.551V399.096H262.471L262.567 400.376C263.031 399.448 263.799 398.856 264.903 398.856ZM276.048 408.648H273.6L270.56 404.552L269.6 405.576V408.648H267.536V395.592H269.6V402.856L273.12 399.096H275.664L271.808 403.224L276.048 408.648ZM276.132 406.6L277.7 405.544C278.42 406.728 279.572 407.144 280.532 407.144C281.476 407.144 282.324 406.824 282.324 406.072C282.324 405.336 281.684 405.064 280.82 404.84L279.7 404.552C278.228 404.184 276.804 403.432 276.804 401.624C276.804 399.816 278.308 398.856 280.308 398.856C282.212 398.856 283.444 399.72 284.26 400.904L282.772 402.008C282.116 401.144 281.22 400.6 280.276 400.6C279.348 400.6 278.788 400.984 278.788 401.624C278.788 402.28 279.236 402.584 280.1 402.824L281.204 403.096C282.676 403.464 284.308 404.168 284.308 406.072C284.308 408.008 282.452 408.888 280.484 408.888C278.548 408.888 276.964 408.104 276.132 406.6ZM291.152 398.856C293.056 398.856 295.024 400.536 295.024 403.432V404.376C295.024 407.256 293.056 408.936 291.152 408.936C290 408.936 288.912 408.424 288.176 407.48V411.368H286.112V399.096H288.048L288.144 400.36C288.88 399.384 289.984 398.856 291.152 398.856ZM292.96 404.328V403.464C292.96 401.64 291.888 400.728 290.544 400.728C289.248 400.728 288.176 401.64 288.176 403.464V404.328C288.176 406.152 289.248 407.064 290.544 407.064C291.888 407.064 292.96 406.152 292.96 404.328ZM300.642 398.856C302.866 398.856 304.562 400.216 304.562 402.552V408.648H302.674L302.578 407.432C302.066 408.344 301.138 408.888 299.922 408.888H299.314C297.586 408.888 296.274 407.624 296.274 405.816C296.274 404.12 297.506 402.872 299.826 402.872H302.53V402.632C302.53 401.544 301.874 400.728 300.498 400.728C299.554 400.728 298.882 401.16 298.466 401.912L296.626 401.128C297.346 399.816 298.834 398.856 300.642 398.856ZM299.746 407H300.338C301.394 407 302.386 406.408 302.53 405.368V404.632H299.89C298.85 404.632 298.306 405.096 298.306 405.816C298.306 406.552 298.882 407 299.746 407ZM310.74 408.888C308.356 408.888 306.292 407.384 306.292 404.472V403.256C306.292 400.344 308.356 398.856 310.74 398.856C312.564 398.856 314.244 399.784 314.868 401.624L312.932 402.344C312.548 401.24 311.748 400.728 310.74 400.728C309.46 400.728 308.356 401.576 308.356 403.32V404.408C308.356 406.152 309.46 407.016 310.74 407.016C311.748 407.016 312.548 406.504 312.932 405.4L314.868 406.104C314.244 407.944 312.564 408.888 310.74 408.888ZM325.091 403.432V404.616H318.355C318.467 406.248 319.523 407.064 320.723 407.064C321.763 407.064 322.675 406.6 323.059 405.64L324.931 406.216C324.371 407.976 322.691 408.888 320.723 408.888C318.355 408.888 316.339 407.352 316.339 404.344V403.384C316.339 400.392 318.339 398.856 320.707 398.856C323.107 398.856 325.091 400.392 325.091 403.432ZM318.371 402.92H323.059C323.059 401.608 322.035 400.664 320.707 400.664C319.539 400.664 318.547 401.416 318.371 402.92Z" fill="black"/>
<path d="M408.917 405.48L410.661 404.616C411.301 406.136 412.597 407.016 414.309 407.016C416.005 407.016 417.061 406.376 417.061 405.208C417.061 404.136 416.373 403.624 415.125 403.272L413.205 402.744C411.477 402.264 409.653 401.304 409.653 399.032C409.653 396.744 411.605 395.352 414.149 395.352C416.613 395.352 418.325 396.776 419.029 398.488L417.301 399.352C416.725 398.136 415.685 397.224 414.149 397.224C412.597 397.224 411.685 397.896 411.685 399.032C411.685 400.152 412.549 400.6 413.669 400.904L415.541 401.416C417.285 401.896 419.093 402.904 419.093 405.208C419.093 407.528 416.981 408.888 414.309 408.888C411.685 408.888 409.749 407.608 408.917 405.48ZM425.851 406.712L426.315 408.44C425.739 408.744 424.923 408.888 424.235 408.888C422.571 408.888 421.515 408.008 421.515 406.264V400.968H419.931V399.096H421.515V396.552H423.562V399.096H425.915V400.968H423.562V405.96C423.562 406.792 423.931 407.016 424.539 407.016C425.035 407.016 425.419 406.888 425.851 406.712ZM431.494 398.856C433.718 398.856 435.414 400.216 435.414 402.552V408.648H433.526L433.43 407.432C432.918 408.344 431.99 408.888 430.774 408.888H430.166C428.438 408.888 427.126 407.624 427.126 405.816C427.126 404.12 428.358 402.872 430.678 402.872H433.382V402.632C433.382 401.544 432.726 400.728 431.35 400.728C430.406 400.728 429.734 401.16 429.318 401.912L427.478 401.128C428.198 399.816 429.686 398.856 431.494 398.856ZM430.598 407H431.19C432.246 407 433.238 406.408 433.382 405.368V404.632H430.742C429.702 404.632 429.158 405.096 429.158 405.816C429.158 406.552 429.734 407 430.598 407ZM439.791 408.312L436.271 399.096H438.415L440.863 405.976L443.311 399.096H445.471L441.631 409.176C441.007 410.856 440.127 411.608 438.943 411.608C438.047 411.608 437.279 411.464 436.671 411.224L437.135 409.512C437.615 409.672 438.063 409.784 438.559 409.784C439.023 409.784 439.407 409.56 439.615 408.84L439.791 408.312ZM445.671 406.6L447.239 405.544C447.959 406.728 449.111 407.144 450.071 407.144C451.015 407.144 451.863 406.824 451.863 406.072C451.863 405.336 451.223 405.064 450.359 404.84L449.239 404.552C447.767 404.184 446.343 403.432 446.343 401.624C446.343 399.816 447.847 398.856 449.847 398.856C451.751 398.856 452.983 399.72 453.799 400.904L452.311 402.008C451.655 401.144 450.759 400.6 449.815 400.6C448.887 400.6 448.327 400.984 448.327 401.624C448.327 402.28 448.775 402.584 449.639 402.824L450.743 403.096C452.215 403.464 453.847 404.168 453.847 406.072C453.847 408.008 451.991 408.888 450.023 408.888C448.087 408.888 446.503 408.104 445.671 406.6Z" fill="black"/>
<path d="M548.318 408.648H546.286V395.592H548.27L554.718 405.096V395.592H556.75V408.648H554.766L548.318 399.144V408.648ZM567.356 403.432V404.616H560.62C560.732 406.248 561.788 407.064 562.988 407.064C564.028 407.064 564.94 406.6 565.324 405.64L567.196 406.216C566.636 407.976 564.956 408.888 562.988 408.888C560.62 408.888 558.604 407.352 558.604 404.344V403.384C558.604 400.392 560.604 398.856 562.972 398.856C565.372 398.856 567.356 400.392 567.356 403.432ZM560.636 402.92H565.324C565.324 401.608 564.3 400.664 562.972 400.664C561.804 400.664 560.812 401.416 560.636 402.92ZM574.265 406.712L574.729 408.44C574.153 408.744 573.337 408.888 572.649 408.888C570.985 408.888 569.929 408.008 569.929 406.264V400.968H568.345V399.096H569.929V396.552H571.977V399.096H574.329V400.968H571.977V405.96C571.977 406.792 572.345 407.016 572.953 407.016C573.449 407.016 573.833 406.888 574.265 406.712ZM585.392 406.44L587.616 399.096H589.728L586.512 408.648H584.384L582.48 402.12L580.56 408.648H578.432L575.216 399.096H577.328L579.552 406.44L581.52 399.096H583.424L585.392 406.44ZM594.865 408.888C592.481 408.888 590.417 407.384 590.417 404.456V403.256C590.417 400.344 592.481 398.856 594.865 398.856C597.249 398.856 599.329 400.344 599.329 403.256V404.456C599.329 407.384 597.249 408.888 594.865 408.888ZM594.865 407.016C596.145 407.016 597.265 406.152 597.265 404.408V403.32C597.265 401.576 596.145 400.728 594.865 400.728C593.585 400.728 592.481 401.576 592.481 403.32V404.408C592.481 406.152 593.585 407.016 594.865 407.016ZM605.653 398.856C606.069 398.856 606.565 398.92 606.885 399.064L606.389 400.92C606.037 400.792 605.621 400.728 605.285 400.728C604.325 400.728 603.365 401.416 603.365 402.856V408.648H601.301V399.096H603.221L603.317 400.376C603.781 399.448 604.549 398.856 605.653 398.856ZM616.798 408.648H614.35L611.31 404.552L610.35 405.576V408.648H608.286V395.592H610.35V402.856L613.87 399.096H616.414L612.558 403.224L616.798 408.648ZM619.142 397.48C618.47 397.48 617.926 396.952 617.926 396.264C617.926 395.592 618.47 395.048 619.142 395.048C619.814 395.048 620.358 395.592 620.358 396.264C620.358 396.952 619.814 397.48 619.142 397.48ZM620.182 408.648H618.118V399.096H620.182V408.648ZM627.555 398.856C629.555 398.856 631.155 400.392 631.155 402.872V408.648H629.091V402.968C629.091 401.352 628.211 400.728 626.979 400.728C625.779 400.728 624.787 401.528 624.787 402.84V408.648H622.723V399.096H624.643L624.739 400.312C625.299 399.432 626.291 398.856 627.555 398.856ZM639.782 400.264L639.878 399.096H641.798V407.336C641.798 410.248 639.734 411.608 637.318 411.608C635.462 411.608 633.83 410.984 633.158 409.64L635.27 408.824C635.606 409.528 636.406 409.896 637.318 409.896C638.854 409.896 639.734 408.968 639.734 407.24V406.712C638.998 407.576 637.91 408.056 636.758 408.056C634.854 408.056 632.886 406.456 632.886 403.896V403.032C632.886 400.44 634.854 398.856 636.758 398.856C637.942 398.856 639.046 399.352 639.782 400.264ZM637.35 406.264C638.662 406.264 639.734 405.384 639.734 403.816V403.08C639.734 401.528 638.662 400.648 637.35 400.648C636.022 400.648 634.95 401.528 634.95 403.08V403.816C634.95 405.384 636.022 406.264 637.35 406.264Z" fill="black"/>
<path d="M698.238 408.648H696.206V395.592H698.926L703.118 406.216L707.31 395.592H710.03V408.648H707.998V398.952L704.158 408.648H702.078L698.238 398.952V408.648ZM713.564 397.48C712.892 397.48 712.348 396.952 712.348 396.264C712.348 395.592 712.892 395.048 713.564 395.048C714.236 395.048 714.78 395.592 714.78 396.264C714.78 396.952 714.236 397.48 713.564 397.48ZM714.604 408.648H712.54V399.096H714.604V408.648ZM721.977 398.856C723.977 398.856 725.577 400.392 725.577 402.872V408.648H723.513V402.968C723.513 401.352 722.633 400.728 721.401 400.728C720.201 400.728 719.209 401.528 719.209 402.84V408.648H717.145V399.096H719.065L719.161 400.312C719.721 399.432 720.713 398.856 721.977 398.856ZM734.155 400.28V395.592H736.219V408.648H734.299L734.203 407.416C733.467 408.376 732.379 408.888 731.179 408.888C729.211 408.888 727.307 407.224 727.307 404.344V403.384C727.307 400.536 729.211 398.856 731.179 398.856C732.347 398.856 733.419 399.352 734.155 400.28ZM731.771 407.016C733.083 407.016 734.155 406.136 734.155 404.296V403.448C734.155 401.608 733.083 400.728 731.771 400.728C730.443 400.728 729.371 401.608 729.371 403.448V404.296C729.371 406.136 730.443 407.016 731.771 407.016ZM741.43 398.056V399.096H743.75V400.968H741.43V408.648H739.366V400.968H737.782V399.096H739.366V397.976C739.366 396.072 740.454 395.048 742.118 395.048C742.79 395.048 743.654 395.272 744.23 395.64L743.558 397.24C743.094 397.016 742.774 396.904 742.374 396.904C741.782 396.904 741.43 397.224 741.43 398.056ZM751.539 404.904V399.096H753.603V408.648H751.683L751.587 407.432C751.011 408.296 750.035 408.888 748.771 408.888C746.771 408.888 745.171 407.352 745.171 404.856V399.096H747.235V404.776C747.235 406.392 748.115 407.016 749.331 407.016C750.531 407.016 751.539 406.2 751.539 404.904ZM758.037 408.648H755.973V395.592H758.037V408.648ZM765.227 398.856C767.227 398.856 768.827 400.392 768.827 402.872V408.648H766.763V402.968C766.763 401.352 765.883 400.728 764.651 400.728C763.451 400.728 762.459 401.528 762.459 402.84V408.648H760.395V399.096H762.315L762.411 400.312C762.971 399.432 763.963 398.856 765.227 398.856ZM779.309 403.432V404.616H772.573C772.685 406.248 773.741 407.064 774.941 407.064C775.981 407.064 776.893 406.6 777.277 405.64L779.149 406.216C778.589 407.976 776.909 408.888 774.941 408.888C772.573 408.888 770.557 407.352 770.557 404.344V403.384C770.557 400.392 772.557 398.856 774.925 398.856C777.325 398.856 779.309 400.392 779.309 403.432ZM772.589 402.92H777.277C777.277 401.608 776.253 400.664 774.925 400.664C773.757 400.664 772.765 401.416 772.589 402.92ZM780.554 406.6L782.122 405.544C782.842 406.728 783.994 407.144 784.954 407.144C785.898 407.144 786.746 406.824 786.746 406.072C786.746 405.336 786.106 405.064 785.242 404.84L784.122 404.552C782.65 404.184 781.226 403.432 781.226 401.624C781.226 399.816 782.73 398.856 784.73 398.856C786.634 398.856 787.866 399.72 788.682 400.904L787.194 402.008C786.538 401.144 785.642 400.6 784.698 400.6C783.77 400.6 783.21 400.984 783.21 401.624C783.21 402.28 783.658 402.584 784.522 402.824L785.626 403.096C787.098 403.464 788.73 404.168 788.73 406.072C788.73 408.008 786.874 408.888 784.906 408.888C782.97 408.888 781.386 408.104 780.554 406.6ZM790.054 406.6L791.622 405.544C792.342 406.728 793.494 407.144 794.454 407.144C795.398 407.144 796.246 406.824 796.246 406.072C796.246 405.336 795.606 405.064 794.742 404.84L793.622 404.552C792.15 404.184 790.726 403.432 790.726 401.624C790.726 399.816 792.23 398.856 794.23 398.856C796.134 398.856 797.366 399.72 798.182 400.904L796.694 402.008C796.038 401.144 795.142 400.6 794.198 400.6C793.27 400.6 792.71 400.984 792.71 401.624C792.71 402.28 793.158 402.584 794.022 402.824L795.126 403.096C796.598 403.464 798.23 404.168 798.23 406.072C798.23 408.008 796.374 408.888 794.406 408.888C792.47 408.888 790.886 408.104 790.054 406.6Z" fill="black"/>
<path d="M870.748 408.648H868.636L867.26 404.792H862.284L860.908 408.648H858.796L863.484 395.592H866.044L870.748 408.648ZM864.78 397.768L862.94 402.936H866.604L864.78 397.768ZM875.802 408.888C873.418 408.888 871.354 407.384 871.354 404.472V403.256C871.354 400.344 873.418 398.856 875.802 398.856C877.626 398.856 879.306 399.784 879.93 401.624L877.994 402.344C877.61 401.24 876.81 400.728 875.802 400.728C874.522 400.728 873.418 401.576 873.418 403.32V404.408C873.418 406.152 874.522 407.016 875.802 407.016C876.81 407.016 877.61 406.504 877.994 405.4L879.93 406.104C879.306 407.944 877.626 408.888 875.802 408.888ZM886.749 406.712L887.213 408.44C886.637 408.744 885.821 408.888 885.133 408.888C883.469 408.888 882.413 408.008 882.413 406.264V400.968H880.829V399.096H882.413V396.552H884.461V399.096H886.813V400.968H884.461V405.96C884.461 406.792 884.829 407.016 885.437 407.016C885.933 407.016 886.317 406.888 886.749 406.712ZM889.877 397.48C889.205 397.48 888.661 396.952 888.661 396.264C888.661 395.592 889.205 395.048 889.877 395.048C890.549 395.048 891.093 395.592 891.093 396.264C891.093 396.952 890.549 397.48 889.877 397.48ZM890.917 408.648H888.853V399.096H890.917V408.648ZM896.561 406.392L899.057 399.096H901.249L897.665 408.648H895.441L891.857 399.096H894.049L896.561 406.392ZM903.877 397.48C903.205 397.48 902.661 396.952 902.661 396.264C902.661 395.592 903.205 395.048 903.877 395.048C904.549 395.048 905.093 395.592 905.093 396.264C905.093 396.952 904.549 397.48 903.877 397.48ZM904.917 408.648H902.853V399.096H904.917V408.648ZM912.561 406.712L913.025 408.44C912.449 408.744 911.633 408.888 910.945 408.888C909.281 408.888 908.225 408.008 908.225 406.264V400.968H906.641V399.096H908.225V396.552H910.273V399.096H912.625V400.968H910.273V405.96C910.273 406.792 910.641 407.016 911.249 407.016C911.745 407.016 912.129 406.888 912.561 406.712ZM915.689 397.48C915.017 397.48 914.473 396.952 914.473 396.264C914.473 395.592 915.017 395.048 915.689 395.048C916.361 395.048 916.905 395.592 916.905 396.264C916.905 396.952 916.361 397.48 915.689 397.48ZM916.729 408.648H914.665V399.096H916.729V408.648ZM927.388 403.432V404.616H920.652C920.764 406.248 921.82 407.064 923.02 407.064C924.06 407.064 924.972 406.6 925.356 405.64L927.228 406.216C926.668 407.976 924.988 408.888 923.02 408.888C920.652 408.888 918.636 407.352 918.636 404.344V403.384C918.636 400.392 920.636 398.856 923.004 398.856C925.404 398.856 927.388 400.392 927.388 403.432ZM920.668 402.92H925.356C925.356 401.608 924.332 400.664 923.004 400.664C921.836 400.664 920.844 401.416 920.668 402.92ZM928.632 406.6L930.2 405.544C930.92 406.728 932.072 407.144 933.032 407.144C933.976 407.144 934.824 406.824 934.824 406.072C934.824 405.336 934.184 405.064 933.32 404.84L932.2 404.552C930.728 404.184 929.304 403.432 929.304 401.624C929.304 399.816 930.808 398.856 932.808 398.856C934.712 398.856 935.944 399.72 936.76 400.904L935.272 402.008C934.616 401.144 933.72 400.6 932.776 400.6C931.848 400.6 931.288 400.984 931.288 401.624C931.288 402.28 931.736 402.584 932.6 402.824L933.704 403.096C935.176 403.464 936.808 404.168 936.808 406.072C936.808 408.008 934.952 408.888 932.984 408.888C931.048 408.888 929.464 408.104 928.632 406.6Z" fill="black"/>
<path d="M1006.79 395.592H1017.19V397.464H1013.03V408.648H1010.97V397.464H1006.79V395.592ZM1025.99 403.432V404.616H1019.25C1019.37 406.248 1020.42 407.064 1021.62 407.064C1022.66 407.064 1023.57 406.6 1023.96 405.64L1025.83 406.216C1025.27 407.976 1023.59 408.888 1021.62 408.888C1019.25 408.888 1017.24 407.352 1017.24 404.344V403.384C1017.24 400.392 1019.24 398.856 1021.61 398.856C1024.01 398.856 1025.99 400.392 1025.99 403.432ZM1019.27 402.92H1023.96C1023.96 401.608 1022.93 400.664 1021.61 400.664C1020.44 400.664 1019.45 401.416 1019.27 402.92ZM1031.68 398.856C1033.91 398.856 1035.6 400.216 1035.6 402.552V408.648H1033.71L1033.62 407.432C1033.11 408.344 1032.18 408.888 1030.96 408.888H1030.35C1028.63 408.888 1027.31 407.624 1027.31 405.816C1027.31 404.12 1028.55 402.872 1030.87 402.872H1033.57V402.632C1033.57 401.544 1032.91 400.728 1031.54 400.728C1030.59 400.728 1029.92 401.16 1029.51 401.912L1027.67 401.128C1028.39 399.816 1029.87 398.856 1031.68 398.856ZM1030.79 407H1031.38C1032.43 407 1033.43 406.408 1033.57 405.368V404.632H1030.93C1029.89 404.632 1029.35 405.096 1029.35 405.816C1029.35 406.552 1029.92 407 1030.79 407ZM1047.81 398.856C1049.7 398.856 1051.04 400.392 1051.04 402.872V408.648H1048.98V402.856C1048.98 401.288 1048.19 400.712 1047.17 400.712C1046.16 400.712 1045.38 401.464 1045.38 402.84V402.872V408.648H1043.38V402.856C1043.38 401.256 1042.59 400.696 1041.59 400.696C1040.58 400.696 1039.79 401.336 1039.79 402.84V408.648H1037.73V399.096H1039.65L1039.75 400.264C1040.24 399.448 1041.07 398.856 1042.21 398.856C1043.43 398.856 1044.39 399.48 1044.91 400.6C1045.46 399.592 1046.48 398.856 1047.81 398.856ZM1062.35 395.592C1065.09 395.592 1066.9 396.952 1066.9 399.608C1066.9 402.296 1065.09 403.64 1062.35 403.64H1059.2V408.648H1057.14V395.592H1062.35ZM1059.2 401.816H1062.24C1063.95 401.816 1064.83 401.048 1064.83 399.608C1064.83 398.168 1063.95 397.416 1062.24 397.416H1059.2V401.816ZM1073.36 398.856C1075.38 398.856 1076.98 400.392 1076.98 402.856V408.648H1074.91V402.952C1074.91 401.272 1074.03 400.664 1072.8 400.664C1071.6 400.664 1070.61 401.464 1070.61 402.824V408.648H1068.54V395.592H1070.61V400.232C1071.18 399.416 1072.14 398.856 1073.36 398.856ZM1083.15 408.888C1080.77 408.888 1078.71 407.384 1078.71 404.456V403.256C1078.71 400.344 1080.77 398.856 1083.15 398.856C1085.54 398.856 1087.62 400.344 1087.62 403.256V404.456C1087.62 407.384 1085.54 408.888 1083.15 408.888ZM1083.15 407.016C1084.43 407.016 1085.55 406.152 1085.55 404.408V403.32C1085.55 401.576 1084.43 400.728 1083.15 400.728C1081.87 400.728 1080.77 401.576 1080.77 403.32V404.408C1080.77 406.152 1081.87 407.016 1083.15 407.016ZM1094.54 406.712L1095 408.44C1094.43 408.744 1093.61 408.888 1092.92 408.888C1091.26 408.888 1090.2 408.008 1090.2 406.264V400.968H1088.62V399.096H1090.2V396.552H1092.25V399.096H1094.6V400.968H1092.25V405.96C1092.25 406.792 1092.62 407.016 1093.23 407.016C1093.72 407.016 1094.11 406.888 1094.54 406.712ZM1100.34 408.888C1097.96 408.888 1095.89 407.384 1095.89 404.456V403.256C1095.89 400.344 1097.96 398.856 1100.34 398.856C1102.73 398.856 1104.81 400.344 1104.81 403.256V404.456C1104.81 407.384 1102.73 408.888 1100.34 408.888ZM1100.34 407.016C1101.62 407.016 1102.74 406.152 1102.74 404.408V403.32C1102.74 401.576 1101.62 400.728 1100.34 400.728C1099.06 400.728 1097.96 401.576 1097.96 403.32V404.408C1097.96 406.152 1099.06 407.016 1100.34 407.016Z" fill="black"/>
<path d="M904.443 353.995C906.153 354.829 908.389 354.241 909.632 352.302C910.913 350.307 911.861 348.09 911.797 345.659C911.739 343.379 910.862 341.37 909.196 339.76C908.626 339.204 907.928 338.895 907.056 338.806C905.974 338.693 904.878 338.693 903.808 338.276C902.751 337.865 901.381 338.933 901.374 340.057C901.342 344.2 901.342 348.343 901.374 352.486C901.387 353.919 902.45 354.387 904.283 353.85" stroke="black" stroke-width="3" stroke-linecap="round" stroke-linejoin="round"/>
<path d="M905.15 338.186C904.969 340.802 904.918 343.438 904.568 346.028C904.24 348.494 904.517 350.966 904.2 353.412" stroke="black" stroke-width="3" stroke-linecap="round" stroke-linejoin="round"/>
<path d="M912.75 367.52C912.725 367.37 912.75 367.189 912.668 367.076C912.071 366.22 911.805 364.981 910.543 364.844C909.18 364.694 908.856 365.951 908.273 366.782C907.81 367.445 907.283 368.133 907.08 368.884C906.7 370.284 905.78 370.822 904.474 371.316C900.466 372.848 896.927 375.318 893.052 377.144C888.962 379.07 884.681 380.477 880.407 381.915C880.134 382.009 879.804 381.928 879.5 381.928" stroke="black" stroke-width="3" stroke-linecap="round" stroke-linejoin="round"/>
<path d="M877.986 354.723C878.018 352.699 877.114 350.856 876.83 348.878C876.552 346.951 876.352 344.927 875.338 343.167C875.028 342.628 875.351 342.384 875.661 342.082C876.391 341.356 877.424 341.298 878.315 341.067C879.058 340.874 879.497 341.793 879.664 342.403C880.646 345.923 881.86 349.385 882.325 353.033C882.486 354.286 881.879 355.005 880.31 355.172C878.98 355.314 877.605 355.346 876.287 355.288C873.317 355.166 871.451 353.258 870.27 350.708C869.759 349.61 870.037 348.39 870.573 347.336C871.316 345.891 872.4 344.67 873.498 343.476C873.911 343.026 874.428 342.808 875.048 342.859" stroke="black" stroke-width="3" stroke-linecap="round" stroke-linejoin="round"/>
<path d="M926.743 360.876C927.445 362.6 926.188 363.675 925.352 364.839C921.63 370.01 916.504 373.502 911.142 376.797C906.221 379.824 900.782 381.281 895.344 382.884C892.599 383.691 889.873 384.569 887.065 385.142C884.945 385.574 882.82 386.007 880.63 385.612C878.619 385.243 878.096 384.258 878.932 382.4C878.964 382.337 879.079 382.197 879.079 382.101C879.009 377.973 882.558 376.269 884.792 373.724C886.65 371.613 889.311 370.563 891.673 369.138C895.356 366.919 898.759 364.298 902.206 361.76C903.042 361.143 903.84 360.704 904.829 360.393C909.33 358.981 913.926 358.154 918.624 357.804C920.468 357.67 922.281 357.225 924.139 357.219C926.405 357.212 927.318 358.338 926.903 360.545C923.437 361.111 920.468 362.88 917.404 364.406C915.828 365.189 914.321 366.104 912.649 366.683" stroke="black" stroke-width="3" stroke-linecap="round" stroke-linejoin="round"/>
<path d="M903.25 337.985C902.91 336.782 903.165 335.54 902.956 334.311C902.347 330.676 900.228 328.275 896.989 326.486C893.587 324.608 890.1 324.583 886.449 325.296C883.754 325.818 882.203 327.779 880.47 329.568C877.552 332.586 877.185 336.126 877.938 339.978C877.996 340.29 878.409 340.685 877.97 341.041" stroke="black" stroke-width="3" stroke-linecap="round" stroke-linejoin="round"/>
<path d="M754.801 353.411C753.271 356.135 754.661 358.86 754.801 361.585C754.911 363.598 755.281 365.551 756.711 367.114" stroke="black" stroke-width="3" stroke-linecap="round" stroke-linejoin="round"/>
<path d="M751.921 352.449C756.221 352.609 759.361 355.034 760.251 359.191C760.461 360.192 760.871 361.174 760.851 362.306C760.801 365.371 760.611 365.722 757.691 366.894C755.851 367.635 754.461 369.067 753.151 370.5C752.461 371.251 753.091 372.243 753.171 373.265C757.591 374.286 761.961 374.206 766.081 371.902C768.671 370.45 769.211 367.655 769.351 365.181C769.721 358.71 769.421 352.189 765.321 346.709C762.561 343.023 758.421 341.3 754.071 340.248C753.151 340.028 752.111 339.898 751.231 339.627C749.391 339.066 749.151 337.073 749.981 333.697C750.711 330.732 750.981 327.717 749.031 325.063C747.181 322.548 745.311 322.248 742.561 323.851C739.161 325.824 736.971 330.221 738.031 333.216C738.581 334.769 739.811 336.051 739.941 338.055C736.801 341.04 733.671 344.255 731.271 348.122C728.991 351.798 726.501 355.394 725.571 359.681C724.841 363.067 724.371 366.663 727.011 369.488C728.721 371.311 731.041 372.233 733.681 371.952C734.631 371.852 735.601 371.932 736.561 371.932C739.881 371.932 741.671 368.436 739.981 365.882C738.771 364.059 739.361 361.725 739.521 359.671C739.671 357.818 739.651 355.975 739.641 354.132C739.641 353.18 739.371 352.028 738.231 351.768C737.271 351.548 736.521 351.998 735.791 352.89C733.701 355.474 732.661 358.509 731.801 361.595C731.221 363.678 732.151 364.95 734.401 365.912" stroke="black" stroke-width="3" stroke-linecap="round" stroke-linejoin="round"/>
<path d="M727.521 371.471C726.501 374.126 726.541 376.66 728.481 378.924C729.521 380.136 730.821 380.376 732.321 379.896C734.951 379.054 742.141 378.703 744.941 378.343C745.731 378.243 746.401 378.253 746.851 378.683C750.361 382.099 759.651 379.755 763.751 379.755C765.541 379.755 767.091 376.47 766.861 374.076C766.821 373.675 766.711 373.274 766.631 372.874" stroke="black" stroke-width="3" stroke-linecap="round" stroke-linejoin="round"/>
<path d="M744.951 369.769L749.101 368.316C749.831 368.066 750.561 367.805 751.331 367.765C752.101 367.725 752.911 367.925 753.451 368.476C754.121 369.168 754.221 370.269 753.911 371.181C753.601 372.093 752.931 372.834 752.231 373.485C751.381 374.276 750.441 374.967 749.441 375.558C747.371 376.771 745.001 377.532 743.191 379.104" stroke="black" stroke-width="3" stroke-miterlimit="10"/>
<path d="M148.128 340.747C148.425 339.143 148.581 337.481 147.743 336.038C146.387 333.683 143.147 333.238 140.472 334.784C138.559 335.892 137.373 337.685 135.861 339.18C135.417 339.617 135.772 340.23 135.676 340.747" stroke="black" stroke-width="3" stroke-linecap="round" stroke-linejoin="round"/>
<path d="M135.905 339.594C134.99 338.948 134.326 338.127 133.751 337.144C132.592 335.178 130.541 334.466 128.46 333.982C126.925 333.622 125.464 334.217 124.8 335.566C123.671 337.862 122.933 340.327 123.848 342.931C125.796 343.504 127.634 342.667 129.523 342.55C131.626 342.418 133.832 342.609 135.721 341.347C136.031 341.141 136.127 341.266 136.267 341.332C139.772 342.968 143.328 341.149 146.892 341.406C148.449 341.516 149.873 341.802 151.098 342.477C152.345 343.166 153.157 344.479 153.629 345.924C154.352 348.162 154.492 350.502 154.633 352.798C154.95 358.014 155.297 363.229 155.208 368.467C155.186 369.758 155.289 371.093 154.994 372.333C154.36 375.047 152.294 376.389 149.718 376.896C146.686 377.49 143.66 377.849 140.517 377.945C135.787 378.084 131.065 378.033 126.342 377.967C121.679 377.893 120.314 376.338 119.333 372.509C117.953 367.11 117.827 361.557 118.145 355.974C118.27 353.774 118.491 351.602 118.949 349.475C119.458 347.091 120.705 345.059 122.97 343.819C123.251 343.665 123.45 343.364 123.686 343.129" stroke="black" stroke-width="3" stroke-linecap="round" stroke-linejoin="round"/>
<path d="M139.55 342.71C139.951 350.238 139.747 357.781 139.924 365.317C140.026 369.556 140.461 373.787 140.529 378.033" stroke="black" stroke-width="3" stroke-linecap="round" stroke-linejoin="round"/>
<path d="M132.693 342.71C133.123 344.836 133.001 347.006 133.017 349.132C133.098 356.811 133.503 364.475 133.892 372.146C133.989 374.108 134.767 376.026 134.638 378.033" stroke="black" stroke-width="3" stroke-linecap="round" stroke-linejoin="round"/>
<path d="M269.561 345.876C271.783 345.38 274.057 345.224 276.312 344.969C277.788 344.8 279.239 344.519 280.69 344.265C281.893 344.05 282.513 343.13 282.598 341.806C282.834 338.043 282.709 334.287 282.422 330.537C282.304 328.985 280.69 327.387 278.971 327.093C276.41 326.65 273.828 326.963 271.293 327.152C267.829 327.406 264.385 328.032 260.934 328.509C259.667 328.685 258.418 329.043 257.183 329.35C255.661 329.728 255.497 331.359 255.497 332.578C255.504 335.708 255.131 338.839 255.432 341.969C255.602 343.75 257.105 345.282 258.889 345.589C261.862 346.104 264.849 345.856 267.829 345.895C268.352 345.895 268.901 345.706 269.397 346.039" stroke="black" stroke-width="3" stroke-linecap="round" stroke-linejoin="round"/>
<path d="M254.661 377.649C254.328 374.995 254.615 372.328 254.497 369.667C254.367 366.641 253.916 363.634 254.014 360.589C254.053 359.395 254.229 358.215 254.086 356.982C253.87 355.176 255.667 353.702 258.111 353.389C261.836 352.919 265.542 352.273 269.26 351.752C271.227 351.478 273.319 351.778 275.364 351.706C277.606 351.628 279.847 350.76 282.108 351.589C284.768 350.102 287.898 351.615 290.578 350.265C291.061 350.017 291.525 350.349 291.983 350.428C293.584 350.708 295.166 350.617 296.688 350.089C298.087 349.599 301.021 350.767 301.55 352.136C302.903 355.665 303.805 359.291 303.916 363.093C304.034 366.954 304.23 370.814 304.374 374.675C304.4 375.367 304.465 376.077 304.066 376.71" stroke="black" stroke-width="3" stroke-linecap="round" stroke-linejoin="round"/>
<path d="M281.324 357.459C276.488 357.413 271.698 357.967 266.888 358.333C262.784 358.646 258.634 358.398 254.504 358.398" stroke="black" stroke-width="3" stroke-linecap="round" stroke-linejoin="round"/>
<path d="M269.404 346.189C269.456 347.963 269.509 349.737 269.561 351.511" stroke="black" stroke-width="3" stroke-linecap="round" stroke-linejoin="round"/>
<path d="M294.969 369.511C292.93 369.719 290.891 369.928 288.853 370.137" stroke="black" stroke-width="3" stroke-linecap="round" stroke-linejoin="round"/>
<path d="M282.108 351.667C281.912 353.597 281.938 355.534 281.677 357.484C281.429 359.363 281.579 361.541 281.945 363.563C282.357 365.839 282.03 368.154 282.363 370.456C282.631 372.295 283.448 374.01 283.422 375.928C283.409 376.665 284.154 377.219 285.088 377.186C288.33 377.075 291.571 377.252 294.813 377.062C297.152 376.925 299.524 377.043 301.864 377.219C302.844 377.291 303.72 376.502 304.687 377.023" stroke="black" stroke-width="3" stroke-linecap="round" stroke-linejoin="round"/>
<path d="M298.263 346.033C299.113 346.143 299.995 346.065 300.76 345.83C301.746 345.524 302.805 345.087 302.825 343.685C302.844 342.27 302.165 340.861 300.76 340.43C297.708 339.498 294.571 339.015 291.362 339.309C290.414 339.394 290.212 340.072 290.264 340.867C290.414 343.059 290.486 345.263 290.774 347.435C290.892 348.322 290.682 349.241 291.048 350.102" stroke="black" stroke-width="3" stroke-linecap="round" stroke-linejoin="round"/>
<path d="M295.44 362.937C292.826 362.989 290.212 363.041 287.598 363.093" stroke="black" stroke-width="3" stroke-linecap="round" stroke-linejoin="round"/>
<path d="M287.755 356.519C289.898 356.35 292.048 356.714 294.185 356.363" stroke="black" stroke-width="3" stroke-linecap="round" stroke-linejoin="round"/>
<path d="M298.106 340.241C297.623 341.898 297.178 347.585 297.316 348.85C297.342 349.111 297.316 349.372 297.316 349.632" stroke="black" stroke-width="3" stroke-linecap="round" stroke-linejoin="round"/>
<path d="M277.089 342.556L273.724 342.706C273.397 342.719 273.051 342.739 272.698 342.752C268.424 342.98 263.882 343.834 259.908 342.706C257.268 342.171 257.745 338.232 257.562 335.141C257.66 334.593 257.837 334.104 258.085 333.68C260.32 329.819 268.208 330.524 273.116 330.106C273.567 330.074 274.011 330.054 274.449 330.048C275.331 330.035 276.187 330.08 277.011 330.204C280.984 331.332 279.854 335.304 280.174 338.284C280.193 338.806 280.206 339.152 280.206 339.152C280.285 340.945 278.88 342.478 277.083 342.556H277.089Z" fill="black"/>
<path d="M445.945 350.085C447.254 353.78 448.577 357.469 449.866 361.168C450.431 362.782 450.739 364.436 450.744 366.174C450.744 367.256 451.433 368.274 451.408 369.391C451.363 371.457 451.581 373.528 451.294 375.588C451.125 376.8 450.64 377.267 449.395 377.371C444.681 377.778 439.977 378.24 435.238 378.349C433.493 378.389 431.743 378.647 430.008 378.851C428.303 379.049 426.573 378.97 424.888 379.292C421.755 379.893 418.617 378.985 415.484 379.382C414.656 379.486 414.324 378.756 414.19 378.086C413.675 375.524 413.145 372.942 413.05 370.34C412.986 368.612 412.862 366.769 413.596 365.101C415.34 361.149 416.188 356.873 417.953 352.926C418.196 352.375 418.538 351.858 418.701 351.272" stroke="black" stroke-width="3" stroke-linecap="round" stroke-linejoin="round"/>
<path d="M439.402 350.682C439.253 351.069 439.303 351.476 439.278 351.873C439.189 353.234 438.629 353.75 437.261 353.78C434.083 353.85 430.916 353.591 427.743 353.542C426.945 353.532 426.672 353.125 426.524 352.355C426.315 351.248 426.747 350.279 426.915 349.252C427.009 348.69 427.312 348.452 427.976 348.383C431.104 348.06 434.242 348.025 437.38 348.08C438.039 348.09 438.683 348.353 438.936 349.127C439.095 349.619 439.323 350.086 439.521 350.562" stroke="black" stroke-width="3" stroke-linecap="round" stroke-linejoin="round"/>
<path d="M439.64 350.562C441.305 350.443 442.971 350.319 444.636 350.205C445.94 350.12 446.664 349.465 446.773 348.174C446.907 346.52 446.565 344.887 446.248 343.298C445.985 341.972 444.76 341.515 443.447 341.371C439.372 340.924 435.283 340.865 431.193 340.909C428.814 340.934 426.424 340.761 424.055 341.143C422.692 341.361 421.358 341.694 420.129 342.34C418.795 343.04 418.414 344.37 418.265 345.676C418.116 346.967 417.958 348.283 418.21 349.609C418.513 351.218 418.756 351.426 420.372 351.282C422.032 351.138 423.693 350.9 425.368 350.915C425.651 350.915 425.943 350.865 426.201 351.034" stroke="black" stroke-width="3" stroke-linecap="round" stroke-linejoin="round"/>
<path d="M450.585 366.412C448.463 367.157 446.228 367.207 444.042 367.326C436.71 367.718 429.379 368.001 422.037 368.115C419.46 368.155 416.882 368.14 414.304 368.2C414.022 368.205 413.729 368.254 413.472 368.085" stroke="black" stroke-width="3" stroke-linecap="round" stroke-linejoin="round"/>
<path d="M613.937 366.053C614.697 366.762 615.343 367.512 616.472 367.842C618.189 368.35 618.606 369.269 618.238 371.075C617.944 372.534 617.739 374.042 616.881 375.332" stroke="black" stroke-width="3" stroke-linecap="round" stroke-linejoin="round"/>
<path d="M616.292 375.179C614.722 374.969 613.52 373.897 611.991 373.558C608.859 372.865 605.703 372.212 602.759 370.882C600.322 369.786 597.37 369.431 596.283 366.432L594.517 366.625C592.644 368.73 589.872 368.979 587.427 369.649C582.267 371.059 576.985 372.059 571.744 373.204C569.838 373.623 568.841 372.841 569.021 370.89C569.364 367.319 568.808 367.44 572.709 366.198C574.532 365.618 576.601 365.465 578.024 363.925" stroke="black" stroke-width="3" stroke-linecap="round" stroke-linejoin="round"/>
<path d="M601.181 364.311C602.252 364.755 603.389 364.707 604.517 364.707C606.259 364.707 607.951 364.666 609.644 365.432C611.402 366.23 613.275 366.279 614.935 364.916C615.327 364.594 615.744 364.263 616.292 364.11C617.911 363.65 618.066 362.336 617.837 361.03C617.437 358.652 616.742 358.201 614.338 358.733C613.536 358.91 612.768 358.878 611.975 358.894" stroke="black" stroke-width="3" stroke-linecap="round" stroke-linejoin="round"/>
<path d="M607.853 364.505C608.123 363.207 609.497 362.699 609.996 361.595C610.478 360.539 611.705 359.845 611.582 358.507C611.353 355.992 611.149 353.469 608.459 352.106C608.205 351.977 607.862 351.751 607.853 351.526C608.442 347.422 611.451 344.141 611.173 339.909C607.755 339.07 605.997 342.4 603.184 342.698C601.655 340.981 601.41 338.788 600.584 336.845C599.595 334.499 599.529 331.75 597.452 329.872L596.16 330.896C594.386 333.371 594.1 336.515 593.151 339.361C592.546 341.166 592.415 343.19 590.592 344.391L589.063 342.803L587.452 341.102C586.528 341.046 585.98 341.674 585.506 342.271C583.02 345.391 581.262 348.672 581.245 352.904C581.237 355.645 582.088 357.911 583.134 360.256C583.478 361.022 583.788 361.804 584.116 362.578" stroke="black" stroke-width="3" stroke-linecap="round" stroke-linejoin="round"/>
<path d="M593.723 364.505C593.543 362.78 592.603 361.232 592.546 359.474C592.44 356.492 592.243 353.485 594.705 351.155C594.705 351.155 596.724 352.316 597.804 353.662C599.194 352.227 600.985 351.542 600.985 351.542C603.16 354.379 603.429 358.717 601.565 361.595C601.091 362.32 600.731 363.07 600.592 363.924" stroke="black" stroke-width="3" stroke-linecap="round" stroke-linejoin="round"/>
<path d="M580.967 355.798C579.357 356.105 577.836 355.444 576.257 355.379C575.006 355.331 574.295 355.653 574.082 356.951C573.894 358.056 573.551 359.136 573.281 360.2C573.911 361.022 574.851 361.312 575.685 361.546C576.421 361.748 577.051 362.022 577.41 362.586C578.678 364.553 580.469 364.19 582.12 363.489C583.625 362.852 584.631 362.731 586.143 363.82C587.64 364.9 589.741 365.23 591.761 364.706C592.325 364.561 592.939 364.561 593.527 364.497" stroke="black" stroke-width="3" stroke-linecap="round" stroke-linejoin="round"/>
<path d="M1064.11 336.396C1063.26 336.675 1062.4 336.733 1061.51 336.754C1057.69 336.847 1053.86 336.503 1050.04 337.048C1047.87 337.356 1045.66 336.725 1043.44 337.048C1041.01 337.406 1038.73 338.315 1036.35 338.874C1035.17 339.146 1034.81 340.557 1034.4 341.717C1032.71 346.545 1032.98 351.544 1033.07 356.507C1033.12 359.322 1033.53 362.13 1033.85 364.937C1034.28 368.561 1034.91 369.07 1038.38 370.502C1044.56 373.052 1050.94 372.565 1057.33 372.321C1061.38 372.164 1065.44 372.128 1069.49 371.856C1071.56 371.713 1073.63 371.397 1075.74 371.44C1077.16 371.469 1078.17 370.352 1078.33 368.726C1078.68 365.066 1078.54 361.399 1078.39 357.725C1078.25 354.387 1077.87 351.078 1077.65 347.755C1077.51 345.771 1077.26 343.759 1076.55 341.932C1075.79 339.963 1074.11 338.917 1071.93 338.423C1069.36 337.836 1066.74 337.406 1064.28 336.41" stroke="black" stroke-width="3" stroke-linecap="round" stroke-linejoin="round"/>
<path d="M1066.37 355.991C1066.14 354.301 1065.98 352.611 1065.33 351.007C1063.15 345.549 1056.67 342.605 1050.92 346.194C1049.71 346.946 1048.42 347.605 1047.28 348.442C1043.62 351.157 1043.32 354.623 1044.61 358.756C1046.19 363.848 1051.34 366.978 1055.61 367.265C1059.31 367.515 1064.01 364.522 1065.53 360.468C1066.06 359.057 1066.16 357.61 1066.37 356.163" stroke="black" stroke-width="3" stroke-linecap="round" stroke-linejoin="round"/>
<path d="M1073.14 338.459C1073.44 336.869 1073.82 335.307 1073.52 333.638C1073.34 332.607 1072.97 332.091 1071.92 331.905C1070.75 331.705 1069.61 331.339 1068.44 331.067C1065.9 330.466 1064.7 331.239 1064.29 333.817C1064.16 334.605 1064.17 335.422 1064.11 336.224" stroke="black" stroke-width="3" stroke-linecap="round" stroke-linejoin="round"/>
<path d="M1061.59 355.876C1061.88 361.234 1056.82 362.666 1053.2 361.95C1051.03 361.234 1049.58 359.085 1048.86 356.936C1048.14 353.355 1051.03 349.774 1054.65 349.058C1056.82 349.058 1058.27 349.774 1059.71 351.436C1060.87 352.568 1061.59 354.136 1061.59 355.876Z" fill="black"/>
<circle cx="396" cy="73.4558" r="18" transform="rotate(45 396 73.4558)" fill="#02FF99"/>
<path d="M172.858 113.369L167.913 94.601H170.903L174.767 109.436L178.585 94.624L181.598 94.601L185.416 109.436L189.28 94.601H192.27L187.325 113.369H183.737L180.08 99.385L176.446 113.369H172.858ZM199.075 113.714C195.648 113.714 192.681 111.552 192.681 107.343V105.618C192.681 101.432 195.648 99.293 199.075 99.293C202.502 99.293 205.492 101.432 205.492 105.618V107.343C205.492 111.552 202.502 113.714 199.075 113.714ZM199.075 111.023C200.915 111.023 202.525 109.781 202.525 107.274V105.71C202.525 103.203 200.915 101.984 199.075 101.984C197.235 101.984 195.648 103.203 195.648 105.71V107.274C195.648 109.781 197.235 111.023 199.075 111.023ZM214.583 99.293C215.181 99.293 215.894 99.385 216.354 99.592L215.641 102.26C215.135 102.076 214.537 101.984 214.054 101.984C212.674 101.984 211.294 102.973 211.294 105.043V113.369H208.327V99.638H211.087L211.225 101.478C211.892 100.144 212.996 99.293 214.583 99.293ZM230.604 113.369H227.085L222.715 107.481L221.335 108.953V113.369H218.368V94.601H221.335V105.043L226.395 99.638H230.052L224.509 105.572L230.604 113.369Z" fill="black"/>
<path d="M50.1016 152.248V148.632H51.2536V163.4H50.1016V157.928H46.8696C46.4696 160.408 44.9496 161.432 43.1896 161.432C41.1096 161.432 39.4136 160.04 39.4136 156.536V154.328C39.4136 150.824 41.1096 149.432 43.1896 149.432C44.7896 149.432 46.1656 150.264 46.7096 152.248H50.1016ZM45.8136 156.52V154.328C45.8136 151.576 44.6936 150.488 43.1896 150.488C41.6856 150.488 40.5656 151.576 40.5656 154.328V156.52C40.5656 159.272 41.6856 160.376 43.1896 160.376C44.6936 160.376 45.8136 159.272 45.8136 156.52ZM46.9656 156.872H50.1016V153.288H46.9176C46.9496 153.608 46.9656 153.96 46.9656 154.328V156.536V156.872ZM61.9134 155.848H59.8174C57.1774 155.848 55.5454 154.536 55.5454 152.504C55.5454 150.504 57.1774 149.192 59.8174 149.192H61.9134C64.5374 149.192 66.2014 150.504 66.2014 152.504C66.2014 154.536 64.5374 155.848 61.9134 155.848ZM61.7214 150.216H59.9934C57.8814 150.216 56.6814 151.144 56.6814 152.504C56.6814 153.896 57.8814 154.824 59.9934 154.824H61.7214C63.8494 154.824 65.0494 153.88 65.0494 152.504C65.0494 151.144 63.8494 150.216 61.7214 150.216ZM53.9454 157.992H67.7694V159.032H64.0734V163.56H62.9214V159.032H58.8094V163.56H57.6574V159.032H53.9454V157.992ZM76.6053 155.016V156.504H82.9413V157.448H69.1173V156.504H75.4693V155.016H71.0533V151.528H79.8693V149.976H70.9733V149H81.0213V152.488H72.1893V154.072H81.3253V155.016H76.6053ZM72.0453 159.928H80.0133V158.44H81.1653V163.4H70.9093V158.44H72.0453V159.928ZM72.0453 160.856V162.456H80.0133V160.856H72.0453ZM95.2812 151.384V150.92H85.8412V149.88H96.4172V151.128C96.4172 153.208 96.0652 156.024 95.6012 158.552L94.4812 158.344C94.9452 155.864 95.2812 153 95.2812 151.384ZM90.7692 154.904V161.16H98.1132V162.216H84.2892V161.16H89.6332V154.904H90.7692ZM115 154.408H117.448V155.464H115V163.4H113.864V148.632H115V154.408ZM108.12 150.936V151.784C108.12 152.968 107.976 154.072 107.688 155.128L112.056 160.424L111.176 161.192L107.256 156.408C106.552 158.136 105.448 159.736 103.944 161.352L103.112 160.584C105.544 157.96 107 155.432 107 151.784V150.936H103.688V149.896H111.464V150.936H108.12ZM126.492 155.848H124.396C121.756 155.848 120.124 154.536 120.124 152.504C120.124 150.504 121.756 149.192 124.396 149.192H126.492C129.116 149.192 130.78 150.504 130.78 152.504C130.78 154.536 129.116 155.848 126.492 155.848ZM126.3 150.216H124.572C122.46 150.216 121.26 151.144 121.26 152.504C121.26 153.896 122.46 154.824 124.572 154.824H126.3C128.428 154.824 129.628 153.88 129.628 152.504C129.628 151.144 128.428 150.216 126.3 150.216ZM118.524 157.992H132.348V159.032H128.652V163.56H127.5V159.032H123.388V163.56H122.236V159.032H118.524V157.992ZM141.183 157.992V161.16H147.519V162.216H133.695V161.16H140.047V157.992H135.487V153.32H144.591V150.76H135.407V149.72H145.743V154.344H136.623V156.968H146.063V157.992H141.183ZM156.803 154.824H154.755C152.195 154.824 150.579 153.736 150.579 151.832C150.579 149.928 152.195 148.84 154.755 148.84H156.803C159.379 148.84 160.995 149.928 160.995 151.832C160.995 153.736 159.379 154.824 156.803 154.824ZM156.627 149.848H154.947C152.867 149.848 151.715 150.616 151.715 151.832C151.715 153.048 152.867 153.816 154.947 153.816H156.627C158.691 153.816 159.843 153.032 159.843 151.832C159.843 150.616 158.691 149.848 156.627 149.848ZM148.867 157.624V156.568H162.691V157.624H156.355V160.552H155.219V157.624H148.867ZM150.723 159.112H151.875V162.344H161.155V163.4H150.723V159.112ZM178.682 148.92H179.834V155.208H169.866V148.92H171.002V151.096H178.682V148.92ZM171.002 152.104V154.216H178.682V152.104H171.002ZM167.93 158.008V156.952H181.754V158.008H175.418V160.552H174.282V158.008H167.93ZM169.786 159.416H170.938V162.344H180.218V163.4H169.786V159.416ZM194.43 163.4V148.648H195.566V163.4H194.43ZM187.95 156.056C185.806 156.056 184.078 154.984 184.078 152.808V152.536C184.078 150.344 185.806 149.272 187.95 149.272C190.078 149.272 191.806 150.344 191.806 152.536V152.808C191.806 154.984 190.078 156.056 187.95 156.056ZM185.23 152.552V152.792C185.23 154.248 186.366 155.048 187.95 155.048C189.518 155.048 190.654 154.248 190.654 152.792V152.552C190.654 151.08 189.518 150.296 187.95 150.296C186.366 150.296 185.23 151.08 185.23 152.552ZM193.022 157.48L193.15 158.504C191.758 158.696 190.094 158.84 188.51 158.92C188.398 160.392 188.238 161.912 188.046 163.528L186.926 163.4C187.102 161.848 187.262 160.392 187.358 158.968C186.83 158.984 186.334 159 185.854 159H183.294L183.23 157.944H185.918C187.742 157.944 190.702 157.768 193.022 157.48ZM209.618 163.4V148.632H210.754V163.4H209.618ZM205.106 150.936H199.282V149.896H206.258V151.032C206.258 155.208 203.762 158.856 199.73 161.528L199.058 160.632C202.802 158.2 205.106 154.712 205.106 151.256V150.936ZM225.909 163.4H224.773V148.632H225.909V163.4ZM218.293 157.416C216.149 157.416 214.421 156.184 214.421 153.592V153.256C214.421 150.664 216.149 149.432 218.293 149.432C220.405 149.432 222.149 150.664 222.149 153.256V153.592C222.149 156.184 220.405 157.416 218.293 157.416ZM218.293 156.36C219.845 156.36 220.997 155.416 220.997 153.576V153.272C220.997 151.416 219.845 150.472 218.293 150.472C216.725 150.472 215.573 151.416 215.573 153.272V153.576C215.573 155.416 216.725 156.36 218.293 156.36ZM216.197 160.968H213.637L213.573 159.912H216.261C218.085 159.912 221.045 159.736 223.365 159.448L223.493 160.456C221.269 160.776 218.373 160.968 216.197 160.968ZM243.82 154.28L242.716 154.12C243.036 152.584 243.196 150.952 243.196 150.2H234.364V149.16H244.332V149.928C244.332 151.096 244.156 152.712 243.82 154.28ZM239.452 152.184V155.24H246.332V156.264H232.508V155.24H238.316V152.184H239.452ZM237.836 157.992H241.004C243.436 157.992 244.716 159.208 244.716 160.776C244.716 162.36 243.436 163.56 241.004 163.56H237.836C235.42 163.56 234.14 162.36 234.14 160.776C234.14 159.208 235.42 157.992 237.836 157.992ZM238.108 162.552H240.732C242.636 162.552 243.564 161.832 243.564 160.76C243.564 159.736 242.636 159 240.732 159H238.108C236.204 159 235.276 159.736 235.276 160.76C235.276 161.832 236.204 162.552 238.108 162.552ZM259.344 148.632V152.552H261.792V153.608H259.344V159.848H258.192V148.632H259.344ZM255.056 149.592V150.376C255.056 153.608 252.544 156.024 248.496 157.64L248 156.664C251.632 155.224 253.92 152.984 253.92 150.632H248.256V149.592H255.056ZM250.144 158.68H251.296V162.344H260.176V163.4H250.144V158.68ZM270.804 153.528H268.724C266.18 153.528 264.564 152.808 264.564 151.128C264.564 149.464 266.18 148.76 268.724 148.76H270.804C273.364 148.76 274.98 149.464 274.98 151.128C274.98 152.808 273.364 153.528 270.804 153.528ZM268.916 152.552H270.628C272.708 152.552 273.828 152.072 273.828 151.128C273.828 150.184 272.708 149.736 270.628 149.736H268.916C266.836 149.736 265.7 150.184 265.7 151.128C265.7 152.104 266.836 152.552 268.916 152.552ZM276.676 155.768H262.852V154.792H276.676V155.768ZM275.3 163.48H264.644V159.832H273.748V158.168H264.564V157.208H274.9V160.792H265.78V162.504H275.3V163.48ZM293.45 163.4V148.632H294.57V163.4H293.45ZM287.658 154.264H290.266V148.872H291.37V163.128H290.266V155.304H287.658V154.264ZM285.978 150.936V151.912C285.978 153.08 285.866 154.184 285.626 155.224L289.162 160.52L288.25 161.176L285.226 156.648C284.666 158.264 283.802 159.8 282.634 161.352L281.754 160.648C283.77 158.008 284.89 155.464 284.89 151.912V150.936H282.266V149.896H288.65V150.936H285.978ZM308.398 154.28L307.294 154.12C307.614 152.584 307.774 150.952 307.774 150.2H298.942V149.16H308.91V149.928C308.91 151.096 308.734 152.712 308.398 154.28ZM304.03 152.184V155.24H310.91V156.264H297.086V155.24H302.894V152.184H304.03ZM302.414 157.992H305.582C308.014 157.992 309.294 159.208 309.294 160.776C309.294 162.36 308.014 163.56 305.582 163.56H302.414C299.998 163.56 298.718 162.36 298.718 160.776C298.718 159.208 299.998 157.992 302.414 157.992ZM302.686 162.552H305.31C307.214 162.552 308.142 161.832 308.142 160.76C308.142 159.736 307.214 159 305.31 159H302.686C300.782 159 299.854 159.736 299.854 160.76C299.854 161.832 300.782 162.552 302.686 162.552ZM317.186 150.104H320.898V151.08H312.338V150.104H316.05V148.44H317.186V150.104ZM323.906 152.248H326.37V153.288H323.906V156.808H322.77V148.632H323.906V152.248ZM320.21 154.28V154.488C320.21 156.024 318.642 156.856 316.642 156.856C314.642 156.856 313.058 156.024 313.058 154.488V154.28C313.058 152.76 314.642 151.928 316.642 151.928C318.642 151.928 320.21 152.76 320.21 154.28ZM314.194 154.312V154.472C314.194 155.336 315.266 155.88 316.642 155.88C318.002 155.88 319.09 155.336 319.09 154.472V154.312C319.09 153.464 318.002 152.904 316.642 152.904C315.266 152.904 314.194 153.464 314.194 154.312ZM315.874 159.448H322.77V157.688H323.906V163.384H314.722V157.688H315.874V159.448ZM315.874 160.472V162.376H322.77V160.472H315.874ZM339.91 163.4H338.774V148.632H339.91V163.4ZM330.726 160.936H328.47V149.816H329.606V159.896H330.934C332.726 159.896 335.094 159.688 337.014 159.384L337.142 160.392C335.366 160.712 332.902 160.936 330.726 160.936ZM354.266 154.408H356.714V155.464H354.266V163.4H353.114V148.632H354.266V154.408ZM344.186 159.896H345.53C347.29 159.896 349.562 159.688 351.434 159.416L351.562 160.424C349.818 160.728 347.466 160.936 345.338 160.936H343.034V149.816H349.978V150.872H344.186V159.896ZM358.99 162.792C358.494 162.792 358.11 162.392 358.11 161.896C358.11 161.4 358.494 161.016 358.99 161.016C359.486 161.016 359.886 161.4 359.886 161.896C359.886 162.392 359.486 162.792 358.99 162.792Z" fill="black"/>
<path d="M478.718 155.408H481.166V156.464H478.718V164.4H477.582V149.632H478.718V155.408ZM471.838 151.936V152.784C471.838 153.968 471.694 155.072 471.406 156.128L475.774 161.424L474.894 162.192L470.974 157.408C470.27 159.136 469.166 160.736 467.662 162.352L466.83 161.584C469.262 158.96 470.718 156.432 470.718 152.784V151.936H467.406V150.896H475.182V151.936H471.838ZM493.586 155.952H490.242C489.682 157.456 488.306 158.192 486.722 158.192C484.594 158.192 482.882 156.944 482.882 154.336V154C482.882 151.376 484.594 150.112 486.722 150.112C488.13 150.112 489.378 150.688 490.034 151.888H493.586V149.632H494.738V160.848H493.586V155.952ZM484.034 154V154.32C484.034 156.208 485.17 157.168 486.722 157.168C488.242 157.168 489.378 156.208 489.378 154.32V154C489.378 152.112 488.242 151.136 486.722 151.136C485.17 151.136 484.034 152.112 484.034 154ZM493.586 154.992V152.88H490.402C490.466 153.216 490.514 153.6 490.514 154V154.336C490.514 154.56 490.498 154.784 490.482 154.992H493.586ZM486.386 159.68V163.344H495.426V164.4H485.234V159.68H486.386ZM509.206 155.568H511.51V156.608H509.206V164.4H508.07V149.632H509.206V155.568ZM504.262 152.304V151.936H498.214V150.896H505.414V152.016C505.414 154.016 505.11 156.48 504.662 158.784L503.542 158.592C503.99 156.304 504.262 153.808 504.262 152.304ZM501.51 155.408V160.88C503.126 160.816 505.062 160.672 506.662 160.464L506.79 161.472C504.63 161.776 501.782 161.968 499.67 161.968H497.238L497.19 160.912H499.734H500.358V155.408H501.51ZM528.141 155.408H530.589V156.464H528.141V164.4H526.989V149.632H528.141V155.408ZM522.717 151.936H517.053V150.896H523.853V152.032C523.853 156.208 521.421 159.84 517.501 162.528L516.813 161.632C520.461 159.184 522.717 155.712 522.717 152.256V151.936ZM543.393 155.408H545.841V156.464H543.393V164.4H542.273V149.632H543.393V155.408ZM534.545 151.936H532.161V150.896H535.665V152.032C535.665 155.408 534.657 158.832 532.785 162.32L531.825 161.76C533.617 158.448 534.545 155.008 534.545 152.256V151.936ZM538.833 151.936H536.497V150.896H539.953V152.032C539.953 155.52 538.977 159.44 537.073 162.928L536.129 162.368C537.937 159.056 538.833 155.136 538.833 152.256V151.936ZM554.756 155.824H552.708C550.148 155.824 548.532 154.736 548.532 152.832C548.532 150.928 550.148 149.84 552.708 149.84H554.756C557.332 149.84 558.948 150.928 558.948 152.832C558.948 154.736 557.332 155.824 554.756 155.824ZM554.58 150.848H552.9C550.82 150.848 549.668 151.616 549.668 152.832C549.668 154.048 550.82 154.816 552.9 154.816H554.58C556.644 154.816 557.796 154.032 557.796 152.832C557.796 151.616 556.644 150.848 554.58 150.848ZM546.82 158.624V157.568H560.644V158.624H554.308V161.552H553.172V158.624H546.82ZM548.676 160.112H549.828V163.344H559.108V164.4H548.676V160.112ZM577.195 164.4V149.632H578.347V164.4H577.195ZM571.099 150.544V152.384C571.099 153.664 570.939 154.88 570.619 156.032L575.211 161.44L574.363 162.192L570.203 157.28C569.483 159.072 568.315 160.736 566.683 162.352L565.883 161.568C568.603 158.896 569.979 156.112 569.979 152.384V150.544H571.099ZM592.719 149.632V153.552H595.167V154.608H592.719V160.848H591.567V149.632H592.719ZM588.431 150.592V151.376C588.431 154.608 585.919 157.024 581.871 158.64L581.375 157.664C585.007 156.224 587.295 153.984 587.295 151.632H581.631V150.592H588.431ZM583.519 159.68H584.671V163.344H593.551V164.4H583.519V159.68ZM607.811 149.632H608.915V160.848H607.811V149.632ZM604.691 154.448H602.707C602.675 156.96 601.347 158.192 599.635 158.192C597.859 158.192 596.531 156.928 596.531 154.336V154C596.531 151.376 597.859 150.112 599.635 150.112C601.235 150.112 602.499 151.184 602.675 153.408H604.691V149.792H605.779V160.368H604.691V154.448ZM597.603 154.016V154.32C597.603 156.176 598.467 157.168 599.635 157.168C600.771 157.168 601.619 156.176 601.619 154.32V154.016C601.619 152.128 600.771 151.136 599.635 151.136C598.467 151.136 597.603 152.128 597.603 154.016ZM600.355 159.904V163.344H609.603V164.4H599.219V159.904H600.355ZM626.937 155.408H629.385V156.464H626.937V164.4H625.801V149.632H626.937V155.408ZM620.057 151.936V152.784C620.057 153.968 619.913 155.072 619.625 156.128L623.993 161.424L623.113 162.192L619.193 157.408C618.489 159.136 617.385 160.736 615.881 162.352L615.049 161.584C617.481 158.96 618.937 156.432 618.937 152.784V151.936H615.625V150.896H623.401V151.936H620.057ZM641.805 149.632H642.941V160.848H641.805V149.632ZM639.309 158.176L634.957 154.896C634.205 156.224 632.973 157.392 631.245 158.48L630.637 157.584C633.325 155.84 634.717 153.936 634.717 151.392V150.24H635.853V151.392C635.853 152.288 635.709 153.104 635.421 153.888L639.949 157.296L639.309 158.176ZM634.589 159.904V163.344H643.629V164.4H633.453V159.904H634.589ZM658.097 164.4H656.961V149.632H658.097V164.4ZM650.481 158.416C648.337 158.416 646.609 157.184 646.609 154.592V154.256C646.609 151.664 648.337 150.432 650.481 150.432C652.593 150.432 654.337 151.664 654.337 154.256V154.592C654.337 157.184 652.593 158.416 650.481 158.416ZM650.481 157.36C652.033 157.36 653.185 156.416 653.185 154.576V154.272C653.185 152.416 652.033 151.472 650.481 151.472C648.913 151.472 647.761 152.416 647.761 154.272V154.576C647.761 156.416 648.913 157.36 650.481 157.36ZM648.385 161.968H645.825L645.761 160.912H648.449C650.273 160.912 653.233 160.736 655.553 160.448L655.681 161.456C653.457 161.776 650.561 161.968 648.385 161.968ZM677.175 156.864H676.039V149.632H677.175V156.864ZM669.191 156.432C667.047 156.432 665.335 155.392 665.335 153.328V153.072C665.335 150.992 667.047 149.968 669.191 149.968C671.303 149.968 673.015 150.992 673.015 153.072V153.328C673.015 155.392 671.303 156.432 669.191 156.432ZM669.191 155.392C670.743 155.392 671.879 154.672 671.879 153.296V153.088C671.879 151.744 670.743 150.992 669.191 150.992C667.607 150.992 666.487 151.744 666.487 153.088V153.296C666.487 154.672 667.607 155.392 669.191 155.392ZM677.799 164.48H667.687V160.656H676.039V158.896H667.623V157.92H677.175V161.648H668.839V163.472H677.799V164.48ZM691.659 155.568H693.963V156.608H691.659V164.4H690.523V149.632H691.659V155.568ZM686.715 152.304V151.936H680.667V150.896H687.867V152.016C687.867 154.016 687.563 156.48 687.115 158.784L685.995 158.592C686.443 156.304 686.715 153.808 686.715 152.304ZM683.963 155.408V160.88C685.579 160.816 687.515 160.672 689.115 160.464L689.243 161.472C687.083 161.776 684.235 161.968 682.123 161.968H679.691L679.643 160.912H682.187H682.811V155.408H683.963ZM710.578 152.624H713.026V153.68H710.578V156.864H709.426V149.632H710.578V152.624ZM707.074 156.624L702.834 154C702.098 155.12 700.882 156.08 699.186 156.944L698.658 156C701.218 154.64 702.61 153.104 702.61 150.992V150.144H703.73V150.992C703.73 151.728 703.602 152.416 703.346 153.04L707.666 155.712L707.074 156.624ZM701.618 163.488H701.954C702.77 163.488 704.338 163.392 705.218 163.28L705.314 164.256C704.274 164.384 702.658 164.48 701.442 164.48H700.53V160.688H703.89V158.88H700.45V157.92H704.994V161.648H701.618V163.488ZM710.578 164.48H705.906V157.92H710.578V164.48ZM709.522 158.912H706.946V163.456H709.522V158.912ZM722.054 154.528H719.974C717.43 154.528 715.814 153.808 715.814 152.128C715.814 150.464 717.43 149.76 719.974 149.76H722.054C724.614 149.76 726.23 150.464 726.23 152.128C726.23 153.808 724.614 154.528 722.054 154.528ZM720.166 153.552H721.878C723.958 153.552 725.078 153.072 725.078 152.128C725.078 151.184 723.958 150.736 721.878 150.736H720.166C718.086 150.736 716.95 151.184 716.95 152.128C716.95 153.104 718.086 153.552 720.166 153.552ZM727.926 156.768H714.102V155.792H727.926V156.768ZM726.55 164.48H715.894V160.832H724.998V159.168H715.814V158.208H726.15V161.792H717.03V163.504H726.55V164.48ZM511.07 179.408H513.518V180.464H511.07V188.4H509.918V173.632H511.07V179.408ZM500.99 184.896H502.334C504.094 184.896 506.366 184.688 508.238 184.416L508.366 185.424C506.622 185.728 504.27 185.936 502.142 185.936H499.838V174.816H506.782V175.872H500.99V184.896ZM526.786 180.656H516.514V176.832H525.33V174.992H516.434V174H526.482V177.792H517.65V179.648H526.786V180.656ZM528.402 183.456H514.578V182.432H528.402V183.456ZM526.866 188.4H516.514V184.704H517.65V187.36H526.866V188.4ZM541.062 188.4V173.632H542.214V188.4H541.062ZM534.966 174.544V176.384C534.966 177.664 534.806 178.88 534.486 180.032L539.078 185.44L538.23 186.192L534.07 181.28C533.35 183.072 532.182 184.736 530.55 186.352L529.75 185.568C532.47 182.896 533.846 180.112 533.846 176.384V174.544H534.966ZM556.586 177.088H559.034V178.144H556.586V181.952H555.434V173.648H556.586V177.088ZM552.298 174.512V175.248C552.298 178.288 549.77 180.464 545.69 181.856L545.242 180.896C548.81 179.664 551.098 177.696 551.162 175.568H545.498V174.512H552.298ZM555.434 184.032H547.226V182.992H556.586V188.544H555.434V184.032ZM568.046 182.688H565.966C563.262 182.688 561.598 180.864 561.598 178.576C561.598 176.288 563.262 174.48 565.966 174.48H568.046C570.75 174.48 572.43 176.288 572.43 178.576C572.43 180.864 570.75 182.688 568.046 182.688ZM566.142 181.632H567.87C570.03 181.632 571.278 180.304 571.278 178.576C571.278 176.848 570.03 175.536 567.87 175.536H566.142C563.982 175.536 562.734 176.848 562.734 178.576C562.734 180.304 563.982 181.632 566.142 181.632ZM573.918 187.2H560.094V186.16H573.918V187.2ZM582.754 182.992V186.16H589.09V187.216H575.266V186.16H581.618V182.992H577.058V178.32H586.162V175.76H576.978V174.72H587.314V179.344H578.194V181.968H587.634V182.992H582.754ZM601.816 178.768V180.176H608.152V181.152H594.328V180.176H600.68V178.768H596.264V173.84H597.4V175.344H605.08V173.84H606.232V178.768H601.816ZM605.08 176.304H597.4V177.808H605.08V176.304ZM606.376 185.872H597.256V187.504H606.776V188.48H596.12V184.912H605.224V183.328H596.04V182.368H606.376V185.872ZM625.663 181.04L619.951 177.728C619.007 178.96 617.327 180.048 614.847 181.04L614.383 180.032C618.031 178.592 619.807 176.896 619.807 174.928V173.952H620.943V174.928C620.943 175.568 620.815 176.192 620.543 176.784L626.207 180.064L625.663 181.04ZM613.391 182.864H627.215V183.92H620.879V188.56H619.743V183.92H613.391V182.864ZM643.813 173.648H644.949V181.712H643.813V173.648ZM636.965 181.04C634.821 181.04 633.109 179.936 633.109 177.696V177.392C633.109 175.152 634.821 174.048 636.965 174.048C639.077 174.048 640.789 175.152 640.789 177.392V177.696C640.789 179.936 639.077 181.04 636.965 181.04ZM634.261 177.424V177.664C634.261 179.2 635.397 180.016 636.965 180.016C638.501 180.016 639.637 179.2 639.637 177.664V177.424C639.637 175.888 638.501 175.072 636.965 175.072C635.397 175.072 634.261 175.888 634.261 177.424ZM643.093 185.056L646.245 187.712L645.557 188.544L642.629 186.032C642.117 186.864 641.285 187.728 640.005 188.544L637.093 186.032C636.581 186.864 635.749 187.728 634.469 188.544L633.845 187.68C636.165 186.144 636.741 184.656 636.741 183.456V182.688H637.861V183.456C637.861 183.936 637.781 184.48 637.573 185.056L640.069 187.184C641.829 185.824 642.261 184.528 642.261 183.456V182.688H643.381V183.456C643.381 183.952 643.301 184.496 643.093 185.056ZM659.753 179.28L654.121 176.928C653.161 177.872 651.545 178.656 649.209 179.28L648.873 178.272C652.297 177.344 654.057 176.032 654.057 174.528V173.84H655.177V174.528C655.177 175.072 655.049 175.568 654.793 176.032L660.201 178.304L659.753 179.28ZM647.625 181.392V180.4H661.449V181.392H647.625ZM650.553 184.56H658.521V182.832H659.673V188.4H649.417V182.832H650.553V184.56ZM650.553 185.536V187.424H658.521V185.536H650.553ZM675.277 188.4H674.141V173.632H675.277V188.4ZM666.093 185.936H663.837V174.816H664.973V184.896H666.301C668.093 184.896 670.461 184.688 672.381 184.384L672.509 185.392C670.733 185.712 668.269 185.936 666.093 185.936ZM689.633 179.408H692.081V180.464H689.633V188.4H688.481V173.632H689.633V179.408ZM679.553 184.896H680.897C682.657 184.896 684.929 184.688 686.801 184.416L686.929 185.424C685.185 185.728 682.833 185.936 680.705 185.936H678.401V174.816H685.345V175.872H679.553V184.896ZM694.357 187.792C693.861 187.792 693.477 187.392 693.477 186.896C693.477 186.4 693.861 186.016 694.357 186.016C694.853 186.016 695.253 186.4 695.253 186.896C695.253 187.392 694.853 187.792 694.357 187.792Z" fill="black"/>
<path d="M553.029 110.241L558.411 94.601H561.516L554.984 113.369H551.074L544.519 94.601H547.624L553.029 110.241ZM567.747 99.293C570.944 99.293 573.382 101.248 573.382 104.606V113.369H570.668L570.53 111.621C569.794 112.932 568.46 113.714 566.712 113.714H565.838C563.354 113.714 561.468 111.897 561.468 109.298C561.468 106.86 563.239 105.066 566.574 105.066H570.461V104.721C570.461 103.157 569.518 101.984 567.54 101.984C566.183 101.984 565.217 102.605 564.619 103.686L561.974 102.559C563.009 100.673 565.148 99.293 567.747 99.293ZM566.459 111H567.31C568.828 111 570.254 110.149 570.461 108.654V107.596H566.666C565.171 107.596 564.389 108.263 564.389 109.298C564.389 110.356 565.217 111 566.459 111ZM582.262 113.714C578.835 113.714 575.868 111.552 575.868 107.366V105.618C575.868 101.432 578.835 99.293 582.262 99.293C584.884 99.293 587.299 100.627 588.196 103.272L585.413 104.307C584.861 102.72 583.711 101.984 582.262 101.984C580.422 101.984 578.835 103.203 578.835 105.71V107.274C578.835 109.781 580.422 111.023 582.262 111.023C583.711 111.023 584.861 110.287 585.413 108.7L588.196 109.712C587.299 112.357 584.884 113.714 582.262 113.714ZM596.25 99.293C599.447 99.293 601.885 101.248 601.885 104.606V113.369H599.171L599.033 111.621C598.297 112.932 596.963 113.714 595.215 113.714H594.341C591.857 113.714 589.971 111.897 589.971 109.298C589.971 106.86 591.742 105.066 595.077 105.066H598.964V104.721C598.964 103.157 598.021 101.984 596.043 101.984C594.686 101.984 593.72 102.605 593.122 103.686L590.477 102.559C591.512 100.673 593.651 99.293 596.25 99.293ZM594.962 111H595.813C597.331 111 598.757 110.149 598.964 108.654V107.596H595.169C593.674 107.596 592.892 108.263 592.892 109.298C592.892 110.356 593.72 111 594.962 111ZM612.059 110.586L612.726 113.07C611.898 113.507 610.725 113.714 609.736 113.714C607.344 113.714 605.826 112.449 605.826 109.942V102.329H603.549V99.638H605.826V95.981H608.77V99.638H612.151V102.329H608.77V109.505C608.77 110.701 609.299 111.023 610.173 111.023C610.886 111.023 611.438 110.839 612.059 110.586ZM616.554 97.315C615.588 97.315 614.806 96.556 614.806 95.567C614.806 94.601 615.588 93.819 616.554 93.819C617.52 93.819 618.302 94.601 618.302 95.567C618.302 96.556 617.52 97.315 616.554 97.315ZM618.049 113.369H615.082V99.638H618.049V113.369ZM627.184 113.714C623.757 113.714 620.79 111.552 620.79 107.343V105.618C620.79 101.432 623.757 99.293 627.184 99.293C630.611 99.293 633.601 101.432 633.601 105.618V107.343C633.601 111.552 630.611 113.714 627.184 113.714ZM627.184 111.023C629.024 111.023 630.634 109.781 630.634 107.274V105.71C630.634 103.203 629.024 101.984 627.184 101.984C625.344 101.984 623.757 103.203 623.757 105.71V107.274C623.757 109.781 625.344 111.023 627.184 111.023ZM643.382 99.293C646.257 99.293 648.557 101.501 648.557 105.066V113.369H645.59V105.204C645.59 102.881 644.325 101.984 642.554 101.984C640.829 101.984 639.403 103.134 639.403 105.02V113.369H636.436V99.638H639.196L639.334 101.386C640.139 100.121 641.565 99.293 643.382 99.293Z" fill="black"/>
<path d="M402 79.4941L389.505 66.9996" stroke="black" stroke-width="3" stroke-linecap="round"/>
<path d="M389.505 79.4941L402 66.9996" stroke="black" stroke-width="3" stroke-linecap="round"/>
<circle cx="808.456" cy="73.4558" r="18" transform="rotate(45 808.456 73.4558)" fill="#02FF99"/>
<path d="M814 79.4941L801.505 66.9996" stroke="black" stroke-width="3" stroke-linecap="round"/>
<path d="M801.505 79.4941L814 66.9996" stroke="black" stroke-width="3" stroke-linecap="round"/>
<path d="M1016.17 42.5863C1014.21 42.4822 1012.28 42.0953 1010.32 41.9642C1008.27 41.8278 1006.2 41.9087 1004.18 42.4248" stroke="black" stroke-width="3" stroke-linecap="round" stroke-linejoin="round"/>
<path d="M1015.47 46.8607C1013.09 46.5803 1010.73 46.0596 1008.32 46.1125C1006.72 46.1454 1005.14 46.2638 1003.57 46.5143C1002.99 46.6074 1002.63 46.8782 1002.72 47.5274" stroke="black" stroke-width="3" stroke-linecap="round" stroke-linejoin="round"/>
<path d="M993.83 44.7071C993.214 45.2887 992.516 45.3453 991.68 45.2642C989.648 45.0661 987.786 44.3813 985.937 43.5841C984.847 43.1154 983.719 43.1545 982.595 43.5236C982.034 43.7101 981.543 43.9247 981.557 44.6312" stroke="black" stroke-width="3" stroke-linecap="round" stroke-linejoin="round"/>
<path d="M989.574 50.0516C987.577 48.7402 985.333 48.2326 983.005 47.8947C981.397 47.6596 979.799 47.4557 978.172 47.4765" stroke="black" stroke-width="3" stroke-linecap="round" stroke-linejoin="round"/>
<path d="M996.576 41.0181C995.682 40.6685 994.725 40.6323 993.793 40.5266C992.543 40.3856 991.393 40.0674 990.262 39.4662C988.043 38.2876 985.75 38.1985 983.486 39.4448" stroke="black" stroke-width="3" stroke-linecap="round" stroke-linejoin="round"/>
<path d="M1001.71 39.504C1001.49 40.9681 1000.8 42.2472 1000.06 43.4752C998.939 45.3385 998.195 47.397 997.016 49.2167C995.465 51.6098 994.723 54.4017 993.214 56.8147C993.08 57.0302 993.137 57.3648 993.095 57.6436C993.048 57.9573 993.24 58.3752 992.711 58.4806C992.28 58.5679 991.977 58.3853 991.69 58.0943C990.861 57.241 989.949 56.4797 989.029 55.7222C985.714 52.9998 981.788 52.0117 977.643 51.6687C974.876 51.4413 972.148 51.7461 969.447 52.3733C969.039 52.4687 968.57 52.4586 968.15 52.2783" stroke="black" stroke-width="3" stroke-linecap="round" stroke-linejoin="round"/>
<path d="M966.75 53.2839C966.681 54.3697 967.421 55.2295 967.586 56.2679C967.657 56.7307 968.272 56.7662 968.749 56.7571C970.826 56.7152 972.903 56.7082 974.98 56.6469C977.67 56.5667 980.258 57.1448 982.878 57.6497C986.101 58.2713 988.719 59.7968 990.895 62.1818C991.246 62.5668 991.567 62.672 992.11 62.5979C992.867 62.4916 993.67 62.6887 994.426 62.6484C995.326 62.5985 995.788 61.6267 996.576 61.2104C999.132 59.8671 1001.83 59.2592 1004.7 59.2824C1007.8 59.3086 1010.9 59.1329 1014 59.229C1015.98 59.2905 1017.91 59.5571 1019.76 60.3117C1020.21 60.4963 1020.72 60.6389 1021.33 60.6317C1021.67 60.2986 1022.1 59.9434 1022.43 59.5094C1022.5 59.4172 1022.86 59.1929 1022.57 58.8709C1022.04 58.2622 1022.45 57.5691 1022.51 56.9219C1022.8 53.9763 1022.23 51.1589 1021.2 48.4324C1020.24 45.8813 1019.36 43.312 1018.73 40.6606C1018.58 40.0532 1018.29 39.506 1018.16 38.8911C1018.04 38.3306 1017.54 38.0756 1016.99 37.9322C1013.32 36.9826 1009.64 36.8631 1005.93 37.6048C1004.75 37.8412 1003.64 38.2649 1002.66 38.9618C1002.08 39.3731 1001.71 39.5351 1001.04 38.8741C999.248 37.0997 996.988 36.0253 994.616 35.2211C991.372 34.1179 988.023 34.2669 984.68 34.5324C984.145 34.5756 983.688 34.8334 983.26 35.2312C981.259 37.102 979.591 39.2723 977.824 41.3403C975.632 43.8993 973.103 46.1161 970.815 48.5769C969.793 49.6808 968.595 50.6116 968.133 52.1693C967.978 52.6873 967.194 52.8009 966.763 53.1871C966.411 53.1629 966.215 52.7683 965.838 52.8021" stroke="black" stroke-width="3" stroke-linecap="round" stroke-linejoin="round"/>
<path d="M1015.69 50.5897C1013.89 50.5926 1012.11 50.1767 1010.31 50.2455C1007.6 50.3449 1004.87 50.3586 1002.21 50.9942C1001.72 51.1118 1000.97 51.0008 1000.8 51.7863" stroke="black" stroke-width="3" stroke-linecap="round" stroke-linejoin="round"/>
<path d="M1022.1 58.0343C1020.56 57.5478 1019.04 56.9569 1017.47 56.5942C1013.9 55.7738 1010.27 55.4883 1006.61 55.6679C1003.28 55.8289 1000.03 56.3361 996.823 57.2244C995.999 57.4539 995.167 57.66 994.399 58.0378C994.005 58.2304 993.609 58.2794 993.184 58.2038" stroke="black" stroke-width="3" stroke-linecap="round" stroke-linejoin="round"/>
<path d="M190.561 36.3494C192.783 35.8538 195.057 35.6972 197.312 35.4429C198.788 35.2733 200.239 34.9929 201.69 34.7386C202.893 34.5233 203.513 33.6038 203.598 32.2799C203.834 28.5169 203.709 24.7604 203.422 21.0104C203.304 19.4583 201.69 17.8605 199.971 17.567C197.41 17.1235 194.828 17.4366 192.293 17.6257C188.829 17.88 185.385 18.5061 181.934 18.9822C180.667 19.1583 179.418 19.517 178.183 19.8235C176.661 20.2018 176.497 21.8322 176.497 23.0517C176.504 26.1821 176.131 29.3125 176.432 32.4429C176.602 34.2233 178.105 35.7559 179.889 36.0625C182.862 36.5777 185.849 36.3298 188.829 36.369C189.352 36.369 189.901 36.1798 190.397 36.5125" stroke="black" stroke-width="3" stroke-linecap="round" stroke-linejoin="round"/>
<path d="M175.661 68.1228C175.328 65.4685 175.615 62.8012 175.497 60.1403C175.367 57.1143 174.916 54.1078 175.014 51.0621C175.053 49.8687 175.229 48.6883 175.086 47.4557C174.87 45.6492 176.667 44.1753 179.111 43.8622C182.836 43.3927 186.542 42.747 190.26 42.2253C192.227 41.9514 194.319 42.2514 196.364 42.1796C198.606 42.1014 200.847 41.234 203.108 42.0622C205.768 40.5753 208.898 42.0883 211.578 40.7383C212.061 40.4905 212.525 40.8231 212.983 40.9014C214.584 41.1818 216.166 41.0905 217.688 40.5623C219.087 40.0731 222.021 41.2405 222.55 42.6101C223.903 46.1383 224.805 49.7643 224.916 53.5665C225.034 57.4273 225.23 61.2881 225.374 65.149C225.4 65.8402 225.465 66.5511 225.066 67.1837" stroke="black" stroke-width="3" stroke-linecap="round" stroke-linejoin="round"/>
<path d="M202.324 47.9323C197.488 47.8867 192.698 48.441 187.888 48.8062C183.784 49.1193 179.634 48.8715 175.504 48.8715" stroke="black" stroke-width="3" stroke-linecap="round" stroke-linejoin="round"/>
<path d="M190.404 36.6626C190.456 38.4365 190.509 40.2104 190.561 41.9843" stroke="black" stroke-width="3" stroke-linecap="round" stroke-linejoin="round"/>
<path d="M215.969 59.9844C213.93 60.1931 211.891 60.4018 209.853 60.6105" stroke="black" stroke-width="3" stroke-linecap="round" stroke-linejoin="round"/>
<path d="M203.108 42.1406C202.912 44.071 202.938 46.008 202.677 47.958C202.429 49.8362 202.579 52.0144 202.945 54.0362C203.357 56.3122 203.03 58.6274 203.363 60.9296C203.631 62.7687 204.448 64.4839 204.422 66.4012C204.409 67.1382 205.154 67.6925 206.088 67.6599C209.33 67.5491 212.571 67.7251 215.813 67.536C218.152 67.3991 220.524 67.5164 222.864 67.6925C223.844 67.7643 224.72 66.9752 225.687 67.4969" stroke="black" stroke-width="3" stroke-linecap="round" stroke-linejoin="round"/>
<path d="M219.263 36.5062C220.113 36.6171 220.995 36.5388 221.76 36.304C222.746 35.9975 223.805 35.5606 223.825 34.1584C223.844 32.7432 223.165 31.3345 221.76 30.9041C218.708 29.9715 215.571 29.4889 212.362 29.7824C211.414 29.8671 211.212 30.5454 211.264 31.341C211.414 33.5323 211.486 35.7366 211.774 37.9084C211.892 38.7953 211.682 39.7149 212.048 40.5757" stroke="black" stroke-width="3" stroke-linecap="round" stroke-linejoin="round"/>
<path d="M216.44 53.4102C213.826 53.4622 211.212 53.5143 208.598 53.5664" stroke="black" stroke-width="3" stroke-linecap="round" stroke-linejoin="round"/>
<path d="M208.755 46.9927C210.898 46.8234 213.048 47.188 215.185 46.8364" stroke="black" stroke-width="3" stroke-linecap="round" stroke-linejoin="round"/>
<path d="M219.106 30.7148C218.623 32.3713 218.178 38.0582 218.316 39.3234C218.342 39.5843 218.316 39.8452 218.316 40.106" stroke="black" stroke-width="3" stroke-linecap="round" stroke-linejoin="round"/>
<path d="M198.089 33.0298L194.724 33.1798C194.397 33.1928 194.051 33.2124 193.698 33.2254C189.424 33.4537 184.882 34.308 180.908 33.1798C178.268 32.645 178.745 28.7059 178.562 25.6146C178.66 25.0668 178.837 24.5777 179.085 24.1538C181.32 20.2929 189.208 20.9973 194.116 20.5799C194.567 20.5473 195.011 20.5277 195.449 20.5212C196.331 20.5081 197.187 20.5538 198.011 20.6777C201.984 21.806 200.854 25.7777 201.174 28.7581C201.193 29.2798 201.206 29.6254 201.206 29.6254C201.285 31.4189 199.88 32.9515 198.083 33.0298H198.089Z" fill="black"/>
<path d="M937.693 104.997V110.747H946.962V113.369H934.726V94.601H946.732V97.223H937.693V102.375H946.295V104.997H937.693ZM958.954 101.34V94.601H961.921V113.369H959.161L959.023 111.598C957.965 112.978 956.401 113.714 954.676 113.714C951.847 113.714 949.11 111.322 949.11 107.182V105.802C949.11 101.708 951.847 99.293 954.676 99.293C956.355 99.293 957.896 100.006 958.954 101.34ZM955.527 111.023C957.413 111.023 958.954 109.758 958.954 107.113V105.894C958.954 103.249 957.413 101.984 955.527 101.984C953.618 101.984 952.077 103.249 952.077 105.894V107.113C952.077 109.758 953.618 111.023 955.527 111.023ZM974.127 107.987V99.638H977.094V113.369H974.334L974.196 111.621C973.368 112.863 971.965 113.714 970.148 113.714C967.273 113.714 964.973 111.506 964.973 107.918V99.638H967.94V107.803C967.94 110.126 969.205 111.023 970.953 111.023C972.678 111.023 974.127 109.85 974.127 107.987ZM986.32 113.714C982.893 113.714 979.926 111.552 979.926 107.366V105.618C979.926 101.432 982.893 99.293 986.32 99.293C988.942 99.293 991.357 100.627 992.254 103.272L989.471 104.307C988.919 102.72 987.769 101.984 986.32 101.984C984.48 101.984 982.893 103.203 982.893 105.71V107.274C982.893 109.781 984.48 111.023 986.32 111.023C987.769 111.023 988.919 110.287 989.471 108.7L992.254 109.712C991.357 112.357 988.942 113.714 986.32 113.714ZM1000.31 99.293C1003.51 99.293 1005.94 101.248 1005.94 104.606V113.369H1003.23L1003.09 111.621C1002.36 112.932 1001.02 113.714 999.273 113.714H998.399C995.915 113.714 994.029 111.897 994.029 109.298C994.029 106.86 995.8 105.066 999.135 105.066H1003.02V104.721C1003.02 103.157 1002.08 101.984 1000.1 101.984C998.744 101.984 997.778 102.605 997.18 103.686L994.535 102.559C995.57 100.673 997.709 99.293 1000.31 99.293ZM999.02 111H999.871C1001.39 111 1002.82 110.149 1003.02 108.654V107.596H999.227C997.732 107.596 996.95 108.263 996.95 109.298C996.95 110.356 997.778 111 999.02 111ZM1016.12 110.586L1016.78 113.07C1015.96 113.507 1014.78 113.714 1013.79 113.714C1011.4 113.714 1009.88 112.449 1009.88 109.942V102.329H1007.61V99.638H1009.88V95.981H1012.83V99.638H1016.21V102.329H1012.83V109.505C1012.83 110.701 1013.36 111.023 1014.23 111.023C1014.94 111.023 1015.5 110.839 1016.12 110.586ZM1020.61 97.315C1019.65 97.315 1018.86 96.556 1018.86 95.567C1018.86 94.601 1019.65 93.819 1020.61 93.819C1021.58 93.819 1022.36 94.601 1022.36 95.567C1022.36 96.556 1021.58 97.315 1020.61 97.315ZM1022.11 113.369H1019.14V99.638H1022.11V113.369ZM1031.24 113.714C1027.82 113.714 1024.85 111.552 1024.85 107.343V105.618C1024.85 101.432 1027.82 99.293 1031.24 99.293C1034.67 99.293 1037.66 101.432 1037.66 105.618V107.343C1037.66 111.552 1034.67 113.714 1031.24 113.714ZM1031.24 111.023C1033.08 111.023 1034.69 109.781 1034.69 107.274V105.71C1034.69 103.203 1033.08 101.984 1031.24 101.984C1029.4 101.984 1027.82 103.203 1027.82 105.71V107.274C1027.82 109.781 1029.4 111.023 1031.24 111.023ZM1047.44 99.293C1050.32 99.293 1052.62 101.501 1052.62 105.066V113.369H1049.65V105.204C1049.65 102.881 1048.38 101.984 1046.61 101.984C1044.89 101.984 1043.46 103.134 1043.46 105.02V113.369H1040.49V99.638H1043.25L1043.39 101.386C1044.2 100.121 1045.62 99.293 1047.44 99.293Z" fill="black"/>
<path d="M922.304 156.408H924.752V157.464H922.304V165.4H921.168V150.632H922.304V156.408ZM917.488 152.872V161.672C918.272 161.592 919.04 161.496 919.776 161.384L919.904 162.408C917.712 162.76 915.04 162.952 912.848 162.952H910.592L910.544 161.896H912.416V152.872H910.72V151.816H919.184V152.872H917.488ZM916.368 161.752V152.872H913.552V161.896C914.4 161.88 915.36 161.832 916.368 161.752ZM938.308 165.4H937.156V150.632H938.308V165.4ZM930.26 163.432C928.18 163.432 926.468 162.04 926.468 158.536V156.328C926.468 152.824 928.18 151.432 930.26 151.432C932.34 151.432 934.052 152.824 934.052 156.328V158.536C934.052 162.04 932.34 163.432 930.26 163.432ZM930.26 162.376C931.78 162.376 932.916 161.272 932.916 158.52V156.328C932.916 153.576 931.78 152.488 930.26 152.488C928.74 152.488 927.62 153.576 927.62 156.328V158.52C927.62 161.272 928.74 162.376 930.26 162.376ZM953.576 161.848H952.456V154.936H949.848V153.912H952.456V150.632H953.576V161.848ZM945.864 159.624L943.816 156.536C943.336 157.64 942.648 158.696 941.784 159.624L941.032 158.888C942.648 157.144 943.608 154.808 943.608 152.6V151.384H944.664V152.6C944.664 153.48 944.536 154.392 944.264 155.304L945.928 157.928C947.016 156.52 947.608 154.728 947.608 152.632V151.384H948.664V152.632C948.664 153.528 948.568 154.408 948.36 155.256L950.808 158.872L950.008 159.544L947.944 156.552C947.48 157.688 946.792 158.744 945.864 159.624ZM945.144 160.984V164.344H954.28V165.4H944.008V160.984H945.144ZM957.452 167.352H956.508L956.844 163.112H957.996L957.452 167.352ZM975.351 156.408H977.799V157.464H975.351V165.4H974.215V150.632H975.351V156.408ZM968.471 152.936V153.784C968.471 154.968 968.327 156.072 968.039 157.128L972.407 162.424L971.527 163.192L967.607 158.408C966.903 160.136 965.799 161.736 964.295 163.352L963.463 162.584C965.895 159.96 967.351 157.432 967.351 153.784V152.936H964.039V151.896H971.815V152.936H968.471ZM990.539 156.408H992.987V157.464H990.539V165.4H989.387V150.632H990.539V156.408ZM980.363 156.04H985.003V151.656H986.139V162.968H979.227V151.656H980.363V156.04ZM980.363 157.08V161.912H985.003V157.08H980.363ZM1006.4 159.784L1000.66 155.768C999.695 157.208 997.999 158.552 995.407 159.784L994.879 158.808C998.671 156.968 1000.46 155 1000.46 152.664V151.48H1001.6V152.664C1001.6 153.4 1001.45 154.104 1001.17 154.792L1007.04 158.856L1006.4 159.784ZM994.047 164.2V163.16H1007.87V164.2H994.047ZM1019.99 155.992C1020.08 155 1020.13 154.104 1020.13 153.448V152.92H1010.93V151.88H1021.27V153.192C1021.27 155.4 1020.9 158.584 1020.4 161.24L1019.28 161.032C1019.52 159.768 1019.73 158.36 1019.87 157.048C1017.63 157.288 1014.13 157.416 1011.94 157.416H1010.9L1010.85 156.376H1012C1013.97 156.376 1017.67 156.232 1019.99 155.992ZM1009.22 164.216V163.16H1023.04V164.216H1009.22ZM1035.73 158.632V150.632H1036.87V158.632H1035.73ZM1033.96 156.824L1034.1 157.8C1032.36 158.104 1029.94 158.328 1027.77 158.328H1025.27V154.312H1031.01V152.44H1025.27V151.432H1032.15V155.304H1026.39V157.32H1027.96C1029.77 157.32 1032.1 157.128 1033.96 156.824ZM1028.52 161.368H1035.73V159.528H1036.87V165.4H1027.38V159.528H1028.52V161.368ZM1028.52 162.376V164.36H1035.73V162.376H1028.52ZM1042.49 159.112H1051.93V160.152H1041.35V151.72H1051.61V152.76H1042.49V155.4H1051.61V156.424H1042.49V159.112ZM1039.56 164.216V163.16H1053.39V164.216H1039.56ZM1060.56 151H1070.37V151.992H1061.7V155.08H1070.53V156.088H1060.56V151ZM1072.45 158.648H1058.63V157.624H1072.45V158.648ZM1067.15 165.56H1063.92C1061.52 165.56 1060.26 164.456 1060.26 162.92C1060.26 161.416 1061.52 160.296 1063.92 160.296H1067.15C1069.57 160.296 1070.83 161.416 1070.83 162.92C1070.83 164.456 1069.57 165.56 1067.15 165.56ZM1064.18 164.552H1066.9C1068.79 164.552 1069.68 163.896 1069.68 162.92C1069.68 161.944 1068.79 161.32 1066.9 161.32H1064.18C1062.29 161.32 1061.39 161.944 1061.39 162.92C1061.39 163.896 1062.29 164.552 1064.18 164.552ZM859.289 192.4V177.632H860.425V192.4H859.289ZM854.777 179.936H848.953V178.896H855.929V180.032C855.929 184.208 853.433 187.856 849.401 190.528L848.729 189.632C852.473 187.2 854.777 183.712 854.777 180.256V179.936ZM864.589 187.088L864.077 186.08C867.629 184.512 869.533 182.848 869.533 180.848V180.784H864.909V179.728H869.533V177.776H870.669V179.728H875.165V180.784H870.669V180.848C870.669 181.456 870.541 182.032 870.285 182.608L875.949 186.112L875.373 187.088L869.725 183.552C868.765 184.832 867.085 186 864.589 187.088ZM870.605 186.672V190.144H876.941V191.184H863.117V190.144H869.469V186.672H870.605ZM889.249 182.768C889.329 181.84 889.377 181.024 889.377 180.416V179.92H879.857V178.88H890.513V180.16C890.513 182.24 890.161 185.264 889.697 187.776L888.577 187.584C888.801 186.384 889.009 185.056 889.137 183.824C886.849 184.048 883.185 184.208 880.945 184.208H879.825L879.777 183.168H881.025C882.993 183.168 886.881 183.024 889.249 182.768ZM884.929 185.76V190.16H892.113V191.216H878.289V190.16H883.793V185.76H884.929ZM905.941 185.712H904.805V177.648H905.941V185.712ZM896.821 185.104H894.501V178.432H901.605V179.472H895.637V184.064H897.029C898.821 184.064 901.157 183.856 903.045 183.568L903.189 184.576C901.413 184.88 898.997 185.104 896.821 185.104ZM902.709 192.544H899.605C897.429 192.544 896.149 191.264 896.149 189.584C896.149 187.92 897.429 186.608 899.605 186.608H902.709C904.885 186.608 906.165 187.92 906.165 189.584C906.165 191.264 904.885 192.544 902.709 192.544ZM899.829 191.52H902.485C904.197 191.52 905.029 190.688 905.029 189.568C905.029 188.496 904.197 187.632 902.485 187.632H899.829C898.117 187.632 897.285 188.496 897.285 189.568C897.285 190.688 898.117 191.52 899.829 191.52ZM919.625 180.384V179.92H910.185V178.88H920.761V180.128C920.761 182.208 920.409 185.024 919.945 187.552L918.825 187.344C919.289 184.864 919.625 182 919.625 180.384ZM916.873 184.048V190.16H922.457V191.216H908.633V190.16H912.025V184.048H913.129V190.16H915.769V184.048H916.873ZM931.757 183.232H929.693C927.133 183.232 925.517 182.32 925.517 180.528C925.517 178.752 927.133 177.84 929.693 177.84H931.757C934.317 177.84 935.933 178.752 935.933 180.528C935.933 182.32 934.317 183.232 931.757 183.232ZM931.565 178.864H929.885C927.805 178.864 926.653 179.456 926.653 180.544C926.653 181.6 927.805 182.224 929.885 182.224H931.565C933.645 182.224 934.781 181.6 934.781 180.544C934.781 179.456 933.645 178.864 931.565 178.864ZM937.629 184.816V185.824H933.805V187.76H935.853V192.56H934.701V188.8H925.597V187.76H927.661V185.824H923.805V184.816H937.629ZM928.781 187.76H932.685V185.824H928.781V187.76ZM954.227 177.648H955.363V185.712H954.227V177.648ZM943.683 178.352H950.739V184.352H943.683V178.352ZM944.803 183.344H949.619V179.36H944.803V183.344ZM950.995 189.424L956.307 191.568L955.875 192.544L950.355 190.256C949.379 191.2 947.651 191.968 945.219 192.544L944.883 191.552C948.115 190.768 950.099 189.664 950.099 188.32V188.304H945.635V187.296H950.099V185.488H951.267V187.296H955.587V188.304H951.267V188.32C951.267 188.704 951.171 189.072 950.995 189.424ZM967.018 179.104H970.554V180.08H962.33V179.104H965.85V177.44H967.018V179.104ZM973.258 180.992V177.632H974.394V185.808H973.258V184.64H970.538V183.68H973.258V181.936H970.538V180.992H973.258ZM969.882 183.28V183.488C969.882 185.024 968.394 185.856 966.458 185.856C964.506 185.856 963.034 185.024 963.034 183.488V183.28C963.034 181.76 964.506 180.928 966.458 180.928C968.394 180.928 969.882 181.76 969.882 183.28ZM964.122 183.312V183.472C964.122 184.32 965.13 184.88 966.458 184.88C967.77 184.88 968.778 184.32 968.778 183.472V183.312C968.778 182.464 967.77 181.904 966.458 181.904C965.13 181.904 964.122 182.464 964.122 183.312ZM966.042 188.448H973.258V186.688H974.394V192.384H964.906V186.688H966.042V188.448ZM966.042 189.472V191.376H973.258V189.472H966.042ZM988.43 180.944V177.632H989.582V185.344H988.43V181.984H985.39C985.198 183.92 983.566 184.896 981.582 184.896C979.454 184.896 977.742 183.792 977.742 181.6V181.328C977.742 179.12 979.454 178.032 981.582 178.032C983.566 178.032 985.198 178.992 985.39 180.944H988.43ZM984.27 181.584V181.344C984.27 179.856 983.134 179.072 981.582 179.072C980.014 179.072 978.894 179.856 978.894 181.344V181.584C978.894 183.056 980.014 183.856 981.582 183.856C983.134 183.856 984.27 183.056 984.27 181.584ZM981.23 188.192H988.43V186.224H989.582V192.4H980.094V186.224H981.23V188.192ZM981.23 189.216V191.36H988.43V189.216H981.23ZM995.346 182.544H1004.48V183.456H994.21V177.92H1004.18V178.848H995.346V180.208H1004.18V181.12H995.346V182.544ZM1006.1 184.592V185.52H999.762V186.816H1004.32V190.08H995.202V191.536H1004.72V192.48H994.066V189.152H1003.17V187.744H993.986V186.816H998.626V185.52H992.274V184.592H1006.1ZM1022.33 180.384V179.92H1012.89V178.88H1023.46V180.128C1023.46 182.208 1023.11 185.024 1022.65 187.552L1021.53 187.344C1021.99 184.864 1022.33 182 1022.33 180.384ZM1019.58 184.048V190.16H1025.16V191.216H1011.34V190.16H1014.73V184.048H1015.83V190.16H1018.47V184.048H1019.58ZM1034.46 183.232H1032.4C1029.84 183.232 1028.22 182.32 1028.22 180.528C1028.22 178.752 1029.84 177.84 1032.4 177.84H1034.46C1037.02 177.84 1038.64 178.752 1038.64 180.528C1038.64 182.32 1037.02 183.232 1034.46 183.232ZM1034.27 178.864H1032.59C1030.51 178.864 1029.36 179.456 1029.36 180.544C1029.36 181.6 1030.51 182.224 1032.59 182.224H1034.27C1036.35 182.224 1037.48 181.6 1037.48 180.544C1037.48 179.456 1036.35 178.864 1034.27 178.864ZM1040.33 184.816V185.824H1036.51V187.76H1038.56V192.56H1037.4V188.8H1028.3V187.76H1030.36V185.824H1026.51V184.816H1040.33ZM1031.48 187.76H1035.39V185.824H1031.48V187.76ZM1054.16 192.4H1053.01V177.632H1054.16V192.4ZM1046.11 190.432C1044.03 190.432 1042.32 189.04 1042.32 185.536V183.328C1042.32 179.824 1044.03 178.432 1046.11 178.432C1048.19 178.432 1049.9 179.824 1049.9 183.328V185.536C1049.9 189.04 1048.19 190.432 1046.11 190.432ZM1046.11 189.376C1047.63 189.376 1048.77 188.272 1048.77 185.52V183.328C1048.77 180.576 1047.63 179.488 1046.11 179.488C1044.59 179.488 1043.47 180.576 1043.47 183.328V185.52C1043.47 188.272 1044.59 189.376 1046.11 189.376ZM1072.09 177.632H1073.22V188.848H1072.09V177.632ZM1069.54 186.56L1065.3 183.184C1064.55 184.528 1063.3 185.728 1061.57 186.88L1060.97 185.984C1063.54 184.192 1065.01 182.4 1065.01 179.888V179.536H1061.54V178.512H1069.61V179.536H1066.13V179.888C1066.13 180.704 1066.01 181.472 1065.75 182.192L1070.18 185.664L1069.54 186.56ZM1064.87 187.904V191.344H1073.91V192.4H1063.73V187.904H1064.87ZM1080.04 179.136H1082.97V180.096H1075.98V179.136H1078.89V177.44H1080.04V179.136ZM1087.48 182.448H1085.24V186.032H1084.15V177.792H1085.24V181.408H1087.48V177.632H1088.59V186.192H1087.48V182.448ZM1082.39 183.392V183.616C1082.39 185.184 1081.19 186.032 1079.5 186.032C1077.77 186.032 1076.57 185.184 1076.57 183.616V183.392C1076.57 181.84 1077.77 180.992 1079.5 180.992C1081.19 180.992 1082.39 181.84 1082.39 183.392ZM1077.64 183.44V183.584C1077.64 184.496 1078.38 185.056 1079.5 185.056C1080.59 185.056 1081.32 184.496 1081.32 183.584V183.44C1081.32 182.56 1080.59 181.968 1079.5 181.968C1078.38 181.968 1077.64 182.56 1077.64 183.44ZM1082.11 187.072H1085.32C1087.51 187.072 1088.79 188.24 1088.79 189.808C1088.79 191.408 1087.51 192.544 1085.32 192.544H1082.11C1079.9 192.544 1078.62 191.408 1078.62 189.808C1078.62 188.24 1079.9 187.072 1082.11 187.072ZM1082.33 191.52H1085.08C1086.83 191.52 1087.64 190.816 1087.64 189.808C1087.64 188.816 1086.83 188.112 1085.08 188.112H1082.33C1080.6 188.112 1079.77 188.816 1079.77 189.808C1079.77 190.816 1080.6 191.52 1082.33 191.52ZM1102.41 185.952V177.632H1103.55V185.952H1102.41ZM1101.02 184.144L1101.13 185.12C1098.91 185.424 1096.01 185.616 1093.84 185.616H1091.28L1091.21 184.608H1093.9C1094.33 184.608 1094.83 184.592 1095.36 184.576V182.912H1092.29V178.272H1099.49V179.248H1093.41V181.952H1099.63V182.912H1096.51V184.528C1097.98 184.448 1099.61 184.32 1101.02 184.144ZM1095.04 188.544H1102.41V186.832H1103.55V192.4H1093.9V186.832H1095.04V188.544ZM1095.04 189.552V191.392H1102.41V189.552H1095.04ZM1118.74 192.4H1117.6V177.632H1118.74V192.4ZM1109.55 189.936H1107.3V178.816H1108.43V188.896H1109.76C1111.55 188.896 1113.92 188.688 1115.84 188.384L1115.97 189.392C1114.19 189.712 1111.73 189.936 1109.55 189.936ZM1133.09 183.408H1135.54V184.464H1133.09V192.4H1131.94V177.632H1133.09V183.408ZM1123.01 188.896H1124.36C1126.12 188.896 1128.39 188.688 1130.26 188.416L1130.39 189.424C1128.65 189.728 1126.29 189.936 1124.17 189.936H1121.86V178.816H1128.81V179.872H1123.01V188.896ZM1137.82 191.792C1137.32 191.792 1136.94 191.392 1136.94 190.896C1136.94 190.4 1137.32 190.016 1137.82 190.016C1138.31 190.016 1138.71 190.4 1138.71 190.896C1138.71 191.392 1138.31 191.792 1137.82 191.792Z" fill="black"/>
<path d="M625.531 9.97315C626.133 9.29825 626.966 8.80696 627.863 8.75237C628.759 8.69778 629.7 9.10967 630.175 9.88383C630.533 10.4644 630.601 11.179 630.572 11.8639C630.552 12.3006 630.499 12.7472 630.307 13.1392C629.974 13.8439 629.239 14.3054 628.48 14.4245C627.721 14.5436 626.932 14.3551 626.236 14.0226C625.8 13.8141 625.374 13.5313 625.124 13.1095C624.58 12.1964 625.031 11.0351 625.482 10.0774" stroke="black" stroke-width="3" stroke-linecap="round" stroke-linejoin="round"/>
<path d="M618 13.4746L620.281 12.332" stroke="black" stroke-width="3" stroke-linecap="round" stroke-linejoin="round"/>
<path d="M620 6.32178C620.799 6.4406 621.58 6.83365 622.281 7.46435" stroke="black" stroke-width="3" stroke-linecap="round" stroke-linejoin="round"/>
<path d="M628 2.31494V3.45751" stroke="black" stroke-width="3" stroke-linecap="round" stroke-linejoin="round"/>
<path d="M633 6.46239C633.701 6.01151 634.472 5.62724 635.281 5.31982" stroke="black" stroke-width="3" stroke-linecap="round" stroke-linejoin="round"/>
<path d="M635 12.332H637.281" stroke="black" stroke-width="3" stroke-linecap="round" stroke-linejoin="round"/>
<path d="M633 16.3389L634.141 17.4814" stroke="black" stroke-width="3" stroke-linecap="round" stroke-linejoin="round"/>
<path d="M629 18.3423C629 18.712 629 19.1 629 19.4849" stroke="black" stroke-width="3" stroke-linecap="round" stroke-linejoin="round"/>
<path d="M624.141 17.3403C623.718 17.7022 623.335 18.0885 623 18.4829" stroke="black" stroke-width="3" stroke-linecap="round" stroke-linejoin="round"/>
<path d="M596.359 44.1675C595.236 45.4879 594.287 46.2495 593.096 47.5248C590.068 50.7784 588.714 54.9964 588.436 59.1559C588.158 63.3153 588.877 67.4702 589.591 71.5891" stroke="black" stroke-width="3" stroke-linecap="round" stroke-linejoin="round"/>
<path d="M578.109 72.7317C578.829 66.1395 579.942 59.5882 581.441 53.1274C581.748 51.8 582.078 50.4634 582.655 49.2265C584.213 45.901 587.403 43.6312 590.656 41.8823" stroke="black" stroke-width="3" stroke-linecap="round" stroke-linejoin="round"/>
<path d="M578.109 73.5734C578.959 74.43 580.348 74.8747 581.723 74.9841C583.097 75.0934 584.481 74.9075 585.842 74.7143C586.632 74.6013 587.43 74.4847 588.132 74.1822C588.833 73.8796 589.427 73.3547 589.516 72.7314" stroke="black" stroke-width="3" stroke-linecap="round" stroke-linejoin="round"/>
<path d="M594.078 40.6286C595.945 39.7587 597.846 38.8748 599.888 38.5708C602.845 38.1312 605.921 38.9684 608.428 40.5771C610.935 42.1859 612.911 44.5196 614.376 47.0965C616.101 50.1177 617.172 53.5971 616.826 57.0486C616.802 57.2918 616.764 57.549 616.617 57.7454C616.466 57.9512 616.214 58.0587 615.978 58.1523C614.75 58.6293 613.447 58.9146 612.134 59.0034C611.158 59.0689 610.068 58.9754 609.404 58.2692C609.044 57.8857 608.864 57.3713 608.722 56.8615C608.348 55.5006 608.201 54.0835 608.286 52.6758C607.191 52.9003 606.054 52.9237 604.95 52.7507C604.405 52.6665 603.836 52.5168 603.457 52.124C603.149 51.806 603.002 51.371 602.902 50.9454C602.618 49.7435 602.627 48.4761 602.917 47.2742C601.822 47.8682 600.395 47.798 599.362 47.1059C598.329 46.4137 597.746 45.1229 597.907 43.9023C596.964 44.1361 595.912 43.8883 595.173 43.2663C594.434 42.6443 594.026 41.6575 594.111 40.6987" stroke="black" stroke-width="3" stroke-linecap="round" stroke-linejoin="round"/>
<path d="M594.887 40.7679C595.732 38.2354 594.891 35.3472 593.196 33.2843C591.502 31.2213 589.066 29.8887 586.546 28.9923C584.993 28.4422 583.351 28.0344 581.713 28.2146C580.536 28.3426 579.411 28.7742 578.323 29.2484C576.372 30.0973 574.488 31.1027 572.698 32.2504C572.285 32.5112 571.872 32.7958 571.597 33.1989C571.174 33.8202 571.169 34.6738 571.506 35.3425C571.844 36.0112 572.499 36.4949 573.22 36.7083C574.592 37.1162 576.135 36.5566 577.118 35.518C578.1 34.4794 578.566 33.0329 578.646 31.6054C578.793 32.7863 579.278 33.9198 580.032 34.8398C580.246 35.1006 580.498 35.3567 580.825 35.4563C581.381 35.6223 581.955 35.2714 582.397 34.8967C583.322 34.1142 584.082 33.142 584.618 32.0607C584.523 33.0898 584.476 34.1284 584.471 35.1623C584.471 35.8073 584.504 36.4996 584.894 37.0166C585.606 37.9603 587.134 37.7896 588.107 37.1067C589.081 36.4238 589.731 35.3804 590.638 34.6169C590.177 35.7219 589.712 36.8506 589.627 38.0457C589.541 39.2408 589.892 40.5307 590.828 41.2848C591.839 42.1052 593.443 42.0768 594.426 41.2231" stroke="black" stroke-width="3" stroke-linecap="round" stroke-linejoin="round"/>
<path d="M595.219 39.597C597.17 35.3597 601.453 32.573 604.855 29.2455C606.217 27.9137 607.471 26.4588 609.072 25.3863C610.396 24.4984 611.917 23.9094 613.452 23.3995C614.435 23.0742 615.427 22.7753 616.429 22.5116C616.574 22.472 616.733 22.4325 616.878 22.4808C617.005 22.5204 617.103 22.6171 617.187 22.7138C618.1 23.7555 618.32 25.3247 617.613 26.4983C616.906 27.6719 615.259 28.3005 613.92 27.817C614.613 28.784 614.098 30.2082 613.073 30.8587C612.048 31.5092 610.696 31.5356 609.484 31.2763C609.498 32.3839 609.465 33.6103 608.655 34.4147C607.991 35.0696 606.933 35.2718 605.983 35.1356C605.033 34.9993 604.153 34.5729 603.315 34.1246C602.992 35.9487 601.659 37.5883 599.871 38.3619" stroke="black" stroke-width="3" stroke-linecap="round" stroke-linejoin="round"/>
<path d="M596.662 37.3118C598.152 33.2654 599.066 28.5619 598.442 24.2508C597.818 19.9396 595.991 15.8223 593.155 12.7497C592.947 12.5275 592.726 12.3006 592.444 12.2155C592.206 12.1446 591.951 12.1824 591.708 12.2155C590.773 12.362 589.807 12.518 589.019 13.0806C588.82 13.2224 588.634 13.3878 588.517 13.6147C588.235 14.1442 588.417 14.8201 588.677 15.359C589.543 17.1695 591.267 18.4648 593.124 18.7011C591.977 19.3109 591.34 20.8756 591.695 22.2134C592.05 23.5511 593.354 24.5013 594.623 24.3453C594.203 25.0591 593.774 25.8013 593.64 26.638C593.505 27.4747 593.722 28.439 594.376 28.9022C594.731 29.1575 595.238 29.323 595.303 29.7768C595.324 29.9469 595.277 30.1171 595.22 30.2826C594.956 31.0673 594.605 31.8189 594.41 32.6272C594.216 33.4356 594.155 34.7071 594.549 35.4209" stroke="black" stroke-width="3" stroke-linecap="round" stroke-linejoin="round"/>
<path d="M588.375 43.0249C588.906 44.8616 590.179 46.2279 591.561 47.1518C591.984 47.4374 592.465 47.6894 592.938 47.5606" stroke="black" stroke-width="3" stroke-linecap="round" stroke-linejoin="round"/>
<path d="M583.812 48.7378C584.306 49.2437 584.458 49.5798 585.103 49.9959C586.573 50.9344 588.769 51.2672 590.656 50.8379" stroke="black" stroke-width="3" stroke-linecap="round" stroke-linejoin="round"/>
<path d="M581.531 56.7358C582.755 57.7615 584.063 58.8235 585.612 58.9968C586.574 59.1062 587.571 58.8418 588.375 58.2674" stroke="black" stroke-width="3" stroke-linecap="round" stroke-linejoin="round"/>
<path d="M580.391 64.7334C581.062 65.2727 581.997 65.5938 582.954 65.7434C583.911 65.893 584.905 65.8899 585.882 65.8587C586.768 65.8307 587.733 65.759 588.375 65.2976" stroke="black" stroke-width="3" stroke-linecap="round" stroke-linejoin="round"/>
<path d="M579.25 69.3037C581.077 69.8989 582.77 71.5962 584.634 71.5888C585.654 71.5888 586.637 71.0598 587.601 70.5455C588.238 70.2001 588.879 69.8621 589.516 69.5168" stroke="black" stroke-width="3" stroke-linecap="round" stroke-linejoin="round"/>
<path d="M579.25 69.5698C573.196 68.8755 567.102 68.4947 561 68.4272" stroke="black" stroke-width="3" stroke-linecap="round" stroke-linejoin="round"/>
<path d="M589.516 70.0121C602.394 72.0699 615.373 68.8507 628.297 69.7237" stroke="black" stroke-width="3" stroke-linecap="round" stroke-linejoin="round"/>
</svg>
