<svg width="26" height="37" viewBox="0 0 26 37" fill="none" xmlns="http://www.w3.org/2000/svg">
<path d="M17.5722 29.4615C17.5722 29.5663 17.5984 29.6843 17.5722 29.776C16.5453 32.7049 17.4937 34.2578 20.5616 34.6509C22.0856 34.8475 23.2304 34.1398 23.8583 32.6066C24.5517 30.9226 24.2442 29.2715 23.0734 28.3607C22.138 27.6334 19.7766 27.6924 18.8478 28.531C18.5011 28.839 18.1544 29.1142 17.7358 29.3042" stroke="black" stroke-width="3" stroke-linecap="round" stroke-linejoin="round"/>
<path d="M8.4668 15.4657C8.8004 14.7515 9.42181 14.2797 10.0498 13.9128C11.7112 12.9365 13.1372 11.685 14.4323 10.2697C15.1911 9.44413 16.0415 8.76924 17.1208 8.38265C18.0692 8.80855 18.6776 9.87003 19.9269 9.82416C21.6931 9.75864 23.1517 8.67095 23.5377 6.9739C23.8189 5.74862 22.5434 2.69524 21.4837 2.28244C21.0716 2.12518 20.5353 2.21036 20.0839 2.41349C17.9319 3.36357 16.9311 5.31616 17.1011 8.23195" stroke="black" stroke-width="3" stroke-linecap="round" stroke-linejoin="round"/>
<path d="M8.62378 20.9697C9.55917 21.5921 10.4226 22.267 11.1552 23.1581C13.0522 25.458 15.2369 27.463 17.5721 29.3042" stroke="black" stroke-width="3" stroke-linecap="round" stroke-linejoin="round"/>
<path d="M8.30986 15.4657C6.78577 15.0922 5.31401 15.2757 3.92074 15.944C1.99763 16.8679 1.50704 18.5846 2.5013 20.6551C3.36474 22.4439 4.64681 22.837 6.58299 21.9132C9.1733 20.6748 9.91245 18.2176 8.46685 15.6229" stroke="black" stroke-width="3" stroke-linecap="round" stroke-linejoin="round"/>
</svg>
