<svg width="65" height="92" viewBox="0 0 65 92" fill="none" xmlns="http://www.w3.org/2000/svg">
<path d="M5.73506 87.038L9.01106 77.518H10.9011L6.92506 88.942H4.54506L0.555063 77.518H2.44506L5.73506 87.038ZM14.6939 80.374C16.6399 80.374 18.1239 81.564 18.1239 83.608V88.942H16.4719L16.3879 87.878C15.9399 88.676 15.1279 89.152 14.0639 89.152H13.5319C12.0199 89.152 10.8719 88.046 10.8719 86.464C10.8719 84.98 11.9499 83.888 13.9799 83.888H16.3459V83.678C16.3459 82.726 15.7719 82.012 14.5679 82.012C13.7419 82.012 13.1539 82.39 12.7899 83.048L11.1799 82.362C11.8099 81.214 13.1119 80.374 14.6939 80.374ZM13.9099 87.5H14.4279C15.3519 87.5 16.2199 86.982 16.3459 86.072V85.428H14.0359C13.1259 85.428 12.6499 85.834 12.6499 86.464C12.6499 87.108 13.1539 87.5 13.9099 87.5ZM23.5292 89.152C21.4432 89.152 19.6372 87.836 19.6372 85.288V84.224C19.6372 81.676 21.4432 80.374 23.5292 80.374C25.1252 80.374 26.5952 81.186 27.1412 82.796L25.4472 83.426C25.1112 82.46 24.4112 82.012 23.5292 82.012C22.4092 82.012 21.4432 82.754 21.4432 84.28V85.232C21.4432 86.758 22.4092 87.514 23.5292 87.514C24.4112 87.514 25.1112 87.066 25.4472 86.1L27.1412 86.716C26.5952 88.326 25.1252 89.152 23.5292 89.152ZM32.0435 80.374C33.9895 80.374 35.4735 81.564 35.4735 83.608V88.942H33.8215L33.7375 87.878C33.2895 88.676 32.4775 89.152 31.4135 89.152H30.8815C29.3695 89.152 28.2215 88.046 28.2215 86.464C28.2215 84.98 29.2995 83.888 31.3295 83.888H33.6955V83.678C33.6955 82.726 33.1215 82.012 31.9175 82.012C31.0915 82.012 30.5035 82.39 30.1395 83.048L28.5295 82.362C29.1595 81.214 30.4615 80.374 32.0435 80.374ZM31.2595 87.5H31.7775C32.7015 87.5 33.5695 86.982 33.6955 86.072V85.428H31.3855C30.4755 85.428 29.9995 85.834 29.9995 86.464C29.9995 87.108 30.5035 87.5 31.2595 87.5ZM41.6661 87.248L42.0721 88.76C41.5681 89.026 40.8541 89.152 40.2521 89.152C38.7961 89.152 37.8721 88.382 37.8721 86.856V82.222H36.4861V80.584H37.8721V78.358H39.6641V80.584H41.7221V82.222H39.6641V86.59C39.6641 87.318 39.9861 87.514 40.5181 87.514C40.9521 87.514 41.2881 87.402 41.6661 87.248ZM44.4027 79.17C43.8147 79.17 43.3387 78.708 43.3387 78.106C43.3387 77.518 43.8147 77.042 44.4027 77.042C44.9907 77.042 45.4667 77.518 45.4667 78.106C45.4667 78.708 44.9907 79.17 44.4027 79.17ZM45.3127 88.942H43.5067V80.584H45.3127V88.942ZM50.8729 89.152C48.7869 89.152 46.9809 87.836 46.9809 85.274V84.224C46.9809 81.676 48.7869 80.374 50.8729 80.374C52.9589 80.374 54.7789 81.676 54.7789 84.224V85.274C54.7789 87.836 52.9589 89.152 50.8729 89.152ZM50.8729 87.514C51.9929 87.514 52.9729 86.758 52.9729 85.232V84.28C52.9729 82.754 51.9929 82.012 50.8729 82.012C49.7529 82.012 48.7869 82.754 48.7869 84.28V85.232C48.7869 86.758 49.7529 87.514 50.8729 87.514ZM60.7328 80.374C62.4828 80.374 63.8828 81.718 63.8828 83.888V88.942H62.0768V83.972C62.0768 82.558 61.3068 82.012 60.2288 82.012C59.1788 82.012 58.3108 82.712 58.3108 83.86V88.942H56.5048V80.584H58.1848L58.2688 81.648C58.7588 80.878 59.6268 80.374 60.7328 80.374Z" fill="black"/>
<path d="M53.1481 7.73404C53.6001 7.22872 54.2247 6.86088 54.8971 6.82001C55.5695 6.77914 56.275 7.08753 56.6314 7.66716C56.8996 8.10188 56.9511 8.63692 56.929 9.14967C56.9143 9.47664 56.8739 9.81104 56.7306 10.1046C56.4808 10.6322 55.9296 10.9777 55.3601 11.0669C54.7906 11.1561 54.199 11.0149 53.6772 10.7659C53.3502 10.6099 53.0306 10.3981 52.8432 10.0823C52.4353 9.39861 52.7733 8.52917 53.1114 7.81206" stroke="black" stroke-width="2.25" stroke-linecap="round" stroke-linejoin="round"/>
<path d="M47.5 10.3555L49.2109 9.5" stroke="black" stroke-width="2.25" stroke-linecap="round" stroke-linejoin="round"/>
<path d="M49 5C49.599 5.08897 50.1852 5.38325 50.7109 5.85547" stroke="black" stroke-width="2.25" stroke-linecap="round" stroke-linejoin="round"/>
<path d="M55 2V2.85547" stroke="black" stroke-width="2.25" stroke-linecap="round" stroke-linejoin="round"/>
<path d="M58.75 5.10547C59.2757 4.76788 59.854 4.48017 60.4609 4.25" stroke="black" stroke-width="2.25" stroke-linecap="round" stroke-linejoin="round"/>
<path d="M60.25 9.5H61.9609" stroke="black" stroke-width="2.25" stroke-linecap="round" stroke-linejoin="round"/>
<path d="M58.75 12.5L59.6055 13.3555" stroke="black" stroke-width="2.25" stroke-linecap="round" stroke-linejoin="round"/>
<path d="M55.75 14C55.75 14.2768 55.75 14.5673 55.75 14.8555" stroke="black" stroke-width="2.25" stroke-linecap="round" stroke-linejoin="round"/>
<path d="M52.1055 13.25C51.7884 13.5209 51.5016 13.8102 51.25 14.1055" stroke="black" stroke-width="2.25" stroke-linecap="round" stroke-linejoin="round"/>
<path d="M31.2695 33.3359C30.4274 34.3245 29.7151 34.8948 28.8218 35.8496C26.5511 38.2857 25.5357 41.4438 25.3272 44.5581C25.1186 47.6724 25.6577 50.7833 26.1929 53.8672" stroke="black" stroke-width="2.25" stroke-linecap="round" stroke-linejoin="round"/>
<path d="M17.582 54.7227C18.1216 49.787 18.9568 44.8818 20.0806 40.0445C20.3109 39.0506 20.5584 38.0499 20.9914 37.1238C22.1599 34.6339 24.552 32.9344 26.9922 31.625" stroke="black" stroke-width="2.25" stroke-linecap="round" stroke-linejoin="round"/>
<path d="M17.582 55.3531C18.2195 55.9944 19.2609 56.3274 20.2919 56.4093C21.323 56.4911 22.361 56.3519 23.3815 56.2073C23.9737 56.1227 24.5728 56.0354 25.0987 55.8088C25.6247 55.5823 26.0705 55.1893 26.1367 54.7227" stroke="black" stroke-width="2.25" stroke-linecap="round" stroke-linejoin="round"/>
<path d="M29.5586 30.6863C30.959 30.035 32.3843 29.3732 33.9162 29.1456C36.1341 28.8165 38.4409 29.4433 40.3211 30.6478C42.2013 31.8523 43.6835 33.5996 44.7818 35.529C46.0756 37.791 46.8788 40.3962 46.6194 42.9804C46.6016 43.1624 46.5732 43.355 46.463 43.5021C46.3492 43.6562 46.1609 43.7367 45.9831 43.8067C45.0626 44.1639 44.0851 44.3775 43.1006 44.444C42.3684 44.493 41.5509 44.423 41.0533 43.8943C40.7832 43.6071 40.6481 43.222 40.5415 42.8403C40.2607 41.8213 40.1505 40.7604 40.2145 39.7064C39.3934 39.8745 38.5404 39.892 37.7122 39.7624C37.3035 39.6994 36.877 39.5873 36.5926 39.2932C36.3616 39.0551 36.2514 38.7294 36.1768 38.4108C35.9635 37.5109 35.9706 36.562 36.1874 35.6621C35.3664 36.1068 34.2965 36.0542 33.5217 35.536C32.7468 35.0178 32.3096 34.0513 32.4305 33.1374C31.7232 33.3125 30.9341 33.1269 30.3796 32.6612C29.8252 32.1955 29.5195 31.4567 29.5835 30.7388" stroke="black" stroke-width="2.25" stroke-linecap="round" stroke-linejoin="round"/>
<path d="M30.1649 30.7907C30.7986 28.8945 30.1684 26.7321 28.8974 25.1875C27.6263 23.6429 25.7998 22.6451 23.9092 21.974C22.745 21.5621 21.5131 21.2568 20.2847 21.3917C19.4018 21.4876 18.5579 21.8107 17.7426 22.1658C16.2793 22.8014 14.8658 23.5541 13.5235 24.4134C13.2138 24.6087 12.904 24.8218 12.6975 25.1236C12.3806 25.5887 12.3771 26.2279 12.6299 26.7286C12.8826 27.2292 13.374 27.5914 13.9152 27.7512C14.9441 28.0566 16.1013 27.6376 16.8383 26.8599C17.5753 26.0823 17.9242 24.9993 17.9847 23.9305C18.0951 24.8147 18.4582 25.6633 19.0244 26.3522C19.1846 26.5475 19.3733 26.7392 19.6189 26.8138C20.0355 26.9381 20.4663 26.6753 20.7974 26.3948C21.4917 25.8089 22.0614 25.081 22.4637 24.2714C22.3925 25.0419 22.3569 25.8196 22.3533 26.5936C22.3533 27.0765 22.3783 27.5949 22.6702 27.982C23.2043 28.6886 24.3507 28.5608 25.0806 28.0495C25.8105 27.5381 26.2983 26.757 26.9783 26.1853C26.6329 27.0126 26.284 27.8577 26.2199 28.7525C26.1559 29.6473 26.4193 30.6131 27.1207 31.1777C27.8791 31.792 29.0825 31.7707 29.8195 31.1315" stroke="black" stroke-width="2.25" stroke-linecap="round" stroke-linejoin="round"/>
<path d="M30.4141 29.9141C31.8778 26.7415 35.0895 24.655 37.6413 22.1637C38.6627 21.1665 39.6034 20.0771 40.8039 19.2741C41.7972 18.6093 42.938 18.1683 44.0893 17.7866C44.8264 17.543 45.5706 17.3192 46.3217 17.1218C46.4305 17.0922 46.5499 17.0625 46.6587 17.0987C46.7535 17.1284 46.8272 17.2008 46.8904 17.2732C47.5748 18.0531 47.7398 19.228 47.2098 20.1067C46.6798 20.9855 45.4442 21.4561 44.4403 21.0941C44.9598 21.8181 44.5737 22.8844 43.805 23.3715C43.0363 23.8585 42.0219 23.8783 41.1128 23.6841C41.1233 24.5135 41.0987 25.4317 40.4915 26.0339C39.9931 26.5243 39.1998 26.6757 38.4872 26.5737C37.7747 26.4716 37.1148 26.1524 36.4865 25.8167C36.2443 27.1825 35.2439 28.4101 33.9031 28.9893" stroke="black" stroke-width="2.25" stroke-linecap="round" stroke-linejoin="round"/>
<path d="M31.4967 28.2031C32.6139 25.1735 33.2992 21.6519 32.8315 18.424C32.3638 15.1962 30.9933 12.1134 28.866 9.81286C28.7101 9.64652 28.5445 9.47663 28.3334 9.41292C28.1547 9.35983 27.9631 9.38815 27.7812 9.41292C27.0797 9.52264 26.3555 9.63944 25.7644 10.0606C25.615 10.1668 25.4753 10.2907 25.3876 10.4606C25.1765 10.857 25.3129 11.3631 25.5078 11.7666C26.1573 13.1221 27.45 14.0919 28.8433 14.2689C27.9826 14.7254 27.5052 15.8969 27.7715 16.8986C28.0378 17.9002 29.0154 18.6116 29.967 18.4948C29.6519 19.0292 29.3304 19.5849 29.2297 20.2114C29.1291 20.8378 29.2914 21.5598 29.7819 21.9067C30.0482 22.0978 30.4282 22.2217 30.4769 22.5615C30.4931 22.6889 30.4574 22.8163 30.4152 22.9402C30.2171 23.5277 29.954 24.0904 29.8078 24.6957C29.6617 25.3009 29.6162 26.253 29.9118 26.7874" stroke="black" stroke-width="2.25" stroke-linecap="round" stroke-linejoin="round"/>
<path d="M25.2812 32.4805C25.6795 33.8556 26.6345 34.8786 27.6705 35.5704C27.9877 35.7842 28.3488 35.9729 28.7031 35.8765" stroke="black" stroke-width="2.25" stroke-linecap="round" stroke-linejoin="round"/>
<path d="M21.8594 36.7578C22.2293 37.1366 22.3431 37.3883 22.8269 37.6998C23.9296 38.4025 25.5765 38.6517 26.9922 38.3302" stroke="black" stroke-width="2.25" stroke-linecap="round" stroke-linejoin="round"/>
<path d="M20.1484 42.7461C21.0659 43.514 22.0476 44.3092 23.2089 44.4389C23.9307 44.5208 24.6781 44.3229 25.2812 43.8928" stroke="black" stroke-width="2.25" stroke-linecap="round" stroke-linejoin="round"/>
<path d="M19.293 48.7344C19.7961 49.1382 20.4981 49.3786 21.2156 49.4906C21.933 49.6026 22.6785 49.6003 23.4115 49.5769C24.0761 49.5559 24.7998 49.5023 25.2812 49.1568" stroke="black" stroke-width="2.25" stroke-linecap="round" stroke-linejoin="round"/>
<path d="M18.4375 52.1562C19.8078 52.6019 21.0777 53.8727 22.4757 53.8672C23.2404 53.8672 23.9775 53.4711 24.7007 53.086C25.1782 52.8274 25.6592 52.5743 26.1367 52.3158" stroke="black" stroke-width="2.25" stroke-linecap="round" stroke-linejoin="round"/>
<path d="M18.4375 52.3555C13.8968 51.8357 9.32669 51.5505 4.75 51.5" stroke="black" stroke-width="2.25" stroke-linecap="round" stroke-linejoin="round"/>
<path d="M26.1367 52.6866C35.7955 54.2273 45.5296 51.817 55.2227 52.4707" stroke="black" stroke-width="2.25" stroke-linecap="round" stroke-linejoin="round"/>
</svg>
