<svg width="179" height="36" viewBox="0 0 179 36" fill="none" xmlns="http://www.w3.org/2000/svg">
<path d="M37.2685 9.04395V25.0044C37.2685 27.9203 36.2333 30.3989 34.1652 32.4424C32.1216 34.5106 29.643 35.5457 26.7271 35.5457C23.4387 35.5457 20.7459 34.2875 18.6532 31.7709C16.536 34.2875 13.8321 35.5457 10.5414 35.5457C7.62548 35.5457 5.14687 34.5128 3.10329 32.4424C1.03517 30.3989 0 27.9203 0 25.0044V9.04395H4.93493V25.0044C4.93493 26.5504 5.48374 27.8712 6.57915 28.9666C7.67457 30.0642 8.9953 30.6108 10.5414 30.6108C12.0874 30.6108 13.4059 30.0754 14.5036 29.0045C15.599 27.9091 16.1612 26.5884 16.1857 25.0423V9.04395H21.1207V25.0423C21.1207 26.5884 21.6695 27.9091 22.7649 29.0045C23.8603 30.0754 25.1811 30.6108 26.7271 30.6108C28.2732 30.6108 29.5917 30.062 30.6893 28.9666C31.7847 27.8712 32.3336 26.5504 32.3336 25.0044V9.04395H37.2685V9.04395Z" fill="black"/>
<path d="M55.8307 24.7813C56.3795 26.4768 57.3634 27.8712 58.7845 28.9666C60.2547 30.0642 61.9124 30.6108 63.7551 30.6108C65.2254 30.6108 66.6956 30.2739 68.1658 29.6024C69.7096 28.9041 70.8452 28.0206 71.568 26.9475L75.6418 29.714C74.4705 31.4586 72.7638 32.8663 70.5217 33.9372C68.3041 35.0081 66.0486 35.5435 63.7574 35.5435C60.0941 35.5435 56.9663 34.2473 54.3761 31.6571C51.7837 29.0648 50.4897 25.9503 50.4897 22.3116C50.4897 18.6729 51.7859 15.5227 54.3761 12.9303C56.9663 10.3379 60.0941 9.04395 63.7574 9.04395C67.4206 9.04395 70.5105 10.3402 73.1029 12.9303C75.6931 15.5227 76.9893 18.6483 76.9893 22.3116C76.9893 23.1348 76.9157 23.9447 76.764 24.7411L55.8329 24.779L55.8307 24.7813ZM63.7551 13.9789C61.9101 13.9789 60.2547 14.5277 58.7845 15.6231C57.3634 16.7208 56.3795 18.1285 55.8307 19.8464H71.6416C71.0928 18.1263 70.109 16.7185 68.6878 15.6231C67.2176 14.5277 65.5734 13.9789 63.7529 13.9789H63.7551Z" fill="black"/>
<path d="M89.8682 35.546V22.314C89.8682 18.6508 91.1644 15.5252 93.7546 12.9328C96.3448 10.3404 99.4614 9.04639 103.098 9.04639C106.734 9.04639 109.887 10.3426 112.479 12.9328C115.069 15.5252 116.366 18.6508 116.366 22.314V35.546H111.431V22.314C111.431 20.0228 110.607 18.0528 108.963 16.4086C107.343 14.7889 105.387 13.9791 103.096 13.9791C100.804 13.9791 98.8479 14.7889 97.2282 16.4086C95.6085 18.0528 94.7987 20.0228 94.7987 22.314V35.546H89.8638H89.8682Z" fill="black"/>
<path d="M129.25 0H134.185V4.78322H129.25V0ZM129.25 9.04438H134.185V35.5462H129.25V9.04438Z" fill="black"/>
<path d="M178.086 9.04395L166.873 33.0783C166.125 34.7225 164.843 35.5457 163.022 35.5457C161.202 35.5457 159.908 34.7225 159.136 33.0783L147.923 9.04395H153.38L162.389 28.3308C162.513 28.6052 162.725 28.7413 163.024 28.7413C163.323 28.7413 163.535 28.6052 163.66 28.3308L172.669 9.04395H178.088H178.086Z" fill="black"/>
</svg>
