<svg width="42" height="81" viewBox="0 0 42 81" fill="none" xmlns="http://www.w3.org/2000/svg">
<path d="M4.58752 77.692L1.57752 66.268H3.39752L5.74952 75.298L8.07352 66.282L9.90752 66.268L12.2315 75.298L14.5835 66.268H16.4035L13.3935 77.692H11.2095L8.98352 69.18L6.77152 77.692H4.58752ZM20.5458 77.902C18.4598 77.902 16.6538 76.586 16.6538 74.024V72.974C16.6538 70.426 18.4598 69.124 20.5458 69.124C22.6318 69.124 24.4518 70.426 24.4518 72.974V74.024C24.4518 76.586 22.6318 77.902 20.5458 77.902ZM20.5458 76.264C21.6658 76.264 22.6458 75.508 22.6458 73.982V73.03C22.6458 71.504 21.6658 70.762 20.5458 70.762C19.4258 70.762 18.4598 71.504 18.4598 73.03V73.982C18.4598 75.508 19.4258 76.264 20.5458 76.264ZM29.9856 69.124C30.3496 69.124 30.7836 69.18 31.0636 69.306L30.6296 70.93C30.3216 70.818 29.9576 70.762 29.6636 70.762C28.8236 70.762 27.9836 71.364 27.9836 72.624V77.692H26.1776V69.334H27.8576L27.9416 70.454C28.3476 69.642 29.0196 69.124 29.9856 69.124ZM39.7369 77.692H37.5949L34.9349 74.108L34.0949 75.004V77.692H32.2889V66.268H34.0949V72.624L37.1749 69.334H39.4009L36.0269 72.946L39.7369 77.692Z" fill="black"/>
<path d="M13.6706 16.2322C15.337 15.8611 17.0427 15.7439 18.7337 15.5535C19.8414 15.4265 20.9295 15.2165 22.0176 15.0261C22.9194 14.865 23.385 14.1765 23.4488 13.1852C23.6252 10.3678 23.5321 7.55522 23.3164 4.74754C23.2282 3.5854 22.0176 2.38908 20.7285 2.16935C18.8072 1.83731 16.8712 2.07169 14.9694 2.21329C12.3717 2.40373 9.78871 2.87249 7.2008 3.22894C6.24994 3.36078 5.31378 3.62935 4.38743 3.85884C3.24542 4.14205 3.12288 5.36279 3.12288 6.2759C3.12778 8.6197 2.84841 10.9635 3.07387 13.3073C3.2013 14.6404 4.32861 15.7879 5.66668 16.0173C7.89679 16.4031 10.1367 16.2176 12.3717 16.2468C12.7638 16.2468 13.1755 16.1052 13.548 16.3543" stroke="black" stroke-width="2.25" stroke-linecap="round" stroke-linejoin="round"/>
<path d="M2.4956 40.022C2.24563 38.0347 2.46129 36.0376 2.37307 34.0453C2.27504 31.7796 1.93685 29.5286 2.01037 27.2483C2.03978 26.3547 2.17211 25.4709 2.06428 24.548C1.90254 23.1954 3.25041 22.0919 5.08351 21.8575C7.87728 21.5059 10.6563 21.0225 13.4452 20.6319C14.9205 20.4268 16.4889 20.6514 18.0231 20.5977C19.7042 20.5391 21.3854 19.8897 23.0812 20.5098C25.0761 19.3965 27.4238 20.5294 29.4334 19.5186C29.7961 19.333 30.1441 19.5821 30.4872 19.6407C31.688 19.8506 32.8741 19.7823 34.0161 19.3868C35.065 19.0205 37.2657 19.8946 37.6628 20.92C38.6773 23.5617 39.3537 26.2766 39.437 29.1233C39.5253 32.014 39.6723 34.9047 39.7801 37.7954C39.7997 38.313 39.8487 38.8452 39.5498 39.3189" stroke="black" stroke-width="2.25" stroke-linecap="round" stroke-linejoin="round"/>
<path d="M22.493 24.9043C18.8661 24.8701 15.2734 25.2852 11.666 25.5586C8.58793 25.793 5.47558 25.6075 2.37793 25.6075" stroke="black" stroke-width="2.25" stroke-linecap="round" stroke-linejoin="round"/>
<path d="M13.5532 16.4666C13.5924 17.7947 13.6316 19.1229 13.6709 20.451" stroke="black" stroke-width="2.25" stroke-linecap="round" stroke-linejoin="round"/>
<path d="M32.7273 33.9282C31.1981 34.0845 29.6689 34.2407 28.1396 34.397" stroke="black" stroke-width="2.25" stroke-linecap="round" stroke-linejoin="round"/>
<path d="M23.0812 20.5684C22.9342 22.0137 22.9538 23.4639 22.7577 24.9239C22.5715 26.3302 22.6842 27.9611 22.9587 29.4748C23.2674 31.179 23.0224 32.9124 23.2723 34.6361C23.4733 36.0131 24.086 37.2973 24.0664 38.7329C24.0566 39.2847 24.6153 39.6997 25.3162 39.6753C27.7473 39.5923 30.1783 39.7241 32.6094 39.5825C34.3641 39.48 36.1433 39.5679 37.898 39.6997C38.6332 39.7534 39.2899 39.1626 40.0153 39.5532" stroke="black" stroke-width="2.25" stroke-linecap="round" stroke-linejoin="round"/>
<path d="M35.1973 16.3494C35.8345 16.4324 36.4962 16.3738 37.0696 16.198C37.8097 15.9685 38.6037 15.6413 38.6185 14.5915C38.6332 13.5319 38.1234 12.4772 37.0696 12.1549C34.7807 11.4567 32.4281 11.0953 30.0215 11.3151C29.3108 11.3785 29.1589 11.8864 29.1981 12.4821C29.3108 14.1227 29.3647 15.7732 29.5804 17.3992C29.6686 18.0633 29.5118 18.7518 29.7862 19.3963" stroke="black" stroke-width="2.25" stroke-linecap="round" stroke-linejoin="round"/>
<path d="M33.0799 29.0061C31.1193 29.0452 29.1588 29.0842 27.1982 29.1233" stroke="black" stroke-width="2.25" stroke-linecap="round" stroke-linejoin="round"/>
<path d="M27.3164 24.2012C28.924 24.0742 30.5366 24.3477 32.1393 24.084" stroke="black" stroke-width="2.25" stroke-linecap="round" stroke-linejoin="round"/>
<path d="M35.0798 12.0132C34.7171 13.2534 34.3838 17.5114 34.4867 18.4587C34.5063 18.654 34.4867 18.8493 34.4867 19.0446" stroke="black" stroke-width="2.25" stroke-linecap="round" stroke-linejoin="round"/>
<path d="M19.3171 13.747L16.7929 13.8593C16.5478 13.869 16.2881 13.8837 16.0234 13.8934C12.8179 14.0644 9.41148 14.704 6.43146 13.8593C4.45131 13.4589 4.80911 10.5096 4.67188 8.19506C4.7454 7.7849 4.87773 7.41868 5.06398 7.10129C6.74024 4.21059 12.6562 4.73794 16.3371 4.42544C16.6753 4.40102 17.0086 4.38637 17.337 4.38149C17.9986 4.37173 18.6407 4.40591 19.2583 4.49868C22.2383 5.34343 21.3904 8.31714 21.6305 10.5486C21.6452 10.9393 21.655 11.1981 21.655 11.1981C21.7139 12.5409 20.6601 13.6884 19.3122 13.747H19.3171Z" fill="black"/>
</svg>
