<svg width="94" height="99" viewBox="0 0 94 99" fill="none" xmlns="http://www.w3.org/2000/svg">
<path d="M3.87681 94.648L0.436813 81.592H2.51681L5.20481 91.912L7.86081 81.608L9.95681 81.592L12.6128 91.912L15.3008 81.592H17.3808L13.9408 94.648H11.4448L8.90081 84.92L6.37281 94.648H3.87681ZM22.1148 94.888C19.7308 94.888 17.6668 93.384 17.6668 90.456V89.256C17.6668 86.344 19.7308 84.856 22.1148 84.856C24.4988 84.856 26.5788 86.344 26.5788 89.256V90.456C26.5788 93.384 24.4988 94.888 22.1148 94.888ZM22.1148 93.016C23.3948 93.016 24.5148 92.152 24.5148 90.408V89.32C24.5148 87.576 23.3948 86.728 22.1148 86.728C20.8348 86.728 19.7308 87.576 19.7308 89.32V90.408C19.7308 92.152 20.8348 93.016 22.1148 93.016ZM32.9032 84.856C33.3192 84.856 33.8152 84.92 34.1352 85.064L33.6392 86.92C33.2872 86.792 32.8712 86.728 32.5352 86.728C31.5752 86.728 30.6152 87.416 30.6152 88.856V94.648H28.5512V85.096H30.4712L30.5672 86.376C31.0312 85.448 31.7992 84.856 32.9032 84.856ZM44.0476 94.648H41.5996L38.5596 90.552L37.5996 91.576V94.648H35.5356V81.592H37.5996V88.856L41.1196 85.096H43.6636L39.8076 89.224L44.0476 94.648ZM44.1318 92.6L45.6998 91.544C46.4198 92.728 47.5718 93.144 48.5318 93.144C49.4758 93.144 50.3238 92.824 50.3238 92.072C50.3238 91.336 49.6838 91.064 48.8198 90.84L47.6998 90.552C46.2278 90.184 44.8038 89.432 44.8038 87.624C44.8038 85.816 46.3078 84.856 48.3078 84.856C50.2118 84.856 51.4438 85.72 52.2598 86.904L50.7718 88.008C50.1158 87.144 49.2198 86.6 48.2758 86.6C47.3478 86.6 46.7878 86.984 46.7878 87.624C46.7878 88.28 47.2358 88.584 48.0998 88.824L49.2038 89.096C50.6758 89.464 52.3078 90.168 52.3078 92.072C52.3078 94.008 50.4518 94.888 48.4838 94.888C46.5478 94.888 44.9638 94.104 44.1318 92.6ZM59.1518 84.856C61.0558 84.856 63.0238 86.536 63.0238 89.432V90.376C63.0238 93.256 61.0558 94.936 59.1518 94.936C57.9998 94.936 56.9118 94.424 56.1758 93.48V97.368H54.1118V85.096H56.0478L56.1438 86.36C56.8798 85.384 57.9838 84.856 59.1518 84.856ZM60.9598 90.328V89.464C60.9598 87.64 59.8878 86.728 58.5438 86.728C57.2478 86.728 56.1758 87.64 56.1758 89.464V90.328C56.1758 92.152 57.2478 93.064 58.5438 93.064C59.8878 93.064 60.9598 92.152 60.9598 90.328ZM68.6423 84.856C70.8663 84.856 72.5623 86.216 72.5623 88.552V94.648H70.6743L70.5783 93.432C70.0663 94.344 69.1383 94.888 67.9223 94.888H67.3143C65.5863 94.888 64.2743 93.624 64.2743 91.816C64.2743 90.12 65.5063 88.872 67.8263 88.872H70.5303V88.632C70.5303 87.544 69.8743 86.728 68.4983 86.728C67.5543 86.728 66.8823 87.16 66.4663 87.912L64.6263 87.128C65.3463 85.816 66.8343 84.856 68.6423 84.856ZM67.7463 93H68.3383C69.3943 93 70.3863 92.408 70.5303 91.368V90.632H67.8903C66.8503 90.632 66.3063 91.096 66.3063 91.816C66.3063 92.552 66.8823 93 67.7463 93ZM78.7398 94.888C76.3558 94.888 74.2918 93.384 74.2918 90.472V89.256C74.2918 86.344 76.3558 84.856 78.7398 84.856C80.5638 84.856 82.2438 85.784 82.8678 87.624L80.9318 88.344C80.5478 87.24 79.7478 86.728 78.7398 86.728C77.4598 86.728 76.3558 87.576 76.3558 89.32V90.408C76.3558 92.152 77.4598 93.016 78.7398 93.016C79.7478 93.016 80.5478 92.504 80.9318 91.4L82.8678 92.104C82.2438 93.944 80.5638 94.888 78.7398 94.888ZM93.0907 89.432V90.616H86.3547C86.4667 92.248 87.5227 93.064 88.7227 93.064C89.7627 93.064 90.6747 92.6 91.0587 91.64L92.9307 92.216C92.3707 93.976 90.6907 94.888 88.7227 94.888C86.3547 94.888 84.3387 93.352 84.3387 90.344V89.384C84.3387 86.392 86.3387 84.856 88.7067 84.856C91.1067 84.856 93.0907 86.392 93.0907 89.432ZM86.3707 88.92H91.0587C91.0587 87.608 90.0347 86.664 88.7067 86.664C87.5387 86.664 86.5467 87.416 86.3707 88.92Z" fill="black"/>
<path d="M36.5608 20.9763C38.7827 20.4815 41.0569 20.3252 43.3116 20.0713C44.7885 19.902 46.2393 19.6221 47.6901 19.3682C48.8926 19.1533 49.5134 18.2353 49.5983 16.9137C49.8336 13.1571 49.7094 9.40697 49.4219 5.66338C49.3043 4.11387 47.6901 2.51877 45.9714 2.2258C43.4096 1.78308 40.8282 2.09559 38.2926 2.28439C34.829 2.53831 31.3849 3.16332 27.9344 3.63859C26.6666 3.81438 25.4184 4.17246 24.1832 4.47846C22.6606 4.85607 22.4972 6.48372 22.4972 7.7012C22.5037 10.8263 22.1312 13.9514 22.4318 17.0764C22.6017 18.8538 24.1048 20.3838 25.8889 20.6898C28.8624 21.2041 31.8489 20.9567 34.829 20.9958C35.3518 20.9958 35.9007 20.807 36.3974 21.139" stroke="black" stroke-width="3" stroke-linecap="round" stroke-linejoin="round"/>
<path d="M21.6608 52.6959C21.3275 50.0461 21.6151 47.3833 21.4974 44.7269C21.3667 41.706 20.9158 38.7047 21.0138 35.6642C21.053 34.4728 21.2295 33.2944 21.0857 32.0639C20.8701 30.2604 22.6672 28.789 25.1113 28.4765C28.8364 28.0078 32.5418 27.3632 36.2603 26.8424C38.2273 26.5689 40.3186 26.8684 42.3641 26.7968C44.6056 26.7187 46.8472 25.8528 49.1083 26.6796C51.7681 25.1952 54.8985 26.7057 57.5779 25.358C58.0615 25.1106 58.5254 25.4426 58.9829 25.5207C60.584 25.8007 62.1655 25.7095 63.6882 25.1822C65.0867 24.6939 68.021 25.8593 68.5503 27.2265C69.9031 30.7487 70.805 34.3686 70.916 38.1643C71.0337 42.0185 71.2297 45.8728 71.3735 49.7271C71.3997 50.4172 71.465 51.1268 71.0664 51.7584" stroke="black" stroke-width="3" stroke-linecap="round" stroke-linejoin="round"/>
<path d="M48.3241 32.5393C43.4881 32.4937 38.6978 33.0471 33.888 33.4117C29.7839 33.7242 25.6341 33.4768 21.5039 33.4768" stroke="black" stroke-width="3" stroke-linecap="round" stroke-linejoin="round"/>
<path d="M36.4041 21.2888C36.4563 23.0597 36.5086 24.8306 36.5609 26.6015" stroke="black" stroke-width="3" stroke-linecap="round" stroke-linejoin="round"/>
<path d="M61.9694 44.5708C59.9305 44.7791 57.8915 44.9875 55.8525 45.1958" stroke="black" stroke-width="3" stroke-linecap="round" stroke-linejoin="round"/>
<path d="M49.1083 26.7578C48.9122 28.6849 48.9383 30.6186 48.6769 32.5653C48.4286 34.4403 48.5789 36.6148 48.9449 38.6331C49.3566 40.9053 49.0298 43.2166 49.3631 45.5148C49.6311 47.3508 50.448 49.0631 50.4218 50.9772C50.4087 51.7129 51.1538 52.2663 52.0883 52.2337C55.3297 52.123 58.5711 52.2988 61.8125 52.11C64.1521 51.9733 66.5244 52.0905 68.8639 52.2663C69.8442 52.3379 70.7199 51.5501 71.6871 52.0709" stroke="black" stroke-width="3" stroke-linecap="round" stroke-linejoin="round"/>
<path d="M65.2632 21.1326C66.1127 21.2432 66.995 21.1651 67.7596 20.9307C68.7464 20.6247 69.8051 20.1885 69.8247 18.7888C69.8443 17.376 69.1646 15.9697 67.7596 15.54C64.7077 14.609 61.5708 14.1272 58.3621 14.4202C57.4145 14.5048 57.2119 15.1819 57.2642 15.9762C57.4145 18.1637 57.4864 20.3643 57.7739 22.5323C57.8915 23.4178 57.6824 24.3358 58.0484 25.1952" stroke="black" stroke-width="3" stroke-linecap="round" stroke-linejoin="round"/>
<path d="M62.4398 38.0081C59.8258 38.0601 57.2117 38.1122 54.5977 38.1643" stroke="black" stroke-width="3" stroke-linecap="round" stroke-linejoin="round"/>
<path d="M54.7546 31.6016C56.8982 31.4323 59.0482 31.7969 61.1852 31.4453" stroke="black" stroke-width="3" stroke-linecap="round" stroke-linejoin="round"/>
<path d="M65.1063 15.3511C64.6227 17.0048 64.1783 22.682 64.3155 23.945C64.3417 24.2055 64.3155 24.4659 64.3155 24.7263" stroke="black" stroke-width="3" stroke-linecap="round" stroke-linejoin="round"/>
<path d="M44.0892 17.6623L40.7236 17.812C40.3969 17.8251 40.0505 17.8446 39.6976 17.8576C35.4236 18.0855 30.8817 18.9384 26.9084 17.812C24.2682 17.2782 24.7452 13.3458 24.5623 10.2598C24.6603 9.71287 24.8367 9.22458 25.0851 8.80139C27.3201 4.94713 35.208 5.65027 40.1159 5.23359C40.5668 5.20104 41.0112 5.18151 41.449 5.175C42.3313 5.16197 43.1874 5.20755 44.0108 5.33125C47.9841 6.45758 46.8536 10.4225 47.1738 13.3979C47.1934 13.9187 47.2065 14.2638 47.2065 14.2638C47.2849 16.0542 45.8798 17.5842 44.0827 17.6623H44.0892Z" fill="black"/>
</svg>
