<svg width="15" height="15" viewBox="0 0 15 15" fill="none" xmlns="http://www.w3.org/2000/svg">
<path d="M14.3127 1.04711C14.5225 1.44105 14.4754 1.83285 14.3127 2.22894C13.6918 3.7576 12.8547 5.1835 12.2038 6.69719C11.6172 8.05886 10.9663 9.38841 10.1035 10.6066C9.57897 11.3474 9.048 12.0861 8.64978 12.9103C8.55344 13.1095 8.35004 13.2572 8.19589 13.4285C8.02461 13.619 7.85761 13.5741 7.67991 13.4285C7.51077 13.2893 7.41015 13.0945 7.32879 12.9103C6.79354 11.705 6.14054 10.5531 5.68237 9.31348C5.60315 9.09938 5.4597 8.95807 5.3184 8.79964C5.22847 8.70115 5.10644 8.65619 5.04863 8.49776C4.84524 7.93896 4.64184 7.81907 4.13657 7.98606C3.38936 8.23442 2.63787 8.20658 1.87354 8.14236C1.59521 8.1188 1.35328 8.02032 1.10278 7.92826" stroke="black" stroke-linecap="round" stroke-linejoin="round"/>
<path d="M14.0558 1C13.5398 1.03426 13.1501 1.37467 12.7219 1.61661C12.5078 1.73864 10.9535 2.00627 10.4653 2.24178C7.58783 3.6377 4.74245 5.09786 2.03624 6.80851C1.61661 7.07399 1.1306 7.31164 1 7.87901" stroke="black" stroke-linecap="round" stroke-linejoin="round"/>
<path d="M6.32657 11.1909C6.08881 11.2708 5.84933 11.3506 5.62879 11.4824C5.48751 11.5682 5.35657 11.674 5.22563 11.7798L4.61572 12.2729L4.64329 12.1571C4.61572 12.0274 4.74666 11.9216 4.7191 11.8238C4.51063 11.0791 4.7346 10.3525 4.76045 9.61782C4.77078 9.3024 4.8845 9.06883 5.05506 8.85123" stroke="black" stroke-linecap="round" stroke-linejoin="round"/>
<path d="M5.04248 8.72255C5.35292 8.2237 5.73616 7.77195 6.14509 7.35018C7.60525 5.83435 9.36514 4.64182 11.1636 3.54992C11.6967 3.22448 12.2405 2.90548 12.7029 2.48584C13.2318 2.00626 13.66 1.3918 14.298 1.07065" stroke="black" stroke-linecap="round" stroke-linejoin="round"/>
</svg>
