<svg width="31" height="29" viewBox="0 0 31 29" fill="none" xmlns="http://www.w3.org/2000/svg">
<path d="M28.7233 2.02612C29.1373 2.80349 29.0444 3.57664 28.7233 4.35824C27.4981 7.37477 25.8462 10.1885 24.5618 13.1755C23.4042 15.8625 22.1199 18.4861 20.4172 20.89C19.3822 22.3518 18.3344 23.8094 17.5486 25.436C17.3585 25.8289 16.9571 26.1204 16.6529 26.4584C16.3149 26.8344 15.9854 26.7457 15.6347 26.4584C15.301 26.1838 15.1024 25.7993 14.9419 25.436C13.8856 23.0574 12.5971 20.7844 11.6929 18.3382C11.5366 17.9158 11.2536 17.6369 10.9747 17.3243C10.7973 17.1299 10.5565 17.0412 10.4424 16.7286C10.041 15.6259 9.63967 15.3893 8.64261 15.7188C7.16814 16.2089 5.68522 16.154 4.17695 16.0273C3.62772 15.9808 3.15031 15.7864 2.65601 15.6048" stroke="black" stroke-width="3" stroke-linecap="round" stroke-linejoin="round"/>
<path d="M28.2162 1.93317C27.198 2.00076 26.4291 2.67251 25.5841 3.14992C25.1617 3.39074 22.0944 3.91884 21.1312 4.38358C15.453 7.13817 9.83815 10.0195 4.49795 13.3952C3.66988 13.919 2.71084 14.388 2.45312 15.5076" stroke="black" stroke-width="3" stroke-linecap="round" stroke-linejoin="round"/>
<path d="M12.9639 22.043C12.4948 22.2006 12.0222 22.3582 11.587 22.6182C11.3082 22.7876 11.0498 22.9963 10.7914 23.2051L9.58789 24.1782L9.64229 23.9497C9.58789 23.6936 9.84628 23.4848 9.79188 23.2918C9.3805 21.8224 9.82248 20.3885 9.87348 18.9388C9.89388 18.3164 10.1183 17.8555 10.4548 17.4261" stroke="black" stroke-width="3" stroke-linecap="round" stroke-linejoin="round"/>
<path d="M10.4297 17.1722C11.0423 16.1878 11.7985 15.2963 12.6055 14.464C15.4868 11.4728 18.9596 9.11961 22.5085 6.96494C23.5605 6.32276 24.6336 5.69326 25.5462 4.86519C26.5897 3.91883 27.4347 2.7063 28.6937 2.07257" stroke="black" stroke-width="3" stroke-linecap="round" stroke-linejoin="round"/>
</svg>
