<svg width="31" height="31" viewBox="0 0 31 31" fill="none" xmlns="http://www.w3.org/2000/svg">
<path d="M13 6.72849C14.5354 5.69058 16.1134 4.67429 17.6701 3.67962C19.1202 2.77144 20.7196 1.84164 22.4256 2.03625C23.2999 2.14437 24.1102 2.53359 24.8566 3.03092C26.6692 4.24182 28.1193 6.03655 28.7164 8.15563C29.3135 10.2747 28.9723 12.6749 27.6501 14.4047C26.6905 15.6805 25.2404 16.5887 24.5794 18.0375" stroke="white" stroke-width="3" stroke-miterlimit="10" stroke-linecap="round"/>
<path d="M19 24.3379C17.3687 25.3758 15.692 26.3921 14.038 27.3868C12.4973 28.2949 10.7979 29.2247 8.98534 29.0301C8.05638 28.922 7.19539 28.5328 6.40237 28.0355C4.47647 26.8246 2.93576 25.0298 2.30134 22.9108C1.66693 20.7917 2.02945 18.3915 3.43422 16.6616C4.45382 15.3859 5.99453 14.4777 6.69692 13.0289" stroke="white" stroke-width="3" stroke-miterlimit="10" stroke-linecap="round"/>
<path d="M22 9.02209C18.1556 13.1678 14.1556 17.182 10 21.0425" stroke="white" stroke-width="3" stroke-miterlimit="10" stroke-linecap="round"/>
</svg>
