<svg width="1194" height="457" viewBox="0 0 1194 457" fill="none" xmlns="http://www.w3.org/2000/svg">
<path d="M649.536 347.517C651.543 352.922 655.7 355.38 661.173 356.031C663.458 356.301 665.76 356.208 668.054 356.234C669.192 356.25 669.698 356.141 669.555 354.595C669.31 351.85 669.293 349.054 669.673 346.292" stroke="black" stroke-width="3" stroke-linecap="round" stroke-linejoin="round"/>
<path d="M555.026 250.008C554.2 255.059 551.417 259.029 547.564 262.07C545.928 263.362 543.364 263.261 541.172 262.948C538.431 262.56 535.699 262.078 533.068 261.157" stroke="black" stroke-width="3" stroke-linecap="round" stroke-linejoin="round"/>
<path d="M653.078 279.504C652.007 280.01 651.695 281.151 651.298 282.055C649.334 286.633 643.971 290.265 639.114 290.147C637.672 290.113 636.323 289.462 634.864 289.538" stroke="black" stroke-width="3" stroke-linecap="round" stroke-linejoin="round"/>
<path d="M647.006 405.495C646.93 407.285 645.278 408.13 644.485 409.49C642.799 412.387 641.669 415.361 641.34 418.672C641.196 420.133 643.735 423.317 645.185 423.537C645.784 423.63 646.374 423.495 646.787 423.115C647.47 422.481 648.145 421.856 649.03 421.51" stroke="black" stroke-width="3" stroke-linecap="round" stroke-linejoin="round"/>
<path d="M668.053 275.348C668.736 270.584 673.357 268.371 676.545 269.486C677.649 269.874 678.434 270.474 678.855 271.876C680.204 276.345 679.378 279.36 675.769 282.266C674.563 283.229 673.518 284.361 672.126 285.112C671.098 285.661 670.794 286.675 670.861 287.917C671.03 291.152 670.92 294.412 671.157 297.639C671.249 298.864 670.946 300.333 672.691 301.153C674.74 302.107 676.317 301.583 677.759 300.257C679.083 299.041 680.002 297.512 679.994 295.62C679.994 294.97 680.28 294.488 680.618 293.998" stroke="black" stroke-width="3" stroke-linecap="round" stroke-linejoin="round"/>
<path d="M679.994 275.145C680.601 275.145 681.208 275.187 681.815 275.145C683.62 275.002 685.002 275.542 686.309 276.944C689.126 279.968 690.88 283.431 691.31 287.528C691.588 290.223 690.07 292.005 687.869 293.179C685.576 294.395 683.08 294.328 680.601 293.796C680.466 293.762 680.39 293.415 680.289 293.213" stroke="black" stroke-width="3" stroke-linecap="round" stroke-linejoin="round"/>
<path d="M640.53 279.605C639.578 279.546 638.65 279.605 637.68 279.25C636.34 278.76 634.577 279.875 634.274 281.227C633.953 282.688 634.974 283.313 636.078 283.862C637.25 284.445 638.49 284.293 639.721 284.268" stroke="black" stroke-width="3" stroke-linecap="round" stroke-linejoin="round"/>
<path d="M642.959 394.751C644.865 396.279 647.394 396.398 649.427 397.597C656.974 402.04 659.588 403.848 659.52 412.793C659.486 417.016 657.033 420.082 653.82 422.439C653.019 423.022 651.442 422.439 650.236 422.726" stroke="black" stroke-width="3" stroke-linecap="round" stroke-linejoin="round"/>
<path d="M641.137 349.544C640.016 353.733 639.932 358.075 639.147 362.324C638.802 364.19 638.49 366.082 638.507 367.991" stroke="black" stroke-width="3" stroke-linecap="round" stroke-linejoin="round"/>
<path d="M635.876 402.048C631.196 405.875 628.835 410.875 628.396 416.847C628.337 417.658 628.481 418.486 628.186 419.28" stroke="black" stroke-width="3" stroke-linecap="round" stroke-linejoin="round"/>
<path d="M751.028 422.523C749.611 423.14 749.139 424.5 748.844 425.775C748.102 428.968 747.115 432.102 746.423 435.303C746.17 436.486 745.993 437.854 746.988 438.944" stroke="black" stroke-width="3" stroke-linecap="round" stroke-linejoin="round"/>
<path d="M542.176 276.97C543.71 277.367 545.135 276.623 546.619 276.505C547.311 276.446 547.589 275.483 547.623 274.74C547.724 272.417 549.056 270.592 550.085 268.667C551.662 265.702 554.765 265.465 557.565 264.849C558.501 264.646 561.452 267.898 561.798 269.266C563.029 274.157 562.506 278.71 559.394 282.857C557.362 285.568 554.512 285.332 551.687 285.256C550.819 285.231 549.807 284.681 549.301 285.704C548.938 286.43 549.588 287.072 550.034 287.731C551.341 289.648 550.11 291.532 547.437 291.751C545.624 291.895 543.837 291.709 542.176 290.856" stroke="black" stroke-width="3" stroke-linecap="round" stroke-linejoin="round"/>
<path d="M710.148 330.488C711.387 331.274 712.821 331.24 714.178 331.569C716.649 332.169 718.892 333.377 720.688 335.336C724.23 339.205 727.611 343.183 729.989 347.914C731.439 350.794 732.19 353.852 732.645 357.036C733.269 361.378 734.163 365.677 734.812 370.019C735.124 372.088 735.31 374.191 735.242 376.294C735.057 382.587 736.119 388.753 737.038 394.953C737.646 399.041 737.376 403.197 737.679 407.311" stroke="black" stroke-width="3" stroke-linecap="round" stroke-linejoin="round"/>
<path d="M531.854 264.604C532.158 262.771 532.748 261.031 533.473 259.333C534.586 256.731 535.143 254.028 534.629 251.233C534.485 250.447 534.317 249.417 533.069 249.155C531.888 248.901 531.298 249.535 530.632 250.211C528.127 252.753 529.114 259.164 532.655 260.549" stroke="black" stroke-width="3" stroke-linecap="round" stroke-linejoin="round"/>
<path d="M669.672 355.625C676.486 355.887 682.169 353.074 687.245 348.902C689.59 346.976 690.829 344.138 692.119 341.435C692.996 339.594 694.219 338.403 696.378 338.166C700.611 337.71 703.747 335.041 707.154 332.786C710.215 330.758 711.033 327.684 711.935 324.601C712.989 320.969 712.778 317.362 711.168 313.856C710.316 311.998 709.195 310.309 708.107 308.594C706.184 305.562 703.022 304.844 699.818 304.345C692.516 303.205 685.803 304.692 679.538 308.729C677.337 310.148 675.153 311.804 672.497 312.446" stroke="black" stroke-width="3" stroke-linecap="round" stroke-linejoin="round"/>
<path d="M669.065 356.436C669.664 359.883 669.065 363.329 668.998 366.775C668.973 367.974 668.88 369.216 668.897 370.424C668.922 371.64 668.627 372.755 668.256 373.87" stroke="black" stroke-width="3" stroke-linecap="round" stroke-linejoin="round"/>
<path d="M640.935 403.873C640.876 404.245 641.07 404.616 640.539 404.904C635.977 407.404 635.167 411.881 634.704 416.442C634.569 417.759 634.113 419.136 634.653 420.488" stroke="black" stroke-width="3" stroke-linecap="round" stroke-linejoin="round"/>
<path d="M544.3 219.6C543.727 223.249 543.137 226.898 542.589 230.547C542.462 231.408 542.622 232.261 543.187 232.979" stroke="black" stroke-width="3" stroke-linecap="round" stroke-linejoin="round"/>
<path d="M622.316 353.598C622.595 354.662 621.676 355.296 621.246 355.997C619.272 359.249 618.362 362.94 616.928 366.403C616.456 367.552 615.798 368.371 615.022 369.208" stroke="black" stroke-width="3" stroke-linecap="round" stroke-linejoin="round"/>
<path d="M526.39 291.16C526.272 292.317 527.141 292.892 527.807 293.593C529.375 295.24 531.18 296.6 533.069 297.85C536.231 299.928 539.899 299.455 542.783 296.634" stroke="black" stroke-width="3" stroke-linecap="round" stroke-linejoin="round"/>
<path d="M627.78 400.832C626.802 400.672 626.355 401.111 625.925 402.032C623.977 406.23 623.362 410.673 623.345 415.225C623.328 418.41 624.34 419.381 627.578 419.457C628.303 419.474 628.531 420.015 629.003 420.285C630.656 421.214 632.325 422.287 634.256 420.901C634.762 420.538 635.201 420.758 635.681 420.901C637.697 421.535 639.628 421.56 641.348 420.091" stroke="black" stroke-width="3" stroke-linecap="round" stroke-linejoin="round"/>
<path d="M547.033 276.564C547.91 277.4 547.825 278.642 547.952 279.614C548.213 281.615 549.217 283.262 549.866 285.079" stroke="black" stroke-width="3" stroke-linecap="round" stroke-linejoin="round"/>
<path d="M668.053 373.87C666.308 373.769 665.6 374.977 665.026 376.303C664.63 377.232 664.697 378.136 665.414 378.938C666.502 380.163 668.045 380.518 669.065 379.749C670.018 379.023 670.549 376.734 669.841 375.72C669.42 375.112 669.057 374.36 668.256 374.073" stroke="black" stroke-width="3" stroke-linecap="round" stroke-linejoin="round"/>
<path d="M698.41 400.832C694.396 400.139 690.694 398.484 686.858 397.234C678.898 394.649 670.912 392.056 662.387 392.098C658.93 392.115 655.532 391.254 652.066 391.287C649.477 391.313 647.032 392.09 644.595 392.782C643.246 393.171 642.318 394.522 640.969 395.215C639.443 396.001 638.034 395.815 636.474 395.798C632.655 395.773 628.961 394.683 625.141 394.717C623.522 394.734 622.468 395.511 622.148 396.972C621.811 398.492 622.856 399.506 624.146 399.945C624.914 400.207 625.394 400.841 626.153 401.018" stroke="black" stroke-width="3" stroke-linecap="round" stroke-linejoin="round"/>
<path d="M683.434 246.156C685.685 244.23 685.5 241.519 683.038 239.863C682 239.162 680.955 239.23 680.23 240.1C679.032 241.536 678.214 240.97 676.933 240.117C671.317 236.375 665.288 233.731 658.348 233.993C650.995 234.263 644.021 235.995 637.495 239.458C636.736 239.855 636.095 240.336 635.682 241.088" stroke="black" stroke-width="3" stroke-linecap="round" stroke-linejoin="round"/>
<path d="M555.532 285.484C556.898 289.108 555.465 292.36 553.863 295.392C550.962 300.865 546.113 304.32 540.776 307.209C538.836 308.256 536.762 308.704 534.679 309.177C532.95 309.574 532.158 310.199 531.964 312.243C531.407 318.299 530.294 324.297 529.223 330.294C529.164 330.623 529.223 330.969 529.223 331.307" stroke="black" stroke-width="3" stroke-linecap="round" stroke-linejoin="round"/>
<path d="M529.628 266.834C528.254 266.715 526.879 266.96 525.589 267.29C523.093 267.932 520.572 267.856 518.329 266.943C516.33 266.124 515.369 263.97 514.399 261.994C513.843 260.845 514.104 260.228 515.049 259.646" stroke="black" stroke-width="3" stroke-linecap="round" stroke-linejoin="round"/>
<path d="M517.688 267.239C515.732 269.401 513.742 271.53 511.836 273.743C511.187 274.503 510.461 274.63 509.568 274.512C508.623 273.338 508.286 271.809 507.62 270.457C506.625 268.439 504.938 268.075 503.108 268.092C501.228 268.109 500.064 269.258 499.44 271.082C498.698 273.27 498.37 275.483 498.454 277.781C498.563 280.796 500.705 281.979 503.108 282.84C506.92 284.192 507.384 284.538 506.684 288.516C505.908 292.909 505.554 297.377 504.466 301.693C503.277 306.406 502.189 311.128 501.262 315.892C500.705 318.739 500.402 321.644 499.491 324.415C499.221 325.234 499.963 325.724 500.486 326.231C502.847 328.537 505.815 329.855 508.792 331.071C512.359 332.515 515.976 333.689 519.897 334.044C522.84 334.306 525.437 333.453 527.714 332.177C529.274 331.307 530.463 331.645 531.391 332.203C533.802 333.656 536.458 334.644 538.769 336.325C540.599 337.659 541.965 339.264 542.707 341.274C543.213 342.643 543.929 342.981 545.203 343.09C550.254 343.53 555.364 343.276 560.372 344.121C566.014 345.067 571.672 345.371 577.381 345.329C584.464 345.27 591.538 346.03 598.63 345.895C601.598 345.836 604.575 345.717 607.535 345.472C609.229 345.329 610.773 345.979 612.383 346.199C613.075 346.292 613.623 347.221 613.656 348.336C613.817 354.08 613.8 359.823 613.817 365.567C613.817 366.395 613.656 367.273 614.221 368C615.065 369.081 615.022 370.331 614.592 371.438C613.091 375.298 613.994 379.183 614.491 382.993C614.947 386.507 615.259 390.012 615.444 393.543C615.874 401.787 615.174 410.064 616.431 418.275C617.063 422.43 618.471 426.248 620.664 429.847C622.502 432.879 623.421 436.3 624.138 439.763" stroke="black" stroke-width="3" stroke-linecap="round" stroke-linejoin="round"/>
<path d="M557.354 256.9C556.932 259.536 558.197 262.171 557.354 264.806" stroke="black" stroke-width="3" stroke-linecap="round" stroke-linejoin="round"/>
<path d="M638.709 368.194C638.852 368.439 639.105 368.346 639.316 368.405C640.286 368.718 641.559 368.625 641.559 370.221C641.559 371.598 641.028 372.595 639.721 373.051C638.431 373.49 637.023 373.516 636.129 372.417C635.286 371.378 635.859 369.081 637.503 368.6C637.849 368.498 638.178 368.338 638.515 368.203" stroke="black" stroke-width="3" stroke-linecap="round" stroke-linejoin="round"/>
<path d="M713.588 418.672C715.106 418.79 716.261 419.812 717.627 420.319C719.558 421.037 744.627 422.523 749.004 414.617" stroke="black" stroke-width="3" stroke-linecap="round" stroke-linejoin="round"/>
<path d="M640.935 342.651C641.255 344.51 641.441 346.359 640.53 348.125" stroke="black" stroke-width="3" stroke-linecap="round" stroke-linejoin="round"/>
<path d="M557.961 262.577C562.91 261.335 565.643 257.965 566.022 252.238C566.216 249.205 566.511 246.165 565.895 243.107C565.415 240.7 564.664 238.52 562.826 236.831C561.806 235.893 560.777 234.964 559.79 233.993C555.532 229.753 550.313 229.237 544.983 232.329C543.718 233.064 542.42 233.587 541.762 235.006C541.627 235.285 541.349 235.429 540.961 235.437C539.899 235.437 537.032 233.013 537.141 231.983C537.47 229.068 536.871 226.171 537.107 223.266C537.133 222.995 537.099 222.725 537.107 222.455C537.15 221.779 537.664 221.855 538.119 221.846" stroke="black" stroke-width="3" stroke-linecap="round" stroke-linejoin="round"/>
<path d="M652.268 427.591C650.59 428.757 648.752 427.997 647.007 427.955C640.708 427.819 634.442 427.118 628.186 426.367C626.094 426.113 623.986 425.826 621.929 425.446C620.731 425.226 619.956 425.361 619.079 425.961" stroke="black" stroke-width="3" stroke-linecap="round" stroke-linejoin="round"/>
<path d="M749.164 413.401C749.257 412.184 748.296 411.424 747.385 410.774C745.378 409.346 743.076 408.383 740.707 408.198C733.067 407.606 725.402 407.285 718.049 410.166C717.096 410.537 716.101 410.875 715.224 411.399C713.664 412.337 712.737 413.68 712.981 415.639C713.184 417.337 713.141 418.984 712.872 420.724C712.5 423.123 713.276 425.572 713.361 428.005C713.555 433.335 715.519 438.335 716.101 443.606C716.32 445.608 715.41 446.166 713.993 446.639C713.141 446.926 712.248 447.213 711.371 447.238C700.569 447.585 689.843 447.534 680.584 440.599C679.741 439.966 678.586 439.755 677.574 439.349" stroke="black" stroke-width="3" stroke-linecap="round" stroke-linejoin="round"/>
<path d="M543.188 285.281C545.194 285.002 547.075 285.957 549.056 285.889" stroke="black" stroke-width="3" stroke-linecap="round" stroke-linejoin="round"/>
<path d="M671.898 301.093C670.566 303.459 671.333 305.993 671.57 308.383C671.983 312.573 671.814 316.779 672.126 320.96C672.607 327.38 669.706 331.899 664.891 335.852C661.948 338.267 659.09 340.354 655.304 341.046C652.605 341.536 649.907 341.536 647.209 341.215C645.682 341.029 645.649 339.695 645.615 338.597C645.531 336.097 645.615 333.596 645.581 331.096C645.539 327.853 645.429 324.609 645.404 321.366C645.404 320.698 645.126 320.149 644.982 319.541" stroke="black" stroke-width="3" stroke-linecap="round" stroke-linejoin="round"/>
<path d="M499.272 324.812C493.31 326.189 487.171 326.839 481.454 329.246C476.319 331.409 471.672 334.357 467.751 338.242C463.561 342.406 459.631 346.866 457.177 352.382C455.432 356.301 454.327 360.44 453.138 364.545C451.882 368.904 450.566 373.254 449.681 377.714C448.694 382.672 448.231 387.706 447.674 392.715C446.789 400.663 446.569 408.645 446.477 416.636C446.426 420.842 446.763 425.04 447.463 429.205" stroke="black" stroke-width="3" stroke-linecap="round" stroke-linejoin="round"/>
<path d="M483.486 352.078C481.968 353.311 482.044 355.279 481.766 356.859C480.695 362.822 478.857 368.616 478.165 374.673C477.491 380.543 477.137 386.422 476.791 392.318C476.42 398.678 476.698 405.03 477.036 411.374C477.331 416.788 477.82 422.185 478.224 427.591" stroke="black" stroke-width="3" stroke-linecap="round" stroke-linejoin="round"/>
<path d="M639.316 321.974C637.098 320.884 635.041 322.016 633.059 322.624C622.561 325.876 615.225 333.064 609.356 342.035C608.74 342.981 608.285 343.96 608.15 345.084" stroke="black" stroke-width="3" stroke-linecap="round" stroke-linejoin="round"/>
<path d="M542.783 342.246C541.762 342.837 540.725 342.837 539.536 342.71C537.124 342.457 534.687 342.626 532.251 342.491C526.323 342.153 520.369 342.432 514.441 341.874C512.072 341.655 510.756 342.989 510.807 345.295C510.908 349.755 511.988 354.088 512.561 358.48C513.758 367.67 516.465 376.649 516.33 386.042C516.28 389.387 516.389 392.664 515.715 395.984C515.251 398.29 515.538 400.781 516.111 403.054C517.604 408.933 517.916 414.963 518.852 420.91C519.577 425.547 520.361 430.184 520.521 434.889C520.538 435.362 520.774 435.835 520.909 436.308" stroke="black" stroke-width="3" stroke-linecap="round" stroke-linejoin="round"/>
<path d="M670.482 341.232C675.491 341.308 679.707 339.382 683.67 336.418C686.428 334.357 689.438 332.735 692.912 331.806C697.465 330.589 701.252 327.574 703.748 323.714C706.547 319.381 705.367 312.623 699.228 309.566C696.032 307.978 692.684 308.239 689.75 309.337C686.284 310.638 682.675 311.863 679.58 314.059C678.931 314.524 678.079 314.845 678.164 315.884" stroke="black" stroke-width="3" stroke-linecap="round" stroke-linejoin="round"/>
<path d="M715.41 339.813C715.477 340.996 714.448 341.486 713.765 342.009C708.158 346.258 705.603 352.019 704.616 358.86C703.798 364.587 702.23 370.196 701.285 375.906C700.063 383.28 698.739 390.654 699.203 398.197C699.312 399.945 698.477 401.685 699.026 403.468" stroke="black" stroke-width="3" stroke-linecap="round" stroke-linejoin="round"/>
<path d="M749.004 414.617C749.746 415.673 749.611 416.881 749.611 418.063C749.611 419.415 749.577 420.775 750.825 421.712" stroke="black" stroke-width="3" stroke-linecap="round" stroke-linejoin="round"/>
<path d="M530.235 268.253C527.385 272.983 528.431 277.738 530.261 282.435C531.23 284.918 533.507 284.859 535.699 284.884C538.001 284.918 539.747 283.938 540.523 281.818C542.125 277.443 542.142 273.067 540.405 268.633C539.325 265.879 537.242 265.111 534.696 265.034C533.237 264.992 531.61 264.164 530.387 265.981C529.839 266.8 530.024 267.34 530.244 268.05" stroke="black" stroke-width="3" stroke-linecap="round" stroke-linejoin="round"/>
<path d="M750.825 421.712C758.785 423.005 756.905 434.154 754.004 437.06C752.605 438.454 750.539 439.163 748.397 439.155C746.322 439.146 745.909 439.535 745.564 441.579C745.226 443.598 744.956 445.608 744.956 447.661C744.956 450.288 743.759 452.095 741.322 453.151C738.337 454.443 735.192 454.849 732.004 455.178C730.115 455.373 728.227 455.364 726.338 455.364C721.607 455.364 719.617 453.869 718.024 449.291C717.593 448.066 717.273 446.748 716.219 445.836" stroke="black" stroke-width="3" stroke-linecap="round" stroke-linejoin="round"/>
<path d="M666.839 267.239C665.372 267.019 664.192 266.301 662.969 265.457C657.555 261.723 651.627 259.223 644.983 258.733C641.146 258.446 637.318 257.635 633.447 258.514C631.828 258.885 630.386 259.705 628.801 260.161C628.042 260.372 627.831 261.2 627.621 261.782C625.664 267.155 624.256 272.687 623.792 278.397C623.657 280.053 623.986 281.776 624.307 283.465C624.863 286.354 625.403 289.243 625.825 292.165C626.862 299.37 631.196 303.889 638.11 305.95C640.244 306.584 642.411 307.082 644.747 307.682C645.354 311.196 645.177 314.87 645.168 318.527C645.168 318.832 645.101 319.288 644.578 319.338C642.757 319.516 641.795 321.256 640.134 321.805C638.895 322.21 639.291 323.739 638.557 324.651C636.458 327.278 635.387 330.378 634.83 333.723C634.012 338.639 634.291 343.268 638.153 346.858C639.67 348.277 641.348 349.679 643.769 349.823C645.455 349.915 646.973 349.941 648.204 348.716C648.676 348.251 649.14 348.378 649.646 348.336" stroke="black" stroke-width="3" stroke-linecap="round" stroke-linejoin="round"/>
<path d="M679.184 241.291C679.707 243.056 681.056 244.298 682.262 245.506C684.682 247.913 686.664 250.65 687.397 253.885C688.603 259.215 689.193 264.637 687.718 270.094C687.17 272.121 685.728 273.566 684.851 275.356" stroke="black" stroke-width="3" stroke-linecap="round" stroke-linejoin="round"/>
<path d="M658.542 415.023C656.83 414.026 655.169 414.744 653.718 415.487C652.428 416.146 651.214 417.176 650.295 418.308C649.392 419.415 648.566 420.589 649.73 422.388C650.573 423.689 651.231 425.201 651.99 426.611C652.782 428.064 653.853 428.613 655.295 428.799C661.569 429.618 667.842 430.396 674.116 431.249C677.363 431.688 677.337 431.747 677.363 434.889C677.388 437.297 677.287 439.645 676.604 442.001C676.165 443.522 675.195 444.121 673.914 444.181C670.06 444.358 666.215 444.147 662.378 443.623C658.626 443.108 654.857 442.669 651.045 442.795C647.124 442.93 643.313 442.17 639.518 441.359C636.297 440.667 633.051 440.793 629.796 440.768C628.286 440.76 626.769 440.912 625.327 440.194C624.947 439.999 624.298 439.67 623.944 439.983C622.333 441.435 620.689 440.363 619.061 440.16C612.813 439.383 606.581 438.496 600.24 438.707C595.189 438.876 590.113 438.952 585.062 438.699C575.281 438.2 565.508 438.04 555.718 437.846C547.825 437.694 539.932 436.959 532.04 436.452C528.793 436.241 525.589 435.666 522.317 436.097C521.735 436.173 521.153 436.131 520.799 436.714" stroke="black" stroke-width="3" stroke-linecap="round" stroke-linejoin="round"/>
<path d="M536.914 232.168C535.7 232.261 534.721 231.619 533.895 230.927C528.692 226.518 523.102 227.176 517.494 229.769C511.397 232.591 506.144 236.654 501.489 241.494C493.479 249.814 489.389 259.772 488.689 271.293C488.284 277.873 489.204 284.192 491.388 290.349C492.973 294.834 495.528 298.804 498.479 302.496C499.516 303.796 500.376 305.283 501.886 306.187C502.181 306.364 502.434 306.33 502.712 306.364" stroke="black" stroke-width="3" stroke-linecap="round" stroke-linejoin="round"/>
<path d="M669.673 270.888C668.931 269.874 668.146 268.886 667.48 267.83C667.311 267.552 666.865 267.307 667.042 266.834C667.826 264.781 666.342 263.573 665.195 262.399C661.746 258.852 657.656 256.022 653.913 252.821C648.491 248.183 642.217 244.948 636.036 241.586C634.645 240.826 632.806 240.725 631.221 240.1C627.005 238.427 622.932 236.383 618.277 235.978C615.394 235.724 612.577 235.86 609.778 236.451C608.327 236.755 607.391 237.693 606.717 239.061C604.988 242.583 605.739 247.271 607.906 250.058C611.953 255.253 617.51 258.497 622.772 262.12C623.927 262.914 624.796 264.257 626.372 264.409" stroke="black" stroke-width="3" stroke-linecap="round" stroke-linejoin="round"/>
<path d="M535.818 280.855C536.987 280.855 537.934 279.399 537.934 277.603C537.934 275.807 536.987 274.351 535.818 274.351C534.649 274.351 533.701 275.807 533.701 277.603C533.701 279.399 534.649 280.855 535.818 280.855Z" fill="#231815"/>
<path d="M554.335 281.109C555.504 281.109 556.451 279.653 556.451 277.857C556.451 276.061 555.504 274.605 554.335 274.605C553.166 274.605 552.218 276.061 552.218 277.857C552.218 279.653 553.166 281.109 554.335 281.109Z" fill="#231815"/>
<path d="M633.717 276.632C634.886 276.632 635.833 275.176 635.833 273.38C635.833 271.584 634.886 270.128 633.717 270.128C632.548 270.128 631.6 271.584 631.6 273.38C631.6 275.176 632.548 276.632 633.717 276.632Z" fill="#231815"/>
<path d="M644.535 276.885C645.704 276.885 646.652 275.429 646.652 273.633C646.652 271.837 645.704 270.381 644.535 270.381C643.367 270.381 642.419 271.837 642.419 273.633C642.419 275.429 643.367 276.885 644.535 276.885Z" fill="#231815"/>
<path d="M744.554 414.03L744.556 414.03C745.068 414.272 745.68 414.561 746.162 414.962C746.665 415.381 747.051 415.941 747.036 416.717M744.554 414.03L738.548 414.448M744.554 414.03L744.545 414.021L744.505 414.002C743.142 413.366 741.694 412.946 740.215 412.706L740.215 412.706C737.078 412.202 733.897 412.391 730.78 412.73C727.336 413.103 723.917 413.722 720.572 414.629L720.637 414.87L720.572 414.629C720.493 414.651 720.412 414.672 720.329 414.695C719.199 414.998 717.754 415.386 716.64 416.069C716.037 416.438 715.514 416.904 715.189 417.506C714.862 418.114 714.747 418.839 714.929 419.702M744.554 414.03L740.175 412.953M747.036 416.717L746.786 416.712L747.036 416.716C747.036 416.716 747.036 416.716 747.036 416.717ZM747.036 416.717C747.031 417.059 746.891 417.332 746.675 417.515C746.464 417.695 746.192 417.779 745.93 417.779C745.668 417.779 745.397 417.695 745.189 417.513C744.976 417.327 744.845 417.051 744.85 416.709M744.85 416.709L745.1 416.712L744.85 416.708C744.85 416.708 744.85 416.708 744.85 416.709ZM744.85 416.709C744.85 416.707 744.849 416.679 744.801 416.62C744.754 416.562 744.677 416.494 744.567 416.418C744.349 416.268 744.043 416.116 743.707 415.974C743.104 415.719 742.449 415.514 742.137 415.416C742.103 415.405 742.073 415.396 742.048 415.388L742.123 415.149L742.048 415.388C740.912 415.03 739.724 414.806 738.525 414.697M738.525 414.697C738.526 414.697 738.526 414.697 738.526 414.697L738.548 414.448M738.525 414.697C738.525 414.697 738.525 414.697 738.525 414.697L738.548 414.448M738.525 414.697C736.171 414.488 733.803 414.63 731.439 414.866L731.438 414.866C728.768 415.127 726.114 415.564 723.501 416.162L723.5 416.162C722.191 416.456 720.89 416.801 719.605 417.188L719.603 417.188L719.603 417.188C719.555 417.202 719.505 417.217 719.453 417.232C718.951 417.377 718.309 417.562 717.799 417.858C717.521 418.02 717.302 418.204 717.168 418.414C717.04 418.616 716.983 418.854 717.046 419.153L717.046 419.153C717.188 419.845 716.719 420.329 716.218 420.467C715.966 420.536 715.683 420.527 715.438 420.403C715.186 420.275 714.998 420.038 714.929 419.702M738.548 414.448C736.17 414.237 733.784 414.381 731.414 414.617C728.733 414.879 726.068 415.318 723.446 415.918C722.13 416.214 720.823 416.56 719.533 416.948C719.485 416.962 719.435 416.977 719.382 416.992C718.334 417.294 716.512 417.82 716.801 419.204C717.02 420.268 715.393 420.716 715.173 419.651M714.929 419.702C714.929 419.703 714.929 419.703 714.929 419.703L715.173 419.651M714.929 419.702C714.929 419.702 714.929 419.702 714.929 419.702L715.173 419.651M715.173 419.651C714.513 416.515 718.046 415.566 720.4 414.934C720.481 414.913 720.56 414.892 720.638 414.871C723.968 413.967 727.375 413.35 730.807 412.978C733.918 412.641 737.072 412.455 740.175 412.953M740.175 412.953C741.634 413.19 743.059 413.604 744.4 414.229L740.175 412.953Z" fill="black" stroke="black" stroke-width="0.5"/>
<g clip-path="url(#clip0_303_14)">
<path d="M518.929 429.147C512.116 429.275 505.614 428.454 499.05 427.843C484.679 426.493 470.308 426.803 455.792 427.569C443.45 428.217 431.026 428.499 418.539 428.636C404.81 428.791 390.998 429.184 377.269 429.786C365.88 430.287 354.491 430.634 342.978 430.36C339.043 430.269 334.819 431.19 330.574 431.117C316.638 430.889 302.764 430.26 288.849 429.932C265.76 429.393 242.795 428.791 219.748 430.205C203.782 431.19 187.651 431.564 171.561 432.039C148.535 432.723 125.529 433.024 102.481 432.832C92.873 432.75 83.2647 432.577 73.6565 432.869C54.0465 433.462 34.54 432.741 15.0129 432.03C10.7472 431.875 6.39858 432.139 2.09143 432.212" stroke="black" stroke-width="2" stroke-linecap="round" stroke-linejoin="round"/>
</g>
<g clip-path="url(#clip1_303_14)">
<path d="M748.424 430.893C751.456 432.955 755.527 432.402 759.001 432.098C770.759 431.063 782.49 431.313 794.205 432.009C800.583 432.393 806.975 432.634 813.352 432.768C829.98 433.116 846.579 434.063 863.234 433.661C872.359 433.446 881.456 433.339 890.567 433.857C901.927 434.5 913.116 435.866 924.391 436.848C937.203 437.973 950.029 438.929 962.984 439.268C989.405 439.964 1015.83 438.92 1042.25 439.179C1052.65 439.277 1062.93 437.741 1073.32 437.259C1076.74 437.098 1080.19 436.804 1083.59 436.732C1094.51 436.5 1105.45 436.321 1116.39 436.518C1127.78 436.723 1139.16 437.705 1150.55 437.464C1162.91 437.196 1175.17 437.545 1187.45 438.161C1189.19 438.25 1190.81 438.741 1192.58 438.607C1192.58 439.107 1192.58 439.607 1192.58 440.107" stroke="black" stroke-width="3" stroke-linecap="round" stroke-linejoin="round"/>
</g>
<path d="M789.87 355.203C789.353 354.998 788.758 354.836 788.297 355.092C787.731 355.405 786.938 355.878 787.282 356.657C787.556 357.28 788.048 358.035 788.919 358.012C789.66 357.99 790.052 357.477 790.258 356.751C790.422 356.176 790.089 355.787 789.964 355.316" stroke="black" stroke-width="3" stroke-linecap="round" stroke-linejoin="round"/>
<path d="M796.743 359.027C795.007 358.83 794.123 359.295 793.901 360.48C793.804 361.006 793.801 361.554 794.302 361.795C794.854 362.062 795.53 362.302 796.09 361.77C796.856 361.053 797.436 360.251 796.83 359.131" stroke="black" stroke-width="3" stroke-linecap="round" stroke-linejoin="round"/>
<path d="M792.476 319.658C789.879 318.209 787.168 317.148 784.124 317.257C781.372 317.359 777.866 320.504 778.268 322.74C778.778 325.554 780.073 327.986 782.979 329.06C783.44 329.227 783.804 329.497 784.216 329.706" stroke="black" stroke-width="3" stroke-linecap="round" stroke-linejoin="round"/>
<path d="M785.591 328.929C783.44 330.218 783.107 332.601 782.878 334.612C782.241 340.284 780.519 345.797 780.537 351.565C780.544 354.309 779.584 356.941 778.72 359.515C778.091 361.387 778.704 362.525 779.943 363.89C784.069 368.435 789.337 370.832 795.018 372.668C797.079 373.337 798.573 372.546 799.818 371.311C802.369 368.774 804.659 365.971 807.265 363.473C810.641 360.237 813.707 356.692 817.238 353.603C818.455 352.536 819.636 352.453 821.018 353.053C823.105 353.954 825.185 354.876 827.294 355.712C829.681 356.661 831.483 356.441 833.167 354.831C834.399 353.652 834.375 351.99 833.26 350.536C832.164 349.104 830.687 348.115 829.244 347.059C830.373 344.692 832.176 342.812 833.714 340.733C836.238 337.32 838.438 333.702 840.284 329.882C840.57 329.289 840.672 328.612 840.692 327.92C840.766 325.392 839.649 324.439 837.144 324.772C835.289 325.021 833.712 325.813 832.264 326.88C828.692 329.497 825.161 332.172 821.995 335.293C821.432 335.85 820.894 335.655 820.27 335.449C819.329 335.139 818.417 334.644 817.721 334.06C814.471 331.315 810.575 329.642 807.069 327.327C806.067 326.669 805.075 326.003 804.236 325.101C803.364 324.157 802.944 323.204 803.539 322.007C805.78 317.502 807.062 312.611 809.17 308.049C809.423 307.507 809.506 306.9 809.557 306.281C809.653 305.102 809.665 303.932 808.494 303.301C807.187 302.599 805.779 302.327 804.406 303.217C800.98 305.42 798.548 308.54 796.418 311.938C795.076 314.077 793.77 316.231 792.735 318.535C792.584 318.868 792.305 319.048 792.064 319.274" stroke="black" stroke-width="3" stroke-linecap="round" stroke-linejoin="round"/>
<path d="M425.403 261.545C425.291 262.234 425.497 262.859 425.65 263.53C426.408 266.823 426.732 270.181 426.502 273.556C426.402 274.999 425.456 276.153 424.544 277.225C423.286 278.71 421.651 279.729 419.881 280.453C418.634 280.966 417.594 281.573 416.594 282.55C415.012 284.1 412.872 284.936 410.849 285.831C409.108 286.603 407.438 287.475 405.762 288.364C404.569 288.994 403.31 289.472 402.393 290.52" stroke="black" stroke-width="3" stroke-linecap="round" stroke-linejoin="round"/>
<path d="M406.35 267.553C406.133 267.712 405.827 267.612 405.886 268.195C406.327 272.378 407.867 275.924 411.437 278.362C412.872 279.346 414.283 280.383 416.088 280.654C416.488 280.713 416.847 281.101 417.223 281.337" stroke="black" stroke-width="3" stroke-linecap="round" stroke-linejoin="round"/>
<path d="M394 247.647C394.476 248.165 394.772 248.745 395.043 249.392C396.418 252.641 398.565 255.495 400.513 258.456C401.569 260.055 402.214 261.873 403.541 263.331C403.987 263.821 404.3 264.423 405 264.676" stroke="black" stroke-width="3" stroke-linecap="round" stroke-linejoin="round"/>
<path d="M413.548 261.121C412.525 261.61 411.401 261.834 410.425 262.505C409.114 263.407 408.591 264.803 409.155 266.358C410.043 268.808 410.925 271.158 412.942 273.043C414.994 274.952 417.076 274.816 419.487 274.162C421.839 273.52 422.468 271.671 422.662 269.739C422.909 267.312 422.492 264.909 420.751 262.953C420.057 262.176 419.164 261.71 418.199 261.575C416.706 261.363 415.224 260.962 413.689 261.115" stroke="black" stroke-width="3" stroke-linecap="round" stroke-linejoin="round"/>
<path d="M444.173 270.451C442.02 269.792 440.068 268.643 438.134 267.571C434.482 265.551 430.883 263.354 427.043 261.828C424.832 260.95 423.474 259.272 421.61 258.129C416.441 254.966 411.39 256.267 407.497 259.861C406.962 260.349 406.821 261.115 406.621 261.822C406.368 262.741 406.239 263.695 405.662 264.526C404.927 265.586 405.874 266.587 405.927 267.624" stroke="black" stroke-width="3" stroke-linecap="round" stroke-linejoin="round"/>
<path d="M444.314 270.451C445.014 268.961 444.555 267.412 444.414 265.934C444.061 262.264 443.214 258.677 441.615 255.331C440.245 252.468 438.345 249.947 436.117 247.697C431.136 242.655 425.215 239.291 418.193 238.096C410.578 236.8 403.557 238.125 397.436 243.15C396.665 243.786 396.042 244.528 395.501 245.311C394.325 247.008 392.802 248.427 392.284 250.642C391.879 252.374 390.326 253.746 389.715 255.478C388.262 259.59 387.71 263.842 388.145 268.195C389.039 277.22 393.496 284.37 400.493 289.731C404.786 293.018 409.755 295.397 415.377 295.933C418.523 296.234 421.58 295.768 424.538 295.003C431.506 293.194 437.51 289.813 441.65 283.622C443.338 281.101 444.19 278.362 444.426 275.405C444.549 273.815 444.967 272.201 444.449 270.599" stroke="black" stroke-width="3" stroke-linecap="round" stroke-linejoin="round"/>
<path d="M762.567 270.031C762.664 270.335 762.297 270.564 762.803 270.986C765.267 273.042 767.036 275.701 768.713 278.411C769.218 279.221 769.144 280.176 769.236 281.167C767.611 281.98 766.3 283.291 765.09 284.678C764.347 285.53 763.571 286.228 762.462 286.503" stroke="black" stroke-width="3" stroke-linecap="round" stroke-linejoin="round"/>
<path d="M741.659 268.367C740.811 268.269 740.441 269 740.073 269.475C738.684 271.274 737.19 272.995 735.953 274.916C735.442 275.706 735.29 276.451 735.987 277.222C738.39 279.872 740.531 282.732 742.706 285.563C743.023 285.977 743.418 285.901 743.785 286.018" stroke="black" stroke-width="3" stroke-linecap="round" stroke-linejoin="round"/>
<path d="M753.442 271.472C752.214 274.177 750.98 276.881 749.769 279.59C749.655 279.839 749.662 280.145 749.614 280.424" stroke="black" stroke-width="3" stroke-linecap="round" stroke-linejoin="round"/>
<path d="M217.133 215.843C219.023 219.009 218.293 222.555 218.493 225.94C218.543 226.852 217.733 227.733 216.413 227.904C213.783 228.244 211.413 231.209 211.363 233.874C211.343 234.856 211.593 235.637 212.573 236.038C213.413 236.378 214.123 236.428 214.993 235.827C217.843 233.864 218.803 231.139 217.613 227.864" stroke="black" stroke-width="3" stroke-linecap="round" stroke-linejoin="round"/>
<path d="M201.293 231.47C201.833 234.755 200.863 236.639 198.163 237.21C197.053 237.44 195.813 237.38 195.063 236.268C194.413 235.296 194.843 234.245 195.323 233.413C196.613 231.169 197.963 230.699 200.813 231.229" stroke="black" stroke-width="3" stroke-linecap="round" stroke-linejoin="round"/>
<path d="M183.533 229.787C185.363 229.677 187.453 227.473 187.853 225.219C188.213 223.196 186.943 221.202 184.733 220.421C184.043 220.181 183.293 220.06 182.593 219.87C178.513 218.808 177.003 219.069 177.323 224.248C177.583 228.505 178.103 232.742 178.483 236.989C178.553 237.831 179.053 238.211 179.663 238.702C181.013 239.794 181.503 241.277 180.883 242.989C180.373 244.402 178.113 245.975 176.573 245.834C175.773 245.764 174.873 245.714 174.373 244.692C173.863 243.651 173.973 242.449 174.483 241.848C175.693 240.445 176.813 238.812 178.733 238.181" stroke="black" stroke-width="3" stroke-linecap="round" stroke-linejoin="round"/>
<path d="M185.693 325.229C185.683 324.959 185.653 324.518 185.933 324.538C188.533 324.688 190.393 322.865 192.643 322.084C198.143 320.191 201.963 316.154 203.303 310.775C205.393 302.431 204.663 293.996 201.003 286.073C199.563 282.937 197.513 280.032 194.773 277.929C189.683 274.012 183.993 273.632 178.003 275.705C174.473 276.927 171.293 278.78 168.173 280.774" stroke="black" stroke-width="3" stroke-linecap="round" stroke-linejoin="round"/>
<path d="M202.253 217.526C207.283 217.406 212.253 216.835 217.283 215.503C218.053 212.337 218.173 209.072 217.403 205.746C217.103 204.424 216.373 204.103 215.213 204.063C211.083 203.913 207.163 205.055 203.213 206.017C201.913 206.327 201.393 207.259 201.513 208.641C201.773 211.516 201.143 214.421 201.953 217.306C202.243 218.338 201.433 219.459 201.493 220.661C201.633 223.386 201.363 226.121 201.783 228.835C201.923 229.787 201.893 230.618 201.053 231.239" stroke="black" stroke-width="3" stroke-linecap="round" stroke-linejoin="round"/>
<path d="M175.853 276.426C173.613 270.957 172.203 264.997 166.973 261.281C162.073 257.805 156.653 256.512 150.653 256.883C146.553 257.144 142.493 257.374 138.663 258.897C127.403 263.384 118.773 270.486 115.893 282.927C115.333 285.352 115.213 287.906 116.083 290.37C116.193 290.681 116.143 291.131 116.343 291.312C119.843 294.387 119.733 298.915 120.823 302.891C123.643 313.149 125.883 323.556 129.243 333.664C129.643 334.866 130.163 336.028 130.483 337.26" stroke="black" stroke-width="3" stroke-linecap="round" stroke-linejoin="round"/>
<path d="M175.853 276.907C180.503 288.978 185.283 301.008 188.103 313.69C188.773 316.695 190.083 319.49 191.213 322.344" stroke="black" stroke-width="3" stroke-linecap="round" stroke-linejoin="round"/>
<path d="M126.173 289.649C123.253 290.16 120.333 290.651 117.773 292.293" stroke="black" stroke-width="3" stroke-linecap="round" stroke-linejoin="round"/>
<path d="M116.813 292.293C111.943 294.798 107.263 297.582 104.593 302.641C102.473 306.678 100.503 310.845 99.8331 315.383C99.2531 319.329 100.853 323.036 102.213 326.652C103.003 328.745 104.133 330.739 105.313 332.662C108.363 337.66 113.173 339.604 118.733 339.854C122.773 340.034 126.793 339.924 130.533 337.801C131.783 337.089 133.463 337.18 134.833 336.318C136.413 335.326 136.563 333.834 136.203 332.452C134.123 324.348 132.493 316.144 130.943 307.92C129.963 302.701 129.093 297.422 127.653 292.343C126.943 289.829 126.273 287.505 126.933 285.091C128.543 279.151 130.983 273.361 136.343 270.086C140.373 267.621 145.223 266.509 150.173 266.54C154.263 266.57 157.743 267.872 160.473 270.907C162.113 272.73 163.623 274.653 165.063 276.657C169.583 282.937 170.713 290.53 173.153 297.602C175.823 305.366 177.123 313.539 180.303 321.182C181.473 324.007 183.403 324.218 185.693 324.498" stroke="black" stroke-width="3" stroke-linecap="round" stroke-linejoin="round"/>
<path d="M231.773 173.531C228.993 174.062 226.243 174.363 223.373 174.323C215.133 174.202 206.893 174.283 198.653 174.543C193.033 174.723 187.443 175.535 181.843 176.096C176.753 176.597 171.603 176.757 166.493 177.157C156.263 177.949 146.023 178.269 135.773 178.55C131.213 178.67 126.653 178.78 122.093 179.041C114.903 179.451 107.693 179.201 100.493 179.351C97.693 179.411 94.893 179.481 92.093 179.562C89.063 179.642 86.263 182.186 85.593 185.071C83.803 192.834 83.343 200.677 83.083 208.631C82.773 217.957 83.423 227.233 83.533 236.518C83.663 247.096 84.583 257.674 84.853 268.252C85.423 290.53 84.923 312.808 85.183 335.086C85.283 343.661 85.083 352.245 85.423 360.81C85.723 368.242 86.153 375.695 88.213 382.937C89.433 387.225 89.313 387.245 93.763 387.265C104.013 387.305 114.243 386.874 124.483 386.504C133.463 386.173 142.413 385.291 151.373 384.47C155.573 384.089 159.843 383.969 164.083 383.819C170.653 383.589 177.223 383.288 183.773 382.497C188.783 381.896 193.843 381.806 198.883 381.475C207.203 380.934 215.533 380.774 223.853 380.113C227.773 379.802 231.693 379.462 235.603 379.051C238.333 378.76 238.773 377.969 238.773 375.946C238.753 364.887 239.113 353.828 238.903 342.769C238.673 330.508 238.323 318.247 237.953 305.987C237.723 298.374 237.803 290.761 237.793 283.148C237.783 275.024 236.803 266.96 236.363 258.866C236.163 255.27 236.033 251.664 236.063 248.048C236.123 240.275 235.363 232.512 235.603 224.728C235.783 218.959 236.173 213.179 236.023 207.419C235.843 200.046 235.503 192.674 235.613 185.301C235.643 183.378 235.743 181.455 235.853 179.532C236.023 176.587 234.693 174.623 232.003 173.521" stroke="black" stroke-width="3" stroke-linecap="round" stroke-linejoin="round"/>
<path d="M382.103 345.493C380.534 341.631 378.655 338.001 377.537 334.039C376.77 331.338 377.132 329.621 380.217 328.984C381.426 328.732 382.499 327.837 383.641 327.239C384.504 326.786 385.477 326.404 385.984 327.569C386.426 328.59 387.195 330.001 385.616 330.65C383.697 331.44 384.269 332.516 384.75 333.898C386.695 339.455 388.834 344.931 391.314 350.265C392.044 351.835 392.23 352.922 390.353 353.803C388.314 354.759 386.989 357.43 384.594 357.224C382.386 357.036 381.336 354.451 379.494 353.237C377.716 352.065 376.186 350.503 374.169 349.395C375.912 352.638 377.475 355.99 379.462 359.078C380.651 360.926 380.293 361.566 378.464 362.272C376.509 363.028 374.469 363.572 372.632 364.694C371.26 365.529 370.179 364.656 369.45 363.444C368.768 362.308 368.068 361.027 369.662 360.119C371.375 359.142 370.892 358.155 370.21 356.721C368.143 352.364 365.204 348.589 362.509 344.648C362.035 343.955 361.586 343.296 360.519 343.603C358.414 344.213 358.269 342.482 358.027 341.223C357.7 339.507 358.944 339.839 360.092 339.685C362.343 339.379 363.952 337.622 365.733 336.387C367.823 334.939 369.352 335.349 370.454 337.333C373.039 341.978 378.081 342.923 382.103 345.493Z" fill="black"/>
<path d="M402.665 352.379C403.227 353.425 403.676 354.514 404.034 355.657C404.271 356.431 404.087 356.84 403.522 357.395C402.129 358.767 400.382 359.578 398.732 360.461C392.889 363.582 387.488 367.383 382.021 371.083C380.112 372.369 378.112 373.507 376.019 374.462C375.323 374.784 374.615 375.082 373.894 375.358C372.477 375.931 371.042 376.46 369.595 376.924L347.883 336.518C348.94 335.351 350.481 335.153 351.805 334.517C354.908 333.017 357.441 330.654 360.229 328.68C363.881 326.096 367.689 323.75 371.331 321.16C373.534 319.602 375.712 317.998 377.992 316.549C378.527 316.206 378.664 315.452 379.475 315.301C380.902 315.033 382.051 314.98 383.102 316.371C384.28 317.932 385.504 319.456 386.456 321.162C389.492 326.602 392.129 332.24 394.738 337.893C397.046 342.908 400.041 347.541 402.665 352.379Z" stroke="black" stroke-width="3" stroke-linecap="round" stroke-linejoin="round"/>
<path d="M325.257 332.689C325.22 332.608 325.197 332.566 325.197 332.566C325.467 331.275 326.625 330.86 327.56 330.32C331.16 328.217 334.505 325.728 338.081 323.591C341.691 321.441 345.442 319.574 349.21 317.728C351.845 316.432 354.436 314.987 356.303 312.614C356.829 311.955 357.315 311.752 358.107 311.952C361.672 312.829 365.302 313.395 368.921 313.974C371.513 314.391 374.174 314.25 376.763 314.782C377.454 314.929 378.216 314.906 378.644 315.636" stroke="black" stroke-width="3" stroke-linecap="round" stroke-linejoin="round"/>
<path d="M347.883 336.518L369.595 376.924C363.809 378.778 357.82 379.614 351.846 378.527C350.778 378.333 349.708 378.081 348.629 377.767C342.079 369.961 338.526 361.136 334.107 352.348C333.649 351.473 333.207 350.595 332.782 349.715C330.216 344.42 328.135 338.997 325.7 333.602C325.487 333.162 325.337 332.849 325.257 332.689C325.651 332.757 326.085 332.834 326.549 332.912C332.056 333.594 337.948 334.594 343.931 335.85C345.116 336.053 346.104 336.218 346.796 336.334C347.489 336.45 347.883 336.518 347.883 336.518Z" fill="black" stroke="black" stroke-width="3" stroke-linecap="round" stroke-linejoin="round"/>
<path d="M1072.27 285.722C1074.01 287.855 1074.8 290.46 1075.96 292.894C1076.63 294.296 1075.91 295.488 1076.25 296.811C1076.67 298.483 1076.47 300.316 1077.83 301.949C1080.4 300.006 1082.44 297.412 1084.27 294.627" stroke="black" stroke-width="3" stroke-linecap="round" stroke-linejoin="round"/>
<path d="M1036.51 211.435C1038.85 210.003 1041.68 209.782 1044 208.14C1045.9 206.797 1047.38 205.395 1047.02 203.031C1046.61 200.346 1044.85 198.523 1042.26 197.762C1037.03 196.229 1032.66 198.623 1028.88 201.649C1021.44 207.619 1016.84 215.462 1014.85 224.888C1014.01 228.875 1013.88 232.952 1013.05 236.929C1012.82 238 1013.42 239.553 1014.46 239.954C1016.14 240.605 1018.02 240.505 1019.7 239.553C1019.98 239.393 1020.17 239.072 1020.43 238.842C1021.85 237.59 1020.96 235.286 1021.78 234.424C1022.9 233.242 1024.77 232.772 1025.49 230.918C1026.23 229.005 1026.12 227.022 1025.85 225.149C1025.6 223.416 1026.04 222.905 1027.62 222.714C1031.46 222.244 1034.73 220.681 1036.72 217.195C1038.08 214.811 1036.68 211.325 1034.34 210.954" stroke="black" stroke-width="3" stroke-linecap="round" stroke-linejoin="round"/>
<path d="M1108.51 314.09C1105.93 313.359 1103.63 312.016 1101.31 310.734C1097.24 308.48 1092.85 307.058 1088.36 305.906C1087.6 305.716 1086.82 305.485 1086.2 304.954" stroke="black" stroke-width="3" stroke-linecap="round" stroke-linejoin="round"/>
<path d="M1003.39 222.494C1004.49 222.945 1005.72 223.215 1006.72 223.756C1009.4 225.209 1009.79 228.034 1008.26 230.948C1007.91 231.62 1006.97 232.1 1007.23 233.072" stroke="black" stroke-width="3" stroke-linecap="round" stroke-linejoin="round"/>
<path d="M980.591 228.745C980.571 229.947 980.361 231.179 980.411 232.351C980.561 235.767 981.051 239.172 983.721 241.717C984.591 242.548 985.771 242.138 986.831 242.208" stroke="black" stroke-width="3" stroke-linecap="round" stroke-linejoin="round"/>
<path d="M1012.75 291.972C1009.34 292.794 1005.96 294.156 1002.43 292.453" stroke="black" stroke-width="3" stroke-linecap="round" stroke-linejoin="round"/>
<path d="M1072.27 286.443C1069.99 287.585 1069.95 289.989 1069.16 291.972C1068.67 293.204 1068.51 294.597 1067.47 295.578" stroke="black" stroke-width="3" stroke-linecap="round" stroke-linejoin="round"/>
<path d="M1010.83 243.41C1008.61 246.425 1008.65 249.57 1010.36 252.786C1011.61 255.13 1013.98 255.781 1016.09 254.198C1017.65 253.026 1019.63 253.797 1021.28 252.655C1022.18 253.587 1022.6 254.719 1023.14 255.881C1024.44 258.686 1026.04 259.227 1028.85 257.113C1030.32 256.011 1030.77 253.898 1032.69 253.256" stroke="black" stroke-width="3" stroke-linecap="round" stroke-linejoin="round"/>
<path d="M1012.51 267.691C1012.18 267.24 1011.57 267.32 1011.33 267.481C1008.99 269.083 1006.54 268.182 1004.11 267.931" stroke="black" stroke-width="3" stroke-linecap="round" stroke-linejoin="round"/>
<path d="M999.311 306.156C1001.55 307.038 1003.79 307.909 1006.03 308.801C1008.56 309.803 1010.97 309.963 1013.24 308.1C1013.95 307.509 1014.83 307.118 1015.63 306.637" stroke="black" stroke-width="3" stroke-linecap="round" stroke-linejoin="round"/>
<path d="M1002.91 251.824C1000.14 252.235 997.771 254.318 997.421 256.873C997.241 258.185 997.231 259.737 998.841 260.188C1000.16 260.559 1001.64 261.08 1002.93 259.778C1003.67 259.036 1004.3 258.225 1004.82 257.343C1006.01 255.33 1005.4 253.417 1003.15 251.824" stroke="black" stroke-width="3" stroke-linecap="round" stroke-linejoin="round"/>
<path d="M1076.59 293.415C1077.55 293.254 1078.53 293.174 1079.47 292.914C1082.37 292.113 1084.43 294.026 1086.36 295.438C1088.17 296.77 1087.14 299.225 1086.85 301.098C1086.2 305.235 1083.83 308.54 1081.19 311.716C1078.35 315.132 1076.63 319.359 1073.72 322.745C1072.68 323.947 1071.72 325.229 1070.59 326.341C1064.59 332.271 1059.49 339.002 1052.75 344.331C1047.55 348.438 1042.13 351.834 1036.28 354.719C1031.65 356.993 1026.58 357.814 1021.63 359.016C1016.35 360.298 1011.14 361.881 1005.8 362.913C1003.46 363.364 1001.26 363.203 999.331 361.681C998.861 361.31 998.341 361.37 997.891 361.18C996.381 360.569 995.341 359.277 995.901 357.113C996.841 353.527 999.091 350.772 1001.28 348.028C1004.83 343.58 1008.32 339.052 1012.11 334.835C1017.41 328.935 1023.33 323.596 1029.57 318.678C1033.15 315.853 1036.22 312.477 1040.08 309.953C1047.24 305.265 1054.11 300.126 1062.2 297.031C1063.06 296.7 1063.74 296.209 1064.12 295.348" stroke="black" stroke-width="3" stroke-linecap="round" stroke-linejoin="round"/>
<path d="M1003.63 279.952C1006.27 281.394 1008.91 280.954 1011.55 279.952" stroke="black" stroke-width="3" stroke-linecap="round" stroke-linejoin="round"/>
<path d="M1000.51 243.169C997.101 236.428 994.611 229.165 989.021 223.666C986.021 220.711 982.521 219.229 978.431 218.888C975.961 218.678 973.981 219.749 973.201 222.274C972.291 225.219 971.421 228.224 971.701 231.389C971.851 233.082 972.451 234.424 973.851 235.506C975.091 236.468 976.031 236.478 977.261 235.506C978.021 234.905 978.701 233.974 979.871 234.024" stroke="black" stroke-width="3" stroke-linecap="round" stroke-linejoin="round"/>
<path d="M1032.91 250.862C1033.23 251.724 1032.32 252.505 1033.1 253.547C1035.2 256.352 1035.69 260.318 1039.17 262.142C1040.23 262.692 1041.25 262.412 1042.3 261.721C1043.75 260.779 1044.06 259.607 1043.6 258.075" stroke="black" stroke-width="3" stroke-linecap="round" stroke-linejoin="round"/>
<path d="M1005.55 233.072C1007.67 233.262 1009.29 234.885 1009.63 237.159C1009.91 239.002 1008.62 241.246 1006.74 241.667C1005.75 241.887 1005.05 242.318 1004.35 242.929" stroke="black" stroke-width="3" stroke-linecap="round" stroke-linejoin="round"/>
<path d="M1081.51 196.049C1081.81 197.051 1082.69 196.57 1083.3 196.79C1088.35 198.634 1090.2 205.866 1086.66 209.983C1082 215.392 1078.73 214.47 1073.25 211.395C1071.62 210.484 1071.35 207.398 1072.26 204.704C1073.58 200.827 1076.99 199.295 1080.18 197.492C1080.59 197.261 1080.98 197.011 1081.38 196.77" stroke="black" stroke-width="3" stroke-linecap="round" stroke-linejoin="round"/>
<path d="M1017.07 246.295C1019.65 244.171 1022.9 243.981 1025.96 243.5C1027.29 243.29 1028.63 242.939 1030.02 242.889C1039.3 242.498 1047.18 245.824 1054.28 251.564C1057.32 254.018 1060.24 256.552 1061.16 260.499C1061.83 263.384 1062.3 266.359 1061.71 269.384C1061.31 271.437 1060.16 272.469 1058.1 272.77C1053.72 273.411 1049.66 273.12 1046.84 269.123C1045.84 267.711 1045.65 265.948 1045.11 264.335C1044.71 263.163 1044.7 261.741 1043.46 260.96" stroke="black" stroke-width="3" stroke-linecap="round" stroke-linejoin="round"/>
<path d="M991.151 235.476C990.671 235.727 989.811 234.885 989.661 236.187C989.531 237.349 989.071 238.702 988.421 239.493C986.521 241.787 987.501 244.031 988.051 246.285C988.541 248.298 989.751 248.809 991.371 247.707C992.921 246.645 994.661 245.674 995.231 243.65" stroke="black" stroke-width="3" stroke-linecap="round" stroke-linejoin="round"/>
<path d="M1008.91 241.246C1009.96 242.378 1011.12 243.069 1012.72 243.51C1015.82 244.351 1018.29 246.765 1017.81 250.392C1017.68 251.333 1017.79 252.315 1017.79 253.276" stroke="black" stroke-width="3" stroke-linecap="round" stroke-linejoin="round"/>
<path d="M960.431 177.538C960.321 180.773 961.091 183.939 961.131 187.154C961.291 198.944 960.411 210.714 960.141 222.494C959.881 233.753 959.851 244.962 961.341 256.161C961.831 259.808 961.831 263.524 961.851 267.21C961.901 277.638 961.441 288.106 962.911 298.453C964.041 306.397 963.571 314.33 963.811 322.264C963.881 324.748 964.151 327.232 964.271 329.716C964.671 337.85 963.471 345.804 961.951 353.767C960.361 362.122 959.311 370.586 958.061 379C957.941 379.782 958.031 380.603 958.051 381.404C958.101 383.698 959.121 384.96 961.411 384.98C971.411 385.101 981.421 385.732 991.421 384.58C995.391 384.119 999.411 384.089 1003.41 384.079C1014.55 384.049 1025.65 383.197 1036.77 382.687C1043.89 382.356 1051.01 382.035 1058.12 381.605C1068.68 380.964 1079.24 381.254 1089.8 381.204C1093.88 381.184 1097.96 381.525 1102.04 381.635C1103.4 381.675 1104.76 381.505 1106.12 381.414C1107.48 381.324 1108.1 380.483 1107.77 379.261C1105.84 372.008 1107.02 364.816 1108.06 357.624C1108.42 355.13 1108.49 352.615 1108.21 350.171C1107.59 344.812 1108.77 339.583 1109.04 334.294C1109.35 328.284 1110.25 322.264 1109.4 316.274C1108.94 313.008 1109.6 309.853 1109.55 306.647C1109.46 299.956 1109.21 293.315 1108.07 286.683C1106.5 277.578 1106.75 268.422 1108.04 259.287C1108.46 256.332 1108.75 253.377 1108.76 250.392C1108.77 239.653 1108.63 228.915 1108.36 218.177C1108.19 211.375 1109.11 204.554 1108.7 197.752C1108.29 190.86 1108.48 183.939 1107.62 177.067C1107.36 174.963 1106.86 174.182 1104.66 174.633C1102.59 175.053 1100.47 174.503 1098.44 174.132C1094.28 173.381 1090.11 173.411 1085.95 173.751C1082.58 174.022 1079.23 173.932 1075.87 173.942C1069.23 173.962 1062.59 174.232 1055.95 174.382C1050.44 174.513 1044.9 173.861 1039.39 174.012C1029.06 174.302 1018.74 174.813 1008.43 175.344C996.911 175.935 985.441 177.528 973.871 177.327C970.971 177.277 968.081 177.327 965.221 176.626C963.091 176.105 961.071 177.147 958.991 177.327" stroke="black" stroke-width="3" stroke-linecap="round" stroke-linejoin="round"/>
<path d="M1000.99 289.087C997.991 288.306 995.161 289.548 992.371 290.139C983.791 291.962 975.961 295.889 968.121 299.685C966.741 300.357 965.651 301.589 964.031 301.829" stroke="black" stroke-width="3" stroke-linecap="round" stroke-linejoin="round"/>
<path d="M1002.19 222.855C1004.05 222.314 1003.74 220.27 1004.72 219.038C1006.2 217.195 1007.01 214.821 1007.49 212.397C1008.13 209.161 1007.34 207.819 1004.11 207.078C1003.53 206.948 1002.88 206.878 1002.43 206.377C1002.23 204.814 1003.1 203.822 1004.08 202.741C1005.87 200.757 1007.45 198.624 1007.72 195.799C1008.06 192.263 1005.67 190.069 1001.71 191.241C997.651 192.433 995.461 195.368 995.031 199.415C994.421 205.255 994.041 211.115 995.201 216.965C996.251 222.274 998.381 227.202 1000.57 232.08C1001.54 234.244 1002.65 236.358 1003.34 238.612C1003.75 239.974 1005.01 240.555 1005.55 241.727" stroke="black" stroke-width="3" stroke-linecap="round" stroke-linejoin="round"/>
<path d="M1002.43 260.719C1004.02 264.045 1003.39 267.581 1003.38 271.057C1003.38 273.861 1003.28 276.726 1003.12 279.451C1002.96 282.246 1002.56 285.291 1001.7 288.116C1001.6 288.456 1001.19 288.817 1001.26 289.067C1002.56 293.926 999.971 298.213 999.331 302.781C998.771 306.737 997.191 310.313 995.431 313.819C994.551 315.572 995.321 316.594 996.691 316.915C1004.72 318.758 1012.75 318.968 1020.7 316.394C1020.46 315.011 1019.93 313.96 1019.28 312.858C1017.27 309.452 1015.9 305.826 1015.33 301.829C1014.86 298.493 1014.74 295.017 1012.99 291.962C1014.13 289.678 1012.68 287.475 1012.78 285.231C1012.86 283.288 1011.67 281.244 1012.01 279.751C1012.56 277.307 1012.27 274.883 1012.68 272.479C1012.97 270.776 1012.46 268.643 1012.95 267.27C1013.76 265.016 1014.1 262.733 1014.67 260.469C1015.1 258.796 1015.43 257.133 1014.91 255.42" stroke="black" stroke-width="3" stroke-linecap="round" stroke-linejoin="round"/>
<path d="M1013.95 289.568C1023.59 287.294 1033.17 289.097 1042.75 290.089C1048.71 290.7 1054.66 291.592 1060.51 292.944C1061.76 293.234 1063.01 293.495 1063.9 294.597C1064.06 294.797 1064.43 295.017 1064.81 295.158C1065.76 295.518 1067.32 294.857 1067.63 296.079C1067.98 297.432 1067.92 298.984 1067.66 300.377C1067.32 302.22 1066.62 303.993 1067.22 305.916C1067.54 306.968 1066.86 307.529 1066.05 308.09C1060.36 312.016 1055.15 316.564 1049.7 320.791C1048.65 321.603 1047.77 322.554 1046.85 323.476C1036.65 333.783 1025.57 343.019 1013.73 351.373C1010.51 353.647 1006.89 355.17 1003.62 357.343C1001.94 358.455 1000.25 359.517 998.831 360.97" stroke="black" stroke-width="3" stroke-linecap="round" stroke-linejoin="round"/>
<path d="M423.164 155.464V140.616H424.716V155.464H423.164ZM417.58 146.04H419.948V140.84H421.468V155.16H419.948V147.496H417.58V146.04ZM416.044 143.24V144.04C416.044 145.128 415.932 146.168 415.724 147.176L419.084 152.392L417.82 153.272L415.164 149.144C414.636 150.632 413.836 152.04 412.812 153.432L411.596 152.488C413.548 149.896 414.572 147.352 414.572 144.04V143.24H412.124V141.784H418.588V143.24H416.044ZM428.576 148.424L428 147.048C431.584 145.784 433.216 144.328 433.216 142.728H428.8V141.32H439.04V142.728H434.816C434.816 143.32 434.704 143.864 434.448 144.392L439.84 147.08L439.136 148.424L433.6 145.64C432.608 146.696 430.96 147.624 428.576 148.424ZM426.944 149.848H440.896V151.304H434.72V155.64H433.136V151.304H426.944V149.848ZM453.814 146.904V148.504H459.99V149.96H446.038V148.504H452.23V146.904H451.878C449.35 146.904 447.67 145.784 447.67 143.832C447.67 141.896 449.35 140.776 451.878 140.776H454.166C456.694 140.776 458.358 141.896 458.358 143.832C458.358 145.784 456.694 146.904 454.166 146.904H453.814ZM449.27 143.848C449.27 144.872 450.31 145.512 452.15 145.512H453.894C455.734 145.512 456.774 144.872 456.774 143.848C456.774 142.792 455.734 142.168 453.894 142.168H452.15C450.31 142.168 449.27 142.792 449.27 143.848ZM447.894 151.16H449.494V153.976H458.518V155.464H447.894V151.16ZM468.986 149.72V152.888H475.162V154.36H461.21V152.888H467.402V149.72H462.922V141.528H464.522V144.248H471.866V141.528H473.466V149.72H468.986ZM471.866 145.688H464.522V148.28H471.866V145.688ZM489.101 148.712H487.517V140.616H489.101V148.712ZM479.933 148.2H477.341V141.32H484.701V142.744H478.957V146.792H480.205C481.901 146.792 484.029 146.6 485.917 146.312L486.109 147.688C484.317 147.992 482.045 148.2 479.933 148.2ZM485.757 155.624H482.525C480.365 155.624 478.973 154.344 478.973 152.552C478.973 150.776 480.365 149.496 482.525 149.496H485.757C487.933 149.496 489.309 150.776 489.309 152.552C489.309 154.344 487.933 155.624 485.757 155.624ZM482.781 154.184H485.517C486.989 154.184 487.709 153.496 487.709 152.552C487.709 151.608 486.989 150.92 485.517 150.92H482.781C481.309 150.92 480.573 151.608 480.573 152.552C480.573 153.496 481.309 154.184 482.781 154.184ZM506.595 152.248V140.616H508.195V155.464H506.595V153.704H502.451V152.248H506.595ZM500.339 147.944C498.115 147.944 496.339 146.872 496.339 144.68V144.44C496.339 142.232 498.115 141.176 500.339 141.176C502.563 141.176 504.323 142.232 504.323 144.44V144.68C504.323 146.872 502.563 147.944 500.339 147.944ZM497.939 144.472V144.648C497.939 145.896 498.963 146.552 500.339 146.552C501.715 146.552 502.739 145.896 502.739 144.648V144.472C502.739 143.208 501.715 142.568 500.339 142.568C498.963 142.568 497.939 143.208 497.939 144.472ZM505.347 148.984L505.523 150.408C504.147 150.6 502.531 150.744 500.995 150.824C500.883 152.328 500.739 153.864 500.515 155.576L498.947 155.4C499.139 153.736 499.299 152.328 499.411 150.888C498.979 150.904 498.563 150.904 498.163 150.904H495.699L495.619 149.448H498.307C500.131 149.448 503.027 149.272 505.347 148.984ZM522.039 155.464V140.616H523.591V155.464H522.039ZM516.631 146.504H518.823V140.84H520.343V155.16H518.823V147.96H516.167C515.319 150.12 513.879 152.04 511.991 153.72L510.855 152.552C512.567 151.096 513.815 149.416 514.583 147.656C513.495 147.768 512.199 147.832 511.207 147.848H510.983L510.903 146.392H511.127C512.183 146.376 513.895 146.312 515.111 146.2C515.367 145.272 515.495 144.344 515.495 143.416V143.24H511.207V141.784H517.063V143.096C517.063 144.296 516.919 145.432 516.631 146.504ZM538.539 155.464H536.939V140.616H538.539V155.464ZM530.331 153.528C528.155 153.528 526.379 152.12 526.379 148.552V146.296C526.379 142.728 528.155 141.32 530.331 141.32C532.475 141.32 534.251 142.728 534.251 146.296V148.552C534.251 152.12 532.475 153.528 530.331 153.528ZM530.331 152.072C531.643 152.072 532.667 151.112 532.667 148.536V146.312C532.667 143.72 531.643 142.776 530.331 142.776C529.019 142.776 527.979 143.72 527.979 146.312V148.536C527.979 151.112 529.019 152.072 530.331 152.072ZM553.711 151.736H552.127V147.032H549.215V145.736H552.127V144.008H549.215V142.712H552.127V140.616H553.711V151.736ZM549.087 149.496L545.375 146.328C544.655 147.576 543.567 148.68 542.079 149.72L541.167 148.504C543.695 146.728 544.831 144.776 544.831 142.36V141.176H546.399V142.36C546.399 143.272 546.271 144.12 546.015 144.904L550.031 148.312L549.087 149.496ZM545.487 150.808V154.008H554.335V155.464H543.903V150.808H545.487ZM566.323 148.424H568.643V149.88H557.635V148.424H559.955V143.064H557.635V141.608H568.643V143.064H566.323V148.424ZM564.771 143.064H561.507V148.424H564.771V143.064ZM556.163 154.36V152.888H570.115V154.36H556.163ZM579.111 150.104V152.888H585.287V154.36H571.335V152.888H577.527V150.104H573.047V145.144H581.991V143.048H572.967V141.608H583.591V146.552H574.647V148.696H583.895V150.104H579.111ZM597.002 143.56V143.224H588.058V141.768H598.602V143.128C598.602 145.4 598.266 148.328 597.786 150.984L596.218 150.712C596.682 148.168 597.002 145.208 597.002 143.56ZM586.506 154.36V152.888H600.458V154.36H586.506ZM613.118 143.88V140.616H614.638V148.952H613.118V145.304H611.262V148.952H609.79V140.76H611.262V143.88H613.118ZM608.622 146.888L608.798 148.216C607.566 148.456 606.334 148.584 604.414 148.584H602.174V144.232H606.43V142.712H602.174V141.32H607.902V145.576H603.646V147.208H604.702C606.19 147.208 607.326 147.08 608.622 146.888ZM614.638 155.464H604.734V149.88H614.638V155.464ZM613.038 151.288H606.318V154.04H613.038V151.288ZM628.836 148.632L624.852 146.232C624.084 147.288 622.852 148.152 621.156 148.936L620.484 147.608C622.836 146.472 624.084 145.208 624.212 143.592H620.996V142.184H624.228V140.44H625.78V142.184H629.092V143.592H625.78C625.748 144.072 625.668 144.504 625.524 144.92L629.588 147.288L628.836 148.632ZM632.66 143.864H634.948V145.32H632.66V148.952H631.06V140.616H632.66V143.864ZM632.66 155.464H623.14V149.864H632.66V155.464ZM631.06 151.288H624.74V154.04H631.06V151.288ZM647.832 146.2H650.136V147.656H647.832V155.464H646.232V140.616H647.832V146.2ZM641.912 143.24H636.488V141.784H643.512V143.096C643.512 147.304 641.144 150.952 637.144 153.688L636.152 152.424C639.912 149.96 641.912 146.552 641.912 143.416V143.24ZM666.174 155.464V140.616H667.758V155.464H666.174ZM661.598 143.24H656.03V141.784H663.198V143.096C663.198 147.304 660.798 150.968 656.67 153.688L655.71 152.424C659.55 149.96 661.598 146.552 661.598 143.416V143.24ZM681.33 143.736V140.616H682.93V148.344H681.33V145.144H678.69C678.418 147.048 676.77 147.992 674.754 147.992C672.53 147.992 670.77 146.872 670.77 144.584V144.344C670.77 142.04 672.53 140.936 674.754 140.936C676.754 140.936 678.386 141.848 678.674 143.736H681.33ZM677.138 144.568V144.36C677.138 143.016 676.114 142.344 674.754 142.344C673.394 142.344 672.37 143.016 672.37 144.36V144.568C672.37 145.896 673.394 146.584 674.754 146.584C676.114 146.584 677.138 145.896 677.138 144.568ZM674.706 150.824H681.33V149.112H682.93V155.464H673.106V149.112H674.706V150.824ZM674.706 152.232V154.04H681.33V152.232H674.706ZM693.557 145.544H691.173C688.693 145.544 687.013 144.824 687.013 143.096C687.013 141.4 688.693 140.696 691.173 140.696H693.557C696.037 140.696 697.701 141.4 697.701 143.096C697.701 144.824 696.037 145.544 693.557 145.544ZM691.477 144.28H693.253C695.109 144.28 696.117 143.896 696.117 143.112C696.117 142.328 695.109 141.976 693.253 141.976H691.477C689.621 141.976 688.613 142.328 688.613 143.112C688.613 143.912 689.621 144.28 691.477 144.28ZM699.333 147.912H685.381V146.616H699.333V147.912ZM698.021 155.544H687.093V151.672H696.037V150.408H687.013V149.144H697.637V152.936H688.693V154.232H698.021V155.544ZM712.251 149.416V152.888H718.427V154.36H704.475V152.888H710.667V149.416H706.187V141.608H716.731V149.416H712.251ZM715.131 143.064H707.787V147.976H715.131V143.064ZM730.767 148.328V140.616H732.367V148.328H730.767ZM728.463 148.328L724.287 145.784C723.503 146.856 722.255 147.784 720.527 148.632L719.807 147.32C722.431 145.976 723.695 144.6 723.727 142.728H720.399V141.32H728.623V142.728H725.279C725.279 143.368 725.167 143.96 724.959 144.504L729.199 146.984L728.463 148.328ZM724.127 150.824H730.767V149.112H732.367V155.464H722.543V149.112H724.127V150.824ZM724.127 152.232V154.04H730.767V152.232H724.127ZM740.003 141.896H743.539V143.192H734.851V141.896H738.387V140.44H740.003V141.896ZM746.707 144.024H749.011V145.48H746.707V148.84H745.107V140.616H746.707V144.024ZM742.883 146.312V146.504C742.883 148.088 741.267 148.904 739.219 148.904C737.155 148.904 735.539 148.088 735.539 146.504V146.312C735.539 144.712 737.155 143.912 739.219 143.912C741.267 143.912 742.883 144.712 742.883 146.312ZM737.107 146.344V146.472C737.107 147.192 738.019 147.608 739.219 147.608C740.403 147.608 741.331 147.192 741.331 146.472V146.344C741.331 145.656 740.403 145.192 739.219 145.192C738.019 145.192 737.107 145.656 737.107 146.344ZM738.787 151.112H745.107V149.608H746.707V155.464H737.187V149.608H738.787V151.112ZM738.787 152.504V154.056H745.107V152.504H738.787ZM762.711 155.464H761.127V140.616H762.711V155.464ZM753.527 153.048H750.951V141.704H752.567V151.592H753.799C755.495 151.592 757.607 151.416 759.511 151.112L759.703 152.52C757.895 152.84 755.655 153.048 753.527 153.048ZM777.051 146.2H779.355V147.656H777.051V155.464H775.451V140.616H777.051V146.2ZM767.131 151.592H768.363C769.995 151.592 772.075 151.416 773.931 151.128L774.123 152.552C772.347 152.84 770.155 153.048 768.075 153.048H765.515V141.704H772.731V143.176H767.131V151.592ZM781.791 154.84C781.183 154.84 780.687 154.36 780.687 153.752C780.687 153.144 781.183 152.648 781.791 152.648C782.399 152.648 782.879 153.144 782.879 153.752C782.879 154.36 782.399 154.84 781.791 154.84ZM471.946 170.512V170.224H462.682V168.768H473.53V170.064C473.53 172.208 473.226 174.992 472.762 177.52L471.194 177.264C471.642 174.832 471.946 172.048 471.946 170.512ZM469.642 174.08V179.888H475.162V181.36H461.21V179.888H464.41V174.08H465.93V179.888H468.138V174.08H469.642ZM484.525 173.28H482.189C479.693 173.28 478.013 172.352 478.013 170.512C478.013 168.688 479.693 167.776 482.189 167.776H484.525C487.037 167.776 488.701 168.688 488.701 170.512C488.701 172.352 487.037 173.28 484.525 173.28ZM484.253 169.152H482.477C480.637 169.152 479.613 169.632 479.613 170.528C479.613 171.408 480.637 171.92 482.477 171.92H484.253C486.077 171.92 487.117 171.408 487.117 170.528C487.117 169.632 486.077 169.152 484.253 169.152ZM490.333 174.64V176.016H486.701V177.68H488.637V182.624H487.037V179.12H478.093V177.68H480.029V176.016H476.381V174.64H490.333ZM481.581 177.68H485.149V176.016H481.581V177.68ZM503.585 173.344H505.745V174.8H503.585V182.464H501.985V167.616H503.585V173.344ZM498.129 170.432V170.24H492.289V168.784H499.729V169.936C499.729 172.016 499.457 174.448 499.025 176.752L497.457 176.512C497.873 174.288 498.129 171.888 498.129 170.432ZM495.761 173.392V178.656C497.329 178.592 499.169 178.448 500.753 178.256L500.929 179.664C498.705 179.984 495.873 180.16 493.761 180.16H491.409L491.329 178.704H493.889H494.177V173.392H495.761ZM521.767 179.248V167.616H523.367V182.464H521.767V180.704H517.623V179.248H521.767ZM515.511 174.944C513.287 174.944 511.511 173.872 511.511 171.68V171.44C511.511 169.232 513.287 168.176 515.511 168.176C517.735 168.176 519.495 169.232 519.495 171.44V171.68C519.495 173.872 517.735 174.944 515.511 174.944ZM513.111 171.472V171.648C513.111 172.896 514.135 173.552 515.511 173.552C516.887 173.552 517.911 172.896 517.911 171.648V171.472C517.911 170.208 516.887 169.568 515.511 169.568C514.135 169.568 513.111 170.208 513.111 171.472ZM520.519 175.984L520.695 177.408C519.319 177.6 517.703 177.744 516.167 177.824C516.055 179.328 515.911 180.864 515.687 182.576L514.119 182.4C514.311 180.736 514.471 179.328 514.583 177.888C514.151 177.904 513.735 177.904 513.335 177.904H510.871L510.791 176.448H513.479C515.303 176.448 518.199 176.272 520.519 175.984ZM537.211 182.464V167.616H538.763V182.464H537.211ZM531.803 173.504H533.995V167.84H535.515V182.16H533.995V174.96H531.339C530.491 177.12 529.051 179.04 527.163 180.72L526.027 179.552C527.739 178.096 528.987 176.416 529.755 174.656C528.667 174.768 527.371 174.832 526.379 174.848H526.155L526.075 173.392H526.299C527.355 173.376 529.067 173.312 530.283 173.2C530.539 172.272 530.667 171.344 530.667 170.416V170.24H526.379V168.784H532.235V170.096C532.235 171.296 532.091 172.432 531.803 173.504ZM553.711 182.464H552.111V167.616H553.711V182.464ZM545.503 180.528C543.327 180.528 541.551 179.12 541.551 175.552V173.296C541.551 169.728 543.327 168.32 545.503 168.32C547.647 168.32 549.423 169.728 549.423 173.296V175.552C549.423 179.12 547.647 180.528 545.503 180.528ZM545.503 179.072C546.815 179.072 547.839 178.112 547.839 175.536V173.312C547.839 170.72 546.815 169.776 545.503 169.776C544.191 169.776 543.151 170.72 543.151 173.312V175.536C543.151 178.112 544.191 179.072 545.503 179.072ZM568.883 178.736H567.299V174.032H564.387V172.736H567.299V171.008H564.387V169.712H567.299V167.616H568.883V178.736ZM564.259 176.496L560.547 173.328C559.827 174.576 558.739 175.68 557.251 176.72L556.339 175.504C558.867 173.728 560.003 171.776 560.003 169.36V168.176H561.571V169.36C561.571 170.272 561.443 171.12 561.187 171.904L565.203 175.312L564.259 176.496ZM560.659 177.808V181.008H569.507V182.464H559.075V177.808H560.659ZM579.511 172.544H577.127C574.647 172.544 572.967 171.824 572.967 170.096C572.967 168.4 574.647 167.696 577.127 167.696H579.511C581.991 167.696 583.655 168.4 583.655 170.096C583.655 171.824 581.991 172.544 579.511 172.544ZM577.431 171.28H579.207C581.063 171.28 582.071 170.896 582.071 170.112C582.071 169.328 581.063 168.976 579.207 168.976H577.431C575.575 168.976 574.567 169.328 574.567 170.112C574.567 170.912 575.575 171.28 577.431 171.28ZM585.287 174.912H571.335V173.616H585.287V174.912ZM583.975 182.544H573.047V178.672H581.991V177.408H572.967V176.144H583.591V179.936H574.647V181.232H583.975V182.544ZM598.204 173.136V174.512H604.38V175.888H590.428V174.512H596.62V173.136H592.284V167.936H602.364V169.264H593.884V171.776H602.524V173.136H598.204ZM595.708 177.232H599.1C601.5 177.232 602.828 178.368 602.828 179.92C602.828 181.488 601.5 182.624 599.1 182.624H595.708C593.308 182.624 591.98 181.488 591.98 179.92C591.98 178.368 593.308 177.232 595.708 177.232ZM596.028 181.232H598.796C600.476 181.232 601.244 180.72 601.244 179.904C601.244 179.12 600.476 178.608 598.796 178.608H596.028C594.348 178.608 593.58 179.12 593.58 179.904C593.58 180.72 594.348 181.232 596.028 181.232ZM616.72 182.464V167.616H618.32V182.464H616.72ZM611.072 168.48V170.416C611.072 171.68 610.928 172.864 610.624 174L615.024 179.264L613.824 180.288L610.032 175.712C609.312 177.376 608.224 178.928 606.704 180.448L605.584 179.376C608.256 176.688 609.52 173.968 609.52 170.416V168.48H611.072ZM632.164 182.464V167.616H633.732V182.464H632.164ZM627.268 173.344H628.948V167.84H630.468V182.16H628.948V174.8H627.268V175.552C627.268 179.12 625.908 180.528 624.164 180.528C622.388 180.528 621.028 179.12 621.028 175.552V173.296C621.028 169.728 622.388 168.32 624.164 168.32C625.908 168.32 627.268 169.728 627.268 173.296V173.344ZM625.748 175.536V173.312C625.748 170.72 625.076 169.776 624.148 169.776C623.22 169.776 622.548 170.72 622.548 173.312V175.536C622.548 178.112 623.22 179.072 624.148 179.072C625.076 179.072 625.748 178.112 625.748 175.536ZM651.002 171.168H647.642C646.794 173.312 644.49 174.8 641.178 175.84L640.57 174.416C644.106 173.344 646.202 171.648 646.378 169.856H640.906V168.4H647.994V169.232C647.994 169.456 647.978 169.664 647.962 169.872H651.002V167.616H652.586V175.712H651.002V174.032H647.626V172.736H651.002V171.168ZM645.994 176.496H649.242C651.402 176.496 652.794 177.776 652.794 179.552C652.794 181.344 651.402 182.624 649.242 182.624H645.994C643.85 182.624 642.458 181.344 642.458 179.552C642.458 177.776 643.85 176.496 645.994 176.496ZM646.266 181.184H648.986C650.474 181.184 651.194 180.496 651.194 179.552C651.194 178.608 650.474 177.92 648.986 177.92H646.266C644.778 177.92 644.058 178.608 644.058 179.552C644.058 180.496 644.778 181.184 646.266 181.184ZM660.59 168.928H664.126V170.224H655.454V168.928H658.974V167.44H660.59V168.928ZM666.158 171.68V167.616H667.758V176.144H666.158V173.056H664.03V171.68H666.158ZM663.47 173.408V173.616C663.47 175.232 661.854 176.064 659.806 176.064C657.742 176.064 656.126 175.232 656.126 173.616V173.408C656.126 171.792 657.742 170.96 659.806 170.96C661.854 170.96 663.47 171.792 663.47 173.408ZM657.678 173.456V173.584C657.678 174.32 658.606 174.768 659.806 174.768C660.99 174.768 661.918 174.32 661.918 173.584V173.456C661.918 172.72 660.99 172.256 659.806 172.256C658.606 172.256 657.678 172.72 657.678 173.456ZM667.758 182.464H657.934V177.072H667.758V182.464ZM666.158 178.432H659.518V181.072H666.158V178.432ZM681.602 173.2V167.616H683.154V182.464H681.602V174.656H679.714V182.16H678.194V167.84H679.714V173.2H681.602ZM672.914 167.632H674.53V169.792H677.202V171.232H670.226V169.792H672.914V167.632ZM673.746 172.56C675.442 172.56 676.61 173.92 676.61 176.064V176.928C676.61 179.072 675.442 180.448 673.746 180.448C672.018 180.448 670.834 179.072 670.834 176.928V176.064C670.834 173.92 672.018 172.56 673.746 172.56ZM675.138 176.832V176.176C675.138 174.816 674.562 174 673.73 174C672.898 174 672.306 174.816 672.306 176.176V176.832C672.306 178.192 672.898 179.024 673.73 179.024C674.562 179.024 675.138 178.192 675.138 176.832ZM693.157 176.72V179.888H699.333V181.36H685.381V179.888H691.573V176.72H687.093V168.528H688.693V171.248H696.037V168.528H697.637V176.72H693.157ZM696.037 172.688H688.693V175.28H696.037V172.688ZM711.945 182.464V167.616H713.497V182.464H711.945ZM706.361 172.736H708.729V167.84H710.249V182.16H708.729V174.192H706.361V172.736ZM704.857 168.48V170.448C704.857 171.696 704.745 172.88 704.505 174.016L707.817 179.376L706.537 180.288L703.945 176.064C703.401 177.6 702.617 179.056 701.561 180.448L700.345 179.488C702.361 176.8 703.337 173.936 703.337 170.448V168.48H704.857ZM723.869 176.336H721.549C718.877 176.336 717.165 174.624 717.165 172.336C717.165 170.096 718.877 168.384 721.549 168.384H723.869C726.541 168.384 728.253 170.096 728.253 172.336C728.253 174.624 726.541 176.336 723.869 176.336ZM723.581 169.808H721.821C719.901 169.808 718.765 170.864 718.765 172.352C718.765 173.856 719.901 174.912 721.821 174.912H723.581C725.517 174.912 726.669 173.856 726.669 172.352C726.669 170.864 725.517 169.808 723.581 169.808ZM726.125 177.184V179.888H729.677V181.344H715.725V179.888H719.293V177.184H720.861V179.888H724.573V177.184H726.125ZM732.353 181.84C731.745 181.84 731.249 181.36 731.249 180.752C731.249 180.144 731.745 179.648 732.353 179.648C732.961 179.648 733.441 180.144 733.441 180.752C733.441 181.36 732.961 181.84 732.353 181.84Z" fill="black"/>
<path d="M467.668 20.26L468.248 19.04C468.988 19.52 469.808 19.88 470.828 19.88C472.088 19.88 472.968 19.14 472.968 17.38V4.86H474.428L474.408 17.38C474.408 20.12 472.928 21.24 470.828 21.24C469.548 21.24 468.588 20.84 467.668 20.26ZM494.477 14.6V15.68H485.597V15.84C485.597 18.48 487.377 19.94 489.397 19.94C490.917 19.94 492.397 19.16 492.977 17.64L494.317 18.1C493.557 20.2 491.497 21.24 489.397 21.24C486.657 21.24 484.177 19.4 484.177 15.9V14.42C484.177 10.92 486.597 9.08 489.317 9.08C492.137 9.08 494.477 10.96 494.477 14.6ZM489.317 10.38C487.277 10.38 485.637 11.82 485.597 14.4H493.037C493.037 11.88 491.497 10.38 489.317 10.38ZM505.334 4.6C505.914 4.6 506.374 5.08 506.374 5.64C506.374 6.22 505.914 6.68 505.334 6.68C504.754 6.68 504.274 6.22 504.274 5.64C504.274 5.06 504.754 4.6 505.334 4.6ZM504.614 9.26H506.054V21.7C506.054 23.52 505.014 24.58 503.334 24.58C502.514 24.58 501.574 24.22 501.034 23.84L501.534 22.68C502.094 23 502.614 23.26 503.254 23.26C503.974 23.26 504.614 22.82 504.614 21.7V9.26ZM524.566 16.32V9.38H526.006V20.94H524.686L524.586 19.12C523.846 20.4 522.466 21.24 520.686 21.24C517.966 21.24 516.306 19.32 516.306 16.46V9.38H517.766V16.38C517.766 18.56 518.806 19.92 520.986 19.92C523.086 19.92 524.566 18.42 524.566 16.32ZM554.306 21.24C550.646 21.24 547.626 18.74 547.626 14.4V11.4C547.626 7.06 550.646 4.56 554.306 4.56C557.986 4.56 560.986 7.06 560.986 11.4V14.4C560.986 18.74 557.986 21.24 554.306 21.24ZM554.306 19.9C557.206 19.9 559.546 17.98 559.546 14.24V11.56C559.546 7.82 557.206 5.9 554.306 5.9C551.406 5.9 549.086 7.82 549.086 11.56V14.24C549.086 17.98 551.406 19.9 554.306 19.9ZM576.071 9.08C578.811 9.08 580.451 11 580.451 13.86V20.94H579.011V13.94C579.011 11.78 577.971 10.42 575.771 10.42C573.691 10.42 572.211 11.9 572.211 14V20.94H570.751V9.38H572.071L572.191 11.22C572.931 9.92 574.291 9.08 576.071 9.08ZM595.907 9.08C598.367 9.08 600.707 10.98 600.707 14.36V15.96C600.707 19.34 598.367 21.24 595.907 21.24C594.207 21.24 592.727 20.5 591.847 19.12L591.747 20.94H590.407V4.86H591.867V11.16C592.747 9.8 594.227 9.08 595.907 9.08ZM599.267 15.9V14.42C599.267 11.86 597.627 10.42 595.547 10.42C593.487 10.42 591.867 11.86 591.867 14.42V15.9C591.867 18.46 593.507 19.92 595.547 19.92C597.627 19.92 599.267 18.46 599.267 15.9ZM615.214 21.24C612.474 21.24 609.974 19.42 609.974 16V14.3C609.974 10.9 612.474 9.08 615.214 9.08C617.994 9.08 620.474 10.9 620.474 14.3V16C620.474 19.42 617.994 21.24 615.214 21.24ZM615.214 19.92C617.274 19.92 619.034 18.48 619.034 15.94V14.38C619.034 11.84 617.274 10.42 615.214 10.42C613.154 10.42 611.434 11.84 611.434 14.38V15.94C611.434 18.48 613.174 19.92 615.214 19.92ZM634.492 9.08C637.152 9.08 639.012 10.74 639.012 13.54V20.94H637.712L637.612 19.34C636.952 20.5 635.692 21.24 634.032 21.24H633.252C631.032 21.24 629.432 19.72 629.432 17.66C629.432 15.58 631.052 14.14 633.932 14.14H637.572V13.64C637.572 11.68 636.472 10.42 634.392 10.42C632.892 10.42 631.812 11.12 631.212 12.24L629.912 11.64C630.692 10.12 632.392 9.08 634.492 9.08ZM633.492 19.9H634.232C635.852 19.9 637.372 18.9 637.572 17.32V15.44H634.032C631.812 15.44 630.872 16.36 630.872 17.66C630.872 19.06 631.912 19.9 633.492 19.9ZM653.346 9.08C653.926 9.08 654.446 9.16 654.886 9.32L654.546 10.62C654.066 10.5 653.566 10.42 653.126 10.42C651.466 10.42 650.406 12.12 650.406 14.08V20.94H648.946V9.38H650.286L650.366 11.2C650.946 9.94 651.966 9.08 653.346 9.08ZM671.709 11.16V4.86H673.149V20.94H671.829L671.729 19.12C670.849 20.5 669.369 21.24 667.649 21.24C665.189 21.24 662.849 19.34 662.849 15.96V14.36C662.849 10.98 665.189 9.08 667.649 9.08C669.349 9.08 670.829 9.8 671.709 11.16ZM668.029 19.92C670.069 19.92 671.709 18.46 671.709 15.9V14.42C671.709 11.86 670.089 10.42 668.029 10.42C665.949 10.42 664.309 11.86 664.309 14.42V15.9C664.309 18.46 665.949 19.92 668.029 19.92ZM684.475 6.92C683.895 6.92 683.415 6.46 683.415 5.88C683.415 5.3 683.895 4.84 684.475 4.84C685.055 4.84 685.515 5.32 685.515 5.88C685.515 6.46 685.055 6.92 684.475 6.92ZM685.195 20.94H683.755V9.38H685.195V20.94ZM701.067 9.08C703.807 9.08 705.447 11 705.447 13.86V20.94H704.007V13.94C704.007 11.78 702.967 10.42 700.767 10.42C698.687 10.42 697.207 11.9 697.207 14V20.94H695.747V9.38H697.067L697.187 11.22C697.927 9.92 699.287 9.08 701.067 9.08ZM723.783 11.12L723.883 9.38H725.203V19.38C725.203 22.8 722.983 24.64 720.103 24.64C717.983 24.64 716.123 23.96 715.283 22.4L716.683 21.78C717.243 22.84 718.583 23.38 720.103 23.38C722.443 23.38 723.763 21.82 723.763 19.28V18.34C722.883 19.62 721.403 20.32 719.723 20.32C717.283 20.32 714.903 18.46 714.903 15.34V14.06C714.903 10.98 717.283 9.08 719.723 9.08C721.423 9.08 722.903 9.82 723.783 11.12ZM720.083 19.02C722.143 19.02 723.763 17.6 723.763 15.28V14.1C723.763 11.78 722.123 10.38 720.083 10.38C718.003 10.38 716.363 11.78 716.363 14.1V15.28C716.363 17.6 718.003 19.02 720.083 19.02Z" fill="black"/>
<path d="M365.818 104L350.978 53.32H373.238L378.278 76.84H378.418L382.688 53.32H396.758L400.958 76.84H401.098L406.208 53.32H426.368L411.458 104H393.048L388.708 84.26H388.568L384.298 104H365.818ZM425.588 78.66C425.588 63.96 437.978 52.55 453.868 52.55C469.758 52.55 482.148 63.96 482.148 78.66C482.148 93.36 469.758 104.77 453.868 104.77C437.978 104.77 425.588 93.36 425.588 78.66ZM446.028 79.01C446.028 83.35 449.528 86.85 453.868 86.85C458.208 86.85 461.708 83.35 461.708 79.01C461.708 74.67 458.208 71.17 453.868 71.17C449.528 71.17 446.028 74.67 446.028 79.01ZM487.206 104V53.32H507.996C518.426 53.32 532.636 55.91 532.636 69.42C532.636 74.88 530.046 78.8 526.266 81.46L537.816 104H515.906L508.346 87.34H508.066V104H487.206ZM508.066 75.72H509.606C512.896 75.72 514.366 73.97 514.366 71.8C514.366 69.63 512.826 67.95 509.606 67.95H508.066V75.72ZM539.979 104V53.32H560.839V74.46L560.979 74.53L569.589 53.32H592.409L580.439 76.84L593.389 104H569.939L560.979 80.13L560.839 80.2V104H539.979ZM594.536 104L613.856 53.32H633.806L653.126 104H630.586L628.836 97.35H617.216L615.256 104H594.536ZM620.856 84.61H625.476L623.236 74.32H623.096L620.856 84.61ZM660.949 104V70.54H646.809V53.32H695.949V70.54H681.809V104H660.949ZM701.376 104V53.32H722.236V104H701.376ZM727.258 78.66C727.258 63.96 739.648 52.55 755.538 52.55C771.428 52.55 783.818 63.96 783.818 78.66C783.818 93.36 771.428 104.77 755.538 104.77C739.648 104.77 727.258 93.36 727.258 78.66ZM747.698 79.01C747.698 83.35 751.198 86.85 755.538 86.85C759.878 86.85 763.378 83.35 763.378 79.01C763.378 74.67 759.878 71.17 755.538 71.17C751.198 71.17 747.698 74.67 747.698 79.01ZM788.876 104V53.32H807.846L822.756 74.95L822.896 74.88V53.32H841.656V104H822.686L807.776 82.37L807.636 82.44V104H788.876Z" fill="black"/>
<defs>
<clipPath id="clip0_303_14">
<rect width="521" height="8" fill="white" transform="translate(0 426)"/>
</clipPath>
<clipPath id="clip1_303_14">
<rect width="447" height="11" fill="white" transform="translate(747 430)"/>
</clipPath>
</defs>
</svg>
