<svg width="990" height="417" viewBox="0 0 990 417" fill="none" xmlns="http://www.w3.org/2000/svg">
<rect x="420" y="88" width="570" height="40" fill="#F5F5F5"/>
<rect x="420" y="169" width="570" height="41" fill="#F5F5F5"/>
<rect x="420" y="251" width="570" height="82" fill="#F5F5F5"/>
<rect x="420" y="374" width="570" height="41" fill="#F5F5F5"/>
<rect y="2" width="990" height="44" fill="#02FF99"/>
<rect y="46" width="172" height="369" fill="#02FF99"/>
<path d="M0 2L990 1.99991" stroke="black" stroke-width="3"/>
<path d="M0 46H990" stroke="#ACACAC"/>
<path d="M172 169L990 169" stroke="#ACACAC"/>
<path d="M172 251L990 251" stroke="#ACACAC"/>
<path d="M172 333L990 333" stroke="#ACACAC"/>
<path d="M0 128H990" stroke="#ACACAC"/>
<path d="M420 88L990 87" stroke="#ACACAC"/>
<path d="M0 210H990" stroke="#ACACAC"/>
<path d="M0 333H172" stroke="#ACACAC"/>
<path d="M172 374L990 374" stroke="#ACACAC"/>
<path d="M172 2V415" stroke="#ACACAC"/>
<path d="M420 2V415" stroke="#ACACAC"/>
<path d="M68.8571 80.592C72.2171 80.592 74.6971 82.688 74.6971 86.272V87.952C74.6971 91.568 72.2171 93.648 68.8571 93.648H64.1371V80.592H68.8571ZM72.6331 87.872V86.352C72.6331 83.76 71.0651 82.464 68.8571 82.464H66.2011V91.76H68.8571C71.0651 91.76 72.6331 90.496 72.6331 87.872ZM87.256 93.648H85.144L83.768 89.792H78.792L77.416 93.648H75.304L79.992 80.592H82.552L87.256 93.648ZM81.288 82.768L79.448 87.936H83.112L81.288 82.768ZM94.7926 80.592H97.0966L92.4406 88.576V93.648H90.3766V88.64L85.7046 80.592H88.0086L91.4006 86.672L94.7926 80.592ZM107.397 93.648H105.333V83.296L102.661 85.392L101.509 83.872L105.701 80.592H107.397V93.648Z" fill="black"/>
<path d="M256.437 92.4H255.037V82.908L252.461 84.966L251.663 83.916L255.247 81.06H256.437V92.4ZM265.699 88.872H267.449V90.16H265.699V92.61H264.313V90.16H258.615V89.012L263.823 81.06H265.699V88.872ZM264.313 82.656L260.295 88.872H264.313V82.656ZM270.051 84.308C269.519 84.308 269.085 83.874 269.085 83.342C269.085 82.81 269.519 82.39 270.051 82.39C270.583 82.39 271.003 82.81 271.003 83.342C271.003 83.874 270.583 84.308 270.051 84.308ZM270.051 91.07C269.519 91.07 269.085 90.636 269.085 90.104C269.085 89.572 269.519 89.152 270.051 89.152C270.583 89.152 271.003 89.572 271.003 90.104C271.003 90.636 270.583 91.07 270.051 91.07ZM277.189 92.61C274.921 92.61 273.073 90.986 273.073 87.822V85.624C273.073 82.488 274.921 80.85 277.189 80.85C279.457 80.85 281.319 82.488 281.319 85.624V87.822C281.319 90.986 279.457 92.61 277.189 92.61ZM277.189 91.35C278.715 91.35 279.905 90.202 279.905 87.752V85.708C279.905 83.258 278.715 82.11 277.189 82.11C275.663 82.11 274.473 83.258 274.473 85.708V87.752C274.473 90.202 275.663 91.35 277.189 91.35ZM287.32 92.61C285.052 92.61 283.204 90.986 283.204 87.822V85.624C283.204 82.488 285.052 80.85 287.32 80.85C289.588 80.85 291.45 82.488 291.45 85.624V87.822C291.45 90.986 289.588 92.61 287.32 92.61ZM287.32 91.35C288.846 91.35 290.036 90.202 290.036 87.752V85.708C290.036 83.258 288.846 82.11 287.32 82.11C285.794 82.11 284.604 83.258 284.604 85.708V87.752C284.604 90.202 285.794 91.35 287.32 91.35ZM293.335 87.374V86.072H297.885V87.374H293.335ZM303.988 92.4H302.588V82.908L300.012 84.966L299.214 83.916L302.798 81.06H303.988V92.4ZM310.702 84.952C312.718 84.952 314.51 86.422 314.51 88.788C314.51 91.154 312.718 92.61 310.464 92.61C308.168 92.61 306.446 91.196 306.446 88.662V85.834C306.446 82.306 308.364 80.85 310.338 80.85C312.256 80.85 313.53 81.718 314.286 83.3L313.124 83.916C312.522 82.726 311.766 82.096 310.394 82.096C308.896 82.096 307.734 83.258 307.748 85.89V86.436C308.364 85.456 309.512 84.952 310.702 84.952ZM310.464 91.364C311.934 91.364 313.124 90.398 313.124 88.76C313.124 87.136 311.934 86.184 310.464 86.184C309.008 86.184 307.832 87.136 307.832 88.76C307.832 90.398 309.008 91.364 310.464 91.364ZM317.397 84.308C316.865 84.308 316.431 83.874 316.431 83.342C316.431 82.81 316.865 82.39 317.397 82.39C317.929 82.39 318.349 82.81 318.349 83.342C318.349 83.874 317.929 84.308 317.397 84.308ZM317.397 91.07C316.865 91.07 316.431 90.636 316.431 90.104C316.431 89.572 316.865 89.152 317.397 89.152C317.929 89.152 318.349 89.572 318.349 90.104C318.349 90.636 317.929 91.07 317.397 91.07ZM324.535 92.61C322.267 92.61 320.419 90.986 320.419 87.822V85.624C320.419 82.488 322.267 80.85 324.535 80.85C326.803 80.85 328.665 82.488 328.665 85.624V87.822C328.665 90.986 326.803 92.61 324.535 92.61ZM324.535 91.35C326.061 91.35 327.251 90.202 327.251 87.752V85.708C327.251 83.258 326.061 82.11 324.535 82.11C323.009 82.11 321.819 83.258 321.819 85.708V87.752C321.819 90.202 323.009 91.35 324.535 91.35ZM334.666 92.61C332.398 92.61 330.55 90.986 330.55 87.822V85.624C330.55 82.488 332.398 80.85 334.666 80.85C336.934 80.85 338.796 82.488 338.796 85.624V87.822C338.796 90.986 336.934 92.61 334.666 92.61ZM334.666 91.35C336.192 91.35 337.382 90.202 337.382 87.752V85.708C337.382 83.258 336.192 82.11 334.666 82.11C333.14 82.11 331.95 83.258 331.95 85.708V87.752C331.95 90.202 333.14 91.35 334.666 91.35Z" fill="black"/>
<path d="M652.432 67.752V71.14H657.976V72.064H645.88V71.14H651.438V67.752H647.448V61.13H648.442V66.842H656.52V67.752H652.432ZM670.075 69.992H669.081V65.582H666.295V64.728H669.081V63.02H666.295V62.152H669.081V60.178H670.075V69.992ZM667.023 67.108L666.435 67.864L662.907 64.882C662.291 66.044 661.283 67.094 659.869 68.06L659.309 67.29C661.521 65.736 662.683 64.014 662.683 61.732V60.71H663.663V61.732C663.663 62.53 663.537 63.272 663.299 63.972L667.023 67.108ZM662.767 69.166V72.176H670.677V73.1H661.773V69.166H662.767ZM685.761 73.1V60.178H686.755V73.1H685.761ZM681.813 62.194H676.717V61.284H682.821V62.278C682.821 65.932 680.637 69.124 677.109 71.462L676.521 70.678C679.797 68.55 681.813 65.498 681.813 62.474V62.194ZM695.662 65.946V67.598H701.206V68.522H689.11V67.598H694.668V65.946H690.804V60.43H691.798V62.348H698.518V60.43H699.526V65.946H695.662ZM698.518 63.216H691.798V65.064H698.518V63.216ZM690.804 69.614H691.798V72.176H699.862V73.1H690.804V69.614ZM710.046 61.242H713.252V62.04H705.818V61.242H709.038V60.01H710.046V61.242ZM716.108 60.178V63.874H718.124V64.798H716.108V67.444H715.114V60.178H716.108ZM713.896 66.254L713.994 67.052C712.104 67.304 709.612 67.472 707.764 67.472H705.636L705.594 66.646H707.82C708.198 66.646 708.632 66.632 709.108 66.618V65.764C707.568 65.68 706.448 65.19 706.448 64.238V64.126C706.448 63.076 707.792 62.572 709.556 62.572C711.292 62.572 712.636 63.076 712.636 64.126V64.238C712.636 65.162 711.572 65.666 710.116 65.764V66.576C711.362 66.52 712.72 66.408 713.896 66.254ZM707.428 64.154V64.224C707.428 64.7 708.352 65.008 709.556 65.008C710.746 65.008 711.656 64.7 711.656 64.224V64.154C711.656 63.678 710.746 63.342 709.556 63.342C708.352 63.342 707.428 63.678 707.428 64.154ZM716.108 71.14H708.926V72.33H716.654V73.156H707.946V70.328H715.128V69.18H707.876V68.368H716.108V71.14ZM727.662 64.84V66.436H731.162V67.318H719.066V66.436H722.58V64.84C721.306 64.518 720.564 63.804 720.564 62.684C720.564 61.13 721.978 60.36 724.218 60.36H726.024C728.264 60.36 729.678 61.13 729.678 62.684C729.678 63.804 728.936 64.518 727.662 64.84ZM721.558 62.684C721.558 63.636 722.552 64.154 724.386 64.154H725.856C727.676 64.154 728.67 63.608 728.67 62.684C728.67 61.746 727.676 61.242 725.856 61.242H724.386C722.552 61.242 721.558 61.746 721.558 62.684ZM723.546 64.98V66.436H726.696V64.98C726.486 65.022 723.756 65.022 723.546 64.98ZM723.7 68.634H726.528C728.642 68.634 729.748 69.614 729.748 70.93C729.748 72.26 728.642 73.24 726.528 73.24H723.7C721.6 73.24 720.494 72.26 720.494 70.93C720.494 69.614 721.6 68.634 723.7 68.634ZM723.924 72.344H726.304C727.956 72.344 728.74 71.784 728.74 70.93C728.74 70.076 727.956 69.53 726.304 69.53H723.924C722.272 69.53 721.488 70.076 721.488 70.93C721.488 71.784 722.272 72.344 723.924 72.344ZM745.951 60.192V63.076H748.093V63.986H745.951V67.318H744.943V60.192H745.951ZM741.121 60.808H742.101V66.66H736.053V60.808H737.033V62.782H741.121V60.808ZM737.033 63.678V65.764H741.121V63.678H737.033ZM740.645 68.102H743.249C745.139 68.102 746.273 69.208 746.273 70.664C746.273 72.12 745.139 73.226 743.249 73.226H740.645C738.755 73.226 737.621 72.12 737.621 70.664C737.621 69.208 738.755 68.102 740.645 68.102ZM740.841 72.33H743.053C744.537 72.33 745.251 71.616 745.251 70.664C745.251 69.726 744.537 68.998 743.053 68.998H740.841C739.357 68.998 738.629 69.726 738.629 70.664C738.629 71.616 739.357 72.33 740.841 72.33ZM758.947 63.076V60.178H759.941V66.996H758.947V63.986H755.895V66.464H749.721V60.808H750.687V62.684H754.929V60.808H755.895V63.076H758.947ZM750.687 63.58V65.554H754.929V63.58H750.687ZM752.633 69.46H758.947V67.752H759.941V73.1H751.639V67.752H752.633V69.46ZM752.633 70.342V72.19H758.947V70.342H752.633Z" fill="black"/>
<path d="M570.967 107.4L566.067 105.174C565.227 106.042 563.827 106.784 561.769 107.4L561.447 106.532C564.443 105.622 565.983 104.418 565.983 103.018V102.36H566.963V103.018C566.963 103.508 566.851 103.97 566.627 104.404L571.359 106.574L570.967 107.4ZM572.451 108.394V109.276H566.907V111.04H570.897V115.24H569.889V111.95H561.923V111.04H565.913V109.276H560.355V108.394H572.451ZM584.438 110.06L579.398 106.616C578.572 107.862 577.074 109.01 574.82 110.06L574.358 109.192C577.676 107.624 579.244 105.944 579.244 103.942V102.92H580.238V103.942C580.238 104.572 580.112 105.174 579.86 105.762L584.998 109.234L584.438 110.06ZM580.182 109.696V113.14H585.726V114.05H573.63V113.14H579.188V109.696H580.182ZM600.404 115.1V102.178H601.384V115.1H600.404ZM593.866 105.3V105.496C593.866 106.406 593.768 107.26 593.586 108.086L596.666 112.566L595.868 113.154L593.236 109.29C592.76 110.662 591.99 111.964 590.912 113.308L590.17 112.692C591.962 110.424 592.9 108.31 592.9 105.496V105.3H590.562V104.39H592.9V102.192H593.88V104.39H596.26V105.3H593.866ZM595.336 107.372H597.618V102.388H598.584V114.862H597.618V108.282H595.336V107.372ZM613.007 106.868C613.091 106 613.133 105.216 613.133 104.642V104.18H605.083V103.27H614.127V104.418C614.127 106.35 613.805 109.136 613.371 111.46L612.391 111.278C612.601 110.172 612.783 108.94 612.909 107.792C610.949 108.002 607.883 108.114 605.965 108.114H605.055L605.013 107.204H606.021C607.743 107.204 610.977 107.078 613.007 106.868ZM603.585 114.064V113.14H615.681V114.064H603.585ZM627.794 111.992H626.786V102.178H627.794V111.992ZM620.794 109.668C618.932 109.668 617.42 108.576 617.42 106.294V106C617.42 103.704 618.932 102.598 620.794 102.598C622.628 102.598 624.14 103.704 624.14 106V106.294C624.14 108.576 622.628 109.668 620.794 109.668ZM620.794 108.772C622.138 108.772 623.146 107.932 623.146 106.28V106C623.146 104.348 622.138 103.494 620.794 103.494C619.436 103.494 618.428 104.348 618.428 106V106.28C618.428 107.932 619.436 108.772 620.794 108.772ZM628.396 115.1H619.478V110.97H620.486V114.176H628.396V115.1ZM630.864 108.73C630.864 105.818 631.942 103.368 633.874 101.282L634.56 101.898C632.698 103.984 631.844 106.28 631.844 108.73C631.844 111.18 632.698 113.476 634.56 115.562L633.874 116.178C631.942 114.092 630.864 111.642 630.864 108.73ZM642.061 109.962V113.14H647.605V114.05H635.509V113.14H641.067V109.962H640.647C638.281 109.962 636.825 108.408 636.825 106.434C636.825 104.46 638.281 102.92 640.647 102.92H642.481C644.833 102.92 646.303 104.46 646.303 106.434C646.303 108.408 644.833 109.962 642.481 109.962H642.061ZM637.833 106.434C637.833 107.918 638.911 109.052 640.801 109.052H642.313C644.203 109.052 645.295 107.904 645.295 106.434C645.295 104.95 644.203 103.844 642.313 103.844H640.801C638.911 103.844 637.833 104.95 637.833 106.434ZM658.696 115.1V102.178H659.69V115.1H658.696ZM655.322 104.138V111.824C656.036 111.754 656.75 111.656 657.422 111.558L657.534 112.468C655.532 112.776 653.124 112.958 651.164 112.958H649.12L649.064 112.034H650.8V104.138H649.232V103.214H656.89V104.138H655.322ZM654.328 111.908V104.138H651.78V112.034C652.536 112.02 653.418 111.978 654.328 111.908ZM672.868 110.186L667.842 106.672C667.002 107.932 665.518 109.108 663.25 110.186L662.788 109.332C666.106 107.722 667.674 106 667.674 103.956V102.92H668.668V103.956C668.668 104.6 668.542 105.216 668.29 105.818L673.428 109.374L672.868 110.186ZM662.06 114.05V113.14H674.156V114.05H662.06ZM685.429 115.1V102.178H686.409V115.1H685.429ZM680.361 107.106H682.643V102.388H683.609V114.862H682.643V108.016H680.361V107.106ZM678.891 104.194V105.048C678.891 106.07 678.793 107.036 678.583 107.946L681.677 112.58L680.879 113.154L678.233 109.192C677.743 110.606 676.987 111.95 675.965 113.308L675.195 112.692C676.959 110.382 677.939 108.156 677.939 105.048V104.194H675.643V103.284H681.229V104.194H678.891ZM689.982 108.94L689.618 108.072C692.684 106.924 694.238 105.566 694.238 103.984V103.774H690.304V102.864H699.026V103.774H695.246V103.984C695.246 104.516 695.134 105.02 694.896 105.496L699.684 108.086L699.236 108.94L694.392 106.28C693.566 107.274 692.124 108.156 689.982 108.94ZM688.61 110.368H700.706V111.278H695.162V115.254H694.168V111.278H688.61V110.368ZM716.21 115.1H715.202V102.178H716.21V115.1ZM709.168 113.378C707.348 113.378 705.85 112.16 705.85 109.094V107.162C705.85 104.096 707.348 102.878 709.168 102.878C710.988 102.878 712.486 104.096 712.486 107.162V109.094C712.486 112.16 710.988 113.378 709.168 113.378ZM709.168 112.454C710.498 112.454 711.492 111.488 711.492 109.08V107.162C711.492 104.754 710.498 103.802 709.168 103.802C707.838 103.802 706.858 104.754 706.858 107.162V109.08C706.858 111.488 707.838 112.454 709.168 112.454ZM727.162 106.84V108.436H730.662V109.318H718.566V108.436H722.08V106.84C720.806 106.518 720.064 105.804 720.064 104.684C720.064 103.13 721.478 102.36 723.718 102.36H725.524C727.764 102.36 729.178 103.13 729.178 104.684C729.178 105.804 728.436 106.518 727.162 106.84ZM721.058 104.684C721.058 105.636 722.052 106.154 723.886 106.154H725.356C727.176 106.154 728.17 105.608 728.17 104.684C728.17 103.746 727.176 103.242 725.356 103.242H723.886C722.052 103.242 721.058 103.746 721.058 104.684ZM723.046 106.98V108.436H726.196V106.98C725.986 107.022 723.256 107.022 723.046 106.98ZM723.2 110.634H726.028C728.142 110.634 729.248 111.614 729.248 112.93C729.248 114.26 728.142 115.24 726.028 115.24H723.2C721.1 115.24 719.994 114.26 719.994 112.93C719.994 111.614 721.1 110.634 723.2 110.634ZM723.424 114.344H725.804C727.456 114.344 728.24 113.784 728.24 112.93C728.24 112.076 727.456 111.53 725.804 111.53H723.424C721.772 111.53 720.988 112.076 720.988 112.93C720.988 113.784 721.772 114.344 723.424 114.344ZM742.033 107.232H744.175V108.156H742.033V115.1H741.025V102.178H742.033V107.232ZM735.957 102.976V104.6C735.957 105.72 735.817 106.77 735.551 107.778L739.415 112.524L738.673 113.168L735.187 108.884C734.585 110.438 733.605 111.894 732.233 113.308L731.533 112.636C733.815 110.298 734.977 107.834 734.977 104.6V102.976H735.957ZM749.428 103.494H752.676V104.348H745.186V103.494H748.434V102.01H749.428V103.494ZM755.308 102.178V105.468H757.464V106.392H755.308V109.668H754.314V102.178H755.308ZM752.074 107.246V107.442C752.074 108.828 750.702 109.57 748.952 109.57C747.202 109.57 745.816 108.828 745.816 107.442V107.246C745.816 105.874 747.202 105.132 748.952 105.132C750.702 105.132 752.074 105.874 752.074 107.246ZM746.81 107.288V107.428C746.81 108.24 747.748 108.73 748.952 108.73C750.142 108.73 751.094 108.24 751.094 107.428V107.288C751.094 106.49 750.142 105.972 748.952 105.972C747.748 105.972 746.81 106.49 746.81 107.288ZM750.016 110.438H752.62C754.51 110.438 755.63 111.46 755.63 112.846C755.63 114.232 754.51 115.226 752.62 115.226H750.016C748.126 115.226 746.992 114.232 746.992 112.846C746.992 111.46 748.126 110.438 750.016 110.438ZM750.198 114.33H752.424C753.908 114.33 754.622 113.714 754.622 112.832C754.622 111.964 753.908 111.348 752.424 111.348H750.198C748.728 111.348 748 111.964 748 112.832C748 113.714 748.728 114.33 750.198 114.33ZM768.348 109.962V113.14H773.892V114.05H761.796V113.14H767.354V109.962H766.934C764.568 109.962 763.112 108.408 763.112 106.434C763.112 104.46 764.568 102.92 766.934 102.92H768.768C771.12 102.92 772.59 104.46 772.59 106.434C772.59 108.408 771.12 109.962 768.768 109.962H768.348ZM764.12 106.434C764.12 107.918 765.198 109.052 767.088 109.052H768.6C770.49 109.052 771.582 107.904 771.582 106.434C771.582 104.95 770.49 103.844 768.6 103.844H767.088C765.198 103.844 764.12 104.95 764.12 106.434ZM785.991 115.1H784.997V102.178H785.991V115.1ZM778.025 113.224H775.841V107.694H780.853V104.124H775.841V103.214H781.861V108.604H776.835V112.314H778.193C779.775 112.314 781.819 112.132 783.443 111.88L783.569 112.748C782.043 113.042 779.929 113.224 778.025 113.224ZM798.483 102.178H799.449V111.992H798.483V102.178ZM795.753 106.392H794.017C793.989 108.59 792.827 109.668 791.329 109.668C789.775 109.668 788.613 108.562 788.613 106.294V106C788.613 103.704 789.775 102.598 791.329 102.598C792.729 102.598 793.835 103.536 793.989 105.482H795.753V102.318H796.705V111.572H795.753V106.392ZM789.551 106.014V106.28C789.551 107.904 790.307 108.772 791.329 108.772C792.323 108.772 793.065 107.904 793.065 106.28V106.014C793.065 104.362 792.323 103.494 791.329 103.494C790.307 103.494 789.551 104.362 789.551 106.014ZM791.959 111.166V114.176H800.051V115.1H790.965V111.166H791.959ZM811.73 115.1V102.178H812.71V115.1H811.73ZM807.194 107.372H808.944V102.388H809.91V114.862H808.944V108.282H807.194V107.372ZM803.008 112.314H803.876C805.234 112.314 806.354 112.216 807.67 112.006L807.782 112.888C806.55 113.098 805.388 113.224 803.68 113.224H802.014V103.214H806.802V104.124H803.008V107.694H806.662V108.604H803.008V112.314ZM825.818 115.1H824.81V102.178H825.818V115.1ZM818.776 113.378C816.956 113.378 815.458 112.16 815.458 109.094V107.162C815.458 104.096 816.956 102.878 818.776 102.878C820.596 102.878 822.094 104.096 822.094 107.162V109.094C822.094 112.16 820.596 113.378 818.776 113.378ZM818.776 112.454C820.106 112.454 821.1 111.488 821.1 109.08V107.162C821.1 104.754 820.106 103.802 818.776 103.802C817.446 103.802 816.466 104.754 816.466 107.162V109.08C816.466 111.488 817.446 112.454 818.776 112.454ZM839.093 111.992H838.099V107.582H835.313V106.728H838.099V105.02H835.313V104.152H838.099V102.178H839.093V111.992ZM836.041 109.108L835.453 109.864L831.925 106.882C831.309 108.044 830.301 109.094 828.887 110.06L828.327 109.29C830.539 107.736 831.701 106.014 831.701 103.732V102.71H832.681V103.732C832.681 104.53 832.555 105.272 832.317 105.972L836.041 109.108ZM831.785 111.166V114.176H839.695V115.1H830.791V111.166H831.785ZM844.92 108.73C844.92 111.642 843.842 114.092 841.91 116.178L841.224 115.562C843.086 113.476 843.94 111.18 843.94 108.73C843.94 106.28 843.086 103.984 841.224 101.898L841.91 101.282C843.842 103.368 844.92 105.818 844.92 108.73Z" fill="black"/>
<path d="M646.327 146.372H648.343V147.282H646.327V154.1H645.333V141.178H646.327V146.372ZM640.265 142.83H643.471V143.684H636.037V142.83H639.257V141.192H640.265V142.83ZM640.335 149.634V151.398C641.581 151.328 642.939 151.216 644.101 151.062L644.213 151.944C642.323 152.196 639.831 152.378 637.983 152.378H635.855L635.813 151.468H638.039C638.417 151.468 638.851 151.454 639.327 151.44V149.648C637.787 149.508 636.667 148.654 636.667 147.254V147.016C636.667 145.462 638.011 144.608 639.775 144.608C641.511 144.608 642.855 145.462 642.855 147.016V147.254C642.855 148.626 641.791 149.466 640.335 149.634ZM637.647 147.044V147.24C637.647 148.22 638.571 148.822 639.775 148.822C640.965 148.822 641.875 148.22 641.875 147.24V147.044C641.875 146.064 640.965 145.448 639.775 145.448C638.571 145.448 637.647 146.064 637.647 147.044ZM659.854 146.792L654.996 144.342C654.17 145.28 652.77 146.092 650.712 146.792L650.362 145.91C653.372 144.888 654.912 143.6 654.912 142.088V141.36H655.892V142.088C655.892 142.606 655.78 143.096 655.542 143.558L660.288 145.952L659.854 146.792ZM649.284 148.976V148.052H661.38V148.976H655.836V151.608H654.842V148.976H649.284ZM650.922 150.348H651.93V153.176H660.036V154.1H650.922V150.348ZM672.472 145.98L671.506 145.84C671.772 144.552 671.912 143.194 671.912 142.55H664.184V141.64H672.906V142.284C672.906 143.278 672.766 144.636 672.472 145.98ZM668.636 144.286V146.82H674.656V147.716H662.56V146.82H667.642V144.286H668.636ZM669.196 150.292V150.362C669.196 150.768 669.084 151.146 668.874 151.496L673.718 153.386L673.382 154.24L668.258 152.224C667.334 153.064 665.766 153.722 663.82 154.24L663.526 153.386C666.2 152.644 668.188 151.622 668.188 150.362V150.292H664.128V149.41H673.102V150.292H669.196ZM686.027 146.232H688.169V147.156H686.027V154.1H685.033V141.178H686.027V146.232ZM680.007 143.194V143.936C680.007 144.972 679.881 145.938 679.629 146.862L683.451 151.496L682.681 152.168L679.251 147.982C678.635 149.494 677.669 150.894 676.353 152.308L675.625 151.636C677.753 149.34 679.027 147.128 679.027 143.936V143.194H676.129V142.284H682.933V143.194H680.007ZM699.428 141.178V144.482H701.444V145.392H699.428V147.912H698.434V141.178H699.428ZM697.202 146.498L697.314 147.338C695.424 147.604 692.932 147.758 691.084 147.758H688.956L688.914 146.89H691.14C691.504 146.89 691.91 146.876 692.358 146.862V145.588C690.72 145.476 689.502 144.79 689.502 143.6V143.474C689.502 142.158 690.958 141.472 692.82 141.472C694.668 141.472 696.138 142.158 696.138 143.474V143.6C696.138 144.776 694.948 145.448 693.366 145.574V146.82C694.626 146.764 696.012 146.652 697.202 146.498ZM690.482 143.502V143.586C690.482 144.286 691.448 144.748 692.82 144.748C694.192 144.748 695.144 144.286 695.144 143.586V143.502C695.144 142.774 694.192 142.326 692.82 142.326C691.448 142.326 690.482 142.774 690.482 143.502ZM699.428 151.888H692.26V153.302H699.974V154.17H691.266V151.048H698.434V149.676H691.196V148.822H699.428V151.888ZM715.982 146.232H718.124V147.156H715.982V154.1H714.974V141.178H715.982V146.232ZM709.906 141.976V143.6C709.906 144.72 709.766 145.77 709.5 146.778L713.364 151.524L712.622 152.168L709.136 147.884C708.534 149.438 707.554 150.894 706.182 152.308L705.482 151.636C707.764 149.298 708.926 146.834 708.926 143.6V141.976H709.906ZM726.01 146.596H724.218C721.978 146.596 720.564 145.644 720.564 143.978C720.564 142.312 721.978 141.36 724.218 141.36H726.01C728.264 141.36 729.678 142.312 729.678 143.978C729.678 145.644 728.264 146.596 726.01 146.596ZM725.856 142.242H724.386C722.566 142.242 721.558 142.914 721.558 143.978C721.558 145.042 722.566 145.714 724.386 145.714H725.856C727.662 145.714 728.67 145.028 728.67 143.978C728.67 142.914 727.662 142.242 725.856 142.242ZM719.066 149.046V148.122H731.162V149.046H725.618V151.608H724.624V149.046H719.066ZM720.69 150.348H721.698V153.176H729.818V154.1H720.69V150.348ZM733.909 142.13H742.757V143.054H734.903V147.982H742.883V148.892H733.909V142.13ZM744.437 153.064H732.341V152.14H744.437V153.064ZM755.528 151.44V141.192H756.522V154.1H755.528V152.35H751.594V151.44H755.528ZM749.858 147.548C747.982 147.548 746.47 146.624 746.47 144.762V144.524C746.47 142.662 747.982 141.738 749.858 141.738C751.72 141.738 753.232 142.662 753.232 144.524V144.762C753.232 146.624 751.72 147.548 749.858 147.548ZM747.478 144.552V144.734C747.478 145.98 748.472 146.652 749.858 146.652C751.23 146.652 752.224 145.98 752.224 144.734V144.552C752.224 143.306 751.23 142.634 749.858 142.634C748.472 142.634 747.478 143.306 747.478 144.552ZM754.296 148.654L754.408 149.536C753.148 149.718 751.636 149.858 750.208 149.928C750.11 151.286 749.97 152.714 749.788 154.212L748.794 154.1C748.976 152.63 749.116 151.3 749.214 149.97C748.794 149.984 748.402 149.984 748.024 149.984H745.784L745.728 149.06H748.08C749.676 149.06 752.266 148.906 754.296 148.654ZM768.818 141.192H769.812V148.248H768.818V141.192ZM766.074 141.878V142.564C766.074 145.434 763.708 147.338 759.928 148.444L759.62 147.632C761.65 147.044 763.246 146.162 764.184 145.098C762.882 145.224 761.104 145.308 759.844 145.308H759.564L759.522 144.468H759.802C761.062 144.468 763.4 144.37 764.772 144.23C765.01 143.768 765.136 143.278 765.136 142.774V142.76H759.788V141.878H766.074ZM764.254 149.032H766.984C768.874 149.032 769.994 150.18 769.994 151.636C769.994 153.106 768.874 154.226 766.984 154.226H764.254C762.364 154.226 761.244 153.106 761.244 151.636C761.244 150.18 762.364 149.032 764.254 149.032ZM764.464 153.33H766.774C768.272 153.33 769 152.602 769 151.622C769 150.684 768.272 149.928 766.774 149.928H764.464C762.966 149.928 762.238 150.684 762.238 151.622C762.238 152.602 762.966 153.33 764.464 153.33Z" fill="black"/>
<path d="M582.106 184.102V185.012H576.408V189.1H581.56V190.01H576.408V195.358H575.386V184.102H582.106ZM584.775 189.982V194.448H590.753V195.358H583.753V184.102H590.613V185.012H584.775V189.072H590.347V189.982H584.775ZM602.175 188.232V183.178H603.155V196.1H602.175V189.156H600.173V195.862H599.193V183.388H600.173V188.232H602.175ZM596.449 185.194H592.627V184.284H597.443V185.278C597.443 188.932 595.721 192.04 593.103 194.462L592.389 193.734C594.867 191.522 596.449 188.498 596.449 185.474V185.194ZM615.548 183.178V185.796H617.69V186.72H615.548V189.576H614.54V183.178H615.548ZM610.718 183.738H611.698V189.058H605.65V183.738H606.63V185.474H610.718V183.738ZM606.63 186.356V188.176H610.718V186.356H606.63ZM615.548 193.72H608.506V195.288H616.08V196.17H607.498V192.866H614.54V191.354H607.428V190.486H615.548V193.72ZM628.809 188.232H630.951V189.156H628.809V196.1H627.815V183.178H628.809V188.232ZM622.789 185.194V185.936C622.789 186.972 622.663 187.938 622.411 188.862L626.233 193.496L625.463 194.168L622.033 189.982C621.417 191.494 620.451 192.894 619.135 194.308L618.407 193.636C620.535 191.34 621.809 189.128 621.809 185.936V185.194H618.911V184.284H625.715V185.194H622.789ZM642.099 188.232H644.241V189.156H642.099V196.1H641.091V183.178H642.099V188.232ZM637.353 185.194H632.397V184.284H638.347V185.278C638.347 188.932 636.219 192.11 632.789 194.462L632.187 193.678C635.379 191.536 637.353 188.498 637.353 185.474V185.194ZM659.492 196.1H658.498V183.178H659.492V196.1ZM651.512 193.944H649.482V184.214H655.698V185.138H650.476V193.034H651.68C653.248 193.034 655.292 192.852 656.958 192.6L657.07 193.482C655.53 193.748 653.416 193.944 651.512 193.944ZM672.04 188.232H674.182V189.156H672.04V196.1H671.046V183.178H672.04V188.232ZM666.02 185.194V185.936C666.02 186.972 665.894 187.938 665.642 188.862L669.464 193.496L668.694 194.168L665.264 189.982C664.648 191.494 663.682 192.894 662.366 194.308L661.638 193.636C663.766 191.34 665.04 189.128 665.04 185.936V185.194H662.142V184.284H668.946V185.194H666.02ZM686.043 196.1H685.035V183.178H686.043V196.1ZM679.001 194.378C677.181 194.378 675.683 193.16 675.683 190.094V188.162C675.683 185.096 677.181 183.878 679.001 183.878C680.821 183.878 682.319 185.096 682.319 188.162V190.094C682.319 193.16 680.821 194.378 679.001 194.378ZM679.001 193.454C680.331 193.454 681.325 192.488 681.325 190.08V188.162C681.325 185.754 680.331 184.802 679.001 184.802C677.671 184.802 676.691 185.754 676.691 188.162V190.08C676.691 192.488 677.671 193.454 679.001 193.454ZM698.325 187.42V183.178H699.319V196.1H698.325V188.344H693.915V187.42H698.325ZM690.303 193.034H691.465C693.033 193.034 695.105 192.852 696.785 192.586L696.897 193.468C695.343 193.748 693.187 193.944 691.283 193.944H689.309V184.214H690.303V193.034ZM711.782 196.1V183.178H712.762V196.1H711.782ZM707.246 188.372H708.996V183.388H709.962V195.862H708.996V189.282H707.246V190.094C707.246 193.16 706.084 194.378 704.6 194.378C703.074 194.378 701.926 193.16 701.926 190.094V188.162C701.926 185.096 703.074 183.878 704.6 183.878C706.084 183.878 707.246 185.096 707.246 188.162V188.372ZM706.28 190.08V188.162C706.28 185.754 705.566 184.802 704.586 184.802C703.606 184.802 702.892 185.754 702.892 188.162V190.08C702.892 192.488 703.606 193.454 704.586 193.454C705.566 193.454 706.28 192.488 706.28 190.08ZM725.057 196.1V183.178H726.037V196.1H725.057ZM719.849 188.512H722.271V183.388H723.237V195.862H722.271V189.422H719.541C718.785 191.326 717.553 193.02 715.985 194.462L715.271 193.734C717.749 191.522 719.331 188.498 719.331 185.474V185.194H715.509V184.284H720.325V185.278C720.325 186.412 720.157 187.49 719.849 188.512ZM732.077 190.192V189.268H736.445V190.192H732.077ZM746.261 195.568C743.825 195.568 741.949 194.07 741.949 191.032V184.102H742.971V190.906C742.971 193.538 744.329 194.63 746.261 194.63C748.193 194.63 749.551 193.538 749.551 190.906V184.102H750.559V191.032C750.559 194.07 748.683 195.568 746.261 195.568ZM752.978 195.358H751.788L755.82 189.534L752.068 184.102H753.258L756.408 188.68L759.572 184.102H760.762L756.996 189.534L761.028 195.358H759.838L756.408 190.388L752.978 195.358ZM766.577 195.568C764.141 195.568 762.265 194.07 762.265 191.032V184.102H763.287V190.906C763.287 193.538 764.645 194.63 766.577 194.63C768.509 194.63 769.867 193.538 769.867 190.906V184.102H770.875V191.032C770.875 194.07 768.999 195.568 766.577 195.568ZM774.103 195.358H773.081V184.102H774.103V195.358ZM789.426 183.178V185.796H791.568V186.72H789.426V189.506H788.418V183.178H789.426ZM786.36 189.296L782.65 187C782.006 187.98 780.942 188.82 779.458 189.576L778.996 188.75C781.236 187.56 782.454 186.216 782.454 184.368V183.626H783.434V184.368C783.434 185.012 783.322 185.614 783.098 186.16L786.878 188.498L786.36 189.296ZM789.426 193.692H782.384V195.288H789.958V196.17H781.39V192.824H788.418V191.284H781.32V190.43H789.426V193.692ZM802.422 186.79V183.178H803.416V196.1H802.422V190.682H800.042V189.758H802.422V187.7H800.042V186.79H802.422ZM798.712 185.138V192.838C799.454 192.768 800.21 192.684 800.91 192.586L801.022 193.482C799.09 193.776 796.752 193.958 794.82 193.958H792.846L792.79 193.034H794.47V185.138H792.944V184.214H800.378V185.138H798.712ZM797.732 192.922V185.138H795.436V193.034C796.136 193.02 796.92 192.978 797.732 192.922ZM812.337 191.032V194.14H817.881V195.064H805.785V194.14H811.343V191.032H807.353V184.06H808.347V186.664H815.319V184.06H816.327V191.032H812.337ZM815.319 187.588H808.347V190.122H815.319V187.588ZM828.987 196.1V183.178H829.981V196.1H828.987ZM825.039 185.194H819.943V184.284H826.047V185.278C826.047 188.932 823.863 192.124 820.335 194.462L819.747 193.678C823.023 191.55 825.039 188.498 825.039 185.474V185.194Z" fill="black"/>
<path d="M619.164 229.492H617.33C615.02 229.492 613.592 228.344 613.592 226.566C613.592 224.816 615.02 223.668 617.33 223.668H619.164C621.46 223.668 622.916 224.816 622.916 226.566C622.916 228.344 621.46 229.492 619.164 229.492ZM618.996 224.564H617.484C615.636 224.564 614.586 225.376 614.586 226.566C614.586 227.784 615.636 228.596 617.484 228.596H618.996C620.858 228.596 621.908 227.77 621.908 226.566C621.908 225.376 620.858 224.564 618.996 224.564ZM612.192 231.368H624.288V232.278H618.744V236.24H617.75V232.278H612.192V231.368ZM635.379 236.1V223.178H636.373V236.1H635.379ZM632.005 225.138V232.824C632.719 232.754 633.433 232.656 634.105 232.558L634.217 233.468C632.215 233.776 629.807 233.958 627.847 233.958H625.803L625.747 233.034H627.483V225.138H625.915V224.214H633.573V225.138H632.005ZM631.011 232.908V225.138H628.463V233.034C629.219 233.02 630.101 232.978 631.011 232.908ZM645.294 231.368V234.14H650.838V235.064H638.742V234.14H644.3V231.368H640.31V227.28H648.276V225.04H640.24V224.13H649.284V228.176H641.304V230.472H649.564V231.368H645.294ZM661.974 230.752V234.14H667.518V235.064H655.422V234.14H660.98V230.752H656.99V224.13H657.984V229.842H666.062V230.752H661.974ZM678.287 227.672C678.357 226.86 678.399 226.146 678.399 225.614V225.18H670.069V224.27H679.393V225.39C679.393 227.21 679.085 229.856 678.679 232.054L677.699 231.886C677.895 230.836 678.077 229.674 678.189 228.596C676.187 228.792 672.981 228.932 671.021 228.932H670.041L669.999 228.022H671.091C672.813 228.022 676.215 227.896 678.287 227.672ZM674.507 230.29V234.14H680.793V235.064H668.697V234.14H673.513V230.29H674.507ZM683.541 224.13H692.389V225.054H684.535V229.982H692.515V230.892H683.541V224.13ZM694.069 235.064H681.973V234.14H694.069V235.064ZM708.9 231.06V223.178H709.866V231.06H708.9ZM703.146 230.472V229.688H706.282V223.318H707.234V231.06H706.282V230.472H703.146ZM701.914 227.462C700.318 227.462 699.156 226.776 699.156 225.53V225.418C699.156 224.144 700.318 223.472 701.914 223.472C703.496 223.472 704.658 224.144 704.658 225.418V225.53C704.658 226.776 703.496 227.462 701.914 227.462ZM700.094 225.432V225.502C700.094 226.174 700.85 226.65 701.914 226.65C702.978 226.65 703.72 226.174 703.72 225.502V225.432C703.72 224.732 702.978 224.284 701.914 224.284C700.85 224.284 700.094 224.732 700.094 225.432ZM702.054 231.228L701.088 231.158C701.158 230.514 701.228 229.8 701.27 229.156C700.864 229.17 700.486 229.17 700.122 229.17H698.596L698.554 228.33H700.164C701.452 228.33 703.552 228.232 705.316 228.008L705.4 228.82C704.42 228.96 703.3 229.058 702.222 229.114C702.18 229.8 702.11 230.542 702.054 231.228ZM702.264 232.978H708.886V231.634H709.866V236.1H701.284V231.634H702.264V232.978ZM702.264 233.804V235.26H708.886V233.804H702.264ZM722.12 228.232H724.262V229.156H722.12V236.1H721.112V223.178H722.12V228.232ZM716.044 223.976V225.6C716.044 226.72 715.904 227.77 715.638 228.778L719.502 233.524L718.76 234.168L715.274 229.884C714.672 231.438 713.692 232.894 712.32 234.308L711.62 233.636C713.902 231.298 715.064 228.834 715.064 225.6V223.976H716.044ZM736.123 236.1H735.115V223.178H736.123V236.1ZM729.081 234.378C727.261 234.378 725.763 233.16 725.763 230.094V228.162C725.763 225.096 727.261 223.878 729.081 223.878C730.901 223.878 732.399 225.096 732.399 228.162V230.094C732.399 233.16 730.901 234.378 729.081 234.378ZM729.081 233.454C730.411 233.454 731.405 232.488 731.405 230.08V228.162C731.405 225.754 730.411 224.802 729.081 224.802C727.751 224.802 726.771 225.754 726.771 228.162V230.08C726.771 232.488 727.751 233.454 729.081 233.454ZM741.041 230.598H749.301V231.508H740.047V224.13H749.021V225.04H741.041V227.35H749.021V228.246H741.041V230.598ZM738.479 235.064V234.14H750.575V235.064H738.479ZM765.364 223.178V226.608H767.506V227.532H765.364V232.992H764.356V223.178H765.364ZM755.466 223.948H761.514V230.332H755.466V223.948ZM756.446 229.436H760.534V224.844H756.446V229.436ZM757.314 232.166H758.322V235.176H766.092V236.1H757.314V232.166ZM770.128 223.43H778.71V224.27H771.122V226.552H778.85V227.392H770.128V223.43ZM780.53 229.422H768.434V228.568H780.53V229.422ZM779.326 236.17H770.002V232.978H777.968V231.536H769.932V230.682H778.976V233.818H770.996V235.316H779.326V236.17ZM791.635 236.1V223.178H792.629V236.1H791.635ZM787.687 225.194H782.591V224.284H788.695V225.278C788.695 228.932 786.511 232.124 782.983 234.462L782.395 233.678C785.671 231.55 787.687 228.498 787.687 225.474V225.194Z" fill="black"/>
<path d="M564.842 281.752V285.14H570.386V286.064H558.29V285.14H563.848V281.752H559.858V275.13H568.832V281.752H564.842ZM567.824 276.04H560.852V280.856H567.824V276.04ZM574.128 279.4H582.108V280.296H573.134V274.864H581.982V275.774H574.128V279.4ZM571.566 282.368H583.662V283.278H578.118V287.254H577.124V283.278H571.566V282.368ZM595.047 279.232H597.189V280.156H595.047V287.1H594.039V274.178H595.047V279.232ZM590.301 276.194H585.345V275.284H591.295V276.278C591.295 279.932 589.167 283.11 585.737 285.462L585.135 284.678C588.327 282.536 590.301 279.498 590.301 276.474V276.194ZM611.713 274.178V276.796H613.869V277.72H611.713V280.506H610.719V274.178H611.713ZM608.269 277.188V277.412C608.269 279.218 606.813 280.128 604.993 280.128C603.145 280.128 601.689 279.218 601.689 277.412V277.188C601.689 275.368 603.145 274.472 604.993 274.472C606.813 274.472 608.269 275.368 608.269 277.188ZM602.683 277.202V277.384C602.683 278.588 603.649 279.218 604.993 279.218C606.309 279.218 607.261 278.588 607.261 277.384V277.202C607.261 276.026 606.309 275.368 604.993 275.368C603.649 275.368 602.683 276.026 602.683 277.202ZM611.713 284.692H604.685V286.288H612.259V287.17H603.677V283.824H610.719V282.284H603.607V281.43H611.713V284.692ZM624.988 279.232H627.144V280.156H624.988V287.1H623.994V274.178H624.988V279.232ZM618.226 274.878C620.018 274.878 621.474 276.096 621.474 279.162V281.094C621.474 284.16 620.018 285.378 618.226 285.378C616.42 285.378 614.964 284.16 614.964 281.094V279.162C614.964 276.096 616.42 274.878 618.226 274.878ZM620.466 281.08V279.162C620.466 276.754 619.514 275.802 618.226 275.802C616.924 275.802 615.958 276.754 615.958 279.162V281.08C615.958 283.488 616.924 284.454 618.226 284.454C619.514 284.454 620.466 283.488 620.466 281.08ZM640.419 277.202V278.126H638.263V281.528H640.419V282.452H638.263V287.1H637.269V274.178H638.263V277.202H640.419ZM631.501 274.878C633.293 274.878 634.749 276.096 634.749 279.162V281.094C634.749 284.16 633.293 285.378 631.501 285.378C629.695 285.378 628.239 284.16 628.239 281.094V279.162C628.239 276.096 629.695 274.878 631.501 274.878ZM633.741 281.08V279.162C633.741 276.754 632.789 275.802 631.501 275.802C630.199 275.802 629.233 276.754 629.233 279.162V281.08C629.233 283.488 630.199 284.454 631.501 284.454C632.789 284.454 633.741 283.488 633.741 281.08ZM649.063 275.396H652.311V276.236H644.821V275.396H648.069V274.01H649.063V275.396ZM654.943 274.178V277.202H657.099V278.126H654.943V280.912H653.949V274.178H654.943ZM651.709 278.854V279.022C651.709 280.282 650.337 280.954 648.587 280.954C646.837 280.954 645.451 280.282 645.451 279.022V278.854C645.451 277.594 646.837 276.936 648.587 276.936C650.337 276.936 651.709 277.594 651.709 278.854ZM646.445 278.896V279.008C646.445 279.68 647.383 280.114 648.587 280.114C649.777 280.114 650.729 279.68 650.729 279.008V278.896C650.729 278.21 649.777 277.776 648.587 277.776C647.383 277.776 646.445 278.21 646.445 278.896ZM654.943 284.874H647.915V286.316H655.475V287.156H646.907V284.048H653.949V282.648H646.837V281.822H654.943V284.874ZM671.679 282.06V274.178H672.645V282.06H671.679ZM665.925 281.472V280.688H669.061V274.318H670.013V282.06H669.061V281.472H665.925ZM664.693 278.462C663.097 278.462 661.935 277.776 661.935 276.53V276.418C661.935 275.144 663.097 274.472 664.693 274.472C666.275 274.472 667.437 275.144 667.437 276.418V276.53C667.437 277.776 666.275 278.462 664.693 278.462ZM662.873 276.432V276.502C662.873 277.174 663.629 277.65 664.693 277.65C665.757 277.65 666.499 277.174 666.499 276.502V276.432C666.499 275.732 665.757 275.284 664.693 275.284C663.629 275.284 662.873 275.732 662.873 276.432ZM664.833 282.228L663.867 282.158C663.937 281.514 664.007 280.8 664.049 280.156C663.643 280.17 663.265 280.17 662.901 280.17H661.375L661.333 279.33H662.943C664.231 279.33 666.331 279.232 668.095 279.008L668.179 279.82C667.199 279.96 666.079 280.058 665.001 280.114C664.959 280.8 664.889 281.542 664.833 282.228ZM665.043 283.978H671.665V282.634H672.645V287.1H664.063V282.634H665.043V283.978ZM665.043 284.804V286.26H671.665V284.804H665.043ZM688.022 276.95V274.178H689.016V280.926H688.022V277.832H685.236V276.95H688.022ZM685.698 280.912L682.002 278.434C681.358 279.428 680.28 280.296 678.768 281.122L678.292 280.296C680.504 279.036 681.75 277.762 681.75 275.928V275.774H678.81V274.878H685.684V275.774H682.73V275.928C682.73 276.53 682.632 277.09 682.422 277.622L686.202 280.1L685.698 280.912ZM681.708 283.418H688.022V281.696H689.016V287.1H680.714V281.696H681.708V283.418ZM681.708 284.314V286.19H688.022V284.314H681.708ZM701.116 280.268H703.482V281.192H691.386V280.268H700.108C700.43 278.56 700.626 276.726 700.626 275.746V275.55H692.912V274.64H701.62V275.522C701.62 276.838 701.424 278.602 701.116 280.268ZM693.08 282.816H694.074V286.19H702.138V287.1H693.08V282.816ZM715.567 281.248H714.573V277.678H711.521V276.782H714.573V274.192H715.567V281.248ZM712.151 280.94L708.469 278.322C707.825 279.372 706.775 280.296 705.319 281.136L704.801 280.324C707.055 278.994 708.259 277.496 708.259 275.48V274.64H709.253V275.48C709.253 276.194 709.141 276.852 708.903 277.468L712.683 280.142L712.151 280.94ZM710.023 282.032H712.739C714.643 282.032 715.763 283.18 715.763 284.636C715.763 286.106 714.643 287.226 712.739 287.226H710.023C708.119 287.226 706.999 286.106 706.999 284.636C706.999 283.18 708.119 282.032 710.023 282.032ZM710.219 286.33H712.543C714.041 286.33 714.755 285.602 714.755 284.622C714.755 283.684 714.041 282.928 712.543 282.928H710.219C708.721 282.928 707.993 283.684 707.993 284.622C707.993 285.602 708.721 286.33 710.219 286.33ZM728.255 279.372H730.271V280.282H728.255V287.1H727.261V274.178H728.255V279.372ZM723.929 276.516V276.194H718.637V275.284H724.937V276.264C724.937 278.014 724.671 280.17 724.279 282.186L723.299 282.018C723.691 280.016 723.929 277.832 723.929 276.516ZM721.521 279.232V284.02C722.935 283.964 724.629 283.838 726.029 283.656L726.141 284.538C724.251 284.804 721.759 284.972 719.911 284.972H717.783L717.741 284.048H719.967H720.513V279.232H721.521ZM744.038 278.868C744.122 278 744.164 277.216 744.164 276.642V276.18H736.114V275.27H745.158V276.418C745.158 278.35 744.836 281.136 744.402 283.46L743.422 283.278C743.632 282.172 743.814 280.94 743.94 279.792C741.98 280.002 738.914 280.114 736.996 280.114H736.086L736.044 279.204H737.052C738.774 279.204 742.008 279.078 744.038 278.868ZM734.616 286.064V285.14H746.712V286.064H734.616ZM754.444 279.904V281.192H759.988V282.046H747.892V281.192H753.45V279.904H749.586V276.782H757.3V275.354H749.516V274.5H758.308V277.622H750.58V279.064H758.574V279.904H754.444ZM758.448 287.1H749.46V283.25H758.448V287.1ZM757.44 284.076H750.454V286.26H757.44V284.076ZM774.679 279.232V274.178H775.659V287.1H774.679V280.156H772.677V286.862H771.697V274.388H772.677V279.232H774.679ZM768.953 276.194H765.131V275.284H769.947V276.278C769.947 279.932 768.225 283.04 765.607 285.462L764.893 284.734C767.371 282.522 768.953 279.498 768.953 276.474V276.194ZM788.053 274.178V276.796H790.195V277.72H788.053V280.576H787.045V274.178H788.053ZM783.223 274.738H784.203V280.058H778.155V274.738H779.135V276.474H783.223V274.738ZM779.135 277.356V279.176H783.223V277.356H779.135ZM788.053 284.72H781.011V286.288H788.585V287.17H780.003V283.866H787.045V282.354H779.933V281.486H788.053V284.72ZM801.314 279.232H803.456V280.156H801.314V287.1H800.32V274.178H801.314V279.232ZM795.294 276.194V276.936C795.294 277.972 795.168 278.938 794.916 279.862L798.738 284.496L797.968 285.168L794.538 280.982C793.922 282.494 792.956 283.894 791.64 285.308L790.912 284.636C793.04 282.34 794.314 280.128 794.314 276.936V276.194H791.416V275.284H798.22V276.194H795.294ZM810.95 281.752V285.14H816.494V286.064H804.398V285.14H809.956V281.752H805.966V275.13H814.814V276.04H806.96V280.856H814.94V281.752H810.95ZM827.501 281.15H829.769V282.074H824.225V287.254H823.231V282.074H817.673V281.15H826.493C826.829 279.288 827.053 277.258 827.053 276.124V275.83H819.059V274.906H828.047V275.9C828.047 277.37 827.823 279.316 827.501 281.15ZM838.217 286.568C836.299 286.568 834.549 285.294 834.549 282.9V281.71C834.549 279.33 836.299 278.056 838.217 278.056C840.163 278.056 841.899 279.33 841.899 281.71V282.9C841.899 285.294 840.163 286.568 838.217 286.568ZM838.217 285.644C839.659 285.644 840.891 284.636 840.891 282.858V281.766C840.891 279.988 839.659 278.994 838.217 278.994C836.775 278.994 835.571 279.988 835.571 281.766V282.858C835.571 284.636 836.789 285.644 838.217 285.644ZM846.906 278.056C847.312 278.056 847.676 278.112 847.984 278.224L847.746 279.134C847.41 279.05 847.06 278.994 846.752 278.994C845.59 278.994 844.848 280.184 844.848 281.556V286.358H843.826V278.266H844.764L844.82 279.54C845.226 278.658 845.94 278.056 846.906 278.056ZM610.404 308.752V312.14H615.948V313.064H603.852V312.14H609.41V308.752H605.42V302.13H614.394V308.752H610.404ZM613.386 303.04H606.414V307.856H613.386V303.04ZM619.689 306.4H627.669V307.296H618.695V301.864H627.543V302.774H619.689V306.4ZM617.127 309.368H629.223V310.278H623.679V314.254H622.685V310.278H617.127V309.368ZM640.608 306.232H642.75V307.156H640.608V314.1H639.6V301.178H640.608V306.232ZM635.862 303.194H630.906V302.284H636.856V303.278C636.856 306.932 634.728 310.11 631.298 312.462L630.696 311.678C633.888 309.536 635.862 306.498 635.862 303.474V303.194ZM657.274 301.178V303.796H659.43V304.72H657.274V307.506H656.28V301.178H657.274ZM653.83 304.188V304.412C653.83 306.218 652.374 307.128 650.554 307.128C648.706 307.128 647.25 306.218 647.25 304.412V304.188C647.25 302.368 648.706 301.472 650.554 301.472C652.374 301.472 653.83 302.368 653.83 304.188ZM648.244 304.202V304.384C648.244 305.588 649.21 306.218 650.554 306.218C651.87 306.218 652.822 305.588 652.822 304.384V304.202C652.822 303.026 651.87 302.368 650.554 302.368C649.21 302.368 648.244 303.026 648.244 304.202ZM657.274 311.692H650.246V313.288H657.82V314.17H649.238V310.824H656.28V309.284H649.168V308.43H657.274V311.692ZM670.55 306.232H672.706V307.156H670.55V314.1H669.556V301.178H670.55V306.232ZM663.788 301.878C665.58 301.878 667.036 303.096 667.036 306.162V308.094C667.036 311.16 665.58 312.378 663.788 312.378C661.982 312.378 660.526 311.16 660.526 308.094V306.162C660.526 303.096 661.982 301.878 663.788 301.878ZM666.028 308.08V306.162C666.028 303.754 665.076 302.802 663.788 302.802C662.486 302.802 661.52 303.754 661.52 306.162V308.08C661.52 310.488 662.486 311.454 663.788 311.454C665.076 311.454 666.028 310.488 666.028 308.08ZM685.981 304.202V305.126H683.825V308.528H685.981V309.452H683.825V314.1H682.831V301.178H683.825V304.202H685.981ZM677.063 301.878C678.855 301.878 680.311 303.096 680.311 306.162V308.094C680.311 311.16 678.855 312.378 677.063 312.378C675.257 312.378 673.801 311.16 673.801 308.094V306.162C673.801 303.096 675.257 301.878 677.063 301.878ZM679.303 308.08V306.162C679.303 303.754 678.351 302.802 677.063 302.802C675.761 302.802 674.795 303.754 674.795 306.162V308.08C674.795 310.488 675.761 311.454 677.063 311.454C678.351 311.454 679.303 310.488 679.303 308.08ZM694.625 302.396H697.873V303.236H690.383V302.396H693.631V301.01H694.625V302.396ZM700.505 301.178V304.202H702.661V305.126H700.505V307.912H699.511V301.178H700.505ZM697.271 305.854V306.022C697.271 307.282 695.899 307.954 694.149 307.954C692.399 307.954 691.013 307.282 691.013 306.022V305.854C691.013 304.594 692.399 303.936 694.149 303.936C695.899 303.936 697.271 304.594 697.271 305.854ZM692.007 305.896V306.008C692.007 306.68 692.945 307.114 694.149 307.114C695.339 307.114 696.291 306.68 696.291 306.008V305.896C696.291 305.21 695.339 304.776 694.149 304.776C692.945 304.776 692.007 305.21 692.007 305.896ZM700.505 311.874H693.477V313.316H701.037V314.156H692.469V311.048H699.511V309.648H692.399V308.822H700.505V311.874ZM716.918 314.1V301.178H717.912V314.1H716.918ZM712.97 303.194H707.874V302.284H713.978V303.278C713.978 306.932 711.794 310.124 708.266 312.462L707.678 311.678C710.954 309.55 712.97 306.498 712.97 303.474V303.194ZM726.82 306.946V308.598H732.364V309.522H720.268V308.598H725.826V306.946H721.962V301.43H722.956V303.348H729.676V301.43H730.684V306.946H726.82ZM729.676 304.216H722.956V306.064H729.676V304.216ZM721.962 310.614H722.956V313.176H731.02V314.1H721.962V310.614ZM745.599 308.248H747.699V309.172H738.305V308.248H740.405V303.054H738.305V302.13H747.699V303.054H745.599V308.248ZM744.619 303.054H741.385V308.248H744.619V303.054ZM736.947 313.064V312.14H749.043V313.064H736.947ZM756.775 309.368V312.14H762.319V313.064H750.223V312.14H755.781V309.368H751.791V305.28H759.757V303.04H751.721V302.13H760.765V306.176H752.785V308.472H761.045V309.368H756.775ZM772.878 303.642V303.18H764.884V302.27H773.872V303.418C773.872 305.35 773.55 307.94 773.116 310.25L772.136 310.082C772.57 307.786 772.878 305.14 772.878 303.642ZM763.498 313.064V312.14H775.594V313.064H763.498ZM786.882 306.232V301.178H787.862V314.1H786.882V307.156H784.88V313.862H783.9V301.388H784.88V306.232H786.882ZM778.202 311.314H779.084C780.484 311.314 781.52 311.216 782.822 311.006L782.934 311.888C781.716 312.112 780.638 312.224 778.916 312.224H777.236V306.694H781.044V303.124H777.236V302.214H782.024V307.604H778.202V311.314ZM800.969 308.248H799.975V301.192H800.969V308.248ZM796.937 307.534H790.749V301.878H796.937V307.534ZM791.729 302.788V306.624H795.943V302.788H791.729ZM798.141 314.226H795.411C793.521 314.226 792.401 313.106 792.401 311.636C792.401 310.18 793.521 309.032 795.411 309.032H798.141C800.031 309.032 801.165 310.18 801.165 311.636C801.165 313.106 800.031 314.226 798.141 314.226ZM795.621 313.33H797.931C799.443 313.33 800.157 312.602 800.157 311.622C800.157 310.684 799.443 309.928 797.931 309.928H795.621C794.123 309.928 793.395 310.684 793.395 311.622C793.395 312.602 794.123 313.33 795.621 313.33Z" fill="black"/>
<path d="M658.696 361.1V348.178H659.69V361.1H658.696ZM655.322 350.138V357.824C656.036 357.754 656.75 357.656 657.422 357.558L657.534 358.468C655.532 358.776 653.124 358.958 651.164 358.958H649.12L649.064 358.034H650.8V350.138H649.232V349.214H656.89V350.138H655.322ZM654.328 357.908V350.138H651.78V358.034C652.536 358.02 653.418 357.978 654.328 357.908ZM671.44 350.642V350.18H663.446V349.27H672.434V350.418C672.434 352.35 672.112 354.94 671.678 357.25L670.698 357.082C671.132 354.786 671.44 352.14 671.44 350.642ZM662.06 360.064V359.14H674.156V360.064H662.06ZM685.541 353.232H687.683V354.156H685.541V361.1H684.533V348.178H685.541V353.232ZM681.691 358.972H675.643V349.214H681.691V358.972ZM680.697 350.138H676.637V358.048H680.697V350.138ZM695.162 356.368V359.14H700.706V360.064H688.61V359.14H694.168V356.368H690.178V352.28H698.144V350.04H690.108V349.13H699.152V353.176H691.172V355.472H699.432V356.368H695.162ZM709.742 349.466H712.836V350.32H705.64V349.466H708.72V348.01H709.742V349.466ZM715.202 351.118V348.178H716.196V355.332H715.202V354.31H712.822V353.47H715.202V351.944H712.822V351.118H715.202ZM712.248 353.12V353.302C712.248 354.646 710.946 355.374 709.252 355.374C707.544 355.374 706.256 354.646 706.256 353.302V353.12C706.256 351.79 707.544 351.062 709.252 351.062C710.946 351.062 712.248 351.79 712.248 353.12ZM707.208 353.148V353.288C707.208 354.03 708.09 354.52 709.252 354.52C710.4 354.52 711.282 354.03 711.282 353.288V353.148C711.282 352.406 710.4 351.916 709.252 351.916C708.09 351.916 707.208 352.406 707.208 353.148ZM708.888 357.642H715.202V356.102H716.196V361.086H707.894V356.102H708.888V357.642ZM708.888 358.538V360.204H715.202V358.538H708.888ZM728.478 351.076V348.178H729.486V354.926H728.478V351.986H725.818C725.65 353.68 724.222 354.534 722.486 354.534C720.624 354.534 719.126 353.568 719.126 351.65V351.412C719.126 349.48 720.624 348.528 722.486 348.528C724.222 348.528 725.65 349.368 725.818 351.076H728.478ZM724.838 351.636V351.426C724.838 350.124 723.844 349.438 722.486 349.438C721.114 349.438 720.134 350.124 720.134 351.426V351.636C720.134 352.924 721.114 353.624 722.486 353.624C723.844 353.624 724.838 352.924 724.838 351.636ZM722.178 357.418H728.478V355.696H729.486V361.1H721.184V355.696H722.178V357.418ZM722.178 358.314V360.19H728.478V358.314H722.178ZM742.033 353.232H744.189V354.156H742.033V361.1H741.039V348.178H742.033V353.232ZM735.159 348.192H736.153V350.236H739.401V351.146H731.911V350.236H735.159V348.192ZM735.677 352.476C737.413 352.476 738.785 353.624 738.785 355.5V356.242C738.785 358.104 737.413 359.28 735.677 359.28C733.927 359.28 732.541 358.104 732.541 356.242V355.5C732.541 353.624 733.927 352.476 735.677 352.476ZM737.791 356.2V355.542C737.791 354.198 736.853 353.4 735.677 353.4C734.473 353.4 733.549 354.198 733.549 355.542V356.2C733.549 357.544 734.473 358.37 735.677 358.37C736.853 358.37 737.791 357.544 737.791 356.2ZM755.042 361.1V348.178H756.036V361.1H755.042ZM751.094 350.194H745.998V349.284H752.102V350.278C752.102 353.932 749.918 357.124 746.39 359.462L745.802 358.678C749.078 356.55 751.094 353.498 751.094 350.474V350.194Z" fill="black"/>
<path d="M648.36 389.586V389.18H640.1V388.27H649.354V389.362C649.354 391.182 649.046 393.646 648.64 395.858L647.66 395.676C648.066 393.506 648.36 391 648.36 389.586ZM645.952 392.792V398.14H650.838V399.064H638.742V398.14H641.71V392.792H642.676V398.14H644.986V392.792H645.952ZM658.976 392.078H657.17C654.93 392.078 653.516 391.28 653.516 389.712C653.516 388.158 654.93 387.36 657.17 387.36H658.976C661.216 387.36 662.63 388.158 662.63 389.712C662.63 391.28 661.216 392.078 658.976 392.078ZM658.808 388.256H657.338C655.518 388.256 654.51 388.774 654.51 389.726C654.51 390.65 655.518 391.196 657.338 391.196H658.808C660.628 391.196 661.622 390.65 661.622 389.726C661.622 388.774 660.628 388.256 658.808 388.256ZM664.114 393.464V394.346H660.768V396.04H662.56V400.24H661.552V396.95H653.586V396.04H655.392V394.346H652.018V393.464H664.114ZM656.372 396.04H659.788V394.346H656.372V396.04ZM670.069 392.316L669.789 391.462C672.799 390.706 674.339 389.628 674.339 388.382H670.461V387.5H679.043V388.382H675.319C675.319 388.816 675.207 389.236 674.997 389.614L679.687 391.49L679.323 392.316L674.423 390.342C673.597 391.14 672.169 391.784 670.069 392.316ZM675.249 391.896V393.366H680.793V394.248H668.697V393.366H674.255V391.896H675.249ZM673.331 395.634H676.159C678.273 395.634 679.379 396.614 679.379 397.93C679.379 399.274 678.273 400.24 676.159 400.24H673.331C671.231 400.24 670.125 399.274 670.125 397.93C670.125 396.614 671.231 395.634 673.331 395.634ZM673.555 399.358H675.935C677.587 399.358 678.371 398.784 678.371 397.93C678.371 397.076 677.587 396.53 675.935 396.53H673.555C671.903 396.53 671.119 397.076 671.119 397.93C671.119 398.784 671.903 399.358 673.555 399.358ZM683.541 391.14H691.507V389.04H683.471V388.13H692.515V392.036H684.535V394.206H692.795V395.102H683.541V391.14ZM690.681 395.872V398.14H694.069V399.064H681.973V398.14H685.375V395.872H686.355V398.14H689.701V395.872H690.681ZM708.592 387.192H709.586V394.248H708.592V387.192ZM699.366 387.808H705.54V393.058H699.366V387.808ZM700.346 392.176H704.56V388.69H700.346V392.176ZM705.764 397.496L710.412 399.372L710.034 400.226L705.204 398.224C704.35 399.05 702.838 399.722 700.71 400.226L700.416 399.358C703.244 398.672 704.98 397.706 704.98 396.53V396.516H701.074V395.634H704.98V394.052H706.002V395.634H709.782V396.516H706.002V396.53C706.002 396.866 705.918 397.188 705.764 397.496ZM725.426 400.1V387.178H726.406V400.1H725.426ZM718.888 390.3V390.496C718.888 391.406 718.79 392.26 718.608 393.086L721.688 397.566L720.89 398.154L718.258 394.29C717.782 395.662 717.012 396.964 715.934 398.308L715.192 397.692C716.984 395.424 717.922 393.31 717.922 390.496V390.3H715.584V389.39H717.922V387.192H718.902V389.39H721.282V390.3H718.888ZM720.358 392.372H722.64V387.388H723.606V399.862H722.64V393.282H720.358V392.372ZM738.03 391.868C738.114 391 738.156 390.216 738.156 389.642V389.18H730.106V388.27H739.15V389.418C739.15 391.35 738.828 394.136 738.394 396.46L737.414 396.278C737.624 395.172 737.806 393.94 737.932 392.792C735.972 393.002 732.906 393.114 730.988 393.114H730.078L730.036 392.204H731.044C732.766 392.204 736 392.078 738.03 391.868ZM728.608 399.064V398.14H740.704V399.064H728.608ZM752.075 392.232H754.231V393.156H752.075V400.1H751.081V387.178H752.075V392.232ZM745.313 387.878C747.105 387.878 748.561 389.096 748.561 392.162V394.094C748.561 397.16 747.105 398.378 745.313 398.378C743.507 398.378 742.051 397.16 742.051 394.094V392.162C742.051 389.096 743.507 387.878 745.313 387.878ZM747.553 394.08V392.162C747.553 389.754 746.601 388.802 745.313 388.802C744.011 388.802 743.045 389.754 743.045 392.162V394.08C743.045 396.488 744.011 397.454 745.313 397.454C746.601 397.454 747.553 396.488 747.553 394.08ZM762.116 391.994H760.296C758.07 391.994 756.656 391.21 756.656 389.67C756.656 388.116 758.07 387.36 760.296 387.36H762.116C764.356 387.36 765.77 388.116 765.77 389.67C765.77 391.21 764.356 391.994 762.116 391.994ZM761.962 388.256H760.464C758.644 388.256 757.65 388.76 757.65 389.684C757.65 390.608 758.644 391.112 760.464 391.112H761.962C763.768 391.112 764.762 390.594 764.762 389.684C764.762 388.76 763.768 388.256 761.962 388.256ZM755.158 394.276V393.408H767.254V394.276H761.71V395.578H760.716V394.276H755.158ZM761.794 396.012V396.558C761.794 396.964 761.682 397.328 761.486 397.664L766.344 399.274L766.022 400.17L760.828 398.42C759.862 399.218 758.252 399.792 756.376 400.24L756.096 399.344C758.7 398.742 760.772 397.832 760.772 396.558V396.012H761.794Z" fill="black"/>
<path d="M87.3866 23.506H86.0006V17.164H87.3866V23.506ZM80.2466 23.212C78.2866 23.212 76.7606 22.274 76.7606 20.398V20.188C76.7606 18.298 78.2866 17.374 80.2466 17.374C82.1786 17.374 83.7186 18.298 83.7186 20.188V20.398C83.7186 22.274 82.1786 23.212 80.2466 23.212ZM80.2466 21.98C81.4366 21.98 82.3186 21.434 82.3186 20.37V20.216C82.3186 19.152 81.4366 18.606 80.2466 18.606C79.0426 18.606 78.1606 19.152 78.1606 20.216V20.37C78.1606 21.434 79.0426 21.98 80.2466 21.98ZM87.8766 30.226H78.8046V26.656H86.0006V25.48H78.7346V24.318H87.3866V27.804H80.2046V29.036H87.8766V30.226ZM99.934 22.05H101.936V23.324H99.934V30.156H98.534V17.164H99.934V22.05ZM93.914 19.46V20.02C93.914 21 93.802 21.924 93.564 22.82L97.246 27.342L96.196 28.252L93.032 24.346C92.43 25.76 91.506 27.076 90.274 28.392L89.28 27.468C91.394 25.186 92.556 23.016 92.556 20.02V19.46H89.784V18.186H96.728V19.46H93.914Z" fill="black"/>
<path d="M292.487 30.156V17.164H293.887V30.156H292.487ZM287.545 17.92V19.614C287.545 20.72 287.419 21.756 287.153 22.75L291.003 27.356L289.953 28.252L286.635 24.248C286.005 25.704 285.053 27.062 283.723 28.392L282.743 27.454C285.081 25.102 286.187 22.722 286.187 19.614V17.92H287.545ZM306.434 17.164V20.426H308.45V21.686H306.434V26.894H305.034V17.164H306.434ZM302.654 17.92V18.718C302.654 21.7 300.442 23.786 296.816 25.158L296.214 23.968C299.35 22.778 301.156 21 301.254 19.194H296.508V17.92H302.654ZM298.118 25.942H299.504V28.882H307.106V30.156H298.118V25.942Z" fill="black"/>
<path d="M700.239 22.05V17.164H701.597V30.156H700.239V23.324H698.573V29.89H697.257V17.36H698.573V22.05H700.239ZM692.161 26.768H692.791C693.799 26.768 694.947 26.698 696.249 26.502L696.389 27.734C695.129 27.958 693.939 28.042 692.595 28.042H690.761V18.116H692.161V26.768ZM712.408 21.84V23.268H715.74V24.472H703.532V23.268H706.878V21.84C705.688 21.518 704.96 20.79 704.96 19.67C704.96 18.074 706.43 17.304 708.614 17.304H710.658C712.856 17.304 714.312 18.074 714.312 19.67C714.312 20.79 713.598 21.504 712.408 21.84ZM706.36 19.684C706.36 20.468 707.256 20.888 708.866 20.888H710.42C712.03 20.888 712.926 20.454 712.926 19.684C712.926 18.886 712.03 18.48 710.42 18.48H708.866C707.256 18.48 706.36 18.886 706.36 19.684ZM708.208 22.036V23.268H711.078V22.036C710.126 22.05 709.16 22.05 708.208 22.036ZM708.152 25.578H711.12C713.22 25.578 714.382 26.572 714.382 27.93C714.382 29.302 713.22 30.296 711.12 30.296H708.152C706.052 30.296 704.89 29.302 704.89 27.93C704.89 26.572 706.052 25.578 708.152 25.578ZM708.432 29.078H710.854C712.324 29.078 712.996 28.63 712.996 27.916C712.996 27.23 712.324 26.782 710.854 26.782H708.432C706.962 26.782 706.29 27.23 706.29 27.916C706.29 28.63 706.962 29.078 708.432 29.078Z" fill="black"/>
<path d="M254.349 154.61C252.081 154.61 250.233 152.986 250.233 149.822V147.624C250.233 144.488 252.081 142.85 254.349 142.85C256.617 142.85 258.479 144.488 258.479 147.624V149.822C258.479 152.986 256.617 154.61 254.349 154.61ZM254.349 153.35C255.875 153.35 257.065 152.202 257.065 149.752V147.708C257.065 145.258 255.875 144.11 254.349 144.11C252.823 144.11 251.633 145.258 251.633 147.708V149.752C251.633 152.202 252.823 153.35 254.349 153.35ZM264.27 142.85C266.566 142.85 268.288 144.264 268.288 146.784V149.612C268.288 153.154 266.37 154.61 264.382 154.61C262.478 154.61 261.19 153.742 260.434 152.16L261.61 151.544C262.198 152.72 262.968 153.364 264.326 153.364C265.824 153.364 267 152.202 266.986 149.556V149.01C266.37 149.99 265.208 150.508 264.032 150.508C262.002 150.508 260.224 149.038 260.224 146.672C260.224 144.306 262.002 142.85 264.27 142.85ZM264.256 149.262C265.726 149.262 266.888 148.324 266.888 146.686C266.888 145.048 265.726 144.096 264.256 144.096C262.8 144.096 261.61 145.048 261.61 146.686C261.61 148.324 262.8 149.262 264.256 149.262ZM271.315 146.308C270.783 146.308 270.349 145.874 270.349 145.342C270.349 144.81 270.783 144.39 271.315 144.39C271.847 144.39 272.267 144.81 272.267 145.342C272.267 145.874 271.847 146.308 271.315 146.308ZM271.315 153.07C270.783 153.07 270.349 152.636 270.349 152.104C270.349 151.572 270.783 151.152 271.315 151.152C271.847 151.152 272.267 151.572 272.267 152.104C272.267 152.636 271.847 153.07 271.315 153.07ZM278.453 154.61C276.185 154.61 274.337 152.986 274.337 149.822V147.624C274.337 144.488 276.185 142.85 278.453 142.85C280.721 142.85 282.583 144.488 282.583 147.624V149.822C282.583 152.986 280.721 154.61 278.453 154.61ZM278.453 153.35C279.979 153.35 281.169 152.202 281.169 149.752V147.708C281.169 145.258 279.979 144.11 278.453 144.11C276.927 144.11 275.737 145.258 275.737 147.708V149.752C275.737 152.202 276.927 153.35 278.453 153.35ZM288.584 154.61C286.316 154.61 284.468 152.986 284.468 149.822V147.624C284.468 144.488 286.316 142.85 288.584 142.85C290.852 142.85 292.714 144.488 292.714 147.624V149.822C292.714 152.986 290.852 154.61 288.584 154.61ZM288.584 153.35C290.11 153.35 291.3 152.202 291.3 149.752V147.708C291.3 145.258 290.11 144.11 288.584 144.11C287.058 144.11 285.868 145.258 285.868 147.708V149.752C285.868 152.202 287.058 153.35 288.584 153.35ZM294.598 149.374V148.072H299.148V149.374H294.598ZM305.252 154.4H303.852V144.908L301.276 146.966L300.478 145.916L304.062 143.06H305.252V154.4ZM315.354 154.4H307.682V153.308L311.84 149.178C313.114 147.918 313.702 147.036 313.702 145.986C313.702 144.852 312.89 144.11 311.448 144.11C310.048 144.11 309.334 145.132 308.956 146.378L307.626 146.056C308.088 144.39 309.32 142.85 311.448 142.85C313.632 142.85 315.088 144.026 315.088 145.93C315.088 147.47 314.262 148.59 312.904 149.934L309.698 153.112H315.354V154.4ZM318.387 146.308C317.855 146.308 317.421 145.874 317.421 145.342C317.421 144.81 317.855 144.39 318.387 144.39C318.919 144.39 319.339 144.81 319.339 145.342C319.339 145.874 318.919 146.308 318.387 146.308ZM318.387 153.07C317.855 153.07 317.421 152.636 317.421 152.104C317.421 151.572 317.855 151.152 318.387 151.152C318.919 151.152 319.339 151.572 319.339 152.104C319.339 152.636 318.919 153.07 318.387 153.07ZM325.525 154.61C323.257 154.61 321.409 152.986 321.409 149.822V147.624C321.409 144.488 323.257 142.85 325.525 142.85C327.793 142.85 329.655 144.488 329.655 147.624V149.822C329.655 152.986 327.793 154.61 325.525 154.61ZM325.525 153.35C327.051 153.35 328.241 152.202 328.241 149.752V147.708C328.241 145.258 327.051 144.11 325.525 144.11C323.999 144.11 322.809 145.258 322.809 147.708V149.752C322.809 152.202 323.999 153.35 325.525 153.35ZM335.656 154.61C333.388 154.61 331.54 152.986 331.54 149.822V147.624C331.54 144.488 333.388 142.85 335.656 142.85C337.924 142.85 339.786 144.488 339.786 147.624V149.822C339.786 152.986 337.924 154.61 335.656 154.61ZM335.656 153.35C337.182 153.35 338.372 152.202 338.372 149.752V147.708C338.372 145.258 337.182 144.11 335.656 144.11C334.13 144.11 332.94 145.258 332.94 147.708V149.752C332.94 152.202 334.13 153.35 335.656 153.35Z" fill="black"/>
<path d="M256.437 194.4H255.037V184.908L252.461 186.966L251.663 185.916L255.247 183.06H256.437V194.4ZM265.699 190.872H267.449V192.16H265.699V194.61H264.313V192.16H258.615V191.012L263.823 183.06H265.699V190.872ZM264.313 184.656L260.295 190.872H264.313V184.656ZM270.051 186.308C269.519 186.308 269.085 185.874 269.085 185.342C269.085 184.81 269.519 184.39 270.051 184.39C270.583 184.39 271.003 184.81 271.003 185.342C271.003 185.874 270.583 186.308 270.051 186.308ZM270.051 193.07C269.519 193.07 269.085 192.636 269.085 192.104C269.085 191.572 269.519 191.152 270.051 191.152C270.583 191.152 271.003 191.572 271.003 192.104C271.003 192.636 270.583 193.07 270.051 193.07ZM277.189 194.61C274.921 194.61 273.073 192.986 273.073 189.822V187.624C273.073 184.488 274.921 182.85 277.189 182.85C279.457 182.85 281.319 184.488 281.319 187.624V189.822C281.319 192.986 279.457 194.61 277.189 194.61ZM277.189 193.35C278.715 193.35 279.905 192.202 279.905 189.752V187.708C279.905 185.258 278.715 184.11 277.189 184.11C275.663 184.11 274.473 185.258 274.473 187.708V189.752C274.473 192.202 275.663 193.35 277.189 193.35ZM287.32 194.61C285.052 194.61 283.204 192.986 283.204 189.822V187.624C283.204 184.488 285.052 182.85 287.32 182.85C289.588 182.85 291.45 184.488 291.45 187.624V189.822C291.45 192.986 289.588 194.61 287.32 194.61ZM287.32 193.35C288.846 193.35 290.036 192.202 290.036 189.752V187.708C290.036 185.258 288.846 184.11 287.32 184.11C285.794 184.11 284.604 185.258 284.604 187.708V189.752C284.604 192.202 285.794 193.35 287.32 193.35ZM293.335 189.374V188.072H297.885V189.374H293.335ZM303.988 194.4H302.588V184.908L300.012 186.966L299.214 185.916L302.798 183.06H303.988V194.4ZM310.702 186.952C312.718 186.952 314.51 188.422 314.51 190.788C314.51 193.154 312.718 194.61 310.464 194.61C308.168 194.61 306.446 193.196 306.446 190.662V187.834C306.446 184.306 308.364 182.85 310.338 182.85C312.256 182.85 313.53 183.718 314.286 185.3L313.124 185.916C312.522 184.726 311.766 184.096 310.394 184.096C308.896 184.096 307.734 185.258 307.748 187.89V188.436C308.364 187.456 309.512 186.952 310.702 186.952ZM310.464 193.364C311.934 193.364 313.124 192.398 313.124 190.76C313.124 189.136 311.934 188.184 310.464 188.184C309.008 188.184 307.832 189.136 307.832 190.76C307.832 192.398 309.008 193.364 310.464 193.364ZM317.397 186.308C316.865 186.308 316.431 185.874 316.431 185.342C316.431 184.81 316.865 184.39 317.397 184.39C317.929 184.39 318.349 184.81 318.349 185.342C318.349 185.874 317.929 186.308 317.397 186.308ZM317.397 193.07C316.865 193.07 316.431 192.636 316.431 192.104C316.431 191.572 316.865 191.152 317.397 191.152C317.929 191.152 318.349 191.572 318.349 192.104C318.349 192.636 317.929 193.07 317.397 193.07ZM324.535 194.61C322.267 194.61 320.419 192.986 320.419 189.822V187.624C320.419 184.488 322.267 182.85 324.535 182.85C326.803 182.85 328.665 184.488 328.665 187.624V189.822C328.665 192.986 326.803 194.61 324.535 194.61ZM324.535 193.35C326.061 193.35 327.251 192.202 327.251 189.752V187.708C327.251 185.258 326.061 184.11 324.535 184.11C323.009 184.11 321.819 185.258 321.819 187.708V189.752C321.819 192.202 323.009 193.35 324.535 193.35ZM334.666 194.61C332.398 194.61 330.55 192.986 330.55 189.822V187.624C330.55 184.488 332.398 182.85 334.666 182.85C336.934 182.85 338.796 184.488 338.796 187.624V189.822C338.796 192.986 336.934 194.61 334.666 194.61ZM334.666 193.35C336.192 193.35 337.382 192.202 337.382 189.752V187.708C337.382 185.258 336.192 184.11 334.666 184.11C333.14 184.11 331.95 185.258 331.95 187.708V189.752C331.95 192.202 333.14 193.35 334.666 193.35Z" fill="black"/>
<path d="M254.349 235.61C252.081 235.61 250.233 233.986 250.233 230.822V228.624C250.233 225.488 252.081 223.85 254.349 223.85C256.617 223.85 258.479 225.488 258.479 228.624V230.822C258.479 233.986 256.617 235.61 254.349 235.61ZM254.349 234.35C255.875 234.35 257.065 233.202 257.065 230.752V228.708C257.065 226.258 255.875 225.11 254.349 225.11C252.823 225.11 251.633 226.258 251.633 228.708V230.752C251.633 233.202 252.823 234.35 254.349 234.35ZM264.27 223.85C266.566 223.85 268.288 225.264 268.288 227.784V230.612C268.288 234.154 266.37 235.61 264.382 235.61C262.478 235.61 261.19 234.742 260.434 233.16L261.61 232.544C262.198 233.72 262.968 234.364 264.326 234.364C265.824 234.364 267 233.202 266.986 230.556V230.01C266.37 230.99 265.208 231.508 264.032 231.508C262.002 231.508 260.224 230.038 260.224 227.672C260.224 225.306 262.002 223.85 264.27 223.85ZM264.256 230.262C265.726 230.262 266.888 229.324 266.888 227.686C266.888 226.048 265.726 225.096 264.256 225.096C262.8 225.096 261.61 226.048 261.61 227.686C261.61 229.324 262.8 230.262 264.256 230.262ZM271.315 227.308C270.783 227.308 270.349 226.874 270.349 226.342C270.349 225.81 270.783 225.39 271.315 225.39C271.847 225.39 272.267 225.81 272.267 226.342C272.267 226.874 271.847 227.308 271.315 227.308ZM271.315 234.07C270.783 234.07 270.349 233.636 270.349 233.104C270.349 232.572 270.783 232.152 271.315 232.152C271.847 232.152 272.267 232.572 272.267 233.104C272.267 233.636 271.847 234.07 271.315 234.07ZM278.453 235.61C276.185 235.61 274.337 233.986 274.337 230.822V228.624C274.337 225.488 276.185 223.85 278.453 223.85C280.721 223.85 282.583 225.488 282.583 228.624V230.822C282.583 233.986 280.721 235.61 278.453 235.61ZM278.453 234.35C279.979 234.35 281.169 233.202 281.169 230.752V228.708C281.169 226.258 279.979 225.11 278.453 225.11C276.927 225.11 275.737 226.258 275.737 228.708V230.752C275.737 233.202 276.927 234.35 278.453 234.35ZM288.584 235.61C286.316 235.61 284.468 233.986 284.468 230.822V228.624C284.468 225.488 286.316 223.85 288.584 223.85C290.852 223.85 292.714 225.488 292.714 228.624V230.822C292.714 233.986 290.852 235.61 288.584 235.61ZM288.584 234.35C290.11 234.35 291.3 233.202 291.3 230.752V228.708C291.3 226.258 290.11 225.11 288.584 225.11C287.058 225.11 285.868 226.258 285.868 228.708V230.752C285.868 233.202 287.058 234.35 288.584 234.35ZM294.598 230.374V229.072H299.148V230.374H294.598ZM305.252 235.4H303.852V225.908L301.276 227.966L300.478 226.916L304.062 224.06H305.252V235.4ZM315.354 235.4H307.682V234.308L311.84 230.178C313.114 228.918 313.702 228.036 313.702 226.986C313.702 225.852 312.89 225.11 311.448 225.11C310.048 225.11 309.334 226.132 308.956 227.378L307.626 227.056C308.088 225.39 309.32 223.85 311.448 223.85C313.632 223.85 315.088 225.026 315.088 226.93C315.088 228.47 314.262 229.59 312.904 230.934L309.698 234.112H315.354V235.4ZM318.387 227.308C317.855 227.308 317.421 226.874 317.421 226.342C317.421 225.81 317.855 225.39 318.387 225.39C318.919 225.39 319.339 225.81 319.339 226.342C319.339 226.874 318.919 227.308 318.387 227.308ZM318.387 234.07C317.855 234.07 317.421 233.636 317.421 233.104C317.421 232.572 317.855 232.152 318.387 232.152C318.919 232.152 319.339 232.572 319.339 233.104C319.339 233.636 318.919 234.07 318.387 234.07ZM325.525 235.61C323.257 235.61 321.409 233.986 321.409 230.822V228.624C321.409 225.488 323.257 223.85 325.525 223.85C327.793 223.85 329.655 225.488 329.655 228.624V230.822C329.655 233.986 327.793 235.61 325.525 235.61ZM325.525 234.35C327.051 234.35 328.241 233.202 328.241 230.752V228.708C328.241 226.258 327.051 225.11 325.525 225.11C323.999 225.11 322.809 226.258 322.809 228.708V230.752C322.809 233.202 323.999 234.35 325.525 234.35ZM335.656 235.61C333.388 235.61 331.54 233.986 331.54 230.822V228.624C331.54 225.488 333.388 223.85 335.656 223.85C337.924 223.85 339.786 225.488 339.786 228.624V230.822C339.786 233.986 337.924 235.61 335.656 235.61ZM335.656 234.35C337.182 234.35 338.372 233.202 338.372 230.752V228.708C338.372 226.258 337.182 225.11 335.656 225.11C334.13 225.11 332.94 226.258 332.94 228.708V230.752C332.94 233.202 334.13 234.35 335.656 234.35Z" fill="black"/>
<path d="M256.437 296.4H255.037V286.908L252.461 288.966L251.663 287.916L255.247 285.06H256.437V296.4ZM265.699 292.872H267.449V294.16H265.699V296.61H264.313V294.16H258.615V293.012L263.823 285.06H265.699V292.872ZM264.313 286.656L260.295 292.872H264.313V286.656ZM270.051 288.308C269.519 288.308 269.085 287.874 269.085 287.342C269.085 286.81 269.519 286.39 270.051 286.39C270.583 286.39 271.003 286.81 271.003 287.342C271.003 287.874 270.583 288.308 270.051 288.308ZM270.051 295.07C269.519 295.07 269.085 294.636 269.085 294.104C269.085 293.572 269.519 293.152 270.051 293.152C270.583 293.152 271.003 293.572 271.003 294.104C271.003 294.636 270.583 295.07 270.051 295.07ZM277.189 296.61C274.921 296.61 273.073 294.986 273.073 291.822V289.624C273.073 286.488 274.921 284.85 277.189 284.85C279.457 284.85 281.319 286.488 281.319 289.624V291.822C281.319 294.986 279.457 296.61 277.189 296.61ZM277.189 295.35C278.715 295.35 279.905 294.202 279.905 291.752V289.708C279.905 287.258 278.715 286.11 277.189 286.11C275.663 286.11 274.473 287.258 274.473 289.708V291.752C274.473 294.202 275.663 295.35 277.189 295.35ZM287.32 296.61C285.052 296.61 283.204 294.986 283.204 291.822V289.624C283.204 286.488 285.052 284.85 287.32 284.85C289.588 284.85 291.45 286.488 291.45 289.624V291.822C291.45 294.986 289.588 296.61 287.32 296.61ZM287.32 295.35C288.846 295.35 290.036 294.202 290.036 291.752V289.708C290.036 287.258 288.846 286.11 287.32 286.11C285.794 286.11 284.604 287.258 284.604 289.708V291.752C284.604 294.202 285.794 295.35 287.32 295.35ZM293.335 291.374V290.072H297.885V291.374H293.335ZM303.988 296.4H302.588V286.908L300.012 288.966L299.214 287.916L302.798 285.06H303.988V296.4ZM310.702 288.952C312.718 288.952 314.51 290.422 314.51 292.788C314.51 295.154 312.718 296.61 310.464 296.61C308.168 296.61 306.446 295.196 306.446 292.662V289.834C306.446 286.306 308.364 284.85 310.338 284.85C312.256 284.85 313.53 285.718 314.286 287.3L313.124 287.916C312.522 286.726 311.766 286.096 310.394 286.096C308.896 286.096 307.734 287.258 307.748 289.89V290.436C308.364 289.456 309.512 288.952 310.702 288.952ZM310.464 295.364C311.934 295.364 313.124 294.398 313.124 292.76C313.124 291.136 311.934 290.184 310.464 290.184C309.008 290.184 307.832 291.136 307.832 292.76C307.832 294.398 309.008 295.364 310.464 295.364ZM317.397 288.308C316.865 288.308 316.431 287.874 316.431 287.342C316.431 286.81 316.865 286.39 317.397 286.39C317.929 286.39 318.349 286.81 318.349 287.342C318.349 287.874 317.929 288.308 317.397 288.308ZM317.397 295.07C316.865 295.07 316.431 294.636 316.431 294.104C316.431 293.572 316.865 293.152 317.397 293.152C317.929 293.152 318.349 293.572 318.349 294.104C318.349 294.636 317.929 295.07 317.397 295.07ZM324.535 296.61C322.267 296.61 320.419 294.986 320.419 291.822V289.624C320.419 286.488 322.267 284.85 324.535 284.85C326.803 284.85 328.665 286.488 328.665 289.624V291.822C328.665 294.986 326.803 296.61 324.535 296.61ZM324.535 295.35C326.061 295.35 327.251 294.202 327.251 291.752V289.708C327.251 287.258 326.061 286.11 324.535 286.11C323.009 286.11 321.819 287.258 321.819 289.708V291.752C321.819 294.202 323.009 295.35 324.535 295.35ZM334.666 296.61C332.398 296.61 330.55 294.986 330.55 291.822V289.624C330.55 286.488 332.398 284.85 334.666 284.85C336.934 284.85 338.796 286.488 338.796 289.624V291.822C338.796 294.986 336.934 296.61 334.666 296.61ZM334.666 295.35C336.192 295.35 337.382 294.202 337.382 291.752V289.708C337.382 287.258 336.192 286.11 334.666 286.11C333.14 286.11 331.95 287.258 331.95 289.708V291.752C331.95 294.202 333.14 295.35 334.666 295.35Z" fill="black"/>
<path d="M254.349 359.61C252.081 359.61 250.233 357.986 250.233 354.822V352.624C250.233 349.488 252.081 347.85 254.349 347.85C256.617 347.85 258.479 349.488 258.479 352.624V354.822C258.479 357.986 256.617 359.61 254.349 359.61ZM254.349 358.35C255.875 358.35 257.065 357.202 257.065 354.752V352.708C257.065 350.258 255.875 349.11 254.349 349.11C252.823 349.11 251.633 350.258 251.633 352.708V354.752C251.633 357.202 252.823 358.35 254.349 358.35ZM264.27 347.85C266.566 347.85 268.288 349.264 268.288 351.784V354.612C268.288 358.154 266.37 359.61 264.382 359.61C262.478 359.61 261.19 358.742 260.434 357.16L261.61 356.544C262.198 357.72 262.968 358.364 264.326 358.364C265.824 358.364 267 357.202 266.986 354.556V354.01C266.37 354.99 265.208 355.508 264.032 355.508C262.002 355.508 260.224 354.038 260.224 351.672C260.224 349.306 262.002 347.85 264.27 347.85ZM264.256 354.262C265.726 354.262 266.888 353.324 266.888 351.686C266.888 350.048 265.726 349.096 264.256 349.096C262.8 349.096 261.61 350.048 261.61 351.686C261.61 353.324 262.8 354.262 264.256 354.262ZM271.315 351.308C270.783 351.308 270.349 350.874 270.349 350.342C270.349 349.81 270.783 349.39 271.315 349.39C271.847 349.39 272.267 349.81 272.267 350.342C272.267 350.874 271.847 351.308 271.315 351.308ZM271.315 358.07C270.783 358.07 270.349 357.636 270.349 357.104C270.349 356.572 270.783 356.152 271.315 356.152C271.847 356.152 272.267 356.572 272.267 357.104C272.267 357.636 271.847 358.07 271.315 358.07ZM278.453 359.61C276.185 359.61 274.337 357.986 274.337 354.822V352.624C274.337 349.488 276.185 347.85 278.453 347.85C280.721 347.85 282.583 349.488 282.583 352.624V354.822C282.583 357.986 280.721 359.61 278.453 359.61ZM278.453 358.35C279.979 358.35 281.169 357.202 281.169 354.752V352.708C281.169 350.258 279.979 349.11 278.453 349.11C276.927 349.11 275.737 350.258 275.737 352.708V354.752C275.737 357.202 276.927 358.35 278.453 358.35ZM288.584 359.61C286.316 359.61 284.468 357.986 284.468 354.822V352.624C284.468 349.488 286.316 347.85 288.584 347.85C290.852 347.85 292.714 349.488 292.714 352.624V354.822C292.714 357.986 290.852 359.61 288.584 359.61ZM288.584 358.35C290.11 358.35 291.3 357.202 291.3 354.752V352.708C291.3 350.258 290.11 349.11 288.584 349.11C287.058 349.11 285.868 350.258 285.868 352.708V354.752C285.868 357.202 287.058 358.35 288.584 358.35ZM294.598 354.374V353.072H299.148V354.374H294.598ZM305.252 359.4H303.852V349.908L301.276 351.966L300.478 350.916L304.062 348.06H305.252V359.4ZM315.354 359.4H307.682V358.308L311.84 354.178C313.114 352.918 313.702 352.036 313.702 350.986C313.702 349.852 312.89 349.11 311.448 349.11C310.048 349.11 309.334 350.132 308.956 351.378L307.626 351.056C308.088 349.39 309.32 347.85 311.448 347.85C313.632 347.85 315.088 349.026 315.088 350.93C315.088 352.47 314.262 353.59 312.904 354.934L309.698 358.112H315.354V359.4ZM318.387 351.308C317.855 351.308 317.421 350.874 317.421 350.342C317.421 349.81 317.855 349.39 318.387 349.39C318.919 349.39 319.339 349.81 319.339 350.342C319.339 350.874 318.919 351.308 318.387 351.308ZM318.387 358.07C317.855 358.07 317.421 357.636 317.421 357.104C317.421 356.572 317.855 356.152 318.387 356.152C318.919 356.152 319.339 356.572 319.339 357.104C319.339 357.636 318.919 358.07 318.387 358.07ZM325.525 359.61C323.257 359.61 321.409 357.986 321.409 354.822V352.624C321.409 349.488 323.257 347.85 325.525 347.85C327.793 347.85 329.655 349.488 329.655 352.624V354.822C329.655 357.986 327.793 359.61 325.525 359.61ZM325.525 358.35C327.051 358.35 328.241 357.202 328.241 354.752V352.708C328.241 350.258 327.051 349.11 325.525 349.11C323.999 349.11 322.809 350.258 322.809 352.708V354.752C322.809 357.202 323.999 358.35 325.525 358.35ZM335.656 359.61C333.388 359.61 331.54 357.986 331.54 354.822V352.624C331.54 349.488 333.388 347.85 335.656 347.85C337.924 347.85 339.786 349.488 339.786 352.624V354.822C339.786 357.986 337.924 359.61 335.656 359.61ZM335.656 358.35C337.182 358.35 338.372 357.202 338.372 354.752V352.708C338.372 350.258 337.182 349.11 335.656 349.11C334.13 349.11 332.94 350.258 332.94 352.708V354.752C332.94 357.202 334.13 358.35 335.656 358.35Z" fill="black"/>
<path d="M256.437 399.4H255.037V389.908L252.461 391.966L251.663 390.916L255.247 388.06H256.437V399.4ZM265.699 395.872H267.449V397.16H265.699V399.61H264.313V397.16H258.615V396.012L263.823 388.06H265.699V395.872ZM264.313 389.656L260.295 395.872H264.313V389.656ZM270.051 391.308C269.519 391.308 269.085 390.874 269.085 390.342C269.085 389.81 269.519 389.39 270.051 389.39C270.583 389.39 271.003 389.81 271.003 390.342C271.003 390.874 270.583 391.308 270.051 391.308ZM270.051 398.07C269.519 398.07 269.085 397.636 269.085 397.104C269.085 396.572 269.519 396.152 270.051 396.152C270.583 396.152 271.003 396.572 271.003 397.104C271.003 397.636 270.583 398.07 270.051 398.07ZM277.189 399.61C274.921 399.61 273.073 397.986 273.073 394.822V392.624C273.073 389.488 274.921 387.85 277.189 387.85C279.457 387.85 281.319 389.488 281.319 392.624V394.822C281.319 397.986 279.457 399.61 277.189 399.61ZM277.189 398.35C278.715 398.35 279.905 397.202 279.905 394.752V392.708C279.905 390.258 278.715 389.11 277.189 389.11C275.663 389.11 274.473 390.258 274.473 392.708V394.752C274.473 397.202 275.663 398.35 277.189 398.35ZM287.32 399.61C285.052 399.61 283.204 397.986 283.204 394.822V392.624C283.204 389.488 285.052 387.85 287.32 387.85C289.588 387.85 291.45 389.488 291.45 392.624V394.822C291.45 397.986 289.588 399.61 287.32 399.61ZM287.32 398.35C288.846 398.35 290.036 397.202 290.036 394.752V392.708C290.036 390.258 288.846 389.11 287.32 389.11C285.794 389.11 284.604 390.258 284.604 392.708V394.752C284.604 397.202 285.794 398.35 287.32 398.35ZM293.335 394.374V393.072H297.885V394.374H293.335ZM303.988 399.4H302.588V389.908L300.012 391.966L299.214 390.916L302.798 388.06H303.988V399.4ZM310.702 391.952C312.718 391.952 314.51 393.422 314.51 395.788C314.51 398.154 312.718 399.61 310.464 399.61C308.168 399.61 306.446 398.196 306.446 395.662V392.834C306.446 389.306 308.364 387.85 310.338 387.85C312.256 387.85 313.53 388.718 314.286 390.3L313.124 390.916C312.522 389.726 311.766 389.096 310.394 389.096C308.896 389.096 307.734 390.258 307.748 392.89V393.436C308.364 392.456 309.512 391.952 310.702 391.952ZM310.464 398.364C311.934 398.364 313.124 397.398 313.124 395.76C313.124 394.136 311.934 393.184 310.464 393.184C309.008 393.184 307.832 394.136 307.832 395.76C307.832 397.398 309.008 398.364 310.464 398.364ZM317.397 391.308C316.865 391.308 316.431 390.874 316.431 390.342C316.431 389.81 316.865 389.39 317.397 389.39C317.929 389.39 318.349 389.81 318.349 390.342C318.349 390.874 317.929 391.308 317.397 391.308ZM317.397 398.07C316.865 398.07 316.431 397.636 316.431 397.104C316.431 396.572 316.865 396.152 317.397 396.152C317.929 396.152 318.349 396.572 318.349 397.104C318.349 397.636 317.929 398.07 317.397 398.07ZM324.535 399.61C322.267 399.61 320.419 397.986 320.419 394.822V392.624C320.419 389.488 322.267 387.85 324.535 387.85C326.803 387.85 328.665 389.488 328.665 392.624V394.822C328.665 397.986 326.803 399.61 324.535 399.61ZM324.535 398.35C326.061 398.35 327.251 397.202 327.251 394.752V392.708C327.251 390.258 326.061 389.11 324.535 389.11C323.009 389.11 321.819 390.258 321.819 392.708V394.752C321.819 397.202 323.009 398.35 324.535 398.35ZM334.666 399.61C332.398 399.61 330.55 397.986 330.55 394.822V392.624C330.55 389.488 332.398 387.85 334.666 387.85C336.934 387.85 338.796 389.488 338.796 392.624V394.822C338.796 397.986 336.934 399.61 334.666 399.61ZM334.666 398.35C336.192 398.35 337.382 397.202 337.382 394.752V392.708C337.382 390.258 336.192 389.11 334.666 389.11C333.14 389.11 331.95 390.258 331.95 392.708V394.752C331.95 397.202 333.14 398.35 334.666 398.35Z" fill="black"/>
<path d="M67.7946 162.592C71.1546 162.592 73.6346 164.688 73.6346 168.272V169.952C73.6346 173.568 71.1546 175.648 67.7946 175.648H63.0746V162.592H67.7946ZM71.5706 169.872V168.352C71.5706 165.76 70.0026 164.464 67.7946 164.464H65.1386V173.76H67.7946C70.0026 173.76 71.5706 172.496 71.5706 169.872ZM86.1935 175.648H84.0815L82.7055 171.792H77.7295L76.3535 175.648H74.2415L78.9295 162.592H81.4895L86.1935 175.648ZM80.2255 164.768L78.3855 169.936H82.0495L80.2255 164.768ZM93.7301 162.592H96.0341L91.3781 170.576V175.648H89.3141V170.64L84.6421 162.592H86.9461L90.3381 168.672L93.7301 162.592ZM110.095 175.648H101.118V174.064L105.839 169.376C107.167 168.048 107.775 167.168 107.775 166.08C107.775 164.976 106.991 164.192 105.503 164.192C104.062 164.192 103.279 165.248 102.911 166.592L100.959 166.128C101.487 164.144 102.991 162.352 105.503 162.352C108.062 162.352 109.807 163.696 109.807 166C109.807 167.728 108.927 168.96 107.439 170.432L104.062 173.76H110.095V175.648Z" fill="black"/>
<path d="M67.6306 263.592C70.9906 263.592 73.4706 265.688 73.4706 269.272V270.952C73.4706 274.568 70.9906 276.648 67.6306 276.648H62.9106V263.592H67.6306ZM71.4066 270.872V269.352C71.4066 266.76 69.8386 265.464 67.6306 265.464H64.9746V274.76H67.6306C69.8386 274.76 71.4066 273.496 71.4066 270.872ZM86.0294 276.648H83.9174L82.5414 272.792H77.5654L76.1894 276.648H74.0774L78.7654 263.592H81.3254L86.0294 276.648ZM80.0614 265.768L78.2214 270.936H81.8854L80.0614 265.768ZM93.5661 263.592H95.8701L91.2141 271.576V276.648H89.1501V271.64L84.4781 263.592H86.7821L90.1741 269.672L93.5661 263.592ZM100.682 273.576L102.506 272.904C102.938 274.04 103.786 275.048 105.514 275.048C107.258 275.048 108.25 274.168 108.25 272.984C108.25 271.784 107.29 270.792 105.274 270.792H103.578V269.064H105.274C107.05 269.064 107.93 268.232 107.93 267.064C107.93 265.88 106.97 265.192 105.482 265.192C103.994 265.192 103.258 266.104 102.874 267.096L101.05 266.408C101.674 264.728 103.05 263.352 105.482 263.352C108.042 263.352 109.946 264.648 109.946 266.936C109.946 268.552 109.002 269.448 107.93 269.912C109.21 270.376 110.25 271.448 110.25 273.08C110.25 275.384 108.314 276.888 105.514 276.888C102.858 276.888 101.338 275.416 100.682 273.576Z" fill="black"/>
<path d="M67.5915 364.592C70.9515 364.592 73.4315 366.688 73.4315 370.272V371.952C73.4315 375.568 70.9515 377.648 67.5915 377.648H62.8715V364.592H67.5915ZM71.3675 371.872V370.352C71.3675 367.76 69.7995 366.464 67.5915 366.464H64.9355V375.76H67.5915C69.7995 375.76 71.3675 374.496 71.3675 371.872ZM85.9904 377.648H83.8784L82.5024 373.792H77.5264L76.1504 377.648H74.0384L78.7264 364.592H81.2864L85.9904 377.648ZM80.0224 366.768L78.1824 371.936H81.8464L80.0224 366.768ZM93.527 364.592H95.831L91.175 372.576V377.648H89.111V372.64L84.439 364.592H86.743L90.135 370.672L93.527 364.592ZM108.963 373.328H110.771V375.2H108.963V377.888H106.931V375.2H100.563V373.568L106.243 364.592H108.963V373.328ZM106.931 367.024L103.043 373.328H106.931V367.024Z" fill="black"/>
<path d="M0 415H990" stroke="black" stroke-width="3"/>
</svg>
