<svg width="990" height="379" viewBox="0 0 990 379" fill="none" xmlns="http://www.w3.org/2000/svg">
<rect x="420" y="88" width="570" height="40" fill="#F5F5F5"/>
<path d="M420 248H990V293H420V248Z" fill="#F5F5F5"/>
<rect x="420" y="334" width="570" height="41" fill="#F5F5F5"/>
<rect y="2" width="990" height="44" fill="#02FF99"/>
<rect y="46" width="172" height="332" fill="#02FF99"/>
<path d="M0 2L990 1.99991" stroke="black" stroke-width="3"/>
<path d="M0 46H990" stroke="#ACACAC"/>
<path d="M172 169L990 169" stroke="#ACACAC"/>
<path d="M172 251L990 251" stroke="#ACACAC"/>
<path d="M172 294L990 294" stroke="#ACACAC"/>
<path d="M0 128H990" stroke="#ACACAC"/>
<path d="M420 88L990 87" stroke="#ACACAC"/>
<path d="M0 210H990" stroke="#ACACAC"/>
<path d="M0 294H172" stroke="#ACACAC"/>
<path d="M172 334L990 334" stroke="#ACACAC"/>
<path d="M172 2V376" stroke="#ACACAC"/>
<path d="M420 2L420 376" stroke="#ACACAC"/>
<path d="M68.8571 81.592C72.2171 81.592 74.6971 83.688 74.6971 87.272V88.952C74.6971 92.568 72.2171 94.648 68.8571 94.648H64.1371V81.592H68.8571ZM72.6331 88.872V87.352C72.6331 84.76 71.0651 83.464 68.8571 83.464H66.2011V92.76H68.8571C71.0651 92.76 72.6331 91.496 72.6331 88.872ZM87.256 94.648H85.144L83.768 90.792H78.792L77.416 94.648H75.304L79.992 81.592H82.552L87.256 94.648ZM81.288 83.768L79.448 88.936H83.112L81.288 83.768ZM94.7926 81.592H97.0966L92.4406 89.576V94.648H90.3766V89.64L85.7046 81.592H88.0086L91.4006 87.672L94.7926 81.592ZM107.397 94.648H105.333V84.296L102.661 86.392L101.509 84.872L105.701 81.592H107.397V94.648Z" fill="black"/>
<path d="M256.437 89.4H255.037V79.908L252.461 81.966L251.663 80.916L255.247 78.06H256.437V89.4ZM265.699 85.872H267.449V87.16H265.699V89.61H264.313V87.16H258.615V86.012L263.823 78.06H265.699V85.872ZM264.313 79.656L260.295 85.872H264.313V79.656ZM270.051 81.308C269.519 81.308 269.085 80.874 269.085 80.342C269.085 79.81 269.519 79.39 270.051 79.39C270.583 79.39 271.003 79.81 271.003 80.342C271.003 80.874 270.583 81.308 270.051 81.308ZM270.051 88.07C269.519 88.07 269.085 87.636 269.085 87.104C269.085 86.572 269.519 86.152 270.051 86.152C270.583 86.152 271.003 86.572 271.003 87.104C271.003 87.636 270.583 88.07 270.051 88.07ZM277.189 89.61C274.921 89.61 273.073 87.986 273.073 84.822V82.624C273.073 79.488 274.921 77.85 277.189 77.85C279.457 77.85 281.319 79.488 281.319 82.624V84.822C281.319 87.986 279.457 89.61 277.189 89.61ZM277.189 88.35C278.715 88.35 279.905 87.202 279.905 84.752V82.708C279.905 80.258 278.715 79.11 277.189 79.11C275.663 79.11 274.473 80.258 274.473 82.708V84.752C274.473 87.202 275.663 88.35 277.189 88.35ZM287.32 89.61C285.052 89.61 283.204 87.986 283.204 84.822V82.624C283.204 79.488 285.052 77.85 287.32 77.85C289.588 77.85 291.45 79.488 291.45 82.624V84.822C291.45 87.986 289.588 89.61 287.32 89.61ZM287.32 88.35C288.846 88.35 290.036 87.202 290.036 84.752V82.708C290.036 80.258 288.846 79.11 287.32 79.11C285.794 79.11 284.604 80.258 284.604 82.708V84.752C284.604 87.202 285.794 88.35 287.32 88.35ZM293.335 84.374V83.072H297.885V84.374H293.335ZM303.988 89.4H302.588V79.908L300.012 81.966L299.214 80.916L302.798 78.06H303.988V89.4ZM310.702 81.952C312.718 81.952 314.51 83.422 314.51 85.788C314.51 88.154 312.718 89.61 310.464 89.61C308.168 89.61 306.446 88.196 306.446 85.662V82.834C306.446 79.306 308.364 77.85 310.338 77.85C312.256 77.85 313.53 78.718 314.286 80.3L313.124 80.916C312.522 79.726 311.766 79.096 310.394 79.096C308.896 79.096 307.734 80.258 307.748 82.89V83.436C308.364 82.456 309.512 81.952 310.702 81.952ZM310.464 88.364C311.934 88.364 313.124 87.398 313.124 85.76C313.124 84.136 311.934 83.184 310.464 83.184C309.008 83.184 307.832 84.136 307.832 85.76C307.832 87.398 309.008 88.364 310.464 88.364ZM317.397 81.308C316.865 81.308 316.431 80.874 316.431 80.342C316.431 79.81 316.865 79.39 317.397 79.39C317.929 79.39 318.349 79.81 318.349 80.342C318.349 80.874 317.929 81.308 317.397 81.308ZM317.397 88.07C316.865 88.07 316.431 87.636 316.431 87.104C316.431 86.572 316.865 86.152 317.397 86.152C317.929 86.152 318.349 86.572 318.349 87.104C318.349 87.636 317.929 88.07 317.397 88.07ZM324.535 89.61C322.267 89.61 320.419 87.986 320.419 84.822V82.624C320.419 79.488 322.267 77.85 324.535 77.85C326.803 77.85 328.665 79.488 328.665 82.624V84.822C328.665 87.986 326.803 89.61 324.535 89.61ZM324.535 88.35C326.061 88.35 327.251 87.202 327.251 84.752V82.708C327.251 80.258 326.061 79.11 324.535 79.11C323.009 79.11 321.819 80.258 321.819 82.708V84.752C321.819 87.202 323.009 88.35 324.535 88.35ZM334.666 89.61C332.398 89.61 330.55 87.986 330.55 84.822V82.624C330.55 79.488 332.398 77.85 334.666 77.85C336.934 77.85 338.796 79.488 338.796 82.624V84.822C338.796 87.986 336.934 89.61 334.666 89.61ZM334.666 88.35C336.192 88.35 337.382 87.202 337.382 84.752V82.708C337.382 80.258 336.192 79.11 334.666 79.11C333.14 79.11 331.95 80.258 331.95 82.708V84.752C331.95 87.202 333.14 88.35 334.666 88.35Z" fill="black"/>
<path d="M652.432 64.752V68.14H657.976V69.064H645.88V68.14H651.438V64.752H647.448V58.13H648.442V63.842H656.52V64.752H652.432ZM670.075 66.992H669.081V62.582H666.295V61.728H669.081V60.02H666.295V59.152H669.081V57.178H670.075V66.992ZM667.023 64.108L666.435 64.864L662.907 61.882C662.291 63.044 661.283 64.094 659.869 65.06L659.309 64.29C661.521 62.736 662.683 61.014 662.683 58.732V57.71H663.663V58.732C663.663 59.53 663.537 60.272 663.299 60.972L667.023 64.108ZM662.767 66.166V69.176H670.677V70.1H661.773V66.166H662.767ZM685.761 70.1V57.178H686.755V70.1H685.761ZM681.813 59.194H676.717V58.284H682.821V59.278C682.821 62.932 680.637 66.124 677.109 68.462L676.521 67.678C679.797 65.55 681.813 62.498 681.813 59.474V59.194ZM695.662 62.946V64.598H701.206V65.522H689.11V64.598H694.668V62.946H690.804V57.43H691.798V59.348H698.518V57.43H699.526V62.946H695.662ZM698.518 60.216H691.798V62.064H698.518V60.216ZM690.804 66.614H691.798V69.176H699.862V70.1H690.804V66.614ZM710.046 58.242H713.252V59.04H705.818V58.242H709.038V57.01H710.046V58.242ZM716.108 57.178V60.874H718.124V61.798H716.108V64.444H715.114V57.178H716.108ZM713.896 63.254L713.994 64.052C712.104 64.304 709.612 64.472 707.764 64.472H705.636L705.594 63.646H707.82C708.198 63.646 708.632 63.632 709.108 63.618V62.764C707.568 62.68 706.448 62.19 706.448 61.238V61.126C706.448 60.076 707.792 59.572 709.556 59.572C711.292 59.572 712.636 60.076 712.636 61.126V61.238C712.636 62.162 711.572 62.666 710.116 62.764V63.576C711.362 63.52 712.72 63.408 713.896 63.254ZM707.428 61.154V61.224C707.428 61.7 708.352 62.008 709.556 62.008C710.746 62.008 711.656 61.7 711.656 61.224V61.154C711.656 60.678 710.746 60.342 709.556 60.342C708.352 60.342 707.428 60.678 707.428 61.154ZM716.108 68.14H708.926V69.33H716.654V70.156H707.946V67.328H715.128V66.18H707.876V65.368H716.108V68.14ZM727.662 61.84V63.436H731.162V64.318H719.066V63.436H722.58V61.84C721.306 61.518 720.564 60.804 720.564 59.684C720.564 58.13 721.978 57.36 724.218 57.36H726.024C728.264 57.36 729.678 58.13 729.678 59.684C729.678 60.804 728.936 61.518 727.662 61.84ZM721.558 59.684C721.558 60.636 722.552 61.154 724.386 61.154H725.856C727.676 61.154 728.67 60.608 728.67 59.684C728.67 58.746 727.676 58.242 725.856 58.242H724.386C722.552 58.242 721.558 58.746 721.558 59.684ZM723.546 61.98V63.436H726.696V61.98C726.486 62.022 723.756 62.022 723.546 61.98ZM723.7 65.634H726.528C728.642 65.634 729.748 66.614 729.748 67.93C729.748 69.26 728.642 70.24 726.528 70.24H723.7C721.6 70.24 720.494 69.26 720.494 67.93C720.494 66.614 721.6 65.634 723.7 65.634ZM723.924 69.344H726.304C727.956 69.344 728.74 68.784 728.74 67.93C728.74 67.076 727.956 66.53 726.304 66.53H723.924C722.272 66.53 721.488 67.076 721.488 67.93C721.488 68.784 722.272 69.344 723.924 69.344ZM745.951 57.192V60.076H748.093V60.986H745.951V64.318H744.943V57.192H745.951ZM741.121 57.808H742.101V63.66H736.053V57.808H737.033V59.782H741.121V57.808ZM737.033 60.678V62.764H741.121V60.678H737.033ZM740.645 65.102H743.249C745.139 65.102 746.273 66.208 746.273 67.664C746.273 69.12 745.139 70.226 743.249 70.226H740.645C738.755 70.226 737.621 69.12 737.621 67.664C737.621 66.208 738.755 65.102 740.645 65.102ZM740.841 69.33H743.053C744.537 69.33 745.251 68.616 745.251 67.664C745.251 66.726 744.537 65.998 743.053 65.998H740.841C739.357 65.998 738.629 66.726 738.629 67.664C738.629 68.616 739.357 69.33 740.841 69.33ZM758.947 60.076V57.178H759.941V63.996H758.947V60.986H755.895V63.464H749.721V57.808H750.687V59.684H754.929V57.808H755.895V60.076H758.947ZM750.687 60.58V62.554H754.929V60.58H750.687ZM752.633 66.46H758.947V64.752H759.941V70.1H751.639V64.752H752.633V66.46ZM752.633 67.342V69.19H758.947V67.342H752.633Z" fill="black"/>
<path d="M570.967 104.4L566.067 102.174C565.227 103.042 563.827 103.784 561.769 104.4L561.447 103.532C564.443 102.622 565.983 101.418 565.983 100.018V99.36H566.963V100.018C566.963 100.508 566.851 100.97 566.627 101.404L571.359 103.574L570.967 104.4ZM572.451 105.394V106.276H566.907V108.04H570.897V112.24H569.889V108.95H561.923V108.04H565.913V106.276H560.355V105.394H572.451ZM584.438 107.06L579.398 103.616C578.572 104.862 577.074 106.01 574.82 107.06L574.358 106.192C577.676 104.624 579.244 102.944 579.244 100.942V99.92H580.238V100.942C580.238 101.572 580.112 102.174 579.86 102.762L584.998 106.234L584.438 107.06ZM580.182 106.696V110.14H585.726V111.05H573.63V110.14H579.188V106.696H580.182ZM600.404 112.1V99.178H601.384V112.1H600.404ZM593.866 102.3V102.496C593.866 103.406 593.768 104.26 593.586 105.086L596.666 109.566L595.868 110.154L593.236 106.29C592.76 107.662 591.99 108.964 590.912 110.308L590.17 109.692C591.962 107.424 592.9 105.31 592.9 102.496V102.3H590.562V101.39H592.9V99.192H593.88V101.39H596.26V102.3H593.866ZM595.336 104.372H597.618V99.388H598.584V111.862H597.618V105.282H595.336V104.372ZM613.007 103.868C613.091 103 613.133 102.216 613.133 101.642V101.18H605.083V100.27H614.127V101.418C614.127 103.35 613.805 106.136 613.371 108.46L612.391 108.278C612.601 107.172 612.783 105.94 612.909 104.792C610.949 105.002 607.883 105.114 605.965 105.114H605.055L605.013 104.204H606.021C607.743 104.204 610.977 104.078 613.007 103.868ZM603.585 111.064V110.14H615.681V111.064H603.585ZM627.794 108.992H626.786V99.178H627.794V108.992ZM620.794 106.668C618.932 106.668 617.42 105.576 617.42 103.294V103C617.42 100.704 618.932 99.598 620.794 99.598C622.628 99.598 624.14 100.704 624.14 103V103.294C624.14 105.576 622.628 106.668 620.794 106.668ZM620.794 105.772C622.138 105.772 623.146 104.932 623.146 103.28V103C623.146 101.348 622.138 100.494 620.794 100.494C619.436 100.494 618.428 101.348 618.428 103V103.28C618.428 104.932 619.436 105.772 620.794 105.772ZM628.396 112.1H619.478V107.97H620.486V111.176H628.396V112.1ZM630.864 105.73C630.864 102.818 631.942 100.368 633.874 98.282L634.56 98.898C632.698 100.984 631.844 103.28 631.844 105.73C631.844 108.18 632.698 110.476 634.56 112.562L633.874 113.178C631.942 111.092 630.864 108.642 630.864 105.73ZM642.061 106.962V110.14H647.605V111.05H635.509V110.14H641.067V106.962H640.647C638.281 106.962 636.825 105.408 636.825 103.434C636.825 101.46 638.281 99.92 640.647 99.92H642.481C644.833 99.92 646.303 101.46 646.303 103.434C646.303 105.408 644.833 106.962 642.481 106.962H642.061ZM637.833 103.434C637.833 104.918 638.911 106.052 640.801 106.052H642.313C644.203 106.052 645.295 104.904 645.295 103.434C645.295 101.95 644.203 100.844 642.313 100.844H640.801C638.911 100.844 637.833 101.95 637.833 103.434ZM658.696 112.1V99.178H659.69V112.1H658.696ZM655.322 101.138V108.824C656.036 108.754 656.75 108.656 657.422 108.558L657.534 109.468C655.532 109.776 653.124 109.958 651.164 109.958H649.12L649.064 109.034H650.8V101.138H649.232V100.214H656.89V101.138H655.322ZM654.328 108.908V101.138H651.78V109.034C652.536 109.02 653.418 108.978 654.328 108.908ZM672.868 107.186L667.842 103.672C667.002 104.932 665.518 106.108 663.25 107.186L662.788 106.332C666.106 104.722 667.674 103 667.674 100.956V99.92H668.668V100.956C668.668 101.6 668.542 102.216 668.29 102.818L673.428 106.374L672.868 107.186ZM662.06 111.05V110.14H674.156V111.05H662.06ZM685.429 112.1V99.178H686.409V112.1H685.429ZM680.361 104.106H682.643V99.388H683.609V111.862H682.643V105.016H680.361V104.106ZM678.891 101.194V102.048C678.891 103.07 678.793 104.036 678.583 104.946L681.677 109.58L680.879 110.154L678.233 106.192C677.743 107.606 676.987 108.95 675.965 110.308L675.195 109.692C676.959 107.382 677.939 105.156 677.939 102.048V101.194H675.643V100.284H681.229V101.194H678.891ZM689.983 105.94L689.619 105.072C692.685 103.924 694.239 102.566 694.239 100.984V100.774H690.305V99.864H699.027V100.774H695.247V100.984C695.247 101.516 695.135 102.02 694.897 102.496L699.685 105.086L699.237 105.94L694.393 103.28C693.567 104.274 692.125 105.156 689.983 105.94ZM688.611 107.368H700.707V108.278H695.163V112.254H694.169V108.278H688.611V107.368ZM716.21 112.1H715.202V99.178H716.21V112.1ZM709.168 110.378C707.348 110.378 705.85 109.16 705.85 106.094V104.162C705.85 101.096 707.348 99.878 709.168 99.878C710.988 99.878 712.486 101.096 712.486 104.162V106.094C712.486 109.16 710.988 110.378 709.168 110.378ZM709.168 109.454C710.498 109.454 711.492 108.488 711.492 106.08V104.162C711.492 101.754 710.498 100.802 709.168 100.802C707.838 100.802 706.858 101.754 706.858 104.162V106.08C706.858 108.488 707.838 109.454 709.168 109.454ZM727.162 103.84V105.436H730.662V106.318H718.566V105.436H722.08V103.84C720.806 103.518 720.064 102.804 720.064 101.684C720.064 100.13 721.478 99.36 723.718 99.36H725.524C727.764 99.36 729.178 100.13 729.178 101.684C729.178 102.804 728.436 103.518 727.162 103.84ZM721.058 101.684C721.058 102.636 722.052 103.154 723.886 103.154H725.356C727.176 103.154 728.17 102.608 728.17 101.684C728.17 100.746 727.176 100.242 725.356 100.242H723.886C722.052 100.242 721.058 100.746 721.058 101.684ZM723.046 103.98V105.436H726.196V103.98C725.986 104.022 723.256 104.022 723.046 103.98ZM723.2 107.634H726.028C728.142 107.634 729.248 108.614 729.248 109.93C729.248 111.26 728.142 112.24 726.028 112.24H723.2C721.1 112.24 719.994 111.26 719.994 109.93C719.994 108.614 721.1 107.634 723.2 107.634ZM723.424 111.344H725.804C727.456 111.344 728.24 110.784 728.24 109.93C728.24 109.076 727.456 108.53 725.804 108.53H723.424C721.772 108.53 720.988 109.076 720.988 109.93C720.988 110.784 721.772 111.344 723.424 111.344ZM742.033 104.232H744.175V105.156H742.033V112.1H741.025V99.178H742.033V104.232ZM735.957 99.976V101.6C735.957 102.72 735.817 103.77 735.551 104.778L739.415 109.524L738.673 110.168L735.187 105.884C734.585 107.438 733.605 108.894 732.233 110.308L731.533 109.636C733.815 107.298 734.977 104.834 734.977 101.6V99.976H735.957ZM749.428 100.494H752.676V101.348H745.186V100.494H748.434V99.01H749.428V100.494ZM755.308 99.178V102.468H757.464V103.392H755.308V106.668H754.314V99.178H755.308ZM752.074 104.246V104.442C752.074 105.828 750.702 106.57 748.952 106.57C747.202 106.57 745.816 105.828 745.816 104.442V104.246C745.816 102.874 747.202 102.132 748.952 102.132C750.702 102.132 752.074 102.874 752.074 104.246ZM746.81 104.288V104.428C746.81 105.24 747.748 105.73 748.952 105.73C750.142 105.73 751.094 105.24 751.094 104.428V104.288C751.094 103.49 750.142 102.972 748.952 102.972C747.748 102.972 746.81 103.49 746.81 104.288ZM750.016 107.438H752.62C754.51 107.438 755.63 108.46 755.63 109.846C755.63 111.232 754.51 112.226 752.62 112.226H750.016C748.126 112.226 746.992 111.232 746.992 109.846C746.992 108.46 748.126 107.438 750.016 107.438ZM750.198 111.33H752.424C753.908 111.33 754.622 110.714 754.622 109.832C754.622 108.964 753.908 108.348 752.424 108.348H750.198C748.728 108.348 748 108.964 748 109.832C748 110.714 748.728 111.33 750.198 111.33ZM768.348 106.962V110.14H773.892V111.05H761.796V110.14H767.354V106.962H766.934C764.568 106.962 763.112 105.408 763.112 103.434C763.112 101.46 764.568 99.92 766.934 99.92H768.768C771.12 99.92 772.59 101.46 772.59 103.434C772.59 105.408 771.12 106.962 768.768 106.962H768.348ZM764.12 103.434C764.12 104.918 765.198 106.052 767.088 106.052H768.6C770.49 106.052 771.582 104.904 771.582 103.434C771.582 101.95 770.49 100.844 768.6 100.844H767.088C765.198 100.844 764.12 101.95 764.12 103.434ZM785.991 112.1H784.997V99.178H785.991V112.1ZM778.025 110.224H775.841V104.694H780.853V101.124H775.841V100.214H781.861V105.604H776.835V109.314H778.193C779.775 109.314 781.819 109.132 783.443 108.88L783.569 109.748C782.043 110.042 779.929 110.224 778.025 110.224ZM798.483 99.178H799.449V108.992H798.483V99.178ZM795.753 103.392H794.017C793.989 105.59 792.827 106.668 791.329 106.668C789.775 106.668 788.613 105.562 788.613 103.294V103C788.613 100.704 789.775 99.598 791.329 99.598C792.729 99.598 793.835 100.536 793.989 102.482H795.753V99.318H796.705V108.572H795.753V103.392ZM789.551 103.014V103.28C789.551 104.904 790.307 105.772 791.329 105.772C792.323 105.772 793.065 104.904 793.065 103.28V103.014C793.065 101.362 792.323 100.494 791.329 100.494C790.307 100.494 789.551 101.362 789.551 103.014ZM791.959 108.166V111.176H800.051V112.1H790.965V108.166H791.959ZM811.73 112.1V99.178H812.71V112.1H811.73ZM807.194 104.372H808.944V99.388H809.91V111.862H808.944V105.282H807.194V104.372ZM803.008 109.314H803.876C805.234 109.314 806.354 109.216 807.67 109.006L807.782 109.888C806.55 110.098 805.388 110.224 803.68 110.224H802.014V100.214H806.802V101.124H803.008V104.694H806.662V105.604H803.008V109.314ZM825.818 112.1H824.81V99.178H825.818V112.1ZM818.776 110.378C816.956 110.378 815.458 109.16 815.458 106.094V104.162C815.458 101.096 816.956 99.878 818.776 99.878C820.596 99.878 822.094 101.096 822.094 104.162V106.094C822.094 109.16 820.596 110.378 818.776 110.378ZM818.776 109.454C820.106 109.454 821.1 108.488 821.1 106.08V104.162C821.1 101.754 820.106 100.802 818.776 100.802C817.446 100.802 816.466 101.754 816.466 104.162V106.08C816.466 108.488 817.446 109.454 818.776 109.454ZM839.093 108.992H838.099V104.582H835.313V103.728H838.099V102.02H835.313V101.152H838.099V99.178H839.093V108.992ZM836.041 106.108L835.453 106.864L831.925 103.882C831.309 105.044 830.301 106.094 828.887 107.06L828.327 106.29C830.539 104.736 831.701 103.014 831.701 100.732V99.71H832.681V100.732C832.681 101.53 832.555 102.272 832.317 102.972L836.041 106.108ZM831.785 108.166V111.176H839.695V112.1H830.791V108.166H831.785ZM844.92 105.73C844.92 108.642 843.842 111.092 841.91 113.178L841.224 112.562C843.086 110.476 843.94 108.18 843.94 105.73C843.94 103.28 843.086 100.984 841.224 98.898L841.91 98.282C843.842 100.368 844.92 102.818 844.92 105.73Z" fill="black"/>
<path d="M646.327 143.372H648.343V144.282H646.327V151.1H645.333V138.178H646.327V143.372ZM640.265 139.83H643.471V140.684H636.037V139.83H639.257V138.192H640.265V139.83ZM640.335 146.634V148.398C641.581 148.328 642.939 148.216 644.101 148.062L644.213 148.944C642.323 149.196 639.831 149.378 637.983 149.378H635.855L635.813 148.468H638.039C638.417 148.468 638.851 148.454 639.327 148.44V146.648C637.787 146.508 636.667 145.654 636.667 144.254V144.016C636.667 142.462 638.011 141.608 639.775 141.608C641.511 141.608 642.855 142.462 642.855 144.016V144.254C642.855 145.626 641.791 146.466 640.335 146.634ZM637.647 144.044V144.24C637.647 145.22 638.571 145.822 639.775 145.822C640.965 145.822 641.875 145.22 641.875 144.24V144.044C641.875 143.064 640.965 142.448 639.775 142.448C638.571 142.448 637.647 143.064 637.647 144.044ZM659.854 143.792L654.996 141.342C654.17 142.28 652.77 143.092 650.712 143.792L650.362 142.91C653.372 141.888 654.912 140.6 654.912 139.088V138.36H655.892V139.088C655.892 139.606 655.78 140.096 655.542 140.558L660.288 142.952L659.854 143.792ZM649.284 145.976V145.052H661.38V145.976H655.836V148.608H654.842V145.976H649.284ZM650.922 147.348H651.93V150.176H660.036V151.1H650.922V147.348ZM672.472 142.98L671.506 142.84C671.772 141.552 671.912 140.194 671.912 139.55H664.184V138.64H672.906V139.284C672.906 140.278 672.766 141.636 672.472 142.98ZM668.636 141.286V143.82H674.656V144.716H662.56V143.82H667.642V141.286H668.636ZM669.196 147.292V147.362C669.196 147.768 669.084 148.146 668.874 148.496L673.718 150.386L673.382 151.24L668.258 149.224C667.334 150.064 665.766 150.722 663.82 151.24L663.526 150.386C666.2 149.644 668.188 148.622 668.188 147.362V147.292H664.128V146.41H673.102V147.292H669.196ZM686.027 143.232H688.169V144.156H686.027V151.1H685.033V138.178H686.027V143.232ZM680.007 140.194V140.936C680.007 141.972 679.881 142.938 679.629 143.862L683.451 148.496L682.681 149.168L679.251 144.982C678.635 146.494 677.669 147.894 676.353 149.308L675.625 148.636C677.753 146.34 679.027 144.128 679.027 140.936V140.194H676.129V139.284H682.933V140.194H680.007ZM699.428 138.178V141.482H701.444V142.392H699.428V144.912H698.434V138.178H699.428ZM697.202 143.498L697.314 144.338C695.424 144.604 692.932 144.758 691.084 144.758H688.956L688.914 143.89H691.14C691.504 143.89 691.91 143.876 692.358 143.862V142.588C690.72 142.476 689.502 141.79 689.502 140.6V140.474C689.502 139.158 690.958 138.472 692.82 138.472C694.668 138.472 696.138 139.158 696.138 140.474V140.6C696.138 141.776 694.948 142.448 693.366 142.574V143.82C694.626 143.764 696.012 143.652 697.202 143.498ZM690.482 140.502V140.586C690.482 141.286 691.448 141.748 692.82 141.748C694.192 141.748 695.144 141.286 695.144 140.586V140.502C695.144 139.774 694.192 139.326 692.82 139.326C691.448 139.326 690.482 139.774 690.482 140.502ZM699.428 148.888H692.26V150.302H699.974V151.17H691.266V148.048H698.434V146.676H691.196V145.822H699.428V148.888ZM715.982 143.232H718.124V144.156H715.982V151.1H714.974V138.178H715.982V143.232ZM709.906 138.976V140.6C709.906 141.72 709.766 142.77 709.5 143.778L713.364 148.524L712.622 149.168L709.136 144.884C708.534 146.438 707.554 147.894 706.182 149.308L705.482 148.636C707.764 146.298 708.926 143.834 708.926 140.6V138.976H709.906ZM726.01 143.596H724.218C721.978 143.596 720.564 142.644 720.564 140.978C720.564 139.312 721.978 138.36 724.218 138.36H726.01C728.264 138.36 729.678 139.312 729.678 140.978C729.678 142.644 728.264 143.596 726.01 143.596ZM725.856 139.242H724.386C722.566 139.242 721.558 139.914 721.558 140.978C721.558 142.042 722.566 142.714 724.386 142.714H725.856C727.662 142.714 728.67 142.028 728.67 140.978C728.67 139.914 727.662 139.242 725.856 139.242ZM719.066 146.046V145.122H731.162V146.046H725.618V148.608H724.624V146.046H719.066ZM720.69 147.348H721.698V150.176H729.818V151.1H720.69V147.348ZM733.909 139.13H742.757V140.054H734.903V144.982H742.883V145.892H733.909V139.13ZM744.437 150.064H732.341V149.14H744.437V150.064ZM755.528 148.44V138.192H756.522V151.1H755.528V149.35H751.594V148.44H755.528ZM749.858 144.548C747.982 144.548 746.47 143.624 746.47 141.762V141.524C746.47 139.662 747.982 138.738 749.858 138.738C751.72 138.738 753.232 139.662 753.232 141.524V141.762C753.232 143.624 751.72 144.548 749.858 144.548ZM747.478 141.552V141.734C747.478 142.98 748.472 143.652 749.858 143.652C751.23 143.652 752.224 142.98 752.224 141.734V141.552C752.224 140.306 751.23 139.634 749.858 139.634C748.472 139.634 747.478 140.306 747.478 141.552ZM754.296 145.654L754.408 146.536C753.148 146.718 751.636 146.858 750.208 146.928C750.11 148.286 749.97 149.714 749.788 151.212L748.794 151.1C748.976 149.63 749.116 148.3 749.214 146.97C748.794 146.984 748.402 146.984 748.024 146.984H745.784L745.728 146.06H748.08C749.676 146.06 752.266 145.906 754.296 145.654ZM768.818 138.192H769.812V145.248H768.818V138.192ZM766.074 138.878V139.564C766.074 142.434 763.708 144.338 759.928 145.444L759.62 144.632C761.65 144.044 763.246 143.162 764.184 142.098C762.882 142.224 761.104 142.308 759.844 142.308H759.564L759.522 141.468H759.802C761.062 141.468 763.4 141.37 764.772 141.23C765.01 140.768 765.136 140.278 765.136 139.774V139.76H759.788V138.878H766.074ZM764.254 146.032H766.984C768.874 146.032 769.994 147.18 769.994 148.636C769.994 150.106 768.874 151.226 766.984 151.226H764.254C762.364 151.226 761.244 150.106 761.244 148.636C761.244 147.18 762.364 146.032 764.254 146.032ZM764.464 150.33H766.774C768.272 150.33 769 149.602 769 148.622C769 147.684 768.272 146.928 766.774 146.928H764.464C762.966 146.928 762.238 147.684 762.238 148.622C762.238 149.602 762.966 150.33 764.464 150.33Z" fill="black"/>
<path d="M582.106 181.102V182.012H576.408V186.1H581.56V187.01H576.408V192.358H575.386V181.102H582.106ZM584.775 186.982V191.448H590.753V192.358H583.753V181.102H590.613V182.012H584.775V186.072H590.347V186.982H584.775ZM602.175 185.232V180.178H603.155V193.1H602.175V186.156H600.173V192.862H599.193V180.388H600.173V185.232H602.175ZM596.449 182.194H592.627V181.284H597.443V182.278C597.443 185.932 595.721 189.04 593.103 191.462L592.389 190.734C594.867 188.522 596.449 185.498 596.449 182.474V182.194ZM615.548 180.178V182.796H617.69V183.72H615.548V186.576H614.54V180.178H615.548ZM610.718 180.738H611.698V186.058H605.65V180.738H606.63V182.474H610.718V180.738ZM606.63 183.356V185.176H610.718V183.356H606.63ZM615.548 190.72H608.506V192.288H616.08V193.17H607.498V189.866H614.54V188.354H607.428V187.486H615.548V190.72ZM628.809 185.232H630.951V186.156H628.809V193.1H627.815V180.178H628.809V185.232ZM622.789 182.194V182.936C622.789 183.972 622.663 184.938 622.411 185.862L626.233 190.496L625.463 191.168L622.033 186.982C621.417 188.494 620.451 189.894 619.135 191.308L618.407 190.636C620.535 188.34 621.809 186.128 621.809 182.936V182.194H618.911V181.284H625.715V182.194H622.789ZM642.099 185.232H644.241V186.156H642.099V193.1H641.091V180.178H642.099V185.232ZM637.353 182.194H632.397V181.284H638.347V182.278C638.347 185.932 636.219 189.11 632.789 191.462L632.187 190.678C635.379 188.536 637.353 185.498 637.353 182.474V182.194ZM659.492 193.1H658.498V180.178H659.492V193.1ZM651.512 190.944H649.482V181.214H655.698V182.138H650.476V190.034H651.68C653.248 190.034 655.292 189.852 656.958 189.6L657.07 190.482C655.53 190.748 653.416 190.944 651.512 190.944ZM672.04 185.232H674.182V186.156H672.04V193.1H671.046V180.178H672.04V185.232ZM666.02 182.194V182.936C666.02 183.972 665.894 184.938 665.642 185.862L669.464 190.496L668.694 191.168L665.264 186.982C664.648 188.494 663.682 189.894 662.366 191.308L661.638 190.636C663.766 188.34 665.04 186.128 665.04 182.936V182.194H662.142V181.284H668.946V182.194H666.02ZM686.043 193.1H685.035V180.178H686.043V193.1ZM679.001 191.378C677.181 191.378 675.683 190.16 675.683 187.094V185.162C675.683 182.096 677.181 180.878 679.001 180.878C680.821 180.878 682.319 182.096 682.319 185.162V187.094C682.319 190.16 680.821 191.378 679.001 191.378ZM679.001 190.454C680.331 190.454 681.325 189.488 681.325 187.08V185.162C681.325 182.754 680.331 181.802 679.001 181.802C677.671 181.802 676.691 182.754 676.691 185.162V187.08C676.691 189.488 677.671 190.454 679.001 190.454ZM698.325 184.42V180.178H699.319V193.1H698.325V185.344H693.915V184.42H698.325ZM690.303 190.034H691.465C693.033 190.034 695.105 189.852 696.785 189.586L696.897 190.468C695.343 190.748 693.187 190.944 691.283 190.944H689.309V181.214H690.303V190.034ZM711.782 193.1V180.178H712.762V193.1H711.782ZM707.246 185.372H708.996V180.388H709.962V192.862H708.996V186.282H707.246V187.094C707.246 190.16 706.084 191.378 704.6 191.378C703.074 191.378 701.926 190.16 701.926 187.094V185.162C701.926 182.096 703.074 180.878 704.6 180.878C706.084 180.878 707.246 182.096 707.246 185.162V185.372ZM706.28 187.08V185.162C706.28 182.754 705.566 181.802 704.586 181.802C703.606 181.802 702.892 182.754 702.892 185.162V187.08C702.892 189.488 703.606 190.454 704.586 190.454C705.566 190.454 706.28 189.488 706.28 187.08ZM725.057 193.1V180.178H726.037V193.1H725.057ZM719.849 185.512H722.271V180.388H723.237V192.862H722.271V186.422H719.541C718.785 188.326 717.553 190.02 715.985 191.462L715.271 190.734C717.749 188.522 719.331 185.498 719.331 182.474V182.194H715.509V181.284H720.325V182.278C720.325 183.412 720.157 184.49 719.849 185.512ZM732.077 187.192V186.268H736.445V187.192H732.077ZM746.261 192.568C743.825 192.568 741.949 191.07 741.949 188.032V181.102H742.971V187.906C742.971 190.538 744.329 191.63 746.261 191.63C748.193 191.63 749.551 190.538 749.551 187.906V181.102H750.559V188.032C750.559 191.07 748.683 192.568 746.261 192.568ZM752.978 192.358H751.788L755.82 186.534L752.068 181.102H753.258L756.408 185.68L759.572 181.102H760.762L756.996 186.534L761.028 192.358H759.838L756.408 187.388L752.978 192.358ZM766.577 192.568C764.141 192.568 762.265 191.07 762.265 188.032V181.102H763.287V187.906C763.287 190.538 764.645 191.63 766.577 191.63C768.509 191.63 769.867 190.538 769.867 187.906V181.102H770.875V188.032C770.875 191.07 768.999 192.568 766.577 192.568ZM774.103 192.358H773.081V181.102H774.103V192.358ZM789.426 180.178V182.796H791.568V183.72H789.426V186.506H788.418V180.178H789.426ZM786.36 186.296L782.65 184C782.006 184.98 780.942 185.82 779.458 186.576L778.996 185.75C781.236 184.56 782.454 183.216 782.454 181.368V180.626H783.434V181.368C783.434 182.012 783.322 182.614 783.098 183.16L786.878 185.498L786.36 186.296ZM789.426 190.692H782.384V192.288H789.958V193.17H781.39V189.824H788.418V188.284H781.32V187.43H789.426V190.692ZM802.422 183.79V180.178H803.416V193.1H802.422V187.682H800.042V186.758H802.422V184.7H800.042V183.79H802.422ZM798.712 182.138V189.838C799.454 189.768 800.21 189.684 800.91 189.586L801.022 190.482C799.09 190.776 796.752 190.958 794.82 190.958H792.846L792.79 190.034H794.47V182.138H792.944V181.214H800.378V182.138H798.712ZM797.732 189.922V182.138H795.436V190.034C796.136 190.02 796.92 189.978 797.732 189.922ZM812.337 188.032V191.14H817.881V192.064H805.785V191.14H811.343V188.032H807.353V181.06H808.347V183.664H815.319V181.06H816.327V188.032H812.337ZM815.319 184.588H808.347V187.122H815.319V184.588ZM828.987 193.1V180.178H829.981V193.1H828.987ZM825.039 182.194H819.943V181.284H826.047V182.278C826.047 185.932 823.863 189.124 820.335 191.462L819.747 190.678C823.023 188.55 825.039 185.498 825.039 182.474V182.194Z" fill="black"/>
<path d="M619.164 226.492H617.33C615.02 226.492 613.592 225.344 613.592 223.566C613.592 221.816 615.02 220.668 617.33 220.668H619.164C621.46 220.668 622.916 221.816 622.916 223.566C622.916 225.344 621.46 226.492 619.164 226.492ZM618.996 221.564H617.484C615.636 221.564 614.586 222.376 614.586 223.566C614.586 224.784 615.636 225.596 617.484 225.596H618.996C620.858 225.596 621.908 224.77 621.908 223.566C621.908 222.376 620.858 221.564 618.996 221.564ZM612.192 228.368H624.288V229.278H618.744V233.24H617.75V229.278H612.192V228.368ZM635.379 233.1V220.178H636.373V233.1H635.379ZM632.005 222.138V229.824C632.719 229.754 633.433 229.656 634.105 229.558L634.217 230.468C632.215 230.776 629.807 230.958 627.847 230.958H625.803L625.747 230.034H627.483V222.138H625.915V221.214H633.573V222.138H632.005ZM631.011 229.908V222.138H628.463V230.034C629.219 230.02 630.101 229.978 631.011 229.908ZM645.294 228.368V231.14H650.838V232.064H638.742V231.14H644.3V228.368H640.31V224.28H648.276V222.04H640.24V221.13H649.284V225.176H641.304V227.472H649.564V228.368H645.294ZM661.974 227.752V231.14H667.518V232.064H655.422V231.14H660.98V227.752H656.99V221.13H657.984V226.842H666.062V227.752H661.974ZM678.287 224.672C678.357 223.86 678.399 223.146 678.399 222.614V222.18H670.069V221.27H679.393V222.39C679.393 224.21 679.085 226.856 678.679 229.054L677.699 228.886C677.895 227.836 678.077 226.674 678.189 225.596C676.187 225.792 672.981 225.932 671.021 225.932H670.041L669.999 225.022H671.091C672.813 225.022 676.215 224.896 678.287 224.672ZM674.507 227.29V231.14H680.793V232.064H668.697V231.14H673.513V227.29H674.507ZM683.541 221.13H692.389V222.054H684.535V226.982H692.515V227.892H683.541V221.13ZM694.069 232.064H681.973V231.14H694.069V232.064ZM708.9 228.06V220.178H709.866V228.06H708.9ZM703.146 227.472V226.688H706.282V220.318H707.234V228.06H706.282V227.472H703.146ZM701.914 224.462C700.318 224.462 699.156 223.776 699.156 222.53V222.418C699.156 221.144 700.318 220.472 701.914 220.472C703.496 220.472 704.658 221.144 704.658 222.418V222.53C704.658 223.776 703.496 224.462 701.914 224.462ZM700.094 222.432V222.502C700.094 223.174 700.85 223.65 701.914 223.65C702.978 223.65 703.72 223.174 703.72 222.502V222.432C703.72 221.732 702.978 221.284 701.914 221.284C700.85 221.284 700.094 221.732 700.094 222.432ZM702.054 228.228L701.088 228.158C701.158 227.514 701.228 226.8 701.27 226.156C700.864 226.17 700.486 226.17 700.122 226.17H698.596L698.554 225.33H700.164C701.452 225.33 703.552 225.232 705.316 225.008L705.4 225.82C704.42 225.96 703.3 226.058 702.222 226.114C702.18 226.8 702.11 227.542 702.054 228.228ZM702.264 229.978H708.886V228.634H709.866V233.1H701.284V228.634H702.264V229.978ZM702.264 230.804V232.26H708.886V230.804H702.264ZM722.12 225.232H724.262V226.156H722.12V233.1H721.112V220.178H722.12V225.232ZM716.044 220.976V222.6C716.044 223.72 715.904 224.77 715.638 225.778L719.502 230.524L718.76 231.168L715.274 226.884C714.672 228.438 713.692 229.894 712.32 231.308L711.62 230.636C713.902 228.298 715.064 225.834 715.064 222.6V220.976H716.044ZM736.123 233.1H735.115V220.178H736.123V233.1ZM729.081 231.378C727.261 231.378 725.763 230.16 725.763 227.094V225.162C725.763 222.096 727.261 220.878 729.081 220.878C730.901 220.878 732.399 222.096 732.399 225.162V227.094C732.399 230.16 730.901 231.378 729.081 231.378ZM729.081 230.454C730.411 230.454 731.405 229.488 731.405 227.08V225.162C731.405 222.754 730.411 221.802 729.081 221.802C727.751 221.802 726.771 222.754 726.771 225.162V227.08C726.771 229.488 727.751 230.454 729.081 230.454ZM741.041 227.598H749.301V228.508H740.047V221.13H749.021V222.04H741.041V224.35H749.021V225.246H741.041V227.598ZM738.479 232.064V231.14H750.575V232.064H738.479ZM765.364 220.178V223.608H767.506V224.532H765.364V229.992H764.356V220.178H765.364ZM755.466 220.948H761.514V227.332H755.466V220.948ZM756.446 226.436H760.534V221.844H756.446V226.436ZM757.314 229.166H758.322V232.176H766.092V233.1H757.314V229.166ZM770.128 220.43H778.71V221.27H771.122V223.552H778.85V224.392H770.128V220.43ZM780.53 226.422H768.434V225.568H780.53V226.422ZM779.326 233.17H770.002V229.978H777.968V228.536H769.932V227.682H778.976V230.818H770.996V232.316H779.326V233.17ZM791.635 233.1V220.178H792.629V233.1H791.635ZM787.687 222.194H782.591V221.284H788.695V222.278C788.695 225.932 786.511 229.124 782.983 231.462L782.395 230.678C785.671 228.55 787.687 225.498 787.687 222.474V222.194Z" fill="black"/>
<path d="M658.696 319.1V306.178H659.69V319.1H658.696ZM655.322 308.138V315.824C656.036 315.754 656.75 315.656 657.422 315.558L657.534 316.468C655.532 316.776 653.124 316.958 651.164 316.958H649.12L649.064 316.034H650.8V308.138H649.232V307.214H656.89V308.138H655.322ZM654.328 315.908V308.138H651.78V316.034C652.536 316.02 653.418 315.978 654.328 315.908ZM671.44 308.642V308.18H663.446V307.27H672.434V308.418C672.434 310.35 672.112 312.94 671.678 315.25L670.698 315.082C671.132 312.786 671.44 310.14 671.44 308.642ZM662.06 318.064V317.14H674.156V318.064H662.06ZM685.541 311.232H687.683V312.156H685.541V319.1H684.533V306.178H685.541V311.232ZM681.691 316.972H675.643V307.214H681.691V316.972ZM680.697 308.138H676.637V316.048H680.697V308.138ZM695.162 314.368V317.14H700.706V318.064H688.61V317.14H694.168V314.368H690.178V310.28H698.144V308.04H690.108V307.13H699.152V311.176H691.172V313.472H699.432V314.368H695.162ZM709.742 307.466H712.836V308.32H705.64V307.466H708.72V306.01H709.742V307.466ZM715.202 309.118V306.178H716.196V313.332H715.202V312.31H712.822V311.47H715.202V309.944H712.822V309.118H715.202ZM712.248 311.12V311.302C712.248 312.646 710.946 313.374 709.252 313.374C707.544 313.374 706.256 312.646 706.256 311.302V311.12C706.256 309.79 707.544 309.062 709.252 309.062C710.946 309.062 712.248 309.79 712.248 311.12ZM707.208 311.148V311.288C707.208 312.03 708.09 312.52 709.252 312.52C710.4 312.52 711.282 312.03 711.282 311.288V311.148C711.282 310.406 710.4 309.916 709.252 309.916C708.09 309.916 707.208 310.406 707.208 311.148ZM708.888 315.642H715.202V314.102H716.196V319.086H707.894V314.102H708.888V315.642ZM708.888 316.538V318.204H715.202V316.538H708.888ZM728.478 309.076V306.178H729.486V312.926H728.478V309.986H725.818C725.65 311.68 724.222 312.534 722.486 312.534C720.624 312.534 719.126 311.568 719.126 309.65V309.412C719.126 307.48 720.624 306.528 722.486 306.528C724.222 306.528 725.65 307.368 725.818 309.076H728.478ZM724.838 309.636V309.426C724.838 308.124 723.844 307.438 722.486 307.438C721.114 307.438 720.134 308.124 720.134 309.426V309.636C720.134 310.924 721.114 311.624 722.486 311.624C723.844 311.624 724.838 310.924 724.838 309.636ZM722.178 315.418H728.478V313.696H729.486V319.1H721.184V313.696H722.178V315.418ZM722.178 316.314V318.19H728.478V316.314H722.178ZM742.033 311.232H744.189V312.156H742.033V319.1H741.039V306.178H742.033V311.232ZM735.159 306.192H736.153V308.236H739.401V309.146H731.911V308.236H735.159V306.192ZM735.677 310.476C737.413 310.476 738.785 311.624 738.785 313.5V314.242C738.785 316.104 737.413 317.28 735.677 317.28C733.927 317.28 732.541 316.104 732.541 314.242V313.5C732.541 311.624 733.927 310.476 735.677 310.476ZM737.791 314.2V313.542C737.791 312.198 736.853 311.4 735.677 311.4C734.473 311.4 733.549 312.198 733.549 313.542V314.2C733.549 315.544 734.473 316.37 735.677 316.37C736.853 316.37 737.791 315.544 737.791 314.2ZM755.042 319.1V306.178H756.036V319.1H755.042ZM751.094 308.194H745.998V307.284H752.102V308.278C752.102 311.932 749.918 315.124 746.39 317.462L745.802 316.678C749.078 314.55 751.094 311.498 751.094 308.474V308.194Z" fill="black"/>
<path d="M648.36 350.586V350.18H640.1V349.27H649.354V350.362C649.354 352.182 649.046 354.646 648.64 356.858L647.66 356.676C648.066 354.506 648.36 352 648.36 350.586ZM645.952 353.792V359.14H650.838V360.064H638.742V359.14H641.71V353.792H642.676V359.14H644.986V353.792H645.952ZM658.976 353.078H657.17C654.93 353.078 653.516 352.28 653.516 350.712C653.516 349.158 654.93 348.36 657.17 348.36H658.976C661.216 348.36 662.63 349.158 662.63 350.712C662.63 352.28 661.216 353.078 658.976 353.078ZM658.808 349.256H657.338C655.518 349.256 654.51 349.774 654.51 350.726C654.51 351.65 655.518 352.196 657.338 352.196H658.808C660.628 352.196 661.622 351.65 661.622 350.726C661.622 349.774 660.628 349.256 658.808 349.256ZM664.114 354.464V355.346H660.768V357.04H662.56V361.24H661.552V357.95H653.586V357.04H655.392V355.346H652.018V354.464H664.114ZM656.372 357.04H659.788V355.346H656.372V357.04ZM670.069 353.316L669.789 352.462C672.799 351.706 674.339 350.628 674.339 349.382H670.461V348.5H679.043V349.382H675.319C675.319 349.816 675.207 350.236 674.997 350.614L679.687 352.49L679.323 353.316L674.423 351.342C673.597 352.14 672.169 352.784 670.069 353.316ZM675.249 352.896V354.366H680.793V355.248H668.697V354.366H674.255V352.896H675.249ZM673.331 356.634H676.159C678.273 356.634 679.379 357.614 679.379 358.93C679.379 360.274 678.273 361.24 676.159 361.24H673.331C671.231 361.24 670.125 360.274 670.125 358.93C670.125 357.614 671.231 356.634 673.331 356.634ZM673.555 360.358H675.935C677.587 360.358 678.371 359.784 678.371 358.93C678.371 358.076 677.587 357.53 675.935 357.53H673.555C671.903 357.53 671.119 358.076 671.119 358.93C671.119 359.784 671.903 360.358 673.555 360.358ZM683.541 352.14H691.507V350.04H683.471V349.13H692.515V353.036H684.535V355.206H692.795V356.102H683.541V352.14ZM690.681 356.872V359.14H694.069V360.064H681.973V359.14H685.375V356.872H686.355V359.14H689.701V356.872H690.681ZM708.592 348.192H709.586V355.248H708.592V348.192ZM699.366 348.808H705.54V354.058H699.366V348.808ZM700.346 353.176H704.56V349.69H700.346V353.176ZM705.764 358.496L710.412 360.372L710.034 361.226L705.204 359.224C704.35 360.05 702.838 360.722 700.71 361.226L700.416 360.358C703.244 359.672 704.98 358.706 704.98 357.53V357.516H701.074V356.634H704.98V355.052H706.002V356.634H709.782V357.516H706.002V357.53C706.002 357.866 705.918 358.188 705.764 358.496ZM725.426 361.1V348.178H726.406V361.1H725.426ZM718.888 351.3V351.496C718.888 352.406 718.79 353.26 718.608 354.086L721.688 358.566L720.89 359.154L718.258 355.29C717.782 356.662 717.012 357.964 715.934 359.308L715.192 358.692C716.984 356.424 717.922 354.31 717.922 351.496V351.3H715.584V350.39H717.922V348.192H718.902V350.39H721.282V351.3H718.888ZM720.358 353.372H722.64V348.388H723.606V360.862H722.64V354.282H720.358V353.372ZM738.03 352.868C738.114 352 738.156 351.216 738.156 350.642V350.18H730.106V349.27H739.15V350.418C739.15 352.35 738.828 355.136 738.394 357.46L737.414 357.278C737.624 356.172 737.806 354.94 737.932 353.792C735.972 354.002 732.906 354.114 730.988 354.114H730.078L730.036 353.204H731.044C732.766 353.204 736 353.078 738.03 352.868ZM728.608 360.064V359.14H740.704V360.064H728.608ZM752.075 353.232H754.231V354.156H752.075V361.1H751.081V348.178H752.075V353.232ZM745.313 348.878C747.105 348.878 748.561 350.096 748.561 353.162V355.094C748.561 358.16 747.105 359.378 745.313 359.378C743.507 359.378 742.051 358.16 742.051 355.094V353.162C742.051 350.096 743.507 348.878 745.313 348.878ZM747.553 355.08V353.162C747.553 350.754 746.601 349.802 745.313 349.802C744.011 349.802 743.045 350.754 743.045 353.162V355.08C743.045 357.488 744.011 358.454 745.313 358.454C746.601 358.454 747.553 357.488 747.553 355.08ZM762.116 352.994H760.296C758.07 352.994 756.656 352.21 756.656 350.67C756.656 349.116 758.07 348.36 760.296 348.36H762.116C764.356 348.36 765.77 349.116 765.77 350.67C765.77 352.21 764.356 352.994 762.116 352.994ZM761.962 349.256H760.464C758.644 349.256 757.65 349.76 757.65 350.684C757.65 351.608 758.644 352.112 760.464 352.112H761.962C763.768 352.112 764.762 351.594 764.762 350.684C764.762 349.76 763.768 349.256 761.962 349.256ZM755.158 355.276V354.408H767.254V355.276H761.71V356.578H760.716V355.276H755.158ZM761.794 357.012V357.558C761.794 357.964 761.682 358.328 761.486 358.664L766.344 360.274L766.022 361.17L760.828 359.42C759.862 360.218 758.252 360.792 756.376 361.24L756.096 360.344C758.7 359.742 760.772 358.832 760.772 357.558V357.012H761.794Z" fill="black"/>
<path d="M87.3866 20.506H86.0006V14.164H87.3866V20.506ZM80.2466 20.212C78.2866 20.212 76.7606 19.274 76.7606 17.398V17.188C76.7606 15.298 78.2866 14.374 80.2466 14.374C82.1786 14.374 83.7186 15.298 83.7186 17.188V17.398C83.7186 19.274 82.1786 20.212 80.2466 20.212ZM80.2466 18.98C81.4366 18.98 82.3186 18.434 82.3186 17.37V17.216C82.3186 16.152 81.4366 15.606 80.2466 15.606C79.0426 15.606 78.1606 16.152 78.1606 17.216V17.37C78.1606 18.434 79.0426 18.98 80.2466 18.98ZM87.8766 27.226H78.8046V23.656H86.0006V22.48H78.7346V21.318H87.3866V24.804H80.2046V26.036H87.8766V27.226ZM99.934 19.05H101.936V20.324H99.934V27.156H98.534V14.164H99.934V19.05ZM93.914 16.46V17.02C93.914 18 93.802 18.924 93.564 19.82L97.246 24.342L96.196 25.252L93.032 21.346C92.43 22.76 91.506 24.076 90.274 25.392L89.28 24.468C91.394 22.186 92.556 20.016 92.556 17.02V16.46H89.784V15.186H96.728V16.46H93.914Z" fill="black"/>
<path d="M292.487 27.156V14.164H293.887V27.156H292.487ZM287.545 14.92V16.614C287.545 17.72 287.419 18.756 287.153 19.75L291.003 24.356L289.953 25.252L286.635 21.248C286.005 22.704 285.053 24.062 283.723 25.392L282.743 24.454C285.081 22.102 286.187 19.722 286.187 16.614V14.92H287.545ZM306.434 14.164V17.426H308.45V18.686H306.434V23.894H305.034V14.164H306.434ZM302.654 14.92V15.718C302.654 18.7 300.442 20.786 296.816 22.158L296.214 20.968C299.35 19.778 301.156 18 301.254 16.194H296.508V14.92H302.654ZM298.118 22.942H299.504V25.882H307.106V27.156H298.118V22.942Z" fill="black"/>
<path d="M700.239 19.05V14.164H701.597V27.156H700.239V20.324H698.573V26.89H697.257V14.36H698.573V19.05H700.239ZM692.161 23.768H692.791C693.799 23.768 694.947 23.698 696.249 23.502L696.389 24.734C695.129 24.958 693.939 25.042 692.595 25.042H690.761V15.116H692.161V23.768ZM712.408 18.84V20.268H715.74V21.472H703.532V20.268H706.878V18.84C705.688 18.518 704.96 17.79 704.96 16.67C704.96 15.074 706.43 14.304 708.614 14.304H710.658C712.856 14.304 714.312 15.074 714.312 16.67C714.312 17.79 713.598 18.504 712.408 18.84ZM706.36 16.684C706.36 17.468 707.256 17.888 708.866 17.888H710.42C712.03 17.888 712.926 17.454 712.926 16.684C712.926 15.886 712.03 15.48 710.42 15.48H708.866C707.256 15.48 706.36 15.886 706.36 16.684ZM708.208 19.036V20.268H711.078V19.036C710.126 19.05 709.16 19.05 708.208 19.036ZM708.152 22.578H711.12C713.22 22.578 714.382 23.572 714.382 24.93C714.382 26.302 713.22 27.296 711.12 27.296H708.152C706.052 27.296 704.89 26.302 704.89 24.93C704.89 23.572 706.052 22.578 708.152 22.578ZM708.432 26.078H710.854C712.324 26.078 712.996 25.63 712.996 24.916C712.996 24.23 712.324 23.782 710.854 23.782H708.432C706.962 23.782 706.29 24.23 706.29 24.916C706.29 25.63 706.962 26.078 708.432 26.078Z" fill="black"/>
<path d="M254.349 151.61C252.081 151.61 250.233 149.986 250.233 146.822V144.624C250.233 141.488 252.081 139.85 254.349 139.85C256.617 139.85 258.479 141.488 258.479 144.624V146.822C258.479 149.986 256.617 151.61 254.349 151.61ZM254.349 150.35C255.875 150.35 257.065 149.202 257.065 146.752V144.708C257.065 142.258 255.875 141.11 254.349 141.11C252.823 141.11 251.633 142.258 251.633 144.708V146.752C251.633 149.202 252.823 150.35 254.349 150.35ZM264.27 139.85C266.566 139.85 268.288 141.264 268.288 143.784V146.612C268.288 150.154 266.37 151.61 264.382 151.61C262.478 151.61 261.19 150.742 260.434 149.16L261.61 148.544C262.198 149.72 262.968 150.364 264.326 150.364C265.824 150.364 267 149.202 266.986 146.556V146.01C266.37 146.99 265.208 147.508 264.032 147.508C262.002 147.508 260.224 146.038 260.224 143.672C260.224 141.306 262.002 139.85 264.27 139.85ZM264.256 146.262C265.726 146.262 266.888 145.324 266.888 143.686C266.888 142.048 265.726 141.096 264.256 141.096C262.8 141.096 261.61 142.048 261.61 143.686C261.61 145.324 262.8 146.262 264.256 146.262ZM271.315 143.308C270.783 143.308 270.349 142.874 270.349 142.342C270.349 141.81 270.783 141.39 271.315 141.39C271.847 141.39 272.267 141.81 272.267 142.342C272.267 142.874 271.847 143.308 271.315 143.308ZM271.315 150.07C270.783 150.07 270.349 149.636 270.349 149.104C270.349 148.572 270.783 148.152 271.315 148.152C271.847 148.152 272.267 148.572 272.267 149.104C272.267 149.636 271.847 150.07 271.315 150.07ZM278.453 151.61C276.185 151.61 274.337 149.986 274.337 146.822V144.624C274.337 141.488 276.185 139.85 278.453 139.85C280.721 139.85 282.583 141.488 282.583 144.624V146.822C282.583 149.986 280.721 151.61 278.453 151.61ZM278.453 150.35C279.979 150.35 281.169 149.202 281.169 146.752V144.708C281.169 142.258 279.979 141.11 278.453 141.11C276.927 141.11 275.737 142.258 275.737 144.708V146.752C275.737 149.202 276.927 150.35 278.453 150.35ZM288.584 151.61C286.316 151.61 284.468 149.986 284.468 146.822V144.624C284.468 141.488 286.316 139.85 288.584 139.85C290.852 139.85 292.714 141.488 292.714 144.624V146.822C292.714 149.986 290.852 151.61 288.584 151.61ZM288.584 150.35C290.11 150.35 291.3 149.202 291.3 146.752V144.708C291.3 142.258 290.11 141.11 288.584 141.11C287.058 141.11 285.868 142.258 285.868 144.708V146.752C285.868 149.202 287.058 150.35 288.584 150.35ZM294.598 146.374V145.072H299.148V146.374H294.598ZM305.252 151.4H303.852V141.908L301.276 143.966L300.478 142.916L304.062 140.06H305.252V151.4ZM315.354 151.4H307.682V150.308L311.84 146.178C313.114 144.918 313.702 144.036 313.702 142.986C313.702 141.852 312.89 141.11 311.448 141.11C310.048 141.11 309.334 142.132 308.956 143.378L307.626 143.056C308.088 141.39 309.32 139.85 311.448 139.85C313.632 139.85 315.088 141.026 315.088 142.93C315.088 144.47 314.262 145.59 312.904 146.934L309.698 150.112H315.354V151.4ZM318.387 143.308C317.855 143.308 317.421 142.874 317.421 142.342C317.421 141.81 317.855 141.39 318.387 141.39C318.919 141.39 319.339 141.81 319.339 142.342C319.339 142.874 318.919 143.308 318.387 143.308ZM318.387 150.07C317.855 150.07 317.421 149.636 317.421 149.104C317.421 148.572 317.855 148.152 318.387 148.152C318.919 148.152 319.339 148.572 319.339 149.104C319.339 149.636 318.919 150.07 318.387 150.07ZM325.525 151.61C323.257 151.61 321.409 149.986 321.409 146.822V144.624C321.409 141.488 323.257 139.85 325.525 139.85C327.793 139.85 329.655 141.488 329.655 144.624V146.822C329.655 149.986 327.793 151.61 325.525 151.61ZM325.525 150.35C327.051 150.35 328.241 149.202 328.241 146.752V144.708C328.241 142.258 327.051 141.11 325.525 141.11C323.999 141.11 322.809 142.258 322.809 144.708V146.752C322.809 149.202 323.999 150.35 325.525 150.35ZM335.656 151.61C333.388 151.61 331.54 149.986 331.54 146.822V144.624C331.54 141.488 333.388 139.85 335.656 139.85C337.924 139.85 339.786 141.488 339.786 144.624V146.822C339.786 149.986 337.924 151.61 335.656 151.61ZM335.656 150.35C337.182 150.35 338.372 149.202 338.372 146.752V144.708C338.372 142.258 337.182 141.11 335.656 141.11C334.13 141.11 332.94 142.258 332.94 144.708V146.752C332.94 149.202 334.13 150.35 335.656 150.35Z" fill="black"/>
<path d="M256.437 191.4H255.037V181.908L252.461 183.966L251.663 182.916L255.247 180.06H256.437V191.4ZM265.699 187.872H267.449V189.16H265.699V191.61H264.313V189.16H258.615V188.012L263.823 180.06H265.699V187.872ZM264.313 181.656L260.295 187.872H264.313V181.656ZM270.051 183.308C269.519 183.308 269.085 182.874 269.085 182.342C269.085 181.81 269.519 181.39 270.051 181.39C270.583 181.39 271.003 181.81 271.003 182.342C271.003 182.874 270.583 183.308 270.051 183.308ZM270.051 190.07C269.519 190.07 269.085 189.636 269.085 189.104C269.085 188.572 269.519 188.152 270.051 188.152C270.583 188.152 271.003 188.572 271.003 189.104C271.003 189.636 270.583 190.07 270.051 190.07ZM277.189 191.61C274.921 191.61 273.073 189.986 273.073 186.822V184.624C273.073 181.488 274.921 179.85 277.189 179.85C279.457 179.85 281.319 181.488 281.319 184.624V186.822C281.319 189.986 279.457 191.61 277.189 191.61ZM277.189 190.35C278.715 190.35 279.905 189.202 279.905 186.752V184.708C279.905 182.258 278.715 181.11 277.189 181.11C275.663 181.11 274.473 182.258 274.473 184.708V186.752C274.473 189.202 275.663 190.35 277.189 190.35ZM287.32 191.61C285.052 191.61 283.204 189.986 283.204 186.822V184.624C283.204 181.488 285.052 179.85 287.32 179.85C289.588 179.85 291.45 181.488 291.45 184.624V186.822C291.45 189.986 289.588 191.61 287.32 191.61ZM287.32 190.35C288.846 190.35 290.036 189.202 290.036 186.752V184.708C290.036 182.258 288.846 181.11 287.32 181.11C285.794 181.11 284.604 182.258 284.604 184.708V186.752C284.604 189.202 285.794 190.35 287.32 190.35ZM293.335 186.374V185.072H297.885V186.374H293.335ZM303.988 191.4H302.588V181.908L300.012 183.966L299.214 182.916L302.798 180.06H303.988V191.4ZM310.702 183.952C312.718 183.952 314.51 185.422 314.51 187.788C314.51 190.154 312.718 191.61 310.464 191.61C308.168 191.61 306.446 190.196 306.446 187.662V184.834C306.446 181.306 308.364 179.85 310.338 179.85C312.256 179.85 313.53 180.718 314.286 182.3L313.124 182.916C312.522 181.726 311.766 181.096 310.394 181.096C308.896 181.096 307.734 182.258 307.748 184.89V185.436C308.364 184.456 309.512 183.952 310.702 183.952ZM310.464 190.364C311.934 190.364 313.124 189.398 313.124 187.76C313.124 186.136 311.934 185.184 310.464 185.184C309.008 185.184 307.832 186.136 307.832 187.76C307.832 189.398 309.008 190.364 310.464 190.364ZM317.397 183.308C316.865 183.308 316.431 182.874 316.431 182.342C316.431 181.81 316.865 181.39 317.397 181.39C317.929 181.39 318.349 181.81 318.349 182.342C318.349 182.874 317.929 183.308 317.397 183.308ZM317.397 190.07C316.865 190.07 316.431 189.636 316.431 189.104C316.431 188.572 316.865 188.152 317.397 188.152C317.929 188.152 318.349 188.572 318.349 189.104C318.349 189.636 317.929 190.07 317.397 190.07ZM324.535 191.61C322.267 191.61 320.419 189.986 320.419 186.822V184.624C320.419 181.488 322.267 179.85 324.535 179.85C326.803 179.85 328.665 181.488 328.665 184.624V186.822C328.665 189.986 326.803 191.61 324.535 191.61ZM324.535 190.35C326.061 190.35 327.251 189.202 327.251 186.752V184.708C327.251 182.258 326.061 181.11 324.535 181.11C323.009 181.11 321.819 182.258 321.819 184.708V186.752C321.819 189.202 323.009 190.35 324.535 190.35ZM334.666 191.61C332.398 191.61 330.55 189.986 330.55 186.822V184.624C330.55 181.488 332.398 179.85 334.666 179.85C336.934 179.85 338.796 181.488 338.796 184.624V186.822C338.796 189.986 336.934 191.61 334.666 191.61ZM334.666 190.35C336.192 190.35 337.382 189.202 337.382 186.752V184.708C337.382 182.258 336.192 181.11 334.666 181.11C333.14 181.11 331.95 182.258 331.95 184.708V186.752C331.95 189.202 333.14 190.35 334.666 190.35Z" fill="black"/>
<path d="M254.349 232.61C252.081 232.61 250.233 230.986 250.233 227.822V225.624C250.233 222.488 252.081 220.85 254.349 220.85C256.617 220.85 258.479 222.488 258.479 225.624V227.822C258.479 230.986 256.617 232.61 254.349 232.61ZM254.349 231.35C255.875 231.35 257.065 230.202 257.065 227.752V225.708C257.065 223.258 255.875 222.11 254.349 222.11C252.823 222.11 251.633 223.258 251.633 225.708V227.752C251.633 230.202 252.823 231.35 254.349 231.35ZM264.27 220.85C266.566 220.85 268.288 222.264 268.288 224.784V227.612C268.288 231.154 266.37 232.61 264.382 232.61C262.478 232.61 261.19 231.742 260.434 230.16L261.61 229.544C262.198 230.72 262.968 231.364 264.326 231.364C265.824 231.364 267 230.202 266.986 227.556V227.01C266.37 227.99 265.208 228.508 264.032 228.508C262.002 228.508 260.224 227.038 260.224 224.672C260.224 222.306 262.002 220.85 264.27 220.85ZM264.256 227.262C265.726 227.262 266.888 226.324 266.888 224.686C266.888 223.048 265.726 222.096 264.256 222.096C262.8 222.096 261.61 223.048 261.61 224.686C261.61 226.324 262.8 227.262 264.256 227.262ZM271.315 224.308C270.783 224.308 270.349 223.874 270.349 223.342C270.349 222.81 270.783 222.39 271.315 222.39C271.847 222.39 272.267 222.81 272.267 223.342C272.267 223.874 271.847 224.308 271.315 224.308ZM271.315 231.07C270.783 231.07 270.349 230.636 270.349 230.104C270.349 229.572 270.783 229.152 271.315 229.152C271.847 229.152 272.267 229.572 272.267 230.104C272.267 230.636 271.847 231.07 271.315 231.07ZM278.453 232.61C276.185 232.61 274.337 230.986 274.337 227.822V225.624C274.337 222.488 276.185 220.85 278.453 220.85C280.721 220.85 282.583 222.488 282.583 225.624V227.822C282.583 230.986 280.721 232.61 278.453 232.61ZM278.453 231.35C279.979 231.35 281.169 230.202 281.169 227.752V225.708C281.169 223.258 279.979 222.11 278.453 222.11C276.927 222.11 275.737 223.258 275.737 225.708V227.752C275.737 230.202 276.927 231.35 278.453 231.35ZM288.584 232.61C286.316 232.61 284.468 230.986 284.468 227.822V225.624C284.468 222.488 286.316 220.85 288.584 220.85C290.852 220.85 292.714 222.488 292.714 225.624V227.822C292.714 230.986 290.852 232.61 288.584 232.61ZM288.584 231.35C290.11 231.35 291.3 230.202 291.3 227.752V225.708C291.3 223.258 290.11 222.11 288.584 222.11C287.058 222.11 285.868 223.258 285.868 225.708V227.752C285.868 230.202 287.058 231.35 288.584 231.35ZM294.598 227.374V226.072H299.148V227.374H294.598ZM305.252 232.4H303.852V222.908L301.276 224.966L300.478 223.916L304.062 221.06H305.252V232.4ZM315.354 232.4H307.682V231.308L311.84 227.178C313.114 225.918 313.702 225.036 313.702 223.986C313.702 222.852 312.89 222.11 311.448 222.11C310.048 222.11 309.334 223.132 308.956 224.378L307.626 224.056C308.088 222.39 309.32 220.85 311.448 220.85C313.632 220.85 315.088 222.026 315.088 223.93C315.088 225.47 314.262 226.59 312.904 227.934L309.698 231.112H315.354V232.4ZM318.387 224.308C317.855 224.308 317.421 223.874 317.421 223.342C317.421 222.81 317.855 222.39 318.387 222.39C318.919 222.39 319.339 222.81 319.339 223.342C319.339 223.874 318.919 224.308 318.387 224.308ZM318.387 231.07C317.855 231.07 317.421 230.636 317.421 230.104C317.421 229.572 317.855 229.152 318.387 229.152C318.919 229.152 319.339 229.572 319.339 230.104C319.339 230.636 318.919 231.07 318.387 231.07ZM325.525 232.61C323.257 232.61 321.409 230.986 321.409 227.822V225.624C321.409 222.488 323.257 220.85 325.525 220.85C327.793 220.85 329.655 222.488 329.655 225.624V227.822C329.655 230.986 327.793 232.61 325.525 232.61ZM325.525 231.35C327.051 231.35 328.241 230.202 328.241 227.752V225.708C328.241 223.258 327.051 222.11 325.525 222.11C323.999 222.11 322.809 223.258 322.809 225.708V227.752C322.809 230.202 323.999 231.35 325.525 231.35ZM335.656 232.61C333.388 232.61 331.54 230.986 331.54 227.822V225.624C331.54 222.488 333.388 220.85 335.656 220.85C337.924 220.85 339.786 222.488 339.786 225.624V227.822C339.786 230.986 337.924 232.61 335.656 232.61ZM335.656 231.35C337.182 231.35 338.372 230.202 338.372 227.752V225.708C338.372 223.258 337.182 222.11 335.656 222.11C334.13 222.11 332.94 223.258 332.94 225.708V227.752C332.94 230.202 334.13 231.35 335.656 231.35Z" fill="black"/>
<path d="M256.437 275.4H255.037V265.908L252.461 267.966L251.663 266.916L255.247 264.06H256.437V275.4ZM265.699 271.872H267.449V273.16H265.699V275.61H264.313V273.16H258.615V272.012L263.823 264.06H265.699V271.872ZM264.313 265.656L260.295 271.872H264.313V265.656ZM270.051 267.308C269.519 267.308 269.085 266.874 269.085 266.342C269.085 265.81 269.519 265.39 270.051 265.39C270.583 265.39 271.003 265.81 271.003 266.342C271.003 266.874 270.583 267.308 270.051 267.308ZM270.051 274.07C269.519 274.07 269.085 273.636 269.085 273.104C269.085 272.572 269.519 272.152 270.051 272.152C270.583 272.152 271.003 272.572 271.003 273.104C271.003 273.636 270.583 274.07 270.051 274.07ZM277.189 275.61C274.921 275.61 273.073 273.986 273.073 270.822V268.624C273.073 265.488 274.921 263.85 277.189 263.85C279.457 263.85 281.319 265.488 281.319 268.624V270.822C281.319 273.986 279.457 275.61 277.189 275.61ZM277.189 274.35C278.715 274.35 279.905 273.202 279.905 270.752V268.708C279.905 266.258 278.715 265.11 277.189 265.11C275.663 265.11 274.473 266.258 274.473 268.708V270.752C274.473 273.202 275.663 274.35 277.189 274.35ZM287.32 275.61C285.052 275.61 283.204 273.986 283.204 270.822V268.624C283.204 265.488 285.052 263.85 287.32 263.85C289.588 263.85 291.45 265.488 291.45 268.624V270.822C291.45 273.986 289.588 275.61 287.32 275.61ZM287.32 274.35C288.846 274.35 290.036 273.202 290.036 270.752V268.708C290.036 266.258 288.846 265.11 287.32 265.11C285.794 265.11 284.604 266.258 284.604 268.708V270.752C284.604 273.202 285.794 274.35 287.32 274.35ZM293.335 270.374V269.072H297.885V270.374H293.335ZM303.988 275.4H302.588V265.908L300.012 267.966L299.214 266.916L302.798 264.06H303.988V275.4ZM310.702 267.952C312.718 267.952 314.51 269.422 314.51 271.788C314.51 274.154 312.718 275.61 310.464 275.61C308.168 275.61 306.446 274.196 306.446 271.662V268.834C306.446 265.306 308.364 263.85 310.338 263.85C312.256 263.85 313.53 264.718 314.286 266.3L313.124 266.916C312.522 265.726 311.766 265.096 310.394 265.096C308.896 265.096 307.734 266.258 307.748 268.89V269.436C308.364 268.456 309.512 267.952 310.702 267.952ZM310.464 274.364C311.934 274.364 313.124 273.398 313.124 271.76C313.124 270.136 311.934 269.184 310.464 269.184C309.008 269.184 307.832 270.136 307.832 271.76C307.832 273.398 309.008 274.364 310.464 274.364ZM317.397 267.308C316.865 267.308 316.431 266.874 316.431 266.342C316.431 265.81 316.865 265.39 317.397 265.39C317.929 265.39 318.349 265.81 318.349 266.342C318.349 266.874 317.929 267.308 317.397 267.308ZM317.397 274.07C316.865 274.07 316.431 273.636 316.431 273.104C316.431 272.572 316.865 272.152 317.397 272.152C317.929 272.152 318.349 272.572 318.349 273.104C318.349 273.636 317.929 274.07 317.397 274.07ZM324.535 275.61C322.267 275.61 320.419 273.986 320.419 270.822V268.624C320.419 265.488 322.267 263.85 324.535 263.85C326.803 263.85 328.665 265.488 328.665 268.624V270.822C328.665 273.986 326.803 275.61 324.535 275.61ZM324.535 274.35C326.061 274.35 327.251 273.202 327.251 270.752V268.708C327.251 266.258 326.061 265.11 324.535 265.11C323.009 265.11 321.819 266.258 321.819 268.708V270.752C321.819 273.202 323.009 274.35 324.535 274.35ZM334.666 275.61C332.398 275.61 330.55 273.986 330.55 270.822V268.624C330.55 265.488 332.398 263.85 334.666 263.85C336.934 263.85 338.796 265.488 338.796 268.624V270.822C338.796 273.986 336.934 275.61 334.666 275.61ZM334.666 274.35C336.192 274.35 337.382 273.202 337.382 270.752V268.708C337.382 266.258 336.192 265.11 334.666 265.11C333.14 265.11 331.95 266.258 331.95 268.708V270.752C331.95 273.202 333.14 274.35 334.666 274.35Z" fill="black"/>
<path d="M254.349 318.61C252.081 318.61 250.233 316.986 250.233 313.822V311.624C250.233 308.488 252.081 306.85 254.349 306.85C256.617 306.85 258.479 308.488 258.479 311.624V313.822C258.479 316.986 256.617 318.61 254.349 318.61ZM254.349 317.35C255.875 317.35 257.065 316.202 257.065 313.752V311.708C257.065 309.258 255.875 308.11 254.349 308.11C252.823 308.11 251.633 309.258 251.633 311.708V313.752C251.633 316.202 252.823 317.35 254.349 317.35ZM264.27 306.85C266.566 306.85 268.288 308.264 268.288 310.784V313.612C268.288 317.154 266.37 318.61 264.382 318.61C262.478 318.61 261.19 317.742 260.434 316.16L261.61 315.544C262.198 316.72 262.968 317.364 264.326 317.364C265.824 317.364 267 316.202 266.986 313.556V313.01C266.37 313.99 265.208 314.508 264.032 314.508C262.002 314.508 260.224 313.038 260.224 310.672C260.224 308.306 262.002 306.85 264.27 306.85ZM264.256 313.262C265.726 313.262 266.888 312.324 266.888 310.686C266.888 309.048 265.726 308.096 264.256 308.096C262.8 308.096 261.61 309.048 261.61 310.686C261.61 312.324 262.8 313.262 264.256 313.262ZM271.315 310.308C270.783 310.308 270.349 309.874 270.349 309.342C270.349 308.81 270.783 308.39 271.315 308.39C271.847 308.39 272.267 308.81 272.267 309.342C272.267 309.874 271.847 310.308 271.315 310.308ZM271.315 317.07C270.783 317.07 270.349 316.636 270.349 316.104C270.349 315.572 270.783 315.152 271.315 315.152C271.847 315.152 272.267 315.572 272.267 316.104C272.267 316.636 271.847 317.07 271.315 317.07ZM278.453 318.61C276.185 318.61 274.337 316.986 274.337 313.822V311.624C274.337 308.488 276.185 306.85 278.453 306.85C280.721 306.85 282.583 308.488 282.583 311.624V313.822C282.583 316.986 280.721 318.61 278.453 318.61ZM278.453 317.35C279.979 317.35 281.169 316.202 281.169 313.752V311.708C281.169 309.258 279.979 308.11 278.453 308.11C276.927 308.11 275.737 309.258 275.737 311.708V313.752C275.737 316.202 276.927 317.35 278.453 317.35ZM288.584 318.61C286.316 318.61 284.468 316.986 284.468 313.822V311.624C284.468 308.488 286.316 306.85 288.584 306.85C290.852 306.85 292.714 308.488 292.714 311.624V313.822C292.714 316.986 290.852 318.61 288.584 318.61ZM288.584 317.35C290.11 317.35 291.3 316.202 291.3 313.752V311.708C291.3 309.258 290.11 308.11 288.584 308.11C287.058 308.11 285.868 309.258 285.868 311.708V313.752C285.868 316.202 287.058 317.35 288.584 317.35ZM294.598 313.374V312.072H299.148V313.374H294.598ZM305.252 318.4H303.852V308.908L301.276 310.966L300.478 309.916L304.062 307.06H305.252V318.4ZM315.354 318.4H307.682V317.308L311.84 313.178C313.114 311.918 313.702 311.036 313.702 309.986C313.702 308.852 312.89 308.11 311.448 308.11C310.048 308.11 309.334 309.132 308.956 310.378L307.626 310.056C308.088 308.39 309.32 306.85 311.448 306.85C313.632 306.85 315.088 308.026 315.088 309.93C315.088 311.47 314.262 312.59 312.904 313.934L309.698 317.112H315.354V318.4ZM318.387 310.308C317.855 310.308 317.421 309.874 317.421 309.342C317.421 308.81 317.855 308.39 318.387 308.39C318.919 308.39 319.339 308.81 319.339 309.342C319.339 309.874 318.919 310.308 318.387 310.308ZM318.387 317.07C317.855 317.07 317.421 316.636 317.421 316.104C317.421 315.572 317.855 315.152 318.387 315.152C318.919 315.152 319.339 315.572 319.339 316.104C319.339 316.636 318.919 317.07 318.387 317.07ZM325.525 318.61C323.257 318.61 321.409 316.986 321.409 313.822V311.624C321.409 308.488 323.257 306.85 325.525 306.85C327.793 306.85 329.655 308.488 329.655 311.624V313.822C329.655 316.986 327.793 318.61 325.525 318.61ZM325.525 317.35C327.051 317.35 328.241 316.202 328.241 313.752V311.708C328.241 309.258 327.051 308.11 325.525 308.11C323.999 308.11 322.809 309.258 322.809 311.708V313.752C322.809 316.202 323.999 317.35 325.525 317.35ZM335.656 318.61C333.388 318.61 331.54 316.986 331.54 313.822V311.624C331.54 308.488 333.388 306.85 335.656 306.85C337.924 306.85 339.786 308.488 339.786 311.624V313.822C339.786 316.986 337.924 318.61 335.656 318.61ZM335.656 317.35C337.182 317.35 338.372 316.202 338.372 313.752V311.708C338.372 309.258 337.182 308.11 335.656 308.11C334.13 308.11 332.94 309.258 332.94 311.708V313.752C332.94 316.202 334.13 317.35 335.656 317.35Z" fill="black"/>
<path d="M256.437 360.4H255.037V350.908L252.461 352.966L251.663 351.916L255.247 349.06H256.437V360.4ZM265.699 356.872H267.449V358.16H265.699V360.61H264.313V358.16H258.615V357.012L263.823 349.06H265.699V356.872ZM264.313 350.656L260.295 356.872H264.313V350.656ZM270.051 352.308C269.519 352.308 269.085 351.874 269.085 351.342C269.085 350.81 269.519 350.39 270.051 350.39C270.583 350.39 271.003 350.81 271.003 351.342C271.003 351.874 270.583 352.308 270.051 352.308ZM270.051 359.07C269.519 359.07 269.085 358.636 269.085 358.104C269.085 357.572 269.519 357.152 270.051 357.152C270.583 357.152 271.003 357.572 271.003 358.104C271.003 358.636 270.583 359.07 270.051 359.07ZM277.189 360.61C274.921 360.61 273.073 358.986 273.073 355.822V353.624C273.073 350.488 274.921 348.85 277.189 348.85C279.457 348.85 281.319 350.488 281.319 353.624V355.822C281.319 358.986 279.457 360.61 277.189 360.61ZM277.189 359.35C278.715 359.35 279.905 358.202 279.905 355.752V353.708C279.905 351.258 278.715 350.11 277.189 350.11C275.663 350.11 274.473 351.258 274.473 353.708V355.752C274.473 358.202 275.663 359.35 277.189 359.35ZM287.32 360.61C285.052 360.61 283.204 358.986 283.204 355.822V353.624C283.204 350.488 285.052 348.85 287.32 348.85C289.588 348.85 291.45 350.488 291.45 353.624V355.822C291.45 358.986 289.588 360.61 287.32 360.61ZM287.32 359.35C288.846 359.35 290.036 358.202 290.036 355.752V353.708C290.036 351.258 288.846 350.11 287.32 350.11C285.794 350.11 284.604 351.258 284.604 353.708V355.752C284.604 358.202 285.794 359.35 287.32 359.35ZM293.335 355.374V354.072H297.885V355.374H293.335ZM303.988 360.4H302.588V350.908L300.012 352.966L299.214 351.916L302.798 349.06H303.988V360.4ZM310.702 352.952C312.718 352.952 314.51 354.422 314.51 356.788C314.51 359.154 312.718 360.61 310.464 360.61C308.168 360.61 306.446 359.196 306.446 356.662V353.834C306.446 350.306 308.364 348.85 310.338 348.85C312.256 348.85 313.53 349.718 314.286 351.3L313.124 351.916C312.522 350.726 311.766 350.096 310.394 350.096C308.896 350.096 307.734 351.258 307.748 353.89V354.436C308.364 353.456 309.512 352.952 310.702 352.952ZM310.464 359.364C311.934 359.364 313.124 358.398 313.124 356.76C313.124 355.136 311.934 354.184 310.464 354.184C309.008 354.184 307.832 355.136 307.832 356.76C307.832 358.398 309.008 359.364 310.464 359.364ZM317.397 352.308C316.865 352.308 316.431 351.874 316.431 351.342C316.431 350.81 316.865 350.39 317.397 350.39C317.929 350.39 318.349 350.81 318.349 351.342C318.349 351.874 317.929 352.308 317.397 352.308ZM317.397 359.07C316.865 359.07 316.431 358.636 316.431 358.104C316.431 357.572 316.865 357.152 317.397 357.152C317.929 357.152 318.349 357.572 318.349 358.104C318.349 358.636 317.929 359.07 317.397 359.07ZM324.535 360.61C322.267 360.61 320.419 358.986 320.419 355.822V353.624C320.419 350.488 322.267 348.85 324.535 348.85C326.803 348.85 328.665 350.488 328.665 353.624V355.822C328.665 358.986 326.803 360.61 324.535 360.61ZM324.535 359.35C326.061 359.35 327.251 358.202 327.251 355.752V353.708C327.251 351.258 326.061 350.11 324.535 350.11C323.009 350.11 321.819 351.258 321.819 353.708V355.752C321.819 358.202 323.009 359.35 324.535 359.35ZM334.666 360.61C332.398 360.61 330.55 358.986 330.55 355.822V353.624C330.55 350.488 332.398 348.85 334.666 348.85C336.934 348.85 338.796 350.488 338.796 353.624V355.822C338.796 358.986 336.934 360.61 334.666 360.61ZM334.666 359.35C336.192 359.35 337.382 358.202 337.382 355.752V353.708C337.382 351.258 336.192 350.11 334.666 350.11C333.14 350.11 331.95 351.258 331.95 353.708V355.752C331.95 358.202 333.14 359.35 334.666 359.35Z" fill="black"/>
<path d="M67.7946 163.592C71.1546 163.592 73.6346 165.688 73.6346 169.272V170.952C73.6346 174.568 71.1546 176.648 67.7946 176.648H63.0746V163.592H67.7946ZM71.5706 170.872V169.352C71.5706 166.76 70.0026 165.464 67.7946 165.464H65.1386V174.76H67.7946C70.0026 174.76 71.5706 173.496 71.5706 170.872ZM86.1935 176.648H84.0815L82.7055 172.792H77.7295L76.3535 176.648H74.2415L78.9295 163.592H81.4895L86.1935 176.648ZM80.2255 165.768L78.3855 170.936H82.0495L80.2255 165.768ZM93.7301 163.592H96.0341L91.3781 171.576V176.648H89.3141V171.64L84.6421 163.592H86.9461L90.3381 169.672L93.7301 163.592ZM110.095 176.648H101.119V175.064L105.839 170.376C107.167 169.048 107.775 168.168 107.775 167.08C107.775 165.976 106.991 165.192 105.503 165.192C104.063 165.192 103.279 166.248 102.911 167.592L100.959 167.128C101.487 165.144 102.991 163.352 105.503 163.352C108.063 163.352 109.807 164.696 109.807 167C109.807 168.728 108.927 169.96 107.439 171.432L104.063 174.76H110.095V176.648Z" fill="black"/>
<path d="M67.6306 245.592C70.9906 245.592 73.4706 247.688 73.4706 251.272V252.952C73.4706 256.568 70.9906 258.648 67.6306 258.648H62.9106V245.592H67.6306ZM71.4066 252.872V251.352C71.4066 248.76 69.8386 247.464 67.6306 247.464H64.9746V256.76H67.6306C69.8386 256.76 71.4066 255.496 71.4066 252.872ZM86.0294 258.648H83.9174L82.5414 254.792H77.5654L76.1894 258.648H74.0774L78.7654 245.592H81.3254L86.0294 258.648ZM80.0614 247.768L78.2214 252.936H81.8854L80.0614 247.768ZM93.5661 245.592H95.8701L91.2141 253.576V258.648H89.1501V253.64L84.4781 245.592H86.7821L90.1741 251.672L93.5661 245.592ZM100.682 255.576L102.506 254.904C102.938 256.04 103.786 257.048 105.514 257.048C107.258 257.048 108.25 256.168 108.25 254.984C108.25 253.784 107.29 252.792 105.274 252.792H103.578V251.064H105.274C107.05 251.064 107.93 250.232 107.93 249.064C107.93 247.88 106.97 247.192 105.482 247.192C103.994 247.192 103.258 248.104 102.874 249.096L101.05 248.408C101.674 246.728 103.05 245.352 105.482 245.352C108.042 245.352 109.946 246.648 109.946 248.936C109.946 250.552 109.002 251.448 107.93 251.912C109.21 252.376 110.25 253.448 110.25 255.08C110.25 257.384 108.314 258.888 105.514 258.888C102.858 258.888 101.338 257.416 100.682 255.576Z" fill="black"/>
<path d="M67.5915 327.592C70.9515 327.592 73.4315 329.688 73.4315 333.272V334.952C73.4315 338.568 70.9515 340.648 67.5915 340.648H62.8715V327.592H67.5915ZM71.3675 334.872V333.352C71.3675 330.76 69.7995 329.464 67.5915 329.464H64.9355V338.76H67.5915C69.7995 338.76 71.3675 337.496 71.3675 334.872ZM85.9904 340.648H83.8784L82.5024 336.792H77.5264L76.1504 340.648H74.0384L78.7264 327.592H81.2864L85.9904 340.648ZM80.0224 329.768L78.1824 334.936H81.8464L80.0224 329.768ZM93.527 327.592H95.831L91.175 335.576V340.648H89.111V335.64L84.439 327.592H86.743L90.135 333.672L93.527 327.592ZM108.963 336.328H110.771V338.2H108.963V340.888H106.931V338.2H100.563V336.568L106.243 327.592H108.963V336.328ZM106.931 330.024L103.043 336.328H106.931V330.024Z" fill="black"/>
<path d="M0 377H990" stroke="black" stroke-width="3"/>
<path fill-rule="evenodd" clip-rule="evenodd" d="M612.552 277.13V273.742H616.542V267.12H607.568V273.742H611.558V277.13H606V278.054H618.096V277.13H612.552ZM608.562 268.03H615.534V272.846H608.562V268.03ZM629.817 271.39H621.837V267.764H629.691V266.854H620.843V272.286H629.817V271.39ZM631.371 274.358H619.275V275.268H624.833V279.244H625.827V275.268H631.371V274.358ZM644.899 271.222H642.757V266.168H641.749V279.09H642.757V272.146H644.899V271.222ZM633.055 268.184H638.011V268.464C638.011 271.488 636.037 274.526 632.845 276.668L633.447 277.452C636.877 275.1 639.005 271.922 639.005 268.268V267.274H633.055V268.184ZM659.422 268.786V266.168H658.428V272.496H659.422V269.71H661.578V268.786H659.422ZM655.978 269.402V269.178C655.978 267.358 654.522 266.462 652.702 266.462C650.854 266.462 649.398 267.358 649.398 269.178V269.402C649.398 271.208 650.854 272.118 652.702 272.118C654.522 272.118 655.978 271.208 655.978 269.402ZM650.392 269.374V269.192C650.392 268.016 651.358 267.358 652.702 267.358C654.018 267.358 654.97 268.016 654.97 269.192V269.374C654.97 270.578 654.018 271.208 652.702 271.208C651.358 271.208 650.392 270.578 650.392 269.374ZM652.394 276.682H659.422V273.42H651.316V274.274H658.428V275.814H651.386V279.16H659.968V278.278H652.394V276.682ZM674.854 271.222H672.698V266.168H671.704V279.09H672.698V272.146H674.854V271.222ZM669.184 271.152C669.184 268.086 667.728 266.868 665.936 266.868C664.13 266.868 662.674 268.086 662.674 271.152V273.084C662.674 276.15 664.13 277.368 665.936 277.368C667.728 277.368 669.184 276.15 669.184 273.084V271.152ZM668.176 271.152V273.07C668.176 275.478 667.224 276.444 665.936 276.444C664.634 276.444 663.668 275.478 663.668 273.07V271.152C663.668 268.744 664.634 267.792 665.936 267.792C667.224 267.792 668.176 268.744 668.176 271.152ZM688.129 270.116V269.192H685.973V266.168H684.979V279.09H685.973V274.442H688.129V273.518H685.973V270.116H688.129ZM682.459 271.152C682.459 268.086 681.003 266.868 679.211 266.868C677.405 266.868 675.949 268.086 675.949 271.152V273.084C675.949 276.15 677.405 277.368 679.211 277.368C681.003 277.368 682.459 276.15 682.459 273.084V271.152ZM681.451 271.152V273.07C681.451 275.478 680.499 276.444 679.211 276.444C677.909 276.444 676.943 275.478 676.943 273.07V271.152C676.943 268.744 677.909 267.792 679.211 267.792C680.499 267.792 681.451 268.744 681.451 271.152ZM700.021 267.386H696.773V266H695.779V267.386H692.531V268.226H700.021V267.386ZM702.653 269.192V266.168H701.659V272.902H702.653V270.116H704.809V269.192H702.653ZM699.419 271.012V270.844C699.419 269.584 698.047 268.926 696.297 268.926C694.547 268.926 693.161 269.584 693.161 270.844V271.012C693.161 272.272 694.547 272.944 696.297 272.944C698.047 272.944 699.419 272.272 699.419 271.012ZM694.155 270.998V270.886C694.155 270.2 695.093 269.766 696.297 269.766C697.487 269.766 698.439 270.2 698.439 270.886V270.998C698.439 271.67 697.487 272.104 696.297 272.104C695.093 272.104 694.155 271.67 694.155 270.998ZM695.625 276.864H702.653V273.812H694.547V274.638H701.659V276.038H694.617V279.146H703.185V278.306H695.625V276.864ZM719.067 266.168V279.09H720.061V266.168H719.067ZM710.023 268.184H715.119V268.464C715.119 271.488 713.103 274.54 709.827 276.668L710.415 277.452C713.943 275.114 716.127 271.922 716.127 268.268V267.274H710.023V268.184ZM728.968 273.588V271.936H732.832V266.42H731.824V268.338H725.104V266.42H724.11V271.936H727.974V273.588H722.416V274.512H734.512V273.588H728.968ZM725.104 269.206H731.824V271.054H725.104V269.206ZM725.104 275.604H724.11V279.09H733.168V278.166H725.104V275.604ZM749.848 273.238H747.748V268.044H749.848V267.12H740.454V268.044H742.554V273.238H740.454V274.162H749.848V273.238ZM743.534 268.044H746.768V273.238H743.534V268.044ZM739.096 277.13V278.054H751.192V277.13H739.096ZM758.923 277.13V274.358H763.193V273.462H754.933V271.166H762.913V267.12H753.869V268.03H761.905V270.27H753.939V274.358H757.929V277.13H752.371V278.054H764.467V277.13H758.923ZM775.026 268.17V268.632C775.026 270.13 774.718 272.776 774.284 275.072L775.264 275.24C775.698 272.93 776.02 270.34 776.02 268.408V267.26H767.032V268.17H775.026ZM765.646 277.13V278.054H777.742V277.13H765.646ZM789.03 266.168V271.222H787.028V266.378H786.048V278.852H787.028V272.146H789.03V279.09H790.01V266.168H789.03ZM781.232 276.304H780.35V272.594H784.172V267.204H779.384V268.114H783.192V271.684H779.384V277.214H781.064C782.786 277.214 783.864 277.102 785.082 276.878L784.97 275.996C783.668 276.206 782.632 276.304 781.232 276.304ZM802.123 273.238H803.117V266.182H802.123V273.238ZM792.897 272.524H799.085V266.868H792.897V272.524ZM793.877 271.614V267.778H798.091V271.614H793.877ZM797.559 279.216H800.289C802.179 279.216 803.313 278.096 803.313 276.626C803.313 275.17 802.179 274.022 800.289 274.022H797.559C795.669 274.022 794.549 275.17 794.549 276.626C794.549 278.096 795.669 279.216 797.559 279.216ZM800.079 278.32H797.769C796.271 278.32 795.543 277.592 795.543 276.612C795.543 275.674 796.271 274.918 797.769 274.918H800.079C801.591 274.918 802.305 275.674 802.305 276.612C802.305 277.592 801.591 278.32 800.079 278.32Z" fill="black"/>
</svg>
