<svg width="1194" height="427" viewBox="0 0 1194 427" fill="none" xmlns="http://www.w3.org/2000/svg">
<rect y="266" width="1194" height="161" fill="#F5F5F5"/>
<path d="M85.8221 391.648L82.3821 378.592H84.4621L87.1501 388.912L89.8061 378.608L91.9021 378.592L94.5581 388.912L97.2461 378.592H99.3261L95.8861 391.648H93.3901L90.8461 381.92L88.3181 391.648H85.8221ZM108.364 386.432V387.616H101.628C101.74 389.248 102.796 390.064 103.996 390.064C105.036 390.064 105.948 389.6 106.332 388.64L108.204 389.216C107.644 390.976 105.964 391.888 103.996 391.888C101.628 391.888 99.6121 390.352 99.6121 387.344V386.384C99.6121 383.392 101.612 381.856 103.98 381.856C106.38 381.856 108.364 383.392 108.364 386.432ZM101.644 385.92H106.332C106.332 384.608 105.308 383.664 103.98 383.664C102.812 383.664 101.82 384.416 101.644 385.92ZM112.389 391.648H110.325V378.592H112.389V391.648ZM118.795 391.888C116.411 391.888 114.347 390.384 114.347 387.472V386.256C114.347 383.344 116.411 381.856 118.795 381.856C120.619 381.856 122.299 382.784 122.923 384.624L120.987 385.344C120.603 384.24 119.803 383.728 118.795 383.728C117.515 383.728 116.411 384.576 116.411 386.32V387.408C116.411 389.152 117.515 390.016 118.795 390.016C119.803 390.016 120.603 389.504 120.987 388.4L122.923 389.104C122.299 390.944 120.619 391.888 118.795 391.888ZM128.841 391.888C126.457 391.888 124.393 390.384 124.393 387.456V386.256C124.393 383.344 126.457 381.856 128.841 381.856C131.225 381.856 133.305 383.344 133.305 386.256V387.456C133.305 390.384 131.225 391.888 128.841 391.888ZM128.841 390.016C130.121 390.016 131.241 389.152 131.241 387.408V386.32C131.241 384.576 130.121 383.728 128.841 383.728C127.561 383.728 126.457 384.576 126.457 386.32V387.408C126.457 389.152 127.561 390.016 128.841 390.016ZM145.358 381.856C147.246 381.856 148.59 383.392 148.59 385.872V391.648H146.526V385.856C146.526 384.288 145.742 383.712 144.718 383.712C143.71 383.712 142.926 384.464 142.926 385.84V385.872V391.648H140.926V385.856C140.926 384.256 140.142 383.696 139.134 383.696C138.126 383.696 137.342 384.336 137.342 385.84V391.648H135.278V382.096H137.198L137.294 383.264C137.79 382.448 138.622 381.856 139.758 381.856C140.974 381.856 141.934 382.48 142.462 383.6C143.006 382.592 144.03 381.856 145.358 381.856ZM159.067 386.432V387.616H152.331C152.443 389.248 153.499 390.064 154.699 390.064C155.739 390.064 156.651 389.6 157.035 388.64L158.907 389.216C158.347 390.976 156.667 391.888 154.699 391.888C152.331 391.888 150.315 390.352 150.315 387.344V386.384C150.315 383.392 152.315 381.856 154.683 381.856C157.083 381.856 159.067 383.392 159.067 386.432ZM152.347 385.92H157.035C157.035 384.608 156.011 383.664 154.683 383.664C153.515 383.664 152.523 384.416 152.347 385.92ZM175.189 391.648H172.581L168.165 385.952L167.061 387.184V391.648H164.997V378.592H167.061V384.176L172.005 378.592H174.709L169.541 384.4L175.189 391.648ZM178.576 391.648H176.512V378.592H178.576V391.648ZM180.134 378.592H190.534V380.464H186.374V391.648H184.31V380.464H180.134V378.592Z" fill="black"/>
<path d="M235.877 391.648L232.437 378.592H234.517L237.205 388.912L239.861 378.608L241.957 378.592L244.613 388.912L247.301 378.592H249.381L245.941 391.648H243.445L240.901 381.92L238.373 391.648H235.877ZM254.115 391.888C251.731 391.888 249.667 390.384 249.667 387.456V386.256C249.667 383.344 251.731 381.856 254.115 381.856C256.499 381.856 258.579 383.344 258.579 386.256V387.456C258.579 390.384 256.499 391.888 254.115 391.888ZM254.115 390.016C255.395 390.016 256.515 389.152 256.515 387.408V386.32C256.515 384.576 255.395 383.728 254.115 383.728C252.835 383.728 251.731 384.576 251.731 386.32V387.408C251.731 389.152 252.835 390.016 254.115 390.016ZM264.903 381.856C265.319 381.856 265.815 381.92 266.135 382.064L265.639 383.92C265.287 383.792 264.871 383.728 264.535 383.728C263.575 383.728 262.615 384.416 262.615 385.856V391.648H260.551V382.096H262.471L262.567 383.376C263.031 382.448 263.799 381.856 264.903 381.856ZM276.048 391.648H273.6L270.56 387.552L269.6 388.576V391.648H267.536V378.592H269.6V385.856L273.12 382.096H275.664L271.808 386.224L276.048 391.648ZM276.132 389.6L277.7 388.544C278.42 389.728 279.572 390.144 280.532 390.144C281.476 390.144 282.324 389.824 282.324 389.072C282.324 388.336 281.684 388.064 280.82 387.84L279.7 387.552C278.228 387.184 276.804 386.432 276.804 384.624C276.804 382.816 278.308 381.856 280.308 381.856C282.212 381.856 283.444 382.72 284.26 383.904L282.772 385.008C282.116 384.144 281.22 383.6 280.276 383.6C279.348 383.6 278.788 383.984 278.788 384.624C278.788 385.28 279.236 385.584 280.1 385.824L281.204 386.096C282.676 386.464 284.308 387.168 284.308 389.072C284.308 391.008 282.452 391.888 280.484 391.888C278.548 391.888 276.964 391.104 276.132 389.6ZM291.152 381.856C293.056 381.856 295.024 383.536 295.024 386.432V387.376C295.024 390.256 293.056 391.936 291.152 391.936C290 391.936 288.912 391.424 288.176 390.48V394.368H286.112V382.096H288.048L288.144 383.36C288.88 382.384 289.984 381.856 291.152 381.856ZM292.96 387.328V386.464C292.96 384.64 291.888 383.728 290.544 383.728C289.248 383.728 288.176 384.64 288.176 386.464V387.328C288.176 389.152 289.248 390.064 290.544 390.064C291.888 390.064 292.96 389.152 292.96 387.328ZM300.642 381.856C302.866 381.856 304.562 383.216 304.562 385.552V391.648H302.674L302.578 390.432C302.066 391.344 301.138 391.888 299.922 391.888H299.314C297.586 391.888 296.274 390.624 296.274 388.816C296.274 387.12 297.506 385.872 299.826 385.872H302.53V385.632C302.53 384.544 301.874 383.728 300.498 383.728C299.554 383.728 298.882 384.16 298.466 384.912L296.626 384.128C297.346 382.816 298.834 381.856 300.642 381.856ZM299.746 390H300.338C301.394 390 302.386 389.408 302.53 388.368V387.632H299.89C298.85 387.632 298.306 388.096 298.306 388.816C298.306 389.552 298.882 390 299.746 390ZM310.74 391.888C308.356 391.888 306.292 390.384 306.292 387.472V386.256C306.292 383.344 308.356 381.856 310.74 381.856C312.564 381.856 314.244 382.784 314.868 384.624L312.932 385.344C312.548 384.24 311.748 383.728 310.74 383.728C309.46 383.728 308.356 384.576 308.356 386.32V387.408C308.356 389.152 309.46 390.016 310.74 390.016C311.748 390.016 312.548 389.504 312.932 388.4L314.868 389.104C314.244 390.944 312.564 391.888 310.74 391.888ZM325.091 386.432V387.616H318.355C318.467 389.248 319.523 390.064 320.723 390.064C321.763 390.064 322.675 389.6 323.059 388.64L324.931 389.216C324.371 390.976 322.691 391.888 320.723 391.888C318.355 391.888 316.339 390.352 316.339 387.344V386.384C316.339 383.392 318.339 381.856 320.707 381.856C323.107 381.856 325.091 383.392 325.091 386.432ZM318.371 385.92H323.059C323.059 384.608 322.035 383.664 320.707 383.664C319.539 383.664 318.547 384.416 318.371 385.92Z" fill="black"/>
<path d="M408.917 388.48L410.661 387.616C411.301 389.136 412.597 390.016 414.309 390.016C416.005 390.016 417.061 389.376 417.061 388.208C417.061 387.136 416.373 386.624 415.125 386.272L413.205 385.744C411.477 385.264 409.653 384.304 409.653 382.032C409.653 379.744 411.605 378.352 414.149 378.352C416.613 378.352 418.325 379.776 419.029 381.488L417.301 382.352C416.725 381.136 415.685 380.224 414.149 380.224C412.597 380.224 411.685 380.896 411.685 382.032C411.685 383.152 412.549 383.6 413.669 383.904L415.541 384.416C417.285 384.896 419.093 385.904 419.093 388.208C419.093 390.528 416.981 391.888 414.309 391.888C411.685 391.888 409.749 390.608 408.917 388.48ZM425.851 389.712L426.315 391.44C425.739 391.744 424.923 391.888 424.235 391.888C422.571 391.888 421.515 391.008 421.515 389.264V383.968H419.931V382.096H421.515V379.552H423.562V382.096H425.915V383.968H423.562V388.96C423.562 389.792 423.931 390.016 424.539 390.016C425.035 390.016 425.419 389.888 425.851 389.712ZM431.494 381.856C433.718 381.856 435.414 383.216 435.414 385.552V391.648H433.526L433.43 390.432C432.918 391.344 431.99 391.888 430.774 391.888H430.166C428.438 391.888 427.126 390.624 427.126 388.816C427.126 387.12 428.358 385.872 430.678 385.872H433.382V385.632C433.382 384.544 432.726 383.728 431.35 383.728C430.406 383.728 429.734 384.16 429.318 384.912L427.478 384.128C428.198 382.816 429.686 381.856 431.494 381.856ZM430.598 390H431.19C432.246 390 433.238 389.408 433.382 388.368V387.632H430.742C429.702 387.632 429.158 388.096 429.158 388.816C429.158 389.552 429.734 390 430.598 390ZM439.791 391.312L436.271 382.096H438.415L440.863 388.976L443.311 382.096H445.471L441.631 392.176C441.007 393.856 440.127 394.608 438.943 394.608C438.047 394.608 437.279 394.464 436.671 394.224L437.135 392.512C437.615 392.672 438.063 392.784 438.559 392.784C439.023 392.784 439.407 392.56 439.615 391.84L439.791 391.312ZM445.671 389.6L447.239 388.544C447.959 389.728 449.111 390.144 450.071 390.144C451.015 390.144 451.863 389.824 451.863 389.072C451.863 388.336 451.223 388.064 450.359 387.84L449.239 387.552C447.767 387.184 446.343 386.432 446.343 384.624C446.343 382.816 447.847 381.856 449.847 381.856C451.751 381.856 452.983 382.72 453.799 383.904L452.311 385.008C451.655 384.144 450.759 383.6 449.815 383.6C448.887 383.6 448.327 383.984 448.327 384.624C448.327 385.28 448.775 385.584 449.639 385.824L450.743 386.096C452.215 386.464 453.847 387.168 453.847 389.072C453.847 391.008 451.991 391.888 450.023 391.888C448.087 391.888 446.503 391.104 445.671 389.6Z" fill="black"/>
<path d="M548.318 391.648H546.286V378.592H548.27L554.718 388.096V378.592H556.75V391.648H554.766L548.318 382.144V391.648ZM567.356 386.432V387.616H560.62C560.732 389.248 561.788 390.064 562.988 390.064C564.028 390.064 564.94 389.6 565.324 388.64L567.196 389.216C566.636 390.976 564.956 391.888 562.988 391.888C560.62 391.888 558.604 390.352 558.604 387.344V386.384C558.604 383.392 560.604 381.856 562.972 381.856C565.372 381.856 567.356 383.392 567.356 386.432ZM560.636 385.92H565.324C565.324 384.608 564.3 383.664 562.972 383.664C561.804 383.664 560.812 384.416 560.636 385.92ZM574.265 389.712L574.729 391.44C574.153 391.744 573.337 391.888 572.649 391.888C570.985 391.888 569.929 391.008 569.929 389.264V383.968H568.345V382.096H569.929V379.552H571.977V382.096H574.329V383.968H571.977V388.96C571.977 389.792 572.345 390.016 572.953 390.016C573.449 390.016 573.833 389.888 574.265 389.712ZM585.392 389.44L587.616 382.096H589.728L586.512 391.648H584.384L582.48 385.12L580.56 391.648H578.432L575.216 382.096H577.328L579.552 389.44L581.52 382.096H583.424L585.392 389.44ZM594.865 391.888C592.481 391.888 590.417 390.384 590.417 387.456V386.256C590.417 383.344 592.481 381.856 594.865 381.856C597.249 381.856 599.329 383.344 599.329 386.256V387.456C599.329 390.384 597.249 391.888 594.865 391.888ZM594.865 390.016C596.145 390.016 597.265 389.152 597.265 387.408V386.32C597.265 384.576 596.145 383.728 594.865 383.728C593.585 383.728 592.481 384.576 592.481 386.32V387.408C592.481 389.152 593.585 390.016 594.865 390.016ZM605.653 381.856C606.069 381.856 606.565 381.92 606.885 382.064L606.389 383.92C606.037 383.792 605.621 383.728 605.285 383.728C604.325 383.728 603.365 384.416 603.365 385.856V391.648H601.301V382.096H603.221L603.317 383.376C603.781 382.448 604.549 381.856 605.653 381.856ZM616.798 391.648H614.35L611.31 387.552L610.35 388.576V391.648H608.286V378.592H610.35V385.856L613.87 382.096H616.414L612.558 386.224L616.798 391.648ZM619.142 380.48C618.47 380.48 617.926 379.952 617.926 379.264C617.926 378.592 618.47 378.048 619.142 378.048C619.814 378.048 620.358 378.592 620.358 379.264C620.358 379.952 619.814 380.48 619.142 380.48ZM620.182 391.648H618.118V382.096H620.182V391.648ZM627.555 381.856C629.555 381.856 631.155 383.392 631.155 385.872V391.648H629.091V385.968C629.091 384.352 628.211 383.728 626.979 383.728C625.779 383.728 624.787 384.528 624.787 385.84V391.648H622.723V382.096H624.643L624.739 383.312C625.299 382.432 626.291 381.856 627.555 381.856ZM639.782 383.264L639.878 382.096H641.798V390.336C641.798 393.248 639.734 394.608 637.318 394.608C635.462 394.608 633.83 393.984 633.158 392.64L635.27 391.824C635.606 392.528 636.406 392.896 637.318 392.896C638.854 392.896 639.734 391.968 639.734 390.24V389.712C638.998 390.576 637.91 391.056 636.758 391.056C634.854 391.056 632.886 389.456 632.886 386.896V386.032C632.886 383.44 634.854 381.856 636.758 381.856C637.942 381.856 639.046 382.352 639.782 383.264ZM637.35 389.264C638.662 389.264 639.734 388.384 639.734 386.816V386.08C639.734 384.528 638.662 383.648 637.35 383.648C636.022 383.648 634.95 384.528 634.95 386.08V386.816C634.95 388.384 636.022 389.264 637.35 389.264Z" fill="black"/>
<path d="M698.238 391.648H696.206V378.592H698.926L703.118 389.216L707.31 378.592H710.03V391.648H707.998V381.952L704.158 391.648H702.078L698.238 381.952V391.648ZM713.564 380.48C712.892 380.48 712.348 379.952 712.348 379.264C712.348 378.592 712.892 378.048 713.564 378.048C714.236 378.048 714.78 378.592 714.78 379.264C714.78 379.952 714.236 380.48 713.564 380.48ZM714.604 391.648H712.54V382.096H714.604V391.648ZM721.977 381.856C723.977 381.856 725.577 383.392 725.577 385.872V391.648H723.513V385.968C723.513 384.352 722.633 383.728 721.401 383.728C720.201 383.728 719.209 384.528 719.209 385.84V391.648H717.145V382.096H719.065L719.161 383.312C719.721 382.432 720.713 381.856 721.977 381.856ZM734.155 383.28V378.592H736.219V391.648H734.299L734.203 390.416C733.467 391.376 732.379 391.888 731.179 391.888C729.211 391.888 727.307 390.224 727.307 387.344V386.384C727.307 383.536 729.211 381.856 731.179 381.856C732.347 381.856 733.419 382.352 734.155 383.28ZM731.771 390.016C733.083 390.016 734.155 389.136 734.155 387.296V386.448C734.155 384.608 733.083 383.728 731.771 383.728C730.443 383.728 729.371 384.608 729.371 386.448V387.296C729.371 389.136 730.443 390.016 731.771 390.016ZM741.43 381.056V382.096H743.75V383.968H741.43V391.648H739.366V383.968H737.782V382.096H739.366V380.976C739.366 379.072 740.454 378.048 742.118 378.048C742.79 378.048 743.654 378.272 744.23 378.64L743.558 380.24C743.094 380.016 742.774 379.904 742.374 379.904C741.782 379.904 741.43 380.224 741.43 381.056ZM751.539 387.904V382.096H753.603V391.648H751.683L751.587 390.432C751.011 391.296 750.035 391.888 748.771 391.888C746.771 391.888 745.171 390.352 745.171 387.856V382.096H747.235V387.776C747.235 389.392 748.115 390.016 749.331 390.016C750.531 390.016 751.539 389.2 751.539 387.904ZM758.037 391.648H755.973V378.592H758.037V391.648ZM765.227 381.856C767.227 381.856 768.827 383.392 768.827 385.872V391.648H766.763V385.968C766.763 384.352 765.883 383.728 764.651 383.728C763.451 383.728 762.459 384.528 762.459 385.84V391.648H760.395V382.096H762.315L762.411 383.312C762.971 382.432 763.963 381.856 765.227 381.856ZM779.309 386.432V387.616H772.573C772.685 389.248 773.741 390.064 774.941 390.064C775.981 390.064 776.893 389.6 777.277 388.64L779.149 389.216C778.589 390.976 776.909 391.888 774.941 391.888C772.573 391.888 770.557 390.352 770.557 387.344V386.384C770.557 383.392 772.557 381.856 774.925 381.856C777.325 381.856 779.309 383.392 779.309 386.432ZM772.589 385.92H777.277C777.277 384.608 776.253 383.664 774.925 383.664C773.757 383.664 772.765 384.416 772.589 385.92ZM780.554 389.6L782.122 388.544C782.842 389.728 783.994 390.144 784.954 390.144C785.898 390.144 786.746 389.824 786.746 389.072C786.746 388.336 786.106 388.064 785.242 387.84L784.122 387.552C782.65 387.184 781.226 386.432 781.226 384.624C781.226 382.816 782.73 381.856 784.73 381.856C786.634 381.856 787.866 382.72 788.682 383.904L787.194 385.008C786.538 384.144 785.642 383.6 784.698 383.6C783.77 383.6 783.21 383.984 783.21 384.624C783.21 385.28 783.658 385.584 784.522 385.824L785.626 386.096C787.098 386.464 788.73 387.168 788.73 389.072C788.73 391.008 786.874 391.888 784.906 391.888C782.97 391.888 781.386 391.104 780.554 389.6ZM790.054 389.6L791.622 388.544C792.342 389.728 793.494 390.144 794.454 390.144C795.398 390.144 796.246 389.824 796.246 389.072C796.246 388.336 795.606 388.064 794.742 387.84L793.622 387.552C792.15 387.184 790.726 386.432 790.726 384.624C790.726 382.816 792.23 381.856 794.23 381.856C796.134 381.856 797.366 382.72 798.182 383.904L796.694 385.008C796.038 384.144 795.142 383.6 794.198 383.6C793.27 383.6 792.71 383.984 792.71 384.624C792.71 385.28 793.158 385.584 794.022 385.824L795.126 386.096C796.598 386.464 798.23 387.168 798.23 389.072C798.23 391.008 796.374 391.888 794.406 391.888C792.47 391.888 790.886 391.104 790.054 389.6Z" fill="black"/>
<path d="M870.748 391.648H868.636L867.26 387.792H862.284L860.908 391.648H858.796L863.484 378.592H866.044L870.748 391.648ZM864.78 380.768L862.94 385.936H866.604L864.78 380.768ZM875.802 391.888C873.418 391.888 871.354 390.384 871.354 387.472V386.256C871.354 383.344 873.418 381.856 875.802 381.856C877.626 381.856 879.306 382.784 879.93 384.624L877.994 385.344C877.61 384.24 876.81 383.728 875.802 383.728C874.522 383.728 873.418 384.576 873.418 386.32V387.408C873.418 389.152 874.522 390.016 875.802 390.016C876.81 390.016 877.61 389.504 877.994 388.4L879.93 389.104C879.306 390.944 877.626 391.888 875.802 391.888ZM886.749 389.712L887.213 391.44C886.637 391.744 885.821 391.888 885.133 391.888C883.469 391.888 882.413 391.008 882.413 389.264V383.968H880.829V382.096H882.413V379.552H884.461V382.096H886.813V383.968H884.461V388.96C884.461 389.792 884.829 390.016 885.437 390.016C885.933 390.016 886.317 389.888 886.749 389.712ZM889.877 380.48C889.205 380.48 888.661 379.952 888.661 379.264C888.661 378.592 889.205 378.048 889.877 378.048C890.549 378.048 891.093 378.592 891.093 379.264C891.093 379.952 890.549 380.48 889.877 380.48ZM890.917 391.648H888.853V382.096H890.917V391.648ZM896.561 389.392L899.057 382.096H901.249L897.665 391.648H895.441L891.857 382.096H894.049L896.561 389.392ZM903.877 380.48C903.205 380.48 902.661 379.952 902.661 379.264C902.661 378.592 903.205 378.048 903.877 378.048C904.549 378.048 905.093 378.592 905.093 379.264C905.093 379.952 904.549 380.48 903.877 380.48ZM904.917 391.648H902.853V382.096H904.917V391.648ZM912.561 389.712L913.025 391.44C912.449 391.744 911.633 391.888 910.945 391.888C909.281 391.888 908.225 391.008 908.225 389.264V383.968H906.641V382.096H908.225V379.552H910.273V382.096H912.625V383.968H910.273V388.96C910.273 389.792 910.641 390.016 911.249 390.016C911.745 390.016 912.129 389.888 912.561 389.712ZM915.689 380.48C915.017 380.48 914.473 379.952 914.473 379.264C914.473 378.592 915.017 378.048 915.689 378.048C916.361 378.048 916.905 378.592 916.905 379.264C916.905 379.952 916.361 380.48 915.689 380.48ZM916.729 391.648H914.665V382.096H916.729V391.648ZM927.388 386.432V387.616H920.652C920.764 389.248 921.82 390.064 923.02 390.064C924.06 390.064 924.972 389.6 925.356 388.64L927.228 389.216C926.668 390.976 924.988 391.888 923.02 391.888C920.652 391.888 918.636 390.352 918.636 387.344V386.384C918.636 383.392 920.636 381.856 923.004 381.856C925.404 381.856 927.388 383.392 927.388 386.432ZM920.668 385.92H925.356C925.356 384.608 924.332 383.664 923.004 383.664C921.836 383.664 920.844 384.416 920.668 385.92ZM928.632 389.6L930.2 388.544C930.92 389.728 932.072 390.144 933.032 390.144C933.976 390.144 934.824 389.824 934.824 389.072C934.824 388.336 934.184 388.064 933.32 387.84L932.2 387.552C930.728 387.184 929.304 386.432 929.304 384.624C929.304 382.816 930.808 381.856 932.808 381.856C934.712 381.856 935.944 382.72 936.76 383.904L935.272 385.008C934.616 384.144 933.72 383.6 932.776 383.6C931.848 383.6 931.288 383.984 931.288 384.624C931.288 385.28 931.736 385.584 932.6 385.824L933.704 386.096C935.176 386.464 936.808 387.168 936.808 389.072C936.808 391.008 934.952 391.888 932.984 391.888C931.048 391.888 929.464 391.104 928.632 389.6Z" fill="black"/>
<path d="M1006.79 378.592H1017.19V380.464H1013.03V391.648H1010.97V380.464H1006.79V378.592ZM1025.99 386.432V387.616H1019.25C1019.37 389.248 1020.42 390.064 1021.62 390.064C1022.66 390.064 1023.57 389.6 1023.96 388.64L1025.83 389.216C1025.27 390.976 1023.59 391.888 1021.62 391.888C1019.25 391.888 1017.24 390.352 1017.24 387.344V386.384C1017.24 383.392 1019.24 381.856 1021.61 381.856C1024.01 381.856 1025.99 383.392 1025.99 386.432ZM1019.27 385.92H1023.96C1023.96 384.608 1022.93 383.664 1021.61 383.664C1020.44 383.664 1019.45 384.416 1019.27 385.92ZM1031.68 381.856C1033.91 381.856 1035.6 383.216 1035.6 385.552V391.648H1033.71L1033.62 390.432C1033.11 391.344 1032.18 391.888 1030.96 391.888H1030.35C1028.63 391.888 1027.31 390.624 1027.31 388.816C1027.31 387.12 1028.55 385.872 1030.87 385.872H1033.57V385.632C1033.57 384.544 1032.91 383.728 1031.54 383.728C1030.59 383.728 1029.92 384.16 1029.51 384.912L1027.67 384.128C1028.39 382.816 1029.87 381.856 1031.68 381.856ZM1030.79 390H1031.38C1032.43 390 1033.43 389.408 1033.57 388.368V387.632H1030.93C1029.89 387.632 1029.35 388.096 1029.35 388.816C1029.35 389.552 1029.92 390 1030.79 390ZM1047.81 381.856C1049.7 381.856 1051.04 383.392 1051.04 385.872V391.648H1048.98V385.856C1048.98 384.288 1048.19 383.712 1047.17 383.712C1046.16 383.712 1045.38 384.464 1045.38 385.84V385.872V391.648H1043.38V385.856C1043.38 384.256 1042.59 383.696 1041.59 383.696C1040.58 383.696 1039.79 384.336 1039.79 385.84V391.648H1037.73V382.096H1039.65L1039.75 383.264C1040.24 382.448 1041.07 381.856 1042.21 381.856C1043.43 381.856 1044.39 382.48 1044.91 383.6C1045.46 382.592 1046.48 381.856 1047.81 381.856ZM1062.35 378.592C1065.09 378.592 1066.9 379.952 1066.9 382.608C1066.9 385.296 1065.09 386.64 1062.35 386.64H1059.2V391.648H1057.14V378.592H1062.35ZM1059.2 384.816H1062.24C1063.95 384.816 1064.83 384.048 1064.83 382.608C1064.83 381.168 1063.95 380.416 1062.24 380.416H1059.2V384.816ZM1073.36 381.856C1075.38 381.856 1076.98 383.392 1076.98 385.856V391.648H1074.91V385.952C1074.91 384.272 1074.03 383.664 1072.8 383.664C1071.6 383.664 1070.61 384.464 1070.61 385.824V391.648H1068.54V378.592H1070.61V383.232C1071.18 382.416 1072.14 381.856 1073.36 381.856ZM1083.15 391.888C1080.77 391.888 1078.71 390.384 1078.71 387.456V386.256C1078.71 383.344 1080.77 381.856 1083.15 381.856C1085.54 381.856 1087.62 383.344 1087.62 386.256V387.456C1087.62 390.384 1085.54 391.888 1083.15 391.888ZM1083.15 390.016C1084.43 390.016 1085.55 389.152 1085.55 387.408V386.32C1085.55 384.576 1084.43 383.728 1083.15 383.728C1081.87 383.728 1080.77 384.576 1080.77 386.32V387.408C1080.77 389.152 1081.87 390.016 1083.15 390.016ZM1094.54 389.712L1095 391.44C1094.43 391.744 1093.61 391.888 1092.92 391.888C1091.26 391.888 1090.2 391.008 1090.2 389.264V383.968H1088.62V382.096H1090.2V379.552H1092.25V382.096H1094.6V383.968H1092.25V388.96C1092.25 389.792 1092.62 390.016 1093.23 390.016C1093.72 390.016 1094.11 389.888 1094.54 389.712ZM1100.34 391.888C1097.96 391.888 1095.89 390.384 1095.89 387.456V386.256C1095.89 383.344 1097.96 381.856 1100.34 381.856C1102.73 381.856 1104.81 383.344 1104.81 386.256V387.456C1104.81 390.384 1102.73 391.888 1100.34 391.888ZM1100.34 390.016C1101.62 390.016 1102.74 389.152 1102.74 387.408V386.32C1102.74 384.576 1101.62 383.728 1100.34 383.728C1099.06 383.728 1097.96 384.576 1097.96 386.32V387.408C1097.96 389.152 1099.06 390.016 1100.34 390.016Z" fill="black"/>
<path d="M904.443 329.082C906.153 329.914 908.389 329.328 909.632 327.392C910.913 325.4 911.861 323.187 911.797 320.76C911.739 318.484 910.862 316.479 909.196 314.871C908.626 314.316 907.928 314.008 907.056 313.919C905.974 313.806 904.878 313.806 903.808 313.39C902.751 312.98 901.381 314.045 901.374 315.168C901.342 319.303 901.342 323.439 901.374 327.575C901.387 329.006 902.45 329.473 904.283 328.937" stroke="black" stroke-width="3" stroke-linecap="round" stroke-linejoin="round"/>
<path d="M905.15 313.3C904.969 315.912 904.918 318.543 904.568 321.129C904.24 323.59 904.517 326.058 904.2 328.5" stroke="black" stroke-width="3" stroke-linecap="round" stroke-linejoin="round"/>
<path d="M912.75 342.584C912.725 342.434 912.75 342.253 912.668 342.141C912.071 341.286 911.805 340.05 910.543 339.912C909.18 339.762 908.856 341.017 908.273 341.847C907.81 342.509 907.283 343.196 907.08 343.945C906.7 345.343 905.78 345.88 904.474 346.373C900.466 347.903 896.927 350.369 893.052 352.192C888.962 354.114 884.681 355.519 880.407 356.955C880.134 357.048 879.804 356.967 879.5 356.967" stroke="black" stroke-width="3" stroke-linecap="round" stroke-linejoin="round"/>
<path d="M877.986 329.808C878.018 327.789 877.114 325.948 876.83 323.973C876.552 322.05 876.352 320.03 875.338 318.273C875.028 317.734 875.351 317.49 875.661 317.189C876.391 316.464 877.424 316.407 878.315 316.176C879.058 315.984 879.497 316.901 879.664 317.51C880.646 321.024 881.86 324.48 882.325 328.122C882.486 329.372 881.879 330.091 880.31 330.257C878.98 330.398 877.605 330.43 876.287 330.373C873.317 330.251 871.451 328.346 870.27 325.801C869.759 324.704 870.037 323.486 870.573 322.434C871.316 320.992 872.4 319.773 873.498 318.581C873.911 318.132 874.428 317.914 875.048 317.965" stroke="black" stroke-width="3" stroke-linecap="round" stroke-linejoin="round"/>
<path d="M926.743 335.951C927.445 337.672 926.188 338.745 925.352 339.907C921.63 345.069 916.504 348.555 911.142 351.845C906.221 354.867 900.782 356.321 895.344 357.921C892.599 358.728 889.873 359.604 887.065 360.175C884.945 360.607 882.82 361.039 880.63 360.645C878.619 360.277 878.096 359.293 878.932 357.439C878.964 357.375 879.079 357.236 879.079 357.14C879.009 353.019 882.558 351.318 884.792 348.778C886.65 346.67 889.311 345.622 891.673 344.2C895.356 341.983 898.759 339.367 902.206 336.834C903.042 336.218 903.84 335.78 904.829 335.469C909.33 334.059 913.926 333.233 918.624 332.884C920.468 332.751 922.281 332.306 924.139 332.3C926.405 332.294 927.318 333.418 926.903 335.621C923.437 336.186 920.468 337.951 917.404 339.475C915.828 340.256 914.321 341.171 912.649 341.749" stroke="black" stroke-width="3" stroke-linecap="round" stroke-linejoin="round"/>
<path d="M903.25 313.099C902.91 311.898 903.165 310.658 902.956 309.432C902.347 305.802 900.228 303.406 896.989 301.62C893.587 299.745 890.1 299.719 886.449 300.431C883.754 300.952 882.203 302.91 880.47 304.696C877.552 307.709 877.185 311.243 877.938 315.089C877.996 315.4 878.409 315.794 877.97 316.15" stroke="black" stroke-width="3" stroke-linecap="round" stroke-linejoin="round"/>
<path d="M754.801 328.499C753.271 331.219 754.661 333.939 754.801 336.659C754.911 338.669 755.281 340.619 756.711 342.179" stroke="black" stroke-width="3" stroke-linecap="round" stroke-linejoin="round"/>
<path d="M751.921 327.539C756.221 327.699 759.361 330.119 760.251 334.269C760.461 335.269 760.871 336.249 760.851 337.379C760.801 340.439 760.611 340.789 757.691 341.959C755.851 342.699 754.461 344.129 753.151 345.559C752.461 346.309 753.091 347.299 753.171 348.319C757.591 349.339 761.961 349.259 766.081 346.959C768.671 345.509 769.211 342.719 769.351 340.249C769.721 333.789 769.421 327.279 765.321 321.809C762.561 318.129 758.421 316.409 754.071 315.359C753.151 315.139 752.111 315.009 751.231 314.739C749.391 314.179 749.151 312.189 749.981 308.819C750.711 305.859 750.981 302.849 749.031 300.199C747.181 297.689 745.311 297.389 742.561 298.989C739.161 300.959 736.971 305.349 738.031 308.339C738.581 309.889 739.811 311.169 739.941 313.169C736.801 316.149 733.671 319.359 731.271 323.219C728.991 326.889 726.501 330.479 725.571 334.759C724.841 338.139 724.371 341.729 727.011 344.549C728.721 346.369 731.041 347.289 733.681 347.009C734.631 346.909 735.601 346.989 736.561 346.989C739.881 346.989 741.671 343.499 739.981 340.949C738.771 339.129 739.361 336.799 739.521 334.749C739.671 332.899 739.651 331.059 739.641 329.219C739.641 328.269 739.371 327.119 738.231 326.859C737.271 326.639 736.521 327.089 735.791 327.979C733.701 330.559 732.661 333.589 731.801 336.669C731.221 338.749 732.151 340.019 734.401 340.979" stroke="black" stroke-width="3" stroke-linecap="round" stroke-linejoin="round"/>
<path d="M727.521 346.529C726.501 349.179 726.541 351.709 728.481 353.969C729.521 355.179 730.821 355.419 732.321 354.939C734.951 354.099 742.141 353.749 744.941 353.389C745.731 353.289 746.401 353.299 746.851 353.729C750.361 357.139 759.651 354.799 763.751 354.799C765.541 354.799 767.091 351.519 766.861 349.129C766.821 348.729 766.711 348.329 766.631 347.929" stroke="black" stroke-width="3" stroke-linecap="round" stroke-linejoin="round"/>
<path d="M744.951 344.829L749.101 343.379C749.831 343.129 750.561 342.869 751.331 342.829C752.101 342.789 752.911 342.989 753.451 343.539C754.121 344.229 754.221 345.329 753.911 346.239C753.601 347.149 752.931 347.889 752.231 348.539C751.381 349.329 750.441 350.019 749.441 350.609C747.371 351.819 745.001 352.579 743.191 354.149" stroke="black" stroke-width="3" stroke-miterlimit="10"/>
<path d="M148.128 315.857C148.425 314.256 148.581 312.596 147.743 311.155C146.387 308.804 143.147 308.36 140.472 309.903C138.559 311.01 137.373 312.8 135.861 314.292C135.417 314.729 135.772 315.34 135.676 315.857" stroke="black" stroke-width="3" stroke-linecap="round" stroke-linejoin="round"/>
<path d="M135.905 314.705C134.99 314.061 134.326 313.24 133.751 312.259C132.592 310.296 130.541 309.586 128.46 309.103C126.925 308.744 125.464 309.337 124.8 310.685C123.671 312.977 122.933 315.437 123.848 318.037C125.796 318.608 127.634 317.773 129.523 317.656C131.626 317.524 133.832 317.715 135.721 316.455C136.031 316.25 136.127 316.375 136.267 316.441C139.772 318.074 143.328 316.258 146.892 316.514C148.449 316.624 149.873 316.909 151.098 317.583C152.345 318.271 153.157 319.582 153.629 321.025C154.352 323.259 154.492 325.595 154.633 327.887C154.95 333.094 155.297 338.3 155.208 343.529C155.186 344.818 155.289 346.151 154.994 347.388C154.36 350.098 152.294 351.438 149.718 351.943C146.686 352.537 143.66 352.895 140.517 352.991C135.787 353.13 131.065 353.079 126.342 353.013C121.679 352.939 120.314 351.387 119.333 347.564C117.953 342.174 117.827 336.631 118.145 331.058C118.27 328.861 118.491 326.693 118.949 324.569C119.458 322.189 120.705 320.161 122.97 318.923C123.251 318.769 123.45 318.469 123.686 318.235" stroke="black" stroke-width="3" stroke-linecap="round" stroke-linejoin="round"/>
<path d="M139.55 317.816C139.951 325.331 139.747 332.862 139.924 340.384C140.026 344.616 140.461 348.84 140.529 353.079" stroke="black" stroke-width="3" stroke-linecap="round" stroke-linejoin="round"/>
<path d="M132.693 317.816C133.123 319.938 133.001 322.105 133.017 324.227C133.098 331.893 133.503 339.544 133.892 347.202C133.989 349.161 134.767 351.075 134.638 353.079" stroke="black" stroke-width="3" stroke-linecap="round" stroke-linejoin="round"/>
<path d="M269.561 320.976C271.783 320.481 274.057 320.325 276.312 320.071C277.788 319.902 279.239 319.622 280.69 319.368C281.893 319.153 282.513 318.235 282.598 316.914C282.834 313.157 282.709 309.407 282.422 305.663C282.304 304.114 280.69 302.519 278.971 302.226C276.41 301.783 273.828 302.096 271.293 302.284C267.829 302.538 264.385 303.163 260.934 303.639C259.667 303.814 258.418 304.172 257.183 304.478C255.661 304.856 255.497 306.484 255.497 307.701C255.504 310.826 255.131 313.951 255.432 317.076C255.602 318.854 257.105 320.384 258.889 320.69C261.862 321.204 264.849 320.957 267.829 320.996C268.352 320.996 268.901 320.807 269.397 321.139" stroke="black" stroke-width="3" stroke-linecap="round" stroke-linejoin="round"/>
<path d="M254.661 352.696C254.328 350.046 254.615 347.383 254.497 344.727C254.367 341.706 253.916 338.705 254.014 335.664C254.053 334.473 254.229 333.294 254.086 332.064C253.87 330.26 255.667 328.789 258.111 328.477C261.836 328.008 265.542 327.363 269.26 326.842C271.227 326.569 273.319 326.868 275.364 326.797C277.606 326.719 279.847 325.853 282.108 326.68C284.768 325.195 287.898 326.706 290.578 325.358C291.061 325.111 291.525 325.443 291.983 325.521C293.584 325.801 295.166 325.71 296.688 325.182C298.087 324.694 301.021 325.859 301.55 327.227C302.903 330.749 303.805 334.369 303.916 338.164C304.034 342.019 304.23 345.873 304.374 349.727C304.4 350.417 304.465 351.127 304.066 351.758" stroke="black" stroke-width="3" stroke-linecap="round" stroke-linejoin="round"/>
<path d="M281.324 332.539C276.488 332.494 271.698 333.047 266.888 333.412C262.784 333.724 258.634 333.477 254.504 333.477" stroke="black" stroke-width="3" stroke-linecap="round" stroke-linejoin="round"/>
<path d="M269.404 321.289C269.456 323.06 269.509 324.831 269.561 326.601" stroke="black" stroke-width="3" stroke-linecap="round" stroke-linejoin="round"/>
<path d="M294.969 344.571C292.93 344.779 290.891 344.987 288.853 345.196" stroke="black" stroke-width="3" stroke-linecap="round" stroke-linejoin="round"/>
<path d="M282.108 326.758C281.912 328.685 281.938 330.619 281.677 332.565C281.429 334.44 281.579 336.615 281.945 338.633C282.357 340.905 282.03 343.217 282.363 345.515C282.631 347.351 283.448 349.063 283.422 350.977C283.409 351.713 284.154 352.266 285.088 352.234C288.33 352.123 291.571 352.299 294.813 352.11C297.152 351.973 299.524 352.09 301.864 352.266C302.844 352.338 303.72 351.55 304.687 352.071" stroke="black" stroke-width="3" stroke-linecap="round" stroke-linejoin="round"/>
<path d="M298.263 321.133C299.113 321.243 299.995 321.165 300.76 320.931C301.746 320.625 302.805 320.189 302.825 318.789C302.844 317.376 302.165 315.97 300.76 315.54C297.708 314.609 294.571 314.127 291.362 314.42C290.414 314.505 290.212 315.182 290.264 315.976C290.414 318.164 290.486 320.364 290.774 322.532C290.892 323.418 290.682 324.336 291.048 325.195" stroke="black" stroke-width="3" stroke-linecap="round" stroke-linejoin="round"/>
<path d="M295.44 338.008C292.826 338.06 290.212 338.112 287.598 338.164" stroke="black" stroke-width="3" stroke-linecap="round" stroke-linejoin="round"/>
<path d="M287.755 331.602C289.898 331.432 292.048 331.797 294.185 331.445" stroke="black" stroke-width="3" stroke-linecap="round" stroke-linejoin="round"/>
<path d="M298.106 315.351C297.623 317.005 297.178 322.682 297.316 323.945C297.342 324.205 297.316 324.466 297.316 324.726" stroke="black" stroke-width="3" stroke-linecap="round" stroke-linejoin="round"/>
<path d="M277.089 317.662L273.724 317.812C273.397 317.825 273.051 317.845 272.698 317.858C268.424 318.085 263.882 318.938 259.908 317.812C257.268 317.278 257.745 313.346 257.562 310.26C257.66 309.713 257.837 309.225 258.085 308.801C260.32 304.947 268.208 305.65 273.116 305.234C273.567 305.201 274.011 305.182 274.449 305.175C275.331 305.162 276.187 305.208 277.011 305.331C280.984 306.458 279.854 310.423 280.174 313.398C280.193 313.919 280.206 314.264 280.206 314.264C280.285 316.054 278.88 317.584 277.083 317.662H277.089Z" fill="black"/>
<path d="M445.945 325.179C447.254 328.867 448.577 332.55 449.866 336.243C450.431 337.854 450.739 339.505 450.744 341.24C450.744 342.32 451.433 343.337 451.408 344.452C451.363 346.514 451.581 348.581 451.294 350.638C451.125 351.848 450.64 352.314 449.395 352.418C444.681 352.824 439.977 353.285 435.238 353.394C433.493 353.434 431.743 353.692 430.008 353.895C428.303 354.093 426.573 354.014 424.888 354.336C421.755 354.936 418.617 354.029 415.484 354.426C414.656 354.53 414.324 353.801 414.19 353.132C413.675 350.574 413.145 347.996 413.05 345.399C412.986 343.674 412.862 341.835 413.596 340.169C415.34 336.223 416.188 331.955 417.953 328.014C418.196 327.464 418.538 326.949 418.701 326.364" stroke="black" stroke-width="3" stroke-linecap="round" stroke-linejoin="round"/>
<path d="M439.402 325.774C439.253 326.161 439.303 326.567 439.278 326.964C439.189 328.322 438.629 328.837 437.261 328.867C434.083 328.936 430.916 328.679 427.743 328.629C426.945 328.619 426.672 328.213 426.524 327.444C426.315 326.339 426.747 325.372 426.915 324.346C427.009 323.786 427.312 323.548 427.976 323.479C431.104 323.157 434.242 323.122 437.38 323.176C438.039 323.186 438.683 323.449 438.936 324.222C439.095 324.713 439.323 325.179 439.521 325.655" stroke="black" stroke-width="3" stroke-linecap="round" stroke-linejoin="round"/>
<path d="M439.64 325.655C441.305 325.536 442.971 325.412 444.636 325.298C445.94 325.214 446.664 324.559 446.773 323.27C446.907 321.62 446.565 319.989 446.248 318.403C445.985 317.079 444.76 316.623 443.447 316.479C439.372 316.033 435.283 315.974 431.193 316.018C428.814 316.043 426.424 315.87 424.055 316.251C422.692 316.469 421.358 316.802 420.129 317.446C418.795 318.145 418.414 319.473 418.265 320.777C418.116 322.066 417.958 323.38 418.21 324.703C418.513 326.309 418.756 326.517 420.372 326.374C422.032 326.23 423.693 325.992 425.368 326.007C425.651 326.007 425.943 325.957 426.201 326.126" stroke="black" stroke-width="3" stroke-linecap="round" stroke-linejoin="round"/>
<path d="M450.585 341.478C448.463 342.221 446.228 342.271 444.042 342.39C436.71 342.781 429.379 343.064 422.037 343.178C419.46 343.218 416.882 343.203 414.304 343.262C414.022 343.267 413.729 343.317 413.472 343.148" stroke="black" stroke-width="3" stroke-linecap="round" stroke-linejoin="round"/>
<path d="M613.937 341.119C614.697 341.827 615.343 342.576 616.472 342.906C618.189 343.413 618.606 344.33 618.238 346.133C617.944 347.59 617.739 349.095 616.881 350.382" stroke="black" stroke-width="3" stroke-linecap="round" stroke-linejoin="round"/>
<path d="M616.292 350.23C614.722 350.02 613.52 348.95 611.991 348.612C608.859 347.92 605.703 347.268 602.759 345.94C600.322 344.845 597.37 344.491 596.283 341.498L594.517 341.691C592.644 343.791 589.872 344.041 587.427 344.709C582.267 346.117 576.985 347.115 571.744 348.258C569.838 348.676 568.841 347.896 569.021 345.948C569.364 342.383 568.808 342.504 572.709 341.264C574.532 340.685 576.601 340.532 578.024 338.995" stroke="black" stroke-width="3" stroke-linecap="round" stroke-linejoin="round"/>
<path d="M601.181 339.381C602.252 339.823 603.389 339.775 604.517 339.775C606.259 339.775 607.951 339.735 609.644 340.499C611.402 341.296 613.275 341.344 614.935 339.984C615.327 339.662 615.744 339.332 616.292 339.18C617.911 338.721 618.066 337.409 617.837 336.105C617.437 333.731 616.742 333.28 614.338 333.812C613.536 333.989 612.768 333.956 611.975 333.973" stroke="black" stroke-width="3" stroke-linecap="round" stroke-linejoin="round"/>
<path d="M607.853 339.574C608.123 338.278 609.497 337.771 609.996 336.669C610.478 335.614 611.705 334.922 611.582 333.586C611.353 331.075 611.149 328.556 608.459 327.196C608.205 327.067 607.862 326.842 607.853 326.617C608.442 322.52 611.451 319.245 611.173 315.02C607.755 314.183 605.997 317.507 603.184 317.804C601.655 316.09 601.41 313.901 600.584 311.961C599.595 309.62 599.529 306.875 597.452 305L596.16 306.022C594.386 308.493 594.1 311.632 593.151 314.472C592.546 316.275 592.415 318.295 590.592 319.494L589.063 317.909L587.452 316.211C586.528 316.154 585.98 316.782 585.506 317.378C583.02 320.492 581.262 323.768 581.245 327.993C581.237 330.729 582.088 332.991 583.134 335.333C583.478 336.097 583.788 336.878 584.116 337.651" stroke="black" stroke-width="3" stroke-linecap="round" stroke-linejoin="round"/>
<path d="M593.723 339.574C593.543 337.852 592.603 336.307 592.546 334.552C592.44 331.574 592.243 328.572 594.705 326.247C594.705 326.247 596.724 327.405 597.804 328.749C599.194 327.317 600.985 326.633 600.985 326.633C603.16 329.466 603.429 333.796 601.565 336.669C601.091 337.393 600.731 338.141 600.592 338.995" stroke="black" stroke-width="3" stroke-linecap="round" stroke-linejoin="round"/>
<path d="M580.967 330.882C579.357 331.188 577.836 330.528 576.257 330.464C575.006 330.415 574.295 330.737 574.082 332.033C573.894 333.135 573.551 334.214 573.281 335.276C573.911 336.097 574.851 336.387 575.685 336.62C576.421 336.821 577.051 337.095 577.41 337.658C578.678 339.622 580.469 339.26 582.12 338.56C583.625 337.924 584.631 337.803 586.143 338.89C587.64 339.968 589.741 340.298 591.761 339.775C592.325 339.63 592.939 339.63 593.527 339.566" stroke="black" stroke-width="3" stroke-linecap="round" stroke-linejoin="round"/>
<path d="M1064.11 311.512C1063.26 311.791 1062.4 311.849 1061.51 311.87C1057.69 311.963 1053.86 311.62 1050.04 312.163C1047.87 312.471 1045.66 311.841 1043.44 312.163C1041.01 312.521 1038.73 313.429 1036.35 313.986C1035.17 314.258 1034.81 315.667 1034.4 316.825C1032.71 321.644 1032.98 326.635 1033.07 331.59C1033.12 334.4 1033.53 337.202 1033.85 340.005C1034.28 343.623 1034.91 344.131 1038.38 345.561C1044.56 348.106 1050.94 347.62 1057.33 347.377C1061.38 347.219 1065.44 347.184 1069.49 346.912C1071.56 346.769 1073.63 346.454 1075.74 346.497C1077.16 346.526 1078.17 345.411 1078.33 343.787C1078.68 340.134 1078.54 336.473 1078.39 332.805C1078.25 329.473 1077.87 326.17 1077.65 322.852C1077.51 320.872 1077.26 318.863 1076.55 317.039C1075.79 315.073 1074.11 314.029 1071.93 313.536C1069.36 312.95 1066.74 312.521 1064.28 311.527" stroke="black" stroke-width="3" stroke-linecap="round" stroke-linejoin="round"/>
<path d="M1066.37 331.075C1066.14 329.387 1065.98 327.7 1065.33 326.098C1063.15 320.65 1056.67 317.712 1050.92 321.294C1049.71 322.044 1048.42 322.702 1047.28 323.539C1043.62 326.249 1043.32 329.709 1044.61 333.835C1046.19 338.918 1051.34 342.043 1055.61 342.329C1059.31 342.579 1064.01 339.59 1065.53 335.544C1066.06 334.135 1066.16 332.691 1066.37 331.246" stroke="black" stroke-width="3" stroke-linecap="round" stroke-linejoin="round"/>
<path d="M1073.14 313.572C1073.44 311.984 1073.82 310.426 1073.52 308.76C1073.34 307.73 1072.97 307.215 1071.92 307.029C1070.75 306.829 1069.61 306.464 1068.44 306.193C1065.9 305.592 1064.7 306.364 1064.29 308.938C1064.16 309.725 1064.17 310.54 1064.11 311.341" stroke="black" stroke-width="3" stroke-linecap="round" stroke-linejoin="round"/>
<path d="M1061.59 330.96C1061.88 336.309 1056.82 337.739 1053.2 337.024C1051.03 336.309 1049.58 334.164 1048.86 332.019C1048.14 328.444 1051.03 324.869 1054.65 324.154C1056.82 324.154 1058.27 324.869 1059.71 326.527C1060.87 327.657 1061.59 329.223 1061.59 330.96Z" fill="black"/>
<circle cx="396" cy="80.4558" r="18" transform="rotate(45 396 80.4558)" fill="#02FF99"/>
<path d="M172.858 120.369L167.913 101.601H170.903L174.767 116.436L178.585 101.624L181.598 101.601L185.416 116.436L189.28 101.601H192.27L187.325 120.369H183.737L180.08 106.385L176.446 120.369H172.858ZM199.075 120.714C195.648 120.714 192.681 118.552 192.681 114.343V112.618C192.681 108.432 195.648 106.293 199.075 106.293C202.502 106.293 205.492 108.432 205.492 112.618V114.343C205.492 118.552 202.502 120.714 199.075 120.714ZM199.075 118.023C200.915 118.023 202.525 116.781 202.525 114.274V112.71C202.525 110.203 200.915 108.984 199.075 108.984C197.235 108.984 195.648 110.203 195.648 112.71V114.274C195.648 116.781 197.235 118.023 199.075 118.023ZM214.583 106.293C215.181 106.293 215.894 106.385 216.354 106.592L215.641 109.26C215.135 109.076 214.537 108.984 214.054 108.984C212.674 108.984 211.294 109.973 211.294 112.043V120.369H208.327V106.638H211.087L211.225 108.478C211.892 107.144 212.996 106.293 214.583 106.293ZM230.604 120.369H227.085L222.715 114.481L221.335 115.953V120.369H218.368V101.601H221.335V112.043L226.395 106.638H230.052L224.509 112.572L230.604 120.369Z" fill="black"/>
<path d="M50.1016 159.248V155.632H51.2536V170.4H50.1016V164.928H46.8696C46.4696 167.408 44.9496 168.432 43.1896 168.432C41.1096 168.432 39.4136 167.04 39.4136 163.536V161.328C39.4136 157.824 41.1096 156.432 43.1896 156.432C44.7896 156.432 46.1656 157.264 46.7096 159.248H50.1016ZM45.8136 163.52V161.328C45.8136 158.576 44.6936 157.488 43.1896 157.488C41.6856 157.488 40.5656 158.576 40.5656 161.328V163.52C40.5656 166.272 41.6856 167.376 43.1896 167.376C44.6936 167.376 45.8136 166.272 45.8136 163.52ZM46.9656 163.872H50.1016V160.288H46.9176C46.9496 160.608 46.9656 160.96 46.9656 161.328V163.536V163.872ZM61.9134 162.848H59.8174C57.1774 162.848 55.5454 161.536 55.5454 159.504C55.5454 157.504 57.1774 156.192 59.8174 156.192H61.9134C64.5374 156.192 66.2014 157.504 66.2014 159.504C66.2014 161.536 64.5374 162.848 61.9134 162.848ZM61.7214 157.216H59.9934C57.8814 157.216 56.6814 158.144 56.6814 159.504C56.6814 160.896 57.8814 161.824 59.9934 161.824H61.7214C63.8494 161.824 65.0494 160.88 65.0494 159.504C65.0494 158.144 63.8494 157.216 61.7214 157.216ZM53.9454 164.992H67.7694V166.032H64.0734V170.56H62.9214V166.032H58.8094V170.56H57.6574V166.032H53.9454V164.992ZM76.6053 162.016V163.504H82.9413V164.448H69.1173V163.504H75.4693V162.016H71.0533V158.528H79.8693V156.976H70.9733V156H81.0213V159.488H72.1893V161.072H81.3253V162.016H76.6053ZM72.0453 166.928H80.0133V165.44H81.1653V170.4H70.9093V165.44H72.0453V166.928ZM72.0453 167.856V169.456H80.0133V167.856H72.0453ZM95.2812 158.384V157.92H85.8412V156.88H96.4172V158.128C96.4172 160.208 96.0652 163.024 95.6012 165.552L94.4812 165.344C94.9452 162.864 95.2812 160 95.2812 158.384ZM90.7692 161.904V168.16H98.1132V169.216H84.2892V168.16H89.6332V161.904H90.7692ZM115 161.408H117.448V162.464H115V170.4H113.864V155.632H115V161.408ZM108.12 157.936V158.784C108.12 159.968 107.976 161.072 107.688 162.128L112.056 167.424L111.176 168.192L107.256 163.408C106.552 165.136 105.448 166.736 103.944 168.352L103.112 167.584C105.544 164.96 107 162.432 107 158.784V157.936H103.688V156.896H111.464V157.936H108.12ZM126.492 162.848H124.396C121.756 162.848 120.124 161.536 120.124 159.504C120.124 157.504 121.756 156.192 124.396 156.192H126.492C129.116 156.192 130.78 157.504 130.78 159.504C130.78 161.536 129.116 162.848 126.492 162.848ZM126.3 157.216H124.572C122.46 157.216 121.26 158.144 121.26 159.504C121.26 160.896 122.46 161.824 124.572 161.824H126.3C128.428 161.824 129.628 160.88 129.628 159.504C129.628 158.144 128.428 157.216 126.3 157.216ZM118.524 164.992H132.348V166.032H128.652V170.56H127.5V166.032H123.388V170.56H122.236V166.032H118.524V164.992ZM141.183 164.992V168.16H147.519V169.216H133.695V168.16H140.047V164.992H135.487V160.32H144.591V157.76H135.407V156.72H145.743V161.344H136.623V163.968H146.063V164.992H141.183ZM156.803 161.824H154.755C152.195 161.824 150.579 160.736 150.579 158.832C150.579 156.928 152.195 155.84 154.755 155.84H156.803C159.379 155.84 160.995 156.928 160.995 158.832C160.995 160.736 159.379 161.824 156.803 161.824ZM156.627 156.848H154.947C152.867 156.848 151.715 157.616 151.715 158.832C151.715 160.048 152.867 160.816 154.947 160.816H156.627C158.691 160.816 159.843 160.032 159.843 158.832C159.843 157.616 158.691 156.848 156.627 156.848ZM148.867 164.624V163.568H162.691V164.624H156.355V167.552H155.219V164.624H148.867ZM150.723 166.112H151.875V169.344H161.155V170.4H150.723V166.112ZM178.682 155.92H179.834V162.208H169.866V155.92H171.002V158.096H178.682V155.92ZM171.002 159.104V161.216H178.682V159.104H171.002ZM167.93 165.008V163.952H181.754V165.008H175.418V167.552H174.282V165.008H167.93ZM169.786 166.416H170.938V169.344H180.218V170.4H169.786V166.416ZM194.43 170.4V155.648H195.566V170.4H194.43ZM187.95 163.056C185.806 163.056 184.078 161.984 184.078 159.808V159.536C184.078 157.344 185.806 156.272 187.95 156.272C190.078 156.272 191.806 157.344 191.806 159.536V159.808C191.806 161.984 190.078 163.056 187.95 163.056ZM185.23 159.552V159.792C185.23 161.248 186.366 162.048 187.95 162.048C189.518 162.048 190.654 161.248 190.654 159.792V159.552C190.654 158.08 189.518 157.296 187.95 157.296C186.366 157.296 185.23 158.08 185.23 159.552ZM193.022 164.48L193.15 165.504C191.758 165.696 190.094 165.84 188.51 165.92C188.398 167.392 188.238 168.912 188.046 170.528L186.926 170.4C187.102 168.848 187.262 167.392 187.358 165.968C186.83 165.984 186.334 166 185.854 166H183.294L183.23 164.944H185.918C187.742 164.944 190.702 164.768 193.022 164.48ZM209.618 170.4V155.632H210.754V170.4H209.618ZM205.106 157.936H199.282V156.896H206.258V158.032C206.258 162.208 203.762 165.856 199.73 168.528L199.058 167.632C202.802 165.2 205.106 161.712 205.106 158.256V157.936ZM225.909 170.4H224.773V155.632H225.909V170.4ZM218.293 164.416C216.149 164.416 214.421 163.184 214.421 160.592V160.256C214.421 157.664 216.149 156.432 218.293 156.432C220.405 156.432 222.149 157.664 222.149 160.256V160.592C222.149 163.184 220.405 164.416 218.293 164.416ZM218.293 163.36C219.845 163.36 220.997 162.416 220.997 160.576V160.272C220.997 158.416 219.845 157.472 218.293 157.472C216.725 157.472 215.573 158.416 215.573 160.272V160.576C215.573 162.416 216.725 163.36 218.293 163.36ZM216.197 167.968H213.637L213.573 166.912H216.261C218.085 166.912 221.045 166.736 223.365 166.448L223.493 167.456C221.269 167.776 218.373 167.968 216.197 167.968ZM243.82 161.28L242.716 161.12C243.036 159.584 243.196 157.952 243.196 157.2H234.364V156.16H244.332V156.928C244.332 158.096 244.156 159.712 243.82 161.28ZM239.452 159.184V162.24H246.332V163.264H232.508V162.24H238.316V159.184H239.452ZM237.836 164.992H241.004C243.436 164.992 244.716 166.208 244.716 167.776C244.716 169.36 243.436 170.56 241.004 170.56H237.836C235.42 170.56 234.14 169.36 234.14 167.776C234.14 166.208 235.42 164.992 237.836 164.992ZM238.108 169.552H240.732C242.636 169.552 243.564 168.832 243.564 167.76C243.564 166.736 242.636 166 240.732 166H238.108C236.204 166 235.276 166.736 235.276 167.76C235.276 168.832 236.204 169.552 238.108 169.552ZM259.344 155.632V159.552H261.792V160.608H259.344V166.848H258.192V155.632H259.344ZM255.056 156.592V157.376C255.056 160.608 252.544 163.024 248.496 164.64L248 163.664C251.632 162.224 253.92 159.984 253.92 157.632H248.256V156.592H255.056ZM250.144 165.68H251.296V169.344H260.176V170.4H250.144V165.68ZM270.804 160.528H268.724C266.18 160.528 264.564 159.808 264.564 158.128C264.564 156.464 266.18 155.76 268.724 155.76H270.804C273.364 155.76 274.98 156.464 274.98 158.128C274.98 159.808 273.364 160.528 270.804 160.528ZM268.916 159.552H270.628C272.708 159.552 273.828 159.072 273.828 158.128C273.828 157.184 272.708 156.736 270.628 156.736H268.916C266.836 156.736 265.7 157.184 265.7 158.128C265.7 159.104 266.836 159.552 268.916 159.552ZM276.676 162.768H262.852V161.792H276.676V162.768ZM275.3 170.48H264.644V166.832H273.748V165.168H264.564V164.208H274.9V167.792H265.78V169.504H275.3V170.48ZM293.45 170.4V155.632H294.57V170.4H293.45ZM287.658 161.264H290.266V155.872H291.37V170.128H290.266V162.304H287.658V161.264ZM285.978 157.936V158.912C285.978 160.08 285.866 161.184 285.626 162.224L289.162 167.52L288.25 168.176L285.226 163.648C284.666 165.264 283.802 166.8 282.634 168.352L281.754 167.648C283.77 165.008 284.89 162.464 284.89 158.912V157.936H282.266V156.896H288.65V157.936H285.978ZM308.398 161.28L307.294 161.12C307.614 159.584 307.774 157.952 307.774 157.2H298.942V156.16H308.91V156.928C308.91 158.096 308.734 159.712 308.398 161.28ZM304.03 159.184V162.24H310.91V163.264H297.086V162.24H302.894V159.184H304.03ZM302.414 164.992H305.582C308.014 164.992 309.294 166.208 309.294 167.776C309.294 169.36 308.014 170.56 305.582 170.56H302.414C299.998 170.56 298.718 169.36 298.718 167.776C298.718 166.208 299.998 164.992 302.414 164.992ZM302.686 169.552H305.31C307.214 169.552 308.142 168.832 308.142 167.76C308.142 166.736 307.214 166 305.31 166H302.686C300.782 166 299.854 166.736 299.854 167.76C299.854 168.832 300.782 169.552 302.686 169.552ZM317.186 157.104H320.898V158.08H312.338V157.104H316.05V155.44H317.186V157.104ZM323.906 159.248H326.37V160.288H323.906V163.808H322.77V155.632H323.906V159.248ZM320.21 161.28V161.488C320.21 163.024 318.642 163.856 316.642 163.856C314.642 163.856 313.058 163.024 313.058 161.488V161.28C313.058 159.76 314.642 158.928 316.642 158.928C318.642 158.928 320.21 159.76 320.21 161.28ZM314.194 161.312V161.472C314.194 162.336 315.266 162.88 316.642 162.88C318.002 162.88 319.09 162.336 319.09 161.472V161.312C319.09 160.464 318.002 159.904 316.642 159.904C315.266 159.904 314.194 160.464 314.194 161.312ZM315.874 166.448H322.77V164.688H323.906V170.384H314.722V164.688H315.874V166.448ZM315.874 167.472V169.376H322.77V167.472H315.874ZM339.91 170.4H338.774V155.632H339.91V170.4ZM330.726 167.936H328.47V156.816H329.606V166.896H330.934C332.726 166.896 335.094 166.688 337.014 166.384L337.142 167.392C335.366 167.712 332.902 167.936 330.726 167.936ZM354.266 161.408H356.714V162.464H354.266V170.4H353.114V155.632H354.266V161.408ZM344.186 166.896H345.53C347.29 166.896 349.562 166.688 351.434 166.416L351.562 167.424C349.818 167.728 347.466 167.936 345.338 167.936H343.034V156.816H349.978V157.872H344.186V166.896ZM358.99 169.792C358.494 169.792 358.11 169.392 358.11 168.896C358.11 168.4 358.494 168.016 358.99 168.016C359.486 168.016 359.886 168.4 359.886 168.896C359.886 169.392 359.486 169.792 358.99 169.792Z" fill="black"/>
<path d="M478.718 162.408H481.166V163.464H478.718V171.4H477.582V156.632H478.718V162.408ZM471.838 158.936V159.784C471.838 160.968 471.694 162.072 471.406 163.128L475.774 168.424L474.894 169.192L470.974 164.408C470.27 166.136 469.166 167.736 467.662 169.352L466.83 168.584C469.262 165.96 470.718 163.432 470.718 159.784V158.936H467.406V157.896H475.182V158.936H471.838ZM493.586 162.952H490.242C489.682 164.456 488.306 165.192 486.722 165.192C484.594 165.192 482.882 163.944 482.882 161.336V161C482.882 158.376 484.594 157.112 486.722 157.112C488.13 157.112 489.378 157.688 490.034 158.888H493.586V156.632H494.738V167.848H493.586V162.952ZM484.034 161V161.32C484.034 163.208 485.17 164.168 486.722 164.168C488.242 164.168 489.378 163.208 489.378 161.32V161C489.378 159.112 488.242 158.136 486.722 158.136C485.17 158.136 484.034 159.112 484.034 161ZM493.586 161.992V159.88H490.402C490.466 160.216 490.514 160.6 490.514 161V161.336C490.514 161.56 490.498 161.784 490.482 161.992H493.586ZM486.386 166.68V170.344H495.426V171.4H485.234V166.68H486.386ZM509.206 162.568H511.51V163.608H509.206V171.4H508.07V156.632H509.206V162.568ZM504.262 159.304V158.936H498.214V157.896H505.414V159.016C505.414 161.016 505.11 163.48 504.662 165.784L503.542 165.592C503.99 163.304 504.262 160.808 504.262 159.304ZM501.51 162.408V167.88C503.126 167.816 505.062 167.672 506.662 167.464L506.79 168.472C504.63 168.776 501.782 168.968 499.67 168.968H497.238L497.19 167.912H499.734H500.358V162.408H501.51ZM528.141 162.408H530.589V163.464H528.141V171.4H526.989V156.632H528.141V162.408ZM522.717 158.936H517.053V157.896H523.853V159.032C523.853 163.208 521.421 166.84 517.501 169.528L516.813 168.632C520.461 166.184 522.717 162.712 522.717 159.256V158.936ZM543.393 162.408H545.841V163.464H543.393V171.4H542.273V156.632H543.393V162.408ZM534.545 158.936H532.161V157.896H535.665V159.032C535.665 162.408 534.657 165.832 532.785 169.32L531.825 168.76C533.617 165.448 534.545 162.008 534.545 159.256V158.936ZM538.833 158.936H536.497V157.896H539.953V159.032C539.953 162.52 538.977 166.44 537.073 169.928L536.129 169.368C537.937 166.056 538.833 162.136 538.833 159.256V158.936ZM554.756 162.824H552.708C550.148 162.824 548.532 161.736 548.532 159.832C548.532 157.928 550.148 156.84 552.708 156.84H554.756C557.332 156.84 558.948 157.928 558.948 159.832C558.948 161.736 557.332 162.824 554.756 162.824ZM554.58 157.848H552.9C550.82 157.848 549.668 158.616 549.668 159.832C549.668 161.048 550.82 161.816 552.9 161.816H554.58C556.644 161.816 557.796 161.032 557.796 159.832C557.796 158.616 556.644 157.848 554.58 157.848ZM546.82 165.624V164.568H560.644V165.624H554.308V168.552H553.172V165.624H546.82ZM548.676 167.112H549.828V170.344H559.108V171.4H548.676V167.112ZM577.195 171.4V156.632H578.347V171.4H577.195ZM571.099 157.544V159.384C571.099 160.664 570.939 161.88 570.619 163.032L575.211 168.44L574.363 169.192L570.203 164.28C569.483 166.072 568.315 167.736 566.683 169.352L565.883 168.568C568.603 165.896 569.979 163.112 569.979 159.384V157.544H571.099ZM592.719 156.632V160.552H595.167V161.608H592.719V167.848H591.567V156.632H592.719ZM588.431 157.592V158.376C588.431 161.608 585.919 164.024 581.871 165.64L581.375 164.664C585.007 163.224 587.295 160.984 587.295 158.632H581.631V157.592H588.431ZM583.519 166.68H584.671V170.344H593.551V171.4H583.519V166.68ZM607.811 156.632H608.915V167.848H607.811V156.632ZM604.691 161.448H602.707C602.675 163.96 601.347 165.192 599.635 165.192C597.859 165.192 596.531 163.928 596.531 161.336V161C596.531 158.376 597.859 157.112 599.635 157.112C601.235 157.112 602.499 158.184 602.675 160.408H604.691V156.792H605.779V167.368H604.691V161.448ZM597.603 161.016V161.32C597.603 163.176 598.467 164.168 599.635 164.168C600.771 164.168 601.619 163.176 601.619 161.32V161.016C601.619 159.128 600.771 158.136 599.635 158.136C598.467 158.136 597.603 159.128 597.603 161.016ZM600.355 166.904V170.344H609.603V171.4H599.219V166.904H600.355ZM626.937 162.408H629.385V163.464H626.937V171.4H625.801V156.632H626.937V162.408ZM620.057 158.936V159.784C620.057 160.968 619.913 162.072 619.625 163.128L623.993 168.424L623.113 169.192L619.193 164.408C618.489 166.136 617.385 167.736 615.881 169.352L615.049 168.584C617.481 165.96 618.937 163.432 618.937 159.784V158.936H615.625V157.896H623.401V158.936H620.057ZM641.805 156.632H642.941V167.848H641.805V156.632ZM639.309 165.176L634.957 161.896C634.205 163.224 632.973 164.392 631.245 165.48L630.637 164.584C633.325 162.84 634.717 160.936 634.717 158.392V157.24H635.853V158.392C635.853 159.288 635.709 160.104 635.421 160.888L639.949 164.296L639.309 165.176ZM634.589 166.904V170.344H643.629V171.4H633.453V166.904H634.589ZM658.097 171.4H656.961V156.632H658.097V171.4ZM650.481 165.416C648.337 165.416 646.609 164.184 646.609 161.592V161.256C646.609 158.664 648.337 157.432 650.481 157.432C652.593 157.432 654.337 158.664 654.337 161.256V161.592C654.337 164.184 652.593 165.416 650.481 165.416ZM650.481 164.36C652.033 164.36 653.185 163.416 653.185 161.576V161.272C653.185 159.416 652.033 158.472 650.481 158.472C648.913 158.472 647.761 159.416 647.761 161.272V161.576C647.761 163.416 648.913 164.36 650.481 164.36ZM648.385 168.968H645.825L645.761 167.912H648.449C650.273 167.912 653.233 167.736 655.553 167.448L655.681 168.456C653.457 168.776 650.561 168.968 648.385 168.968ZM677.175 163.864H676.039V156.632H677.175V163.864ZM669.191 163.432C667.047 163.432 665.335 162.392 665.335 160.328V160.072C665.335 157.992 667.047 156.968 669.191 156.968C671.303 156.968 673.015 157.992 673.015 160.072V160.328C673.015 162.392 671.303 163.432 669.191 163.432ZM669.191 162.392C670.743 162.392 671.879 161.672 671.879 160.296V160.088C671.879 158.744 670.743 157.992 669.191 157.992C667.607 157.992 666.487 158.744 666.487 160.088V160.296C666.487 161.672 667.607 162.392 669.191 162.392ZM677.799 171.48H667.687V167.656H676.039V165.896H667.623V164.92H677.175V168.648H668.839V170.472H677.799V171.48ZM691.659 162.568H693.963V163.608H691.659V171.4H690.523V156.632H691.659V162.568ZM686.715 159.304V158.936H680.667V157.896H687.867V159.016C687.867 161.016 687.563 163.48 687.115 165.784L685.995 165.592C686.443 163.304 686.715 160.808 686.715 159.304ZM683.963 162.408V167.88C685.579 167.816 687.515 167.672 689.115 167.464L689.243 168.472C687.083 168.776 684.235 168.968 682.123 168.968H679.691L679.643 167.912H682.187H682.811V162.408H683.963ZM710.578 159.624H713.026V160.68H710.578V163.864H709.426V156.632H710.578V159.624ZM707.074 163.624L702.834 161C702.098 162.12 700.882 163.08 699.186 163.944L698.658 163C701.218 161.64 702.61 160.104 702.61 157.992V157.144H703.73V157.992C703.73 158.728 703.602 159.416 703.346 160.04L707.666 162.712L707.074 163.624ZM701.618 170.488H701.954C702.77 170.488 704.338 170.392 705.218 170.28L705.314 171.256C704.274 171.384 702.658 171.48 701.442 171.48H700.53V167.688H703.89V165.88H700.45V164.92H704.994V168.648H701.618V170.488ZM710.578 171.48H705.906V164.92H710.578V171.48ZM709.522 165.912H706.946V170.456H709.522V165.912ZM722.054 161.528H719.974C717.43 161.528 715.814 160.808 715.814 159.128C715.814 157.464 717.43 156.76 719.974 156.76H722.054C724.614 156.76 726.23 157.464 726.23 159.128C726.23 160.808 724.614 161.528 722.054 161.528ZM720.166 160.552H721.878C723.958 160.552 725.078 160.072 725.078 159.128C725.078 158.184 723.958 157.736 721.878 157.736H720.166C718.086 157.736 716.95 158.184 716.95 159.128C716.95 160.104 718.086 160.552 720.166 160.552ZM727.926 163.768H714.102V162.792H727.926V163.768ZM726.55 171.48H715.894V167.832H724.998V166.168H715.814V165.208H726.15V168.792H717.03V170.504H726.55V171.48ZM511.07 186.408H513.518V187.464H511.07V195.4H509.918V180.632H511.07V186.408ZM500.99 191.896H502.334C504.094 191.896 506.366 191.688 508.238 191.416L508.366 192.424C506.622 192.728 504.27 192.936 502.142 192.936H499.838V181.816H506.782V182.872H500.99V191.896ZM526.786 187.656H516.514V183.832H525.33V181.992H516.434V181H526.482V184.792H517.65V186.648H526.786V187.656ZM528.402 190.456H514.578V189.432H528.402V190.456ZM526.866 195.4H516.514V191.704H517.65V194.36H526.866V195.4ZM541.062 195.4V180.632H542.214V195.4H541.062ZM534.966 181.544V183.384C534.966 184.664 534.806 185.88 534.486 187.032L539.078 192.44L538.23 193.192L534.07 188.28C533.35 190.072 532.182 191.736 530.55 193.352L529.75 192.568C532.47 189.896 533.846 187.112 533.846 183.384V181.544H534.966ZM556.586 184.088H559.034V185.144H556.586V188.952H555.434V180.648H556.586V184.088ZM552.298 181.512V182.248C552.298 185.288 549.77 187.464 545.69 188.856L545.242 187.896C548.81 186.664 551.098 184.696 551.162 182.568H545.498V181.512H552.298ZM555.434 191.032H547.226V189.992H556.586V195.544H555.434V191.032ZM568.046 189.688H565.966C563.262 189.688 561.598 187.864 561.598 185.576C561.598 183.288 563.262 181.48 565.966 181.48H568.046C570.75 181.48 572.43 183.288 572.43 185.576C572.43 187.864 570.75 189.688 568.046 189.688ZM566.142 188.632H567.87C570.03 188.632 571.278 187.304 571.278 185.576C571.278 183.848 570.03 182.536 567.87 182.536H566.142C563.982 182.536 562.734 183.848 562.734 185.576C562.734 187.304 563.982 188.632 566.142 188.632ZM573.918 194.2H560.094V193.16H573.918V194.2ZM582.754 189.992V193.16H589.09V194.216H575.266V193.16H581.618V189.992H577.058V185.32H586.162V182.76H576.978V181.72H587.314V186.344H578.194V188.968H587.634V189.992H582.754ZM601.816 185.768V187.176H608.152V188.152H594.328V187.176H600.68V185.768H596.264V180.84H597.4V182.344H605.08V180.84H606.232V185.768H601.816ZM605.08 183.304H597.4V184.808H605.08V183.304ZM606.376 192.872H597.256V194.504H606.776V195.48H596.12V191.912H605.224V190.328H596.04V189.368H606.376V192.872ZM625.663 188.04L619.951 184.728C619.007 185.96 617.327 187.048 614.847 188.04L614.383 187.032C618.031 185.592 619.807 183.896 619.807 181.928V180.952H620.943V181.928C620.943 182.568 620.815 183.192 620.543 183.784L626.207 187.064L625.663 188.04ZM613.391 189.864H627.215V190.92H620.879V195.56H619.743V190.92H613.391V189.864ZM643.813 180.648H644.949V188.712H643.813V180.648ZM636.965 188.04C634.821 188.04 633.109 186.936 633.109 184.696V184.392C633.109 182.152 634.821 181.048 636.965 181.048C639.077 181.048 640.789 182.152 640.789 184.392V184.696C640.789 186.936 639.077 188.04 636.965 188.04ZM634.261 184.424V184.664C634.261 186.2 635.397 187.016 636.965 187.016C638.501 187.016 639.637 186.2 639.637 184.664V184.424C639.637 182.888 638.501 182.072 636.965 182.072C635.397 182.072 634.261 182.888 634.261 184.424ZM643.093 192.056L646.245 194.712L645.557 195.544L642.629 193.032C642.117 193.864 641.285 194.728 640.005 195.544L637.093 193.032C636.581 193.864 635.749 194.728 634.469 195.544L633.845 194.68C636.165 193.144 636.741 191.656 636.741 190.456V189.688H637.861V190.456C637.861 190.936 637.781 191.48 637.573 192.056L640.069 194.184C641.829 192.824 642.261 191.528 642.261 190.456V189.688H643.381V190.456C643.381 190.952 643.301 191.496 643.093 192.056ZM659.753 186.28L654.121 183.928C653.161 184.872 651.545 185.656 649.209 186.28L648.873 185.272C652.297 184.344 654.057 183.032 654.057 181.528V180.84H655.177V181.528C655.177 182.072 655.049 182.568 654.793 183.032L660.201 185.304L659.753 186.28ZM647.625 188.392V187.4H661.449V188.392H647.625ZM650.553 191.56H658.521V189.832H659.673V195.4H649.417V189.832H650.553V191.56ZM650.553 192.536V194.424H658.521V192.536H650.553ZM675.277 195.4H674.141V180.632H675.277V195.4ZM666.093 192.936H663.837V181.816H664.973V191.896H666.301C668.093 191.896 670.461 191.688 672.381 191.384L672.509 192.392C670.733 192.712 668.269 192.936 666.093 192.936ZM689.633 186.408H692.081V187.464H689.633V195.4H688.481V180.632H689.633V186.408ZM679.553 191.896H680.897C682.657 191.896 684.929 191.688 686.801 191.416L686.929 192.424C685.185 192.728 682.833 192.936 680.705 192.936H678.401V181.816H685.345V182.872H679.553V191.896ZM694.357 194.792C693.861 194.792 693.477 194.392 693.477 193.896C693.477 193.4 693.861 193.016 694.357 193.016C694.853 193.016 695.253 193.4 695.253 193.896C695.253 194.392 694.853 194.792 694.357 194.792Z" fill="black"/>
<path d="M553.029 117.241L558.411 101.601H561.516L554.984 120.369H551.074L544.519 101.601H547.624L553.029 117.241ZM567.747 106.293C570.944 106.293 573.382 108.248 573.382 111.606V120.369H570.668L570.53 118.621C569.794 119.932 568.46 120.714 566.712 120.714H565.838C563.354 120.714 561.468 118.897 561.468 116.298C561.468 113.86 563.239 112.066 566.574 112.066H570.461V111.721C570.461 110.157 569.518 108.984 567.54 108.984C566.183 108.984 565.217 109.605 564.619 110.686L561.974 109.559C563.009 107.673 565.148 106.293 567.747 106.293ZM566.459 118H567.31C568.828 118 570.254 117.149 570.461 115.654V114.596H566.666C565.171 114.596 564.389 115.263 564.389 116.298C564.389 117.356 565.217 118 566.459 118ZM582.262 120.714C578.835 120.714 575.868 118.552 575.868 114.366V112.618C575.868 108.432 578.835 106.293 582.262 106.293C584.884 106.293 587.299 107.627 588.196 110.272L585.413 111.307C584.861 109.72 583.711 108.984 582.262 108.984C580.422 108.984 578.835 110.203 578.835 112.71V114.274C578.835 116.781 580.422 118.023 582.262 118.023C583.711 118.023 584.861 117.287 585.413 115.7L588.196 116.712C587.299 119.357 584.884 120.714 582.262 120.714ZM596.25 106.293C599.447 106.293 601.885 108.248 601.885 111.606V120.369H599.171L599.033 118.621C598.297 119.932 596.963 120.714 595.215 120.714H594.341C591.857 120.714 589.971 118.897 589.971 116.298C589.971 113.86 591.742 112.066 595.077 112.066H598.964V111.721C598.964 110.157 598.021 108.984 596.043 108.984C594.686 108.984 593.72 109.605 593.122 110.686L590.477 109.559C591.512 107.673 593.651 106.293 596.25 106.293ZM594.962 118H595.813C597.331 118 598.757 117.149 598.964 115.654V114.596H595.169C593.674 114.596 592.892 115.263 592.892 116.298C592.892 117.356 593.72 118 594.962 118ZM612.059 117.586L612.726 120.07C611.898 120.507 610.725 120.714 609.736 120.714C607.344 120.714 605.826 119.449 605.826 116.942V109.329H603.549V106.638H605.826V102.981H608.77V106.638H612.151V109.329H608.77V116.505C608.77 117.701 609.299 118.023 610.173 118.023C610.886 118.023 611.438 117.839 612.059 117.586ZM616.554 104.315C615.588 104.315 614.806 103.556 614.806 102.567C614.806 101.601 615.588 100.819 616.554 100.819C617.52 100.819 618.302 101.601 618.302 102.567C618.302 103.556 617.52 104.315 616.554 104.315ZM618.049 120.369H615.082V106.638H618.049V120.369ZM627.184 120.714C623.757 120.714 620.79 118.552 620.79 114.343V112.618C620.79 108.432 623.757 106.293 627.184 106.293C630.611 106.293 633.601 108.432 633.601 112.618V114.343C633.601 118.552 630.611 120.714 627.184 120.714ZM627.184 118.023C629.024 118.023 630.634 116.781 630.634 114.274V112.71C630.634 110.203 629.024 108.984 627.184 108.984C625.344 108.984 623.757 110.203 623.757 112.71V114.274C623.757 116.781 625.344 118.023 627.184 118.023ZM643.382 106.293C646.257 106.293 648.557 108.501 648.557 112.066V120.369H645.59V112.204C645.59 109.881 644.325 108.984 642.554 108.984C640.829 108.984 639.403 110.134 639.403 112.02V120.369H636.436V106.638H639.196L639.334 108.386C640.139 107.121 641.565 106.293 643.382 106.293Z" fill="black"/>
<path d="M402 86.4944L389.505 73.9998" stroke="black" stroke-width="3" stroke-linecap="round"/>
<path d="M389.505 86.4944L402 73.9998" stroke="black" stroke-width="3" stroke-linecap="round"/>
<circle cx="808.456" cy="80.4558" r="18" transform="rotate(45 808.456 80.4558)" fill="#02FF99"/>
<path d="M814 86.4944L801.505 73.9998" stroke="black" stroke-width="3" stroke-linecap="round"/>
<path d="M801.505 86.4944L814 73.9998" stroke="black" stroke-width="3" stroke-linecap="round"/>
<path d="M1008.17 42.2024C1006.21 42.0986 1004.28 41.7123 1002.32 41.5814C1000.26 41.4453 998.203 41.526 996.181 42.0413" stroke="black" stroke-width="3" stroke-linecap="round" stroke-linejoin="round"/>
<path d="M1007.47 46.4699C1005.09 46.19 1002.73 45.6702 1000.32 45.723C998.723 45.7558 997.141 45.874 995.569 46.1241C994.99 46.217 994.634 46.4873 994.718 47.1354" stroke="black" stroke-width="3" stroke-linecap="round" stroke-linejoin="round"/>
<path d="M985.829 44.3196C985.213 44.9002 984.515 44.9567 983.68 44.8757C981.648 44.6779 979.786 43.9943 977.937 43.1985C976.847 42.7305 975.719 42.7696 974.594 43.138C974.034 43.3242 973.543 43.5385 973.557 44.2438" stroke="black" stroke-width="3" stroke-linecap="round" stroke-linejoin="round"/>
<path d="M981.574 49.6554C979.577 48.3462 977.333 47.8395 975.005 47.5021C973.396 47.2674 971.799 47.0639 970.172 47.0846" stroke="black" stroke-width="3" stroke-linecap="round" stroke-linejoin="round"/>
<path d="M988.575 40.6371C987.681 40.2881 986.725 40.252 985.793 40.1465C984.543 40.0057 983.393 39.688 982.262 39.0878C980.042 37.9112 977.75 37.8223 975.486 39.0665" stroke="black" stroke-width="3" stroke-linecap="round" stroke-linejoin="round"/>
<path d="M993.71 39.1256C993.493 40.5871 992.798 41.8641 992.057 43.09C990.939 44.9501 990.195 47.0051 989.016 48.8218C987.465 51.2107 986.722 53.998 985.214 56.4068C985.079 56.622 985.137 56.956 985.094 57.2343C985.048 57.5475 985.24 57.9646 984.711 58.0699C984.28 58.1571 983.976 57.9748 983.69 57.6842C982.86 56.8324 981.949 56.0724 981.029 55.3162C977.714 52.5984 973.787 51.6119 969.643 51.2695C966.876 51.0425 964.148 51.3468 961.447 51.973C961.039 52.0682 960.57 52.0581 960.15 51.8781" stroke="black" stroke-width="3" stroke-linecap="round" stroke-linejoin="round"/>
<path d="M958.75 52.8821C958.681 53.9659 959.421 54.8243 959.585 55.861C959.657 56.323 960.272 56.3584 960.749 56.3493C962.826 56.3074 964.903 56.3005 966.98 56.2393C969.67 56.1592 972.258 56.7364 974.878 57.2404C978.101 57.861 980.719 59.3838 982.895 61.7648C983.246 62.1492 983.566 62.2542 984.11 62.1801C984.867 62.0741 985.67 62.2708 986.426 62.2306C987.325 62.1807 987.788 61.2106 988.576 60.7951C991.132 59.454 993.829 58.8472 996.703 58.8703C999.802 58.8964 1002.9 58.7211 1006 58.817C1007.98 58.8784 1009.91 59.1446 1011.76 59.8978C1012.21 60.0821 1012.72 60.2246 1013.33 60.2173C1013.67 59.8848 1014.1 59.5302 1014.43 59.0969C1014.5 59.0049 1014.86 58.781 1014.57 58.4595C1014.04 57.8519 1014.45 57.16 1014.51 56.5138C1014.8 53.5732 1014.23 50.7607 1013.2 48.0387C1012.24 45.492 1011.36 42.9271 1010.73 40.2802C1010.58 39.6738 1010.29 39.1276 1010.16 38.5137C1010.04 37.9542 1009.54 37.6996 1008.99 37.5565C1005.32 36.6084 1001.64 36.4891 997.927 37.2296C996.747 37.4656 995.641 37.8885 994.659 38.5843C994.076 38.9949 993.71 39.1566 993.044 38.4968C991.247 36.7253 988.987 35.6528 986.616 34.8499C983.372 33.7487 980.023 33.8974 976.68 34.1624C976.144 34.2056 975.688 34.4629 975.26 34.86C973.259 36.7277 971.591 38.8942 969.824 40.9587C967.632 43.5134 965.103 45.7265 962.815 48.183C961.793 49.285 960.595 50.2143 960.132 51.7694C959.978 52.2864 959.194 52.3999 958.763 52.7854C958.411 52.7613 958.214 52.3673 957.838 52.401" stroke="black" stroke-width="3" stroke-linecap="round" stroke-linejoin="round"/>
<path d="M1007.69 50.1924C1005.89 50.1952 1004.11 49.7801 1002.31 49.8488C999.597 49.948 996.869 49.9617 994.215 50.5962C993.721 50.7136 992.971 50.6028 992.801 51.387" stroke="black" stroke-width="3" stroke-linecap="round" stroke-linejoin="round"/>
<path d="M1014.1 57.624C1012.56 57.1384 1011.04 56.5485 1009.47 56.1864C1005.9 55.3675 1002.27 55.0824 998.607 55.2617C995.285 55.4224 992.027 55.9288 988.823 56.8155C987.999 57.0446 987.167 57.2504 986.399 57.6275C986.005 57.8198 985.609 57.8687 985.184 57.7933" stroke="black" stroke-width="3" stroke-linecap="round" stroke-linejoin="round"/>
<path d="M190.561 35.9763C192.783 35.4815 195.057 35.3252 197.312 35.0713C198.788 34.902 200.239 34.6221 201.69 34.3682C202.893 34.1533 203.513 33.2353 203.598 31.9137C203.834 28.1571 203.709 24.407 203.422 20.6634C203.304 19.1139 201.69 17.5188 199.971 17.2258C197.41 16.7831 194.828 17.0956 192.293 17.2844C188.829 17.5383 185.385 18.1633 181.934 18.6386C180.667 18.8144 179.418 19.1725 178.183 19.4785C176.661 19.8561 176.497 21.4837 176.497 22.7012C176.504 25.8263 176.131 28.9514 176.432 32.0764C176.602 33.8538 178.105 35.3838 179.889 35.6898C182.862 36.2041 185.849 35.9567 188.829 35.9958C189.352 35.9958 189.901 35.807 190.397 36.139" stroke="black" stroke-width="3" stroke-linecap="round" stroke-linejoin="round"/>
<path d="M175.661 67.6959C175.328 65.0461 175.615 62.3833 175.497 59.7269C175.367 56.706 174.916 53.7047 175.014 50.6642C175.053 49.4728 175.229 48.2944 175.086 47.0639C174.87 45.2604 176.667 43.789 179.111 43.4765C182.836 43.0078 186.542 42.3632 190.26 41.8424C192.227 41.5689 194.319 41.8684 196.364 41.7968C198.606 41.7187 200.847 40.8528 203.108 41.6796C205.768 40.1952 208.898 41.7057 211.578 40.358C212.061 40.1106 212.525 40.4426 212.983 40.5207C214.584 40.8007 216.166 40.7095 217.688 40.1822C219.087 39.6939 222.021 40.8593 222.55 42.2265C223.903 45.7487 224.805 49.3686 224.916 53.1643C225.034 57.0185 225.23 60.8728 225.374 64.7271C225.4 65.4172 225.465 66.1268 225.066 66.7584" stroke="black" stroke-width="3" stroke-linecap="round" stroke-linejoin="round"/>
<path d="M202.324 47.5393C197.488 47.4937 192.698 48.0471 187.888 48.4117C183.784 48.7242 179.634 48.4768 175.504 48.4768" stroke="black" stroke-width="3" stroke-linecap="round" stroke-linejoin="round"/>
<path d="M190.404 36.2888C190.456 38.0597 190.509 39.8306 190.561 41.6015" stroke="black" stroke-width="3" stroke-linecap="round" stroke-linejoin="round"/>
<path d="M215.969 59.5708C213.93 59.7791 211.891 59.9875 209.853 60.1958" stroke="black" stroke-width="3" stroke-linecap="round" stroke-linejoin="round"/>
<path d="M203.108 41.7578C202.912 43.6849 202.938 45.6186 202.677 47.5653C202.429 49.4403 202.579 51.6148 202.945 53.6331C203.357 55.9053 203.03 58.2166 203.363 60.5148C203.631 62.3508 204.448 64.0631 204.422 65.9772C204.409 66.7129 205.154 67.2663 206.088 67.2337C209.33 67.123 212.571 67.2988 215.813 67.11C218.152 66.9733 220.524 67.0905 222.864 67.2663C223.844 67.3379 224.72 66.5501 225.687 67.0709" stroke="black" stroke-width="3" stroke-linecap="round" stroke-linejoin="round"/>
<path d="M219.263 36.1326C220.113 36.2432 220.995 36.1651 221.76 35.9307C222.746 35.6247 223.805 35.1885 223.825 33.7888C223.844 32.376 223.165 30.9697 221.76 30.54C218.708 29.609 215.571 29.1272 212.362 29.4202C211.414 29.5048 211.212 30.1819 211.264 30.9762C211.414 33.1637 211.486 35.3643 211.774 37.5323C211.892 38.4178 211.682 39.3358 212.048 40.1952" stroke="black" stroke-width="3" stroke-linecap="round" stroke-linejoin="round"/>
<path d="M216.44 53.0081C213.826 53.0601 211.212 53.1122 208.598 53.1643" stroke="black" stroke-width="3" stroke-linecap="round" stroke-linejoin="round"/>
<path d="M208.755 46.6016C210.898 46.4323 213.048 46.7969 215.185 46.4453" stroke="black" stroke-width="3" stroke-linecap="round" stroke-linejoin="round"/>
<path d="M219.106 30.3512C218.623 32.0049 218.178 37.6821 218.316 38.9452C218.342 39.2056 218.316 39.466 218.316 39.7264" stroke="black" stroke-width="3" stroke-linecap="round" stroke-linejoin="round"/>
<path d="M198.089 32.6624L194.724 32.8122C194.397 32.8252 194.051 32.8447 193.698 32.8577C189.424 33.0856 184.882 33.9385 180.908 32.8122C178.268 32.2783 178.745 28.3459 178.562 25.2599C178.66 24.713 178.837 24.2247 179.085 23.8015C181.32 19.9472 189.208 20.6504 194.116 20.2337C194.567 20.2012 195.011 20.1816 195.449 20.1751C196.331 20.1621 197.187 20.2077 198.011 20.3314C201.984 21.4577 200.854 25.4226 201.174 28.398C201.193 28.9188 201.206 29.2639 201.206 29.2639C201.285 31.0543 199.88 32.5843 198.083 32.6624H198.089Z" fill="black"/>
<path d="M937.693 111.997V117.747H946.962V120.369H934.726V101.601H946.732V104.223H937.693V109.375H946.295V111.997H937.693ZM958.954 108.34V101.601H961.921V120.369H959.161L959.023 118.598C957.965 119.978 956.401 120.714 954.676 120.714C951.847 120.714 949.11 118.322 949.11 114.182V112.802C949.11 108.708 951.847 106.293 954.676 106.293C956.355 106.293 957.896 107.006 958.954 108.34ZM955.527 118.023C957.413 118.023 958.954 116.758 958.954 114.113V112.894C958.954 110.249 957.413 108.984 955.527 108.984C953.618 108.984 952.077 110.249 952.077 112.894V114.113C952.077 116.758 953.618 118.023 955.527 118.023ZM974.127 114.987V106.638H977.094V120.369H974.334L974.196 118.621C973.368 119.863 971.965 120.714 970.148 120.714C967.273 120.714 964.973 118.506 964.973 114.918V106.638H967.94V114.803C967.94 117.126 969.205 118.023 970.953 118.023C972.678 118.023 974.127 116.85 974.127 114.987ZM986.32 120.714C982.893 120.714 979.926 118.552 979.926 114.366V112.618C979.926 108.432 982.893 106.293 986.32 106.293C988.942 106.293 991.357 107.627 992.254 110.272L989.471 111.307C988.919 109.72 987.769 108.984 986.32 108.984C984.48 108.984 982.893 110.203 982.893 112.71V114.274C982.893 116.781 984.48 118.023 986.32 118.023C987.769 118.023 988.919 117.287 989.471 115.7L992.254 116.712C991.357 119.357 988.942 120.714 986.32 120.714ZM1000.31 106.293C1003.51 106.293 1005.94 108.248 1005.94 111.606V120.369H1003.23L1003.09 118.621C1002.36 119.932 1001.02 120.714 999.273 120.714H998.399C995.915 120.714 994.029 118.897 994.029 116.298C994.029 113.86 995.8 112.066 999.135 112.066H1003.02V111.721C1003.02 110.157 1002.08 108.984 1000.1 108.984C998.744 108.984 997.778 109.605 997.18 110.686L994.535 109.559C995.57 107.673 997.709 106.293 1000.31 106.293ZM999.02 118H999.871C1001.39 118 1002.82 117.149 1003.02 115.654V114.596H999.227C997.732 114.596 996.95 115.263 996.95 116.298C996.95 117.356 997.778 118 999.02 118ZM1016.12 117.586L1016.78 120.07C1015.96 120.507 1014.78 120.714 1013.79 120.714C1011.4 120.714 1009.88 119.449 1009.88 116.942V109.329H1007.61V106.638H1009.88V102.981H1012.83V106.638H1016.21V109.329H1012.83V116.505C1012.83 117.701 1013.36 118.023 1014.23 118.023C1014.94 118.023 1015.5 117.839 1016.12 117.586ZM1020.61 104.315C1019.65 104.315 1018.86 103.556 1018.86 102.567C1018.86 101.601 1019.65 100.819 1020.61 100.819C1021.58 100.819 1022.36 101.601 1022.36 102.567C1022.36 103.556 1021.58 104.315 1020.61 104.315ZM1022.11 120.369H1019.14V106.638H1022.11V120.369ZM1031.24 120.714C1027.82 120.714 1024.85 118.552 1024.85 114.343V112.618C1024.85 108.432 1027.82 106.293 1031.24 106.293C1034.67 106.293 1037.66 108.432 1037.66 112.618V114.343C1037.66 118.552 1034.67 120.714 1031.24 120.714ZM1031.24 118.023C1033.08 118.023 1034.69 116.781 1034.69 114.274V112.71C1034.69 110.203 1033.08 108.984 1031.24 108.984C1029.4 108.984 1027.82 110.203 1027.82 112.71V114.274C1027.82 116.781 1029.4 118.023 1031.24 118.023ZM1047.44 106.293C1050.32 106.293 1052.62 108.501 1052.62 112.066V120.369H1049.65V112.204C1049.65 109.881 1048.38 108.984 1046.61 108.984C1044.89 108.984 1043.46 110.134 1043.46 112.02V120.369H1040.49V106.638H1043.25L1043.39 108.386C1044.2 107.121 1045.62 106.293 1047.44 106.293Z" fill="black"/>
<path d="M889.176 165.288V169.16H895.512V170.216H881.688V169.16H888.04V165.288H883.48V157.72H884.616V164.248H893.848V165.288H889.176ZM909.34 167.848H908.204V162.808H905.02V161.832H908.204V159.88H905.02V158.888H908.204V156.632H909.34V167.848ZM905.852 164.552L905.18 165.416L901.148 162.008C900.444 163.336 899.292 164.536 897.676 165.64L897.036 164.76C899.564 162.984 900.891 161.016 900.891 158.408V157.24H902.012V158.408C902.012 159.32 901.868 160.168 901.596 160.968L905.852 164.552ZM900.988 166.904V170.344H910.028V171.4H899.852V166.904H900.988ZM913.311 173.352H912.367L912.703 169.112H913.855L913.311 173.352ZM930.891 171.4V156.632H932.027V171.4H930.891ZM927.035 158.872V167.656C927.851 167.576 928.667 167.464 929.435 167.352L929.563 168.392C927.275 168.744 924.523 168.952 922.283 168.952H919.947L919.883 167.896H921.867V158.872H920.075V157.816H928.827V158.872H927.035ZM925.899 167.752V158.872H922.987V167.896C923.851 167.88 924.859 167.832 925.899 167.752ZM945.455 159.448V158.92H936.319V157.88H946.591V159.192C946.591 161.4 946.223 164.36 945.727 167L944.607 166.808C945.103 164.184 945.455 161.16 945.455 159.448ZM934.735 170.216V169.16H948.559V170.216H934.735ZM961.57 162.408H964.018V163.464H961.57V171.4H960.418V156.632H961.57V162.408ZM957.17 168.968H950.258V157.816H957.17V168.968ZM956.034 158.872H951.394V167.912H956.034V158.872ZM966.358 173.352H965.414L965.75 169.112H966.902L966.358 173.352ZM983.378 161.992C983.474 161 983.522 160.104 983.522 159.448V158.92H974.322V157.88H984.658V159.192C984.658 161.4 984.29 164.584 983.794 167.24L982.674 167.032C982.914 165.768 983.122 164.36 983.266 163.048C981.026 163.288 977.522 163.416 975.33 163.416H974.289L974.242 162.376H975.394C977.362 162.376 981.058 162.232 983.378 161.992ZM972.61 170.216V169.16H986.434V170.216H972.61ZM995.269 163.176V164.648H1001.61V165.624H987.781V164.648H994.133V163.176H989.717V159.608H998.533V157.976H989.637V157H999.685V160.568H990.853V162.216H999.989V163.176H995.269ZM999.845 171.4H989.573V167H999.845V171.4ZM998.693 167.944H990.709V170.44H998.693V167.944ZM1018.4 162.408V156.632H1019.52V171.4H1018.4V163.464H1016.11V171.128H1014.99V156.872H1016.11V162.408H1018.4ZM1011.85 158.936H1007.48V157.896H1012.99V159.032C1012.99 163.208 1011.02 166.76 1008.03 169.528L1007.21 168.696C1010.04 166.168 1011.85 162.712 1011.85 159.256V158.936ZM1033.68 156.632V159.624H1036.13V160.68H1033.68V163.944H1032.53V156.632H1033.68ZM1028.16 157.272H1029.28V163.352H1022.37V157.272H1023.49V159.256H1028.16V157.272ZM1023.49 160.264V162.344H1028.16V160.264H1023.49ZM1033.68 168.68H1025.63V170.472H1034.29V171.48H1024.48V167.704H1032.53V165.976H1024.4V164.984H1033.68V168.68ZM1048.84 162.408H1051.28V163.464H1048.84V171.4H1047.7V156.632H1048.84V162.408ZM1041.96 158.936V159.784C1041.96 160.968 1041.81 162.072 1041.52 163.128L1045.89 168.424L1045.01 169.192L1041.09 164.408C1040.39 166.136 1039.28 167.736 1037.78 169.352L1036.95 168.584C1039.38 165.96 1040.84 163.432 1040.84 159.784V158.936H1037.52V157.896H1045.3V158.936H1041.96ZM1063.74 165.288V169.16H1070.07V170.216H1056.25V169.16H1062.6V165.288H1058.04V157.72H1068.15V158.76H1059.18V164.264H1068.3V165.288H1063.74ZM1082.65 164.6H1085.25V165.656H1078.91V171.576H1077.77V165.656H1071.42V164.6H1081.5C1081.89 162.472 1082.14 160.152 1082.14 158.856V158.52H1073.01V157.464H1083.28V158.6C1083.28 160.28 1083.02 162.504 1082.65 164.6ZM1092.42 157H1102.23V157.992H1093.56V161.08H1102.39V162.088H1092.42V157ZM1104.31 164.648H1090.48V163.624H1104.31V164.648ZM1099.01 171.56H1095.78C1093.38 171.56 1092.12 170.456 1092.12 168.92C1092.12 167.416 1093.38 166.296 1095.78 166.296H1099.01C1101.43 166.296 1102.69 167.416 1102.69 168.92C1102.69 170.456 1101.43 171.56 1099.01 171.56ZM1096.04 170.552H1098.76C1100.64 170.552 1101.54 169.896 1101.54 168.92C1101.54 167.944 1100.64 167.32 1098.76 167.32H1096.04C1094.15 167.32 1093.25 167.944 1093.25 168.92C1093.25 169.896 1094.15 170.552 1096.04 170.552ZM915.761 194.552H914.593V181.688H915.761V194.552ZM923.287 194.792C920.359 194.792 917.959 192.792 917.959 189.304V186.92C917.959 183.464 920.359 181.448 923.287 181.448C925.831 181.448 927.623 182.952 928.247 185.4L927.143 185.704C926.599 183.64 925.319 182.52 923.287 182.52C920.967 182.52 919.127 184.056 919.127 187.048V189.192C919.127 192.184 920.967 193.72 923.287 193.72C925.319 193.72 926.599 192.616 927.143 190.552L928.247 190.856C927.623 193.304 925.831 194.792 923.287 194.792ZM929.074 181.688H939.25V182.744H934.738V194.552H933.586V182.744H929.074V181.688ZM955.305 183.384V182.92H945.865V181.88H956.441V183.128C956.441 185.208 956.089 188.024 955.625 190.552L954.505 190.344C954.969 187.864 955.305 185 955.305 183.384ZM952.553 187.048V193.16H958.137V194.216H944.313V193.16H947.705V187.048H948.809V193.16H951.449V187.048H952.553ZM967.437 186.232H965.373C962.812 186.232 961.197 185.32 961.197 183.528C961.197 181.752 962.812 180.84 965.373 180.84H967.437C969.997 180.84 971.613 181.752 971.613 183.528C971.613 185.32 969.997 186.232 967.437 186.232ZM967.245 181.864H965.565C963.485 181.864 962.333 182.456 962.333 183.544C962.333 184.6 963.485 185.224 965.565 185.224H967.245C969.325 185.224 970.461 184.6 970.461 183.544C970.461 182.456 969.325 181.864 967.245 181.864ZM973.309 187.816V188.824H969.485V190.76H971.533V195.56H970.381V191.8H961.277V190.76H963.341V188.824H959.485V187.816H973.309ZM964.461 190.76H968.365V188.824H964.461V190.76ZM982.608 185.528H980.528C977.984 185.528 976.368 184.808 976.368 183.128C976.368 181.464 977.984 180.76 980.528 180.76H982.608C985.168 180.76 986.784 181.464 986.784 183.128C986.784 184.808 985.168 185.528 982.608 185.528ZM980.72 184.552H982.432C984.512 184.552 985.632 184.072 985.632 183.128C985.632 182.184 984.512 181.736 982.432 181.736H980.72C978.64 181.736 977.504 182.184 977.504 183.128C977.504 184.104 978.64 184.552 980.72 184.552ZM988.48 187.768H974.656V186.792H988.48V187.768ZM987.104 195.48H976.448V191.832H985.552V190.168H976.368V189.208H986.704V192.792H977.584V194.504H987.104V195.48ZM1005.06 180.632H1006.2V191.848H1005.06V180.632ZM1002.52 189.56L998.279 186.184C997.527 187.528 996.279 188.728 994.551 189.88L993.943 188.984C996.519 187.192 997.991 185.4 997.991 182.888V182.536H994.519V181.512H1002.58V182.536H999.111V182.888C999.111 183.704 998.983 184.472 998.727 185.192L1003.16 188.664L1002.52 189.56ZM997.847 190.904V194.344H1006.89V195.4H996.711V190.904H997.847ZM1013.02 182.136H1015.95V183.096H1008.95V182.136H1011.87V180.44H1013.02V182.136ZM1020.46 185.448H1018.22V189.032H1017.13V180.792H1018.22V184.408H1020.46V180.632H1021.56V189.192H1020.46V185.448ZM1015.37 186.392V186.616C1015.37 188.184 1014.17 189.032 1012.47 189.032C1010.75 189.032 1009.55 188.184 1009.55 186.616V186.392C1009.55 184.84 1010.75 183.992 1012.47 183.992C1014.17 183.992 1015.37 184.84 1015.37 186.392ZM1010.62 186.44V186.584C1010.62 187.496 1011.35 188.056 1012.47 188.056C1013.56 188.056 1014.3 187.496 1014.3 186.584V186.44C1014.3 185.56 1013.56 184.968 1012.47 184.968C1011.35 184.968 1010.62 185.56 1010.62 186.44ZM1015.08 190.072H1018.3C1020.49 190.072 1021.77 191.24 1021.77 192.808C1021.77 194.408 1020.49 195.544 1018.3 195.544H1015.08C1012.87 195.544 1011.59 194.408 1011.59 192.808C1011.59 191.24 1012.87 190.072 1015.08 190.072ZM1015.31 194.52H1018.06C1019.8 194.52 1020.62 193.816 1020.62 192.808C1020.62 191.816 1019.8 191.112 1018.06 191.112H1015.31C1013.58 191.112 1012.75 191.816 1012.75 192.808C1012.75 193.816 1013.58 194.52 1015.31 194.52ZM1028.99 182.104H1032.7V183.08H1024.14V182.104H1027.85V180.44H1028.99V182.104ZM1035.71 184.248H1038.17V185.288H1035.71V188.808H1034.57V180.632H1035.71V184.248ZM1032.01 186.28V186.488C1032.01 188.024 1030.45 188.856 1028.45 188.856C1026.45 188.856 1024.86 188.024 1024.86 186.488V186.28C1024.86 184.76 1026.45 183.928 1028.45 183.928C1030.45 183.928 1032.01 184.76 1032.01 186.28ZM1026 186.312V186.472C1026 187.336 1027.07 187.88 1028.45 187.88C1029.81 187.88 1030.89 187.336 1030.89 186.472V186.312C1030.89 185.464 1029.81 184.904 1028.45 184.904C1027.07 184.904 1026 185.464 1026 186.312ZM1027.68 191.448H1034.57V189.688H1035.71V195.384H1026.53V189.688H1027.68V191.448ZM1027.68 192.472V194.376H1034.57V192.472H1027.68ZM1051.71 195.4H1050.58V180.632H1051.71V195.4ZM1042.53 192.936H1040.27V181.816H1041.41V191.896H1042.74C1044.53 191.896 1046.9 191.688 1048.82 191.384L1048.95 192.392C1047.17 192.712 1044.71 192.936 1042.53 192.936ZM1066.07 186.408H1068.52V187.464H1066.07V195.4H1064.92V180.632H1066.07V186.408ZM1055.99 191.896H1057.33C1059.09 191.896 1061.37 191.688 1063.24 191.416L1063.37 192.424C1061.62 192.728 1059.27 192.936 1057.14 192.936H1054.84V181.816H1061.78V182.872H1055.99V191.896ZM1070.79 194.792C1070.3 194.792 1069.91 194.392 1069.91 193.896C1069.91 193.4 1070.3 193.016 1070.79 193.016C1071.29 193.016 1071.69 193.4 1071.69 193.896C1071.69 194.392 1071.29 194.792 1070.79 194.792Z" fill="black"/>
<path d="M625.531 9.64538C626.133 8.97163 626.966 8.48117 627.863 8.42668C628.759 8.37218 629.7 8.78337 630.175 9.55621C630.533 10.1358 630.601 10.8492 630.572 11.5329C630.552 11.9688 630.499 12.4147 630.307 12.8061C629.974 13.5096 629.239 13.9703 628.48 14.0892C627.721 14.2081 626.932 14.0198 626.236 13.6879C625.8 13.4798 625.374 13.1975 625.124 12.7764C624.58 11.8648 625.031 10.7056 625.482 9.74942" stroke="black" stroke-width="3" stroke-linecap="round" stroke-linejoin="round"/>
<path d="M618 13.1406L620.281 12" stroke="black" stroke-width="3" stroke-linecap="round" stroke-linejoin="round"/>
<path d="M620 6C620.799 6.11862 621.58 6.511 622.281 7.14063" stroke="black" stroke-width="3" stroke-linecap="round" stroke-linejoin="round"/>
<path d="M628 2V3.14063" stroke="black" stroke-width="3" stroke-linecap="round" stroke-linejoin="round"/>
<path d="M633 6.14063C633.701 5.69051 634.472 5.30689 635.281 5" stroke="black" stroke-width="3" stroke-linecap="round" stroke-linejoin="round"/>
<path d="M635 12H637.281" stroke="black" stroke-width="3" stroke-linecap="round" stroke-linejoin="round"/>
<path d="M633 16L634.141 17.1406" stroke="black" stroke-width="3" stroke-linecap="round" stroke-linejoin="round"/>
<path d="M629 18C629 18.3691 629 18.7564 629 19.1406" stroke="black" stroke-width="3" stroke-linecap="round" stroke-linejoin="round"/>
<path d="M624.141 17C623.718 17.3613 623.335 17.7469 623 18.1406" stroke="black" stroke-width="3" stroke-linecap="round" stroke-linejoin="round"/>
<path d="M596.359 43.7812C595.236 45.0994 594.287 45.8597 593.096 47.1328C590.068 50.3809 588.714 54.5918 588.436 58.7441C588.158 62.8965 588.877 67.0444 589.591 71.1562" stroke="black" stroke-width="3" stroke-linecap="round" stroke-linejoin="round"/>
<path d="M578.109 72.2969C578.829 65.716 579.942 59.1757 581.441 52.726C581.748 51.4008 582.078 50.0665 582.655 48.8317C584.213 45.5119 587.403 43.2459 590.656 41.5" stroke="black" stroke-width="3" stroke-linecap="round" stroke-linejoin="round"/>
<path d="M578.109 73.1374C578.959 73.9926 580.348 74.4365 581.723 74.5457C583.097 74.6548 584.481 74.4693 585.842 74.2764C586.632 74.1636 587.43 74.0472 588.132 73.7451C588.833 73.4431 589.427 72.9191 589.516 72.2969" stroke="black" stroke-width="3" stroke-linecap="round" stroke-linejoin="round"/>
<path d="M594.078 40.2484C595.945 39.38 597.846 38.4976 599.888 38.1942C602.845 37.7553 605.921 38.591 608.428 40.1971C610.935 41.8031 612.911 44.1328 614.376 46.7053C616.101 49.7214 617.172 53.1949 616.826 56.6405C616.802 56.8832 616.764 57.14 616.617 57.3361C616.466 57.5415 616.214 57.6489 615.978 57.7423C614.75 58.2185 613.447 58.5033 612.134 58.592C611.158 58.6574 610.068 58.564 609.404 57.859C609.044 57.4762 608.864 56.9626 608.722 56.4537C608.348 55.0951 608.201 53.6805 608.286 52.2752C607.191 52.4993 606.054 52.5226 604.95 52.3499C604.405 52.2658 603.836 52.1164 603.457 51.7243C603.149 51.4068 603.002 50.9726 602.902 50.5477C602.618 49.3479 602.627 48.0826 602.917 46.8827C601.822 47.4757 600.395 47.4057 599.362 46.7147C598.329 46.0237 597.746 44.7351 597.907 43.5166C596.964 43.75 595.912 43.5026 595.173 42.8816C594.434 42.2607 594.026 41.2756 594.111 40.3185" stroke="black" stroke-width="3" stroke-linecap="round" stroke-linejoin="round"/>
<path d="M594.887 40.3876C595.732 37.8594 594.891 34.9761 593.196 32.9167C591.502 30.8572 589.066 29.5269 586.546 28.632C584.993 28.0829 583.351 27.6757 581.713 27.8556C580.536 27.9834 579.411 28.4143 578.323 28.8877C576.372 29.7352 574.488 30.7389 572.698 31.8846C572.285 32.145 571.872 32.429 571.597 32.8315C571.174 33.4517 571.169 34.3039 571.506 34.9714C571.844 35.639 572.499 36.1219 573.22 36.3349C574.592 36.7421 576.135 36.1834 577.118 35.1466C578.1 34.1097 578.566 32.6658 578.646 31.2407C578.793 32.4196 579.278 33.5511 580.032 34.4696C580.246 34.73 580.498 34.9856 580.825 35.085C581.381 35.2507 581.955 34.9004 582.397 34.5264C583.322 33.7452 584.082 32.7746 584.618 31.6952C584.523 32.7226 584.476 33.7594 584.471 34.7915C584.471 35.4354 584.504 36.1266 584.894 36.6426C585.606 37.5848 587.134 37.4144 588.107 36.7326C589.081 36.0508 589.731 35.0093 590.638 34.247C590.177 35.3502 589.712 36.4769 589.627 37.67C589.541 38.8631 589.892 40.1508 590.828 40.9036C591.839 41.7227 593.443 41.6942 594.426 40.8421" stroke="black" stroke-width="3" stroke-linecap="round" stroke-linejoin="round"/>
<path d="M595.219 39.2187C597.17 34.9887 601.453 32.2066 604.855 28.8849C606.217 27.5553 607.471 26.1028 609.072 25.0322C610.396 24.1458 611.917 23.5578 613.452 23.0487C614.435 22.724 615.427 22.4256 616.429 22.1624C616.574 22.1229 616.733 22.0834 616.878 22.1316C617.005 22.1711 617.103 22.2677 617.187 22.3642C618.1 23.4042 618.32 24.9707 617.613 26.1423C616.906 27.3139 615.259 27.9414 613.92 27.4587C614.613 28.4241 614.098 29.8459 613.073 30.4953C612.048 31.1447 610.696 31.171 609.484 30.9122C609.498 32.0179 609.465 33.2422 608.655 34.0452C607.991 34.6991 606.933 34.9009 605.983 34.7649C605.033 34.6288 604.153 34.2032 603.315 33.7556C602.992 35.5767 601.659 37.2134 599.871 37.9857" stroke="black" stroke-width="3" stroke-linecap="round" stroke-linejoin="round"/>
<path d="M596.662 36.9375C598.152 32.898 599.066 28.2025 598.442 23.8987C597.818 19.5949 595.991 15.4846 593.155 12.4172C592.947 12.1954 592.726 11.9688 592.444 11.8839C592.206 11.8131 591.951 11.8509 591.708 11.8839C590.773 12.0302 589.807 12.1859 589.019 12.7475C588.82 12.8891 588.634 13.0542 588.517 13.2807C588.235 13.8093 588.417 14.4841 588.677 15.0221C589.543 16.8295 591.267 18.1225 593.124 18.3585C591.977 18.9672 591.34 20.5293 591.695 21.8648C592.05 23.2003 593.354 24.1488 594.623 23.9931C594.203 24.7056 593.774 25.4465 593.64 26.2818C593.505 27.1171 593.722 28.0798 594.376 28.5423C594.731 28.7971 595.238 28.9623 595.303 29.4153C595.324 29.5852 595.277 29.7551 595.22 29.9202C594.956 30.7036 594.605 31.4539 594.41 32.2609C594.216 33.0679 594.155 34.3373 594.549 35.0499" stroke="black" stroke-width="3" stroke-linecap="round" stroke-linejoin="round"/>
<path d="M588.375 42.6406C588.906 44.4742 590.179 45.8382 591.561 46.7605C591.984 47.0456 592.465 47.2972 592.938 47.1686" stroke="black" stroke-width="3" stroke-linecap="round" stroke-linejoin="round"/>
<path d="M583.812 48.3438C584.306 48.8488 584.458 49.1844 585.103 49.5997C586.573 50.5366 588.769 50.8689 590.656 50.4403" stroke="black" stroke-width="3" stroke-linecap="round" stroke-linejoin="round"/>
<path d="M581.531 56.3281C582.755 57.352 584.063 58.4123 585.612 58.5852C586.574 58.6944 587.571 58.4305 588.375 57.8571" stroke="black" stroke-width="3" stroke-linecap="round" stroke-linejoin="round"/>
<path d="M580.391 64.3125C581.062 64.8509 581.997 65.1714 582.954 65.3208C583.911 65.4702 584.905 65.4671 585.882 65.4359C586.768 65.4079 587.733 65.3363 588.375 64.8758" stroke="black" stroke-width="3" stroke-linecap="round" stroke-linejoin="round"/>
<path d="M579.25 68.875C581.077 69.4691 582.77 71.1636 584.634 71.1562C585.654 71.1562 586.637 70.6281 587.601 70.1146C588.238 69.7699 588.879 69.4325 589.516 69.0877" stroke="black" stroke-width="3" stroke-linecap="round" stroke-linejoin="round"/>
<path d="M579.25 69.1406C573.196 68.4475 567.102 68.0673 561 68" stroke="black" stroke-width="3" stroke-linecap="round" stroke-linejoin="round"/>
<path d="M589.516 69.5821C602.394 71.6364 615.373 68.4227 628.297 69.2942" stroke="black" stroke-width="3" stroke-linecap="round" stroke-linejoin="round"/>
</svg>
