<svg width="47" height="85" viewBox="0 0 47 85" fill="none" xmlns="http://www.w3.org/2000/svg">
<path d="M0.917125 77.48L2.66113 76.616C3.30113 78.136 4.59713 79.016 6.30913 79.016C8.00513 79.016 9.06113 78.376 9.06113 77.208C9.06113 76.136 8.37313 75.624 7.12513 75.272L5.20513 74.744C3.47713 74.264 1.65313 73.304 1.65313 71.032C1.65313 68.744 3.60513 67.352 6.14913 67.352C8.61313 67.352 10.3251 68.776 11.0291 70.488L9.30113 71.352C8.72513 70.136 7.68513 69.224 6.14913 69.224C4.59713 69.224 3.68513 69.896 3.68513 71.032C3.68513 72.152 4.54913 72.6 5.66913 72.904L7.54113 73.416C9.28513 73.896 11.0931 74.904 11.0931 77.208C11.0931 79.528 8.98113 80.888 6.30913 80.888C3.68513 80.888 1.74913 79.608 0.917125 77.48ZM17.8505 78.712L18.3145 80.44C17.7385 80.744 16.9225 80.888 16.2345 80.888C14.5705 80.888 13.5145 80.008 13.5145 78.264V72.968H11.9305V71.096H13.5145V68.552H15.5625V71.096H17.9145V72.968H15.5625V77.96C15.5625 78.792 15.9305 79.016 16.5385 79.016C17.0345 79.016 17.4185 78.888 17.8505 78.712ZM23.4939 70.856C25.7179 70.856 27.4139 72.216 27.4139 74.552V80.648H25.5259L25.4299 79.432C24.9179 80.344 23.9899 80.888 22.7739 80.888H22.1659C20.4379 80.888 19.1259 79.624 19.1259 77.816C19.1259 76.12 20.3579 74.872 22.6779 74.872H25.3819V74.632C25.3819 73.544 24.7259 72.728 23.3499 72.728C22.4059 72.728 21.7339 73.16 21.3179 73.912L19.4779 73.128C20.1979 71.816 21.6859 70.856 23.4939 70.856ZM22.5979 79H23.1899C24.2459 79 25.2379 78.408 25.3819 77.368V76.632H22.7419C21.7019 76.632 21.1579 77.096 21.1579 77.816C21.1579 78.552 21.7339 79 22.5979 79ZM31.7909 80.312L28.2709 71.096H30.4149L32.8629 77.976L35.3109 71.096H37.4709L33.6309 81.176C33.0069 82.856 32.1269 83.608 30.9429 83.608C30.0469 83.608 29.2789 83.464 28.6709 83.224L29.1349 81.512C29.6149 81.672 30.0629 81.784 30.5589 81.784C31.0229 81.784 31.4069 81.56 31.6149 80.84L31.7909 80.312ZM37.6709 78.6L39.2389 77.544C39.9589 78.728 41.1109 79.144 42.0709 79.144C43.0149 79.144 43.8629 78.824 43.8629 78.072C43.8629 77.336 43.2229 77.064 42.3589 76.84L41.2389 76.552C39.7669 76.184 38.3429 75.432 38.3429 73.624C38.3429 71.816 39.8469 70.856 41.8469 70.856C43.7509 70.856 44.9829 71.72 45.7989 72.904L44.3109 74.008C43.6549 73.144 42.7589 72.6 41.8149 72.6C40.8869 72.6 40.3269 72.984 40.3269 73.624C40.3269 74.28 40.7749 74.584 41.6389 74.824L42.7429 75.096C44.2149 75.464 45.8469 76.168 45.8469 78.072C45.8469 80.008 43.9909 80.888 42.0229 80.888C40.0869 80.888 38.5029 80.104 37.6709 78.6Z" fill="black"/>
<path d="M36.9453 11.179C38.2539 14.867 39.5775 18.5501 40.8663 22.2431C41.4314 23.8541 41.7387 25.5048 41.7437 27.2398C41.7437 28.3204 42.4327 29.3366 42.4079 30.4519C42.3633 32.5141 42.5814 34.5812 42.2939 36.6383C42.1254 37.8479 41.6396 38.3138 40.3954 38.4179C35.6812 38.8244 30.977 39.2854 26.2381 39.3945C24.4932 39.4341 22.7433 39.6919 21.0084 39.8951C19.3031 40.0934 17.5731 40.0141 15.8877 40.3363C12.7549 40.9361 9.61708 40.029 6.48423 40.4255C5.6564 40.5296 5.32428 39.8009 5.19044 39.1317C4.67491 36.5739 4.1445 33.9962 4.05032 31.3987C3.98588 29.6737 3.86195 27.8346 4.59559 26.1691C6.34047 22.2232 7.18813 17.9552 8.95284 14.0144C9.19573 13.4642 9.53777 12.9486 9.70135 12.3637" stroke="black" stroke-width="3" stroke-linecap="round" stroke-linejoin="round"/>
<path d="M30.402 11.7739C30.2533 12.1605 30.3029 12.567 30.2781 12.9636C30.1889 14.3218 29.6287 14.8373 28.2606 14.8671C25.0831 14.9365 21.9156 14.6787 18.7431 14.6291C17.945 14.6192 17.6723 14.2127 17.5236 13.4444C17.3154 12.339 17.7467 11.3723 17.9152 10.3462C18.0094 9.78609 18.3118 9.54815 18.976 9.47875C22.1039 9.15655 25.2417 9.12185 28.3796 9.17637C29.0388 9.18629 29.6833 9.44901 29.9361 10.2223C30.0947 10.7131 30.3227 11.179 30.521 11.6549" stroke="black" stroke-width="3" stroke-linecap="round" stroke-linejoin="round"/>
<path d="M30.6398 11.6548C32.3054 11.5359 33.9709 11.4119 35.6365 11.2979C36.9402 11.2137 37.6639 10.5593 37.773 9.2705C37.9068 7.6198 37.5648 5.98893 37.2475 4.40268C36.9848 3.07915 35.7604 2.6231 34.4468 2.47935C30.3721 2.03321 26.2825 1.97373 22.193 2.01834C19.8136 2.04313 17.4243 1.86963 15.0548 2.25132C13.6917 2.46943 12.3582 2.80156 11.1289 3.44597C9.79542 4.14491 9.41372 5.4734 9.26501 6.7771C9.1163 8.06594 8.95768 9.37955 9.21048 10.7031C9.51286 12.3092 9.75576 12.5174 11.3718 12.3736C13.0324 12.2299 14.693 11.9919 16.3685 12.0068C16.651 12.0068 16.9435 11.9572 17.2012 12.1258" stroke="black" stroke-width="3" stroke-linecap="round" stroke-linejoin="round"/>
<path d="M41.5851 27.4778C39.4635 28.2213 37.2278 28.2709 35.0418 28.3899C27.7103 28.7815 20.3788 29.064 13.0375 29.178C10.4598 29.2177 7.88213 29.2028 5.30446 29.2623C5.02191 29.2673 4.72945 29.3168 4.47168 29.1483" stroke="black" stroke-width="3" stroke-linecap="round" stroke-linejoin="round"/>
</svg>
